<svg xmlns="http://www.w3.org/2000/svg" xmlns:xlink="http://www.w3.org/1999/xlink" width="231" zoomAndPan="magnify" viewBox="0 0 173.25 207.000001" height="276" preserveAspectRatio="xMidYMid meet" version="1.0"><defs><clipPath id="4322d94580"><path d="M 0.0429688 0 L 171.714844 0 L 171.714844 205.257812 L 0.0429688 205.257812 Z M 0.0429688 0 " clip-rule="nonzero"/></clipPath><clipPath id="83cfb32a4d"><path d="M 5.730469 7.023438 L 160.980469 7.023438 L 160.980469 192.128906 L 5.730469 192.128906 Z M 5.730469 7.023438 " clip-rule="nonzero"/></clipPath><clipPath id="8df29afd9a"><path d="M 8.554688 10.171875 L 163.804688 10.171875 L 163.804688 195.277344 L 8.554688 195.277344 Z M 8.554688 10.171875 " clip-rule="nonzero"/></clipPath><clipPath id="d8fc9f99af"><path d="M 36 58 L 140 58 L 140 159.953125 L 36 159.953125 Z M 36 58 " clip-rule="nonzero"/></clipPath><clipPath id="afa6f36563"><path d="M 93 39.035156 L 98 39.035156 L 98 47 L 93 47 Z M 93 39.035156 " clip-rule="nonzero"/></clipPath><clipPath id="91e7c27948"><path d="M 27.652344 92 L 36 92 L 36 98 L 27.652344 98 Z M 27.652344 92 " clip-rule="nonzero"/></clipPath><clipPath id="0d8c36f36d"><path d="M 27.652344 100 L 36 100 L 36 106 L 27.652344 106 Z M 27.652344 100 " clip-rule="nonzero"/></clipPath><clipPath id="036f51e320"><path d="M 33 58 L 138 58 L 138 159.953125 L 33 159.953125 Z M 33 58 " clip-rule="nonzero"/></clipPath><clipPath id="d3411a9b29"><path d="M 90 39.035156 L 96 39.035156 L 96 47 L 90 47 Z M 90 39.035156 " clip-rule="nonzero"/></clipPath><clipPath id="e3a8a775e7"><path d="M 25.335938 92 L 34 92 L 34 98 L 25.335938 98 Z M 25.335938 92 " clip-rule="nonzero"/></clipPath><clipPath id="d8d581205a"><path d="M 25.335938 100 L 34 100 L 34 106 L 25.335938 106 Z M 25.335938 100 " clip-rule="nonzero"/></clipPath><clipPath id="9be4c41d59"><path d="M 136 102 L 146.996094 102 L 146.996094 108 L 136 108 Z M 136 102 " clip-rule="nonzero"/></clipPath></defs><g clip-path="url(#4322d94580)"><path fill="#b74e14" d="M 85.953125 0 C 113.207031 21.71875 151.113281 34.328125 171.945312 40.050781 C 168.324219 174.34375 100.785156 201.171875 86.175781 205.410156 C 71.652344 201.085938 4.589844 173.914062 0.0703125 40.019531 C 20.921875 34.28125 58.746094 21.671875 85.953125 0 Z M 85.953125 0 " fill-opacity="1" fill-rule="evenodd"/></g><path fill="#b74e14" d="M 46.9375 96.582031 L 46.753906 96.226562 L 46.375 96.328125 L 46.648438 96.542969 C 46.742188 96.574219 46.839844 96.585938 46.9375 96.582031 Z M 46.9375 96.582031 " fill-opacity="1" fill-rule="evenodd"/><path fill="#b74e14" d="M 47.570312 96.277344 C 47.457031 96.382812 47.332031 96.464844 47.222656 96.523438 C 47.308594 96.488281 47.398438 96.441406 47.480469 96.363281 C 47.507812 96.339844 47.539062 96.3125 47.570312 96.277344 Z M 47.570312 96.277344 " fill-opacity="1" fill-rule="evenodd"/><g clip-path="url(#83cfb32a4d)"><path fill="#f58926" d="M 83.132812 7.023438 C 107.683594 26.589844 141.835938 37.953125 160.609375 43.105469 C 157.347656 164.101562 96.492188 188.273438 83.332031 192.09375 C 70.246094 188.195312 9.824219 163.714844 5.75 43.078125 C 24.535156 37.90625 58.617188 26.546875 83.132812 7.023438 Z M 83.132812 7.023438 " fill-opacity="1" fill-rule="evenodd"/></g><path fill="#f58926" d="M 47.976562 94.039062 L 47.8125 93.71875 L 47.46875 93.808594 L 47.71875 94.007812 C 47.804688 94.035156 47.890625 94.042969 47.976562 94.039062 Z M 47.976562 94.039062 " fill-opacity="1" fill-rule="evenodd"/><path fill="#f58926" d="M 48.546875 93.765625 C 48.449219 93.859375 48.332031 93.933594 48.234375 93.988281 C 48.3125 93.957031 48.390625 93.910156 48.46875 93.84375 C 48.492188 93.824219 48.519531 93.796875 48.546875 93.765625 Z M 48.546875 93.765625 " fill-opacity="1" fill-rule="evenodd"/><g clip-path="url(#8df29afd9a)"><path fill="#d5550e" d="M 85.960938 10.171875 C 110.511719 29.738281 144.664062 41.101562 163.4375 46.253906 C 160.171875 167.25 99.320312 191.421875 86.160156 195.242188 C 73.070312 191.34375 12.652344 166.863281 8.578125 46.226562 C 27.363281 41.058594 61.445312 29.695312 85.960938 10.171875 Z M 85.960938 10.171875 " fill-opacity="1" fill-rule="evenodd"/></g><path fill="#d5550e" d="M 50.804688 97.191406 L 50.640625 96.867188 L 50.296875 96.957031 L 50.542969 97.15625 C 50.628906 97.183594 50.71875 97.195312 50.804688 97.191406 Z M 50.804688 97.191406 " fill-opacity="1" fill-rule="evenodd"/><path fill="#d5550e" d="M 51.375 96.914062 C 51.273438 97.007812 51.160156 97.082031 51.0625 97.136719 C 51.140625 97.105469 51.21875 97.0625 51.296875 96.992188 C 51.320312 96.972656 51.347656 96.949219 51.375 96.914062 Z M 51.375 96.914062 " fill-opacity="1" fill-rule="evenodd"/><g clip-path="url(#d8fc9f99af)"><path fill="#b74e14" d="M 121.609375 133.292969 C 117.605469 133.238281 113.695312 131.660156 109.683594 131.167969 C 109.574219 131.15625 109.464844 131.144531 109.359375 131.128906 C 110.203125 131.144531 111.042969 131.148438 111.871094 131.132812 C 128.152344 130.828125 139.4375 129.089844 139.4375 129.089844 C 139.4375 129.089844 101.183594 130.714844 96.933594 125.027344 C 94.8125 122.191406 92.703125 116.820312 94.027344 107.019531 C 94.027344 107.019531 95.421875 94.75 106.992188 93.21875 C 106.992188 93.21875 130.546875 93.914062 136.402344 87.085938 C 136.402344 87.085938 128.734375 91.128906 119.117188 90.570312 C 119.117188 90.570312 104.761719 88.617188 97.09375 93.636719 C 97.09375 93.636719 101.414062 83.601562 109.640625 82.34375 C 117.863281 81.089844 130.828125 81.371094 132.777344 78.304688 C 132.777344 78.304688 127.203125 79.976562 123.019531 79 C 118.839844 78.023438 97.652344 78.023438 90.960938 90.011719 C 90.960938 90.011719 96.117188 75.65625 102.949219 70.636719 C 102.949219 70.636719 88.035156 77.1875 85.664062 87.921875 C 85.664062 87.921875 78.136719 77.605469 75.070312 58.648438 C 75.070312 58.648438 72.144531 76.210938 79.949219 91.683594 C 79.949219 91.683594 72.28125 87.222656 53.882812 89.871094 C 53.882812 89.871094 47.285156 91.3125 42.636719 89.546875 C 42.636719 89.546875 46.167969 92.148438 68.285156 93.265625 C 68.285156 93.265625 81.109375 94.378906 81.480469 107.761719 C 81.480469 107.761719 82.132812 127.832031 72.34375 127.921875 C 51.113281 128.113281 36.289062 129.089844 36.289062 129.089844 C 36.289062 129.089844 42.871094 129.738281 52.589844 130.402344 C 51.296875 131.191406 47.785156 132.3125 46.542969 132.449219 C 45.148438 132.605469 41.214844 130.898438 41.214844 130.898438 C 41.214844 130.898438 41.738281 131.765625 44.714844 132.726562 C 47.6875 133.6875 51.527344 131.582031 51.527344 131.582031 C 51.527344 131.582031 47.617188 134.308594 46.191406 134.804688 C 44.769531 135.296875 38.269531 132.789062 38.269531 132.789062 C 38.269531 132.789062 43.597656 135.640625 46.261719 135.515625 C 48.472656 135.414062 53.078125 131.769531 54.582031 130.535156 C 56.226562 130.644531 57.949219 130.75 59.738281 130.855469 C 62.335938 131.003906 64.890625 131.011719 67.464844 130.945312 L 70.164062 131.492188 C 68.859375 132.277344 66.867188 133.203125 65.375 132.664062 C 62.957031 131.796875 55.183594 130.21875 54.253906 133.160156 C 54.253906 133.160156 55.121094 132.199219 56.113281 132.171875 C 57.101562 132.140625 61.503906 132.632812 61.503906 132.632812 C 61.503906 132.632812 59.582031 134.308594 58.15625 134.617188 C 57.035156 134.859375 50.28125 133.945312 49.515625 136.570312 C 49.515625 136.570312 50.582031 136.03125 50.96875 135.917969 C 52.113281 135.578125 55.441406 135.449219 57.34375 135.394531 C 58.300781 135.363281 59.234375 135.078125 60.039062 134.558594 C 60.855469 134.035156 61.820312 133.351562 62.214844 132.824219 L 64.566406 133.378906 C 64.566406 133.378906 63.640625 135.121094 61.097656 135.519531 C 61.097656 135.519531 63.296875 136.507812 65.03125 133.410156 C 65.03125 133.410156 69.46875 134.488281 72.296875 131.925781 C 74.976562 132.355469 76.53125 131.152344 77.167969 130.488281 C 77.671875 130.460938 78.179688 130.433594 78.691406 130.410156 C 77.03125 132.457031 72.707031 137.355469 69.074219 137.683594 C 69.074219 137.683594 64.140625 136.957031 59.9375 138.382812 C 59.9375 138.382812 54.160156 139.511719 52.207031 136.910156 C 52.207031 136.910156 53.199219 139.191406 55.84375 139.644531 C 55.757812 139.652344 55.667969 139.664062 55.582031 139.671875 C 54.328125 139.773438 53.03125 139.863281 51.246094 140.066406 L 45.761719 138.285156 L 49.390625 140.359375 C 48.664062 140.429688 47.929688 140.398438 47.207031 140.269531 C 45.101562 139.894531 43.148438 140.441406 43.148438 140.441406 C 43.148438 140.441406 45.160156 140.542969 45.761719 140.679688 C 47.207031 141.011719 47.191406 140.984375 50.398438 141.03125 C 51.980469 141.050781 55.167969 140.917969 58.140625 140.785156 C 58.035156 140.839844 57.917969 140.898438 57.792969 140.964844 C 56.84375 141.457031 55.839844 141.835938 54.804688 142.101562 C 53.859375 142.34375 52.667969 142.734375 51.800781 143.316406 C 51.363281 143.609375 50.917969 143.894531 50.457031 144.152344 C 50.285156 144.246094 50.09375 144.308594 49.898438 144.328125 L 48.507812 144.472656 C 48.507812 144.472656 48.578125 144.5 48.695312 144.539062 C 49.523438 144.816406 50.433594 144.667969 51.140625 144.15625 C 52.089844 143.46875 54.003906 142.292969 55.957031 142.316406 C 55.957031 142.316406 55.246094 144.394531 55.492188 144.847656 L 56.578125 142.332031 L 59.445312 140.726562 C 61.96875 140.617188 64.117188 140.523438 64.660156 140.566406 C 64.722656 140.570312 64.796875 140.574219 64.886719 140.578125 C 63.769531 141.613281 56.597656 148.113281 52.207031 148.339844 C 52.207031 148.339844 53.789062 149.050781 57.070312 147.472656 C 58.875 146.605469 61.613281 144.523438 63.714844 142.824219 C 67.441406 143.769531 69.585938 140.566406 69.585938 140.566406 L 69.007812 140.566406 C 71.316406 140.429688 73.835938 140.039062 74.789062 139.03125 C 74.789062 139.03125 75.441406 142.097656 71.675781 144.421875 C 67.914062 146.746094 61.082031 146.1875 59.179688 147.535156 L 62.617188 148.09375 C 62.617188 148.09375 58.0625 149.765625 57.085938 151.902344 C 57.085938 151.902344 62.199219 149.023438 63.546875 149.066406 C 65.085938 149.121094 66.675781 148.875 68.195312 148.660156 C 70.117188 148.390625 71.863281 148.007812 73.558594 146.996094 C 74.652344 146.347656 75.644531 145.523438 76.484375 144.558594 C 77.402344 143.503906 77.882812 142.382812 78.425781 141.121094 C 78.820312 140.191406 79.308594 139.304688 79.878906 138.476562 L 84.363281 131.957031 C 84.363281 131.957031 85.476562 133.597656 84.734375 135.6875 C 84.734375 135.6875 81.015625 139.730469 79.203125 144.609375 C 77.539062 145.863281 75.625 149.765625 75.625 149.765625 C 67.292969 152.988281 66.457031 156.144531 66.457031 156.144531 C 70.296875 151.808594 75.390625 150.664062 75.390625 150.664062 L 74.417969 152.644531 C 69.246094 153.542969 70.144531 156.640625 70.144531 156.640625 C 70.761719 153.390625 73.660156 154.039062 73.660156 154.039062 L 71.164062 157.726562 L 74.449219 154.242188 C 74.449219 154.242188 74.574219 154.535156 74.542969 155.742188 C 74.511719 156.953125 74.046875 158.160156 74.046875 158.160156 C 75.113281 157.015625 75.179688 155.902344 75.1875 155.070312 C 75.222656 152.273438 76.328125 150.085938 76.773438 149.269531 C 78.273438 146.519531 79.46875 145.210938 79.46875 145.210938 L 79.582031 147.25 L 79.605469 147.445312 C 79.707031 148.425781 76.554688 154.257812 76.554688 154.257812 C 76.554688 154.257812 78.289062 153.914062 80.398438 148.898438 C 81.066406 147.300781 80.039062 144.652344 80.039062 144.652344 C 80.039062 144.652344 83.339844 137.40625 85.847656 136.523438 C 85.847656 136.523438 88.171875 139.328125 87.195312 141.664062 C 87.195312 141.664062 81.433594 148.464844 80.320312 151.34375 C 80.320312 151.34375 77.390625 157.058594 78.972656 159.476562 C 78.972656 159.476562 78.953125 154.835938 80.921875 153.4375 C 80.921875 153.4375 83.757812 159.011719 85.476562 159.753906 C 85.476562 159.753906 84.757812 158.480469 83.125 155.632812 C 82.796875 155.0625 82.566406 154.441406 82.457031 153.792969 C 82.359375 153.207031 82.195312 152.582031 82.480469 152.039062 C 83.601562 149.90625 85.105469 148.554688 85.105469 148.464844 C 85.105469 148.546875 85.1875 148.675781 85.21875 148.753906 C 85.328125 149.03125 85.441406 149.304688 85.554688 149.578125 C 85.722656 149.96875 85.902344 150.351562 86.085938 150.730469 L 86.007812 150.597656 C 86.007812 150.597656 85.722656 153.046875 85.664062 153.652344 C 85.664062 153.652344 85.691406 157.230469 86.5 158.46875 L 86.171875 154.410156 C 86.171875 154.410156 87.179688 157.308594 87.863281 157.449219 C 87.863281 157.449219 86.257812 153.925781 86.695312 151.992188 C 86.839844 152.292969 86.976562 152.59375 87.101562 152.898438 C 87.574219 154.011719 87.957031 155.167969 88.25 156.34375 C 88.433594 157.082031 88.644531 157.816406 88.820312 158.5625 C 88.9375 159.058594 89.066406 159.570312 89.101562 160.082031 C 89.101562 160.082031 89.449219 158.015625 89.039062 154.699219 C 88.875 153.347656 88.542969 152.023438 88.085938 150.738281 C 87.660156 149.535156 87.1875 147.640625 87.9375 146.558594 C 89.101562 144.886719 91.050781 142.65625 90.542969 140.75 C 90.542969 140.75 92.726562 142.050781 92.726562 145.027344 C 92.726562 145.027344 89.597656 149.050781 90.03125 150.570312 C 90.464844 152.089844 91.269531 153.171875 90.277344 154.410156 C 90.277344 154.410156 91.640625 153.914062 91.019531 152.058594 C 90.433594 150.296875 90.960938 148.621094 92.777344 146.816406 C 92.84375 148.03125 92.960938 149.222656 93.0625 150.125 C 93.125 150.675781 93.082031 151.234375 92.921875 151.769531 C 92.5625 152.96875 92 154.140625 91.730469 155.132812 C 91.339844 156.5625 91.742188 158.46875 91.734375 158.65625 C 91.722656 158.964844 92.046875 156.148438 92.285156 155.226562 C 92.542969 154.214844 93.4375 152.832031 93.4375 152.832031 C 93.4375 152.832031 94.535156 155.996094 94.429688 156.640625 C 94.324219 157.285156 93.4375 160.082031 93.4375 160.082031 C 93.839844 159.707031 94.675781 157.199219 94.675781 157.199219 C 94.816406 159.105469 95.976562 159.707031 95.976562 159.707031 C 95.140625 158.75 95.171875 156.953125 95.078125 155.773438 C 94.988281 154.597656 93.816406 152.296875 93.816406 152.296875 L 99.324219 158.160156 C 98.75 156.382812 96.269531 153.871094 94.839844 152.25 C 93.976562 151.273438 93.765625 149.867188 93.726562 148.5625 C 93.699219 147.769531 93.699219 146.921875 93.769531 146.328125 C 94.328125 141.683594 93.746094 138.9375 90.167969 136.058594 C 90.167969 136.058594 88.730469 133.261719 89.378906 131.777344 L 90.308594 131.800781 C 90.308594 131.800781 92.910156 135.453125 93.980469 136.199219 C 95.046875 136.941406 96.675781 141.679688 96.257812 143.492188 C 95.839844 145.304688 95.328125 148.164062 97 150.414062 C 99.253906 153.449219 103.273438 158.175781 103.273438 158.175781 L 98.9375 149.902344 C 98.308594 148.703125 98.007812 147.355469 98.070312 146 L 99.160156 146.6875 C 100.824219 147.734375 102.214844 149.160156 103.210938 150.851562 L 106.476562 156.386719 C 106.546875 155.710938 103.851562 148.394531 102.511719 147.378906 C 102.511719 147.378906 102.765625 147.359375 103.183594 147.339844 C 103.9375 148.152344 107.4375 151.957031 107.6875 152.644531 C 107.964844 153.421875 108.214844 153.894531 111.714844 154.835938 L 108.800781 153.203125 C 108.800781 153.203125 112.808594 153.414062 113.199219 153.761719 C 113.199219 153.761719 112.691406 152.519531 108.476562 152.644531 C 108.476562 152.644531 106.011719 148.667969 104.71875 147.300781 C 106.226562 147.296875 108.15625 147.402344 109.328125 147.875 C 111.464844 148.742188 114.410156 153.046875 114.71875 153.605469 C 114.71875 153.605469 114.160156 150.199219 111.835938 147.441406 C 111.835938 147.441406 113.609375 148.90625 115.027344 149.546875 C 116.59375 150.257812 118.003906 150.570312 118.003906 150.570312 L 112.890625 147.046875 C 112.007812 146.535156 110.234375 145.570312 108.886719 145.320312 C 106.789062 144.9375 103.816406 144.40625 102.296875 144.1875 C 99.726562 143.824219 98.578125 139.511719 98.578125 139.511719 C 98.578125 139.511719 101.367188 141 103.414062 141.03125 C 105.457031 141.0625 109.667969 141.617188 110.628906 142.363281 C 111.589844 143.105469 116.886719 148.308594 121.6875 149.363281 C 121.6875 149.363281 115.152344 145.117188 114.8125 144.46875 C 114.472656 143.816406 110.351562 140.222656 110.351562 140.222656 C 110.351562 140.222656 113.605469 140.285156 116.515625 141.617188 C 119.425781 142.949219 123.332031 143.664062 126.023438 143.261719 L 128.535156 143.011719 C 128.535156 143.011719 125.402344 142.464844 123.71875 142.425781 C 122.15625 142.386719 117.445312 140.8125 117.164062 140.566406 C 116.886719 140.316406 119.644531 139.449219 121.90625 139.265625 C 124.167969 139.078125 133.304688 138.675781 133.304688 138.675781 C 133.304688 138.675781 131.199219 138.027344 126.953125 137.996094 C 122.710938 137.964844 116.515625 139.449219 116.515625 139.449219 L 112.273438 138.519531 L 102.605469 137.714844 C 102.605469 137.714844 95.484375 134.996094 96.289062 131.910156 C 96.289062 131.910156 117.011719 134.371094 119.054688 134.464844 L 121.097656 134.554688 L 129.152344 137.097656 L 122.277344 134.371094 C 122.277344 134.371094 127.355469 133.96875 128.6875 133.78125 C 130.019531 133.597656 133.707031 131.675781 133.769531 131.179688 C 133.769531 131.179688 130.453125 133.191406 127.324219 133.285156 C 125.800781 133.332031 123.535156 133.316406 121.609375 133.292969 Z M 64.128906 142.484375 C 65.101562 141.6875 65.902344 141.007812 66.347656 140.625 C 67.066406 140.632812 67.933594 140.621094 68.835938 140.574219 C 67.351562 142.816406 64.832031 142.59375 64.128906 142.484375 Z M 64.128906 142.484375 " fill-opacity="1" fill-rule="nonzero"/></g><path fill="#b74e14" d="M 91.886719 66.113281 C 90.675781 69.632812 88.433594 72.054688 86.875 71.519531 C 85.320312 70.984375 85.039062 67.695312 86.25 64.171875 C 87.464844 60.652344 91.261719 58.765625 91.261719 58.765625 C 91.261719 58.765625 93.097656 62.589844 91.886719 66.113281 Z M 91.886719 66.113281 " fill-opacity="1" fill-rule="nonzero"/><path fill="#b74e14" d="M 98.808594 59.078125 C 97.53125 61.851562 95.496094 63.644531 94.273438 63.078125 C 93.046875 62.511719 93.089844 59.804688 94.371094 57.027344 C 95.652344 54.253906 98.910156 53.027344 98.910156 53.027344 C 98.910156 53.027344 100.089844 56.300781 98.808594 59.078125 Z M 98.808594 59.078125 " fill-opacity="1" fill-rule="nonzero"/><path fill="#b74e14" d="M 102.808594 46.726562 C 102.25 49.445312 100.824219 51.449219 99.625 51.203125 C 98.425781 50.957031 97.902344 48.550781 98.460938 45.835938 C 99.015625 43.117188 101.640625 41.359375 101.640625 41.359375 C 101.640625 41.359375 103.363281 44.007812 102.808594 46.726562 Z M 102.808594 46.726562 " fill-opacity="1" fill-rule="nonzero"/><path fill="#b74e14" d="M 95.609375 52.164062 C 95.054688 54.878906 93.628906 56.882812 92.429688 56.636719 C 91.226562 56.390625 90.707031 53.988281 91.261719 51.269531 C 91.820312 48.554688 94.445312 46.796875 94.445312 46.796875 C 94.445312 46.796875 96.167969 49.445312 95.609375 52.164062 Z M 95.609375 52.164062 " fill-opacity="1" fill-rule="nonzero"/><path fill="#b74e14" d="M 88.832031 52.203125 C 89.726562 55.414062 89.300781 58.335938 87.882812 58.730469 C 86.464844 59.125 84.59375 56.84375 83.699219 53.636719 C 82.804688 50.425781 84.644531 47.109375 84.644531 47.109375 C 84.644531 47.109375 87.9375 48.996094 88.832031 52.203125 Z M 88.832031 52.203125 " fill-opacity="1" fill-rule="nonzero"/><path fill="#b74e14" d="M 83.660156 67.722656 C 84.554688 70.933594 84.128906 73.855469 82.710938 74.25 C 81.292969 74.644531 79.417969 72.363281 78.523438 69.15625 C 77.632812 65.945312 79.472656 62.628906 79.472656 62.628906 C 79.472656 62.628906 82.765625 64.515625 83.660156 67.722656 Z M 83.660156 67.722656 " fill-opacity="1" fill-rule="nonzero"/><path fill="#b74e14" d="M 85.617188 60.5 C 85.800781 63 85.054688 65.09375 83.949219 65.175781 C 82.84375 65.257812 81.800781 63.296875 81.613281 60.796875 C 81.429688 58.296875 83.28125 56.117188 83.28125 56.117188 C 83.28125 56.117188 85.429688 58 85.617188 60.5 Z M 85.617188 60.5 " fill-opacity="1" fill-rule="nonzero"/><path fill="#b74e14" d="M 81.195312 56.796875 C 81.015625 59.941406 79.75 62.421875 78.359375 62.34375 C 76.972656 62.265625 75.992188 59.65625 76.167969 56.515625 C 76.34375 53.375 79 50.96875 79 50.96875 C 79 50.96875 81.371094 53.65625 81.195312 56.796875 Z M 81.195312 56.796875 " fill-opacity="1" fill-rule="nonzero"/><path fill="#b74e14" d="M 88.46875 78.226562 C 87.511719 80.878906 85.789062 82.683594 84.617188 82.261719 C 83.449219 81.839844 83.273438 79.351562 84.226562 76.699219 C 85.183594 74.050781 88.078125 72.664062 88.078125 72.664062 C 88.078125 72.664062 89.421875 75.578125 88.46875 78.226562 Z M 88.46875 78.226562 " fill-opacity="1" fill-rule="nonzero"/><path fill="#b74e14" d="M 106.351562 67.808594 C 103.324219 69.144531 100.394531 69.140625 99.804688 67.800781 C 99.214844 66.464844 101.191406 64.300781 104.21875 62.96875 C 107.246094 61.632812 110.765625 62.976562 110.765625 62.976562 C 110.765625 62.976562 109.378906 66.476562 106.351562 67.808594 Z M 106.351562 67.808594 " fill-opacity="1" fill-rule="nonzero"/><path fill="#b74e14" d="M 116.734375 59.875 C 114.671875 62.144531 112.1875 63.242188 111.183594 62.332031 C 110.183594 61.417969 111.042969 58.839844 113.109375 56.574219 C 115.171875 54.304688 118.660156 54.121094 118.660156 54.121094 C 118.660156 54.121094 118.800781 57.609375 116.734375 59.875 Z M 116.734375 59.875 " fill-opacity="1" fill-rule="nonzero"/><path fill="#b74e14" d="M 122.085938 63.898438 C 119.917969 65.542969 117.570312 66.101562 116.839844 65.144531 C 116.113281 64.1875 117.285156 62.074219 119.453125 60.429688 C 121.621094 58.78125 124.695312 59.183594 124.695312 59.183594 C 124.695312 59.183594 124.253906 62.253906 122.085938 63.898438 Z M 122.085938 63.898438 " fill-opacity="1" fill-rule="nonzero"/><path fill="#b74e14" d="M 126.496094 76.769531 C 123.664062 77.890625 120.96875 77.789062 120.472656 76.539062 C 119.976562 75.289062 121.867188 73.367188 124.695312 72.242188 C 127.523438 71.117188 130.71875 72.46875 130.71875 72.46875 C 130.71875 72.46875 129.324219 75.644531 126.496094 76.769531 Z M 126.496094 76.769531 " fill-opacity="1" fill-rule="nonzero"/><path fill="#b74e14" d="M 121.222656 71.960938 C 119.445312 74.835938 116.972656 76.527344 115.703125 75.738281 C 114.433594 74.953125 114.847656 71.988281 116.628906 69.117188 C 118.40625 66.242188 122.148438 65.339844 122.148438 65.339844 C 122.148438 65.339844 123.003906 69.089844 121.222656 71.960938 Z M 121.222656 71.960938 " fill-opacity="1" fill-rule="nonzero"/><path fill="#b74e14" d="M 127.179688 69.945312 C 125.410156 71.203125 123.527344 71.585938 122.972656 70.804688 C 122.417969 70.023438 123.402344 68.371094 125.171875 67.117188 C 126.941406 65.863281 129.378906 66.261719 129.378906 66.261719 C 129.378906 66.261719 128.949219 68.691406 127.179688 69.945312 Z M 127.179688 69.945312 " fill-opacity="1" fill-rule="nonzero"/><path fill="#b74e14" d="M 113.9375 67.445312 C 112.167969 68.699219 110.285156 69.082031 109.730469 68.300781 C 109.175781 67.519531 110.160156 65.867188 111.929688 64.613281 C 113.699219 63.359375 116.136719 63.757812 116.136719 63.757812 C 116.136719 63.757812 115.707031 66.1875 113.9375 67.445312 Z M 113.9375 67.445312 " fill-opacity="1" fill-rule="nonzero"/><path fill="#b74e14" d="M 123.898438 56.6875 C 122.128906 57.941406 120.246094 58.328125 119.691406 57.542969 C 119.136719 56.761719 120.121094 55.113281 121.890625 53.859375 C 123.660156 52.605469 126.097656 53.003906 126.097656 53.003906 C 126.097656 53.003906 125.667969 55.433594 123.898438 56.6875 Z M 123.898438 56.6875 " fill-opacity="1" fill-rule="nonzero"/><path fill="#b74e14" d="M 110.457031 49.324219 C 109.5625 51.300781 107.972656 52.515625 106.90625 52.03125 C 105.835938 51.550781 105.695312 49.554688 106.585938 47.578125 C 107.476562 45.601562 110.136719 44.875 110.136719 44.875 C 110.136719 44.875 111.347656 47.347656 110.457031 49.324219 Z M 110.457031 49.324219 " fill-opacity="1" fill-rule="nonzero"/><g clip-path="url(#afa6f36563)"><path fill="#b74e14" d="M 97.261719 42.554688 C 97.625 44.691406 96.980469 46.582031 95.824219 46.78125 C 94.667969 46.976562 93.4375 45.398438 93.078125 43.261719 C 92.714844 41.125 94.515625 39.035156 94.515625 39.035156 C 94.515625 39.035156 96.902344 40.417969 97.261719 42.554688 Z M 97.261719 42.554688 " fill-opacity="1" fill-rule="nonzero"/></g><path fill="#b74e14" d="M 90.160156 43.671875 C 90.941406 45.953125 90.578125 48.144531 89.34375 48.566406 C 88.113281 48.988281 86.476562 47.484375 85.695312 45.203125 C 84.914062 42.921875 86.511719 40.308594 86.511719 40.308594 C 86.511719 40.308594 89.378906 41.390625 90.160156 43.671875 Z M 90.160156 43.671875 " fill-opacity="1" fill-rule="nonzero"/><path fill="#b74e14" d="M 82.492188 44.722656 C 83.273438 47.003906 82.910156 49.195312 81.675781 49.617188 C 80.445312 50.039062 78.8125 48.535156 78.027344 46.253906 C 77.246094 43.972656 78.84375 41.359375 78.84375 41.359375 C 78.84375 41.359375 81.710938 42.441406 82.492188 44.722656 Z M 82.492188 44.722656 " fill-opacity="1" fill-rule="nonzero"/><path fill="#b74e14" d="M 68.226562 49.464844 C 69.101562 52.015625 68.695312 54.46875 67.316406 54.945312 C 65.933594 55.417969 64.105469 53.730469 63.230469 51.179688 C 62.355469 48.625 64.144531 45.699219 64.144531 45.699219 C 64.144531 45.699219 67.351562 46.910156 68.226562 49.464844 Z M 68.226562 49.464844 " fill-opacity="1" fill-rule="nonzero"/><path fill="#b74e14" d="M 61.683594 52.65625 C 63.1875 54.898438 63.425781 57.371094 62.214844 58.1875 C 61.003906 59 58.800781 57.84375 57.296875 55.601562 C 55.792969 53.359375 56.765625 50.070312 56.765625 50.070312 C 56.765625 50.070312 60.179688 50.414062 61.683594 52.65625 Z M 61.683594 52.65625 " fill-opacity="1" fill-rule="nonzero"/><path fill="#b74e14" d="M 62.53125 61.035156 C 64.6875 62.953125 65.597656 65.457031 64.558594 66.621094 C 63.519531 67.789062 60.929688 67.175781 58.773438 65.257812 C 56.617188 63.335938 56.746094 59.667969 56.746094 59.667969 C 56.746094 59.667969 60.375 59.113281 62.53125 61.035156 Z M 62.53125 61.035156 " fill-opacity="1" fill-rule="nonzero"/><path fill="#b74e14" d="M 71.304688 70.957031 C 73.660156 73.582031 74.417969 76.738281 73 78.007812 C 71.582031 79.28125 68.527344 78.1875 66.171875 75.566406 C 63.820312 72.945312 64.476562 68.515625 64.476562 68.515625 C 64.476562 68.515625 68.949219 68.335938 71.304688 70.957031 Z M 71.304688 70.957031 " fill-opacity="1" fill-rule="nonzero"/><path fill="#b74e14" d="M 62.898438 70.285156 C 64.957031 73.382812 65.269531 76.796875 63.59375 77.914062 C 61.917969 79.027344 58.890625 77.417969 56.828125 74.316406 C 54.769531 71.21875 56.132812 66.6875 56.132812 66.6875 C 56.132812 66.6875 60.835938 67.183594 62.898438 70.285156 Z M 62.898438 70.285156 " fill-opacity="1" fill-rule="nonzero"/><path fill="#b74e14" d="M 47.710938 61.546875 C 48.992188 63.472656 49.183594 65.59375 48.144531 66.285156 C 47.105469 66.976562 45.222656 65.976562 43.945312 64.050781 C 42.664062 62.125 43.511719 59.3125 43.511719 59.3125 C 43.511719 59.3125 46.433594 59.621094 47.710938 61.546875 Z M 47.710938 61.546875 " fill-opacity="1" fill-rule="nonzero"/><path fill="#b74e14" d="M 54.273438 66.847656 C 54.640625 69.554688 53.753906 71.910156 52.289062 72.105469 C 50.828125 72.304688 49.34375 70.273438 48.976562 67.566406 C 48.609375 64.859375 50.960938 62.304688 50.960938 62.304688 C 50.960938 62.304688 53.90625 64.140625 54.273438 66.847656 Z M 54.273438 66.847656 " fill-opacity="1" fill-rule="nonzero"/><path fill="#b74e14" d="M 44.496094 65.734375 C 46.890625 67.042969 48.261719 69.152344 47.554688 70.449219 C 46.847656 71.746094 44.332031 71.738281 41.933594 70.429688 C 39.535156 69.121094 38.871094 65.714844 38.871094 65.714844 C 38.871094 65.714844 42.097656 64.425781 44.496094 65.734375 Z M 44.496094 65.734375 " fill-opacity="1" fill-rule="nonzero"/><path fill="#b74e14" d="M 44.421875 65.964844 C 46.820312 67.273438 48.191406 69.386719 47.484375 70.679688 C 46.777344 71.976562 44.261719 71.96875 41.863281 70.660156 C 39.464844 69.351562 38.800781 65.945312 38.800781 65.945312 C 38.800781 65.945312 42.027344 64.660156 44.421875 65.964844 Z M 44.421875 65.964844 " fill-opacity="1" fill-rule="nonzero"/><path fill="#b74e14" d="M 40.730469 72.179688 C 43.125 73.488281 44.496094 75.601562 43.789062 76.894531 C 43.082031 78.191406 40.566406 78.183594 38.167969 76.875 C 35.773438 75.566406 35.109375 72.160156 35.109375 72.160156 C 35.109375 72.160156 38.332031 70.875 40.730469 72.179688 Z M 40.730469 72.179688 " fill-opacity="1" fill-rule="nonzero"/><path fill="#b74e14" d="M 52.265625 74.03125 C 54.902344 76.480469 55.964844 79.617188 54.644531 81.042969 C 53.320312 82.46875 50.113281 81.640625 47.476562 79.195312 C 44.839844 76.75 45.097656 72.183594 45.097656 72.183594 C 45.097656 72.183594 49.628906 71.585938 52.265625 74.03125 Z M 52.265625 74.03125 " fill-opacity="1" fill-rule="nonzero"/><path fill="#b74e14" d="M 49.628906 82.128906 C 51.984375 84.3125 52.933594 87.117188 51.753906 88.390625 C 50.574219 89.660156 47.707031 88.921875 45.351562 86.738281 C 43 84.554688 43.226562 80.476562 43.226562 80.476562 C 43.226562 80.476562 47.273438 79.945312 49.628906 82.128906 Z M 49.628906 82.128906 " fill-opacity="1" fill-rule="nonzero"/><path fill="#b74e14" d="M 56.730469 83.34375 C 58.886719 84.417969 60.164062 86.230469 59.582031 87.394531 C 59.003906 88.558594 56.785156 88.632812 54.632812 87.5625 C 52.476562 86.488281 51.78125 83.511719 51.78125 83.511719 C 51.78125 83.511719 54.578125 82.269531 56.730469 83.34375 Z M 56.730469 83.34375 " fill-opacity="1" fill-rule="nonzero"/><path fill="#b74e14" d="M 63.390625 81.230469 C 65.164062 82.855469 65.890625 84.949219 65.011719 85.910156 C 64.132812 86.871094 61.980469 86.328125 60.207031 84.703125 C 58.433594 83.078125 58.585938 80.023438 58.585938 80.023438 C 58.585938 80.023438 61.613281 79.605469 63.390625 81.230469 Z M 63.390625 81.230469 " fill-opacity="1" fill-rule="nonzero"/><path fill="#b74e14" d="M 72.53125 81.785156 C 74.464844 83.554688 75.253906 85.835938 74.296875 86.882812 C 73.339844 87.925781 70.996094 87.339844 69.0625 85.566406 C 67.128906 83.796875 67.296875 80.46875 67.296875 80.46875 C 67.296875 80.46875 70.597656 80.011719 72.53125 81.785156 Z M 72.53125 81.785156 " fill-opacity="1" fill-rule="nonzero"/><path fill="#b74e14" d="M 39.574219 80.355469 C 42.261719 82.34375 43.566406 85.132812 42.492188 86.582031 C 41.417969 88.035156 38.367188 87.601562 35.683594 85.613281 C 32.996094 83.625 32.765625 79.386719 32.765625 79.386719 C 32.765625 79.386719 36.890625 78.367188 39.574219 80.355469 Z M 39.574219 80.355469 " fill-opacity="1" fill-rule="nonzero"/><path fill="#b74e14" d="M 39.136719 88.027344 C 42.4375 89.625 44.488281 92.210938 43.714844 93.808594 C 42.941406 95.40625 39.640625 95.410156 36.339844 93.816406 C 33.039062 92.222656 31.757812 88.035156 31.757812 88.035156 C 31.757812 88.035156 35.832031 86.433594 39.136719 88.027344 Z M 39.136719 88.027344 " fill-opacity="1" fill-rule="nonzero"/><path fill="#b74e14" d="M 52.398438 95.007812 C 55.5625 93.152344 58.9375 93.035156 59.941406 94.742188 C 60.945312 96.453125 59.195312 99.34375 56.03125 101.199219 C 52.871094 103.054688 48.492188 101.464844 48.492188 101.464844 C 48.492188 101.464844 49.238281 96.863281 52.398438 95.007812 Z M 52.398438 95.007812 " fill-opacity="1" fill-rule="nonzero"/><path fill="#b74e14" d="M 46.828125 93.472656 C 48.996094 93.125 50.90625 93.796875 51.09375 94.96875 C 51.277344 96.140625 49.671875 97.371094 47.5 97.71875 C 45.332031 98.0625 43.234375 96.21875 43.234375 96.21875 C 43.234375 96.21875 44.65625 93.816406 46.828125 93.472656 Z M 46.828125 93.472656 " fill-opacity="1" fill-rule="nonzero"/><g clip-path="url(#91e7c27948)"><path fill="#b74e14" d="M 31.414062 92.910156 C 33.582031 92.566406 35.492188 93.238281 35.679688 94.410156 C 35.867188 95.582031 34.257812 96.8125 32.089844 97.15625 C 29.921875 97.503906 27.824219 95.660156 27.824219 95.660156 C 27.824219 95.660156 29.246094 93.257812 31.414062 92.910156 Z M 31.414062 92.910156 " fill-opacity="1" fill-rule="nonzero"/></g><g clip-path="url(#0d8c36f36d)"><path fill="#b74e14" d="M 30.828125 100.75 C 32.921875 100.085938 34.910156 100.46875 35.265625 101.601562 C 35.625 102.734375 34.214844 104.1875 32.121094 104.847656 C 30.023438 105.507812 27.679688 103.996094 27.679688 103.996094 C 27.679688 103.996094 28.730469 101.410156 30.828125 100.75 Z M 30.828125 100.75 " fill-opacity="1" fill-rule="nonzero"/></g><path fill="#b74e14" d="M 39.914062 96.703125 C 42.625 97.089844 44.648438 98.589844 44.441406 100.054688 C 44.230469 101.519531 41.867188 102.394531 39.15625 102.007812 C 36.445312 101.621094 34.628906 98.652344 34.628906 98.652344 C 34.628906 98.652344 37.203125 96.316406 39.914062 96.703125 Z M 39.914062 96.703125 " fill-opacity="1" fill-rule="nonzero"/><path fill="#b74e14" d="M 60.730469 98.910156 C 63.773438 97.695312 66.773438 98.046875 67.425781 99.691406 C 68.082031 101.335938 66.148438 103.652344 63.105469 104.867188 C 60.0625 106.078125 56.410156 104.082031 56.410156 104.082031 C 56.410156 104.082031 57.691406 100.121094 60.730469 98.910156 Z M 60.730469 98.910156 " fill-opacity="1" fill-rule="nonzero"/><path fill="#b74e14" d="M 70.523438 102.265625 C 71.265625 99.078125 73.269531 96.816406 74.992188 97.222656 C 76.71875 97.625 77.511719 100.535156 76.765625 103.726562 C 76.019531 106.914062 72.292969 108.769531 72.292969 108.769531 C 72.292969 108.769531 69.777344 105.457031 70.523438 102.265625 Z M 70.523438 102.265625 " fill-opacity="1" fill-rule="nonzero"/><path fill="#b74e14" d="M 64.332031 106.15625 C 65.726562 103.761719 67.90625 102.429688 69.199219 103.183594 C 70.492188 103.9375 70.414062 106.488281 69.019531 108.882812 C 67.625 111.277344 64.152344 111.855469 64.152344 111.855469 C 64.152344 111.855469 62.9375 108.550781 64.332031 106.15625 Z M 64.332031 106.15625 " fill-opacity="1" fill-rule="nonzero"/><path fill="#b74e14" d="M 54.628906 109.316406 C 57.03125 106.851562 60.0625 105.902344 61.394531 107.203125 C 62.730469 108.503906 61.859375 111.558594 59.457031 114.023438 C 57.050781 116.488281 52.6875 116.136719 52.6875 116.136719 C 52.6875 116.136719 52.222656 111.78125 54.628906 109.316406 Z M 54.628906 109.316406 " fill-opacity="1" fill-rule="nonzero"/><path fill="#b74e14" d="M 45.734375 106.195312 C 48.652344 104.367188 51.820312 104.164062 52.808594 105.742188 C 53.796875 107.320312 52.230469 110.082031 49.3125 111.910156 C 46.390625 113.738281 42.234375 112.363281 42.234375 112.363281 C 42.234375 112.363281 42.8125 108.023438 45.734375 106.195312 Z M 45.734375 106.195312 " fill-opacity="1" fill-rule="nonzero"/><path fill="#b74e14" d="M 36.445312 103.898438 C 39.511719 102.335938 42.6875 102.414062 43.53125 104.070312 C 44.375 105.730469 42.574219 108.34375 39.503906 109.90625 C 36.433594 111.472656 32.417969 109.734375 32.417969 109.734375 C 32.417969 109.734375 33.375 105.464844 36.445312 103.898438 Z M 36.445312 103.898438 " fill-opacity="1" fill-rule="nonzero"/><path fill="#b74e14" d="M 62.800781 94.128906 C 64.417969 93.304688 66.089844 93.34375 66.539062 94.21875 C 66.984375 95.09375 66.03125 96.472656 64.414062 97.296875 C 62.796875 98.121094 60.675781 97.207031 60.675781 97.207031 C 60.675781 97.207031 61.179688 94.953125 62.800781 94.128906 Z M 62.800781 94.128906 " fill-opacity="1" fill-rule="nonzero"/><path fill="#b74e14" d="M 71.675781 61.265625 C 73.378906 64.578125 73.304688 68.011719 71.515625 68.929688 C 69.722656 69.851562 66.890625 67.914062 65.1875 64.597656 C 63.484375 61.285156 65.347656 56.933594 65.347656 56.933594 C 65.347656 56.933594 69.972656 57.953125 71.675781 61.265625 Z M 71.675781 61.265625 " fill-opacity="1" fill-rule="nonzero"/><path fill="#b74e14" d="M 54.042969 56.796875 C 55.042969 58.738281 55 60.75 53.949219 61.289062 C 52.898438 61.828125 51.238281 60.691406 50.242188 58.75 C 49.242188 56.808594 50.335938 54.257812 50.335938 54.257812 C 50.335938 54.257812 53.046875 54.855469 54.042969 56.796875 Z M 54.042969 56.796875 " fill-opacity="1" fill-rule="nonzero"/><path fill="#b74e14" d="M 74.292969 55.222656 C 75.167969 57.773438 74.757812 60.226562 73.378906 60.703125 C 72 61.175781 70.167969 59.488281 69.292969 56.9375 C 68.417969 54.382812 70.207031 51.457031 70.207031 51.457031 C 70.207031 51.457031 73.414062 52.667969 74.292969 55.222656 Z M 74.292969 55.222656 " fill-opacity="1" fill-rule="nonzero"/><path fill="#b74e14" d="M 76.171875 46.214844 C 77.050781 48.765625 76.640625 51.21875 75.261719 51.695312 C 73.878906 52.167969 72.050781 50.480469 71.175781 47.929688 C 70.300781 45.375 72.089844 42.449219 72.089844 42.449219 C 72.089844 42.449219 75.296875 43.660156 76.171875 46.214844 Z M 76.171875 46.214844 " fill-opacity="1" fill-rule="nonzero"/><path fill="#b74e14" d="M 116.003906 51.789062 C 115.113281 53.765625 113.523438 54.976562 112.457031 54.496094 C 111.386719 54.015625 111.242188 52.019531 112.136719 50.042969 C 113.027344 48.066406 115.6875 47.339844 115.6875 47.339844 C 115.6875 47.339844 116.898438 49.8125 116.003906 51.789062 Z M 116.003906 51.789062 " fill-opacity="1" fill-rule="nonzero"/><path fill="#b74e14" d="M 112.175781 86.835938 C 109.488281 87.597656 107.039062 87.25 106.703125 86.0625 C 106.367188 84.875 108.273438 83.296875 110.960938 82.535156 C 113.648438 81.773438 116.4375 83.308594 116.4375 83.308594 C 116.4375 83.308594 114.867188 86.074219 112.175781 86.835938 Z M 112.175781 86.835938 " fill-opacity="1" fill-rule="nonzero"/><path fill="#b74e14" d="M 121.035156 87.480469 C 118.847656 89.21875 116.453125 89.84375 115.683594 88.875 C 114.917969 87.910156 116.070312 85.71875 118.257812 83.980469 C 120.445312 82.242188 123.609375 82.585938 123.609375 82.585938 C 123.609375 82.585938 123.222656 85.742188 121.035156 87.480469 Z M 121.035156 87.480469 " fill-opacity="1" fill-rule="nonzero"/><path fill="#b74e14" d="M 138.667969 79.066406 C 136.546875 80.109375 134.449219 80.195312 133.988281 79.257812 C 133.527344 78.320312 134.875 76.714844 136.996094 75.667969 C 139.121094 74.625 141.675781 75.476562 141.675781 75.476562 C 141.675781 75.476562 140.792969 78.019531 138.667969 79.066406 Z M 138.667969 79.066406 " fill-opacity="1" fill-rule="nonzero"/><path fill="#b74e14" d="M 130.953125 87.15625 C 128.238281 89.3125 125.269531 90.085938 124.316406 88.886719 C 123.363281 87.691406 124.792969 84.972656 127.507812 82.816406 C 130.21875 80.664062 134.140625 81.085938 134.140625 81.085938 C 134.140625 81.085938 133.664062 85.003906 130.953125 87.15625 Z M 130.953125 87.15625 " fill-opacity="1" fill-rule="nonzero"/><path fill="#b74e14" d="M 140.960938 84.832031 C 138.226562 86.398438 135.445312 86.691406 134.75 85.484375 C 134.058594 84.273438 135.714844 82.019531 138.453125 80.453125 C 141.1875 78.882812 144.664062 79.800781 144.664062 79.800781 C 144.664062 79.800781 143.699219 83.261719 140.960938 84.832031 Z M 140.960938 84.832031 " fill-opacity="1" fill-rule="nonzero"/><path fill="#b74e14" d="M 142.027344 92.472656 C 138.878906 92.636719 136.265625 91.644531 136.191406 90.253906 C 136.117188 88.859375 138.609375 87.597656 141.761719 87.429688 C 144.910156 87.265625 147.597656 89.648438 147.597656 89.648438 C 147.597656 89.648438 145.179688 92.304688 142.027344 92.472656 Z M 142.027344 92.472656 " fill-opacity="1" fill-rule="nonzero"/><path fill="#b74e14" d="M 134.132812 96.65625 C 130.980469 96.644531 128.425781 95.507812 128.429688 94.113281 C 128.433594 92.71875 130.996094 91.597656 134.152344 91.609375 C 137.304688 91.621094 139.855469 94.152344 139.855469 94.152344 C 139.855469 94.152344 137.289062 96.667969 134.132812 96.65625 Z M 134.132812 96.65625 " fill-opacity="1" fill-rule="nonzero"/><path fill="#b74e14" d="M 122.609375 98.65625 C 119.355469 97.597656 117.097656 95.570312 117.566406 94.132812 C 118.035156 92.695312 121.054688 92.390625 124.308594 93.453125 C 127.5625 94.511719 129.351562 97.976562 129.351562 97.976562 C 129.351562 97.976562 125.863281 99.71875 122.609375 98.65625 Z M 122.609375 98.65625 " fill-opacity="1" fill-rule="nonzero"/><path fill="#b74e14" d="M 113.652344 99.96875 C 110.402344 98.910156 108.144531 96.882812 108.609375 95.445312 C 109.078125 94.007812 112.097656 93.703125 115.351562 94.765625 C 118.605469 95.824219 120.394531 99.289062 120.394531 99.289062 C 120.394531 99.289062 116.910156 101.03125 113.652344 99.96875 Z M 113.652344 99.96875 " fill-opacity="1" fill-rule="nonzero"/><path fill="#b74e14" d="M 104.910156 101.359375 C 102.257812 100.496094 100.421875 98.847656 100.800781 97.675781 C 101.183594 96.507812 103.640625 96.257812 106.289062 97.121094 C 108.941406 97.984375 110.398438 100.804688 110.398438 100.804688 C 110.398438 100.804688 107.558594 102.222656 104.910156 101.359375 Z M 104.910156 101.359375 " fill-opacity="1" fill-rule="nonzero"/><path fill="#b74e14" d="M 114.890625 104.6875 C 112.613281 103.949219 111.035156 102.53125 111.363281 101.527344 C 111.691406 100.519531 113.800781 100.308594 116.074219 101.050781 C 118.351562 101.789062 119.601562 104.210938 119.601562 104.210938 C 119.601562 104.210938 117.164062 105.429688 114.890625 104.6875 Z M 114.890625 104.6875 " fill-opacity="1" fill-rule="nonzero"/><path fill="#b74e14" d="M 125.484375 105.226562 C 122.929688 104.574219 121.089844 103.132812 121.378906 102.003906 C 121.664062 100.875 123.96875 100.488281 126.523438 101.136719 C 129.082031 101.789062 130.632812 104.359375 130.632812 104.359375 C 130.632812 104.359375 128.039062 105.875 125.484375 105.226562 Z M 125.484375 105.226562 " fill-opacity="1" fill-rule="nonzero"/><path fill="#b74e14" d="M 135.425781 103.136719 C 132.121094 103.207031 129.414062 102.078125 129.382812 100.621094 C 129.351562 99.160156 132.007812 97.917969 135.3125 97.847656 C 138.617188 97.777344 141.355469 100.363281 141.355469 100.363281 C 141.355469 100.363281 138.730469 103.066406 135.425781 103.136719 Z M 135.425781 103.136719 " fill-opacity="1" fill-rule="nonzero"/><path fill="#b74e14" d="M 114.867188 112.570312 C 112.078125 110.359375 110.609375 107.566406 111.585938 106.335938 C 112.5625 105.101562 115.617188 105.898438 118.40625 108.109375 C 121.195312 110.320312 121.6875 114.347656 121.6875 114.347656 C 121.6875 114.347656 117.65625 114.785156 114.867188 112.570312 Z M 114.867188 112.570312 " fill-opacity="1" fill-rule="nonzero"/><path fill="#b74e14" d="M 98.390625 108.191406 C 96.996094 104.917969 97.035156 101.761719 98.484375 101.144531 C 99.929688 100.527344 102.234375 102.683594 103.632812 105.957031 C 105.027344 109.234375 103.539062 113.003906 103.539062 113.003906 C 103.539062 113.003906 99.785156 111.46875 98.390625 108.191406 Z M 98.390625 108.191406 " fill-opacity="1" fill-rule="nonzero"/><path fill="#b74e14" d="M 106.109375 110.011719 C 104.398438 107.292969 103.984375 104.476562 105.183594 103.71875 C 106.382812 102.964844 108.746094 104.554688 110.457031 107.269531 C 112.167969 109.988281 111.382812 113.5625 111.382812 113.5625 C 111.382812 113.5625 107.820312 112.726562 106.109375 110.011719 Z M 106.109375 110.011719 " fill-opacity="1" fill-rule="nonzero"/><path fill="#b74e14" d="M 125.40625 112.933594 C 122.1875 111.003906 120.269531 108.285156 121.121094 106.863281 C 121.972656 105.441406 125.273438 105.855469 128.492188 107.785156 C 131.710938 109.714844 132.777344 113.855469 132.777344 113.855469 C 132.777344 113.855469 128.621094 114.863281 125.40625 112.933594 Z M 125.40625 112.933594 " fill-opacity="1" fill-rule="nonzero"/><path fill="#b74e14" d="M 135.199219 111.972656 C 131.820312 110.34375 129.664062 107.808594 130.382812 106.316406 C 131.105469 104.824219 134.429688 104.933594 137.808594 106.566406 C 141.1875 108.195312 142.625 112.222656 142.625 112.222656 C 142.625 112.222656 138.578125 113.605469 135.199219 111.972656 Z M 135.199219 111.972656 " fill-opacity="1" fill-rule="nonzero"/><path fill="#b74e14" d="M 143.300781 107.3125 C 140.363281 106.871094 138.136719 105.464844 138.332031 104.164062 C 138.527344 102.867188 141.066406 102.171875 144.003906 102.613281 C 146.941406 103.050781 148.972656 105.757812 148.972656 105.757812 C 148.972656 105.757812 146.238281 107.753906 143.300781 107.3125 Z M 143.300781 107.3125 " fill-opacity="1" fill-rule="nonzero"/><path fill="#b74e14" d="M 143.773438 98.59375 C 141.285156 98.75 139.210938 97.988281 139.140625 96.890625 C 139.070312 95.789062 141.03125 94.769531 143.519531 94.609375 C 146.007812 94.449219 148.15625 96.3125 148.15625 96.3125 C 148.15625 96.3125 146.265625 98.433594 143.773438 98.59375 Z M 143.773438 98.59375 " fill-opacity="1" fill-rule="nonzero"/><path fill="#b74e14" d="M 136.464844 74.707031 C 134.363281 75.914062 132.226562 76.144531 131.691406 75.214844 C 131.160156 74.289062 132.429688 72.554688 134.53125 71.34375 C 136.632812 70.136719 139.300781 70.835938 139.300781 70.835938 C 139.300781 70.835938 138.566406 73.496094 136.464844 74.707031 Z M 136.464844 74.707031 " fill-opacity="1" fill-rule="nonzero"/><path fill="#b74e14" d="M 134.132812 68.261719 C 132.675781 69.785156 130.945312 70.5 130.273438 69.855469 C 129.597656 69.214844 130.234375 67.457031 131.691406 65.929688 C 133.148438 64.402344 135.550781 64.332031 135.550781 64.332031 C 135.550781 64.332031 135.589844 66.734375 134.132812 68.261719 Z M 134.132812 68.261719 " fill-opacity="1" fill-rule="nonzero"/><path fill="#b74e14" d="M 129.324219 63.210938 C 127.359375 64.855469 125.175781 65.484375 124.449219 64.613281 C 123.722656 63.746094 124.730469 61.707031 126.695312 60.066406 C 128.664062 58.421875 131.570312 58.664062 131.570312 58.664062 C 131.570312 58.664062 131.292969 61.566406 129.324219 63.210938 Z M 129.324219 63.210938 " fill-opacity="1" fill-rule="nonzero"/><path fill="#b74e14" d="M 107.28125 60.492188 C 104.859375 61.949219 102.375 62.261719 101.730469 61.191406 C 101.089844 60.125 102.527344 58.074219 104.949219 56.617188 C 107.371094 55.160156 110.5 55.917969 110.5 55.917969 C 110.5 55.917969 109.703125 59.035156 107.28125 60.492188 Z M 107.28125 60.492188 " fill-opacity="1" fill-rule="nonzero"/><path fill="#b74e14" d="M 113.484375 74.222656 C 111.660156 76.382812 109.410156 77.480469 108.453125 76.675781 C 107.5 75.867188 108.207031 73.464844 110.03125 71.304688 C 111.851562 69.148438 115.058594 68.855469 115.058594 68.855469 C 115.058594 68.855469 115.308594 72.066406 113.484375 74.222656 Z M 113.484375 74.222656 " fill-opacity="1" fill-rule="nonzero"/><path fill="#b74e14" d="M 104.886719 54.113281 C 103.957031 56.398438 102.382812 57.917969 101.371094 57.507812 C 100.363281 57.09375 100.296875 54.910156 101.230469 52.621094 C 102.160156 50.335938 104.746094 49.226562 104.746094 49.226562 C 104.746094 49.226562 105.820312 51.824219 104.886719 54.113281 Z M 104.886719 54.113281 " fill-opacity="1" fill-rule="nonzero"/><path fill="#b74e14" d="M 97.8125 70.550781 C 95.492188 73.46875 92.570312 75 91.28125 73.972656 C 89.996094 72.949219 90.832031 69.757812 93.148438 66.84375 C 95.46875 63.925781 99.679688 63.421875 99.679688 63.421875 C 99.679688 63.421875 100.132812 67.636719 97.8125 70.550781 Z M 97.8125 70.550781 " fill-opacity="1" fill-rule="nonzero"/><path fill="#b74e14" d="M 105.507812 77.300781 C 102.679688 79.726562 99.519531 80.679688 98.449219 79.433594 C 97.378906 78.183594 98.800781 75.207031 101.625 72.777344 C 104.453125 70.351562 108.683594 70.644531 108.683594 70.644531 C 108.683594 70.644531 108.332031 74.875 105.507812 77.300781 Z M 105.507812 77.300781 " fill-opacity="1" fill-rule="nonzero"/><g clip-path="url(#036f51e320)"><path fill="#f58926" d="M 119.292969 133.292969 C 115.285156 133.238281 111.378906 131.660156 107.363281 131.167969 C 107.253906 131.15625 107.148438 131.144531 107.039062 131.128906 C 107.886719 131.144531 108.722656 131.148438 109.550781 131.132812 C 125.835938 130.828125 137.121094 129.089844 137.121094 129.089844 C 137.121094 129.089844 98.863281 130.714844 94.613281 125.027344 C 92.492188 122.191406 90.386719 116.820312 91.707031 107.019531 C 91.707031 107.019531 93.101562 94.75 104.671875 93.21875 C 104.671875 93.21875 128.230469 93.914062 134.082031 87.085938 C 134.082031 87.085938 126.417969 91.128906 116.800781 90.570312 C 116.800781 90.570312 102.441406 88.617188 94.773438 93.636719 C 94.773438 93.636719 99.097656 83.601562 107.320312 82.34375 C 115.542969 81.089844 128.507812 81.371094 130.460938 78.304688 C 130.460938 78.304688 124.882812 79.976562 120.703125 79 C 116.519531 78.023438 95.332031 78.023438 88.640625 90.011719 C 88.640625 90.011719 93.800781 75.65625 100.628906 70.636719 C 100.628906 70.636719 85.714844 77.1875 83.34375 87.921875 C 83.34375 87.921875 75.816406 77.605469 72.75 58.648438 C 72.75 58.648438 69.824219 76.210938 77.628906 91.683594 C 77.628906 91.683594 69.964844 87.222656 51.5625 89.871094 C 51.5625 89.871094 44.964844 91.3125 40.320312 89.546875 C 40.320312 89.546875 43.851562 92.148438 65.96875 93.265625 C 65.96875 93.265625 78.792969 94.378906 79.164062 107.761719 C 79.164062 107.761719 79.8125 127.832031 70.027344 127.921875 C 48.796875 128.113281 33.96875 129.089844 33.96875 129.089844 C 33.96875 129.089844 40.550781 129.738281 50.273438 130.402344 C 48.980469 131.191406 45.464844 132.3125 44.222656 132.449219 C 42.828125 132.605469 38.894531 130.898438 38.894531 130.898438 C 38.894531 130.898438 39.421875 131.765625 42.394531 132.726562 C 45.367188 133.6875 49.210938 131.582031 49.210938 131.582031 C 49.210938 131.582031 45.300781 134.308594 43.875 134.804688 C 42.449219 135.296875 35.953125 132.789062 35.953125 132.789062 C 35.953125 132.789062 41.28125 135.640625 43.945312 135.515625 C 46.152344 135.414062 50.757812 131.769531 52.261719 130.535156 C 53.910156 130.644531 55.632812 130.75 57.417969 130.855469 C 60.019531 131.003906 62.570312 131.011719 65.144531 130.945312 L 67.84375 131.492188 C 66.539062 132.277344 64.546875 133.203125 63.054688 132.664062 C 60.640625 131.796875 52.863281 130.21875 51.933594 133.160156 C 51.933594 133.160156 52.800781 132.199219 53.792969 132.171875 C 54.785156 132.140625 59.183594 132.632812 59.183594 132.632812 C 59.183594 132.632812 57.261719 134.308594 55.839844 134.617188 C 54.714844 134.859375 47.960938 133.945312 47.195312 136.570312 C 47.195312 136.570312 48.265625 136.03125 48.652344 135.917969 C 49.792969 135.578125 53.125 135.449219 55.023438 135.394531 C 55.980469 135.363281 56.914062 135.078125 57.722656 134.558594 C 58.535156 134.035156 59.5 133.351562 59.894531 132.824219 L 62.25 133.378906 C 62.25 133.378906 61.320312 135.121094 58.78125 135.519531 C 58.78125 135.519531 60.980469 136.507812 62.714844 133.410156 C 62.714844 133.410156 67.152344 134.488281 69.976562 131.925781 C 72.65625 132.355469 74.214844 131.152344 74.851562 130.488281 C 75.355469 130.460938 75.863281 130.433594 76.375 130.410156 C 74.714844 132.457031 70.386719 137.355469 66.757812 137.683594 C 66.757812 137.683594 61.820312 136.957031 57.621094 138.382812 C 57.621094 138.382812 51.84375 139.511719 49.890625 136.910156 C 49.890625 136.910156 50.878906 139.191406 53.527344 139.644531 C 53.4375 139.652344 53.351562 139.664062 53.261719 139.671875 C 52.007812 139.773438 50.714844 139.863281 48.925781 140.066406 L 43.445312 138.285156 L 47.070312 140.359375 C 46.34375 140.429688 45.609375 140.398438 44.886719 140.269531 C 42.785156 139.894531 40.832031 140.441406 40.832031 140.441406 C 40.832031 140.441406 42.839844 140.542969 43.445312 140.679688 C 44.886719 141.011719 44.871094 140.984375 48.078125 141.03125 C 49.660156 141.050781 52.847656 140.917969 55.824219 140.785156 C 55.71875 140.839844 55.601562 140.898438 55.476562 140.964844 C 54.527344 141.457031 53.523438 141.835938 52.488281 142.101562 C 51.539062 142.34375 50.347656 142.734375 49.480469 143.316406 C 49.042969 143.609375 48.601562 143.894531 48.140625 144.152344 C 47.964844 144.246094 47.773438 144.308594 47.578125 144.328125 L 46.1875 144.472656 C 46.1875 144.472656 46.257812 144.5 46.375 144.539062 C 47.203125 144.816406 48.113281 144.667969 48.820312 144.15625 C 49.773438 143.46875 51.6875 142.292969 53.636719 142.316406 C 53.636719 142.316406 52.925781 144.394531 53.171875 144.847656 L 54.257812 142.332031 L 57.128906 140.726562 C 59.648438 140.617188 61.800781 140.523438 62.34375 140.566406 C 62.402344 140.570312 62.480469 140.574219 62.566406 140.578125 C 61.453125 141.613281 54.28125 148.113281 49.890625 148.339844 C 49.890625 148.339844 51.46875 149.050781 54.753906 147.472656 C 56.554688 146.605469 59.292969 144.523438 61.394531 142.824219 C 65.121094 143.769531 67.265625 140.566406 67.265625 140.566406 L 66.691406 140.566406 C 69 140.429688 71.515625 140.039062 72.472656 139.03125 C 72.472656 139.03125 73.121094 142.097656 69.359375 144.421875 C 65.59375 146.746094 58.765625 146.1875 56.859375 147.535156 L 60.296875 148.09375 C 60.296875 148.09375 55.746094 149.765625 54.769531 151.902344 C 54.769531 151.902344 59.878906 149.023438 61.226562 149.066406 C 62.765625 149.121094 64.359375 148.875 65.878906 148.660156 C 67.796875 148.390625 69.542969 148.007812 71.238281 146.996094 C 72.335938 146.347656 73.328125 145.523438 74.164062 144.558594 C 75.082031 143.503906 75.566406 142.382812 76.105469 141.121094 C 76.503906 140.191406 76.992188 139.304688 77.5625 138.476562 L 82.042969 131.957031 C 82.042969 131.957031 83.160156 133.597656 82.414062 135.6875 C 82.414062 135.6875 78.699219 139.730469 76.886719 144.609375 C 75.21875 145.863281 73.308594 149.765625 73.308594 149.765625 C 64.976562 152.988281 64.140625 156.144531 64.140625 156.144531 C 67.980469 151.808594 73.070312 150.664062 73.070312 150.664062 L 72.101562 152.644531 C 66.925781 153.542969 67.824219 156.640625 67.824219 156.640625 C 68.445312 153.390625 71.339844 154.039062 71.339844 154.039062 L 68.847656 157.726562 L 72.132812 154.242188 C 72.132812 154.242188 72.253906 154.535156 72.222656 155.742188 C 72.191406 156.953125 71.726562 158.160156 71.726562 158.160156 C 72.796875 157.015625 72.859375 155.902344 72.871094 155.070312 C 72.90625 152.273438 74.007812 150.085938 74.453125 149.269531 C 75.953125 146.519531 77.148438 145.210938 77.148438 145.210938 L 77.265625 147.25 L 77.289062 147.445312 C 77.386719 148.425781 74.238281 154.257812 74.238281 154.257812 C 74.238281 154.257812 75.972656 153.914062 78.078125 148.898438 C 78.75 147.300781 77.722656 144.652344 77.722656 144.652344 C 77.722656 144.652344 81.019531 137.40625 83.53125 136.523438 C 83.53125 136.523438 85.851562 139.328125 84.878906 141.664062 C 84.878906 141.664062 79.117188 148.464844 78 151.34375 C 78 151.34375 75.074219 157.058594 76.652344 159.476562 C 76.652344 159.476562 76.636719 154.835938 78.605469 153.4375 C 78.605469 153.4375 81.4375 159.011719 83.15625 159.753906 C 83.15625 159.753906 82.441406 158.480469 80.808594 155.632812 C 80.480469 155.0625 80.25 154.441406 80.140625 153.792969 C 80.039062 153.207031 79.875 152.582031 80.160156 152.039062 C 81.285156 149.90625 82.785156 148.554688 82.785156 148.464844 C 82.785156 148.546875 82.867188 148.675781 82.898438 148.753906 C 83.007812 149.03125 83.121094 149.304688 83.238281 149.578125 C 83.402344 149.96875 83.585938 150.351562 83.769531 150.730469 L 83.6875 150.597656 C 83.6875 150.597656 83.40625 153.046875 83.347656 153.652344 C 83.347656 153.652344 83.375 157.230469 84.179688 158.46875 L 83.855469 154.410156 C 83.855469 154.410156 84.863281 157.308594 85.542969 157.449219 C 85.542969 157.449219 83.941406 153.925781 84.378906 151.992188 C 84.519531 152.292969 84.65625 152.59375 84.785156 152.898438 C 85.253906 154.011719 85.636719 155.167969 85.929688 156.34375 C 86.117188 157.082031 86.328125 157.816406 86.5 158.5625 C 86.617188 159.058594 86.75 159.570312 86.78125 160.082031 C 86.78125 160.082031 87.132812 158.015625 86.722656 154.699219 C 86.554688 153.347656 86.222656 152.023438 85.769531 150.738281 C 85.339844 149.535156 84.871094 147.640625 85.621094 146.558594 C 86.78125 144.886719 88.734375 142.65625 88.222656 140.75 C 88.222656 140.75 90.40625 142.050781 90.40625 145.027344 C 90.40625 145.027344 87.277344 149.050781 87.710938 150.570312 C 88.144531 152.089844 88.949219 153.171875 87.960938 154.410156 C 87.960938 154.410156 89.320312 153.914062 88.703125 152.058594 C 88.117188 150.296875 88.640625 148.621094 90.460938 146.816406 C 90.527344 148.03125 90.640625 149.222656 90.742188 150.125 C 90.804688 150.675781 90.761719 151.234375 90.605469 151.769531 C 90.246094 152.96875 89.683594 154.140625 89.414062 155.132812 C 89.023438 156.5625 89.421875 158.46875 89.414062 158.65625 C 89.402344 158.964844 89.730469 156.148438 89.964844 155.226562 C 90.222656 154.214844 91.117188 152.832031 91.117188 152.832031 C 91.117188 152.832031 92.214844 155.996094 92.109375 156.640625 C 92.003906 157.285156 91.117188 160.082031 91.117188 160.082031 C 91.523438 159.707031 92.359375 157.199219 92.359375 157.199219 C 92.496094 159.105469 93.660156 159.707031 93.660156 159.707031 C 92.824219 158.75 92.855469 156.953125 92.761719 155.773438 C 92.667969 154.597656 91.5 152.296875 91.5 152.296875 L 97.003906 158.160156 C 96.433594 156.382812 93.953125 153.871094 92.519531 152.25 C 91.65625 151.273438 91.449219 149.867188 91.40625 148.5625 C 91.382812 147.769531 91.378906 146.921875 91.453125 146.328125 C 92.007812 141.683594 91.429688 138.9375 87.851562 136.058594 C 87.851562 136.058594 86.414062 133.261719 87.0625 131.777344 L 87.988281 131.800781 C 87.988281 131.800781 90.59375 135.453125 91.660156 136.199219 C 92.730469 136.941406 94.355469 141.679688 93.9375 143.492188 C 93.519531 145.304688 93.007812 148.164062 94.679688 150.414062 C 96.933594 153.449219 100.953125 158.175781 100.953125 158.175781 L 96.617188 149.902344 C 95.988281 148.703125 95.6875 147.355469 95.75 146 L 96.84375 146.6875 C 98.507812 147.734375 99.894531 149.160156 100.894531 150.851562 L 104.160156 156.386719 C 104.230469 155.710938 101.535156 148.394531 100.195312 147.378906 C 100.195312 147.378906 100.449219 147.359375 100.863281 147.339844 C 101.617188 148.152344 105.121094 151.957031 105.367188 152.644531 C 105.648438 153.421875 105.894531 153.894531 109.394531 154.835938 L 106.484375 153.203125 C 106.484375 153.203125 110.492188 153.414062 110.882812 153.761719 C 110.882812 153.761719 110.375 152.519531 106.15625 152.644531 C 106.15625 152.644531 103.695312 148.667969 102.398438 147.300781 C 103.90625 147.296875 105.839844 147.402344 107.011719 147.875 C 109.148438 148.742188 112.089844 153.046875 112.398438 153.605469 C 112.398438 153.605469 111.84375 150.199219 109.519531 147.441406 C 109.519531 147.441406 111.292969 148.90625 112.710938 149.546875 C 114.273438 150.257812 115.683594 150.570312 115.683594 150.570312 L 110.574219 147.046875 C 109.691406 146.535156 107.917969 145.570312 106.566406 145.320312 C 104.472656 144.9375 101.5 144.40625 99.980469 144.1875 C 97.410156 143.824219 96.261719 139.511719 96.261719 139.511719 C 96.261719 139.511719 99.050781 141 101.09375 141.03125 C 103.136719 141.0625 107.351562 141.617188 108.3125 142.363281 C 109.273438 143.105469 114.570312 148.308594 119.371094 149.363281 C 119.371094 149.363281 112.835938 145.117188 112.492188 144.46875 C 112.152344 143.816406 108.03125 140.222656 108.03125 140.222656 C 108.03125 140.222656 111.285156 140.285156 114.195312 141.617188 C 117.109375 142.949219 121.011719 143.664062 123.707031 143.261719 L 126.214844 143.011719 C 126.214844 143.011719 123.085938 142.464844 121.398438 142.425781 C 119.839844 142.386719 115.125 140.8125 114.847656 140.566406 C 114.570312 140.316406 117.324219 139.449219 119.585938 139.265625 C 121.847656 139.078125 130.984375 138.675781 130.984375 138.675781 C 130.984375 138.675781 128.878906 138.027344 124.636719 137.996094 C 120.390625 137.964844 114.195312 139.449219 114.195312 139.449219 L 109.953125 138.519531 L 100.289062 137.714844 C 100.289062 137.714844 93.164062 134.996094 93.96875 131.910156 C 93.96875 131.910156 114.691406 134.371094 116.738281 134.464844 L 118.78125 134.554688 L 126.835938 137.097656 L 119.957031 134.371094 C 119.957031 134.371094 125.039062 133.96875 126.371094 133.78125 C 127.703125 133.597656 131.386719 131.675781 131.449219 131.179688 C 131.449219 131.179688 128.136719 133.191406 125.007812 133.285156 C 123.484375 133.332031 121.214844 133.316406 119.292969 133.292969 Z M 61.8125 142.484375 C 62.785156 141.6875 63.582031 141.007812 64.027344 140.625 C 64.746094 140.632812 65.613281 140.621094 66.519531 140.574219 C 65.035156 142.816406 62.511719 142.59375 61.8125 142.484375 Z M 61.8125 142.484375 " fill-opacity="1" fill-rule="nonzero"/></g><path fill="#f58926" d="M 89.570312 66.113281 C 88.355469 69.632812 86.113281 72.054688 84.558594 71.519531 C 83 70.984375 82.722656 67.695312 83.933594 64.171875 C 85.144531 60.652344 88.945312 58.765625 88.945312 58.765625 C 88.945312 58.765625 90.78125 62.589844 89.570312 66.113281 Z M 89.570312 66.113281 " fill-opacity="1" fill-rule="nonzero"/><path fill="#f58926" d="M 96.492188 59.078125 C 95.210938 61.851562 93.179688 63.644531 91.953125 63.078125 C 90.726562 62.511719 90.773438 59.804688 92.050781 57.027344 C 93.332031 54.253906 96.589844 53.027344 96.589844 53.027344 C 96.589844 53.027344 97.773438 56.300781 96.492188 59.078125 Z M 96.492188 59.078125 " fill-opacity="1" fill-rule="nonzero"/><path fill="#f58926" d="M 100.488281 46.726562 C 99.933594 49.445312 98.507812 51.449219 97.304688 51.203125 C 96.105469 50.957031 95.582031 48.550781 96.140625 45.835938 C 96.699219 43.117188 99.324219 41.359375 99.324219 41.359375 C 99.324219 41.359375 101.046875 44.007812 100.488281 46.726562 Z M 100.488281 46.726562 " fill-opacity="1" fill-rule="nonzero"/><path fill="#f58926" d="M 93.292969 52.164062 C 92.734375 54.878906 91.308594 56.882812 90.109375 56.636719 C 88.910156 56.390625 88.386719 53.988281 88.945312 51.269531 C 89.5 48.554688 92.125 46.796875 92.125 46.796875 C 92.125 46.796875 93.847656 49.445312 93.292969 52.164062 Z M 93.292969 52.164062 " fill-opacity="1" fill-rule="nonzero"/><path fill="#f58926" d="M 86.511719 52.203125 C 87.40625 55.414062 86.984375 58.335938 85.566406 58.730469 C 84.148438 59.125 82.273438 56.84375 81.378906 53.636719 C 80.484375 50.425781 82.328125 47.109375 82.328125 47.109375 C 82.328125 47.109375 85.617188 48.996094 86.511719 52.203125 Z M 86.511719 52.203125 " fill-opacity="1" fill-rule="nonzero"/><path fill="#f58926" d="M 81.339844 67.722656 C 82.234375 70.933594 81.808594 73.855469 80.390625 74.25 C 78.976562 74.644531 77.101562 72.363281 76.207031 69.15625 C 75.3125 65.945312 77.15625 62.628906 77.15625 62.628906 C 77.15625 62.628906 80.445312 64.515625 81.339844 67.722656 Z M 81.339844 67.722656 " fill-opacity="1" fill-rule="nonzero"/><path fill="#f58926" d="M 83.296875 60.5 C 83.484375 63 82.738281 65.09375 81.632812 65.175781 C 80.527344 65.257812 79.480469 63.296875 79.296875 60.796875 C 79.109375 58.296875 80.960938 56.117188 80.960938 56.117188 C 80.960938 56.117188 83.113281 58 83.296875 60.5 Z M 83.296875 60.5 " fill-opacity="1" fill-rule="nonzero"/><path fill="#f58926" d="M 78.875 56.796875 C 78.699219 59.941406 77.429688 62.421875 76.042969 62.34375 C 74.65625 62.265625 73.671875 59.65625 73.851562 56.515625 C 74.027344 53.375 76.683594 50.96875 76.683594 50.96875 C 76.683594 50.96875 79.050781 53.65625 78.875 56.796875 Z M 78.875 56.796875 " fill-opacity="1" fill-rule="nonzero"/><path fill="#f58926" d="M 86.148438 78.226562 C 85.195312 80.878906 83.472656 82.683594 82.300781 82.261719 C 81.128906 81.839844 80.953125 79.351562 81.910156 76.699219 C 82.863281 74.050781 85.757812 72.664062 85.757812 72.664062 C 85.757812 72.664062 87.105469 75.578125 86.148438 78.226562 Z M 86.148438 78.226562 " fill-opacity="1" fill-rule="nonzero"/><path fill="#f58926" d="M 104.035156 67.808594 C 101.007812 69.144531 98.074219 69.140625 97.484375 67.800781 C 96.898438 66.464844 98.875 64.300781 101.902344 62.96875 C 104.929688 61.632812 108.449219 62.976562 108.449219 62.976562 C 108.449219 62.976562 107.0625 66.476562 104.035156 67.808594 Z M 104.035156 67.808594 " fill-opacity="1" fill-rule="nonzero"/><path fill="#f58926" d="M 114.417969 59.875 C 112.351562 62.144531 109.867188 63.242188 108.867188 62.332031 C 107.863281 61.417969 108.726562 58.839844 110.789062 56.574219 C 112.851562 54.304688 116.339844 54.121094 116.339844 54.121094 C 116.339844 54.121094 116.480469 57.609375 114.417969 59.875 Z M 114.417969 59.875 " fill-opacity="1" fill-rule="nonzero"/><path fill="#f58926" d="M 119.765625 63.898438 C 117.597656 65.542969 115.25 66.101562 114.523438 65.144531 C 113.796875 64.1875 114.964844 62.074219 117.132812 60.429688 C 119.300781 58.78125 122.378906 59.183594 122.378906 59.183594 C 122.378906 59.183594 121.9375 62.253906 119.765625 63.898438 Z M 119.765625 63.898438 " fill-opacity="1" fill-rule="nonzero"/><path fill="#f58926" d="M 124.175781 76.769531 C 121.347656 77.890625 118.652344 77.789062 118.15625 76.539062 C 117.65625 75.289062 119.546875 73.367188 122.378906 72.242188 C 125.207031 71.117188 128.398438 72.46875 128.398438 72.46875 C 128.398438 72.46875 127.003906 75.644531 124.175781 76.769531 Z M 124.175781 76.769531 " fill-opacity="1" fill-rule="nonzero"/><path fill="#f58926" d="M 118.90625 71.960938 C 117.125 74.835938 114.65625 76.527344 113.386719 75.738281 C 112.117188 74.953125 112.53125 71.988281 114.308594 69.117188 C 116.089844 66.242188 119.828125 65.339844 119.828125 65.339844 C 119.828125 65.339844 120.683594 69.089844 118.90625 71.960938 Z M 118.90625 71.960938 " fill-opacity="1" fill-rule="nonzero"/><path fill="#f58926" d="M 124.859375 69.945312 C 123.089844 71.203125 121.207031 71.585938 120.652344 70.804688 C 120.101562 70.023438 121.085938 68.371094 122.855469 67.117188 C 124.621094 65.863281 127.058594 66.261719 127.058594 66.261719 C 127.058594 66.261719 126.628906 68.691406 124.859375 69.945312 Z M 124.859375 69.945312 " fill-opacity="1" fill-rule="nonzero"/><path fill="#f58926" d="M 111.617188 67.445312 C 109.847656 68.699219 107.964844 69.082031 107.410156 68.300781 C 106.859375 67.519531 107.84375 65.867188 109.613281 64.613281 C 111.378906 63.359375 113.816406 63.757812 113.816406 63.757812 C 113.816406 63.757812 113.386719 66.1875 111.617188 67.445312 Z M 111.617188 67.445312 " fill-opacity="1" fill-rule="nonzero"/><path fill="#f58926" d="M 121.582031 56.6875 C 119.8125 57.941406 117.929688 58.328125 117.375 57.542969 C 116.820312 56.761719 117.804688 55.113281 119.574219 53.859375 C 121.34375 52.605469 123.78125 53.003906 123.78125 53.003906 C 123.78125 53.003906 123.347656 55.433594 121.582031 56.6875 Z M 121.582031 56.6875 " fill-opacity="1" fill-rule="nonzero"/><path fill="#f58926" d="M 108.136719 49.324219 C 107.246094 51.300781 105.65625 52.515625 104.585938 52.03125 C 103.519531 51.550781 103.375 49.554688 104.269531 47.578125 C 105.160156 45.601562 107.816406 44.875 107.816406 44.875 C 107.816406 44.875 109.027344 47.347656 108.136719 49.324219 Z M 108.136719 49.324219 " fill-opacity="1" fill-rule="nonzero"/><g clip-path="url(#d3411a9b29)"><path fill="#f58926" d="M 94.945312 42.554688 C 95.304688 44.691406 94.664062 46.582031 93.507812 46.78125 C 92.351562 46.976562 91.121094 45.398438 90.757812 43.261719 C 90.398438 41.125 92.195312 39.035156 92.195312 39.035156 C 92.195312 39.035156 94.582031 40.417969 94.945312 42.554688 Z M 94.945312 42.554688 " fill-opacity="1" fill-rule="nonzero"/></g><path fill="#f58926" d="M 87.839844 43.671875 C 88.625 45.953125 88.257812 48.144531 87.027344 48.566406 C 85.792969 48.988281 84.160156 47.484375 83.378906 45.203125 C 82.59375 42.921875 84.191406 40.308594 84.191406 40.308594 C 84.191406 40.308594 87.058594 41.390625 87.839844 43.671875 Z M 87.839844 43.671875 " fill-opacity="1" fill-rule="nonzero"/><path fill="#f58926" d="M 80.175781 44.722656 C 80.957031 47.003906 80.589844 49.195312 79.359375 49.617188 C 78.125 50.039062 76.492188 48.535156 75.710938 46.253906 C 74.929688 43.972656 76.527344 41.359375 76.527344 41.359375 C 76.527344 41.359375 79.390625 42.441406 80.175781 44.722656 Z M 80.175781 44.722656 " fill-opacity="1" fill-rule="nonzero"/><path fill="#f58926" d="M 65.910156 49.464844 C 66.785156 52.015625 66.375 54.46875 64.996094 54.945312 C 63.617188 55.417969 61.789062 53.730469 60.910156 51.179688 C 60.035156 48.625 61.824219 45.699219 61.824219 45.699219 C 61.824219 45.699219 65.035156 46.910156 65.910156 49.464844 Z M 65.910156 49.464844 " fill-opacity="1" fill-rule="nonzero"/><path fill="#f58926" d="M 59.367188 52.65625 C 60.871094 54.898438 61.109375 57.371094 59.894531 58.1875 C 58.683594 59 56.484375 57.84375 54.980469 55.601562 C 53.472656 53.359375 54.449219 50.070312 54.449219 50.070312 C 54.449219 50.070312 57.859375 50.414062 59.367188 52.65625 Z M 59.367188 52.65625 " fill-opacity="1" fill-rule="nonzero"/><path fill="#f58926" d="M 60.214844 61.035156 C 62.371094 62.953125 63.277344 65.457031 62.238281 66.621094 C 61.203125 67.789062 58.609375 67.175781 56.453125 65.257812 C 54.296875 63.335938 54.429688 59.667969 54.429688 59.667969 C 54.429688 59.667969 58.054688 59.113281 60.214844 61.035156 Z M 60.214844 61.035156 " fill-opacity="1" fill-rule="nonzero"/><path fill="#f58926" d="M 68.988281 70.957031 C 71.339844 73.582031 72.097656 76.738281 70.683594 78.007812 C 69.265625 79.28125 66.207031 78.1875 63.855469 75.566406 C 61.5 72.945312 62.15625 68.515625 62.15625 68.515625 C 62.15625 68.515625 66.632812 68.335938 68.988281 70.957031 Z M 68.988281 70.957031 " fill-opacity="1" fill-rule="nonzero"/><path fill="#f58926" d="M 60.578125 70.285156 C 62.640625 73.382812 62.953125 76.796875 61.277344 77.914062 C 59.601562 79.027344 56.570312 77.417969 54.511719 74.316406 C 52.449219 71.21875 53.8125 66.6875 53.8125 66.6875 C 53.8125 66.6875 58.519531 67.183594 60.578125 70.285156 Z M 60.578125 70.285156 " fill-opacity="1" fill-rule="nonzero"/><path fill="#f58926" d="M 45.394531 61.546875 C 46.671875 63.472656 46.867188 65.59375 45.828125 66.285156 C 44.785156 66.976562 42.90625 65.976562 41.625 64.050781 C 40.34375 62.125 41.191406 59.3125 41.191406 59.3125 C 41.191406 59.3125 44.113281 59.621094 45.394531 61.546875 Z M 45.394531 61.546875 " fill-opacity="1" fill-rule="nonzero"/><path fill="#f58926" d="M 51.957031 66.847656 C 52.324219 69.554688 51.433594 71.910156 49.972656 72.105469 C 48.507812 72.304688 47.023438 70.273438 46.65625 67.566406 C 46.292969 64.859375 48.644531 62.304688 48.644531 62.304688 C 48.644531 62.304688 51.589844 64.140625 51.957031 66.847656 Z M 51.957031 66.847656 " fill-opacity="1" fill-rule="nonzero"/><path fill="#f58926" d="M 42.175781 65.734375 C 44.574219 67.042969 45.945312 69.152344 45.238281 70.449219 C 44.53125 71.746094 42.011719 71.738281 39.617188 70.429688 C 37.21875 69.121094 36.554688 65.714844 36.554688 65.714844 C 36.554688 65.714844 39.777344 64.425781 42.175781 65.734375 Z M 42.175781 65.734375 " fill-opacity="1" fill-rule="nonzero"/><path fill="#f58926" d="M 42.105469 65.964844 C 44.503906 67.273438 45.871094 69.386719 45.164062 70.679688 C 44.457031 71.976562 41.941406 71.96875 39.542969 70.660156 C 37.148438 69.351562 36.484375 65.945312 36.484375 65.945312 C 36.484375 65.945312 39.707031 64.660156 42.105469 65.964844 Z M 42.105469 65.964844 " fill-opacity="1" fill-rule="nonzero"/><path fill="#f58926" d="M 38.410156 72.179688 C 40.808594 73.488281 42.179688 75.601562 41.472656 76.894531 C 40.765625 78.191406 38.25 78.183594 35.851562 76.875 C 33.453125 75.566406 32.789062 72.160156 32.789062 72.160156 C 32.789062 72.160156 36.011719 70.875 38.410156 72.179688 Z M 38.410156 72.179688 " fill-opacity="1" fill-rule="nonzero"/><path fill="#f58926" d="M 49.945312 74.03125 C 52.582031 76.480469 53.648438 79.617188 52.324219 81.042969 C 51.003906 82.46875 47.792969 81.640625 45.15625 79.195312 C 42.519531 76.75 42.777344 72.183594 42.777344 72.183594 C 42.777344 72.183594 47.308594 71.585938 49.945312 74.03125 Z M 49.945312 74.03125 " fill-opacity="1" fill-rule="nonzero"/><path fill="#f58926" d="M 47.3125 82.128906 C 49.664062 84.3125 50.617188 87.117188 49.433594 88.390625 C 48.253906 89.660156 45.386719 88.921875 43.035156 86.738281 C 40.679688 84.554688 40.910156 80.476562 40.910156 80.476562 C 40.910156 80.476562 44.957031 79.945312 47.3125 82.128906 Z M 47.3125 82.128906 " fill-opacity="1" fill-rule="nonzero"/><path fill="#f58926" d="M 54.414062 83.34375 C 56.566406 84.417969 57.84375 86.230469 57.265625 87.394531 C 56.683594 88.558594 54.46875 88.632812 52.3125 87.5625 C 50.160156 86.488281 49.460938 83.511719 49.460938 83.511719 C 49.460938 83.511719 52.257812 82.269531 54.414062 83.34375 Z M 54.414062 83.34375 " fill-opacity="1" fill-rule="nonzero"/><path fill="#f58926" d="M 61.070312 81.230469 C 62.84375 82.855469 63.570312 84.949219 62.691406 85.910156 C 61.8125 86.871094 59.664062 86.328125 57.886719 84.703125 C 56.113281 83.078125 56.265625 80.023438 56.265625 80.023438 C 56.265625 80.023438 59.296875 79.605469 61.070312 81.230469 Z M 61.070312 81.230469 " fill-opacity="1" fill-rule="nonzero"/><path fill="#f58926" d="M 70.210938 81.785156 C 72.144531 83.554688 72.9375 85.835938 71.976562 86.882812 C 71.019531 87.925781 68.679688 87.339844 66.746094 85.566406 C 64.8125 83.796875 64.976562 80.46875 64.976562 80.46875 C 64.976562 80.46875 68.277344 80.011719 70.210938 81.785156 Z M 70.210938 81.785156 " fill-opacity="1" fill-rule="nonzero"/><path fill="#f58926" d="M 37.257812 80.355469 C 39.941406 82.34375 41.246094 85.132812 40.171875 86.582031 C 39.097656 88.035156 36.050781 87.601562 33.363281 85.613281 C 30.679688 83.625 30.449219 79.386719 30.449219 79.386719 C 30.449219 79.386719 34.570312 78.367188 37.257812 80.355469 Z M 37.257812 80.355469 " fill-opacity="1" fill-rule="nonzero"/><path fill="#f58926" d="M 36.816406 88.027344 C 40.117188 89.625 42.167969 92.210938 41.394531 93.808594 C 40.625 95.40625 37.320312 95.410156 34.019531 93.816406 C 30.71875 92.222656 29.441406 88.035156 29.441406 88.035156 C 29.441406 88.035156 33.515625 86.433594 36.816406 88.027344 Z M 36.816406 88.027344 " fill-opacity="1" fill-rule="nonzero"/><path fill="#f58926" d="M 50.082031 95.007812 C 53.242188 93.152344 56.617188 93.035156 57.621094 94.742188 C 58.625 96.453125 56.875 99.34375 53.714844 101.199219 C 50.550781 103.054688 46.171875 101.464844 46.171875 101.464844 C 46.171875 101.464844 46.917969 96.863281 50.082031 95.007812 Z M 50.082031 95.007812 " fill-opacity="1" fill-rule="nonzero"/><path fill="#f58926" d="M 44.507812 93.472656 C 46.675781 93.125 48.585938 93.796875 48.773438 94.96875 C 48.960938 96.140625 47.351562 97.371094 45.183594 97.71875 C 43.015625 98.0625 40.917969 96.21875 40.917969 96.21875 C 40.917969 96.21875 42.339844 93.816406 44.507812 93.472656 Z M 44.507812 93.472656 " fill-opacity="1" fill-rule="nonzero"/><g clip-path="url(#e3a8a775e7)"><path fill="#f58926" d="M 29.097656 92.910156 C 31.265625 92.566406 33.175781 93.238281 33.363281 94.410156 C 33.546875 95.582031 31.941406 96.8125 29.769531 97.15625 C 27.601562 97.503906 25.503906 95.660156 25.503906 95.660156 C 25.503906 95.660156 26.925781 93.257812 29.097656 92.910156 Z M 29.097656 92.910156 " fill-opacity="1" fill-rule="nonzero"/></g><g clip-path="url(#d8d581205a)"><path fill="#f58926" d="M 28.507812 100.75 C 30.601562 100.085938 32.589844 100.46875 32.949219 101.601562 C 33.304688 102.734375 31.894531 104.1875 29.800781 104.847656 C 27.707031 105.507812 25.363281 103.996094 25.363281 103.996094 C 25.363281 103.996094 26.414062 101.410156 28.507812 100.75 Z M 28.507812 100.75 " fill-opacity="1" fill-rule="nonzero"/></g><path fill="#f58926" d="M 37.59375 96.703125 C 40.304688 97.089844 42.332031 98.589844 42.121094 100.054688 C 41.914062 101.519531 39.546875 102.394531 36.835938 102.007812 C 34.128906 101.621094 32.308594 98.652344 32.308594 98.652344 C 32.308594 98.652344 34.886719 96.316406 37.59375 96.703125 Z M 37.59375 96.703125 " fill-opacity="1" fill-rule="nonzero"/><path fill="#f58926" d="M 58.414062 98.910156 C 61.457031 97.695312 64.453125 98.046875 65.109375 99.691406 C 65.765625 101.335938 63.828125 103.652344 60.789062 104.867188 C 57.746094 106.078125 54.09375 104.082031 54.09375 104.082031 C 54.09375 104.082031 55.371094 100.121094 58.414062 98.910156 Z M 58.414062 98.910156 " fill-opacity="1" fill-rule="nonzero"/><path fill="#f58926" d="M 68.203125 102.265625 C 68.949219 99.078125 70.949219 96.816406 72.675781 97.222656 C 74.398438 97.625 75.191406 100.535156 74.445312 103.726562 C 73.703125 106.914062 69.976562 108.769531 69.976562 108.769531 C 69.976562 108.769531 67.457031 105.457031 68.203125 102.265625 Z M 68.203125 102.265625 " fill-opacity="1" fill-rule="nonzero"/><path fill="#f58926" d="M 62.011719 106.15625 C 63.40625 103.761719 65.585938 102.429688 66.882812 103.183594 C 68.175781 103.9375 68.09375 106.488281 66.703125 108.882812 C 65.308594 111.277344 61.832031 111.855469 61.832031 111.855469 C 61.832031 111.855469 60.617188 108.550781 62.011719 106.15625 Z M 62.011719 106.15625 " fill-opacity="1" fill-rule="nonzero"/><path fill="#f58926" d="M 52.308594 109.316406 C 54.714844 106.851562 57.746094 105.902344 59.078125 107.203125 C 60.410156 108.503906 59.542969 111.558594 57.136719 114.023438 C 54.734375 116.488281 50.371094 116.136719 50.371094 116.136719 C 50.371094 116.136719 49.90625 111.78125 52.308594 109.316406 Z M 52.308594 109.316406 " fill-opacity="1" fill-rule="nonzero"/><path fill="#f58926" d="M 43.414062 106.195312 C 46.335938 104.367188 49.503906 104.164062 50.492188 105.742188 C 51.480469 107.320312 49.914062 110.082031 46.992188 111.910156 C 44.074219 113.738281 39.917969 112.363281 39.917969 112.363281 C 39.917969 112.363281 40.496094 108.023438 43.414062 106.195312 Z M 43.414062 106.195312 " fill-opacity="1" fill-rule="nonzero"/><path fill="#f58926" d="M 34.125 103.898438 C 37.195312 102.335938 40.367188 102.414062 41.210938 104.070312 C 42.058594 105.730469 40.253906 108.34375 37.1875 109.90625 C 34.117188 111.472656 30.097656 109.734375 30.097656 109.734375 C 30.097656 109.734375 31.054688 105.464844 34.125 103.898438 Z M 34.125 103.898438 " fill-opacity="1" fill-rule="nonzero"/><path fill="#f58926" d="M 60.480469 94.128906 C 62.097656 93.304688 63.773438 93.34375 64.21875 94.21875 C 64.664062 95.09375 63.714844 96.472656 62.09375 97.296875 C 60.476562 98.121094 58.355469 97.207031 58.355469 97.207031 C 58.355469 97.207031 58.863281 94.953125 60.480469 94.128906 Z M 60.480469 94.128906 " fill-opacity="1" fill-rule="nonzero"/><path fill="#f58926" d="M 69.355469 61.265625 C 71.058594 64.578125 70.988281 68.011719 69.195312 68.929688 C 67.40625 69.851562 64.574219 67.914062 62.871094 64.597656 C 61.167969 61.285156 63.03125 56.933594 63.03125 56.933594 C 63.03125 56.933594 67.652344 57.953125 69.355469 61.265625 Z M 69.355469 61.265625 " fill-opacity="1" fill-rule="nonzero"/><path fill="#f58926" d="M 51.726562 56.796875 C 52.722656 58.738281 52.679688 60.75 51.632812 61.289062 C 50.582031 61.828125 48.921875 60.691406 47.921875 58.75 C 46.925781 56.808594 48.015625 54.257812 48.015625 54.257812 C 48.015625 54.257812 50.726562 54.855469 51.726562 56.796875 Z M 51.726562 56.796875 " fill-opacity="1" fill-rule="nonzero"/><path fill="#f58926" d="M 71.972656 55.222656 C 72.847656 57.773438 72.441406 60.226562 71.058594 60.703125 C 69.679688 61.175781 67.851562 59.488281 66.976562 56.9375 C 66.097656 54.382812 67.886719 51.457031 67.886719 51.457031 C 67.886719 51.457031 71.097656 52.667969 71.972656 55.222656 Z M 71.972656 55.222656 " fill-opacity="1" fill-rule="nonzero"/><path fill="#f58926" d="M 73.855469 46.214844 C 74.730469 48.765625 74.320312 51.21875 72.941406 51.695312 C 71.5625 52.167969 69.734375 50.480469 68.855469 47.929688 C 67.980469 45.375 69.769531 42.449219 69.769531 42.449219 C 69.769531 42.449219 72.980469 43.660156 73.855469 46.214844 Z M 73.855469 46.214844 " fill-opacity="1" fill-rule="nonzero"/><path fill="#f58926" d="M 113.6875 51.789062 C 112.792969 53.765625 111.207031 54.976562 110.136719 54.496094 C 109.070312 54.015625 108.925781 52.019531 109.816406 50.042969 C 110.710938 48.066406 113.367188 47.339844 113.367188 47.339844 C 113.367188 47.339844 114.578125 49.8125 113.6875 51.789062 Z M 113.6875 51.789062 " fill-opacity="1" fill-rule="nonzero"/><path fill="#f58926" d="M 109.859375 86.835938 C 107.171875 87.597656 104.71875 87.25 104.382812 86.0625 C 104.046875 84.875 105.953125 83.296875 108.644531 82.535156 C 111.332031 81.773438 114.117188 83.308594 114.117188 83.308594 C 114.117188 83.308594 112.546875 86.074219 109.859375 86.835938 Z M 109.859375 86.835938 " fill-opacity="1" fill-rule="nonzero"/><path fill="#f58926" d="M 118.71875 87.480469 C 116.53125 89.21875 114.132812 89.84375 113.367188 88.875 C 112.597656 87.910156 113.75 85.71875 115.9375 83.980469 C 118.125 82.242188 121.289062 82.585938 121.289062 82.585938 C 121.289062 82.585938 120.90625 85.742188 118.71875 87.480469 Z M 118.71875 87.480469 " fill-opacity="1" fill-rule="nonzero"/><path fill="#f58926" d="M 136.351562 79.066406 C 134.226562 80.109375 132.132812 80.195312 131.671875 79.257812 C 131.210938 78.320312 132.554688 76.714844 134.679688 75.667969 C 136.800781 74.625 139.359375 75.476562 139.359375 75.476562 C 139.359375 75.476562 138.472656 78.019531 136.351562 79.066406 Z M 136.351562 79.066406 " fill-opacity="1" fill-rule="nonzero"/><path fill="#f58926" d="M 128.632812 87.15625 C 125.921875 89.3125 122.949219 90.085938 121.996094 88.886719 C 121.046875 87.691406 122.472656 84.972656 125.1875 82.816406 C 127.902344 80.664062 131.824219 81.085938 131.824219 81.085938 C 131.824219 81.085938 131.347656 85.003906 128.632812 87.15625 Z M 128.632812 87.15625 " fill-opacity="1" fill-rule="nonzero"/><path fill="#f58926" d="M 138.644531 84.832031 C 135.90625 86.398438 133.125 86.691406 132.433594 85.484375 C 131.738281 84.273438 133.394531 82.019531 136.132812 80.453125 C 138.871094 78.882812 142.34375 79.800781 142.34375 79.800781 C 142.34375 79.800781 141.378906 83.261719 138.644531 84.832031 Z M 138.644531 84.832031 " fill-opacity="1" fill-rule="nonzero"/><path fill="#f58926" d="M 139.710938 92.472656 C 136.558594 92.636719 133.945312 91.644531 133.871094 90.253906 C 133.796875 88.859375 136.292969 87.597656 139.441406 87.429688 C 142.59375 87.265625 145.28125 89.648438 145.28125 89.648438 C 145.28125 89.648438 142.859375 92.304688 139.710938 92.472656 Z M 139.710938 92.472656 " fill-opacity="1" fill-rule="nonzero"/><path fill="#f58926" d="M 131.816406 96.65625 C 128.660156 96.644531 126.105469 95.507812 126.109375 94.113281 C 126.117188 92.71875 128.675781 91.597656 131.832031 91.609375 C 134.988281 91.621094 137.535156 94.152344 137.535156 94.152344 C 137.535156 94.152344 134.96875 96.667969 131.816406 96.65625 Z M 131.816406 96.65625 " fill-opacity="1" fill-rule="nonzero"/><path fill="#f58926" d="M 120.292969 98.65625 C 117.039062 97.597656 114.78125 95.570312 115.25 94.132812 C 115.71875 92.695312 118.734375 92.390625 121.988281 93.453125 C 125.242188 94.511719 127.03125 97.976562 127.03125 97.976562 C 127.03125 97.976562 123.546875 99.71875 120.292969 98.65625 Z M 120.292969 98.65625 " fill-opacity="1" fill-rule="nonzero"/><path fill="#f58926" d="M 111.335938 99.96875 C 108.082031 98.910156 105.824219 96.882812 106.292969 95.445312 C 106.761719 94.007812 109.777344 93.703125 113.03125 94.765625 C 116.285156 95.824219 118.074219 99.289062 118.074219 99.289062 C 118.074219 99.289062 114.589844 101.03125 111.335938 99.96875 Z M 111.335938 99.96875 " fill-opacity="1" fill-rule="nonzero"/><path fill="#f58926" d="M 102.589844 101.359375 C 99.941406 100.496094 98.101562 98.847656 98.484375 97.675781 C 98.867188 96.507812 101.324219 96.257812 103.972656 97.121094 C 106.621094 97.984375 108.078125 100.804688 108.078125 100.804688 C 108.078125 100.804688 105.242188 102.222656 102.589844 101.359375 Z M 102.589844 101.359375 " fill-opacity="1" fill-rule="nonzero"/><path fill="#f58926" d="M 112.570312 104.6875 C 110.296875 103.949219 108.71875 102.53125 109.042969 101.527344 C 109.371094 100.519531 111.480469 100.308594 113.757812 101.050781 C 116.03125 101.789062 117.28125 104.210938 117.28125 104.210938 C 117.28125 104.210938 114.84375 105.429688 112.570312 104.6875 Z M 112.570312 104.6875 " fill-opacity="1" fill-rule="nonzero"/><path fill="#f58926" d="M 123.167969 105.226562 C 120.609375 104.574219 118.773438 103.132812 119.058594 102.003906 C 119.347656 100.875 121.652344 100.488281 124.207031 101.136719 C 126.761719 101.789062 128.3125 104.359375 128.3125 104.359375 C 128.3125 104.359375 125.722656 105.875 123.167969 105.226562 Z M 123.167969 105.226562 " fill-opacity="1" fill-rule="nonzero"/><path fill="#f58926" d="M 133.105469 103.136719 C 129.800781 103.207031 127.097656 102.078125 127.066406 100.621094 C 127.035156 99.160156 129.6875 97.917969 132.996094 97.847656 C 136.300781 97.777344 139.035156 100.363281 139.035156 100.363281 C 139.035156 100.363281 136.414062 103.066406 133.105469 103.136719 Z M 133.105469 103.136719 " fill-opacity="1" fill-rule="nonzero"/><path fill="#f58926" d="M 112.546875 112.570312 C 109.757812 110.359375 108.289062 107.566406 109.265625 106.335938 C 110.246094 105.101562 113.296875 105.898438 116.089844 108.109375 C 118.878906 110.320312 119.367188 114.347656 119.367188 114.347656 C 119.367188 114.347656 115.339844 114.785156 112.546875 112.570312 Z M 112.546875 112.570312 " fill-opacity="1" fill-rule="nonzero"/><path fill="#f58926" d="M 96.074219 108.191406 C 94.675781 104.917969 94.71875 101.761719 96.164062 101.144531 C 97.613281 100.527344 99.917969 102.683594 101.3125 105.957031 C 102.707031 109.234375 101.21875 113.003906 101.21875 113.003906 C 101.21875 113.003906 97.46875 111.46875 96.074219 108.191406 Z M 96.074219 108.191406 " fill-opacity="1" fill-rule="nonzero"/><path fill="#f58926" d="M 103.789062 110.011719 C 102.078125 107.292969 101.664062 104.476562 102.867188 103.71875 C 104.066406 102.964844 106.425781 104.554688 108.140625 107.269531 C 109.851562 109.988281 109.0625 113.5625 109.0625 113.5625 C 109.0625 113.5625 105.503906 112.726562 103.789062 110.011719 Z M 103.789062 110.011719 " fill-opacity="1" fill-rule="nonzero"/><path fill="#f58926" d="M 123.085938 112.933594 C 119.867188 111.003906 117.949219 108.285156 118.800781 106.863281 C 119.65625 105.441406 122.957031 105.855469 126.175781 107.785156 C 129.394531 109.714844 130.457031 113.855469 130.457031 113.855469 C 130.457031 113.855469 126.304688 114.863281 123.085938 112.933594 Z M 123.085938 112.933594 " fill-opacity="1" fill-rule="nonzero"/><path fill="#f58926" d="M 132.878906 111.972656 C 129.5 110.34375 127.34375 107.808594 128.066406 106.316406 C 128.785156 104.824219 132.109375 104.933594 135.488281 106.566406 C 138.871094 108.195312 140.304688 112.222656 140.304688 112.222656 C 140.304688 112.222656 136.261719 113.605469 132.878906 111.972656 Z M 132.878906 111.972656 " fill-opacity="1" fill-rule="nonzero"/><g clip-path="url(#9be4c41d59)"><path fill="#f58926" d="M 140.980469 107.3125 C 138.042969 106.871094 135.820312 105.464844 136.015625 104.164062 C 136.207031 102.867188 138.75 102.171875 141.6875 102.613281 C 144.625 103.050781 146.65625 105.757812 146.65625 105.757812 C 146.65625 105.757812 143.921875 107.753906 140.980469 107.3125 Z M 140.980469 107.3125 " fill-opacity="1" fill-rule="nonzero"/></g><path fill="#f58926" d="M 141.457031 98.59375 C 138.96875 98.75 136.890625 97.988281 136.820312 96.890625 C 136.75 95.789062 138.710938 94.769531 141.203125 94.609375 C 143.691406 94.449219 145.835938 96.3125 145.835938 96.3125 C 145.835938 96.3125 143.945312 98.433594 141.457031 98.59375 Z M 141.457031 98.59375 " fill-opacity="1" fill-rule="nonzero"/><path fill="#f58926" d="M 134.144531 74.707031 C 132.046875 75.914062 129.910156 76.144531 129.375 75.214844 C 128.839844 74.289062 130.109375 72.554688 132.210938 71.34375 C 134.3125 70.136719 136.984375 70.835938 136.984375 70.835938 C 136.984375 70.835938 136.246094 73.496094 134.144531 74.707031 Z M 134.144531 74.707031 " fill-opacity="1" fill-rule="nonzero"/><path fill="#f58926" d="M 131.8125 68.261719 C 130.355469 69.785156 128.628906 70.5 127.953125 69.855469 C 127.28125 69.214844 127.914062 67.457031 129.371094 65.929688 C 130.828125 64.402344 133.230469 64.332031 133.230469 64.332031 C 133.230469 64.332031 133.269531 66.734375 131.8125 68.261719 Z M 131.8125 68.261719 " fill-opacity="1" fill-rule="nonzero"/><path fill="#f58926" d="M 127.007812 63.210938 C 125.039062 64.855469 122.855469 65.484375 122.132812 64.613281 C 121.40625 63.746094 122.410156 61.707031 124.378906 60.066406 C 126.34375 58.421875 129.253906 58.664062 129.253906 58.664062 C 129.253906 58.664062 128.972656 61.566406 127.007812 63.210938 Z M 127.007812 63.210938 " fill-opacity="1" fill-rule="nonzero"/><path fill="#f58926" d="M 104.960938 60.492188 C 102.542969 61.949219 100.058594 62.261719 99.414062 61.191406 C 98.769531 60.125 100.210938 58.074219 102.632812 56.617188 C 105.054688 55.160156 108.179688 55.917969 108.179688 55.917969 C 108.179688 55.917969 107.382812 59.035156 104.960938 60.492188 Z M 104.960938 60.492188 " fill-opacity="1" fill-rule="nonzero"/><path fill="#f58926" d="M 111.164062 74.222656 C 109.339844 76.382812 107.089844 77.480469 106.136719 76.675781 C 105.183594 75.867188 105.886719 73.464844 107.710938 71.304688 C 109.535156 69.148438 112.742188 68.855469 112.742188 68.855469 C 112.742188 68.855469 112.988281 72.066406 111.164062 74.222656 Z M 111.164062 74.222656 " fill-opacity="1" fill-rule="nonzero"/><path fill="#f58926" d="M 102.570312 54.113281 C 101.636719 56.398438 100.0625 57.917969 99.054688 57.507812 C 98.042969 57.09375 97.980469 54.910156 98.910156 52.621094 C 99.84375 50.335938 102.425781 49.226562 102.425781 49.226562 C 102.425781 49.226562 103.5 51.824219 102.570312 54.113281 Z M 102.570312 54.113281 " fill-opacity="1" fill-rule="nonzero"/><path fill="#f58926" d="M 95.496094 70.550781 C 93.175781 73.46875 90.25 75 88.964844 73.972656 C 87.675781 72.949219 88.511719 69.757812 90.832031 66.84375 C 93.152344 63.925781 97.363281 63.421875 97.363281 63.421875 C 97.363281 63.421875 97.8125 67.636719 95.496094 70.550781 Z M 95.496094 70.550781 " fill-opacity="1" fill-rule="nonzero"/><path fill="#f58926" d="M 103.1875 77.300781 C 100.363281 79.726562 97.203125 80.679688 96.128906 79.433594 C 95.058594 78.183594 96.480469 75.207031 99.308594 72.777344 C 102.132812 70.351562 106.363281 70.644531 106.363281 70.644531 C 106.363281 70.644531 106.015625 74.875 103.1875 77.300781 Z M 103.1875 77.300781 " fill-opacity="1" fill-rule="nonzero"/></svg>