<svg xmlns="http://www.w3.org/2000/svg" xmlns:xlink="http://www.w3.org/1999/xlink" width="351" zoomAndPan="magnify" viewBox="0 0 263.25 207.000001" height="276" preserveAspectRatio="xMidYMid meet" version="1.0"><defs><clipPath id="1217bf4923"><path d="M 230 100 L 262.242188 100 L 262.242188 127 L 230 127 Z M 230 100 " clip-rule="nonzero"/></clipPath><clipPath id="dcbba1ebfd"><path d="M 197 5.5 L 222 5.5 L 222 35 L 197 35 Z M 197 5.5 " clip-rule="nonzero"/></clipPath><clipPath id="5670a09664"><path d="M 196 5.5 L 224 5.5 L 224 37 L 196 37 Z M 196 5.5 " clip-rule="nonzero"/></clipPath><clipPath id="18b14f7430"><path d="M 0.257812 102 L 31 102 L 31 125 L 0.257812 125 Z M 0.257812 102 " clip-rule="nonzero"/></clipPath><clipPath id="dbbb7958c8"><path d="M 0.257812 100 L 33 100 L 33 127 L 0.257812 127 Z M 0.257812 100 " clip-rule="nonzero"/></clipPath><clipPath id="d482c34cd5"><path d="M 40 5.5 L 65 5.5 L 65 36 L 40 36 Z M 40 5.5 " clip-rule="nonzero"/></clipPath><clipPath id="161a8320b3"><path d="M 39 5.5 L 67 5.5 L 67 37 L 39 37 Z M 39 5.5 " clip-rule="nonzero"/></clipPath><clipPath id="ce01c682df"><path d="M 45.234375 0 L 216.90625 0 L 216.90625 205.257812 L 45.234375 205.257812 Z M 45.234375 0 " clip-rule="nonzero"/></clipPath><clipPath id="e021bdf6d9"><path d="M 50.917969 7.023438 L 206 7.023438 L 206 192.128906 L 50.917969 192.128906 Z M 50.917969 7.023438 " clip-rule="nonzero"/></clipPath><clipPath id="d0c58f8170"><path d="M 53.746094 10.171875 L 208.996094 10.171875 L 208.996094 195.277344 L 53.746094 195.277344 Z M 53.746094 10.171875 " clip-rule="nonzero"/></clipPath><clipPath id="e1f08f3fe0"><path d="M 75.230469 41.03125 L 191.667969 41.03125 L 191.667969 158.214844 L 75.230469 158.214844 Z M 75.230469 41.03125 " clip-rule="nonzero"/></clipPath><clipPath id="42038b43a2"><path d="M 70.546875 41.03125 L 186.984375 41.03125 L 186.984375 158.214844 L 70.546875 158.214844 Z M 70.546875 41.03125 " clip-rule="nonzero"/></clipPath></defs><path stroke-linecap="butt" transform="matrix(-0.280231, 0, 0, 0.280231, 237.048568, -60.109587)" fill-opacity="1" fill="#959595" fill-rule="evenodd" stroke-linejoin="miter" d="M 347.096555 896.456097 C 296.831158 861.844621 255.09666 892.232465 216.888825 926.593032 C 266.220284 940.002714 318.465073 946.080283 347.096555 896.456097 Z M 347.096555 896.456097 " stroke="#007d00" stroke-width="1" stroke-opacity="1" stroke-miterlimit="4"/><path stroke-linecap="butt" transform="matrix(-0.280231, 0, 0, 0.280231, 237.048568, -60.109587)" fill-opacity="1" fill="#959595" fill-rule="evenodd" stroke-linejoin="miter" d="M 335.011115 866.653707 C 332.780814 805.668928 283.491174 790.335612 233.114261 780.187745 C 251.806967 827.762842 278.110574 873.30279 335.011115 866.653707 Z M 335.011115 866.653707 " stroke="#007d00" stroke-width="1" stroke-opacity="1" stroke-miterlimit="4"/><path stroke-linecap="butt" transform="matrix(-0.280231, 0, 0, 0.280231, 237.048568, -60.109587)" fill-opacity="1" fill="#959595" fill-rule="evenodd" stroke-linejoin="miter" d="M 257.466355 868.967644 C 210.2955 830.230112 166.149489 856.993718 125.167718 888.008834 C 173.188875 905.530632 224.736695 915.999105 257.466355 868.967644 Z M 257.466355 868.967644 " stroke="#007d00" stroke-width="1" stroke-opacity="1" stroke-miterlimit="4"/><path stroke-linecap="butt" transform="matrix(-0.280231, 0, 0, 0.280231, 237.048568, -60.109587)" fill-opacity="1" fill="#959595" fill-rule="evenodd" stroke-linejoin="miter" d="M 213.724587 840.043434 C 243.122735 786.558041 208.692471 748.099297 170.651908 713.529639 C 162.274342 763.962309 161.479798 816.555582 213.724587 840.043434 Z M 213.724587 840.043434 " stroke="#007d00" stroke-width="1" stroke-opacity="1" stroke-miterlimit="4"/><path stroke-linecap="butt" transform="matrix(-0.280231, 0, 0, 0.280231, 237.048568, -60.109587)" fill-opacity="1" fill="#959595" fill-rule="evenodd" stroke-linejoin="miter" d="M 175.55857 838.858587 C 140.863458 788.648947 91.05806 802.25378 43.134478 820.807092 C 84.492613 850.846452 131.17559 875.08703 175.55857 838.858587 Z M 175.55857 838.858587 " stroke="#007d00" stroke-width="1" stroke-opacity="1" stroke-miterlimit="4"/><path stroke-linecap="butt" transform="matrix(-0.280231, 0, 0, 0.280231, 237.048568, -60.109587)" fill-opacity="1" fill="#959595" fill-rule="evenodd" stroke-linejoin="miter" d="M 126.561656 794.085305 C 171.460392 752.74111 151.067082 705.319346 126.031959 660.434548 C 102.028351 705.556315 84.520492 755.152622 126.561656 794.085305 Z M 126.561656 794.085305 " stroke="#007d00" stroke-width="1" stroke-opacity="1" stroke-miterlimit="4"/><path stroke-linecap="butt" transform="matrix(-0.280231, 0, 0, 0.280231, 237.048568, -60.109587)" fill-opacity="1" fill="#959595" fill-rule="evenodd" stroke-linejoin="miter" d="M 102.71138 789.025311 C 78.192014 733.142344 26.713891 737.017491 -23.858172 746.119905 C 11.032091 783.477438 52.236892 816.15134 102.71138 789.025311 Z M 102.71138 789.025311 " stroke="#007d00" stroke-width="1" stroke-opacity="1" stroke-miterlimit="4"/><path stroke-linecap="butt" transform="matrix(-0.280231, 0, 0, 0.280231, 237.048568, -60.109587)" fill-opacity="1" fill="#959595" fill-rule="evenodd" stroke-linejoin="miter" d="M 61.813245 734.996281 C 113.584095 702.712682 102.362896 652.32183 86.081702 603.575826 C 54.118708 643.470325 27.717526 688.954516 61.813245 734.996281 Z M 61.813245 734.996281 " stroke="#007d00" stroke-width="1" stroke-opacity="1" stroke-miterlimit="4"/><path stroke-linecap="butt" transform="matrix(-0.280231, 0, 0, 0.280231, 237.048568, -60.109587)" fill-opacity="1" fill="#959595" fill-rule="evenodd" stroke-linejoin="miter" d="M 43.733872 727.441139 C 30.226614 667.919994 -21.056357 661.995759 -72.436905 661.368487 C -45.241178 704.650256 -10.950308 744.530816 43.733872 727.441139 Z M 43.733872 727.441139 " stroke="#007d00" stroke-width="1" stroke-opacity="1" stroke-miterlimit="4"/><path stroke-linecap="butt" transform="matrix(-0.280231, 0, 0, 0.280231, 237.048568, -60.109587)" fill-opacity="1" fill="#959595" fill-rule="evenodd" stroke-linejoin="miter" d="M 28.358738 639.985481 C 83.488978 613.821268 78.108378 562.482539 67.514451 512.203203 C 31.188431 548.180737 -0.244866 590.333416 28.358738 639.985481 Z M 28.358738 639.985481 " stroke="#007d00" stroke-width="1" stroke-opacity="1" stroke-miterlimit="4"/><path fill="#959595" d="M 231.679688 124.003906 C 233.453125 106.992188 247.527344 103.636719 261.804688 101.75 C 255.679688 114.699219 247.464844 126.9375 231.679688 124.003906 Z M 231.679688 124.003906 " fill-opacity="1" fill-rule="evenodd"/><g clip-path="url(#1217bf4923)"><path stroke-linecap="butt" transform="matrix(-0.280231, 0, 0, 0.280231, 237.048568, -60.109587)" fill="none" stroke-linejoin="miter" d="M 19.158748 657.005461 C 12.830271 596.29947 -37.393308 584.325544 -88.341735 577.592825 C -66.48479 623.801863 -37.170278 667.473934 19.158748 657.005461 Z M 19.158748 657.005461 " stroke="#007d00" stroke-width="1" stroke-opacity="1" stroke-miterlimit="4"/></g><path stroke-linecap="butt" transform="matrix(-0.280231, 0, 0, 0.280231, 237.048568, -60.109587)" fill-opacity="1" fill="#959595" fill-rule="evenodd" stroke-linejoin="miter" d="M 5.177552 540.486201 C 64.768393 527.313488 70.985356 476.072335 71.891415 424.691787 C 28.456313 451.636605 -11.605459 485.704445 5.177552 540.486201 Z M 5.177552 540.486201 " stroke="#007d00" stroke-width="1" stroke-opacity="1" stroke-miterlimit="4"/><path stroke-linecap="butt" transform="matrix(-0.280231, 0, 0, 0.280231, 237.048568, -60.109587)" fill-opacity="1" fill="#959595" fill-rule="evenodd" stroke-linejoin="miter" d="M -6.489707 585.245543 C 10.753303 526.714095 -31.106649 496.521402 -75.67084 470.900826 C -73.050237 521.946828 -62.567825 573.494648 -6.489707 585.245543 Z M -6.489707 585.245543 " stroke="#007d00" stroke-width="1" stroke-opacity="1" stroke-miterlimit="4"/><path stroke-linecap="butt" transform="matrix(-0.280231, 0, 0, 0.280231, 237.048568, -60.109587)" fill-opacity="1" fill="#959595" fill-rule="evenodd" stroke-linejoin="miter" d="M 28.609647 425.500271 C 89.566547 428.552995 109.109555 380.768807 123.578629 331.451288 C 74.567776 345.96218 26.909042 368.223367 28.609647 425.500271 Z M 28.609647 425.500271 " stroke="#007d00" stroke-width="1" stroke-opacity="1" stroke-miterlimit="4"/><path stroke-linecap="butt" transform="matrix(-0.280231, 0, 0, 0.280231, 237.048568, -60.109587)" fill-opacity="1" fill="#959595" fill-rule="evenodd" stroke-linejoin="miter" d="M -10.629703 491.19656 C 26.002983 442.380858 -2.670318 399.447574 -35.441795 359.87368 C -50.844808 408.619685 -59.041162 460.557807 -10.629703 491.19656 Z M -10.629703 491.19656 " stroke="#007d00" stroke-width="1" stroke-opacity="1" stroke-miterlimit="4"/><g clip-path="url(#dcbba1ebfd)"><path fill="#959595" d="M 221.558594 34.796875 C 204.484375 33.8125 200.476562 19.910156 197.933594 5.738281 C 211.152344 11.253906 223.757812 18.894531 221.558594 34.796875 Z M 221.558594 34.796875 " fill-opacity="1" fill-rule="evenodd"/></g><g clip-path="url(#5670a09664)"><path stroke-linecap="butt" transform="matrix(-0.280231, 0, 0, 0.280231, 237.048568, -60.109587)" fill="none" stroke-linejoin="miter" d="M 55.275677 338.671886 C 116.204698 335.159163 130.5065 285.548916 139.581035 234.976853 C 92.41018 254.659254 47.427807 281.924678 55.275677 338.671886 Z M 55.275677 338.671886 " stroke="#007d00" stroke-width="1" stroke-opacity="1" stroke-miterlimit="4"/></g><path stroke-linecap="butt" transform="matrix(-0.280231, 0, 0, 0.280231, 237.048568, -60.109587)" fill-opacity="1" fill="#959595" fill-rule="evenodd" stroke-linejoin="miter" d="M 16.384812 391.334856 C 62.161729 350.966417 42.813873 303.112532 18.754506 257.698039 C -6.224859 302.304049 -24.80605 351.510053 16.384812 391.334856 Z M 16.384812 391.334856 " stroke="#007d00" stroke-width="1" stroke-opacity="1" stroke-miterlimit="4"/><path stroke-linecap="butt" transform="matrix(0.280231, 0, 0, 0.280231, 25.350629, -59.862432)" fill-opacity="1" fill="#959595" fill-rule="evenodd" stroke-linejoin="miter" d="M 347.093844 896.452308 C 296.828447 861.840832 255.093949 892.228676 216.886114 926.603182 C 266.217573 939.998925 318.462361 946.076493 347.093844 896.452308 Z M 347.093844 896.452308 " stroke="#007d00" stroke-width="1" stroke-opacity="1" stroke-miterlimit="4"/><path stroke-linecap="butt" transform="matrix(0.280231, 0, 0, 0.280231, 25.350629, -59.862432)" fill-opacity="1" fill="#959595" fill-rule="evenodd" stroke-linejoin="miter" d="M 335.008403 866.663857 C 332.778103 805.679078 283.488462 790.331823 233.11155 780.183956 C 251.804256 827.759053 278.107862 873.31294 335.008403 866.663857 Z M 335.008403 866.663857 " stroke="#007d00" stroke-width="1" stroke-opacity="1" stroke-miterlimit="4"/><path stroke-linecap="butt" transform="matrix(0.280231, 0, 0, 0.280231, 25.350629, -59.862432)" fill-opacity="1" fill="#959595" fill-rule="evenodd" stroke-linejoin="miter" d="M 257.463643 868.963854 C 210.306727 830.240262 166.160717 856.989929 125.165007 888.005045 C 173.186164 905.526843 224.733984 915.995316 257.463643 868.963854 Z M 257.463643 868.963854 " stroke="#007d00" stroke-width="1" stroke-opacity="1" stroke-miterlimit="4"/><path stroke-linecap="butt" transform="matrix(0.280231, 0, 0, 0.280231, 25.350629, -59.862432)" fill-opacity="1" fill="#959595" fill-rule="evenodd" stroke-linejoin="miter" d="M 213.735814 840.053584 C 243.120023 786.568191 208.68976 748.095508 170.649197 713.52585 C 162.271631 763.95852 161.477086 816.551793 213.735814 840.053584 Z M 213.735814 840.053584 " stroke="#007d00" stroke-width="1" stroke-opacity="1" stroke-miterlimit="4"/><path stroke-linecap="butt" transform="matrix(0.280231, 0, 0, 0.280231, 25.350629, -59.862432)" fill-opacity="1" fill="#959595" fill-rule="evenodd" stroke-linejoin="miter" d="M 175.555858 838.854798 C 140.860746 788.659098 91.069288 802.249991 43.145706 820.803303 C 84.489901 850.856602 131.172878 875.083241 175.555858 838.854798 Z M 175.555858 838.854798 " stroke="#007d00" stroke-width="1" stroke-opacity="1" stroke-miterlimit="4"/><path stroke-linecap="butt" transform="matrix(0.280231, 0, 0, 0.280231, 25.350629, -59.862432)" fill-opacity="1" fill="#959595" fill-rule="evenodd" stroke-linejoin="miter" d="M 126.558944 794.081516 C 171.457681 752.73732 151.07831 705.315556 126.029248 660.430759 C 102.025639 705.566465 84.51778 755.148833 126.558944 794.081516 Z M 126.558944 794.081516 " stroke="#007d00" stroke-width="1" stroke-opacity="1" stroke-miterlimit="4"/><path stroke-linecap="butt" transform="matrix(0.280231, 0, 0, 0.280231, 25.350629, -59.862432)" fill-opacity="1" fill="#959595" fill-rule="evenodd" stroke-linejoin="miter" d="M 102.708669 789.035461 C 78.203242 733.138555 26.725119 737.013702 -23.860884 746.116116 C 11.029379 783.487588 52.24812 816.147551 102.708669 789.035461 Z M 102.708669 789.035461 " stroke="#007d00" stroke-width="1" stroke-opacity="1" stroke-miterlimit="4"/><path stroke-linecap="butt" transform="matrix(0.280231, 0, 0, 0.280231, 25.350629, -59.862432)" fill-opacity="1" fill="#959595" fill-rule="evenodd" stroke-linejoin="miter" d="M 61.810533 735.006432 C 113.595323 702.708893 102.360184 652.318041 86.078991 603.572036 C 54.115997 643.466536 27.714815 688.950727 61.810533 735.006432 Z M 61.810533 735.006432 " stroke="#007d00" stroke-width="1" stroke-opacity="1" stroke-miterlimit="4"/><path stroke-linecap="butt" transform="matrix(0.280231, 0, 0, 0.280231, 25.350629, -59.862432)" fill-opacity="1" fill="#959595" fill-rule="evenodd" stroke-linejoin="miter" d="M 43.73116 727.437349 C 30.223903 667.930145 -21.045129 661.99197 -72.439616 661.364698 C -45.24389 704.646466 -10.95302 744.527027 43.73116 727.437349 Z M 43.73116 727.437349 " stroke="#007d00" stroke-width="1" stroke-opacity="1" stroke-miterlimit="4"/><path stroke-linecap="butt" transform="matrix(0.280231, 0, 0, 0.280231, 25.350629, -59.862432)" fill-opacity="1" fill="#959595" fill-rule="evenodd" stroke-linejoin="miter" d="M 28.356026 639.981692 C 83.486266 613.831419 78.105666 562.492689 67.511739 512.199413 C 31.199659 548.176948 -0.247577 590.343567 28.356026 639.981692 Z M 28.356026 639.981692 " stroke="#007d00" stroke-width="1" stroke-opacity="1" stroke-miterlimit="4"/><g clip-path="url(#18b14f7430)"><path fill="#959595" d="M 30.722656 124.25 C 28.945312 107.242188 14.875 103.882812 0.59375 102 C 6.71875 114.949219 14.933594 127.183594 30.722656 124.25 Z M 30.722656 124.25 " fill-opacity="1" fill-rule="evenodd"/></g><g clip-path="url(#dbbb7958c8)"><path stroke-linecap="butt" transform="matrix(0.280231, 0, 0, 0.280231, 25.350629, -59.862432)" fill="none" stroke-linejoin="miter" d="M 19.169976 657.001672 C 12.827559 596.30962 -37.38208 584.321755 -88.344446 577.602975 C -66.487502 623.812013 -37.17299 667.470145 19.169976 657.001672 Z M 19.169976 657.001672 " stroke="#007d00" stroke-width="1" stroke-opacity="1" stroke-miterlimit="4"/></g><path stroke-linecap="butt" transform="matrix(0.280231, 0, 0, 0.280231, 25.350629, -59.862432)" fill-opacity="1" fill="#959595" fill-rule="evenodd" stroke-linejoin="miter" d="M 5.174841 540.496351 C 64.765682 527.323639 70.982644 476.068546 71.902643 424.687998 C 28.453602 451.646755 -11.608171 485.714595 5.174841 540.496351 Z M 5.174841 540.496351 " stroke="#007d00" stroke-width="1" stroke-opacity="1" stroke-miterlimit="4"/><path stroke-linecap="butt" transform="matrix(0.280231, 0, 0, 0.280231, 25.350629, -59.862432)" fill-opacity="1" fill="#959595" fill-rule="evenodd" stroke-linejoin="miter" d="M -6.492419 585.255694 C 10.764531 526.710306 -31.10936 496.517613 -75.673552 470.897036 C -73.052949 521.956978 -62.556597 573.490859 -6.492419 585.255694 Z M -6.492419 585.255694 " stroke="#007d00" stroke-width="1" stroke-opacity="1" stroke-miterlimit="4"/><path stroke-linecap="butt" transform="matrix(0.280231, 0, 0, 0.280231, 25.350629, -59.862432)" fill-opacity="1" fill="#959595" fill-rule="evenodd" stroke-linejoin="miter" d="M 28.620874 425.496482 C 89.563835 428.549206 109.106843 380.778958 123.575917 331.461438 C 74.565064 345.958391 26.92027 368.233517 28.620874 425.496482 Z M 28.620874 425.496482 " stroke="#007d00" stroke-width="1" stroke-opacity="1" stroke-miterlimit="4"/><path stroke-linecap="butt" transform="matrix(0.280231, 0, 0, 0.280231, 25.350629, -59.862432)" fill-opacity="1" fill="#959595" fill-rule="evenodd" stroke-linejoin="miter" d="M -10.632414 491.192771 C 26.000271 442.377069 -2.65909 399.443785 -35.444507 359.869891 C -50.84752 408.615895 -59.043874 460.554018 -10.632414 491.192771 Z M -10.632414 491.192771 " stroke="#007d00" stroke-width="1" stroke-opacity="1" stroke-miterlimit="4"/><g clip-path="url(#d482c34cd5)"><path fill="#959595" d="M 40.839844 35.042969 C 57.914062 34.058594 61.921875 20.15625 64.464844 5.984375 C 51.246094 11.5 38.640625 19.140625 40.839844 35.042969 Z M 40.839844 35.042969 " fill-opacity="1" fill-rule="evenodd"/></g><g clip-path="url(#161a8320b3)"><path stroke-linecap="butt" transform="matrix(0.280231, 0, 0, 0.280231, 25.350629, -59.862432)" fill="none" stroke-linejoin="miter" d="M 55.272965 338.668097 C 116.201986 335.155373 130.503788 285.545127 139.578323 234.973064 C 92.407468 254.655465 47.425095 281.920889 55.272965 338.668097 Z M 55.272965 338.668097 " stroke="#007d00" stroke-width="1" stroke-opacity="1" stroke-miterlimit="4"/></g><path stroke-linecap="butt" transform="matrix(0.280231, 0, 0, 0.280231, 25.350629, -59.862432)" fill-opacity="1" fill="#959595" fill-rule="evenodd" stroke-linejoin="miter" d="M 16.39604 391.331067 C 62.172957 350.976567 42.811161 303.108743 18.751795 257.69425 C -6.227571 302.300259 -24.808762 351.506264 16.39604 391.331067 Z M 16.39604 391.331067 " stroke="#007d00" stroke-width="1" stroke-opacity="1" stroke-miterlimit="4"/><path stroke-linecap="round" transform="matrix(0.377247, 0, 0, 0.28847, -1.84582, -73.417779)" fill-opacity="1" fill="#959595" fill-rule="nonzero" stroke-linejoin="miter" d="M 365.67857 905.896428 C 365.67857 907.020353 365.595733 908.130737 365.430059 909.241121 C 365.264385 910.351504 365.00552 911.421264 364.684527 912.463942 C 364.353179 913.506619 363.94935 914.495131 363.462683 915.429479 C 362.986371 916.363826 362.447931 917.230467 361.837009 918.029402 C 361.226087 918.828336 360.563392 919.546023 359.838569 920.168921 C 359.124101 920.79182 358.368214 921.319929 357.570909 921.753249 C 356.773604 922.18657 355.95559 922.51156 355.106512 922.728221 C 354.267788 922.958422 353.408356 923.066752 352.548923 923.066752 C 351.68949 923.066752 350.830058 922.958422 349.980979 922.728221 C 349.142256 922.51156 348.324242 922.18657 347.526937 921.753249 C 346.729632 921.319929 345.973745 920.79182 345.248922 920.168921 C 344.534454 919.546023 343.871759 918.828336 343.260837 918.029402 C 342.649915 917.230467 342.111475 916.363826 341.624809 915.429479 C 341.148496 914.495131 340.744667 913.506619 340.413319 912.463942 C 340.081971 911.421264 339.833461 910.351504 339.667787 909.241121 C 339.502113 908.130737 339.419276 907.020353 339.419276 905.896428 C 339.419276 904.758962 339.502113 903.648578 339.667787 902.538194 C 339.833461 901.427811 340.081971 900.358051 340.413319 899.315373 C 340.744667 898.272696 341.148496 897.284184 341.624809 896.349836 C 342.111475 895.415489 342.649915 894.548848 343.260837 893.749913 C 343.871759 892.950979 344.534454 892.233292 345.248922 891.610394 C 345.973745 890.987495 346.729632 890.459386 347.526937 890.026066 C 348.324242 889.592745 349.142256 889.267755 349.980979 889.051095 C 350.830058 888.820893 351.68949 888.712563 352.548923 888.712563 C 353.408356 888.712563 354.267788 888.820893 355.106512 889.051095 C 355.95559 889.267755 356.773604 889.592745 357.570909 890.026066 C 358.368214 890.459386 359.124101 890.987495 359.838569 891.610394 C 360.563392 892.233292 361.226087 892.950979 361.837009 893.749913 C 362.447931 894.548848 362.986371 895.415489 363.462683 896.349836 C 363.94935 897.284184 364.353179 898.272696 364.684527 899.315373 C 365.00552 900.358051 365.264385 901.427811 365.430059 902.538194 C 365.595733 903.648578 365.67857 904.758962 365.67857 905.896428 Z M 365.67857 905.896428 " stroke="#007d00" stroke-width="0.849" stroke-opacity="1" stroke-miterlimit="4"/><g clip-path="url(#ce01c682df)"><path fill="#b4b4b4" d="M 131.144531 0 C 158.398438 21.71875 196.300781 34.328125 217.136719 40.050781 C 213.515625 174.34375 145.972656 201.171875 131.367188 205.410156 C 116.84375 201.085938 49.78125 173.914062 45.257812 40.019531 C 66.109375 34.28125 103.9375 21.671875 131.144531 0 Z M 131.144531 0 " fill-opacity="1" fill-rule="evenodd"/></g><path fill="#b4b4b4" d="M 92.125 96.582031 L 91.945312 96.226562 L 91.5625 96.328125 L 91.839844 96.542969 C 91.933594 96.574219 92.03125 96.585938 92.125 96.582031 Z M 92.125 96.582031 " fill-opacity="1" fill-rule="evenodd"/><path fill="#b4b4b4" d="M 92.761719 96.277344 C 92.648438 96.382812 92.519531 96.464844 92.414062 96.523438 C 92.5 96.488281 92.585938 96.441406 92.671875 96.363281 C 92.699219 96.339844 92.730469 96.3125 92.761719 96.277344 Z M 92.761719 96.277344 " fill-opacity="1" fill-rule="evenodd"/><g clip-path="url(#e021bdf6d9)"><path fill="#e3e6e7" d="M 128.324219 7.023438 C 152.875 26.589844 187.027344 37.953125 205.800781 43.105469 C 202.535156 164.101562 141.683594 188.273438 128.523438 192.09375 C 115.433594 188.195312 55.015625 163.714844 50.941406 43.078125 C 69.726562 37.90625 103.808594 26.546875 128.324219 7.023438 Z M 128.324219 7.023438 " fill-opacity="1" fill-rule="evenodd"/></g><path fill="#e3e6e7" d="M 93.167969 94.039062 L 93.003906 93.71875 L 92.660156 93.808594 L 92.90625 94.007812 C 92.992188 94.035156 93.082031 94.042969 93.167969 94.039062 Z M 93.167969 94.039062 " fill-opacity="1" fill-rule="evenodd"/><path fill="#e3e6e7" d="M 93.738281 93.765625 C 93.636719 93.859375 93.523438 93.933594 93.425781 93.988281 C 93.503906 93.957031 93.582031 93.910156 93.660156 93.84375 C 93.683594 93.824219 93.710938 93.796875 93.738281 93.765625 Z M 93.738281 93.765625 " fill-opacity="1" fill-rule="evenodd"/><g clip-path="url(#d0c58f8170)"><path fill="#cacaca" d="M 131.148438 10.171875 C 155.703125 29.738281 189.855469 41.101562 208.625 46.253906 C 205.363281 167.25 144.511719 191.421875 131.347656 195.242188 C 118.261719 191.34375 57.839844 166.863281 53.769531 46.226562 C 72.554688 41.058594 106.636719 29.695312 131.148438 10.171875 Z M 131.148438 10.171875 " fill-opacity="1" fill-rule="evenodd"/></g><path fill="#cacaca" d="M 95.996094 97.191406 L 95.828125 96.867188 L 95.488281 96.957031 L 95.734375 97.15625 C 95.820312 97.183594 95.90625 97.195312 95.996094 97.191406 Z M 95.996094 97.191406 " fill-opacity="1" fill-rule="evenodd"/><path fill="#cacaca" d="M 96.566406 96.914062 C 96.464844 97.007812 96.351562 97.082031 96.25 97.136719 C 96.332031 97.105469 96.410156 97.0625 96.484375 96.992188 C 96.507812 96.972656 96.539062 96.949219 96.566406 96.914062 Z M 96.566406 96.914062 " fill-opacity="1" fill-rule="evenodd"/><g clip-path="url(#e1f08f3fe0)"><path fill="#959595" d="M 184.558594 99.550781 C 184.542969 97.804688 184.269531 97.8125 186.113281 97.433594 C 188.136719 96.917969 190.105469 95.894531 191.859375 94.777344 C 191.785156 93.878906 191.691406 92.988281 191.578125 92.09375 C 189.632812 91.363281 187.488281 90.773438 185.40625 90.691406 C 183.519531 90.703125 183.789062 90.648438 183.441406 88.945312 C 183.066406 87.242188 182.800781 87.304688 184.523438 86.550781 C 186.394531 85.625 188.109375 84.214844 189.59375 82.757812 C 189.335938 81.894531 189.054688 81.042969 188.757812 80.191406 C 186.703125 79.882812 184.488281 79.75 182.429688 80.101562 C 180.589844 80.507812 180.839844 80.398438 180.148438 78.800781 C 179.421875 77.214844 179.179688 77.332031 180.707031 76.234375 C 182.347656 74.941406 183.730469 73.207031 184.875 71.472656 C 184.445312 70.683594 183.996094 69.90625 183.527344 69.136719 C 181.453125 69.261719 179.257812 69.59375 177.316406 70.363281 C 175.601562 71.140625 175.824219 70.984375 174.816406 69.566406 C 173.777344 68.167969 173.5625 68.332031 174.832031 66.941406 C 176.164062 65.335938 177.15625 63.347656 177.917969 61.414062 C 177.332031 60.730469 176.730469 60.0625 176.113281 59.410156 C 174.109375 59.964844 172.03125 60.742188 170.292969 61.902344 C 168.777344 63.019531 168.960938 62.816406 167.679688 61.640625 C 166.375 60.488281 166.195312 60.695312 167.148438 59.070312 C 168.117188 57.222656 168.675781 55.074219 169.019531 53.023438 C 168.304688 52.476562 167.578125 51.949219 166.835938 51.4375 C 164.992188 52.394531 163.121094 53.589844 161.664062 55.085938 C 160.410156 56.492188 160.550781 56.257812 159.050781 55.375 C 157.535156 54.515625 157.40625 54.753906 157.996094 52.96875 C 158.5625 50.957031 158.664062 48.742188 158.570312 46.664062 C 157.757812 46.277344 156.9375 45.914062 156.105469 45.566406 C 154.5 46.886719 152.917969 48.445312 151.804688 50.210938 C 150.871094 51.847656 150.960938 51.589844 149.308594 51.035156 C 147.648438 50.511719 147.570312 50.773438 147.777344 48.902344 C 147.914062 46.820312 147.550781 44.628906 147.027344 42.617188 C 146.152344 42.410156 145.273438 42.222656 144.390625 42.054688 C 143.09375 43.683594 141.871094 45.535156 141.148438 47.492188 C 140.578125 49.289062 140.609375 49.015625 138.878906 48.820312 C 137.144531 48.652344 137.121094 48.921875 136.9375 47.050781 C 136.636719 44.984375 135.824219 42.917969 134.894531 41.058594 C 133.996094 41.039062 133.097656 41.039062 132.199219 41.058594 C 131.269531 42.917969 130.457031 44.984375 130.15625 47.050781 C 129.972656 48.925781 129.949219 48.652344 128.214844 48.820312 C 126.484375 49.015625 126.519531 49.285156 125.949219 47.492188 C 125.222656 45.535156 124 43.683594 122.703125 42.054688 C 121.820312 42.222656 120.941406 42.410156 120.066406 42.617188 C 119.546875 44.628906 119.179688 46.820312 119.316406 48.902344 C 119.527344 50.773438 119.445312 50.511719 117.785156 51.035156 C 116.132812 51.589844 116.222656 51.847656 115.289062 50.210938 C 114.175781 48.445312 112.59375 46.886719 110.988281 45.566406 C 110.160156 45.914062 109.339844 46.277344 108.527344 46.664062 C 108.433594 48.742188 108.53125 50.957031 109.097656 52.96875 C 109.691406 54.757812 109.558594 54.515625 108.042969 55.375 C 106.539062 56.257812 106.683594 56.492188 105.429688 55.085938 C 103.972656 53.589844 102.101562 52.394531 100.257812 51.4375 C 99.519531 51.949219 98.792969 52.476562 98.078125 53.023438 C 98.417969 55.070312 98.976562 57.222656 99.945312 59.070312 C 100.898438 60.695312 100.71875 60.488281 99.414062 61.640625 C 98.128906 62.820312 98.316406 63.015625 96.800781 61.902344 C 95.066406 60.742188 92.988281 59.964844 90.980469 59.410156 C 90.367188 60.0625 89.765625 60.730469 89.179688 61.414062 C 89.9375 63.347656 90.929688 65.335938 92.265625 66.941406 C 93.535156 68.332031 93.316406 68.167969 92.277344 69.566406 C 91.269531 70.988281 91.492188 71.140625 89.777344 70.363281 C 87.835938 69.59375 85.640625 69.261719 83.566406 69.136719 C 83.097656 69.90625 82.648438 70.683594 82.21875 71.472656 C 83.363281 73.207031 84.75 74.941406 86.386719 76.234375 C 87.917969 77.332031 87.667969 77.21875 86.945312 78.800781 C 86.253906 80.402344 86.503906 80.503906 84.664062 80.101562 C 82.605469 79.75 80.390625 79.882812 78.335938 80.191406 C 78.039062 81.042969 77.761719 81.894531 77.503906 82.757812 C 78.984375 84.214844 80.699219 85.625 82.570312 86.550781 C 84.296875 87.304688 84.027344 87.246094 83.652344 88.945312 C 83.304688 90.652344 83.570312 90.703125 81.691406 90.691406 C 79.605469 90.773438 77.464844 91.363281 75.515625 92.09375 C 75.402344 92.988281 75.308594 93.878906 75.234375 94.777344 C 76.988281 95.894531 78.957031 96.917969 80.980469 97.433594 C 82.828125 97.8125 82.550781 97.808594 82.535156 99.550781 C 82.554688 101.292969 82.824219 101.285156 80.980469 101.664062 C 78.957031 102.179688 76.988281 103.203125 75.234375 104.324219 C 75.308594 105.21875 75.402344 106.113281 75.515625 107.003906 C 77.464844 107.734375 79.605469 108.324219 81.691406 108.410156 C 83.574219 108.394531 83.304688 108.449219 83.652344 110.15625 C 84.03125 111.855469 84.292969 111.792969 82.570312 112.546875 C 81.015625 113.3125 79.539062 114.449219 78.261719 115.613281 L 77.503906 116.34375 C 77.761719 117.203125 78.039062 118.058594 78.335938 118.90625 C 80.390625 119.214844 82.609375 119.347656 84.664062 118.996094 C 86.503906 118.59375 86.253906 118.703125 86.945312 120.296875 C 87.671875 121.882812 87.914062 121.765625 86.386719 122.863281 C 84.75 124.15625 83.363281 125.890625 82.21875 127.628906 C 82.648438 128.417969 83.097656 129.195312 83.566406 129.960938 C 85.640625 129.839844 87.835938 129.507812 89.777344 128.734375 C 91.492188 127.957031 91.269531 128.117188 92.277344 129.53125 C 93.316406 130.933594 93.53125 130.769531 92.265625 132.160156 C 90.929688 133.765625 89.9375 135.75 89.179688 137.6875 C 89.765625 138.367188 90.367188 139.035156 90.980469 139.691406 C 92.984375 139.136719 95.066406 138.355469 96.800781 137.199219 C 98.316406 136.082031 98.132812 136.28125 99.414062 137.457031 C 100.722656 138.613281 100.898438 138.40625 99.945312 140.03125 C 98.976562 141.878906 98.417969 144.027344 98.078125 146.078125 C 98.792969 146.621094 99.519531 147.152344 100.257812 147.664062 C 102.101562 146.703125 103.972656 145.507812 105.429688 144.015625 C 106.683594 142.605469 106.542969 142.84375 108.042969 143.726562 C 109.558594 144.582031 109.691406 144.34375 109.097656 146.132812 C 108.53125 148.140625 108.433594 150.359375 108.527344 152.4375 C 109.339844 152.820312 110.160156 153.1875 110.988281 153.53125 C 112.59375 152.210938 114.175781 150.652344 115.289062 148.890625 C 116.222656 147.25 116.132812 147.511719 117.785156 148.0625 C 119.445312 148.585938 119.523438 148.328125 119.316406 150.195312 C 119.179688 152.28125 119.542969 154.46875 120.066406 156.484375 C 120.941406 156.691406 121.820312 156.875 122.703125 157.042969 C 124 155.417969 125.222656 153.5625 125.949219 151.605469 C 126.519531 149.8125 126.488281 150.082031 128.214844 150.28125 C 129.949219 150.445312 129.972656 150.175781 130.15625 152.050781 C 130.457031 154.113281 131.269531 156.179688 132.199219 158.039062 C 133.097656 158.0625 133.996094 158.0625 134.894531 158.039062 C 135.824219 156.179688 136.636719 154.113281 136.9375 152.050781 C 137.121094 150.171875 137.148438 150.445312 138.878906 150.28125 C 140.609375 150.082031 140.574219 149.8125 141.148438 151.605469 C 141.871094 153.566406 143.09375 155.417969 144.390625 157.042969 C 145.273438 156.875 146.152344 156.691406 147.027344 156.484375 C 147.550781 154.46875 147.914062 152.28125 147.777344 150.195312 C 147.570312 148.324219 147.652344 148.585938 149.308594 148.0625 C 150.964844 147.507812 150.871094 147.253906 151.804688 148.890625 C 152.917969 150.652344 154.5 152.210938 156.105469 153.53125 C 156.9375 153.1875 157.757812 152.820312 158.570312 152.4375 C 158.664062 150.359375 158.5625 148.140625 157.996094 146.132812 C 157.402344 144.34375 157.539062 144.582031 159.050781 143.726562 C 160.554688 142.839844 160.414062 142.609375 161.664062 144.015625 C 163.121094 145.507812 164.992188 146.703125 166.835938 147.664062 C 167.578125 147.152344 168.304688 146.621094 169.019531 146.078125 C 168.675781 144.027344 168.117188 141.878906 167.148438 140.03125 C 166.195312 138.40625 166.375 138.609375 167.679688 137.457031 C 168.964844 136.277344 168.777344 136.082031 170.292969 137.199219 C 172.03125 138.355469 174.109375 139.136719 176.113281 139.691406 C 176.730469 139.035156 177.332031 138.367188 177.917969 137.6875 C 177.15625 135.75 176.164062 133.765625 174.832031 132.160156 C 173.558594 130.765625 173.78125 130.929688 174.816406 129.53125 C 175.828125 128.113281 175.601562 127.960938 177.316406 128.734375 C 179.257812 129.507812 181.453125 129.839844 183.527344 129.960938 C 183.996094 129.195312 184.445312 128.417969 184.875 127.628906 C 183.730469 125.894531 182.347656 124.15625 180.707031 122.863281 C 179.175781 121.765625 179.425781 121.878906 180.148438 120.296875 C 180.839844 118.699219 180.589844 118.59375 182.429688 118.996094 C 184.488281 119.347656 186.703125 119.214844 188.757812 118.90625 C 189.054688 118.058594 189.335938 117.203125 189.59375 116.34375 C 188.109375 114.882812 186.394531 113.472656 184.523438 112.546875 C 182.796875 111.792969 183.066406 111.855469 183.441406 110.15625 C 183.789062 108.445312 183.523438 108.398438 185.40625 108.410156 C 187.492188 108.324219 189.628906 107.734375 191.578125 107.003906 C 191.691406 106.113281 191.785156 105.21875 191.859375 104.324219 C 190.105469 103.203125 188.136719 102.179688 186.113281 101.664062 C 184.269531 101.285156 184.542969 101.289062 184.558594 99.550781 Z M 128.457031 131.730469 C 128.457031 135.835938 124.417969 138.765625 120.535156 137.433594 C 108.886719 133.433594 99.664062 124.207031 95.664062 112.558594 C 94.332031 108.675781 97.257812 104.640625 101.363281 104.640625 L 116.097656 104.640625 C 118.175781 104.640625 120.078125 105.730469 121.203125 107.476562 C 122.339844 109.246094 123.851562 110.753906 125.621094 111.894531 C 127.367188 113.015625 128.457031 114.921875 128.457031 116.996094 Z M 128.457031 82.101562 C 128.457031 84.179688 127.367188 86.082031 125.621094 87.207031 C 123.851562 88.34375 122.339844 89.851562 121.203125 91.621094 C 120.078125 93.371094 118.175781 94.457031 116.097656 94.457031 L 101.363281 94.457031 C 97.257812 94.457031 94.332031 90.421875 95.664062 86.539062 C 99.664062 74.890625 108.886719 65.667969 120.535156 61.667969 C 124.417969 60.335938 128.457031 63.261719 128.457031 67.367188 Z M 133.546875 104.640625 C 126.890625 104.609375 126.890625 94.488281 133.546875 94.457031 C 140.207031 94.488281 140.207031 104.613281 133.546875 104.640625 Z M 171.429688 112.558594 C 167.429688 124.207031 158.207031 133.433594 146.558594 137.433594 C 142.675781 138.765625 138.640625 135.835938 138.640625 131.730469 L 138.640625 116.996094 C 138.640625 114.921875 139.730469 113.015625 141.476562 111.894531 C 143.246094 110.753906 144.753906 109.246094 145.890625 107.476562 C 147.015625 105.730469 148.917969 104.640625 150.996094 104.640625 L 165.730469 104.640625 C 169.835938 104.640625 172.761719 108.675781 171.429688 112.558594 Z M 165.730469 94.457031 L 150.996094 94.457031 C 148.917969 94.457031 147.015625 93.371094 145.890625 91.621094 C 144.753906 89.851562 143.246094 88.34375 141.476562 87.207031 C 139.730469 86.082031 138.640625 84.179688 138.640625 82.101562 L 138.640625 67.367188 C 138.640625 63.261719 142.675781 60.335938 146.558594 61.667969 C 158.207031 65.667969 167.429688 74.890625 171.429688 86.539062 C 172.761719 90.421875 169.835938 94.457031 165.730469 94.457031 Z M 165.730469 94.457031 " fill-opacity="1" fill-rule="nonzero"/></g><g clip-path="url(#42038b43a2)"><path fill="#e3e6e7" d="M 179.875 99.550781 C 179.859375 97.804688 179.585938 97.8125 181.429688 97.433594 C 183.453125 96.917969 185.421875 95.894531 187.175781 94.777344 C 187.101562 93.878906 187.007812 92.988281 186.894531 92.09375 C 184.949219 91.363281 182.808594 90.773438 180.722656 90.691406 C 178.835938 90.703125 179.105469 90.648438 178.761719 88.945312 C 178.382812 87.242188 178.117188 87.304688 179.84375 86.550781 C 181.714844 85.625 183.429688 84.214844 184.910156 82.757812 C 184.652344 81.894531 184.375 81.042969 184.078125 80.191406 C 182.019531 79.882812 179.804688 79.75 177.746094 80.101562 C 175.90625 80.507812 176.160156 80.398438 175.464844 78.800781 C 174.742188 77.214844 174.496094 77.332031 176.027344 76.234375 C 177.664062 74.941406 179.046875 73.207031 180.191406 71.472656 C 179.761719 70.683594 179.3125 69.90625 178.84375 69.136719 C 176.769531 69.261719 174.574219 69.59375 172.636719 70.363281 C 170.917969 71.140625 171.144531 70.984375 170.132812 69.566406 C 169.09375 68.167969 168.878906 68.332031 170.148438 66.941406 C 171.480469 65.335938 172.472656 63.347656 173.234375 61.414062 C 172.648438 60.730469 172.046875 60.0625 171.429688 59.410156 C 169.425781 59.964844 167.347656 60.742188 165.609375 61.902344 C 164.09375 63.019531 164.28125 62.816406 162.996094 61.640625 C 161.691406 60.488281 161.515625 60.695312 162.464844 59.070312 C 163.4375 57.222656 163.996094 55.074219 164.335938 53.023438 C 163.621094 52.476562 162.894531 51.949219 162.15625 51.4375 C 160.308594 52.394531 158.4375 53.589844 156.980469 55.085938 C 155.730469 56.492188 155.867188 56.257812 154.371094 55.375 C 152.851562 54.515625 152.722656 54.753906 153.316406 52.96875 C 153.878906 50.957031 153.980469 48.742188 153.886719 46.664062 C 153.074219 46.277344 152.253906 45.914062 151.425781 45.566406 C 149.816406 46.886719 148.234375 48.445312 147.121094 50.210938 C 146.191406 51.847656 146.277344 51.589844 144.628906 51.035156 C 142.964844 50.511719 142.886719 50.773438 143.097656 48.902344 C 143.230469 46.820312 142.867188 44.628906 142.34375 42.617188 C 141.46875 42.410156 140.589844 42.222656 139.707031 42.054688 C 138.410156 43.683594 137.1875 45.535156 136.464844 47.492188 C 135.894531 49.289062 135.925781 49.015625 134.195312 48.820312 C 132.460938 48.652344 132.441406 48.921875 132.253906 47.050781 C 131.953125 44.984375 131.144531 42.917969 130.210938 41.058594 C 129.3125 41.039062 128.414062 41.039062 127.515625 41.058594 C 126.585938 42.917969 125.777344 44.984375 125.472656 47.050781 C 125.289062 48.925781 125.265625 48.652344 123.53125 48.820312 C 121.800781 49.015625 121.835938 49.285156 121.265625 47.492188 C 120.542969 45.535156 119.320312 43.683594 118.023438 42.054688 C 117.140625 42.222656 116.261719 42.410156 115.386719 42.617188 C 114.863281 44.628906 114.5 46.820312 114.632812 48.902344 C 114.84375 50.773438 114.761719 50.511719 113.101562 51.035156 C 111.449219 51.589844 111.539062 51.847656 110.609375 50.210938 C 109.492188 48.445312 107.910156 46.886719 106.304688 45.566406 C 105.476562 45.914062 104.65625 46.277344 103.84375 46.664062 C 103.75 48.742188 103.847656 50.957031 104.414062 52.96875 C 105.007812 54.757812 104.875 54.515625 103.359375 55.375 C 101.859375 56.257812 102 56.492188 100.75 55.085938 C 99.292969 53.589844 97.421875 52.394531 95.574219 51.4375 C 94.835938 51.949219 94.109375 52.476562 93.394531 53.023438 C 93.734375 55.070312 94.292969 57.222656 95.261719 59.070312 C 96.214844 60.695312 96.035156 60.488281 94.730469 61.640625 C 93.449219 62.820312 93.632812 63.015625 92.117188 61.902344 C 90.382812 60.742188 88.304688 59.964844 86.300781 59.410156 C 85.683594 60.0625 85.082031 60.730469 84.496094 61.414062 C 85.253906 63.347656 86.25 65.335938 87.582031 66.941406 C 88.851562 68.332031 88.632812 68.167969 87.597656 69.566406 C 86.585938 70.988281 86.808594 71.140625 85.09375 70.363281 C 83.15625 69.59375 80.960938 69.261719 78.882812 69.136719 C 78.417969 69.90625 77.96875 70.683594 77.535156 71.472656 C 78.679688 73.207031 80.066406 74.941406 81.703125 76.234375 C 83.234375 77.332031 82.988281 77.21875 82.265625 78.800781 C 81.570312 80.402344 81.820312 80.503906 79.980469 80.101562 C 77.925781 79.75 75.710938 79.882812 73.652344 80.191406 C 73.355469 81.042969 73.078125 81.894531 72.820312 82.757812 C 74.300781 84.214844 76.015625 85.625 77.886719 86.550781 C 79.613281 87.304688 79.347656 87.246094 78.96875 88.945312 C 78.621094 90.652344 78.890625 90.703125 77.007812 90.691406 C 74.921875 90.773438 72.78125 91.363281 70.835938 92.09375 C 70.71875 92.988281 70.625 93.878906 70.554688 94.777344 C 72.304688 95.894531 74.277344 96.917969 76.296875 97.433594 C 78.144531 97.8125 77.871094 97.808594 77.855469 99.550781 C 77.871094 101.292969 78.140625 101.285156 76.296875 101.664062 C 74.277344 102.179688 72.304688 103.203125 70.554688 104.324219 C 70.625 105.21875 70.71875 106.113281 70.835938 107.003906 C 72.78125 107.734375 74.921875 108.324219 77.007812 108.410156 C 78.890625 108.394531 78.621094 108.449219 78.96875 110.15625 C 79.347656 111.855469 79.613281 111.792969 77.886719 112.546875 C 76.332031 113.3125 74.859375 114.449219 73.582031 115.613281 L 72.820312 116.34375 C 73.078125 117.203125 73.355469 118.058594 73.652344 118.90625 C 75.707031 119.214844 77.925781 119.347656 79.980469 118.996094 C 81.824219 118.59375 81.570312 118.703125 82.265625 120.296875 C 82.988281 121.882812 83.234375 121.765625 81.703125 122.863281 C 80.066406 124.15625 78.683594 125.890625 77.535156 127.628906 C 77.96875 128.417969 78.417969 129.195312 78.882812 129.960938 C 80.957031 129.839844 83.15625 129.507812 85.09375 128.734375 C 86.808594 127.957031 86.585938 128.117188 87.597656 129.53125 C 88.632812 130.933594 88.851562 130.769531 87.582031 132.160156 C 86.246094 133.765625 85.253906 135.75 84.496094 137.6875 C 85.082031 138.367188 85.683594 139.035156 86.300781 139.691406 C 88.304688 139.136719 90.382812 138.355469 92.117188 137.199219 C 93.636719 136.082031 93.449219 136.28125 94.730469 137.457031 C 96.039062 138.613281 96.214844 138.40625 95.261719 140.03125 C 94.292969 141.878906 93.734375 144.027344 93.394531 146.078125 C 94.109375 146.621094 94.835938 147.152344 95.574219 147.664062 C 97.417969 146.703125 99.292969 145.507812 100.75 144.015625 C 102 142.605469 101.859375 142.84375 103.359375 143.726562 C 104.878906 144.582031 105.007812 144.34375 104.414062 146.132812 C 103.847656 148.140625 103.75 150.359375 103.84375 152.4375 C 104.65625 152.820312 105.476562 153.1875 106.304688 153.53125 C 107.910156 152.210938 109.492188 150.652344 110.609375 148.890625 C 111.539062 147.25 111.453125 147.511719 113.101562 148.0625 C 114.765625 148.585938 114.839844 148.328125 114.632812 150.195312 C 114.5 152.28125 114.863281 154.46875 115.386719 156.484375 C 116.261719 156.691406 117.140625 156.875 118.023438 157.042969 C 119.316406 155.417969 120.542969 153.5625 121.265625 151.605469 C 121.835938 149.8125 121.804688 150.082031 123.53125 150.28125 C 125.269531 150.445312 125.289062 150.175781 125.476562 152.050781 C 125.777344 154.113281 126.585938 156.179688 127.515625 158.039062 C 128.414062 158.0625 129.3125 158.0625 130.210938 158.039062 C 131.140625 156.179688 131.953125 154.113281 132.253906 152.050781 C 132.4375 150.171875 132.464844 150.445312 134.195312 150.28125 C 135.929688 150.082031 135.894531 149.8125 136.464844 151.605469 C 137.1875 153.566406 138.410156 155.417969 139.707031 157.042969 C 140.589844 156.875 141.46875 156.691406 142.34375 156.484375 C 142.867188 154.46875 143.230469 152.28125 143.097656 150.195312 C 142.886719 148.324219 142.96875 148.585938 144.628906 148.0625 C 146.28125 147.507812 146.191406 147.253906 147.121094 148.890625 C 148.238281 150.652344 149.816406 152.210938 151.425781 153.53125 C 152.253906 153.1875 153.074219 152.820312 153.886719 152.4375 C 153.980469 150.359375 153.878906 148.140625 153.316406 146.132812 C 152.722656 144.34375 152.855469 144.582031 154.371094 143.726562 C 155.871094 142.839844 155.730469 142.609375 156.980469 144.015625 C 158.4375 145.507812 160.308594 146.703125 162.15625 147.664062 C 162.894531 147.152344 163.621094 146.621094 164.335938 146.078125 C 163.996094 144.027344 163.4375 141.878906 162.464844 140.03125 C 161.511719 138.40625 161.695312 138.609375 162.996094 137.457031 C 164.28125 136.277344 164.09375 136.082031 165.609375 137.199219 C 167.347656 138.355469 169.425781 139.136719 171.429688 139.691406 C 172.046875 139.035156 172.648438 138.367188 173.234375 137.6875 C 172.472656 135.75 171.480469 133.765625 170.148438 132.160156 C 168.878906 130.765625 169.097656 130.929688 170.132812 129.53125 C 171.144531 128.113281 170.921875 127.960938 172.636719 128.734375 C 174.574219 129.507812 176.769531 129.839844 178.84375 129.960938 C 179.3125 129.195312 179.761719 128.417969 180.191406 127.628906 C 179.046875 125.894531 177.664062 124.15625 176.027344 122.863281 C 174.492188 121.765625 174.742188 121.878906 175.464844 120.296875 C 176.160156 118.699219 175.910156 118.59375 177.746094 118.996094 C 179.804688 119.347656 182.019531 119.214844 184.078125 118.90625 C 184.375 118.058594 184.652344 117.203125 184.910156 116.34375 C 183.429688 114.882812 181.714844 113.472656 179.84375 112.546875 C 178.117188 111.792969 178.382812 111.855469 178.761719 110.15625 C 179.105469 108.445312 178.839844 108.398438 180.722656 108.410156 C 182.808594 108.324219 184.949219 107.734375 186.894531 107.003906 C 187.007812 106.113281 187.101562 105.21875 187.175781 104.324219 C 185.425781 103.203125 183.453125 102.179688 181.429688 101.664062 C 179.585938 101.285156 179.859375 101.289062 179.875 99.550781 Z M 123.773438 131.730469 C 123.773438 135.835938 119.738281 138.765625 115.855469 137.433594 C 104.203125 133.433594 94.980469 124.207031 90.980469 112.558594 C 89.648438 108.675781 92.574219 104.640625 96.679688 104.640625 L 111.417969 104.640625 C 113.492188 104.640625 115.394531 105.730469 116.519531 107.476562 C 117.660156 109.246094 119.167969 110.753906 120.9375 111.894531 C 122.683594 113.015625 123.773438 114.921875 123.773438 116.996094 Z M 123.773438 82.101562 C 123.773438 84.179688 122.683594 86.082031 120.9375 87.207031 C 119.167969 88.34375 117.660156 89.851562 116.519531 91.621094 C 115.394531 93.371094 113.492188 94.457031 111.417969 94.457031 L 96.679688 94.457031 C 92.574219 94.457031 89.648438 90.421875 90.980469 86.539062 C 94.980469 74.890625 104.203125 65.667969 115.855469 61.667969 C 119.738281 60.335938 123.773438 63.261719 123.773438 67.367188 Z M 128.863281 104.640625 C 122.207031 104.609375 122.207031 94.488281 128.863281 94.457031 C 135.523438 94.488281 135.523438 104.613281 128.863281 104.640625 Z M 166.746094 112.558594 C 162.746094 124.207031 153.527344 133.433594 141.875 137.433594 C 137.992188 138.765625 133.957031 135.835938 133.957031 131.730469 L 133.957031 116.996094 C 133.957031 114.921875 135.046875 113.015625 136.792969 111.894531 C 138.5625 110.753906 140.070312 109.246094 141.210938 107.476562 C 142.332031 105.730469 144.234375 104.640625 146.3125 104.640625 L 161.046875 104.640625 C 165.152344 104.640625 168.082031 108.675781 166.746094 112.558594 Z M 161.046875 94.457031 L 146.3125 94.457031 C 144.234375 94.457031 142.332031 93.371094 141.210938 91.621094 C 140.070312 89.851562 138.5625 88.34375 136.792969 87.207031 C 135.046875 86.082031 133.957031 84.179688 133.957031 82.101562 L 133.957031 67.367188 C 133.957031 63.261719 137.992188 60.335938 141.875 61.667969 C 153.527344 65.667969 162.746094 74.890625 166.746094 86.539062 C 168.082031 90.421875 165.152344 94.457031 161.046875 94.457031 Z M 161.046875 94.457031 " fill-opacity="1" fill-rule="nonzero"/></g></svg>