<svg xmlns="http://www.w3.org/2000/svg" xmlns:xlink="http://www.w3.org/1999/xlink" width="351" zoomAndPan="magnify" viewBox="0 0 263.25 207.000001" height="276" preserveAspectRatio="xMidYMid meet" version="1.0"><defs><clipPath id="c210267e6d"><path d="M 230 100 L 262.242188 100 L 262.242188 127 L 230 127 Z M 230 100 " clip-rule="nonzero"/></clipPath><clipPath id="79a782eb6b"><path d="M 197 5.5 L 222 5.5 L 222 35 L 197 35 Z M 197 5.5 " clip-rule="nonzero"/></clipPath><clipPath id="5677def6d9"><path d="M 196 5.5 L 224 5.5 L 224 37 L 196 37 Z M 196 5.5 " clip-rule="nonzero"/></clipPath><clipPath id="0e4685edf8"><path d="M 0.257812 102 L 31 102 L 31 125 L 0.257812 125 Z M 0.257812 102 " clip-rule="nonzero"/></clipPath><clipPath id="edc0f245d6"><path d="M 0.257812 100 L 33 100 L 33 127 L 0.257812 127 Z M 0.257812 100 " clip-rule="nonzero"/></clipPath><clipPath id="f144a195d8"><path d="M 40 5.5 L 65 5.5 L 65 36 L 40 36 Z M 40 5.5 " clip-rule="nonzero"/></clipPath><clipPath id="83e8b4344c"><path d="M 39 5.5 L 67 5.5 L 67 37 L 39 37 Z M 39 5.5 " clip-rule="nonzero"/></clipPath><clipPath id="3fe452e94a"><path d="M 45.234375 0 L 216.90625 0 L 216.90625 205.257812 L 45.234375 205.257812 Z M 45.234375 0 " clip-rule="nonzero"/></clipPath><clipPath id="24e6e228a0"><path d="M 50.917969 7.023438 L 206 7.023438 L 206 192.128906 L 50.917969 192.128906 Z M 50.917969 7.023438 " clip-rule="nonzero"/></clipPath><clipPath id="28d16a6db2"><path d="M 53.746094 10.171875 L 208.996094 10.171875 L 208.996094 195.277344 L 53.746094 195.277344 Z M 53.746094 10.171875 " clip-rule="nonzero"/></clipPath><clipPath id="022841f04d"><path d="M 74.460938 44.917969 L 192.394531 44.917969 L 192.394531 163.597656 L 74.460938 163.597656 Z M 74.460938 44.917969 " clip-rule="nonzero"/></clipPath><clipPath id="3c6760bf6f"><path d="M 101 44.917969 L 166 44.917969 L 166 163.597656 L 101 163.597656 Z M 101 44.917969 " clip-rule="nonzero"/></clipPath><clipPath id="64fd2d407f"><path d="M 74.460938 101 L 192.394531 101 L 192.394531 107 L 74.460938 107 Z M 74.460938 101 " clip-rule="nonzero"/></clipPath><clipPath id="8ceb82de8a"><path d="M 130 44.917969 L 136 44.917969 L 136 163.597656 L 130 163.597656 Z M 130 44.917969 " clip-rule="nonzero"/></clipPath><clipPath id="12dd0505df"><path d="M 70.292969 41.769531 L 188 41.769531 L 188 160.449219 L 70.292969 160.449219 Z M 70.292969 41.769531 " clip-rule="nonzero"/></clipPath><clipPath id="a5319f9101"><path d="M 97 41.769531 L 162 41.769531 L 162 160.449219 L 97 160.449219 Z M 97 41.769531 " clip-rule="nonzero"/></clipPath><clipPath id="dd905b43c3"><path d="M 70.292969 98 L 188 98 L 188 104 L 70.292969 104 Z M 70.292969 98 " clip-rule="nonzero"/></clipPath><clipPath id="8cee17f44a"><path d="M 126 41.769531 L 132 41.769531 L 132 160.449219 L 126 160.449219 Z M 126 41.769531 " clip-rule="nonzero"/></clipPath></defs><path stroke-linecap="butt" transform="matrix(-0.280231, 0, 0, 0.280231, 237.048568, -60.109587)" fill-opacity="1" fill="#c28a1c" fill-rule="evenodd" stroke-linejoin="miter" d="M 347.096555 896.456097 C 296.831158 861.844621 255.09666 892.232465 216.888825 926.593032 C 266.220284 940.002714 318.465073 946.080283 347.096555 896.456097 Z M 347.096555 896.456097 " stroke="#007d00" stroke-width="1" stroke-opacity="1" stroke-miterlimit="4"/><path stroke-linecap="butt" transform="matrix(-0.280231, 0, 0, 0.280231, 237.048568, -60.109587)" fill-opacity="1" fill="#c28a1c" fill-rule="evenodd" stroke-linejoin="miter" d="M 335.011115 866.653707 C 332.780814 805.668928 283.491174 790.335612 233.114261 780.187745 C 251.806967 827.762842 278.110574 873.30279 335.011115 866.653707 Z M 335.011115 866.653707 " stroke="#007d00" stroke-width="1" stroke-opacity="1" stroke-miterlimit="4"/><path stroke-linecap="butt" transform="matrix(-0.280231, 0, 0, 0.280231, 237.048568, -60.109587)" fill-opacity="1" fill="#c28a1c" fill-rule="evenodd" stroke-linejoin="miter" d="M 257.466355 868.967644 C 210.2955 830.230112 166.149489 856.993718 125.167718 888.008834 C 173.188875 905.530632 224.736695 915.999105 257.466355 868.967644 Z M 257.466355 868.967644 " stroke="#007d00" stroke-width="1" stroke-opacity="1" stroke-miterlimit="4"/><path stroke-linecap="butt" transform="matrix(-0.280231, 0, 0, 0.280231, 237.048568, -60.109587)" fill-opacity="1" fill="#c28a1c" fill-rule="evenodd" stroke-linejoin="miter" d="M 213.724587 840.043434 C 243.122735 786.558041 208.692471 748.099297 170.651908 713.529639 C 162.274342 763.962309 161.479798 816.555582 213.724587 840.043434 Z M 213.724587 840.043434 " stroke="#007d00" stroke-width="1" stroke-opacity="1" stroke-miterlimit="4"/><path stroke-linecap="butt" transform="matrix(-0.280231, 0, 0, 0.280231, 237.048568, -60.109587)" fill-opacity="1" fill="#c28a1c" fill-rule="evenodd" stroke-linejoin="miter" d="M 175.55857 838.858587 C 140.863458 788.648947 91.05806 802.25378 43.134478 820.807092 C 84.492613 850.846452 131.17559 875.08703 175.55857 838.858587 Z M 175.55857 838.858587 " stroke="#007d00" stroke-width="1" stroke-opacity="1" stroke-miterlimit="4"/><path stroke-linecap="butt" transform="matrix(-0.280231, 0, 0, 0.280231, 237.048568, -60.109587)" fill-opacity="1" fill="#c28a1c" fill-rule="evenodd" stroke-linejoin="miter" d="M 126.561656 794.085305 C 171.460392 752.74111 151.067082 705.319346 126.031959 660.434548 C 102.028351 705.556315 84.520492 755.152622 126.561656 794.085305 Z M 126.561656 794.085305 " stroke="#007d00" stroke-width="1" stroke-opacity="1" stroke-miterlimit="4"/><path stroke-linecap="butt" transform="matrix(-0.280231, 0, 0, 0.280231, 237.048568, -60.109587)" fill-opacity="1" fill="#c28a1c" fill-rule="evenodd" stroke-linejoin="miter" d="M 102.71138 789.025311 C 78.192014 733.142344 26.713891 737.017491 -23.858172 746.119905 C 11.032091 783.477438 52.236892 816.15134 102.71138 789.025311 Z M 102.71138 789.025311 " stroke="#007d00" stroke-width="1" stroke-opacity="1" stroke-miterlimit="4"/><path stroke-linecap="butt" transform="matrix(-0.280231, 0, 0, 0.280231, 237.048568, -60.109587)" fill-opacity="1" fill="#c28a1c" fill-rule="evenodd" stroke-linejoin="miter" d="M 61.813245 734.996281 C 113.584095 702.712682 102.362896 652.32183 86.081702 603.575826 C 54.118708 643.470325 27.717526 688.954516 61.813245 734.996281 Z M 61.813245 734.996281 " stroke="#007d00" stroke-width="1" stroke-opacity="1" stroke-miterlimit="4"/><path stroke-linecap="butt" transform="matrix(-0.280231, 0, 0, 0.280231, 237.048568, -60.109587)" fill-opacity="1" fill="#c28a1c" fill-rule="evenodd" stroke-linejoin="miter" d="M 43.733872 727.441139 C 30.226614 667.919994 -21.056357 661.995759 -72.436905 661.368487 C -45.241178 704.650256 -10.950308 744.530816 43.733872 727.441139 Z M 43.733872 727.441139 " stroke="#007d00" stroke-width="1" stroke-opacity="1" stroke-miterlimit="4"/><path stroke-linecap="butt" transform="matrix(-0.280231, 0, 0, 0.280231, 237.048568, -60.109587)" fill-opacity="1" fill="#c28a1c" fill-rule="evenodd" stroke-linejoin="miter" d="M 28.358738 639.985481 C 83.488978 613.821268 78.108378 562.482539 67.514451 512.203203 C 31.188431 548.180737 -0.244866 590.333416 28.358738 639.985481 Z M 28.358738 639.985481 " stroke="#007d00" stroke-width="1" stroke-opacity="1" stroke-miterlimit="4"/><path fill="#c28a1c" d="M 231.679688 124.003906 C 233.453125 106.992188 247.527344 103.636719 261.804688 101.75 C 255.679688 114.699219 247.464844 126.9375 231.679688 124.003906 Z M 231.679688 124.003906 " fill-opacity="1" fill-rule="evenodd"/><g clip-path="url(#c210267e6d)"><path stroke-linecap="butt" transform="matrix(-0.280231, 0, 0, 0.280231, 237.048568, -60.109587)" fill="none" stroke-linejoin="miter" d="M 19.158748 657.005461 C 12.830271 596.29947 -37.393308 584.325544 -88.341735 577.592825 C -66.48479 623.801863 -37.170278 667.473934 19.158748 657.005461 Z M 19.158748 657.005461 " stroke="#007d00" stroke-width="1" stroke-opacity="1" stroke-miterlimit="4"/></g><path stroke-linecap="butt" transform="matrix(-0.280231, 0, 0, 0.280231, 237.048568, -60.109587)" fill-opacity="1" fill="#c28a1c" fill-rule="evenodd" stroke-linejoin="miter" d="M 5.177552 540.486201 C 64.768393 527.313488 70.985356 476.072335 71.891415 424.691787 C 28.456313 451.636605 -11.605459 485.704445 5.177552 540.486201 Z M 5.177552 540.486201 " stroke="#007d00" stroke-width="1" stroke-opacity="1" stroke-miterlimit="4"/><path stroke-linecap="butt" transform="matrix(-0.280231, 0, 0, 0.280231, 237.048568, -60.109587)" fill-opacity="1" fill="#c28a1c" fill-rule="evenodd" stroke-linejoin="miter" d="M -6.489707 585.245543 C 10.753303 526.714095 -31.106649 496.521402 -75.67084 470.900826 C -73.050237 521.946828 -62.567825 573.494648 -6.489707 585.245543 Z M -6.489707 585.245543 " stroke="#007d00" stroke-width="1" stroke-opacity="1" stroke-miterlimit="4"/><path stroke-linecap="butt" transform="matrix(-0.280231, 0, 0, 0.280231, 237.048568, -60.109587)" fill-opacity="1" fill="#c28a1c" fill-rule="evenodd" stroke-linejoin="miter" d="M 28.609647 425.500271 C 89.566547 428.552995 109.109555 380.768807 123.578629 331.451288 C 74.567776 345.96218 26.909042 368.223367 28.609647 425.500271 Z M 28.609647 425.500271 " stroke="#007d00" stroke-width="1" stroke-opacity="1" stroke-miterlimit="4"/><path stroke-linecap="butt" transform="matrix(-0.280231, 0, 0, 0.280231, 237.048568, -60.109587)" fill-opacity="1" fill="#c28a1c" fill-rule="evenodd" stroke-linejoin="miter" d="M -10.629703 491.19656 C 26.002983 442.380858 -2.670318 399.447574 -35.441795 359.87368 C -50.844808 408.619685 -59.041162 460.557807 -10.629703 491.19656 Z M -10.629703 491.19656 " stroke="#007d00" stroke-width="1" stroke-opacity="1" stroke-miterlimit="4"/><g clip-path="url(#79a782eb6b)"><path fill="#c28a1c" d="M 221.558594 34.796875 C 204.484375 33.8125 200.476562 19.910156 197.933594 5.738281 C 211.152344 11.253906 223.757812 18.894531 221.558594 34.796875 Z M 221.558594 34.796875 " fill-opacity="1" fill-rule="evenodd"/></g><g clip-path="url(#5677def6d9)"><path stroke-linecap="butt" transform="matrix(-0.280231, 0, 0, 0.280231, 237.048568, -60.109587)" fill="none" stroke-linejoin="miter" d="M 55.275677 338.671886 C 116.204698 335.159163 130.5065 285.548916 139.581035 234.976853 C 92.41018 254.659254 47.427807 281.924678 55.275677 338.671886 Z M 55.275677 338.671886 " stroke="#007d00" stroke-width="1" stroke-opacity="1" stroke-miterlimit="4"/></g><path stroke-linecap="butt" transform="matrix(-0.280231, 0, 0, 0.280231, 237.048568, -60.109587)" fill-opacity="1" fill="#c28a1c" fill-rule="evenodd" stroke-linejoin="miter" d="M 16.384812 391.334856 C 62.161729 350.966417 42.813873 303.112532 18.754506 257.698039 C -6.224859 302.304049 -24.80605 351.510053 16.384812 391.334856 Z M 16.384812 391.334856 " stroke="#007d00" stroke-width="1" stroke-opacity="1" stroke-miterlimit="4"/><path stroke-linecap="butt" transform="matrix(0.280231, 0, 0, 0.280231, 25.350629, -59.862432)" fill-opacity="1" fill="#c28a1c" fill-rule="evenodd" stroke-linejoin="miter" d="M 347.093844 896.452308 C 296.828447 861.840832 255.093949 892.228676 216.886114 926.603182 C 266.217573 939.998925 318.462361 946.076493 347.093844 896.452308 Z M 347.093844 896.452308 " stroke="#007d00" stroke-width="1" stroke-opacity="1" stroke-miterlimit="4"/><path stroke-linecap="butt" transform="matrix(0.280231, 0, 0, 0.280231, 25.350629, -59.862432)" fill-opacity="1" fill="#c28a1c" fill-rule="evenodd" stroke-linejoin="miter" d="M 335.008403 866.663857 C 332.778103 805.679078 283.488462 790.331823 233.11155 780.183956 C 251.804256 827.759053 278.107862 873.31294 335.008403 866.663857 Z M 335.008403 866.663857 " stroke="#007d00" stroke-width="1" stroke-opacity="1" stroke-miterlimit="4"/><path stroke-linecap="butt" transform="matrix(0.280231, 0, 0, 0.280231, 25.350629, -59.862432)" fill-opacity="1" fill="#c28a1c" fill-rule="evenodd" stroke-linejoin="miter" d="M 257.463643 868.963854 C 210.306727 830.240262 166.160717 856.989929 125.165007 888.005045 C 173.186164 905.526843 224.733984 915.995316 257.463643 868.963854 Z M 257.463643 868.963854 " stroke="#007d00" stroke-width="1" stroke-opacity="1" stroke-miterlimit="4"/><path stroke-linecap="butt" transform="matrix(0.280231, 0, 0, 0.280231, 25.350629, -59.862432)" fill-opacity="1" fill="#c28a1c" fill-rule="evenodd" stroke-linejoin="miter" d="M 213.735814 840.053584 C 243.120023 786.568191 208.68976 748.095508 170.649197 713.52585 C 162.271631 763.95852 161.477086 816.551793 213.735814 840.053584 Z M 213.735814 840.053584 " stroke="#007d00" stroke-width="1" stroke-opacity="1" stroke-miterlimit="4"/><path stroke-linecap="butt" transform="matrix(0.280231, 0, 0, 0.280231, 25.350629, -59.862432)" fill-opacity="1" fill="#c28a1c" fill-rule="evenodd" stroke-linejoin="miter" d="M 175.555858 838.854798 C 140.860746 788.659098 91.069288 802.249991 43.145706 820.803303 C 84.489901 850.856602 131.172878 875.083241 175.555858 838.854798 Z M 175.555858 838.854798 " stroke="#007d00" stroke-width="1" stroke-opacity="1" stroke-miterlimit="4"/><path stroke-linecap="butt" transform="matrix(0.280231, 0, 0, 0.280231, 25.350629, -59.862432)" fill-opacity="1" fill="#c28a1c" fill-rule="evenodd" stroke-linejoin="miter" d="M 126.558944 794.081516 C 171.457681 752.73732 151.07831 705.315556 126.029248 660.430759 C 102.025639 705.566465 84.51778 755.148833 126.558944 794.081516 Z M 126.558944 794.081516 " stroke="#007d00" stroke-width="1" stroke-opacity="1" stroke-miterlimit="4"/><path stroke-linecap="butt" transform="matrix(0.280231, 0, 0, 0.280231, 25.350629, -59.862432)" fill-opacity="1" fill="#c28a1c" fill-rule="evenodd" stroke-linejoin="miter" d="M 102.708669 789.035461 C 78.203242 733.138555 26.725119 737.013702 -23.860884 746.116116 C 11.029379 783.487588 52.24812 816.147551 102.708669 789.035461 Z M 102.708669 789.035461 " stroke="#007d00" stroke-width="1" stroke-opacity="1" stroke-miterlimit="4"/><path stroke-linecap="butt" transform="matrix(0.280231, 0, 0, 0.280231, 25.350629, -59.862432)" fill-opacity="1" fill="#c28a1c" fill-rule="evenodd" stroke-linejoin="miter" d="M 61.810533 735.006432 C 113.595323 702.708893 102.360184 652.318041 86.078991 603.572036 C 54.115997 643.466536 27.714815 688.950727 61.810533 735.006432 Z M 61.810533 735.006432 " stroke="#007d00" stroke-width="1" stroke-opacity="1" stroke-miterlimit="4"/><path stroke-linecap="butt" transform="matrix(0.280231, 0, 0, 0.280231, 25.350629, -59.862432)" fill-opacity="1" fill="#c28a1c" fill-rule="evenodd" stroke-linejoin="miter" d="M 43.73116 727.437349 C 30.223903 667.930145 -21.045129 661.99197 -72.439616 661.364698 C -45.24389 704.646466 -10.95302 744.527027 43.73116 727.437349 Z M 43.73116 727.437349 " stroke="#007d00" stroke-width="1" stroke-opacity="1" stroke-miterlimit="4"/><path stroke-linecap="butt" transform="matrix(0.280231, 0, 0, 0.280231, 25.350629, -59.862432)" fill-opacity="1" fill="#c28a1c" fill-rule="evenodd" stroke-linejoin="miter" d="M 28.356026 639.981692 C 83.486266 613.831419 78.105666 562.492689 67.511739 512.199413 C 31.199659 548.176948 -0.247577 590.343567 28.356026 639.981692 Z M 28.356026 639.981692 " stroke="#007d00" stroke-width="1" stroke-opacity="1" stroke-miterlimit="4"/><g clip-path="url(#0e4685edf8)"><path fill="#c28a1c" d="M 30.722656 124.25 C 28.945312 107.242188 14.875 103.882812 0.59375 102 C 6.71875 114.949219 14.933594 127.183594 30.722656 124.25 Z M 30.722656 124.25 " fill-opacity="1" fill-rule="evenodd"/></g><g clip-path="url(#edc0f245d6)"><path stroke-linecap="butt" transform="matrix(0.280231, 0, 0, 0.280231, 25.350629, -59.862432)" fill="none" stroke-linejoin="miter" d="M 19.169976 657.001672 C 12.827559 596.30962 -37.38208 584.321755 -88.344446 577.602975 C -66.487502 623.812013 -37.17299 667.470145 19.169976 657.001672 Z M 19.169976 657.001672 " stroke="#007d00" stroke-width="1" stroke-opacity="1" stroke-miterlimit="4"/></g><path stroke-linecap="butt" transform="matrix(0.280231, 0, 0, 0.280231, 25.350629, -59.862432)" fill-opacity="1" fill="#c28a1c" fill-rule="evenodd" stroke-linejoin="miter" d="M 5.174841 540.496351 C 64.765682 527.323639 70.982644 476.068546 71.902643 424.687998 C 28.453602 451.646755 -11.608171 485.714595 5.174841 540.496351 Z M 5.174841 540.496351 " stroke="#007d00" stroke-width="1" stroke-opacity="1" stroke-miterlimit="4"/><path stroke-linecap="butt" transform="matrix(0.280231, 0, 0, 0.280231, 25.350629, -59.862432)" fill-opacity="1" fill="#c28a1c" fill-rule="evenodd" stroke-linejoin="miter" d="M -6.492419 585.255694 C 10.764531 526.710306 -31.10936 496.517613 -75.673552 470.897036 C -73.052949 521.956978 -62.556597 573.490859 -6.492419 585.255694 Z M -6.492419 585.255694 " stroke="#007d00" stroke-width="1" stroke-opacity="1" stroke-miterlimit="4"/><path stroke-linecap="butt" transform="matrix(0.280231, 0, 0, 0.280231, 25.350629, -59.862432)" fill-opacity="1" fill="#c28a1c" fill-rule="evenodd" stroke-linejoin="miter" d="M 28.620874 425.496482 C 89.563835 428.549206 109.106843 380.778958 123.575917 331.461438 C 74.565064 345.958391 26.92027 368.233517 28.620874 425.496482 Z M 28.620874 425.496482 " stroke="#007d00" stroke-width="1" stroke-opacity="1" stroke-miterlimit="4"/><path stroke-linecap="butt" transform="matrix(0.280231, 0, 0, 0.280231, 25.350629, -59.862432)" fill-opacity="1" fill="#c28a1c" fill-rule="evenodd" stroke-linejoin="miter" d="M -10.632414 491.192771 C 26.000271 442.377069 -2.65909 399.443785 -35.444507 359.869891 C -50.84752 408.615895 -59.043874 460.554018 -10.632414 491.192771 Z M -10.632414 491.192771 " stroke="#007d00" stroke-width="1" stroke-opacity="1" stroke-miterlimit="4"/><g clip-path="url(#f144a195d8)"><path fill="#c28a1c" d="M 40.839844 35.042969 C 57.914062 34.058594 61.921875 20.15625 64.464844 5.984375 C 51.246094 11.5 38.640625 19.140625 40.839844 35.042969 Z M 40.839844 35.042969 " fill-opacity="1" fill-rule="evenodd"/></g><g clip-path="url(#83e8b4344c)"><path stroke-linecap="butt" transform="matrix(0.280231, 0, 0, 0.280231, 25.350629, -59.862432)" fill="none" stroke-linejoin="miter" d="M 55.272965 338.668097 C 116.201986 335.155373 130.503788 285.545127 139.578323 234.973064 C 92.407468 254.655465 47.425095 281.920889 55.272965 338.668097 Z M 55.272965 338.668097 " stroke="#007d00" stroke-width="1" stroke-opacity="1" stroke-miterlimit="4"/></g><path stroke-linecap="butt" transform="matrix(0.280231, 0, 0, 0.280231, 25.350629, -59.862432)" fill-opacity="1" fill="#c28a1c" fill-rule="evenodd" stroke-linejoin="miter" d="M 16.39604 391.331067 C 62.172957 350.976567 42.811161 303.108743 18.751795 257.69425 C -6.227571 302.300259 -24.808762 351.506264 16.39604 391.331067 Z M 16.39604 391.331067 " stroke="#007d00" stroke-width="1" stroke-opacity="1" stroke-miterlimit="4"/><path stroke-linecap="round" transform="matrix(0.377247, 0, 0, 0.28847, -1.84582, -73.417779)" fill-opacity="1" fill="#c28a1c" fill-rule="nonzero" stroke-linejoin="miter" d="M 365.67857 905.896428 C 365.67857 907.020353 365.595733 908.130737 365.430059 909.241121 C 365.264385 910.351504 365.00552 911.421264 364.684527 912.463942 C 364.353179 913.506619 363.94935 914.495131 363.462683 915.429479 C 362.986371 916.363826 362.447931 917.230467 361.837009 918.029402 C 361.226087 918.828336 360.563392 919.546023 359.838569 920.168921 C 359.124101 920.79182 358.368214 921.319929 357.570909 921.753249 C 356.773604 922.18657 355.95559 922.51156 355.106512 922.728221 C 354.267788 922.958422 353.408356 923.066752 352.548923 923.066752 C 351.68949 923.066752 350.830058 922.958422 349.980979 922.728221 C 349.142256 922.51156 348.324242 922.18657 347.526937 921.753249 C 346.729632 921.319929 345.973745 920.79182 345.248922 920.168921 C 344.534454 919.546023 343.871759 918.828336 343.260837 918.029402 C 342.649915 917.230467 342.111475 916.363826 341.624809 915.429479 C 341.148496 914.495131 340.744667 913.506619 340.413319 912.463942 C 340.081971 911.421264 339.833461 910.351504 339.667787 909.241121 C 339.502113 908.130737 339.419276 907.020353 339.419276 905.896428 C 339.419276 904.758962 339.502113 903.648578 339.667787 902.538194 C 339.833461 901.427811 340.081971 900.358051 340.413319 899.315373 C 340.744667 898.272696 341.148496 897.284184 341.624809 896.349836 C 342.111475 895.415489 342.649915 894.548848 343.260837 893.749913 C 343.871759 892.950979 344.534454 892.233292 345.248922 891.610394 C 345.973745 890.987495 346.729632 890.459386 347.526937 890.026066 C 348.324242 889.592745 349.142256 889.267755 349.980979 889.051095 C 350.830058 888.820893 351.68949 888.712563 352.548923 888.712563 C 353.408356 888.712563 354.267788 888.820893 355.106512 889.051095 C 355.95559 889.267755 356.773604 889.592745 357.570909 890.026066 C 358.368214 890.459386 359.124101 890.987495 359.838569 891.610394 C 360.563392 892.233292 361.226087 892.950979 361.837009 893.749913 C 362.447931 894.548848 362.986371 895.415489 363.462683 896.349836 C 363.94935 897.284184 364.353179 898.272696 364.684527 899.315373 C 365.00552 900.358051 365.264385 901.427811 365.430059 902.538194 C 365.595733 903.648578 365.67857 904.758962 365.67857 905.896428 Z M 365.67857 905.896428 " stroke="#007d00" stroke-width="0.849" stroke-opacity="1" stroke-miterlimit="4"/><g clip-path="url(#3fe452e94a)"><path fill="#d7b12a" d="M 131.144531 0 C 158.398438 21.71875 196.300781 34.328125 217.136719 40.050781 C 213.515625 174.34375 145.972656 201.171875 131.367188 205.410156 C 116.84375 201.085938 49.78125 173.914062 45.257812 40.019531 C 66.109375 34.28125 103.9375 21.671875 131.144531 0 Z M 131.144531 0 " fill-opacity="1" fill-rule="evenodd"/></g><path fill="#d7b12a" d="M 92.125 96.582031 L 91.945312 96.226562 L 91.5625 96.328125 L 91.839844 96.542969 C 91.933594 96.574219 92.03125 96.585938 92.125 96.582031 Z M 92.125 96.582031 " fill-opacity="1" fill-rule="evenodd"/><path fill="#d7b12a" d="M 92.761719 96.277344 C 92.648438 96.382812 92.519531 96.464844 92.414062 96.523438 C 92.5 96.488281 92.585938 96.441406 92.671875 96.363281 C 92.699219 96.339844 92.730469 96.3125 92.761719 96.277344 Z M 92.761719 96.277344 " fill-opacity="1" fill-rule="evenodd"/><g clip-path="url(#24e6e228a0)"><path fill="#ffee97" d="M 128.324219 7.023438 C 152.875 26.589844 187.027344 37.953125 205.800781 43.105469 C 202.535156 164.101562 141.683594 188.273438 128.523438 192.09375 C 115.433594 188.195312 55.015625 163.714844 50.941406 43.078125 C 69.726562 37.90625 103.808594 26.546875 128.324219 7.023438 Z M 128.324219 7.023438 " fill-opacity="1" fill-rule="evenodd"/></g><path fill="#ffee97" d="M 93.167969 94.039062 L 93.003906 93.71875 L 92.660156 93.808594 L 92.90625 94.007812 C 92.992188 94.035156 93.082031 94.042969 93.167969 94.039062 Z M 93.167969 94.039062 " fill-opacity="1" fill-rule="evenodd"/><path fill="#ffee97" d="M 93.738281 93.765625 C 93.636719 93.859375 93.523438 93.933594 93.425781 93.988281 C 93.503906 93.957031 93.582031 93.910156 93.660156 93.84375 C 93.683594 93.824219 93.710938 93.796875 93.738281 93.765625 Z M 93.738281 93.765625 " fill-opacity="1" fill-rule="evenodd"/><g clip-path="url(#28d16a6db2)"><path fill="#ffdd2f" d="M 131.148438 10.171875 C 155.703125 29.738281 189.855469 41.101562 208.625 46.253906 C 205.363281 167.25 144.511719 191.421875 131.347656 195.242188 C 118.261719 191.34375 57.839844 166.863281 53.769531 46.226562 C 72.554688 41.058594 106.636719 29.695312 131.148438 10.171875 Z M 131.148438 10.171875 " fill-opacity="1" fill-rule="evenodd"/></g><path fill="#ffdd2f" d="M 95.996094 97.191406 L 95.828125 96.867188 L 95.488281 96.957031 L 95.734375 97.15625 C 95.820312 97.183594 95.90625 97.195312 95.996094 97.191406 Z M 95.996094 97.191406 " fill-opacity="1" fill-rule="evenodd"/><path fill="#ffdd2f" d="M 96.566406 96.914062 C 96.464844 97.007812 96.351562 97.082031 96.25 97.136719 C 96.332031 97.105469 96.410156 97.0625 96.484375 96.992188 C 96.507812 96.972656 96.539062 96.949219 96.566406 96.914062 Z M 96.566406 96.914062 " fill-opacity="1" fill-rule="evenodd"/><g clip-path="url(#022841f04d)"><path fill="#d7bb2a" d="M 133.269531 163.613281 C 100.839844 163.613281 74.457031 136.992188 74.457031 104.269531 C 74.457031 71.546875 100.839844 44.921875 133.269531 44.921875 C 165.699219 44.921875 192.078125 71.546875 192.078125 104.269531 C 192.078125 136.992188 165.699219 163.613281 133.269531 163.613281 Z M 133.269531 50.15625 C 103.726562 50.15625 79.691406 74.429688 79.691406 104.269531 C 79.691406 134.105469 103.726562 158.382812 133.269531 158.382812 C 162.8125 158.382812 186.847656 134.105469 186.847656 104.269531 C 186.847656 74.429688 162.8125 50.15625 133.269531 50.15625 Z M 133.269531 50.15625 " fill-opacity="1" fill-rule="nonzero"/></g><g clip-path="url(#3c6760bf6f)"><path fill="#d7bb2a" d="M 133.269531 163.628906 C 124.402344 163.628906 116.195312 157.210938 110.152344 145.566406 C 104.394531 134.460938 101.222656 119.796875 101.222656 104.269531 C 101.222656 88.742188 104.394531 74.078125 110.152344 62.976562 C 116.195312 51.324219 124.402344 44.910156 133.269531 44.910156 C 142.136719 44.910156 150.347656 51.324219 156.390625 62.976562 C 162.148438 74.078125 165.324219 88.742188 165.324219 104.269531 C 165.324219 119.796875 162.148438 134.464844 156.390625 145.566406 C 150.347656 157.210938 142.136719 163.628906 133.269531 163.628906 Z M 133.269531 50.144531 C 118.734375 50.144531 106.453125 74.929688 106.453125 104.269531 C 106.453125 133.605469 118.734375 158.394531 133.269531 158.394531 C 140.085938 158.394531 146.648438 152.980469 151.746094 143.15625 C 157.125 132.785156 160.089844 118.972656 160.089844 104.269531 C 160.089844 74.929688 147.808594 50.144531 133.269531 50.144531 Z M 133.269531 50.144531 " fill-opacity="1" fill-rule="nonzero"/></g><g clip-path="url(#64fd2d407f)"><path fill="#d7bb2a" d="M 189.464844 106.886719 L 77.074219 106.886719 C 75.628906 106.886719 74.457031 105.714844 74.457031 104.269531 C 74.457031 102.824219 75.628906 101.652344 77.074219 101.652344 L 189.464844 101.652344 C 190.910156 101.652344 192.078125 102.824219 192.078125 104.269531 C 192.078125 105.714844 190.910156 106.886719 189.464844 106.886719 Z M 189.464844 106.886719 " fill-opacity="1" fill-rule="nonzero"/></g><path fill="#d7bb2a" d="M 133.453125 82.109375 C 118.054688 82.109375 102.609375 79.007812 87.222656 72.804688 C 85.882812 72.265625 85.234375 70.742188 85.773438 69.398438 C 86.3125 68.058594 87.839844 67.410156 89.179688 67.953125 C 118.628906 79.820312 148.300781 79.832031 177.367188 67.980469 C 178.707031 67.433594 180.234375 68.078125 180.777344 69.414062 C 181.324219 70.753906 180.679688 72.28125 179.34375 72.828125 C 164.167969 79.011719 148.835938 82.109375 133.453125 82.109375 Z M 133.453125 82.109375 " fill-opacity="1" fill-rule="nonzero"/><path fill="#d7bb2a" d="M 178.355469 140.757812 C 178.027344 140.757812 177.691406 140.695312 177.367188 140.5625 C 148.269531 128.707031 118.589844 128.707031 89.160156 140.5625 C 87.820312 141.101562 86.292969 140.453125 85.753906 139.109375 C 85.214844 137.769531 85.863281 136.246094 87.203125 135.707031 C 117.941406 123.328125 148.941406 123.332031 179.34375 135.714844 C 180.679688 136.261719 181.324219 137.789062 180.777344 139.128906 C 180.363281 140.144531 179.386719 140.757812 178.355469 140.757812 Z M 178.355469 140.757812 " fill-opacity="1" fill-rule="nonzero"/><g clip-path="url(#8ceb82de8a)"><path fill="#d7bb2a" d="M 133.269531 163.613281 C 131.824219 163.613281 130.652344 162.441406 130.652344 160.996094 L 130.652344 47.539062 C 130.652344 46.09375 131.824219 44.921875 133.269531 44.921875 C 134.714844 44.921875 135.886719 46.09375 135.886719 47.539062 L 135.886719 160.996094 C 135.886719 162.441406 134.714844 163.613281 133.269531 163.613281 Z M 133.269531 163.613281 " fill-opacity="1" fill-rule="nonzero"/></g><g clip-path="url(#12dd0505df)"><path fill="#ffee97" d="M 129.097656 160.464844 C 96.667969 160.464844 70.289062 133.84375 70.289062 101.121094 C 70.289062 68.394531 96.667969 41.773438 129.097656 41.773438 C 161.527344 41.773438 187.910156 68.394531 187.910156 101.121094 C 187.910156 133.84375 161.527344 160.464844 129.097656 160.464844 Z M 129.097656 47.007812 C 99.554688 47.007812 75.519531 71.28125 75.519531 101.121094 C 75.519531 130.957031 99.554688 155.234375 129.097656 155.234375 C 158.640625 155.234375 182.675781 130.957031 182.675781 101.121094 C 182.675781 71.28125 158.640625 47.007812 129.097656 47.007812 Z M 129.097656 47.007812 " fill-opacity="1" fill-rule="nonzero"/></g><g clip-path="url(#a5319f9101)"><path fill="#ffee97" d="M 129.097656 160.480469 C 120.234375 160.480469 112.023438 154.0625 105.980469 142.417969 C 100.222656 131.3125 97.050781 116.648438 97.050781 101.121094 C 97.050781 85.59375 100.222656 70.929688 105.980469 59.828125 C 112.023438 48.175781 120.234375 41.761719 129.097656 41.761719 C 137.964844 41.761719 146.179688 48.175781 152.21875 59.828125 C 157.980469 70.929688 161.152344 85.59375 161.152344 101.121094 C 161.152344 116.648438 157.980469 131.316406 152.21875 142.417969 C 146.179688 154.0625 137.964844 160.480469 129.097656 160.480469 Z M 129.097656 46.996094 C 114.5625 46.996094 102.285156 71.78125 102.285156 101.121094 C 102.285156 130.457031 114.5625 155.246094 129.097656 155.246094 C 135.914062 155.246094 142.476562 149.832031 147.574219 140.007812 C 152.957031 129.636719 155.917969 115.824219 155.917969 101.121094 C 155.917969 71.78125 143.636719 46.996094 129.097656 46.996094 Z M 129.097656 46.996094 " fill-opacity="1" fill-rule="nonzero"/></g><g clip-path="url(#dd905b43c3)"><path fill="#ffee97" d="M 185.292969 103.738281 L 72.902344 103.738281 C 71.457031 103.738281 70.289062 102.566406 70.289062 101.121094 C 70.289062 99.675781 71.457031 98.503906 72.902344 98.503906 L 185.292969 98.503906 C 186.738281 98.503906 187.910156 99.675781 187.910156 101.121094 C 187.910156 102.566406 186.738281 103.738281 185.292969 103.738281 Z M 185.292969 103.738281 " fill-opacity="1" fill-rule="nonzero"/></g><path fill="#ffee97" d="M 129.285156 78.957031 C 113.886719 78.957031 98.441406 75.859375 83.050781 69.65625 C 81.710938 69.117188 81.0625 67.59375 81.605469 66.25 C 82.144531 64.910156 83.667969 64.261719 85.007812 64.800781 C 114.460938 76.671875 144.128906 76.683594 173.195312 64.832031 C 174.535156 64.285156 176.0625 64.929688 176.609375 66.265625 C 177.152344 67.605469 176.511719 69.132812 175.171875 69.675781 C 159.996094 75.863281 144.664062 78.957031 129.285156 78.957031 Z M 129.285156 78.957031 " fill-opacity="1" fill-rule="nonzero"/><path fill="#ffee97" d="M 174.183594 137.609375 C 173.855469 137.609375 173.519531 137.546875 173.199219 137.414062 C 144.097656 125.558594 114.421875 125.558594 84.988281 137.414062 C 83.648438 137.953125 82.125 137.304688 81.585938 135.960938 C 81.042969 134.621094 81.695312 133.097656 83.035156 132.558594 C 113.769531 120.179688 144.769531 120.183594 175.171875 132.566406 C 176.511719 133.113281 177.152344 134.640625 176.609375 135.976562 C 176.195312 136.992188 175.214844 137.609375 174.183594 137.609375 Z M 174.183594 137.609375 " fill-opacity="1" fill-rule="nonzero"/><g clip-path="url(#8cee17f44a)"><path fill="#ffee97" d="M 129.097656 160.464844 C 127.652344 160.464844 126.480469 159.292969 126.480469 157.847656 L 126.480469 44.390625 C 126.480469 42.945312 127.652344 41.773438 129.097656 41.773438 C 130.542969 41.773438 131.714844 42.945312 131.714844 44.390625 L 131.714844 157.847656 C 131.714844 159.292969 130.542969 160.464844 129.097656 160.464844 Z M 129.097656 160.464844 " fill-opacity="1" fill-rule="nonzero"/></g></svg>