<svg xmlns="http://www.w3.org/2000/svg" xmlns:xlink="http://www.w3.org/1999/xlink" width="351" zoomAndPan="magnify" viewBox="0 0 263.25 244.499991" height="326" preserveAspectRatio="xMidYMid meet" version="1.0"><defs><clipPath id="0c11e2095e"><path d="M 231 139 L 262.503906 139 L 262.503906 163 L 231 163 Z M 231 139 " clip-rule="nonzero"/></clipPath><clipPath id="84574f9753"><path d="M 230 138 L 262.503906 138 L 262.503906 165 L 230 165 Z M 230 138 " clip-rule="nonzero"/></clipPath><clipPath id="93d021db12"><path d="M 198 43.375 L 222 43.375 L 222 73 L 198 73 Z M 198 43.375 " clip-rule="nonzero"/></clipPath><clipPath id="4128a40d56"><path d="M 196 43.375 L 224 43.375 L 224 75 L 196 75 Z M 196 43.375 " clip-rule="nonzero"/></clipPath><clipPath id="e8cafeb9f6"><path d="M 40 43.375 L 65 43.375 L 65 73 L 40 73 Z M 40 43.375 " clip-rule="nonzero"/></clipPath><clipPath id="9daefaeb63"><path d="M 38 43.375 L 66 43.375 L 66 75 L 38 75 Z M 38 43.375 " clip-rule="nonzero"/></clipPath><clipPath id="0b4a62b7b7"><path d="M 45.0625 37.863281 L 217.074219 37.863281 L 217.074219 243.527344 L 45.0625 243.527344 Z M 45.0625 37.863281 " clip-rule="nonzero"/></clipPath><clipPath id="16f682cde5"><path d="M 50.761719 44.898438 L 206 44.898438 L 206 230.371094 L 50.761719 230.371094 Z M 50.761719 44.898438 " clip-rule="nonzero"/></clipPath><clipPath id="6f060aff3a"><path d="M 53.59375 48.054688 L 209 48.054688 L 209 233.523438 L 53.59375 233.523438 Z M 53.59375 48.054688 " clip-rule="nonzero"/></clipPath><clipPath id="ca62f3814f"><path d="M 97.769531 0.0976562 L 164.328125 0.0976562 L 164.328125 44.96875 L 97.769531 44.96875 Z M 97.769531 0.0976562 " clip-rule="nonzero"/></clipPath><clipPath id="b2ae407c43"><path d="M 74.347656 80.117188 L 192.511719 80.117188 L 192.511719 199.027344 L 74.347656 199.027344 Z M 74.347656 80.117188 " clip-rule="nonzero"/></clipPath><clipPath id="22cc0485d6"><path d="M 101 80.117188 L 166 80.117188 L 166 199.027344 L 101 199.027344 Z M 101 80.117188 " clip-rule="nonzero"/></clipPath><clipPath id="76c54f5ef4"><path d="M 74.347656 136 L 192.511719 136 L 192.511719 143 L 74.347656 143 Z M 74.347656 136 " clip-rule="nonzero"/></clipPath><clipPath id="1dd97fb658"><path d="M 130 80.117188 L 136 80.117188 L 136 199.027344 L 130 199.027344 Z M 130 80.117188 " clip-rule="nonzero"/></clipPath><clipPath id="ca5a670053"><path d="M 70.171875 76.960938 L 188.335938 76.960938 L 188.335938 195.871094 L 70.171875 195.871094 Z M 70.171875 76.960938 " clip-rule="nonzero"/></clipPath><clipPath id="8d655251b5"><path d="M 96 76.960938 L 162 76.960938 L 162 195.871094 L 96 195.871094 Z M 96 76.960938 " clip-rule="nonzero"/></clipPath><clipPath id="0131adbfdc"><path d="M 70.171875 133 L 188.335938 133 L 188.335938 140 L 70.171875 140 Z M 70.171875 133 " clip-rule="nonzero"/></clipPath><clipPath id="39ae820599"><path d="M 126 76.960938 L 132 76.960938 L 132 195.871094 L 126 195.871094 Z M 126 76.960938 " clip-rule="nonzero"/></clipPath></defs><path stroke-linecap="butt" transform="matrix(-0.280785, 0, 0, 0.280785, 237.256915, -22.365387)" fill-opacity="1" fill="#7071c9" fill-rule="evenodd" stroke-linejoin="miter" d="M 347.084403 896.447583 C 296.834677 861.834815 255.099024 892.232282 216.883078 926.594636 C 266.21462 940.005692 318.453745 946.071274 347.084403 896.447583 Z M 347.084403 896.447583 " stroke="#007d00" stroke-width="1" stroke-opacity="1" stroke-miterlimit="4"/><path stroke-linecap="butt" transform="matrix(-0.280785, 0, 0, 0.280785, 237.256915, -22.365387)" fill-opacity="1" fill="#7071c9" fill-rule="evenodd" stroke-linejoin="miter" d="M 335.008887 866.662238 C 332.782986 805.672538 283.49318 790.32773 233.104335 780.185966 C 251.801908 827.76461 278.109281 873.312119 335.008887 866.662238 Z M 335.008887 866.662238 " stroke="#007d00" stroke-width="1" stroke-opacity="1" stroke-miterlimit="4"/><path stroke-linecap="butt" transform="matrix(-0.280785, 0, 0, 0.280785, 237.256915, -22.365387)" fill-opacity="1" fill="#7071c9" fill-rule="evenodd" stroke-linejoin="miter" d="M 257.464045 868.971611 C 210.302757 830.240926 166.160348 856.993479 125.175937 888.003069 C 173.18585 905.532043 224.729381 916.007692 257.464045 868.971611 Z M 257.464045 868.971611 " stroke="#007d00" stroke-width="1" stroke-opacity="1" stroke-miterlimit="4"/><path stroke-linecap="butt" transform="matrix(-0.280785, 0, 0, 0.280785, 237.256915, -22.365387)" fill-opacity="1" fill="#7071c9" fill-rule="evenodd" stroke-linejoin="miter" d="M 213.725081 840.048804 C 243.120892 786.571521 208.688979 748.105161 170.653887 713.534129 C 162.278933 763.964709 161.472043 816.551631 213.725081 840.048804 Z M 213.725081 840.048804 " stroke="#007d00" stroke-width="1" stroke-opacity="1" stroke-miterlimit="4"/><path stroke-linecap="butt" transform="matrix(-0.280785, 0, 0, 0.280785, 237.256915, -22.365387)" fill-opacity="1" fill="#7071c9" fill-rule="evenodd" stroke-linejoin="miter" d="M 175.564782 838.866294 C 140.868543 788.658304 91.063997 802.250214 43.137556 820.808668 C 84.497588 850.844426 131.17196 875.09284 175.564782 838.866294 Z M 175.564782 838.866294 " stroke="#007d00" stroke-width="1" stroke-opacity="1" stroke-miterlimit="4"/><path stroke-linecap="butt" transform="matrix(-0.280785, 0, 0, 0.280785, 237.256915, -22.365387)" fill-opacity="1" fill="#7071c9" fill-rule="evenodd" stroke-linejoin="miter" d="M 126.553214 794.083938 C 171.460776 752.737818 151.065954 705.312205 126.038474 660.432467 C 102.026562 705.562619 84.5115 755.158486 126.553214 794.083938 Z M 126.553214 794.083938 " stroke="#007d00" stroke-width="1" stroke-opacity="1" stroke-miterlimit="4"/><path stroke-linecap="butt" transform="matrix(-0.280785, 0, 0, 0.280785, 237.256915, -22.365387)" fill-opacity="1" fill="#7071c9" fill-rule="evenodd" stroke-linejoin="miter" d="M 102.708244 789.033924 C 78.195504 733.149885 26.721533 737.017389 -23.862078 746.115762 C 11.028927 783.483083 52.235928 816.148187 102.708244 789.033924 Z M 102.708244 789.033924 " stroke="#007d00" stroke-width="1" stroke-opacity="1" stroke-miterlimit="4"/><path stroke-linecap="butt" transform="matrix(-0.280785, 0, 0, 0.280785, 237.256915, -22.365387)" fill-opacity="1" fill="#7071c9" fill-rule="evenodd" stroke-linejoin="miter" d="M 61.807305 735.000166 C 113.587338 702.710683 102.360447 652.321838 86.083543 603.574596 C 54.114033 643.459968 27.709277 688.951829 61.807305 735.000166 Z M 61.807305 735.000166 " stroke="#007d00" stroke-width="1" stroke-opacity="1" stroke-miterlimit="4"/><path stroke-linecap="butt" transform="matrix(-0.280785, 0, 0, 0.280785, 237.256915, -22.365387)" fill-opacity="1" fill="#7071c9" fill-rule="evenodd" stroke-linejoin="miter" d="M 43.735767 727.446013 C 30.227328 667.930972 -21.051878 661.990598 -72.442378 661.364563 C -45.244644 704.658346 -10.95185 744.529807 43.735767 727.446013 Z M 43.735767 727.446013 " stroke="#007d00" stroke-width="1" stroke-opacity="1" stroke-miterlimit="4"/><path stroke-linecap="butt" transform="matrix(-0.280785, 0, 0, 0.280785, 237.256915, -22.365387)" fill-opacity="1" fill="#7071c9" fill-rule="evenodd" stroke-linejoin="miter" d="M 28.349223 639.981997 C 83.495932 613.827654 78.098121 562.492801 67.511177 512.20134 C 31.201159 548.177473 -0.239699 590.330482 28.349223 639.981997 Z M 28.349223 639.981997 " stroke="#007d00" stroke-width="1" stroke-opacity="1" stroke-miterlimit="4"/><g clip-path="url(#0c11e2095e)"><path fill="#7071c9" d="M 231.875 162.109375 C 233.65625 145.066406 247.753906 141.703125 262.0625 139.816406 C 255.925781 152.789062 247.695312 165.050781 231.875 162.109375 Z M 231.875 162.109375 " fill-opacity="1" fill-rule="evenodd"/></g><g clip-path="url(#84574f9753)"><path stroke-linecap="butt" transform="matrix(-0.280785, 0, 0, 0.280785, 237.256915, -22.365387)" fill="none" stroke-linejoin="miter" d="M 19.16738 656.996231 C 12.82356 596.29868 -37.38443 584.320548 -88.343662 577.601108 C -66.488092 623.802475 -37.175752 667.47188 19.16738 656.996231 Z M 19.16738 656.996231 " stroke="#007d00" stroke-width="1" stroke-opacity="1" stroke-miterlimit="4"/></g><path stroke-linecap="butt" transform="matrix(-0.280785, 0, 0, 0.280785, 237.256915, -22.365387)" fill-opacity="1" fill="#7071c9" fill-rule="evenodd" stroke-linejoin="miter" d="M 5.172024 540.484201 C 64.770536 527.323558 70.989148 476.072177 71.893421 424.695588 C 28.460518 451.642908 -11.605708 485.713112 5.172024 540.484201 Z M 5.172024 540.484201 " stroke="#007d00" stroke-width="1" stroke-opacity="1" stroke-miterlimit="4"/><path stroke-linecap="butt" transform="matrix(-0.280785, 0, 0, 0.280785, 237.256915, -22.365387)" fill-opacity="1" fill="#7071c9" fill-rule="evenodd" stroke-linejoin="miter" d="M -6.486135 585.252644 C 10.764602 526.711435 -31.11017 496.522646 -75.669935 470.896956 C -73.054501 521.953571 -62.56494 573.48319 -6.486135 585.252644 Z M -6.486135 585.252644 " stroke="#007d00" stroke-width="1" stroke-opacity="1" stroke-miterlimit="4"/><path stroke-linecap="butt" transform="matrix(-0.280785, 0, 0, 0.280785, 237.256915, -22.365387)" fill-opacity="1" fill="#7071c9" fill-rule="evenodd" stroke-linejoin="miter" d="M 28.613549 425.502477 C 89.561514 428.54918 109.107711 380.77577 123.576071 331.45814 C 74.564503 345.968235 26.916299 368.22725 28.613549 425.502477 Z M 28.613549 425.502477 " stroke="#007d00" stroke-width="1" stroke-opacity="1" stroke-miterlimit="4"/><path stroke-linecap="butt" transform="matrix(-0.280785, 0, 0, 0.280785, 237.256915, -22.365387)" fill-opacity="1" fill="#7071c9" fill-rule="evenodd" stroke-linejoin="miter" d="M -10.631876 491.194395 C 25.998115 442.377593 -2.660367 399.445518 -35.450678 359.866208 C -50.851134 408.61345 -59.045234 460.560426 -10.631876 491.194395 Z M -10.631876 491.194395 " stroke="#007d00" stroke-width="1" stroke-opacity="1" stroke-miterlimit="4"/><g clip-path="url(#93d021db12)"><path fill="#7071c9" d="M 221.734375 72.726562 C 204.628906 71.742188 200.613281 57.8125 198.0625 43.609375 C 211.308594 49.140625 223.9375 56.792969 221.734375 72.726562 Z M 221.734375 72.726562 " fill-opacity="1" fill-rule="evenodd"/></g><g clip-path="url(#4128a40d56)"><path stroke-linecap="butt" transform="matrix(-0.280785, 0, 0, 0.280785, 237.256915, -22.365387)" fill="none" stroke-linejoin="miter" d="M 55.282631 338.664496 C 116.202772 335.158701 130.504189 285.548922 139.58865 234.965311 C 92.41345 254.664539 47.436328 281.91792 55.282631 338.664496 Z M 55.282631 338.664496 " stroke="#007d00" stroke-width="1" stroke-opacity="1" stroke-miterlimit="4"/></g><path stroke-linecap="butt" transform="matrix(-0.280785, 0, 0, 0.280785, 237.256915, -22.365387)" fill-opacity="1" fill="#7071c9" fill-rule="evenodd" stroke-linejoin="miter" d="M 16.385003 391.33489 C 62.169014 350.976514 42.817583 303.119632 18.750023 257.69733 C -6.221809 302.298831 -24.808086 351.505165 16.385003 391.33489 Z M 16.385003 391.33489 " stroke="#007d00" stroke-width="1" stroke-opacity="1" stroke-miterlimit="4"/><path stroke-linecap="butt" transform="matrix(0.280785, 0, 0, 0.280785, 25.140601, -22.117743)" fill-opacity="1" fill="#7071c9" fill-rule="evenodd" stroke-linejoin="miter" d="M 347.087685 896.455973 C 296.824047 861.843205 255.102307 892.22676 216.886361 926.603026 C 266.217902 940.000171 318.457027 946.079664 347.087685 896.455973 Z M 347.087685 896.455973 " stroke="#007d00" stroke-width="1" stroke-opacity="1" stroke-miterlimit="4"/><path stroke-linecap="butt" transform="matrix(0.280785, 0, 0, 0.280785, 25.140601, -22.117743)" fill-opacity="1" fill="#7071c9" fill-rule="evenodd" stroke-linejoin="miter" d="M 335.01217 866.656717 C 332.786268 805.667017 283.48255 790.33612 233.107618 780.180445 C 251.80519 827.759089 278.098651 873.306598 335.01217 866.656717 Z M 335.01217 866.656717 " stroke="#007d00" stroke-width="1" stroke-opacity="1" stroke-miterlimit="4"/><path stroke-linecap="butt" transform="matrix(0.280785, 0, 0, 0.280785, 25.140601, -22.117743)" fill-opacity="1" fill="#7071c9" fill-rule="evenodd" stroke-linejoin="miter" d="M 257.453415 868.96609 C 210.306039 830.235404 166.149719 856.987958 125.165308 888.011459 C 173.189132 905.526522 224.732663 916.002171 257.453415 868.96609 Z M 257.453415 868.96609 " stroke="#007d00" stroke-width="1" stroke-opacity="1" stroke-miterlimit="4"/><path stroke-linecap="butt" transform="matrix(0.280785, 0, 0, 0.280785, 25.140601, -22.117743)" fill-opacity="1" fill="#7071c9" fill-rule="evenodd" stroke-linejoin="miter" d="M 213.728363 840.043283 C 243.110262 786.566 208.692261 748.09964 170.657169 713.528607 C 162.282215 763.959188 161.475326 816.54611 213.728363 840.043283 Z M 213.728363 840.043283 " stroke="#007d00" stroke-width="1" stroke-opacity="1" stroke-miterlimit="4"/><path stroke-linecap="butt" transform="matrix(0.280785, 0, 0, 0.280785, 25.140601, -22.117743)" fill-opacity="1" fill="#7071c9" fill-rule="evenodd" stroke-linejoin="miter" d="M 175.554152 838.860772 C 140.871825 788.652782 91.067279 802.244693 43.140838 820.803147 C 84.50087 850.852817 131.175242 875.087319 175.554152 838.860772 Z M 175.554152 838.860772 " stroke="#007d00" stroke-width="1" stroke-opacity="1" stroke-miterlimit="4"/><path stroke-linecap="butt" transform="matrix(0.280785, 0, 0, 0.280785, 25.140601, -22.117743)" fill-opacity="1" fill="#7071c9" fill-rule="evenodd" stroke-linejoin="miter" d="M 126.556496 794.078417 C 171.450147 752.746209 151.069236 705.320596 126.027845 660.426945 C 102.029844 705.557098 84.514782 755.152965 126.556496 794.078417 Z M 126.556496 794.078417 " stroke="#007d00" stroke-width="1" stroke-opacity="1" stroke-miterlimit="4"/><path stroke-linecap="butt" transform="matrix(0.280785, 0, 0, 0.280785, 25.140601, -22.117743)" fill-opacity="1" fill="#7071c9" fill-rule="evenodd" stroke-linejoin="miter" d="M 102.711527 789.028403 C 78.198787 733.144364 26.724815 737.011868 -23.858796 746.11024 C 11.032209 783.477561 52.239211 816.156577 102.711527 789.028403 Z M 102.711527 789.028403 " stroke="#007d00" stroke-width="1" stroke-opacity="1" stroke-miterlimit="4"/><path stroke-linecap="butt" transform="matrix(0.280785, 0, 0, 0.280785, 25.140601, -22.117743)" fill-opacity="1" fill="#7071c9" fill-rule="evenodd" stroke-linejoin="miter" d="M 61.810587 734.994645 C 113.59062 702.705161 102.363729 652.316317 86.072913 603.569074 C 54.117315 643.468358 27.712559 688.946308 61.810587 734.994645 Z M 61.810587 734.994645 " stroke="#007d00" stroke-width="1" stroke-opacity="1" stroke-miterlimit="4"/><path stroke-linecap="butt" transform="matrix(0.280785, 0, 0, 0.280785, 25.140601, -22.117743)" fill-opacity="1" fill="#7071c9" fill-rule="evenodd" stroke-linejoin="miter" d="M 43.725137 727.440492 C 30.23061 667.925451 -21.048596 661.985076 -72.439096 661.359041 C -45.241362 704.652825 -10.948568 744.524285 43.725137 727.440492 Z M 43.725137 727.440492 " stroke="#007d00" stroke-width="1" stroke-opacity="1" stroke-miterlimit="4"/><path stroke-linecap="butt" transform="matrix(0.280785, 0, 0, 0.280785, 25.140601, -22.117743)" fill-opacity="1" fill="#7071c9" fill-rule="evenodd" stroke-linejoin="miter" d="M 28.352505 639.976475 C 83.499214 613.822133 78.101403 562.48728 67.514459 512.195819 C 31.19053 548.171951 -0.250329 590.338872 28.352505 639.976475 Z M 28.352505 639.976475 " stroke="#007d00" stroke-width="1" stroke-opacity="1" stroke-miterlimit="4"/><path stroke-linecap="butt" transform="matrix(0.280785, 0, 0, 0.280785, 25.140601, -22.117743)" fill-opacity="1" fill="#7071c9" fill-rule="evenodd" stroke-linejoin="miter" d="M 19.170662 657.004622 C 12.826843 596.307071 -37.381148 584.328938 -88.34038 577.595586 C -66.48481 623.810866 -37.172469 667.466359 19.170662 657.004622 Z M 19.170662 657.004622 " stroke="#007d00" stroke-width="1" stroke-opacity="1" stroke-miterlimit="4"/><path stroke-linecap="butt" transform="matrix(0.280785, 0, 0, 0.280785, 25.140601, -22.117743)" fill-opacity="1" fill="#7071c9" fill-rule="evenodd" stroke-linejoin="miter" d="M 5.175306 540.492591 C 64.759906 527.318037 70.978519 476.066655 71.896703 424.690067 C 28.4638 451.637387 -11.602426 485.707591 5.175306 540.492591 Z M 5.175306 540.492591 " stroke="#007d00" stroke-width="1" stroke-opacity="1" stroke-miterlimit="4"/><path stroke-linecap="butt" transform="matrix(0.280785, 0, 0, 0.280785, 25.140601, -22.117743)" fill-opacity="1" fill="#7071c9" fill-rule="evenodd" stroke-linejoin="miter" d="M -6.482853 585.247123 C 10.753972 526.705914 -31.106888 496.517125 -75.666653 470.905346 C -73.051219 521.948049 -62.561658 573.491581 -6.482853 585.247123 Z M -6.482853 585.247123 " stroke="#007d00" stroke-width="1" stroke-opacity="1" stroke-miterlimit="4"/><path stroke-linecap="butt" transform="matrix(0.280785, 0, 0, 0.280785, 25.140601, -22.117743)" fill-opacity="1" fill="#7071c9" fill-rule="evenodd" stroke-linejoin="miter" d="M 28.616831 425.496956 C 89.564796 428.557571 109.110993 380.770248 123.579353 331.452619 C 74.567785 345.962714 26.919581 368.235641 28.616831 425.496956 Z M 28.616831 425.496956 " stroke="#007d00" stroke-width="1" stroke-opacity="1" stroke-miterlimit="4"/><path stroke-linecap="butt" transform="matrix(0.280785, 0, 0, 0.280785, 25.140601, -22.117743)" fill-opacity="1" fill="#7071c9" fill-rule="evenodd" stroke-linejoin="miter" d="M -10.628594 491.188873 C 26.001397 442.372072 -2.670997 399.453909 -35.447396 359.874598 C -50.847852 408.607929 -59.041951 460.554904 -10.628594 491.188873 Z M -10.628594 491.188873 " stroke="#007d00" stroke-width="1" stroke-opacity="1" stroke-miterlimit="4"/><g clip-path="url(#e8cafeb9f6)"><path fill="#7071c9" d="M 40.660156 72.976562 C 57.769531 71.988281 61.785156 58.0625 64.335938 43.859375 C 51.089844 49.386719 38.457031 57.039062 40.660156 72.976562 Z M 40.660156 72.976562 " fill-opacity="1" fill-rule="evenodd"/></g><g clip-path="url(#9daefaeb63)"><path stroke-linecap="butt" transform="matrix(0.280785, 0, 0, 0.280785, 25.140601, -22.117743)" fill="none" stroke-linejoin="miter" d="M 55.272001 338.672887 C 116.206054 335.15318 130.507471 285.557313 139.591932 234.973701 C 92.416732 254.659018 47.425699 281.912399 55.272001 338.672887 Z M 55.272001 338.672887 " stroke="#007d00" stroke-width="1" stroke-opacity="1" stroke-miterlimit="4"/></g><path stroke-linecap="butt" transform="matrix(0.280785, 0, 0, 0.280785, 25.140601, -22.117743)" fill-opacity="1" fill="#7071c9" fill-rule="evenodd" stroke-linejoin="miter" d="M 16.388285 391.329368 C 62.172296 350.970992 42.820865 303.11411 18.753305 257.70572 C -6.218527 302.307221 -24.804804 351.499644 16.388285 391.329368 Z M 16.388285 391.329368 " stroke="#007d00" stroke-width="1" stroke-opacity="1" stroke-miterlimit="4"/><path stroke-linecap="round" transform="matrix(0.377993, 0, 0, 0.28904, -2.109596, -35.699881)" fill-opacity="1" fill="#7071c9" fill-rule="nonzero" stroke-linejoin="miter" d="M 365.675812 905.896524 C 365.675812 907.018232 365.593139 908.139941 365.427792 909.23462 C 365.262445 910.342813 365.014424 911.423978 364.68373 912.464599 C 364.353036 913.505219 363.950003 914.491782 363.464296 915.424286 C 362.988924 916.370305 362.441212 917.235237 361.831495 918.032596 C 361.221778 918.829955 360.56039 919.546226 359.847331 920.167896 C 359.123938 920.789565 358.369542 921.330148 357.573809 921.749099 C 356.778077 922.181565 355.951342 922.519429 355.114273 922.735661 C 354.266869 922.951894 353.409132 923.060011 352.551394 923.060011 C 351.683322 923.060011 350.835919 922.951894 349.988516 922.735661 C 349.141112 922.519429 348.314377 922.181565 347.518645 921.749099 C 346.722912 921.330148 345.968517 920.789565 345.255458 920.167896 C 344.532065 919.546226 343.870677 918.829955 343.26096 918.032596 C 342.651242 917.235237 342.103531 916.370305 341.628158 915.424286 C 341.152785 914.491782 340.749752 913.505219 340.419058 912.464599 C 340.088364 911.423978 339.840343 910.342813 339.664662 909.23462 C 339.499315 908.139941 339.416642 907.018232 339.416642 905.896524 C 339.416642 904.761301 339.499315 903.639593 339.664662 902.544914 C 339.840343 901.436721 340.088364 900.355556 340.419058 899.314935 C 340.749752 898.274314 341.152785 897.287752 341.628158 896.355247 C 342.103531 895.409228 342.651242 894.544297 343.26096 893.746938 C 343.870677 892.949579 344.532065 892.233308 345.255458 891.611638 C 345.968517 890.989968 346.722912 890.449386 347.518645 890.030435 C 348.314377 889.597969 349.141112 889.27362 349.988516 889.043872 C 350.835919 888.827639 351.683322 888.719523 352.551394 888.719523 C 353.409132 888.719523 354.266869 888.827639 355.114273 889.043872 C 355.951342 889.27362 356.778077 889.597969 357.573809 890.030435 C 358.369542 890.449386 359.123938 890.989968 359.847331 891.611638 C 360.56039 892.233308 361.221778 892.949579 361.831495 893.746938 C 362.441212 894.544297 362.988924 895.409228 363.464296 896.355247 C 363.950003 897.287752 364.353036 898.274314 364.68373 899.314935 C 365.014424 900.355556 365.262445 901.436721 365.427792 902.544914 C 365.593139 903.639593 365.675812 904.761301 365.675812 905.896524 Z M 365.675812 905.896524 " stroke="#007d00" stroke-width="0.849" stroke-opacity="1" stroke-miterlimit="4"/><g clip-path="url(#0b4a62b7b7)"><path fill="#90b7f0" d="M 131.144531 37.863281 C 158.449219 59.625 196.429688 72.261719 217.304688 77.992188 C 213.679688 212.550781 146.003906 239.433594 131.367188 243.679688 C 116.8125 239.34375 49.617188 212.121094 45.089844 77.964844 C 65.980469 72.210938 103.882812 59.578125 131.144531 37.863281 Z M 131.144531 37.863281 " fill-opacity="1" fill-rule="evenodd"/></g><path fill="#90b7f0" d="M 92.046875 134.636719 L 91.867188 134.28125 L 91.484375 134.378906 L 91.761719 134.597656 C 91.855469 134.628906 91.953125 134.640625 92.046875 134.636719 Z M 92.046875 134.636719 " fill-opacity="1" fill-rule="evenodd"/><path fill="#90b7f0" d="M 92.683594 134.332031 C 92.570312 134.433594 92.445312 134.519531 92.335938 134.578125 C 92.421875 134.542969 92.511719 134.492188 92.59375 134.417969 C 92.621094 134.394531 92.652344 134.367188 92.683594 134.332031 Z M 92.683594 134.332031 " fill-opacity="1" fill-rule="evenodd"/><g clip-path="url(#16f682cde5)"><path fill="#d3f2ff" d="M 128.316406 44.898438 C 152.917969 64.507812 187.136719 75.890625 205.945312 81.054688 C 202.675781 202.289062 141.703125 226.507812 128.515625 230.335938 C 115.402344 226.429688 54.863281 201.902344 50.78125 81.027344 C 69.605469 75.847656 103.753906 64.460938 128.316406 44.898438 Z M 128.316406 44.898438 " fill-opacity="1" fill-rule="evenodd"/></g><path fill="#d3f2ff" d="M 93.089844 132.089844 L 92.925781 131.769531 L 92.582031 131.859375 L 92.832031 132.054688 C 92.917969 132.082031 93.003906 132.09375 93.089844 132.089844 Z M 93.089844 132.089844 " fill-opacity="1" fill-rule="evenodd"/><path fill="#d3f2ff" d="M 93.664062 131.8125 C 93.5625 131.910156 93.449219 131.984375 93.347656 132.035156 C 93.429688 132.007812 93.507812 131.960938 93.582031 131.894531 C 93.605469 131.871094 93.636719 131.847656 93.664062 131.8125 Z M 93.664062 131.8125 " fill-opacity="1" fill-rule="evenodd"/><g clip-path="url(#6f060aff3a)"><path fill="#a9e6ff" d="M 131.148438 48.054688 C 155.75 67.660156 189.96875 79.046875 208.777344 84.210938 C 205.507812 205.445312 144.535156 229.664062 131.347656 233.488281 C 118.234375 229.585938 57.695312 205.054688 53.613281 84.183594 C 72.4375 79 106.585938 67.617188 131.148438 48.054688 Z M 131.148438 48.054688 " fill-opacity="1" fill-rule="evenodd"/></g><path fill="#a9e6ff" d="M 95.925781 135.246094 L 95.757812 134.921875 L 95.414062 135.011719 L 95.664062 135.210938 C 95.75 135.238281 95.835938 135.25 95.925781 135.246094 Z M 95.925781 135.246094 " fill-opacity="1" fill-rule="evenodd"/><path fill="#a9e6ff" d="M 96.496094 134.96875 C 96.394531 135.0625 96.28125 135.136719 96.179688 135.191406 C 96.261719 135.160156 96.339844 135.117188 96.417969 135.046875 C 96.441406 135.027344 96.46875 135.003906 96.496094 134.96875 Z M 96.496094 134.96875 " fill-opacity="1" fill-rule="evenodd"/><g clip-path="url(#ca62f3814f)"><path fill="#d3f2ff" d="M 161.871094 14.183594 C 161.871094 14.355469 161.871094 14.554688 161.820312 14.730469 L 157.714844 31.152344 C 157.515625 31.972656 156.769531 32.570312 155.921875 32.570312 L 131.289062 32.695312 L 106.628906 32.695312 C 105.78125 32.695312 105.035156 32.125 104.8125 31.277344 L 100.707031 14.804688 C 100.65625 14.605469 100.65625 14.40625 100.65625 14.230469 C 99.0625 13.734375 97.917969 12.242188 97.917969 10.5 C 97.917969 8.335938 99.683594 6.566406 101.851562 6.566406 C 104.015625 6.566406 105.78125 8.335938 105.78125 10.5 C 105.78125 11.71875 105.234375 12.8125 104.339844 13.535156 L 109.488281 18.710938 C 110.757812 20.003906 112.574219 20.75 114.417969 20.75 C 116.605469 20.75 118.671875 19.707031 119.992188 17.988281 L 128.425781 6.792969 C 127.703125 6.09375 127.28125 5.097656 127.28125 4.03125 C 127.28125 1.863281 129.046875 0.0976562 131.210938 0.0976562 C 133.378906 0.0976562 135.144531 1.863281 135.144531 4.03125 C 135.144531 5.074219 134.722656 6.019531 134.050781 6.742188 L 142.433594 17.964844 C 143.753906 19.707031 145.820312 20.75 148.007812 20.75 C 149.875 20.75 151.617188 20.03125 152.9375 18.710938 L 158.113281 13.535156 C 157.214844 12.8125 156.644531 11.71875 156.644531 10.472656 C 156.644531 8.308594 158.410156 6.542969 160.574219 6.542969 C 162.738281 6.542969 164.507812 8.308594 164.507812 10.472656 C 164.480469 12.191406 163.386719 13.632812 161.871094 14.183594 Z M 157.316406 38.542969 C 157.316406 37.523438 156.46875 36.675781 155.449219 36.675781 L 107.175781 36.675781 C 106.15625 36.675781 105.308594 37.523438 105.308594 38.542969 L 105.308594 43.023438 C 105.308594 44.042969 106.15625 44.886719 107.175781 44.886719 L 155.449219 44.886719 C 156.46875 44.886719 157.316406 44.042969 157.316406 43.023438 Z M 157.316406 38.542969 " fill-opacity="1" fill-rule="nonzero"/></g><g clip-path="url(#b2ae407c43)"><path fill="#90b7f0" d="M 133.273438 199.042969 C 100.777344 199.042969 74.34375 172.371094 74.34375 139.582031 C 74.34375 106.792969 100.777344 80.117188 133.273438 80.117188 C 165.765625 80.117188 192.199219 106.792969 192.199219 139.582031 C 192.199219 172.371094 165.765625 199.042969 133.273438 199.042969 Z M 133.273438 85.363281 C 103.671875 85.363281 79.589844 109.683594 79.589844 139.582031 C 79.589844 169.476562 103.671875 193.800781 133.273438 193.800781 C 162.871094 193.800781 186.957031 169.476562 186.957031 139.582031 C 186.957031 109.683594 162.871094 85.363281 133.273438 85.363281 Z M 133.273438 85.363281 " fill-opacity="1" fill-rule="nonzero"/></g><g clip-path="url(#22cc0485d6)"><path fill="#90b7f0" d="M 133.273438 199.058594 C 124.390625 199.058594 116.164062 192.628906 110.109375 180.960938 C 104.339844 169.835938 101.160156 155.140625 101.160156 139.582031 C 101.160156 124.027344 104.339844 109.332031 110.109375 98.207031 C 116.164062 86.535156 124.390625 80.105469 133.273438 80.105469 C 142.15625 80.105469 150.386719 86.535156 156.441406 98.207031 C 162.210938 109.332031 165.390625 124.023438 165.390625 139.582031 C 165.390625 155.140625 162.210938 169.835938 156.441406 180.960938 C 150.386719 192.628906 142.15625 199.058594 133.273438 199.058594 Z M 133.273438 85.347656 C 118.707031 85.347656 106.40625 110.183594 106.40625 139.582031 C 106.40625 168.976562 118.707031 193.8125 133.273438 193.8125 C 140.101562 193.8125 146.675781 188.390625 151.785156 178.542969 C 157.175781 168.152344 160.144531 154.316406 160.144531 139.582031 C 160.144531 110.183594 147.839844 85.347656 133.273438 85.347656 Z M 133.273438 85.347656 " fill-opacity="1" fill-rule="nonzero"/></g><g clip-path="url(#76c54f5ef4)"><path fill="#90b7f0" d="M 189.578125 142.203125 L 76.964844 142.203125 C 75.519531 142.203125 74.34375 141.027344 74.34375 139.582031 C 74.34375 138.132812 75.519531 136.960938 76.964844 136.960938 L 189.578125 136.960938 C 191.023438 136.960938 192.199219 138.132812 192.199219 139.582031 C 192.199219 141.027344 191.027344 142.203125 189.578125 142.203125 Z M 189.578125 142.203125 " fill-opacity="1" fill-rule="nonzero"/></g><path fill="#90b7f0" d="M 133.457031 117.375 C 118.027344 117.375 102.554688 114.269531 87.136719 108.054688 C 85.792969 107.515625 85.140625 105.988281 85.683594 104.644531 C 86.222656 103.300781 87.75 102.652344 89.09375 103.191406 C 118.605469 115.085938 148.332031 115.09375 177.457031 103.222656 C 178.796875 102.675781 180.328125 103.320312 180.875 104.660156 C 181.421875 106 180.777344 107.53125 179.4375 108.078125 C 164.230469 114.277344 148.867188 117.375 133.457031 117.375 Z M 133.457031 117.375 " fill-opacity="1" fill-rule="nonzero"/><path fill="#90b7f0" d="M 178.445312 176.144531 C 178.117188 176.144531 177.78125 176.082031 177.457031 175.949219 C 148.300781 164.070312 118.566406 164.066406 89.074219 175.945312 C 87.730469 176.484375 86.207031 175.835938 85.664062 174.492188 C 85.125 173.148438 85.773438 171.621094 87.117188 171.082031 C 117.914062 158.679688 148.976562 158.679688 179.4375 171.089844 C 180.777344 171.636719 181.421875 173.167969 180.875 174.507812 C 180.460938 175.527344 179.480469 176.140625 178.445312 176.144531 Z M 178.445312 176.144531 " fill-opacity="1" fill-rule="nonzero"/><g clip-path="url(#1dd97fb658)"><path fill="#90b7f0" d="M 133.273438 199.042969 C 131.824219 199.042969 130.648438 197.871094 130.648438 196.421875 L 130.648438 82.738281 C 130.648438 81.292969 131.824219 80.117188 133.273438 80.117188 C 134.71875 80.117188 135.894531 81.292969 135.894531 82.738281 L 135.894531 196.421875 C 135.894531 197.871094 134.71875 199.042969 133.273438 199.042969 Z M 133.273438 199.042969 " fill-opacity="1" fill-rule="nonzero"/></g><g clip-path="url(#ca5a670053)"><path fill="#d3f2ff" d="M 129.09375 195.890625 C 96.601562 195.890625 70.164062 169.214844 70.164062 136.425781 C 70.164062 103.636719 96.601562 76.964844 129.09375 76.964844 C 161.585938 76.964844 188.019531 103.636719 188.019531 136.425781 C 188.019531 169.214844 161.585938 195.890625 129.09375 195.890625 Z M 129.09375 82.207031 C 99.492188 82.207031 75.410156 106.53125 75.410156 136.425781 C 75.410156 166.324219 99.492188 190.644531 129.09375 190.644531 C 158.695312 190.644531 182.777344 166.324219 182.777344 136.425781 C 182.777344 106.53125 158.695312 82.207031 129.09375 82.207031 Z M 129.09375 82.207031 " fill-opacity="1" fill-rule="nonzero"/></g><g clip-path="url(#8d655251b5)"><path fill="#d3f2ff" d="M 129.09375 195.902344 C 120.210938 195.902344 111.984375 189.476562 105.929688 177.804688 C 100.160156 166.679688 96.984375 151.984375 96.984375 136.425781 C 96.984375 120.871094 100.160156 106.175781 105.929688 95.050781 C 111.984375 83.378906 120.210938 76.949219 129.09375 76.949219 C 137.980469 76.949219 146.207031 83.378906 152.261719 95.050781 C 158.03125 106.175781 161.210938 120.871094 161.210938 136.425781 C 161.210938 151.984375 158.03125 166.679688 152.261719 177.804688 C 146.207031 189.476562 137.980469 195.902344 129.09375 195.902344 Z M 129.09375 82.195312 C 114.53125 82.195312 102.226562 107.03125 102.226562 136.425781 C 102.226562 165.824219 114.53125 190.660156 129.09375 190.660156 C 135.925781 190.660156 142.5 185.234375 147.605469 175.390625 C 152.996094 164.996094 155.964844 151.160156 155.964844 136.425781 C 155.964844 107.03125 143.660156 82.195312 129.09375 82.195312 Z M 129.09375 82.195312 " fill-opacity="1" fill-rule="nonzero"/></g><g clip-path="url(#0131adbfdc)"><path fill="#d3f2ff" d="M 185.398438 139.046875 L 72.789062 139.046875 C 71.339844 139.046875 70.164062 137.875 70.164062 136.425781 C 70.164062 134.976562 71.339844 133.804688 72.789062 133.804688 L 185.398438 133.804688 C 186.847656 133.804688 188.019531 134.976562 188.019531 136.425781 C 188.019531 137.875 186.847656 139.046875 185.398438 139.046875 Z M 185.398438 139.046875 " fill-opacity="1" fill-rule="nonzero"/></g><path fill="#d3f2ff" d="M 129.28125 114.222656 C 113.851562 114.222656 98.375 111.113281 82.957031 104.902344 C 81.613281 104.359375 80.964844 102.832031 81.503906 101.488281 C 82.046875 100.144531 83.574219 99.496094 84.917969 100.039062 C 114.425781 111.929688 144.15625 111.941406 173.277344 100.066406 C 174.621094 99.519531 176.148438 100.164062 176.695312 101.503906 C 177.242188 102.84375 176.601562 104.375 175.257812 104.921875 C 160.054688 111.121094 144.691406 114.222656 129.28125 114.222656 Z M 129.28125 114.222656 " fill-opacity="1" fill-rule="nonzero"/><path fill="#d3f2ff" d="M 174.269531 172.988281 C 173.9375 172.988281 173.605469 172.925781 173.28125 172.792969 C 144.125 160.914062 114.386719 160.914062 84.898438 172.789062 C 83.554688 173.332031 82.027344 172.679688 81.484375 171.339844 C 80.945312 169.996094 81.59375 168.46875 82.9375 167.925781 C 113.734375 155.523438 144.796875 155.527344 175.257812 167.9375 C 176.597656 168.484375 177.242188 170.011719 176.695312 171.355469 C 176.28125 172.371094 175.300781 172.988281 174.269531 172.988281 Z M 174.269531 172.988281 " fill-opacity="1" fill-rule="nonzero"/><g clip-path="url(#39ae820599)"><path fill="#d3f2ff" d="M 129.09375 195.890625 C 127.644531 195.890625 126.472656 194.714844 126.472656 193.269531 L 126.472656 79.585938 C 126.472656 78.136719 127.644531 76.964844 129.09375 76.964844 C 130.542969 76.964844 131.714844 78.136719 131.714844 79.585938 L 131.714844 193.269531 C 131.714844 194.714844 130.542969 195.890625 129.09375 195.890625 Z M 129.09375 195.890625 " fill-opacity="1" fill-rule="nonzero"/></g></svg>