<svg xmlns="http://www.w3.org/2000/svg" xmlns:xlink="http://www.w3.org/1999/xlink" width="351" zoomAndPan="magnify" viewBox="0 0 263.25 207.000001" height="276" preserveAspectRatio="xMidYMid meet" version="1.0"><defs><clipPath id="58a271719d"><path d="M 230 100 L 262.242188 100 L 262.242188 127 L 230 127 Z M 230 100 " clip-rule="nonzero"/></clipPath><clipPath id="ebef9ef6ed"><path d="M 197 5.5 L 222 5.5 L 222 35 L 197 35 Z M 197 5.5 " clip-rule="nonzero"/></clipPath><clipPath id="c16a71c47c"><path d="M 196 5.5 L 224 5.5 L 224 37 L 196 37 Z M 196 5.5 " clip-rule="nonzero"/></clipPath><clipPath id="f8c63e7df7"><path d="M 0.257812 102 L 31 102 L 31 125 L 0.257812 125 Z M 0.257812 102 " clip-rule="nonzero"/></clipPath><clipPath id="903b541bf8"><path d="M 0.257812 100 L 33 100 L 33 127 L 0.257812 127 Z M 0.257812 100 " clip-rule="nonzero"/></clipPath><clipPath id="e6a412c2cb"><path d="M 40 5.5 L 65 5.5 L 65 36 L 40 36 Z M 40 5.5 " clip-rule="nonzero"/></clipPath><clipPath id="2c4ca68bfe"><path d="M 39 5.5 L 67 5.5 L 67 37 L 39 37 Z M 39 5.5 " clip-rule="nonzero"/></clipPath><clipPath id="c4b903cd44"><path d="M 45.234375 0 L 216.90625 0 L 216.90625 205.257812 L 45.234375 205.257812 Z M 45.234375 0 " clip-rule="nonzero"/></clipPath><clipPath id="0113ef0dfa"><path d="M 50.917969 7.023438 L 206 7.023438 L 206 192.128906 L 50.917969 192.128906 Z M 50.917969 7.023438 " clip-rule="nonzero"/></clipPath><clipPath id="319af701d4"><path d="M 53.746094 10.171875 L 208.996094 10.171875 L 208.996094 195.277344 L 53.746094 195.277344 Z M 53.746094 10.171875 " clip-rule="nonzero"/></clipPath><clipPath id="62cc49b820"><path d="M 74.460938 44.523438 L 192.394531 44.523438 L 192.394531 163.199219 L 74.460938 163.199219 Z M 74.460938 44.523438 " clip-rule="nonzero"/></clipPath><clipPath id="25162c2951"><path d="M 101 44.523438 L 166 44.523438 L 166 163.199219 L 101 163.199219 Z M 101 44.523438 " clip-rule="nonzero"/></clipPath><clipPath id="129460332f"><path d="M 74.460938 101 L 192.394531 101 L 192.394531 107 L 74.460938 107 Z M 74.460938 101 " clip-rule="nonzero"/></clipPath><clipPath id="d5a1b6b29e"><path d="M 130 44.523438 L 136 44.523438 L 136 163.199219 L 130 163.199219 Z M 130 44.523438 " clip-rule="nonzero"/></clipPath><clipPath id="8ef890198e"><path d="M 70.292969 41.375 L 188 41.375 L 188 160.050781 L 70.292969 160.050781 Z M 70.292969 41.375 " clip-rule="nonzero"/></clipPath><clipPath id="07c64f6867"><path d="M 97 41.375 L 162 41.375 L 162 160.050781 L 97 160.050781 Z M 97 41.375 " clip-rule="nonzero"/></clipPath><clipPath id="8f570f56cf"><path d="M 70.292969 98 L 188 98 L 188 104 L 70.292969 104 Z M 70.292969 98 " clip-rule="nonzero"/></clipPath><clipPath id="f9b6a576ad"><path d="M 126 41.375 L 132 41.375 L 132 160.050781 L 126 160.050781 Z M 126 41.375 " clip-rule="nonzero"/></clipPath></defs><path stroke-linecap="butt" transform="matrix(-0.280231, 0, 0, 0.280231, 237.048568, -60.109587)" fill-opacity="1" fill="#959595" fill-rule="evenodd" stroke-linejoin="miter" d="M 347.096555 896.456097 C 296.831158 861.844621 255.09666 892.232465 216.888825 926.593032 C 266.220284 940.002714 318.465073 946.080283 347.096555 896.456097 Z M 347.096555 896.456097 " stroke="#007d00" stroke-width="1" stroke-opacity="1" stroke-miterlimit="4"/><path stroke-linecap="butt" transform="matrix(-0.280231, 0, 0, 0.280231, 237.048568, -60.109587)" fill-opacity="1" fill="#959595" fill-rule="evenodd" stroke-linejoin="miter" d="M 335.011115 866.653707 C 332.780814 805.668928 283.491174 790.335612 233.114261 780.187745 C 251.806967 827.762842 278.110574 873.30279 335.011115 866.653707 Z M 335.011115 866.653707 " stroke="#007d00" stroke-width="1" stroke-opacity="1" stroke-miterlimit="4"/><path stroke-linecap="butt" transform="matrix(-0.280231, 0, 0, 0.280231, 237.048568, -60.109587)" fill-opacity="1" fill="#959595" fill-rule="evenodd" stroke-linejoin="miter" d="M 257.466355 868.967644 C 210.2955 830.230112 166.149489 856.993718 125.167718 888.008834 C 173.188875 905.530632 224.736695 915.999105 257.466355 868.967644 Z M 257.466355 868.967644 " stroke="#007d00" stroke-width="1" stroke-opacity="1" stroke-miterlimit="4"/><path stroke-linecap="butt" transform="matrix(-0.280231, 0, 0, 0.280231, 237.048568, -60.109587)" fill-opacity="1" fill="#959595" fill-rule="evenodd" stroke-linejoin="miter" d="M 213.724587 840.043434 C 243.122735 786.558041 208.692471 748.099297 170.651908 713.529639 C 162.274342 763.962309 161.479798 816.555582 213.724587 840.043434 Z M 213.724587 840.043434 " stroke="#007d00" stroke-width="1" stroke-opacity="1" stroke-miterlimit="4"/><path stroke-linecap="butt" transform="matrix(-0.280231, 0, 0, 0.280231, 237.048568, -60.109587)" fill-opacity="1" fill="#959595" fill-rule="evenodd" stroke-linejoin="miter" d="M 175.55857 838.858587 C 140.863458 788.648947 91.05806 802.25378 43.134478 820.807092 C 84.492613 850.846452 131.17559 875.08703 175.55857 838.858587 Z M 175.55857 838.858587 " stroke="#007d00" stroke-width="1" stroke-opacity="1" stroke-miterlimit="4"/><path stroke-linecap="butt" transform="matrix(-0.280231, 0, 0, 0.280231, 237.048568, -60.109587)" fill-opacity="1" fill="#959595" fill-rule="evenodd" stroke-linejoin="miter" d="M 126.561656 794.085305 C 171.460392 752.74111 151.067082 705.319346 126.031959 660.434548 C 102.028351 705.556315 84.520492 755.152622 126.561656 794.085305 Z M 126.561656 794.085305 " stroke="#007d00" stroke-width="1" stroke-opacity="1" stroke-miterlimit="4"/><path stroke-linecap="butt" transform="matrix(-0.280231, 0, 0, 0.280231, 237.048568, -60.109587)" fill-opacity="1" fill="#959595" fill-rule="evenodd" stroke-linejoin="miter" d="M 102.71138 789.025311 C 78.192014 733.142344 26.713891 737.017491 -23.858172 746.119905 C 11.032091 783.477438 52.236892 816.15134 102.71138 789.025311 Z M 102.71138 789.025311 " stroke="#007d00" stroke-width="1" stroke-opacity="1" stroke-miterlimit="4"/><path stroke-linecap="butt" transform="matrix(-0.280231, 0, 0, 0.280231, 237.048568, -60.109587)" fill-opacity="1" fill="#959595" fill-rule="evenodd" stroke-linejoin="miter" d="M 61.813245 734.996281 C 113.584095 702.712682 102.362896 652.32183 86.081702 603.575826 C 54.118708 643.470325 27.717526 688.954516 61.813245 734.996281 Z M 61.813245 734.996281 " stroke="#007d00" stroke-width="1" stroke-opacity="1" stroke-miterlimit="4"/><path stroke-linecap="butt" transform="matrix(-0.280231, 0, 0, 0.280231, 237.048568, -60.109587)" fill-opacity="1" fill="#959595" fill-rule="evenodd" stroke-linejoin="miter" d="M 43.733872 727.441139 C 30.226614 667.919994 -21.056357 661.995759 -72.436905 661.368487 C -45.241178 704.650256 -10.950308 744.530816 43.733872 727.441139 Z M 43.733872 727.441139 " stroke="#007d00" stroke-width="1" stroke-opacity="1" stroke-miterlimit="4"/><path stroke-linecap="butt" transform="matrix(-0.280231, 0, 0, 0.280231, 237.048568, -60.109587)" fill-opacity="1" fill="#959595" fill-rule="evenodd" stroke-linejoin="miter" d="M 28.358738 639.985481 C 83.488978 613.821268 78.108378 562.482539 67.514451 512.203203 C 31.188431 548.180737 -0.244866 590.333416 28.358738 639.985481 Z M 28.358738 639.985481 " stroke="#007d00" stroke-width="1" stroke-opacity="1" stroke-miterlimit="4"/><path fill="#959595" d="M 231.679688 124.003906 C 233.453125 106.992188 247.527344 103.636719 261.804688 101.75 C 255.679688 114.699219 247.464844 126.9375 231.679688 124.003906 Z M 231.679688 124.003906 " fill-opacity="1" fill-rule="evenodd"/><g clip-path="url(#58a271719d)"><path stroke-linecap="butt" transform="matrix(-0.280231, 0, 0, 0.280231, 237.048568, -60.109587)" fill="none" stroke-linejoin="miter" d="M 19.158748 657.005461 C 12.830271 596.29947 -37.393308 584.325544 -88.341735 577.592825 C -66.48479 623.801863 -37.170278 667.473934 19.158748 657.005461 Z M 19.158748 657.005461 " stroke="#007d00" stroke-width="1" stroke-opacity="1" stroke-miterlimit="4"/></g><path stroke-linecap="butt" transform="matrix(-0.280231, 0, 0, 0.280231, 237.048568, -60.109587)" fill-opacity="1" fill="#959595" fill-rule="evenodd" stroke-linejoin="miter" d="M 5.177552 540.486201 C 64.768393 527.313488 70.985356 476.072335 71.891415 424.691787 C 28.456313 451.636605 -11.605459 485.704445 5.177552 540.486201 Z M 5.177552 540.486201 " stroke="#007d00" stroke-width="1" stroke-opacity="1" stroke-miterlimit="4"/><path stroke-linecap="butt" transform="matrix(-0.280231, 0, 0, 0.280231, 237.048568, -60.109587)" fill-opacity="1" fill="#959595" fill-rule="evenodd" stroke-linejoin="miter" d="M -6.489707 585.245543 C 10.753303 526.714095 -31.106649 496.521402 -75.67084 470.900826 C -73.050237 521.946828 -62.567825 573.494648 -6.489707 585.245543 Z M -6.489707 585.245543 " stroke="#007d00" stroke-width="1" stroke-opacity="1" stroke-miterlimit="4"/><path stroke-linecap="butt" transform="matrix(-0.280231, 0, 0, 0.280231, 237.048568, -60.109587)" fill-opacity="1" fill="#959595" fill-rule="evenodd" stroke-linejoin="miter" d="M 28.609647 425.500271 C 89.566547 428.552995 109.109555 380.768807 123.578629 331.451288 C 74.567776 345.96218 26.909042 368.223367 28.609647 425.500271 Z M 28.609647 425.500271 " stroke="#007d00" stroke-width="1" stroke-opacity="1" stroke-miterlimit="4"/><path stroke-linecap="butt" transform="matrix(-0.280231, 0, 0, 0.280231, 237.048568, -60.109587)" fill-opacity="1" fill="#959595" fill-rule="evenodd" stroke-linejoin="miter" d="M -10.629703 491.19656 C 26.002983 442.380858 -2.670318 399.447574 -35.441795 359.87368 C -50.844808 408.619685 -59.041162 460.557807 -10.629703 491.19656 Z M -10.629703 491.19656 " stroke="#007d00" stroke-width="1" stroke-opacity="1" stroke-miterlimit="4"/><g clip-path="url(#ebef9ef6ed)"><path fill="#959595" d="M 221.558594 34.796875 C 204.484375 33.8125 200.476562 19.910156 197.933594 5.738281 C 211.152344 11.253906 223.757812 18.894531 221.558594 34.796875 Z M 221.558594 34.796875 " fill-opacity="1" fill-rule="evenodd"/></g><g clip-path="url(#c16a71c47c)"><path stroke-linecap="butt" transform="matrix(-0.280231, 0, 0, 0.280231, 237.048568, -60.109587)" fill="none" stroke-linejoin="miter" d="M 55.275677 338.671886 C 116.204698 335.159163 130.5065 285.548916 139.581035 234.976853 C 92.41018 254.659254 47.427807 281.924678 55.275677 338.671886 Z M 55.275677 338.671886 " stroke="#007d00" stroke-width="1" stroke-opacity="1" stroke-miterlimit="4"/></g><path stroke-linecap="butt" transform="matrix(-0.280231, 0, 0, 0.280231, 237.048568, -60.109587)" fill-opacity="1" fill="#959595" fill-rule="evenodd" stroke-linejoin="miter" d="M 16.384812 391.334856 C 62.161729 350.966417 42.813873 303.112532 18.754506 257.698039 C -6.224859 302.304049 -24.80605 351.510053 16.384812 391.334856 Z M 16.384812 391.334856 " stroke="#007d00" stroke-width="1" stroke-opacity="1" stroke-miterlimit="4"/><path stroke-linecap="butt" transform="matrix(0.280231, 0, 0, 0.280231, 25.350629, -59.862432)" fill-opacity="1" fill="#959595" fill-rule="evenodd" stroke-linejoin="miter" d="M 347.093844 896.452308 C 296.828447 861.840832 255.093949 892.228676 216.886114 926.603182 C 266.217573 939.998925 318.462361 946.076493 347.093844 896.452308 Z M 347.093844 896.452308 " stroke="#007d00" stroke-width="1" stroke-opacity="1" stroke-miterlimit="4"/><path stroke-linecap="butt" transform="matrix(0.280231, 0, 0, 0.280231, 25.350629, -59.862432)" fill-opacity="1" fill="#959595" fill-rule="evenodd" stroke-linejoin="miter" d="M 335.008403 866.663857 C 332.778103 805.679078 283.488462 790.331823 233.11155 780.183956 C 251.804256 827.759053 278.107862 873.31294 335.008403 866.663857 Z M 335.008403 866.663857 " stroke="#007d00" stroke-width="1" stroke-opacity="1" stroke-miterlimit="4"/><path stroke-linecap="butt" transform="matrix(0.280231, 0, 0, 0.280231, 25.350629, -59.862432)" fill-opacity="1" fill="#959595" fill-rule="evenodd" stroke-linejoin="miter" d="M 257.463643 868.963854 C 210.306727 830.240262 166.160717 856.989929 125.165007 888.005045 C 173.186164 905.526843 224.733984 915.995316 257.463643 868.963854 Z M 257.463643 868.963854 " stroke="#007d00" stroke-width="1" stroke-opacity="1" stroke-miterlimit="4"/><path stroke-linecap="butt" transform="matrix(0.280231, 0, 0, 0.280231, 25.350629, -59.862432)" fill-opacity="1" fill="#959595" fill-rule="evenodd" stroke-linejoin="miter" d="M 213.735814 840.053584 C 243.120023 786.568191 208.68976 748.095508 170.649197 713.52585 C 162.271631 763.95852 161.477086 816.551793 213.735814 840.053584 Z M 213.735814 840.053584 " stroke="#007d00" stroke-width="1" stroke-opacity="1" stroke-miterlimit="4"/><path stroke-linecap="butt" transform="matrix(0.280231, 0, 0, 0.280231, 25.350629, -59.862432)" fill-opacity="1" fill="#959595" fill-rule="evenodd" stroke-linejoin="miter" d="M 175.555858 838.854798 C 140.860746 788.659098 91.069288 802.249991 43.145706 820.803303 C 84.489901 850.856602 131.172878 875.083241 175.555858 838.854798 Z M 175.555858 838.854798 " stroke="#007d00" stroke-width="1" stroke-opacity="1" stroke-miterlimit="4"/><path stroke-linecap="butt" transform="matrix(0.280231, 0, 0, 0.280231, 25.350629, -59.862432)" fill-opacity="1" fill="#959595" fill-rule="evenodd" stroke-linejoin="miter" d="M 126.558944 794.081516 C 171.457681 752.73732 151.07831 705.315556 126.029248 660.430759 C 102.025639 705.566465 84.51778 755.148833 126.558944 794.081516 Z M 126.558944 794.081516 " stroke="#007d00" stroke-width="1" stroke-opacity="1" stroke-miterlimit="4"/><path stroke-linecap="butt" transform="matrix(0.280231, 0, 0, 0.280231, 25.350629, -59.862432)" fill-opacity="1" fill="#959595" fill-rule="evenodd" stroke-linejoin="miter" d="M 102.708669 789.035461 C 78.203242 733.138555 26.725119 737.013702 -23.860884 746.116116 C 11.029379 783.487588 52.24812 816.147551 102.708669 789.035461 Z M 102.708669 789.035461 " stroke="#007d00" stroke-width="1" stroke-opacity="1" stroke-miterlimit="4"/><path stroke-linecap="butt" transform="matrix(0.280231, 0, 0, 0.280231, 25.350629, -59.862432)" fill-opacity="1" fill="#959595" fill-rule="evenodd" stroke-linejoin="miter" d="M 61.810533 735.006432 C 113.595323 702.708893 102.360184 652.318041 86.078991 603.572036 C 54.115997 643.466536 27.714815 688.950727 61.810533 735.006432 Z M 61.810533 735.006432 " stroke="#007d00" stroke-width="1" stroke-opacity="1" stroke-miterlimit="4"/><path stroke-linecap="butt" transform="matrix(0.280231, 0, 0, 0.280231, 25.350629, -59.862432)" fill-opacity="1" fill="#959595" fill-rule="evenodd" stroke-linejoin="miter" d="M 43.73116 727.437349 C 30.223903 667.930145 -21.045129 661.99197 -72.439616 661.364698 C -45.24389 704.646466 -10.95302 744.527027 43.73116 727.437349 Z M 43.73116 727.437349 " stroke="#007d00" stroke-width="1" stroke-opacity="1" stroke-miterlimit="4"/><path stroke-linecap="butt" transform="matrix(0.280231, 0, 0, 0.280231, 25.350629, -59.862432)" fill-opacity="1" fill="#959595" fill-rule="evenodd" stroke-linejoin="miter" d="M 28.356026 639.981692 C 83.486266 613.831419 78.105666 562.492689 67.511739 512.199413 C 31.199659 548.176948 -0.247577 590.343567 28.356026 639.981692 Z M 28.356026 639.981692 " stroke="#007d00" stroke-width="1" stroke-opacity="1" stroke-miterlimit="4"/><g clip-path="url(#f8c63e7df7)"><path fill="#959595" d="M 30.722656 124.25 C 28.945312 107.242188 14.875 103.882812 0.59375 102 C 6.71875 114.949219 14.933594 127.183594 30.722656 124.25 Z M 30.722656 124.25 " fill-opacity="1" fill-rule="evenodd"/></g><g clip-path="url(#903b541bf8)"><path stroke-linecap="butt" transform="matrix(0.280231, 0, 0, 0.280231, 25.350629, -59.862432)" fill="none" stroke-linejoin="miter" d="M 19.169976 657.001672 C 12.827559 596.30962 -37.38208 584.321755 -88.344446 577.602975 C -66.487502 623.812013 -37.17299 667.470145 19.169976 657.001672 Z M 19.169976 657.001672 " stroke="#007d00" stroke-width="1" stroke-opacity="1" stroke-miterlimit="4"/></g><path stroke-linecap="butt" transform="matrix(0.280231, 0, 0, 0.280231, 25.350629, -59.862432)" fill-opacity="1" fill="#959595" fill-rule="evenodd" stroke-linejoin="miter" d="M 5.174841 540.496351 C 64.765682 527.323639 70.982644 476.068546 71.902643 424.687998 C 28.453602 451.646755 -11.608171 485.714595 5.174841 540.496351 Z M 5.174841 540.496351 " stroke="#007d00" stroke-width="1" stroke-opacity="1" stroke-miterlimit="4"/><path stroke-linecap="butt" transform="matrix(0.280231, 0, 0, 0.280231, 25.350629, -59.862432)" fill-opacity="1" fill="#959595" fill-rule="evenodd" stroke-linejoin="miter" d="M -6.492419 585.255694 C 10.764531 526.710306 -31.10936 496.517613 -75.673552 470.897036 C -73.052949 521.956978 -62.556597 573.490859 -6.492419 585.255694 Z M -6.492419 585.255694 " stroke="#007d00" stroke-width="1" stroke-opacity="1" stroke-miterlimit="4"/><path stroke-linecap="butt" transform="matrix(0.280231, 0, 0, 0.280231, 25.350629, -59.862432)" fill-opacity="1" fill="#959595" fill-rule="evenodd" stroke-linejoin="miter" d="M 28.620874 425.496482 C 89.563835 428.549206 109.106843 380.778958 123.575917 331.461438 C 74.565064 345.958391 26.92027 368.233517 28.620874 425.496482 Z M 28.620874 425.496482 " stroke="#007d00" stroke-width="1" stroke-opacity="1" stroke-miterlimit="4"/><path stroke-linecap="butt" transform="matrix(0.280231, 0, 0, 0.280231, 25.350629, -59.862432)" fill-opacity="1" fill="#959595" fill-rule="evenodd" stroke-linejoin="miter" d="M -10.632414 491.192771 C 26.000271 442.377069 -2.65909 399.443785 -35.444507 359.869891 C -50.84752 408.615895 -59.043874 460.554018 -10.632414 491.192771 Z M -10.632414 491.192771 " stroke="#007d00" stroke-width="1" stroke-opacity="1" stroke-miterlimit="4"/><g clip-path="url(#e6a412c2cb)"><path fill="#959595" d="M 40.839844 35.042969 C 57.914062 34.058594 61.921875 20.15625 64.464844 5.984375 C 51.246094 11.5 38.640625 19.140625 40.839844 35.042969 Z M 40.839844 35.042969 " fill-opacity="1" fill-rule="evenodd"/></g><g clip-path="url(#2c4ca68bfe)"><path stroke-linecap="butt" transform="matrix(0.280231, 0, 0, 0.280231, 25.350629, -59.862432)" fill="none" stroke-linejoin="miter" d="M 55.272965 338.668097 C 116.201986 335.155373 130.503788 285.545127 139.578323 234.973064 C 92.407468 254.655465 47.425095 281.920889 55.272965 338.668097 Z M 55.272965 338.668097 " stroke="#007d00" stroke-width="1" stroke-opacity="1" stroke-miterlimit="4"/></g><path stroke-linecap="butt" transform="matrix(0.280231, 0, 0, 0.280231, 25.350629, -59.862432)" fill-opacity="1" fill="#959595" fill-rule="evenodd" stroke-linejoin="miter" d="M 16.39604 391.331067 C 62.172957 350.976567 42.811161 303.108743 18.751795 257.69425 C -6.227571 302.300259 -24.808762 351.506264 16.39604 391.331067 Z M 16.39604 391.331067 " stroke="#007d00" stroke-width="1" stroke-opacity="1" stroke-miterlimit="4"/><path stroke-linecap="round" transform="matrix(0.377247, 0, 0, 0.28847, -1.84582, -73.417779)" fill-opacity="1" fill="#959595" fill-rule="nonzero" stroke-linejoin="miter" d="M 365.67857 905.896428 C 365.67857 907.020353 365.595733 908.130737 365.430059 909.241121 C 365.264385 910.351504 365.00552 911.421264 364.684527 912.463942 C 364.353179 913.506619 363.94935 914.495131 363.462683 915.429479 C 362.986371 916.363826 362.447931 917.230467 361.837009 918.029402 C 361.226087 918.828336 360.563392 919.546023 359.838569 920.168921 C 359.124101 920.79182 358.368214 921.319929 357.570909 921.753249 C 356.773604 922.18657 355.95559 922.51156 355.106512 922.728221 C 354.267788 922.958422 353.408356 923.066752 352.548923 923.066752 C 351.68949 923.066752 350.830058 922.958422 349.980979 922.728221 C 349.142256 922.51156 348.324242 922.18657 347.526937 921.753249 C 346.729632 921.319929 345.973745 920.79182 345.248922 920.168921 C 344.534454 919.546023 343.871759 918.828336 343.260837 918.029402 C 342.649915 917.230467 342.111475 916.363826 341.624809 915.429479 C 341.148496 914.495131 340.744667 913.506619 340.413319 912.463942 C 340.081971 911.421264 339.833461 910.351504 339.667787 909.241121 C 339.502113 908.130737 339.419276 907.020353 339.419276 905.896428 C 339.419276 904.758962 339.502113 903.648578 339.667787 902.538194 C 339.833461 901.427811 340.081971 900.358051 340.413319 899.315373 C 340.744667 898.272696 341.148496 897.284184 341.624809 896.349836 C 342.111475 895.415489 342.649915 894.548848 343.260837 893.749913 C 343.871759 892.950979 344.534454 892.233292 345.248922 891.610394 C 345.973745 890.987495 346.729632 890.459386 347.526937 890.026066 C 348.324242 889.592745 349.142256 889.267755 349.980979 889.051095 C 350.830058 888.820893 351.68949 888.712563 352.548923 888.712563 C 353.408356 888.712563 354.267788 888.820893 355.106512 889.051095 C 355.95559 889.267755 356.773604 889.592745 357.570909 890.026066 C 358.368214 890.459386 359.124101 890.987495 359.838569 891.610394 C 360.563392 892.233292 361.226087 892.950979 361.837009 893.749913 C 362.447931 894.548848 362.986371 895.415489 363.462683 896.349836 C 363.94935 897.284184 364.353179 898.272696 364.684527 899.315373 C 365.00552 900.358051 365.264385 901.427811 365.430059 902.538194 C 365.595733 903.648578 365.67857 904.758962 365.67857 905.896428 Z M 365.67857 905.896428 " stroke="#007d00" stroke-width="0.849" stroke-opacity="1" stroke-miterlimit="4"/><g clip-path="url(#c4b903cd44)"><path fill="#b4b4b4" d="M 131.144531 0 C 158.398438 21.71875 196.300781 34.328125 217.136719 40.050781 C 213.515625 174.34375 145.972656 201.171875 131.367188 205.410156 C 116.84375 201.085938 49.78125 173.914062 45.257812 40.019531 C 66.109375 34.28125 103.9375 21.671875 131.144531 0 Z M 131.144531 0 " fill-opacity="1" fill-rule="evenodd"/></g><path fill="#b4b4b4" d="M 92.125 96.582031 L 91.945312 96.226562 L 91.5625 96.328125 L 91.839844 96.542969 C 91.933594 96.574219 92.03125 96.585938 92.125 96.582031 Z M 92.125 96.582031 " fill-opacity="1" fill-rule="evenodd"/><path fill="#b4b4b4" d="M 92.761719 96.277344 C 92.648438 96.382812 92.519531 96.464844 92.414062 96.523438 C 92.5 96.488281 92.585938 96.441406 92.671875 96.363281 C 92.699219 96.339844 92.730469 96.3125 92.761719 96.277344 Z M 92.761719 96.277344 " fill-opacity="1" fill-rule="evenodd"/><g clip-path="url(#0113ef0dfa)"><path fill="#e3e6e7" d="M 128.324219 7.023438 C 152.875 26.589844 187.027344 37.953125 205.800781 43.105469 C 202.535156 164.101562 141.683594 188.273438 128.523438 192.09375 C 115.433594 188.195312 55.015625 163.714844 50.941406 43.078125 C 69.726562 37.90625 103.808594 26.546875 128.324219 7.023438 Z M 128.324219 7.023438 " fill-opacity="1" fill-rule="evenodd"/></g><path fill="#e3e6e7" d="M 93.167969 94.039062 L 93.003906 93.71875 L 92.660156 93.808594 L 92.90625 94.007812 C 92.992188 94.035156 93.082031 94.042969 93.167969 94.039062 Z M 93.167969 94.039062 " fill-opacity="1" fill-rule="evenodd"/><path fill="#e3e6e7" d="M 93.738281 93.765625 C 93.636719 93.859375 93.523438 93.933594 93.425781 93.988281 C 93.503906 93.957031 93.582031 93.910156 93.660156 93.84375 C 93.683594 93.824219 93.710938 93.796875 93.738281 93.765625 Z M 93.738281 93.765625 " fill-opacity="1" fill-rule="evenodd"/><g clip-path="url(#319af701d4)"><path fill="#cacaca" d="M 131.148438 10.171875 C 155.703125 29.738281 189.855469 41.101562 208.625 46.253906 C 205.363281 167.25 144.511719 191.421875 131.347656 195.242188 C 118.261719 191.34375 57.839844 166.863281 53.769531 46.226562 C 72.554688 41.058594 106.636719 29.695312 131.148438 10.171875 Z M 131.148438 10.171875 " fill-opacity="1" fill-rule="evenodd"/></g><path fill="#cacaca" d="M 95.996094 97.191406 L 95.828125 96.867188 L 95.488281 96.957031 L 95.734375 97.15625 C 95.820312 97.183594 95.90625 97.195312 95.996094 97.191406 Z M 95.996094 97.191406 " fill-opacity="1" fill-rule="evenodd"/><path fill="#cacaca" d="M 96.566406 96.914062 C 96.464844 97.007812 96.351562 97.082031 96.25 97.136719 C 96.332031 97.105469 96.410156 97.0625 96.484375 96.992188 C 96.507812 96.972656 96.539062 96.949219 96.566406 96.914062 Z M 96.566406 96.914062 " fill-opacity="1" fill-rule="evenodd"/><g clip-path="url(#62cc49b820)"><path fill="#b4b4b4" d="M 133.269531 163.21875 C 100.839844 163.21875 74.457031 136.59375 74.457031 103.871094 C 74.457031 71.148438 100.839844 44.523438 133.269531 44.523438 C 165.699219 44.523438 192.078125 71.148438 192.078125 103.871094 C 192.078125 136.59375 165.699219 163.21875 133.269531 163.21875 Z M 133.269531 49.757812 C 103.726562 49.757812 79.691406 74.03125 79.691406 103.871094 C 79.691406 133.707031 103.726562 157.984375 133.269531 157.984375 C 162.8125 157.984375 186.847656 133.707031 186.847656 103.871094 C 186.847656 74.03125 162.8125 49.757812 133.269531 49.757812 Z M 133.269531 49.757812 " fill-opacity="1" fill-rule="nonzero"/></g><g clip-path="url(#25162c2951)"><path fill="#b4b4b4" d="M 133.269531 163.230469 C 124.402344 163.230469 116.195312 156.816406 110.152344 145.167969 C 104.394531 134.0625 101.222656 119.398438 101.222656 103.871094 C 101.222656 88.347656 104.394531 73.679688 110.152344 62.578125 C 116.195312 50.925781 124.402344 44.511719 133.269531 44.511719 C 142.136719 44.511719 150.347656 50.929688 156.390625 62.578125 C 162.148438 73.679688 165.324219 88.34375 165.324219 103.871094 C 165.324219 119.398438 162.148438 134.066406 156.390625 145.167969 C 150.347656 156.816406 142.136719 163.230469 133.269531 163.230469 Z M 133.269531 49.746094 C 118.734375 49.746094 106.453125 74.53125 106.453125 103.871094 C 106.453125 133.210938 118.734375 157.996094 133.269531 157.996094 C 140.085938 157.996094 146.648438 152.582031 151.746094 142.757812 C 157.125 132.386719 160.089844 118.574219 160.089844 103.871094 C 160.089844 74.53125 147.808594 49.746094 133.269531 49.746094 Z M 133.269531 49.746094 " fill-opacity="1" fill-rule="nonzero"/></g><g clip-path="url(#129460332f)"><path fill="#b4b4b4" d="M 189.464844 106.488281 L 77.074219 106.488281 C 75.628906 106.488281 74.457031 105.316406 74.457031 103.871094 C 74.457031 102.425781 75.628906 101.253906 77.074219 101.253906 L 189.464844 101.253906 C 190.910156 101.253906 192.078125 102.425781 192.078125 103.871094 C 192.078125 105.316406 190.910156 106.488281 189.464844 106.488281 Z M 189.464844 106.488281 " fill-opacity="1" fill-rule="nonzero"/></g><path fill="#b4b4b4" d="M 133.453125 81.710938 C 118.054688 81.710938 102.609375 78.609375 87.222656 72.40625 C 85.882812 71.867188 85.234375 70.34375 85.773438 69.003906 C 86.3125 67.660156 87.839844 67.011719 89.179688 67.554688 C 118.628906 79.421875 148.300781 79.433594 177.367188 67.582031 C 178.707031 67.035156 180.234375 67.679688 180.777344 69.015625 C 181.324219 70.355469 180.679688 71.882812 179.34375 72.429688 C 164.167969 78.617188 148.835938 81.710938 133.453125 81.710938 Z M 133.453125 81.710938 " fill-opacity="1" fill-rule="nonzero"/><path fill="#b4b4b4" d="M 178.355469 140.359375 C 178.027344 140.359375 177.691406 140.296875 177.367188 140.164062 C 148.269531 128.3125 118.589844 128.308594 89.160156 140.164062 C 87.820312 140.703125 86.292969 140.054688 85.753906 138.714844 C 85.214844 137.371094 85.863281 135.847656 87.203125 135.308594 C 117.941406 122.929688 148.941406 122.933594 179.34375 135.320312 C 180.679688 135.863281 181.324219 137.390625 180.777344 138.730469 C 180.363281 139.746094 179.386719 140.359375 178.355469 140.359375 Z M 178.355469 140.359375 " fill-opacity="1" fill-rule="nonzero"/><g clip-path="url(#d5a1b6b29e)"><path fill="#b4b4b4" d="M 133.269531 163.21875 C 131.824219 163.21875 130.652344 162.046875 130.652344 160.601562 L 130.652344 47.140625 C 130.652344 45.695312 131.824219 44.523438 133.269531 44.523438 C 134.714844 44.523438 135.886719 45.695312 135.886719 47.140625 L 135.886719 160.601562 C 135.886719 162.046875 134.714844 163.21875 133.269531 163.21875 Z M 133.269531 163.21875 " fill-opacity="1" fill-rule="nonzero"/></g><g clip-path="url(#8ef890198e)"><path fill="#e3e6e7" d="M 129.097656 160.066406 C 96.667969 160.066406 70.289062 133.445312 70.289062 100.722656 C 70.289062 68 96.667969 41.375 129.097656 41.375 C 161.527344 41.375 187.910156 68 187.910156 100.722656 C 187.910156 133.445312 161.527344 160.066406 129.097656 160.066406 Z M 129.097656 46.609375 C 99.554688 46.609375 75.519531 70.882812 75.519531 100.722656 C 75.519531 130.558594 99.554688 154.835938 129.097656 154.835938 C 158.640625 154.835938 182.675781 130.558594 182.675781 100.722656 C 182.675781 70.882812 158.640625 46.609375 129.097656 46.609375 Z M 129.097656 46.609375 " fill-opacity="1" fill-rule="nonzero"/></g><g clip-path="url(#07c64f6867)"><path fill="#e3e6e7" d="M 129.097656 160.082031 C 120.234375 160.082031 112.023438 153.664062 105.980469 142.019531 C 100.222656 130.914062 97.050781 116.25 97.050781 100.722656 C 97.050781 85.195312 100.222656 70.53125 105.980469 59.429688 C 112.023438 47.777344 120.234375 41.363281 129.097656 41.363281 C 137.964844 41.363281 146.179688 47.777344 152.21875 59.429688 C 157.980469 70.53125 161.152344 85.195312 161.152344 100.722656 C 161.152344 116.25 157.980469 130.917969 152.21875 142.019531 C 146.179688 153.664062 137.964844 160.082031 129.097656 160.082031 Z M 129.097656 46.597656 C 114.5625 46.597656 102.285156 71.382812 102.285156 100.722656 C 102.285156 130.058594 114.5625 154.847656 129.097656 154.847656 C 135.914062 154.847656 142.476562 149.433594 147.574219 139.609375 C 152.957031 129.238281 155.917969 115.425781 155.917969 100.722656 C 155.917969 71.382812 143.636719 46.597656 129.097656 46.597656 Z M 129.097656 46.597656 " fill-opacity="1" fill-rule="nonzero"/></g><g clip-path="url(#8f570f56cf)"><path fill="#e3e6e7" d="M 185.292969 103.339844 L 72.902344 103.339844 C 71.457031 103.339844 70.289062 102.167969 70.289062 100.722656 C 70.289062 99.277344 71.457031 98.105469 72.902344 98.105469 L 185.292969 98.105469 C 186.738281 98.105469 187.910156 99.277344 187.910156 100.722656 C 187.910156 102.167969 186.738281 103.339844 185.292969 103.339844 Z M 185.292969 103.339844 " fill-opacity="1" fill-rule="nonzero"/></g><path fill="#e3e6e7" d="M 129.285156 78.5625 C 113.886719 78.5625 98.441406 75.460938 83.050781 69.257812 C 81.710938 68.71875 81.0625 67.195312 81.605469 65.855469 C 82.144531 64.511719 83.667969 63.863281 85.007812 64.40625 C 114.460938 76.273438 144.128906 76.285156 173.195312 64.433594 C 174.535156 63.886719 176.0625 64.53125 176.609375 65.867188 C 177.152344 67.207031 176.511719 68.734375 175.171875 69.28125 C 159.996094 75.46875 144.664062 78.5625 129.285156 78.5625 Z M 129.285156 78.5625 " fill-opacity="1" fill-rule="nonzero"/><path fill="#e3e6e7" d="M 174.183594 137.210938 C 173.855469 137.210938 173.519531 137.148438 173.199219 137.015625 C 144.097656 125.164062 114.421875 125.160156 84.988281 137.015625 C 83.648438 137.554688 82.125 136.90625 81.585938 135.566406 C 81.042969 134.222656 81.695312 132.699219 83.035156 132.160156 C 113.769531 119.78125 144.769531 119.785156 175.171875 132.171875 C 176.511719 132.714844 177.152344 134.242188 176.609375 135.582031 C 176.195312 136.597656 175.214844 137.210938 174.183594 137.210938 Z M 174.183594 137.210938 " fill-opacity="1" fill-rule="nonzero"/><g clip-path="url(#f9b6a576ad)"><path fill="#e3e6e7" d="M 129.097656 160.066406 C 127.652344 160.066406 126.480469 158.894531 126.480469 157.453125 L 126.480469 43.992188 C 126.480469 42.546875 127.652344 41.375 129.097656 41.375 C 130.542969 41.375 131.714844 42.546875 131.714844 43.992188 L 131.714844 157.453125 C 131.714844 158.894531 130.542969 160.066406 129.097656 160.066406 Z M 129.097656 160.066406 " fill-opacity="1" fill-rule="nonzero"/></g></svg>