<svg xmlns="http://www.w3.org/2000/svg" xmlns:xlink="http://www.w3.org/1999/xlink" width="231" zoomAndPan="magnify" viewBox="0 0 173.25 207.000001" height="276" preserveAspectRatio="xMidYMid meet" version="1.0"><defs><clipPath id="b8c8c7e136"><path d="M 0.0429688 0 L 171.714844 0 L 171.714844 205.257812 L 0.0429688 205.257812 Z M 0.0429688 0 " clip-rule="nonzero"/></clipPath><clipPath id="3709228aa7"><path d="M 5.730469 7.023438 L 160.980469 7.023438 L 160.980469 192.128906 L 5.730469 192.128906 Z M 5.730469 7.023438 " clip-rule="nonzero"/></clipPath><clipPath id="e0051f4c84"><path d="M 8.554688 10.171875 L 163.804688 10.171875 L 163.804688 195.277344 L 8.554688 195.277344 Z M 8.554688 10.171875 " clip-rule="nonzero"/></clipPath><clipPath id="c2a0a4031c"><path d="M 31.355469 43.34375 L 149 43.34375 L 149 162.023438 L 31.355469 162.023438 Z M 31.355469 43.34375 " clip-rule="nonzero"/></clipPath><clipPath id="3546d42ee1"><path d="M 58 43.34375 L 123 43.34375 L 123 162.023438 L 58 162.023438 Z M 58 43.34375 " clip-rule="nonzero"/></clipPath><clipPath id="f62c7cb402"><path d="M 31.355469 100 L 149 100 L 149 106 L 31.355469 106 Z M 31.355469 100 " clip-rule="nonzero"/></clipPath><clipPath id="978b6396dc"><path d="M 87 43.34375 L 93 43.34375 L 93 162.023438 L 87 162.023438 Z M 87 43.34375 " clip-rule="nonzero"/></clipPath><clipPath id="ac4508276a"><path d="M 27.1875 40.195312 L 145 40.195312 L 145 158.875 L 27.1875 158.875 Z M 27.1875 40.195312 " clip-rule="nonzero"/></clipPath><clipPath id="589b0353df"><path d="M 53 40.195312 L 119 40.195312 L 119 158.875 L 53 158.875 Z M 53 40.195312 " clip-rule="nonzero"/></clipPath><clipPath id="a72e38948f"><path d="M 27.1875 96 L 145 96 L 145 103 L 27.1875 103 Z M 27.1875 96 " clip-rule="nonzero"/></clipPath><clipPath id="57559c3af4"><path d="M 83 40.195312 L 89 40.195312 L 89 158.875 L 83 158.875 Z M 83 40.195312 " clip-rule="nonzero"/></clipPath></defs><g clip-path="url(#b8c8c7e136)"><path fill="#b74e14" d="M 85.953125 0 C 113.207031 21.71875 151.113281 34.328125 171.945312 40.050781 C 168.324219 174.34375 100.785156 201.171875 86.175781 205.410156 C 71.652344 201.085938 4.589844 173.914062 0.0703125 40.019531 C 20.921875 34.28125 58.746094 21.671875 85.953125 0 Z M 85.953125 0 " fill-opacity="1" fill-rule="evenodd"/></g><path fill="#b74e14" d="M 46.9375 96.582031 L 46.753906 96.226562 L 46.375 96.328125 L 46.648438 96.542969 C 46.742188 96.574219 46.839844 96.585938 46.9375 96.582031 Z M 46.9375 96.582031 " fill-opacity="1" fill-rule="evenodd"/><path fill="#b74e14" d="M 47.570312 96.277344 C 47.457031 96.382812 47.332031 96.464844 47.222656 96.523438 C 47.308594 96.488281 47.398438 96.441406 47.480469 96.363281 C 47.507812 96.339844 47.539062 96.3125 47.570312 96.277344 Z M 47.570312 96.277344 " fill-opacity="1" fill-rule="evenodd"/><g clip-path="url(#3709228aa7)"><path fill="#f58926" d="M 83.132812 7.023438 C 107.683594 26.589844 141.835938 37.953125 160.609375 43.105469 C 157.347656 164.101562 96.492188 188.273438 83.332031 192.09375 C 70.246094 188.195312 9.824219 163.714844 5.75 43.078125 C 24.535156 37.90625 58.617188 26.546875 83.132812 7.023438 Z M 83.132812 7.023438 " fill-opacity="1" fill-rule="evenodd"/></g><path fill="#f58926" d="M 47.976562 94.039062 L 47.8125 93.71875 L 47.46875 93.808594 L 47.71875 94.007812 C 47.804688 94.035156 47.890625 94.042969 47.976562 94.039062 Z M 47.976562 94.039062 " fill-opacity="1" fill-rule="evenodd"/><path fill="#f58926" d="M 48.546875 93.765625 C 48.449219 93.859375 48.332031 93.933594 48.234375 93.988281 C 48.3125 93.957031 48.390625 93.910156 48.46875 93.84375 C 48.492188 93.824219 48.519531 93.796875 48.546875 93.765625 Z M 48.546875 93.765625 " fill-opacity="1" fill-rule="evenodd"/><g clip-path="url(#e0051f4c84)"><path fill="#d5550e" d="M 85.960938 10.171875 C 110.511719 29.738281 144.664062 41.101562 163.4375 46.253906 C 160.171875 167.25 99.320312 191.421875 86.160156 195.242188 C 73.070312 191.34375 12.652344 166.863281 8.578125 46.226562 C 27.363281 41.058594 61.445312 29.695312 85.960938 10.171875 Z M 85.960938 10.171875 " fill-opacity="1" fill-rule="evenodd"/></g><path fill="#d5550e" d="M 50.804688 97.191406 L 50.640625 96.867188 L 50.296875 96.957031 L 50.542969 97.15625 C 50.628906 97.183594 50.71875 97.195312 50.804688 97.191406 Z M 50.804688 97.191406 " fill-opacity="1" fill-rule="evenodd"/><path fill="#d5550e" d="M 51.375 96.914062 C 51.273438 97.007812 51.160156 97.082031 51.0625 97.136719 C 51.140625 97.105469 51.21875 97.0625 51.296875 96.992188 C 51.320312 96.972656 51.347656 96.949219 51.375 96.914062 Z M 51.375 96.914062 " fill-opacity="1" fill-rule="evenodd"/><g clip-path="url(#c2a0a4031c)"><path fill="#b74e14" d="M 90.164062 162.039062 C 57.734375 162.039062 31.351562 135.417969 31.351562 102.695312 C 31.351562 69.972656 57.734375 43.347656 90.164062 43.347656 C 122.59375 43.347656 148.972656 69.972656 148.972656 102.695312 C 148.972656 135.417969 122.59375 162.039062 90.164062 162.039062 Z M 90.164062 48.582031 C 60.621094 48.582031 36.585938 72.855469 36.585938 102.695312 C 36.585938 132.53125 60.621094 156.808594 90.164062 156.808594 C 119.707031 156.808594 143.742188 132.53125 143.742188 102.695312 C 143.742188 72.855469 119.707031 48.582031 90.164062 48.582031 Z M 90.164062 48.582031 " fill-opacity="1" fill-rule="nonzero"/></g><g clip-path="url(#3546d42ee1)"><path fill="#b74e14" d="M 90.164062 162.054688 C 81.296875 162.054688 73.089844 155.636719 67.046875 143.992188 C 61.289062 132.886719 58.117188 118.222656 58.117188 102.695312 C 58.117188 87.167969 61.289062 72.503906 67.046875 61.402344 C 73.089844 49.75 81.296875 43.335938 90.164062 43.335938 C 99.03125 43.335938 107.242188 49.75 113.285156 61.402344 C 119.042969 72.503906 122.21875 87.167969 122.21875 102.695312 C 122.21875 118.222656 119.042969 132.890625 113.285156 143.992188 C 107.242188 155.636719 99.03125 162.054688 90.164062 162.054688 Z M 90.164062 48.570312 C 75.628906 48.570312 63.347656 73.355469 63.347656 102.695312 C 63.347656 132.03125 75.628906 156.820312 90.164062 156.820312 C 96.980469 156.820312 103.542969 151.40625 108.640625 141.582031 C 114.019531 131.210938 116.984375 117.398438 116.984375 102.695312 C 116.984375 73.355469 104.703125 48.570312 90.164062 48.570312 Z M 90.164062 48.570312 " fill-opacity="1" fill-rule="nonzero"/></g><g clip-path="url(#f62c7cb402)"><path fill="#b74e14" d="M 146.359375 105.3125 L 33.96875 105.3125 C 32.523438 105.3125 31.351562 104.140625 31.351562 102.695312 C 31.351562 101.25 32.523438 100.078125 33.96875 100.078125 L 146.359375 100.078125 C 147.804688 100.078125 148.972656 101.25 148.972656 102.695312 C 148.972656 104.140625 147.804688 105.3125 146.359375 105.3125 Z M 146.359375 105.3125 " fill-opacity="1" fill-rule="nonzero"/></g><path fill="#b74e14" d="M 90.347656 80.53125 C 74.949219 80.53125 59.503906 77.433594 44.117188 71.230469 C 42.777344 70.691406 42.128906 69.167969 42.667969 67.824219 C 43.207031 66.484375 44.734375 65.835938 46.074219 66.375 C 75.523438 78.246094 105.195312 78.257812 134.261719 66.40625 C 135.601562 65.859375 137.128906 66.503906 137.671875 67.839844 C 138.21875 69.179688 137.574219 70.707031 136.238281 71.253906 C 121.0625 77.4375 105.730469 80.53125 90.347656 80.53125 Z M 90.347656 80.53125 " fill-opacity="1" fill-rule="nonzero"/><path fill="#b74e14" d="M 135.25 139.183594 C 134.921875 139.183594 134.585938 139.121094 134.261719 138.988281 C 105.164062 127.132812 75.484375 127.132812 46.054688 138.988281 C 44.714844 139.527344 43.1875 138.878906 42.648438 137.535156 C 42.109375 136.195312 42.757812 134.671875 44.097656 134.132812 C 74.835938 121.753906 105.835938 121.757812 136.238281 134.140625 C 137.574219 134.6875 138.21875 136.214844 137.671875 137.554688 C 137.257812 138.570312 136.28125 139.183594 135.25 139.183594 Z M 135.25 139.183594 " fill-opacity="1" fill-rule="nonzero"/><g clip-path="url(#978b6396dc)"><path fill="#b74e14" d="M 90.164062 162.039062 C 88.71875 162.039062 87.546875 160.867188 87.546875 159.421875 L 87.546875 45.964844 C 87.546875 44.519531 88.71875 43.347656 90.164062 43.347656 C 91.609375 43.347656 92.78125 44.519531 92.78125 45.964844 L 92.78125 159.421875 C 92.78125 160.867188 91.609375 162.039062 90.164062 162.039062 Z M 90.164062 162.039062 " fill-opacity="1" fill-rule="nonzero"/></g><g clip-path="url(#ac4508276a)"><path fill="#f58926" d="M 85.992188 158.890625 C 53.5625 158.890625 27.183594 132.269531 27.183594 99.546875 C 27.183594 66.820312 53.5625 40.199219 85.992188 40.199219 C 118.421875 40.199219 144.804688 66.820312 144.804688 99.546875 C 144.804688 132.269531 118.421875 158.890625 85.992188 158.890625 Z M 85.992188 45.433594 C 56.449219 45.433594 32.414062 69.707031 32.414062 99.546875 C 32.414062 129.382812 56.449219 153.65625 85.992188 153.65625 C 115.535156 153.65625 139.570312 129.382812 139.570312 99.546875 C 139.570312 69.707031 115.535156 45.433594 85.992188 45.433594 Z M 85.992188 45.433594 " fill-opacity="1" fill-rule="nonzero"/></g><g clip-path="url(#589b0353df)"><path fill="#f58926" d="M 85.992188 158.90625 C 77.128906 158.90625 68.917969 152.488281 62.875 140.84375 C 57.117188 129.738281 53.945312 115.074219 53.945312 99.546875 C 53.945312 84.019531 57.117188 69.355469 62.875 58.25 C 68.917969 46.601562 77.128906 40.1875 85.992188 40.1875 C 94.859375 40.1875 103.074219 46.601562 109.113281 58.25 C 114.875 69.355469 118.046875 84.019531 118.046875 99.546875 C 118.046875 115.074219 114.875 129.742188 109.113281 140.84375 C 103.074219 152.488281 94.859375 158.90625 85.992188 158.90625 Z M 85.992188 45.421875 C 71.457031 45.421875 59.179688 70.207031 59.179688 99.546875 C 59.179688 128.882812 71.457031 153.671875 85.992188 153.671875 C 92.808594 153.671875 99.371094 148.257812 104.46875 138.433594 C 109.851562 128.0625 112.8125 114.25 112.8125 99.546875 C 112.8125 70.207031 100.53125 45.421875 85.992188 45.421875 Z M 85.992188 45.421875 " fill-opacity="1" fill-rule="nonzero"/></g><g clip-path="url(#a72e38948f)"><path fill="#f58926" d="M 142.1875 102.164062 L 29.796875 102.164062 C 28.351562 102.164062 27.183594 100.992188 27.183594 99.546875 C 27.183594 98.101562 28.351562 96.929688 29.796875 96.929688 L 142.1875 96.929688 C 143.632812 96.929688 144.804688 98.101562 144.804688 99.546875 C 144.804688 100.992188 143.632812 102.164062 142.1875 102.164062 Z M 142.1875 102.164062 " fill-opacity="1" fill-rule="nonzero"/></g><path fill="#f58926" d="M 86.179688 77.382812 C 70.78125 77.382812 55.335938 74.285156 39.945312 68.082031 C 38.605469 67.542969 37.957031 66.015625 38.5 64.675781 C 39.039062 63.335938 40.5625 62.6875 41.902344 63.226562 C 71.355469 75.097656 101.023438 75.105469 130.089844 63.257812 C 131.429688 62.710938 132.957031 63.355469 133.503906 64.691406 C 134.046875 66.03125 133.40625 67.558594 132.066406 68.101562 C 116.890625 74.289062 101.558594 77.382812 86.179688 77.382812 Z M 86.179688 77.382812 " fill-opacity="1" fill-rule="nonzero"/><path fill="#f58926" d="M 131.078125 136.035156 C 130.75 136.035156 130.414062 135.972656 130.09375 135.839844 C 100.992188 123.984375 71.316406 123.984375 41.882812 135.839844 C 40.542969 136.378906 39.019531 135.730469 38.480469 134.386719 C 37.9375 133.046875 38.589844 131.523438 39.929688 130.984375 C 70.664062 118.605469 101.664062 118.609375 132.066406 130.992188 C 133.40625 131.539062 134.046875 133.066406 133.503906 134.402344 C 133.089844 135.417969 132.109375 136.035156 131.078125 136.035156 Z M 131.078125 136.035156 " fill-opacity="1" fill-rule="nonzero"/><g clip-path="url(#57559c3af4)"><path fill="#f58926" d="M 85.992188 158.890625 C 84.546875 158.890625 83.375 157.71875 83.375 156.273438 L 83.375 42.816406 C 83.375 41.371094 84.546875 40.199219 85.992188 40.199219 C 87.4375 40.199219 88.609375 41.371094 88.609375 42.816406 L 88.609375 156.273438 C 88.609375 157.71875 87.4375 158.890625 85.992188 158.890625 Z M 85.992188 158.890625 " fill-opacity="1" fill-rule="nonzero"/></g></svg>