<svg xmlns="http://www.w3.org/2000/svg" xmlns:xlink="http://www.w3.org/1999/xlink" width="351" zoomAndPan="magnify" viewBox="0 0 263.25 244.499991" height="326" preserveAspectRatio="xMidYMid meet" version="1.0"><defs><clipPath id="401d96d866"><path d="M 231 139 L 262.503906 139 L 262.503906 163 L 231 163 Z M 231 139 " clip-rule="nonzero"/></clipPath><clipPath id="470109ea9f"><path d="M 230 138 L 262.503906 138 L 262.503906 165 L 230 165 Z M 230 138 " clip-rule="nonzero"/></clipPath><clipPath id="6c42837f2b"><path d="M 198 43.375 L 222 43.375 L 222 73 L 198 73 Z M 198 43.375 " clip-rule="nonzero"/></clipPath><clipPath id="26fb366f44"><path d="M 196 43.375 L 224 43.375 L 224 75 L 196 75 Z M 196 43.375 " clip-rule="nonzero"/></clipPath><clipPath id="efea5d2bc4"><path d="M 40 43.375 L 65 43.375 L 65 73 L 40 73 Z M 40 43.375 " clip-rule="nonzero"/></clipPath><clipPath id="a55d8b627e"><path d="M 38 43.375 L 66 43.375 L 66 75 L 38 75 Z M 38 43.375 " clip-rule="nonzero"/></clipPath><clipPath id="52537552f8"><path d="M 45.0625 37.863281 L 217.074219 37.863281 L 217.074219 243.527344 L 45.0625 243.527344 Z M 45.0625 37.863281 " clip-rule="nonzero"/></clipPath><clipPath id="7eef8ca095"><path d="M 50.761719 44.898438 L 206 44.898438 L 206 230.371094 L 50.761719 230.371094 Z M 50.761719 44.898438 " clip-rule="nonzero"/></clipPath><clipPath id="8f45a8dbb0"><path d="M 53.59375 48.054688 L 209 48.054688 L 209 233.523438 L 53.59375 233.523438 Z M 53.59375 48.054688 " clip-rule="nonzero"/></clipPath><clipPath id="3dc7cb09a0"><path d="M 101.707031 84 L 166.023438 84 L 166.023438 197 L 101.707031 197 Z M 101.707031 84 " clip-rule="nonzero"/></clipPath><clipPath id="1dc66f0363"><path d="M 96.039062 84 L 160.359375 84 L 160.359375 197 L 96.039062 197 Z M 96.039062 84 " clip-rule="nonzero"/></clipPath><clipPath id="e23525d3d9"><path d="M 97.769531 0.0976562 L 164.328125 0.0976562 L 164.328125 44.96875 L 97.769531 44.96875 Z M 97.769531 0.0976562 " clip-rule="nonzero"/></clipPath></defs><path stroke-linecap="butt" transform="matrix(-0.280785, 0, 0, 0.280785, 237.256915, -22.365387)" fill-opacity="1" fill="#7071c9" fill-rule="evenodd" stroke-linejoin="miter" d="M 347.084403 896.447583 C 296.834677 861.834815 255.099024 892.232282 216.883078 926.594636 C 266.21462 940.005692 318.453745 946.071274 347.084403 896.447583 Z M 347.084403 896.447583 " stroke="#007d00" stroke-width="1" stroke-opacity="1" stroke-miterlimit="4"/><path stroke-linecap="butt" transform="matrix(-0.280785, 0, 0, 0.280785, 237.256915, -22.365387)" fill-opacity="1" fill="#7071c9" fill-rule="evenodd" stroke-linejoin="miter" d="M 335.008887 866.662238 C 332.782986 805.672538 283.49318 790.32773 233.104335 780.185966 C 251.801908 827.76461 278.109281 873.312119 335.008887 866.662238 Z M 335.008887 866.662238 " stroke="#007d00" stroke-width="1" stroke-opacity="1" stroke-miterlimit="4"/><path stroke-linecap="butt" transform="matrix(-0.280785, 0, 0, 0.280785, 237.256915, -22.365387)" fill-opacity="1" fill="#7071c9" fill-rule="evenodd" stroke-linejoin="miter" d="M 257.464045 868.971611 C 210.302757 830.240926 166.160348 856.993479 125.175937 888.003069 C 173.18585 905.532043 224.729381 916.007692 257.464045 868.971611 Z M 257.464045 868.971611 " stroke="#007d00" stroke-width="1" stroke-opacity="1" stroke-miterlimit="4"/><path stroke-linecap="butt" transform="matrix(-0.280785, 0, 0, 0.280785, 237.256915, -22.365387)" fill-opacity="1" fill="#7071c9" fill-rule="evenodd" stroke-linejoin="miter" d="M 213.725081 840.048804 C 243.120892 786.571521 208.688979 748.105161 170.653887 713.534129 C 162.278933 763.964709 161.472043 816.551631 213.725081 840.048804 Z M 213.725081 840.048804 " stroke="#007d00" stroke-width="1" stroke-opacity="1" stroke-miterlimit="4"/><path stroke-linecap="butt" transform="matrix(-0.280785, 0, 0, 0.280785, 237.256915, -22.365387)" fill-opacity="1" fill="#7071c9" fill-rule="evenodd" stroke-linejoin="miter" d="M 175.564782 838.866294 C 140.868543 788.658304 91.063997 802.250214 43.137556 820.808668 C 84.497588 850.844426 131.17196 875.09284 175.564782 838.866294 Z M 175.564782 838.866294 " stroke="#007d00" stroke-width="1" stroke-opacity="1" stroke-miterlimit="4"/><path stroke-linecap="butt" transform="matrix(-0.280785, 0, 0, 0.280785, 237.256915, -22.365387)" fill-opacity="1" fill="#7071c9" fill-rule="evenodd" stroke-linejoin="miter" d="M 126.553214 794.083938 C 171.460776 752.737818 151.065954 705.312205 126.038474 660.432467 C 102.026562 705.562619 84.5115 755.158486 126.553214 794.083938 Z M 126.553214 794.083938 " stroke="#007d00" stroke-width="1" stroke-opacity="1" stroke-miterlimit="4"/><path stroke-linecap="butt" transform="matrix(-0.280785, 0, 0, 0.280785, 237.256915, -22.365387)" fill-opacity="1" fill="#7071c9" fill-rule="evenodd" stroke-linejoin="miter" d="M 102.708244 789.033924 C 78.195504 733.149885 26.721533 737.017389 -23.862078 746.115762 C 11.028927 783.483083 52.235928 816.148187 102.708244 789.033924 Z M 102.708244 789.033924 " stroke="#007d00" stroke-width="1" stroke-opacity="1" stroke-miterlimit="4"/><path stroke-linecap="butt" transform="matrix(-0.280785, 0, 0, 0.280785, 237.256915, -22.365387)" fill-opacity="1" fill="#7071c9" fill-rule="evenodd" stroke-linejoin="miter" d="M 61.807305 735.000166 C 113.587338 702.710683 102.360447 652.321838 86.083543 603.574596 C 54.114033 643.459968 27.709277 688.951829 61.807305 735.000166 Z M 61.807305 735.000166 " stroke="#007d00" stroke-width="1" stroke-opacity="1" stroke-miterlimit="4"/><path stroke-linecap="butt" transform="matrix(-0.280785, 0, 0, 0.280785, 237.256915, -22.365387)" fill-opacity="1" fill="#7071c9" fill-rule="evenodd" stroke-linejoin="miter" d="M 43.735767 727.446013 C 30.227328 667.930972 -21.051878 661.990598 -72.442378 661.364563 C -45.244644 704.658346 -10.95185 744.529807 43.735767 727.446013 Z M 43.735767 727.446013 " stroke="#007d00" stroke-width="1" stroke-opacity="1" stroke-miterlimit="4"/><path stroke-linecap="butt" transform="matrix(-0.280785, 0, 0, 0.280785, 237.256915, -22.365387)" fill-opacity="1" fill="#7071c9" fill-rule="evenodd" stroke-linejoin="miter" d="M 28.349223 639.981997 C 83.495932 613.827654 78.098121 562.492801 67.511177 512.20134 C 31.201159 548.177473 -0.239699 590.330482 28.349223 639.981997 Z M 28.349223 639.981997 " stroke="#007d00" stroke-width="1" stroke-opacity="1" stroke-miterlimit="4"/><g clip-path="url(#401d96d866)"><path fill="#7071c9" d="M 231.875 162.109375 C 233.65625 145.066406 247.753906 141.703125 262.0625 139.816406 C 255.925781 152.789062 247.695312 165.050781 231.875 162.109375 Z M 231.875 162.109375 " fill-opacity="1" fill-rule="evenodd"/></g><g clip-path="url(#470109ea9f)"><path stroke-linecap="butt" transform="matrix(-0.280785, 0, 0, 0.280785, 237.256915, -22.365387)" fill="none" stroke-linejoin="miter" d="M 19.16738 656.996231 C 12.82356 596.29868 -37.38443 584.320548 -88.343662 577.601108 C -66.488092 623.802475 -37.175752 667.47188 19.16738 656.996231 Z M 19.16738 656.996231 " stroke="#007d00" stroke-width="1" stroke-opacity="1" stroke-miterlimit="4"/></g><path stroke-linecap="butt" transform="matrix(-0.280785, 0, 0, 0.280785, 237.256915, -22.365387)" fill-opacity="1" fill="#7071c9" fill-rule="evenodd" stroke-linejoin="miter" d="M 5.172024 540.484201 C 64.770536 527.323558 70.989148 476.072177 71.893421 424.695588 C 28.460518 451.642908 -11.605708 485.713112 5.172024 540.484201 Z M 5.172024 540.484201 " stroke="#007d00" stroke-width="1" stroke-opacity="1" stroke-miterlimit="4"/><path stroke-linecap="butt" transform="matrix(-0.280785, 0, 0, 0.280785, 237.256915, -22.365387)" fill-opacity="1" fill="#7071c9" fill-rule="evenodd" stroke-linejoin="miter" d="M -6.486135 585.252644 C 10.764602 526.711435 -31.11017 496.522646 -75.669935 470.896956 C -73.054501 521.953571 -62.56494 573.48319 -6.486135 585.252644 Z M -6.486135 585.252644 " stroke="#007d00" stroke-width="1" stroke-opacity="1" stroke-miterlimit="4"/><path stroke-linecap="butt" transform="matrix(-0.280785, 0, 0, 0.280785, 237.256915, -22.365387)" fill-opacity="1" fill="#7071c9" fill-rule="evenodd" stroke-linejoin="miter" d="M 28.613549 425.502477 C 89.561514 428.54918 109.107711 380.77577 123.576071 331.45814 C 74.564503 345.968235 26.916299 368.22725 28.613549 425.502477 Z M 28.613549 425.502477 " stroke="#007d00" stroke-width="1" stroke-opacity="1" stroke-miterlimit="4"/><path stroke-linecap="butt" transform="matrix(-0.280785, 0, 0, 0.280785, 237.256915, -22.365387)" fill-opacity="1" fill="#7071c9" fill-rule="evenodd" stroke-linejoin="miter" d="M -10.631876 491.194395 C 25.998115 442.377593 -2.660367 399.445518 -35.450678 359.866208 C -50.851134 408.61345 -59.045234 460.560426 -10.631876 491.194395 Z M -10.631876 491.194395 " stroke="#007d00" stroke-width="1" stroke-opacity="1" stroke-miterlimit="4"/><g clip-path="url(#6c42837f2b)"><path fill="#7071c9" d="M 221.734375 72.726562 C 204.628906 71.742188 200.613281 57.8125 198.0625 43.609375 C 211.308594 49.140625 223.9375 56.792969 221.734375 72.726562 Z M 221.734375 72.726562 " fill-opacity="1" fill-rule="evenodd"/></g><g clip-path="url(#26fb366f44)"><path stroke-linecap="butt" transform="matrix(-0.280785, 0, 0, 0.280785, 237.256915, -22.365387)" fill="none" stroke-linejoin="miter" d="M 55.282631 338.664496 C 116.202772 335.158701 130.504189 285.548922 139.58865 234.965311 C 92.41345 254.664539 47.436328 281.91792 55.282631 338.664496 Z M 55.282631 338.664496 " stroke="#007d00" stroke-width="1" stroke-opacity="1" stroke-miterlimit="4"/></g><path stroke-linecap="butt" transform="matrix(-0.280785, 0, 0, 0.280785, 237.256915, -22.365387)" fill-opacity="1" fill="#7071c9" fill-rule="evenodd" stroke-linejoin="miter" d="M 16.385003 391.33489 C 62.169014 350.976514 42.817583 303.119632 18.750023 257.69733 C -6.221809 302.298831 -24.808086 351.505165 16.385003 391.33489 Z M 16.385003 391.33489 " stroke="#007d00" stroke-width="1" stroke-opacity="1" stroke-miterlimit="4"/><path stroke-linecap="butt" transform="matrix(0.280785, 0, 0, 0.280785, 25.140601, -22.117743)" fill-opacity="1" fill="#7071c9" fill-rule="evenodd" stroke-linejoin="miter" d="M 347.087685 896.455973 C 296.824047 861.843205 255.102307 892.22676 216.886361 926.603026 C 266.217902 940.000171 318.457027 946.079664 347.087685 896.455973 Z M 347.087685 896.455973 " stroke="#007d00" stroke-width="1" stroke-opacity="1" stroke-miterlimit="4"/><path stroke-linecap="butt" transform="matrix(0.280785, 0, 0, 0.280785, 25.140601, -22.117743)" fill-opacity="1" fill="#7071c9" fill-rule="evenodd" stroke-linejoin="miter" d="M 335.01217 866.656717 C 332.786268 805.667017 283.48255 790.33612 233.107618 780.180445 C 251.80519 827.759089 278.098651 873.306598 335.01217 866.656717 Z M 335.01217 866.656717 " stroke="#007d00" stroke-width="1" stroke-opacity="1" stroke-miterlimit="4"/><path stroke-linecap="butt" transform="matrix(0.280785, 0, 0, 0.280785, 25.140601, -22.117743)" fill-opacity="1" fill="#7071c9" fill-rule="evenodd" stroke-linejoin="miter" d="M 257.453415 868.96609 C 210.306039 830.235404 166.149719 856.987958 125.165308 888.011459 C 173.189132 905.526522 224.732663 916.002171 257.453415 868.96609 Z M 257.453415 868.96609 " stroke="#007d00" stroke-width="1" stroke-opacity="1" stroke-miterlimit="4"/><path stroke-linecap="butt" transform="matrix(0.280785, 0, 0, 0.280785, 25.140601, -22.117743)" fill-opacity="1" fill="#7071c9" fill-rule="evenodd" stroke-linejoin="miter" d="M 213.728363 840.043283 C 243.110262 786.566 208.692261 748.09964 170.657169 713.528607 C 162.282215 763.959188 161.475326 816.54611 213.728363 840.043283 Z M 213.728363 840.043283 " stroke="#007d00" stroke-width="1" stroke-opacity="1" stroke-miterlimit="4"/><path stroke-linecap="butt" transform="matrix(0.280785, 0, 0, 0.280785, 25.140601, -22.117743)" fill-opacity="1" fill="#7071c9" fill-rule="evenodd" stroke-linejoin="miter" d="M 175.554152 838.860772 C 140.871825 788.652782 91.067279 802.244693 43.140838 820.803147 C 84.50087 850.852817 131.175242 875.087319 175.554152 838.860772 Z M 175.554152 838.860772 " stroke="#007d00" stroke-width="1" stroke-opacity="1" stroke-miterlimit="4"/><path stroke-linecap="butt" transform="matrix(0.280785, 0, 0, 0.280785, 25.140601, -22.117743)" fill-opacity="1" fill="#7071c9" fill-rule="evenodd" stroke-linejoin="miter" d="M 126.556496 794.078417 C 171.450147 752.746209 151.069236 705.320596 126.027845 660.426945 C 102.029844 705.557098 84.514782 755.152965 126.556496 794.078417 Z M 126.556496 794.078417 " stroke="#007d00" stroke-width="1" stroke-opacity="1" stroke-miterlimit="4"/><path stroke-linecap="butt" transform="matrix(0.280785, 0, 0, 0.280785, 25.140601, -22.117743)" fill-opacity="1" fill="#7071c9" fill-rule="evenodd" stroke-linejoin="miter" d="M 102.711527 789.028403 C 78.198787 733.144364 26.724815 737.011868 -23.858796 746.11024 C 11.032209 783.477561 52.239211 816.156577 102.711527 789.028403 Z M 102.711527 789.028403 " stroke="#007d00" stroke-width="1" stroke-opacity="1" stroke-miterlimit="4"/><path stroke-linecap="butt" transform="matrix(0.280785, 0, 0, 0.280785, 25.140601, -22.117743)" fill-opacity="1" fill="#7071c9" fill-rule="evenodd" stroke-linejoin="miter" d="M 61.810587 734.994645 C 113.59062 702.705161 102.363729 652.316317 86.072913 603.569074 C 54.117315 643.468358 27.712559 688.946308 61.810587 734.994645 Z M 61.810587 734.994645 " stroke="#007d00" stroke-width="1" stroke-opacity="1" stroke-miterlimit="4"/><path stroke-linecap="butt" transform="matrix(0.280785, 0, 0, 0.280785, 25.140601, -22.117743)" fill-opacity="1" fill="#7071c9" fill-rule="evenodd" stroke-linejoin="miter" d="M 43.725137 727.440492 C 30.23061 667.925451 -21.048596 661.985076 -72.439096 661.359041 C -45.241362 704.652825 -10.948568 744.524285 43.725137 727.440492 Z M 43.725137 727.440492 " stroke="#007d00" stroke-width="1" stroke-opacity="1" stroke-miterlimit="4"/><path stroke-linecap="butt" transform="matrix(0.280785, 0, 0, 0.280785, 25.140601, -22.117743)" fill-opacity="1" fill="#7071c9" fill-rule="evenodd" stroke-linejoin="miter" d="M 28.352505 639.976475 C 83.499214 613.822133 78.101403 562.48728 67.514459 512.195819 C 31.19053 548.171951 -0.250329 590.338872 28.352505 639.976475 Z M 28.352505 639.976475 " stroke="#007d00" stroke-width="1" stroke-opacity="1" stroke-miterlimit="4"/><path stroke-linecap="butt" transform="matrix(0.280785, 0, 0, 0.280785, 25.140601, -22.117743)" fill-opacity="1" fill="#7071c9" fill-rule="evenodd" stroke-linejoin="miter" d="M 19.170662 657.004622 C 12.826843 596.307071 -37.381148 584.328938 -88.34038 577.595586 C -66.48481 623.810866 -37.172469 667.466359 19.170662 657.004622 Z M 19.170662 657.004622 " stroke="#007d00" stroke-width="1" stroke-opacity="1" stroke-miterlimit="4"/><path stroke-linecap="butt" transform="matrix(0.280785, 0, 0, 0.280785, 25.140601, -22.117743)" fill-opacity="1" fill="#7071c9" fill-rule="evenodd" stroke-linejoin="miter" d="M 5.175306 540.492591 C 64.759906 527.318037 70.978519 476.066655 71.896703 424.690067 C 28.4638 451.637387 -11.602426 485.707591 5.175306 540.492591 Z M 5.175306 540.492591 " stroke="#007d00" stroke-width="1" stroke-opacity="1" stroke-miterlimit="4"/><path stroke-linecap="butt" transform="matrix(0.280785, 0, 0, 0.280785, 25.140601, -22.117743)" fill-opacity="1" fill="#7071c9" fill-rule="evenodd" stroke-linejoin="miter" d="M -6.482853 585.247123 C 10.753972 526.705914 -31.106888 496.517125 -75.666653 470.905346 C -73.051219 521.948049 -62.561658 573.491581 -6.482853 585.247123 Z M -6.482853 585.247123 " stroke="#007d00" stroke-width="1" stroke-opacity="1" stroke-miterlimit="4"/><path stroke-linecap="butt" transform="matrix(0.280785, 0, 0, 0.280785, 25.140601, -22.117743)" fill-opacity="1" fill="#7071c9" fill-rule="evenodd" stroke-linejoin="miter" d="M 28.616831 425.496956 C 89.564796 428.557571 109.110993 380.770248 123.579353 331.452619 C 74.567785 345.962714 26.919581 368.235641 28.616831 425.496956 Z M 28.616831 425.496956 " stroke="#007d00" stroke-width="1" stroke-opacity="1" stroke-miterlimit="4"/><path stroke-linecap="butt" transform="matrix(0.280785, 0, 0, 0.280785, 25.140601, -22.117743)" fill-opacity="1" fill="#7071c9" fill-rule="evenodd" stroke-linejoin="miter" d="M -10.628594 491.188873 C 26.001397 442.372072 -2.670997 399.453909 -35.447396 359.874598 C -50.847852 408.607929 -59.041951 460.554904 -10.628594 491.188873 Z M -10.628594 491.188873 " stroke="#007d00" stroke-width="1" stroke-opacity="1" stroke-miterlimit="4"/><g clip-path="url(#efea5d2bc4)"><path fill="#7071c9" d="M 40.660156 72.976562 C 57.769531 71.988281 61.785156 58.0625 64.335938 43.859375 C 51.089844 49.386719 38.457031 57.039062 40.660156 72.976562 Z M 40.660156 72.976562 " fill-opacity="1" fill-rule="evenodd"/></g><g clip-path="url(#a55d8b627e)"><path stroke-linecap="butt" transform="matrix(0.280785, 0, 0, 0.280785, 25.140601, -22.117743)" fill="none" stroke-linejoin="miter" d="M 55.272001 338.672887 C 116.206054 335.15318 130.507471 285.557313 139.591932 234.973701 C 92.416732 254.659018 47.425699 281.912399 55.272001 338.672887 Z M 55.272001 338.672887 " stroke="#007d00" stroke-width="1" stroke-opacity="1" stroke-miterlimit="4"/></g><path stroke-linecap="butt" transform="matrix(0.280785, 0, 0, 0.280785, 25.140601, -22.117743)" fill-opacity="1" fill="#7071c9" fill-rule="evenodd" stroke-linejoin="miter" d="M 16.388285 391.329368 C 62.172296 350.970992 42.820865 303.11411 18.753305 257.70572 C -6.218527 302.307221 -24.804804 351.499644 16.388285 391.329368 Z M 16.388285 391.329368 " stroke="#007d00" stroke-width="1" stroke-opacity="1" stroke-miterlimit="4"/><path stroke-linecap="round" transform="matrix(0.377993, 0, 0, 0.28904, -2.109596, -35.699881)" fill-opacity="1" fill="#7071c9" fill-rule="nonzero" stroke-linejoin="miter" d="M 365.675812 905.896524 C 365.675812 907.018232 365.593139 908.139941 365.427792 909.23462 C 365.262445 910.342813 365.014424 911.423978 364.68373 912.464599 C 364.353036 913.505219 363.950003 914.491782 363.464296 915.424286 C 362.988924 916.370305 362.441212 917.235237 361.831495 918.032596 C 361.221778 918.829955 360.56039 919.546226 359.847331 920.167896 C 359.123938 920.789565 358.369542 921.330148 357.573809 921.749099 C 356.778077 922.181565 355.951342 922.519429 355.114273 922.735661 C 354.266869 922.951894 353.409132 923.060011 352.551394 923.060011 C 351.683322 923.060011 350.835919 922.951894 349.988516 922.735661 C 349.141112 922.519429 348.314377 922.181565 347.518645 921.749099 C 346.722912 921.330148 345.968517 920.789565 345.255458 920.167896 C 344.532065 919.546226 343.870677 918.829955 343.26096 918.032596 C 342.651242 917.235237 342.103531 916.370305 341.628158 915.424286 C 341.152785 914.491782 340.749752 913.505219 340.419058 912.464599 C 340.088364 911.423978 339.840343 910.342813 339.664662 909.23462 C 339.499315 908.139941 339.416642 907.018232 339.416642 905.896524 C 339.416642 904.761301 339.499315 903.639593 339.664662 902.544914 C 339.840343 901.436721 340.088364 900.355556 340.419058 899.314935 C 340.749752 898.274314 341.152785 897.287752 341.628158 896.355247 C 342.103531 895.409228 342.651242 894.544297 343.26096 893.746938 C 343.870677 892.949579 344.532065 892.233308 345.255458 891.611638 C 345.968517 890.989968 346.722912 890.449386 347.518645 890.030435 C 348.314377 889.597969 349.141112 889.27362 349.988516 889.043872 C 350.835919 888.827639 351.683322 888.719523 352.551394 888.719523 C 353.409132 888.719523 354.266869 888.827639 355.114273 889.043872 C 355.951342 889.27362 356.778077 889.597969 357.573809 890.030435 C 358.369542 890.449386 359.123938 890.989968 359.847331 891.611638 C 360.56039 892.233308 361.221778 892.949579 361.831495 893.746938 C 362.441212 894.544297 362.988924 895.409228 363.464296 896.355247 C 363.950003 897.287752 364.353036 898.274314 364.68373 899.314935 C 365.014424 900.355556 365.262445 901.436721 365.427792 902.544914 C 365.593139 903.639593 365.675812 904.761301 365.675812 905.896524 Z M 365.675812 905.896524 " stroke="#007d00" stroke-width="0.849" stroke-opacity="1" stroke-miterlimit="4"/><g clip-path="url(#52537552f8)"><path fill="#90b7f0" d="M 131.144531 37.863281 C 158.449219 59.625 196.429688 72.261719 217.304688 77.992188 C 213.679688 212.550781 146.003906 239.433594 131.367188 243.679688 C 116.8125 239.34375 49.617188 212.121094 45.089844 77.964844 C 65.980469 72.210938 103.882812 59.578125 131.144531 37.863281 Z M 131.144531 37.863281 " fill-opacity="1" fill-rule="evenodd"/></g><path fill="#90b7f0" d="M 92.046875 134.636719 L 91.867188 134.28125 L 91.484375 134.378906 L 91.761719 134.597656 C 91.855469 134.628906 91.953125 134.640625 92.046875 134.636719 Z M 92.046875 134.636719 " fill-opacity="1" fill-rule="evenodd"/><path fill="#90b7f0" d="M 92.683594 134.332031 C 92.570312 134.433594 92.445312 134.519531 92.335938 134.578125 C 92.421875 134.542969 92.511719 134.492188 92.59375 134.417969 C 92.621094 134.394531 92.652344 134.367188 92.683594 134.332031 Z M 92.683594 134.332031 " fill-opacity="1" fill-rule="evenodd"/><g clip-path="url(#7eef8ca095)"><path fill="#d3f2ff" d="M 128.316406 44.898438 C 152.917969 64.507812 187.136719 75.890625 205.945312 81.054688 C 202.675781 202.289062 141.703125 226.507812 128.515625 230.335938 C 115.402344 226.429688 54.863281 201.902344 50.78125 81.027344 C 69.605469 75.847656 103.753906 64.460938 128.316406 44.898438 Z M 128.316406 44.898438 " fill-opacity="1" fill-rule="evenodd"/></g><path fill="#d3f2ff" d="M 93.089844 132.089844 L 92.925781 131.769531 L 92.582031 131.859375 L 92.832031 132.054688 C 92.917969 132.082031 93.003906 132.09375 93.089844 132.089844 Z M 93.089844 132.089844 " fill-opacity="1" fill-rule="evenodd"/><path fill="#d3f2ff" d="M 93.664062 131.8125 C 93.5625 131.910156 93.449219 131.984375 93.347656 132.035156 C 93.429688 132.007812 93.507812 131.960938 93.582031 131.894531 C 93.605469 131.871094 93.636719 131.847656 93.664062 131.8125 Z M 93.664062 131.8125 " fill-opacity="1" fill-rule="evenodd"/><g clip-path="url(#8f45a8dbb0)"><path fill="#a9e6ff" d="M 131.148438 48.054688 C 155.75 67.660156 189.96875 79.046875 208.777344 84.210938 C 205.507812 205.445312 144.535156 229.664062 131.347656 233.488281 C 118.234375 229.585938 57.695312 205.054688 53.613281 84.183594 C 72.4375 79 106.585938 67.617188 131.148438 48.054688 Z M 131.148438 48.054688 " fill-opacity="1" fill-rule="evenodd"/></g><path fill="#a9e6ff" d="M 95.925781 135.246094 L 95.757812 134.921875 L 95.414062 135.011719 L 95.664062 135.210938 C 95.75 135.238281 95.835938 135.25 95.925781 135.246094 Z M 95.925781 135.246094 " fill-opacity="1" fill-rule="evenodd"/><path fill="#a9e6ff" d="M 96.496094 134.96875 C 96.394531 135.0625 96.28125 135.136719 96.179688 135.191406 C 96.261719 135.160156 96.339844 135.117188 96.417969 135.046875 C 96.441406 135.027344 96.46875 135.003906 96.496094 134.96875 Z M 96.496094 134.96875 " fill-opacity="1" fill-rule="evenodd"/><g clip-path="url(#3dc7cb09a0)"><path fill="#90b7f0" d="M 112.886719 196.792969 C 112.457031 196.792969 112.054688 196.695312 111.675781 196.5 C 111.441406 196.378906 111.234375 196.21875 111.058594 196.023438 C 110.878906 195.828125 110.746094 195.605469 110.648438 195.359375 C 110.550781 195.113281 110.503906 194.859375 110.5 194.59375 C 110.496094 194.328125 110.542969 194.074219 110.632812 193.824219 L 126.078125 147.699219 L 104.3125 147.699219 C 103.914062 147.761719 103.535156 147.703125 103.171875 147.523438 C 102.808594 147.34375 102.535156 147.074219 102.34375 146.71875 C 102.105469 146.382812 101.972656 146.007812 101.945312 145.597656 C 101.921875 145.1875 102.003906 144.800781 102.195312 144.4375 L 129.96875 86.039062 C 130.183594 85.652344 130.480469 85.351562 130.859375 85.125 C 131.238281 84.902344 131.648438 84.785156 132.089844 84.78125 L 161.195312 84.78125 C 161.597656 84.789062 161.976562 84.886719 162.332031 85.078125 C 162.6875 85.265625 162.980469 85.523438 163.210938 85.855469 C 163.449219 86.214844 163.566406 86.609375 163.566406 87.039062 C 163.566406 87.472656 163.449219 87.867188 163.210938 88.226562 L 142.023438 125.011719 L 163.796875 125.011719 C 164.6875 125.089844 165.382812 125.5 165.882812 126.238281 C 166.105469 126.640625 166.195312 127.066406 166.148438 127.523438 C 166.101562 127.980469 165.925781 128.382812 165.625 128.730469 L 114.742188 195.992188 C 114.222656 196.492188 113.605469 196.757812 112.886719 196.792969 Z M 112.886719 196.792969 " fill-opacity="1" fill-rule="nonzero"/></g><g clip-path="url(#1dc66f0363)"><path fill="#d3f2ff" d="M 107.21875 196.792969 C 106.792969 196.792969 106.390625 196.695312 106.011719 196.5 C 105.773438 196.378906 105.570312 196.21875 105.390625 196.023438 C 105.214844 195.828125 105.078125 195.605469 104.984375 195.359375 C 104.886719 195.113281 104.835938 194.859375 104.835938 194.59375 C 104.832031 194.328125 104.875 194.074219 104.96875 193.824219 L 120.410156 147.699219 L 98.648438 147.699219 C 98.25 147.761719 97.867188 147.703125 97.507812 147.523438 C 97.144531 147.34375 96.867188 147.074219 96.675781 146.71875 C 96.4375 146.382812 96.308594 146.007812 96.28125 145.597656 C 96.253906 145.1875 96.339844 144.800781 96.53125 144.4375 L 124.300781 86.039062 C 124.519531 85.652344 124.816406 85.351562 125.195312 85.125 C 125.574219 84.902344 125.984375 84.785156 126.421875 84.78125 L 155.527344 84.78125 C 155.933594 84.789062 156.3125 84.886719 156.667969 85.078125 C 157.023438 85.265625 157.316406 85.523438 157.546875 85.855469 C 157.78125 86.214844 157.898438 86.609375 157.898438 87.039062 C 157.898438 87.472656 157.78125 87.867188 157.546875 88.226562 L 136.355469 125.011719 L 158.132812 125.011719 C 159.019531 125.089844 159.714844 125.5 160.214844 126.238281 C 160.441406 126.640625 160.527344 127.066406 160.480469 127.523438 C 160.433594 127.980469 160.261719 128.382812 159.960938 128.730469 L 109.078125 195.992188 C 108.558594 196.492188 107.9375 196.757812 107.21875 196.792969 Z M 107.21875 196.792969 " fill-opacity="1" fill-rule="nonzero"/></g><g clip-path="url(#e23525d3d9)"><path fill="#d3f2ff" d="M 161.871094 14.183594 C 161.871094 14.355469 161.871094 14.554688 161.820312 14.730469 L 157.714844 31.152344 C 157.515625 31.972656 156.769531 32.570312 155.921875 32.570312 L 131.289062 32.695312 L 106.628906 32.695312 C 105.78125 32.695312 105.035156 32.125 104.8125 31.277344 L 100.707031 14.804688 C 100.65625 14.605469 100.65625 14.40625 100.65625 14.230469 C 99.0625 13.734375 97.917969 12.242188 97.917969 10.5 C 97.917969 8.335938 99.683594 6.566406 101.851562 6.566406 C 104.015625 6.566406 105.78125 8.335938 105.78125 10.5 C 105.78125 11.71875 105.234375 12.8125 104.339844 13.535156 L 109.488281 18.710938 C 110.757812 20.003906 112.574219 20.75 114.417969 20.75 C 116.605469 20.75 118.671875 19.707031 119.992188 17.988281 L 128.425781 6.792969 C 127.703125 6.09375 127.28125 5.097656 127.28125 4.03125 C 127.28125 1.863281 129.046875 0.0976562 131.210938 0.0976562 C 133.378906 0.0976562 135.144531 1.863281 135.144531 4.03125 C 135.144531 5.074219 134.722656 6.019531 134.050781 6.742188 L 142.433594 17.964844 C 143.753906 19.707031 145.820312 20.75 148.007812 20.75 C 149.875 20.75 151.617188 20.03125 152.9375 18.710938 L 158.113281 13.535156 C 157.214844 12.8125 156.644531 11.71875 156.644531 10.472656 C 156.644531 8.308594 158.410156 6.542969 160.574219 6.542969 C 162.738281 6.542969 164.507812 8.308594 164.507812 10.472656 C 164.480469 12.191406 163.386719 13.632812 161.871094 14.183594 Z M 157.316406 38.542969 C 157.316406 37.523438 156.46875 36.675781 155.449219 36.675781 L 107.175781 36.675781 C 106.15625 36.675781 105.308594 37.523438 105.308594 38.542969 L 105.308594 43.023438 C 105.308594 44.042969 106.15625 44.886719 107.175781 44.886719 L 155.449219 44.886719 C 156.46875 44.886719 157.316406 44.042969 157.316406 43.023438 Z M 157.316406 38.542969 " fill-opacity="1" fill-rule="nonzero"/></g></svg>