<svg xmlns="http://www.w3.org/2000/svg" xmlns:xlink="http://www.w3.org/1999/xlink" width="351" zoomAndPan="magnify" viewBox="0 0 263.25 244.499991" height="326" preserveAspectRatio="xMidYMid meet" version="1.0"><defs><clipPath id="48dd815a03"><path d="M 231 139 L 262.503906 139 L 262.503906 163 L 231 163 Z M 231 139 " clip-rule="nonzero"/></clipPath><clipPath id="aafee273e4"><path d="M 230 138 L 262.503906 138 L 262.503906 165 L 230 165 Z M 230 138 " clip-rule="nonzero"/></clipPath><clipPath id="b0de40583c"><path d="M 198 43.375 L 222 43.375 L 222 73 L 198 73 Z M 198 43.375 " clip-rule="nonzero"/></clipPath><clipPath id="74fa2b4233"><path d="M 196 43.375 L 224 43.375 L 224 75 L 196 75 Z M 196 43.375 " clip-rule="nonzero"/></clipPath><clipPath id="d6f6ee07da"><path d="M 40 43.375 L 65 43.375 L 65 73 L 40 73 Z M 40 43.375 " clip-rule="nonzero"/></clipPath><clipPath id="27e6451baf"><path d="M 38 43.375 L 66 43.375 L 66 75 L 38 75 Z M 38 43.375 " clip-rule="nonzero"/></clipPath><clipPath id="003f3b222b"><path d="M 45.0625 37.863281 L 217.074219 37.863281 L 217.074219 243.527344 L 45.0625 243.527344 Z M 45.0625 37.863281 " clip-rule="nonzero"/></clipPath><clipPath id="bd8c6d309b"><path d="M 50.761719 44.898438 L 206 44.898438 L 206 230.371094 L 50.761719 230.371094 Z M 50.761719 44.898438 " clip-rule="nonzero"/></clipPath><clipPath id="c93267af80"><path d="M 53.59375 48.054688 L 209 48.054688 L 209 233.523438 L 53.59375 233.523438 Z M 53.59375 48.054688 " clip-rule="nonzero"/></clipPath><clipPath id="f69a2ef5d1"><path d="M 75.121094 79.371094 L 191.789062 79.371094 L 191.789062 196.789062 L 75.121094 196.789062 Z M 75.121094 79.371094 " clip-rule="nonzero"/></clipPath><clipPath id="21494e6340"><path d="M 70.429688 79.371094 L 187.09375 79.371094 L 187.09375 196.789062 L 70.429688 196.789062 Z M 70.429688 79.371094 " clip-rule="nonzero"/></clipPath><clipPath id="974b87c3b0"><path d="M 97.769531 0.0976562 L 164.328125 0.0976562 L 164.328125 44.96875 L 97.769531 44.96875 Z M 97.769531 0.0976562 " clip-rule="nonzero"/></clipPath></defs><path stroke-linecap="butt" transform="matrix(-0.280785, 0, 0, 0.280785, 237.256915, -22.365387)" fill-opacity="1" fill="#7071c9" fill-rule="evenodd" stroke-linejoin="miter" d="M 347.084403 896.447583 C 296.834677 861.834815 255.099024 892.232282 216.883078 926.594636 C 266.21462 940.005692 318.453745 946.071274 347.084403 896.447583 Z M 347.084403 896.447583 " stroke="#007d00" stroke-width="1" stroke-opacity="1" stroke-miterlimit="4"/><path stroke-linecap="butt" transform="matrix(-0.280785, 0, 0, 0.280785, 237.256915, -22.365387)" fill-opacity="1" fill="#7071c9" fill-rule="evenodd" stroke-linejoin="miter" d="M 335.008887 866.662238 C 332.782986 805.672538 283.49318 790.32773 233.104335 780.185966 C 251.801908 827.76461 278.109281 873.312119 335.008887 866.662238 Z M 335.008887 866.662238 " stroke="#007d00" stroke-width="1" stroke-opacity="1" stroke-miterlimit="4"/><path stroke-linecap="butt" transform="matrix(-0.280785, 0, 0, 0.280785, 237.256915, -22.365387)" fill-opacity="1" fill="#7071c9" fill-rule="evenodd" stroke-linejoin="miter" d="M 257.464045 868.971611 C 210.302757 830.240926 166.160348 856.993479 125.175937 888.003069 C 173.18585 905.532043 224.729381 916.007692 257.464045 868.971611 Z M 257.464045 868.971611 " stroke="#007d00" stroke-width="1" stroke-opacity="1" stroke-miterlimit="4"/><path stroke-linecap="butt" transform="matrix(-0.280785, 0, 0, 0.280785, 237.256915, -22.365387)" fill-opacity="1" fill="#7071c9" fill-rule="evenodd" stroke-linejoin="miter" d="M 213.725081 840.048804 C 243.120892 786.571521 208.688979 748.105161 170.653887 713.534129 C 162.278933 763.964709 161.472043 816.551631 213.725081 840.048804 Z M 213.725081 840.048804 " stroke="#007d00" stroke-width="1" stroke-opacity="1" stroke-miterlimit="4"/><path stroke-linecap="butt" transform="matrix(-0.280785, 0, 0, 0.280785, 237.256915, -22.365387)" fill-opacity="1" fill="#7071c9" fill-rule="evenodd" stroke-linejoin="miter" d="M 175.564782 838.866294 C 140.868543 788.658304 91.063997 802.250214 43.137556 820.808668 C 84.497588 850.844426 131.17196 875.09284 175.564782 838.866294 Z M 175.564782 838.866294 " stroke="#007d00" stroke-width="1" stroke-opacity="1" stroke-miterlimit="4"/><path stroke-linecap="butt" transform="matrix(-0.280785, 0, 0, 0.280785, 237.256915, -22.365387)" fill-opacity="1" fill="#7071c9" fill-rule="evenodd" stroke-linejoin="miter" d="M 126.553214 794.083938 C 171.460776 752.737818 151.065954 705.312205 126.038474 660.432467 C 102.026562 705.562619 84.5115 755.158486 126.553214 794.083938 Z M 126.553214 794.083938 " stroke="#007d00" stroke-width="1" stroke-opacity="1" stroke-miterlimit="4"/><path stroke-linecap="butt" transform="matrix(-0.280785, 0, 0, 0.280785, 237.256915, -22.365387)" fill-opacity="1" fill="#7071c9" fill-rule="evenodd" stroke-linejoin="miter" d="M 102.708244 789.033924 C 78.195504 733.149885 26.721533 737.017389 -23.862078 746.115762 C 11.028927 783.483083 52.235928 816.148187 102.708244 789.033924 Z M 102.708244 789.033924 " stroke="#007d00" stroke-width="1" stroke-opacity="1" stroke-miterlimit="4"/><path stroke-linecap="butt" transform="matrix(-0.280785, 0, 0, 0.280785, 237.256915, -22.365387)" fill-opacity="1" fill="#7071c9" fill-rule="evenodd" stroke-linejoin="miter" d="M 61.807305 735.000166 C 113.587338 702.710683 102.360447 652.321838 86.083543 603.574596 C 54.114033 643.459968 27.709277 688.951829 61.807305 735.000166 Z M 61.807305 735.000166 " stroke="#007d00" stroke-width="1" stroke-opacity="1" stroke-miterlimit="4"/><path stroke-linecap="butt" transform="matrix(-0.280785, 0, 0, 0.280785, 237.256915, -22.365387)" fill-opacity="1" fill="#7071c9" fill-rule="evenodd" stroke-linejoin="miter" d="M 43.735767 727.446013 C 30.227328 667.930972 -21.051878 661.990598 -72.442378 661.364563 C -45.244644 704.658346 -10.95185 744.529807 43.735767 727.446013 Z M 43.735767 727.446013 " stroke="#007d00" stroke-width="1" stroke-opacity="1" stroke-miterlimit="4"/><path stroke-linecap="butt" transform="matrix(-0.280785, 0, 0, 0.280785, 237.256915, -22.365387)" fill-opacity="1" fill="#7071c9" fill-rule="evenodd" stroke-linejoin="miter" d="M 28.349223 639.981997 C 83.495932 613.827654 78.098121 562.492801 67.511177 512.20134 C 31.201159 548.177473 -0.239699 590.330482 28.349223 639.981997 Z M 28.349223 639.981997 " stroke="#007d00" stroke-width="1" stroke-opacity="1" stroke-miterlimit="4"/><g clip-path="url(#48dd815a03)"><path fill="#7071c9" d="M 231.875 162.109375 C 233.65625 145.066406 247.753906 141.703125 262.0625 139.816406 C 255.925781 152.789062 247.695312 165.050781 231.875 162.109375 Z M 231.875 162.109375 " fill-opacity="1" fill-rule="evenodd"/></g><g clip-path="url(#aafee273e4)"><path stroke-linecap="butt" transform="matrix(-0.280785, 0, 0, 0.280785, 237.256915, -22.365387)" fill="none" stroke-linejoin="miter" d="M 19.16738 656.996231 C 12.82356 596.29868 -37.38443 584.320548 -88.343662 577.601108 C -66.488092 623.802475 -37.175752 667.47188 19.16738 656.996231 Z M 19.16738 656.996231 " stroke="#007d00" stroke-width="1" stroke-opacity="1" stroke-miterlimit="4"/></g><path stroke-linecap="butt" transform="matrix(-0.280785, 0, 0, 0.280785, 237.256915, -22.365387)" fill-opacity="1" fill="#7071c9" fill-rule="evenodd" stroke-linejoin="miter" d="M 5.172024 540.484201 C 64.770536 527.323558 70.989148 476.072177 71.893421 424.695588 C 28.460518 451.642908 -11.605708 485.713112 5.172024 540.484201 Z M 5.172024 540.484201 " stroke="#007d00" stroke-width="1" stroke-opacity="1" stroke-miterlimit="4"/><path stroke-linecap="butt" transform="matrix(-0.280785, 0, 0, 0.280785, 237.256915, -22.365387)" fill-opacity="1" fill="#7071c9" fill-rule="evenodd" stroke-linejoin="miter" d="M -6.486135 585.252644 C 10.764602 526.711435 -31.11017 496.522646 -75.669935 470.896956 C -73.054501 521.953571 -62.56494 573.48319 -6.486135 585.252644 Z M -6.486135 585.252644 " stroke="#007d00" stroke-width="1" stroke-opacity="1" stroke-miterlimit="4"/><path stroke-linecap="butt" transform="matrix(-0.280785, 0, 0, 0.280785, 237.256915, -22.365387)" fill-opacity="1" fill="#7071c9" fill-rule="evenodd" stroke-linejoin="miter" d="M 28.613549 425.502477 C 89.561514 428.54918 109.107711 380.77577 123.576071 331.45814 C 74.564503 345.968235 26.916299 368.22725 28.613549 425.502477 Z M 28.613549 425.502477 " stroke="#007d00" stroke-width="1" stroke-opacity="1" stroke-miterlimit="4"/><path stroke-linecap="butt" transform="matrix(-0.280785, 0, 0, 0.280785, 237.256915, -22.365387)" fill-opacity="1" fill="#7071c9" fill-rule="evenodd" stroke-linejoin="miter" d="M -10.631876 491.194395 C 25.998115 442.377593 -2.660367 399.445518 -35.450678 359.866208 C -50.851134 408.61345 -59.045234 460.560426 -10.631876 491.194395 Z M -10.631876 491.194395 " stroke="#007d00" stroke-width="1" stroke-opacity="1" stroke-miterlimit="4"/><g clip-path="url(#b0de40583c)"><path fill="#7071c9" d="M 221.734375 72.726562 C 204.628906 71.742188 200.613281 57.8125 198.0625 43.609375 C 211.308594 49.140625 223.9375 56.792969 221.734375 72.726562 Z M 221.734375 72.726562 " fill-opacity="1" fill-rule="evenodd"/></g><g clip-path="url(#74fa2b4233)"><path stroke-linecap="butt" transform="matrix(-0.280785, 0, 0, 0.280785, 237.256915, -22.365387)" fill="none" stroke-linejoin="miter" d="M 55.282631 338.664496 C 116.202772 335.158701 130.504189 285.548922 139.58865 234.965311 C 92.41345 254.664539 47.436328 281.91792 55.282631 338.664496 Z M 55.282631 338.664496 " stroke="#007d00" stroke-width="1" stroke-opacity="1" stroke-miterlimit="4"/></g><path stroke-linecap="butt" transform="matrix(-0.280785, 0, 0, 0.280785, 237.256915, -22.365387)" fill-opacity="1" fill="#7071c9" fill-rule="evenodd" stroke-linejoin="miter" d="M 16.385003 391.33489 C 62.169014 350.976514 42.817583 303.119632 18.750023 257.69733 C -6.221809 302.298831 -24.808086 351.505165 16.385003 391.33489 Z M 16.385003 391.33489 " stroke="#007d00" stroke-width="1" stroke-opacity="1" stroke-miterlimit="4"/><path stroke-linecap="butt" transform="matrix(0.280785, 0, 0, 0.280785, 25.140601, -22.117743)" fill-opacity="1" fill="#7071c9" fill-rule="evenodd" stroke-linejoin="miter" d="M 347.087685 896.455973 C 296.824047 861.843205 255.102307 892.22676 216.886361 926.603026 C 266.217902 940.000171 318.457027 946.079664 347.087685 896.455973 Z M 347.087685 896.455973 " stroke="#007d00" stroke-width="1" stroke-opacity="1" stroke-miterlimit="4"/><path stroke-linecap="butt" transform="matrix(0.280785, 0, 0, 0.280785, 25.140601, -22.117743)" fill-opacity="1" fill="#7071c9" fill-rule="evenodd" stroke-linejoin="miter" d="M 335.01217 866.656717 C 332.786268 805.667017 283.48255 790.33612 233.107618 780.180445 C 251.80519 827.759089 278.098651 873.306598 335.01217 866.656717 Z M 335.01217 866.656717 " stroke="#007d00" stroke-width="1" stroke-opacity="1" stroke-miterlimit="4"/><path stroke-linecap="butt" transform="matrix(0.280785, 0, 0, 0.280785, 25.140601, -22.117743)" fill-opacity="1" fill="#7071c9" fill-rule="evenodd" stroke-linejoin="miter" d="M 257.453415 868.96609 C 210.306039 830.235404 166.149719 856.987958 125.165308 888.011459 C 173.189132 905.526522 224.732663 916.002171 257.453415 868.96609 Z M 257.453415 868.96609 " stroke="#007d00" stroke-width="1" stroke-opacity="1" stroke-miterlimit="4"/><path stroke-linecap="butt" transform="matrix(0.280785, 0, 0, 0.280785, 25.140601, -22.117743)" fill-opacity="1" fill="#7071c9" fill-rule="evenodd" stroke-linejoin="miter" d="M 213.728363 840.043283 C 243.110262 786.566 208.692261 748.09964 170.657169 713.528607 C 162.282215 763.959188 161.475326 816.54611 213.728363 840.043283 Z M 213.728363 840.043283 " stroke="#007d00" stroke-width="1" stroke-opacity="1" stroke-miterlimit="4"/><path stroke-linecap="butt" transform="matrix(0.280785, 0, 0, 0.280785, 25.140601, -22.117743)" fill-opacity="1" fill="#7071c9" fill-rule="evenodd" stroke-linejoin="miter" d="M 175.554152 838.860772 C 140.871825 788.652782 91.067279 802.244693 43.140838 820.803147 C 84.50087 850.852817 131.175242 875.087319 175.554152 838.860772 Z M 175.554152 838.860772 " stroke="#007d00" stroke-width="1" stroke-opacity="1" stroke-miterlimit="4"/><path stroke-linecap="butt" transform="matrix(0.280785, 0, 0, 0.280785, 25.140601, -22.117743)" fill-opacity="1" fill="#7071c9" fill-rule="evenodd" stroke-linejoin="miter" d="M 126.556496 794.078417 C 171.450147 752.746209 151.069236 705.320596 126.027845 660.426945 C 102.029844 705.557098 84.514782 755.152965 126.556496 794.078417 Z M 126.556496 794.078417 " stroke="#007d00" stroke-width="1" stroke-opacity="1" stroke-miterlimit="4"/><path stroke-linecap="butt" transform="matrix(0.280785, 0, 0, 0.280785, 25.140601, -22.117743)" fill-opacity="1" fill="#7071c9" fill-rule="evenodd" stroke-linejoin="miter" d="M 102.711527 789.028403 C 78.198787 733.144364 26.724815 737.011868 -23.858796 746.11024 C 11.032209 783.477561 52.239211 816.156577 102.711527 789.028403 Z M 102.711527 789.028403 " stroke="#007d00" stroke-width="1" stroke-opacity="1" stroke-miterlimit="4"/><path stroke-linecap="butt" transform="matrix(0.280785, 0, 0, 0.280785, 25.140601, -22.117743)" fill-opacity="1" fill="#7071c9" fill-rule="evenodd" stroke-linejoin="miter" d="M 61.810587 734.994645 C 113.59062 702.705161 102.363729 652.316317 86.072913 603.569074 C 54.117315 643.468358 27.712559 688.946308 61.810587 734.994645 Z M 61.810587 734.994645 " stroke="#007d00" stroke-width="1" stroke-opacity="1" stroke-miterlimit="4"/><path stroke-linecap="butt" transform="matrix(0.280785, 0, 0, 0.280785, 25.140601, -22.117743)" fill-opacity="1" fill="#7071c9" fill-rule="evenodd" stroke-linejoin="miter" d="M 43.725137 727.440492 C 30.23061 667.925451 -21.048596 661.985076 -72.439096 661.359041 C -45.241362 704.652825 -10.948568 744.524285 43.725137 727.440492 Z M 43.725137 727.440492 " stroke="#007d00" stroke-width="1" stroke-opacity="1" stroke-miterlimit="4"/><path stroke-linecap="butt" transform="matrix(0.280785, 0, 0, 0.280785, 25.140601, -22.117743)" fill-opacity="1" fill="#7071c9" fill-rule="evenodd" stroke-linejoin="miter" d="M 28.352505 639.976475 C 83.499214 613.822133 78.101403 562.48728 67.514459 512.195819 C 31.19053 548.171951 -0.250329 590.338872 28.352505 639.976475 Z M 28.352505 639.976475 " stroke="#007d00" stroke-width="1" stroke-opacity="1" stroke-miterlimit="4"/><path stroke-linecap="butt" transform="matrix(0.280785, 0, 0, 0.280785, 25.140601, -22.117743)" fill-opacity="1" fill="#7071c9" fill-rule="evenodd" stroke-linejoin="miter" d="M 19.170662 657.004622 C 12.826843 596.307071 -37.381148 584.328938 -88.34038 577.595586 C -66.48481 623.810866 -37.172469 667.466359 19.170662 657.004622 Z M 19.170662 657.004622 " stroke="#007d00" stroke-width="1" stroke-opacity="1" stroke-miterlimit="4"/><path stroke-linecap="butt" transform="matrix(0.280785, 0, 0, 0.280785, 25.140601, -22.117743)" fill-opacity="1" fill="#7071c9" fill-rule="evenodd" stroke-linejoin="miter" d="M 5.175306 540.492591 C 64.759906 527.318037 70.978519 476.066655 71.896703 424.690067 C 28.4638 451.637387 -11.602426 485.707591 5.175306 540.492591 Z M 5.175306 540.492591 " stroke="#007d00" stroke-width="1" stroke-opacity="1" stroke-miterlimit="4"/><path stroke-linecap="butt" transform="matrix(0.280785, 0, 0, 0.280785, 25.140601, -22.117743)" fill-opacity="1" fill="#7071c9" fill-rule="evenodd" stroke-linejoin="miter" d="M -6.482853 585.247123 C 10.753972 526.705914 -31.106888 496.517125 -75.666653 470.905346 C -73.051219 521.948049 -62.561658 573.491581 -6.482853 585.247123 Z M -6.482853 585.247123 " stroke="#007d00" stroke-width="1" stroke-opacity="1" stroke-miterlimit="4"/><path stroke-linecap="butt" transform="matrix(0.280785, 0, 0, 0.280785, 25.140601, -22.117743)" fill-opacity="1" fill="#7071c9" fill-rule="evenodd" stroke-linejoin="miter" d="M 28.616831 425.496956 C 89.564796 428.557571 109.110993 380.770248 123.579353 331.452619 C 74.567785 345.962714 26.919581 368.235641 28.616831 425.496956 Z M 28.616831 425.496956 " stroke="#007d00" stroke-width="1" stroke-opacity="1" stroke-miterlimit="4"/><path stroke-linecap="butt" transform="matrix(0.280785, 0, 0, 0.280785, 25.140601, -22.117743)" fill-opacity="1" fill="#7071c9" fill-rule="evenodd" stroke-linejoin="miter" d="M -10.628594 491.188873 C 26.001397 442.372072 -2.670997 399.453909 -35.447396 359.874598 C -50.847852 408.607929 -59.041951 460.554904 -10.628594 491.188873 Z M -10.628594 491.188873 " stroke="#007d00" stroke-width="1" stroke-opacity="1" stroke-miterlimit="4"/><g clip-path="url(#d6f6ee07da)"><path fill="#7071c9" d="M 40.660156 72.976562 C 57.769531 71.988281 61.785156 58.0625 64.335938 43.859375 C 51.089844 49.386719 38.457031 57.039062 40.660156 72.976562 Z M 40.660156 72.976562 " fill-opacity="1" fill-rule="evenodd"/></g><g clip-path="url(#27e6451baf)"><path stroke-linecap="butt" transform="matrix(0.280785, 0, 0, 0.280785, 25.140601, -22.117743)" fill="none" stroke-linejoin="miter" d="M 55.272001 338.672887 C 116.206054 335.15318 130.507471 285.557313 139.591932 234.973701 C 92.416732 254.659018 47.425699 281.912399 55.272001 338.672887 Z M 55.272001 338.672887 " stroke="#007d00" stroke-width="1" stroke-opacity="1" stroke-miterlimit="4"/></g><path stroke-linecap="butt" transform="matrix(0.280785, 0, 0, 0.280785, 25.140601, -22.117743)" fill-opacity="1" fill="#7071c9" fill-rule="evenodd" stroke-linejoin="miter" d="M 16.388285 391.329368 C 62.172296 350.970992 42.820865 303.11411 18.753305 257.70572 C -6.218527 302.307221 -24.804804 351.499644 16.388285 391.329368 Z M 16.388285 391.329368 " stroke="#007d00" stroke-width="1" stroke-opacity="1" stroke-miterlimit="4"/><path stroke-linecap="round" transform="matrix(0.377993, 0, 0, 0.28904, -2.109596, -35.699881)" fill-opacity="1" fill="#7071c9" fill-rule="nonzero" stroke-linejoin="miter" d="M 365.675812 905.896524 C 365.675812 907.018232 365.593139 908.139941 365.427792 909.23462 C 365.262445 910.342813 365.014424 911.423978 364.68373 912.464599 C 364.353036 913.505219 363.950003 914.491782 363.464296 915.424286 C 362.988924 916.370305 362.441212 917.235237 361.831495 918.032596 C 361.221778 918.829955 360.56039 919.546226 359.847331 920.167896 C 359.123938 920.789565 358.369542 921.330148 357.573809 921.749099 C 356.778077 922.181565 355.951342 922.519429 355.114273 922.735661 C 354.266869 922.951894 353.409132 923.060011 352.551394 923.060011 C 351.683322 923.060011 350.835919 922.951894 349.988516 922.735661 C 349.141112 922.519429 348.314377 922.181565 347.518645 921.749099 C 346.722912 921.330148 345.968517 920.789565 345.255458 920.167896 C 344.532065 919.546226 343.870677 918.829955 343.26096 918.032596 C 342.651242 917.235237 342.103531 916.370305 341.628158 915.424286 C 341.152785 914.491782 340.749752 913.505219 340.419058 912.464599 C 340.088364 911.423978 339.840343 910.342813 339.664662 909.23462 C 339.499315 908.139941 339.416642 907.018232 339.416642 905.896524 C 339.416642 904.761301 339.499315 903.639593 339.664662 902.544914 C 339.840343 901.436721 340.088364 900.355556 340.419058 899.314935 C 340.749752 898.274314 341.152785 897.287752 341.628158 896.355247 C 342.103531 895.409228 342.651242 894.544297 343.26096 893.746938 C 343.870677 892.949579 344.532065 892.233308 345.255458 891.611638 C 345.968517 890.989968 346.722912 890.449386 347.518645 890.030435 C 348.314377 889.597969 349.141112 889.27362 349.988516 889.043872 C 350.835919 888.827639 351.683322 888.719523 352.551394 888.719523 C 353.409132 888.719523 354.266869 888.827639 355.114273 889.043872 C 355.951342 889.27362 356.778077 889.597969 357.573809 890.030435 C 358.369542 890.449386 359.123938 890.989968 359.847331 891.611638 C 360.56039 892.233308 361.221778 892.949579 361.831495 893.746938 C 362.441212 894.544297 362.988924 895.409228 363.464296 896.355247 C 363.950003 897.287752 364.353036 898.274314 364.68373 899.314935 C 365.014424 900.355556 365.262445 901.436721 365.427792 902.544914 C 365.593139 903.639593 365.675812 904.761301 365.675812 905.896524 Z M 365.675812 905.896524 " stroke="#007d00" stroke-width="0.849" stroke-opacity="1" stroke-miterlimit="4"/><g clip-path="url(#003f3b222b)"><path fill="#90b7f0" d="M 131.144531 37.863281 C 158.449219 59.625 196.429688 72.261719 217.304688 77.992188 C 213.679688 212.550781 146.003906 239.433594 131.367188 243.679688 C 116.8125 239.34375 49.617188 212.121094 45.089844 77.964844 C 65.980469 72.210938 103.882812 59.578125 131.144531 37.863281 Z M 131.144531 37.863281 " fill-opacity="1" fill-rule="evenodd"/></g><path fill="#90b7f0" d="M 92.046875 134.636719 L 91.867188 134.28125 L 91.484375 134.378906 L 91.761719 134.597656 C 91.855469 134.628906 91.953125 134.640625 92.046875 134.636719 Z M 92.046875 134.636719 " fill-opacity="1" fill-rule="evenodd"/><path fill="#90b7f0" d="M 92.683594 134.332031 C 92.570312 134.433594 92.445312 134.519531 92.335938 134.578125 C 92.421875 134.542969 92.511719 134.492188 92.59375 134.417969 C 92.621094 134.394531 92.652344 134.367188 92.683594 134.332031 Z M 92.683594 134.332031 " fill-opacity="1" fill-rule="evenodd"/><g clip-path="url(#bd8c6d309b)"><path fill="#d3f2ff" d="M 128.316406 44.898438 C 152.917969 64.507812 187.136719 75.890625 205.945312 81.054688 C 202.675781 202.289062 141.703125 226.507812 128.515625 230.335938 C 115.402344 226.429688 54.863281 201.902344 50.78125 81.027344 C 69.605469 75.847656 103.753906 64.460938 128.316406 44.898438 Z M 128.316406 44.898438 " fill-opacity="1" fill-rule="evenodd"/></g><path fill="#d3f2ff" d="M 93.089844 132.089844 L 92.925781 131.769531 L 92.582031 131.859375 L 92.832031 132.054688 C 92.917969 132.082031 93.003906 132.09375 93.089844 132.089844 Z M 93.089844 132.089844 " fill-opacity="1" fill-rule="evenodd"/><path fill="#d3f2ff" d="M 93.664062 131.8125 C 93.5625 131.910156 93.449219 131.984375 93.347656 132.035156 C 93.429688 132.007812 93.507812 131.960938 93.582031 131.894531 C 93.605469 131.871094 93.636719 131.847656 93.664062 131.8125 Z M 93.664062 131.8125 " fill-opacity="1" fill-rule="evenodd"/><g clip-path="url(#c93267af80)"><path fill="#a9e6ff" d="M 131.148438 48.054688 C 155.75 67.660156 189.96875 79.046875 208.777344 84.210938 C 205.507812 205.445312 144.535156 229.664062 131.347656 233.488281 C 118.234375 229.585938 57.695312 205.054688 53.613281 84.183594 C 72.4375 79 106.585938 67.617188 131.148438 48.054688 Z M 131.148438 48.054688 " fill-opacity="1" fill-rule="evenodd"/></g><path fill="#a9e6ff" d="M 95.925781 135.246094 L 95.757812 134.921875 L 95.414062 135.011719 L 95.664062 135.210938 C 95.75 135.238281 95.835938 135.25 95.925781 135.246094 Z M 95.925781 135.246094 " fill-opacity="1" fill-rule="evenodd"/><path fill="#a9e6ff" d="M 96.496094 134.96875 C 96.394531 135.0625 96.28125 135.136719 96.179688 135.191406 C 96.261719 135.160156 96.339844 135.117188 96.417969 135.046875 C 96.441406 135.027344 96.46875 135.003906 96.496094 134.96875 Z M 96.496094 134.96875 " fill-opacity="1" fill-rule="evenodd"/><g clip-path="url(#f69a2ef5d1)"><path fill="#90b7f0" d="M 184.664062 138.007812 C 184.644531 136.261719 184.375 136.269531 186.222656 135.886719 C 188.25 135.371094 190.222656 134.347656 191.976562 133.226562 C 191.90625 132.328125 191.808594 131.433594 191.695312 130.539062 C 189.746094 129.808594 187.601562 129.214844 185.511719 129.132812 C 183.621094 129.144531 183.890625 129.089844 183.546875 127.382812 C 183.167969 125.675781 182.902344 125.738281 184.628906 124.984375 C 186.503906 124.058594 188.222656 122.644531 189.707031 121.183594 C 189.449219 120.320312 189.171875 119.464844 188.871094 118.613281 C 186.8125 118.304688 184.589844 118.167969 182.53125 118.523438 C 180.6875 118.925781 180.9375 118.816406 180.242188 117.21875 C 179.519531 115.628906 179.273438 115.746094 180.804688 114.648438 C 182.445312 113.351562 183.832031 111.613281 184.980469 109.875 C 184.550781 109.085938 184.097656 108.304688 183.628906 107.535156 C 181.550781 107.660156 179.351562 107.992188 177.410156 108.765625 C 175.6875 109.542969 175.914062 109.386719 174.902344 107.964844 C 173.859375 106.5625 173.644531 106.726562 174.914062 105.332031 C 176.253906 103.726562 177.246094 101.734375 178.007812 99.796875 C 177.421875 99.113281 176.820312 98.445312 176.199219 97.789062 C 174.191406 98.34375 172.109375 99.125 170.371094 100.285156 C 168.851562 101.40625 169.035156 101.203125 167.75 100.023438 C 166.441406 98.867188 166.265625 99.074219 167.21875 97.449219 C 168.191406 95.597656 168.75 93.445312 169.09375 91.386719 C 168.375 90.84375 167.648438 90.3125 166.90625 89.800781 C 165.058594 90.761719 163.183594 91.957031 161.722656 93.453125 C 160.46875 94.867188 160.609375 94.628906 159.105469 93.746094 C 157.585938 92.886719 157.457031 93.125 158.050781 91.335938 C 158.617188 89.320312 158.714844 87.097656 158.621094 85.015625 C 157.808594 84.632812 156.984375 84.265625 156.15625 83.917969 C 154.546875 85.242188 152.960938 86.804688 151.84375 88.570312 C 150.910156 90.210938 151 89.953125 149.34375 89.398438 C 147.679688 88.875 147.601562 89.136719 147.808594 87.261719 C 147.945312 85.171875 147.582031 82.980469 147.058594 80.960938 C 146.179688 80.753906 145.300781 80.566406 144.414062 80.402344 C 143.117188 82.03125 141.890625 83.886719 141.164062 85.847656 C 140.59375 87.648438 140.625 87.375 138.894531 87.175781 C 137.15625 87.011719 137.132812 87.28125 136.949219 85.40625 C 136.644531 83.335938 135.832031 81.265625 134.902344 79.402344 C 134 79.378906 133.101562 79.378906 132.199219 79.402344 C 131.269531 81.265625 130.457031 83.335938 130.15625 85.40625 C 129.96875 87.285156 129.945312 87.011719 128.207031 87.175781 C 126.472656 87.375 126.507812 87.644531 125.9375 85.847656 C 125.210938 83.886719 123.984375 82.03125 122.6875 80.402344 C 121.800781 80.566406 120.921875 80.753906 120.046875 80.960938 C 119.519531 82.980469 119.15625 85.175781 119.292969 87.261719 C 119.5 89.136719 119.417969 88.875 117.757812 89.398438 C 116.101562 89.953125 116.191406 90.210938 115.257812 88.570312 C 114.140625 86.804688 112.558594 85.242188 110.949219 83.917969 C 110.117188 84.265625 109.292969 84.632812 108.480469 85.015625 C 108.386719 87.097656 108.484375 89.320312 109.050781 91.335938 C 109.648438 93.125 109.511719 92.886719 107.996094 93.746094 C 106.492188 94.632812 106.632812 94.863281 105.378906 93.453125 C 103.917969 91.957031 102.046875 90.761719 100.195312 89.800781 C 99.453125 90.3125 98.726562 90.84375 98.011719 91.386719 C 98.351562 93.441406 98.910156 95.597656 99.882812 97.449219 C 100.839844 99.078125 100.65625 98.871094 99.351562 100.023438 C 98.0625 101.207031 98.25 101.402344 96.730469 100.285156 C 94.992188 99.125 92.910156 98.34375 90.902344 97.789062 C 90.285156 98.445312 89.679688 99.113281 89.09375 99.796875 C 89.855469 101.734375 90.851562 103.726562 92.1875 105.332031 C 93.460938 106.730469 93.238281 106.566406 92.203125 107.964844 C 91.1875 109.386719 91.410156 109.542969 89.695312 108.765625 C 87.75 107.992188 85.550781 107.660156 83.472656 107.535156 C 83.003906 108.304688 82.554688 109.085938 82.121094 109.875 C 83.269531 111.613281 84.65625 113.351562 86.296875 114.648438 C 87.832031 115.746094 87.582031 115.632812 86.859375 117.21875 C 86.164062 118.820312 86.414062 118.925781 84.570312 118.523438 C 82.511719 118.167969 80.289062 118.304688 78.230469 118.613281 C 77.933594 119.464844 77.652344 120.320312 77.394531 121.183594 C 78.878906 122.644531 80.597656 124.058594 82.472656 124.984375 C 84.203125 125.738281 83.933594 125.679688 83.558594 127.382812 C 83.210938 129.09375 83.476562 129.144531 81.589844 129.132812 C 79.5 129.214844 77.359375 129.808594 75.40625 130.539062 C 75.292969 131.433594 75.199219 132.328125 75.125 133.226562 C 76.878906 134.347656 78.855469 135.371094 80.882812 135.886719 C 82.730469 136.269531 82.457031 136.265625 82.441406 138.007812 C 82.457031 139.753906 82.726562 139.746094 80.882812 140.128906 C 78.855469 140.644531 76.878906 141.667969 75.125 142.792969 C 75.199219 143.6875 75.292969 144.585938 75.40625 145.476562 C 77.355469 146.207031 79.5 146.800781 81.589844 146.886719 C 83.480469 146.871094 83.210938 146.925781 83.558594 148.632812 C 83.9375 150.339844 84.199219 150.277344 82.472656 151.03125 C 80.914062 151.796875 79.4375 152.9375 78.15625 154.101562 L 77.394531 154.835938 C 77.652344 155.695312 77.933594 156.554688 78.230469 157.402344 C 80.289062 157.714844 82.511719 157.847656 84.570312 157.492188 C 86.417969 157.089844 86.164062 157.199219 86.859375 158.796875 C 87.585938 160.386719 87.828125 160.269531 86.296875 161.367188 C 84.65625 162.664062 83.269531 164.402344 82.121094 166.140625 C 82.554688 166.933594 83.003906 167.710938 83.472656 168.480469 C 85.550781 168.355469 87.75 168.023438 89.695312 167.25 C 91.414062 166.472656 91.1875 166.628906 92.199219 168.050781 C 93.242188 169.453125 93.457031 169.289062 92.1875 170.683594 C 90.851562 172.292969 89.855469 174.28125 89.09375 176.21875 C 89.679688 176.902344 90.285156 177.570312 90.902344 178.226562 C 92.910156 177.671875 94.992188 176.890625 96.730469 175.730469 C 98.253906 174.609375 98.066406 174.8125 99.351562 175.992188 C 100.660156 177.148438 100.835938 176.941406 99.882812 178.570312 C 98.910156 180.421875 98.351562 182.574219 98.011719 184.628906 C 98.726562 185.175781 99.453125 185.703125 100.195312 186.214844 C 102.042969 185.257812 103.917969 184.058594 105.378906 182.5625 C 106.632812 181.148438 106.492188 181.386719 107.996094 182.273438 C 109.515625 183.128906 109.644531 182.890625 109.050781 184.683594 C 108.484375 186.695312 108.386719 188.917969 108.480469 191 C 109.292969 191.382812 110.117188 191.75 110.949219 192.097656 C 112.554688 190.773438 114.140625 189.210938 115.257812 187.445312 C 116.191406 185.804688 116.105469 186.0625 117.757812 186.617188 C 119.421875 187.140625 119.5 186.882812 119.292969 188.753906 C 119.15625 190.84375 119.519531 193.035156 120.046875 195.054688 C 120.921875 195.261719 121.800781 195.449219 122.6875 195.613281 C 123.984375 193.984375 125.210938 192.128906 125.9375 190.167969 C 126.507812 188.367188 126.476562 188.640625 128.207031 188.839844 C 129.945312 189.003906 129.96875 188.734375 130.15625 190.613281 C 130.457031 192.679688 131.269531 194.75 132.199219 196.613281 C 133.101562 196.636719 134 196.636719 134.902344 196.613281 C 135.832031 194.75 136.644531 192.679688 136.949219 190.613281 C 137.132812 188.730469 137.160156 189.003906 138.894531 188.839844 C 140.628906 188.640625 140.59375 188.371094 141.164062 190.167969 C 141.890625 192.128906 143.117188 193.984375 144.414062 195.613281 C 145.300781 195.449219 146.179688 195.261719 147.058594 195.054688 C 147.582031 193.039062 147.945312 190.84375 147.808594 188.753906 C 147.601562 186.878906 147.683594 187.140625 149.34375 186.617188 C 151 186.0625 150.910156 185.804688 151.84375 187.445312 C 152.960938 189.214844 154.546875 190.773438 156.15625 192.097656 C 156.984375 191.75 157.808594 191.382812 158.621094 191 C 158.714844 188.917969 158.617188 186.695312 158.050781 184.683594 C 157.453125 182.890625 157.589844 183.128906 159.105469 182.273438 C 160.609375 181.382812 160.46875 181.152344 161.722656 182.5625 C 163.183594 184.058594 165.058594 185.253906 166.90625 186.214844 C 167.648438 185.703125 168.375 185.175781 169.09375 184.628906 C 168.75 182.574219 168.191406 180.417969 167.21875 178.570312 C 166.261719 176.941406 166.445312 177.144531 167.75 175.992188 C 169.039062 174.808594 168.851562 174.613281 170.371094 175.730469 C 172.109375 176.890625 174.191406 177.671875 176.199219 178.226562 C 176.820312 177.570312 177.421875 176.902344 178.007812 176.21875 C 177.246094 174.28125 176.25 172.289062 174.914062 170.683594 C 173.644531 169.289062 173.863281 169.453125 174.902344 168.050781 C 175.914062 166.628906 175.691406 166.472656 177.410156 167.25 C 179.351562 168.023438 181.550781 168.355469 183.628906 168.480469 C 184.097656 167.710938 184.550781 166.933594 184.980469 166.140625 C 183.832031 164.402344 182.445312 162.664062 180.804688 161.367188 C 179.269531 160.269531 179.519531 160.382812 180.242188 158.796875 C 180.9375 157.195312 180.6875 157.089844 182.53125 157.492188 C 184.589844 157.847656 186.8125 157.714844 188.871094 157.402344 C 189.171875 156.554688 189.449219 155.695312 189.707031 154.835938 C 188.222656 153.371094 186.503906 151.957031 184.628906 151.03125 C 182.898438 150.277344 183.167969 150.335938 183.546875 148.632812 C 183.890625 146.921875 183.625 146.875 185.511719 146.882812 C 187.601562 146.800781 189.746094 146.210938 191.695312 145.476562 C 191.808594 144.585938 191.90625 143.6875 191.976562 142.792969 C 190.222656 141.667969 188.246094 140.644531 186.222656 140.128906 C 184.371094 139.75 184.648438 139.75 184.664062 138.007812 Z M 128.449219 170.253906 C 128.449219 174.367188 124.40625 177.300781 120.515625 175.964844 C 108.839844 171.957031 99.601562 162.714844 95.59375 151.042969 C 94.257812 147.152344 97.191406 143.109375 101.304688 143.109375 L 116.066406 143.109375 C 118.148438 143.109375 120.054688 144.199219 121.183594 145.949219 C 122.324219 147.722656 123.835938 149.234375 125.605469 150.375 C 127.355469 151.503906 128.449219 153.410156 128.449219 155.488281 Z M 128.449219 120.527344 C 128.449219 122.609375 127.355469 124.515625 125.605469 125.640625 C 123.835938 126.78125 122.324219 128.292969 121.183594 130.066406 C 120.054688 131.816406 118.148438 132.90625 116.066406 132.90625 L 101.304688 132.90625 C 97.191406 132.90625 94.257812 128.863281 95.59375 124.972656 C 99.601562 113.300781 108.839844 104.058594 120.515625 100.050781 C 124.40625 98.714844 128.449219 101.648438 128.449219 105.761719 Z M 133.550781 143.109375 C 126.878906 143.078125 126.878906 132.9375 133.550781 132.90625 C 140.222656 132.9375 140.222656 143.082031 133.550781 143.109375 Z M 171.507812 151.042969 C 167.5 162.714844 158.261719 171.957031 146.585938 175.964844 C 142.695312 177.300781 138.652344 174.367188 138.652344 170.253906 L 138.652344 155.488281 C 138.652344 153.410156 139.746094 151.503906 141.496094 150.375 C 143.269531 149.234375 144.78125 147.722656 145.921875 145.949219 C 147.046875 144.199219 148.953125 143.109375 151.035156 143.109375 L 165.796875 143.109375 C 169.910156 143.109375 172.84375 147.152344 171.507812 151.042969 Z M 165.796875 132.90625 L 151.035156 132.90625 C 148.953125 132.90625 147.046875 131.816406 145.921875 130.066406 C 144.78125 128.292969 143.269531 126.78125 141.496094 125.640625 C 139.746094 124.515625 138.652344 122.609375 138.652344 120.527344 L 138.652344 105.761719 C 138.652344 101.648438 142.695312 98.714844 146.585938 100.050781 C 158.261719 104.058594 167.5 113.300781 171.507812 124.972656 C 172.84375 128.863281 169.910156 132.90625 165.796875 132.90625 Z M 165.796875 132.90625 " fill-opacity="1" fill-rule="nonzero"/></g><g clip-path="url(#21494e6340)"><path fill="#d3f2ff" d="M 179.96875 138.007812 C 179.953125 136.261719 179.683594 136.269531 181.53125 135.886719 C 183.554688 135.371094 185.53125 134.347656 187.285156 133.226562 C 187.210938 132.328125 187.117188 131.433594 187.003906 130.539062 C 185.054688 129.808594 182.910156 129.214844 180.820312 129.132812 C 178.929688 129.144531 179.199219 129.089844 178.855469 127.382812 C 178.472656 125.675781 178.210938 125.738281 179.9375 124.984375 C 181.8125 124.058594 183.53125 122.644531 185.015625 121.183594 C 184.757812 120.320312 184.476562 119.464844 184.179688 118.613281 C 182.121094 118.304688 179.898438 118.167969 177.839844 118.523438 C 175.992188 118.925781 176.246094 118.816406 175.550781 117.21875 C 174.824219 115.628906 174.582031 115.746094 176.113281 114.648438 C 177.753906 113.351562 179.140625 111.613281 180.289062 109.875 C 179.855469 109.085938 179.40625 108.304688 178.9375 107.535156 C 176.859375 107.660156 174.660156 107.992188 172.714844 108.765625 C 170.996094 109.542969 171.222656 109.386719 170.210938 107.964844 C 169.167969 106.5625 168.953125 106.726562 170.222656 105.332031 C 171.558594 103.726562 172.554688 101.734375 173.316406 99.796875 C 172.730469 99.113281 172.125 98.445312 171.507812 97.789062 C 169.5 98.34375 167.417969 99.125 165.679688 100.285156 C 164.15625 101.40625 164.34375 101.203125 163.058594 100.023438 C 161.75 98.867188 161.574219 99.074219 162.527344 97.449219 C 163.5 95.597656 164.058594 93.445312 164.398438 91.386719 C 163.683594 90.84375 162.957031 90.3125 162.214844 89.800781 C 160.367188 90.761719 158.492188 91.957031 157.03125 93.453125 C 155.777344 94.867188 155.917969 94.628906 154.414062 93.746094 C 152.894531 92.886719 152.765625 93.125 153.359375 91.335938 C 153.925781 89.320312 154.023438 87.097656 153.929688 85.015625 C 153.117188 84.632812 152.292969 84.265625 151.464844 83.917969 C 149.855469 85.242188 148.269531 86.804688 147.152344 88.570312 C 146.21875 90.210938 146.308594 89.953125 144.652344 89.398438 C 142.988281 88.875 142.910156 89.136719 143.117188 87.261719 C 143.253906 85.171875 142.890625 82.980469 142.363281 80.960938 C 141.488281 80.753906 140.609375 80.566406 139.722656 80.402344 C 138.425781 82.03125 137.199219 83.886719 136.472656 85.847656 C 135.902344 87.648438 135.933594 87.375 134.203125 87.175781 C 132.464844 87.011719 132.441406 87.28125 132.257812 85.40625 C 131.953125 83.335938 131.140625 81.265625 130.210938 79.402344 C 129.308594 79.378906 128.410156 79.378906 127.507812 79.402344 C 126.578125 81.265625 125.765625 83.335938 125.460938 85.40625 C 125.277344 87.285156 125.253906 87.011719 123.515625 87.175781 C 121.78125 87.375 121.816406 87.644531 121.246094 85.847656 C 120.519531 83.886719 119.292969 82.03125 117.996094 80.402344 C 117.109375 80.566406 116.230469 80.753906 115.351562 80.960938 C 114.828125 82.980469 114.464844 85.175781 114.601562 87.261719 C 114.808594 89.136719 114.726562 88.875 113.066406 89.398438 C 111.410156 89.953125 111.5 90.210938 110.566406 88.570312 C 109.449219 86.804688 107.863281 85.242188 106.253906 83.917969 C 105.425781 84.265625 104.601562 84.632812 103.789062 85.015625 C 103.695312 87.097656 103.792969 89.320312 104.359375 91.335938 C 104.957031 93.125 104.820312 92.886719 103.304688 93.746094 C 101.800781 94.632812 101.941406 94.863281 100.6875 93.453125 C 99.226562 91.957031 97.351562 90.761719 95.503906 89.800781 C 94.761719 90.3125 94.035156 90.84375 93.320312 91.386719 C 93.660156 93.441406 94.21875 95.597656 95.191406 97.449219 C 96.148438 99.078125 95.964844 98.871094 94.660156 100.023438 C 93.371094 101.207031 93.558594 101.402344 92.039062 100.285156 C 90.300781 99.125 88.21875 98.34375 86.210938 97.789062 C 85.59375 98.445312 84.988281 99.113281 84.402344 99.796875 C 85.164062 101.734375 86.160156 103.726562 87.496094 105.332031 C 88.765625 106.730469 88.546875 106.566406 87.507812 107.964844 C 86.496094 109.386719 86.71875 109.542969 85 108.765625 C 83.058594 107.992188 80.859375 107.660156 78.78125 107.535156 C 78.3125 108.304688 77.859375 109.085938 77.429688 109.875 C 78.578125 111.613281 79.964844 113.351562 81.605469 114.648438 C 83.140625 115.746094 82.890625 115.632812 82.167969 117.21875 C 81.472656 118.820312 81.722656 118.925781 79.878906 118.523438 C 77.820312 118.167969 75.597656 118.304688 73.539062 118.613281 C 73.242188 119.464844 72.960938 120.320312 72.703125 121.183594 C 74.1875 122.644531 75.90625 124.058594 77.78125 124.984375 C 79.511719 125.738281 79.242188 125.679688 78.863281 127.382812 C 78.519531 129.09375 78.785156 129.144531 76.898438 129.132812 C 74.808594 129.214844 72.664062 129.808594 70.714844 130.539062 C 70.601562 131.433594 70.503906 132.328125 70.433594 133.226562 C 72.1875 134.347656 74.164062 135.371094 76.1875 135.886719 C 78.039062 136.269531 77.765625 136.265625 77.746094 138.007812 C 77.765625 139.753906 78.035156 139.746094 76.1875 140.128906 C 74.164062 140.644531 72.1875 141.667969 70.433594 142.792969 C 70.503906 143.6875 70.601562 144.585938 70.714844 145.476562 C 72.664062 146.207031 74.808594 146.800781 76.898438 146.886719 C 78.785156 146.871094 78.519531 146.925781 78.863281 148.632812 C 79.242188 150.339844 79.507812 150.277344 77.78125 151.03125 C 76.222656 151.796875 74.746094 152.9375 73.464844 154.101562 L 72.703125 154.835938 C 72.960938 155.695312 73.242188 156.554688 73.539062 157.402344 C 75.597656 157.714844 77.820312 157.847656 79.878906 157.492188 C 81.722656 157.089844 81.472656 157.199219 82.167969 158.796875 C 82.890625 160.386719 83.136719 160.269531 81.605469 161.367188 C 79.964844 162.664062 78.578125 164.402344 77.429688 166.140625 C 77.859375 166.933594 78.3125 167.710938 78.78125 168.480469 C 80.859375 168.355469 83.058594 168.023438 85 167.25 C 86.722656 166.472656 86.496094 166.628906 87.507812 168.050781 C 88.550781 169.453125 88.765625 169.289062 87.496094 170.683594 C 86.160156 172.292969 85.164062 174.28125 84.402344 176.21875 C 84.988281 176.902344 85.59375 177.570312 86.210938 178.226562 C 88.21875 177.671875 90.300781 176.890625 92.039062 175.730469 C 93.558594 174.609375 93.375 174.8125 94.660156 175.992188 C 95.96875 177.148438 96.144531 176.941406 95.191406 178.570312 C 94.21875 180.421875 93.660156 182.574219 93.320312 184.628906 C 94.035156 185.175781 94.761719 185.703125 95.503906 186.214844 C 97.351562 185.257812 99.226562 184.058594 100.6875 182.5625 C 101.941406 181.148438 101.800781 181.386719 103.304688 182.273438 C 104.824219 183.128906 104.953125 182.890625 104.359375 184.683594 C 103.792969 186.695312 103.695312 188.917969 103.789062 191 C 104.601562 191.382812 105.425781 191.75 106.253906 192.097656 C 107.863281 190.773438 109.449219 189.210938 110.566406 187.445312 C 111.5 185.804688 111.410156 186.0625 113.066406 186.617188 C 114.730469 187.140625 114.808594 186.882812 114.601562 188.753906 C 114.464844 190.84375 114.828125 193.035156 115.351562 195.054688 C 116.230469 195.261719 117.109375 195.449219 117.996094 195.613281 C 119.292969 193.984375 120.519531 192.128906 121.246094 190.167969 C 121.816406 188.367188 121.785156 188.640625 123.515625 188.839844 C 125.253906 189.003906 125.277344 188.734375 125.460938 190.613281 C 125.765625 192.679688 126.578125 194.75 127.507812 196.613281 C 128.410156 196.636719 129.308594 196.636719 130.210938 196.613281 C 131.140625 194.75 131.953125 192.679688 132.257812 190.613281 C 132.441406 188.730469 132.464844 189.003906 134.203125 188.839844 C 135.9375 188.640625 135.902344 188.371094 136.472656 190.167969 C 137.199219 192.128906 138.425781 193.984375 139.722656 195.613281 C 140.609375 195.449219 141.488281 195.261719 142.363281 195.054688 C 142.890625 193.039062 143.253906 190.84375 143.117188 188.753906 C 142.910156 186.878906 142.992188 187.140625 144.652344 186.617188 C 146.308594 186.0625 146.21875 185.804688 147.152344 187.445312 C 148.269531 189.214844 149.855469 190.773438 151.464844 192.097656 C 152.292969 191.75 153.117188 191.382812 153.929688 191 C 154.023438 188.917969 153.925781 186.695312 153.359375 184.683594 C 152.761719 182.890625 152.898438 183.128906 154.414062 182.273438 C 155.917969 181.382812 155.777344 181.152344 157.03125 182.5625 C 158.492188 184.058594 160.367188 185.253906 162.214844 186.214844 C 162.957031 185.703125 163.683594 185.175781 164.398438 184.628906 C 164.058594 182.574219 163.5 180.417969 162.527344 178.570312 C 161.570312 176.941406 161.753906 177.144531 163.058594 175.992188 C 164.347656 174.808594 164.160156 174.613281 165.679688 175.730469 C 167.417969 176.890625 169.5 177.671875 171.507812 178.226562 C 172.125 177.570312 172.730469 176.902344 173.316406 176.21875 C 172.554688 174.28125 171.558594 172.289062 170.222656 170.683594 C 168.949219 169.289062 169.171875 169.453125 170.210938 168.050781 C 171.222656 166.628906 171 166.472656 172.714844 167.25 C 174.660156 168.023438 176.859375 168.355469 178.9375 168.480469 C 179.40625 167.710938 179.855469 166.933594 180.289062 166.140625 C 179.140625 164.402344 177.753906 162.664062 176.113281 161.367188 C 174.578125 160.269531 174.828125 160.382812 175.550781 158.796875 C 176.246094 157.195312 175.996094 157.089844 177.839844 157.492188 C 179.898438 157.847656 182.121094 157.714844 184.179688 157.402344 C 184.476562 156.554688 184.757812 155.695312 185.015625 154.835938 C 183.53125 153.371094 181.8125 151.957031 179.9375 151.03125 C 178.207031 150.277344 178.476562 150.335938 178.855469 148.632812 C 179.199219 146.921875 178.933594 146.875 180.820312 146.882812 C 182.910156 146.800781 185.054688 146.210938 187.003906 145.476562 C 187.117188 144.585938 187.210938 143.6875 187.285156 142.792969 C 185.53125 141.667969 183.554688 140.644531 181.53125 140.128906 C 179.679688 139.75 179.953125 139.75 179.96875 138.007812 Z M 123.757812 170.253906 C 123.757812 174.367188 119.714844 177.300781 115.824219 175.964844 C 104.148438 171.957031 94.910156 162.714844 90.902344 151.042969 C 89.566406 147.152344 92.5 143.109375 96.613281 143.109375 L 111.375 143.109375 C 113.457031 143.109375 115.363281 144.199219 116.488281 145.949219 C 117.632812 147.722656 119.140625 149.234375 120.914062 150.375 C 122.664062 151.503906 123.757812 153.410156 123.757812 155.488281 Z M 123.757812 120.527344 C 123.757812 122.609375 122.664062 124.515625 120.914062 125.640625 C 119.140625 126.78125 117.632812 128.292969 116.488281 130.066406 C 115.363281 131.816406 113.457031 132.90625 111.375 132.90625 L 96.613281 132.90625 C 92.5 132.90625 89.566406 128.863281 90.902344 124.972656 C 94.910156 113.300781 104.148438 104.058594 115.824219 100.050781 C 119.714844 98.714844 123.757812 101.648438 123.757812 105.761719 Z M 128.859375 143.109375 C 122.1875 143.078125 122.1875 132.9375 128.859375 132.90625 C 135.53125 132.9375 135.53125 143.082031 128.859375 143.109375 Z M 166.816406 151.042969 C 162.808594 162.714844 153.570312 171.957031 141.894531 175.964844 C 138.003906 177.300781 133.960938 174.367188 133.960938 170.253906 L 133.960938 155.488281 C 133.960938 153.410156 135.054688 151.503906 136.804688 150.375 C 138.574219 149.234375 140.085938 147.722656 141.226562 145.949219 C 142.355469 144.199219 144.261719 143.109375 146.34375 143.109375 L 161.105469 143.109375 C 165.21875 143.109375 168.152344 147.152344 166.816406 151.042969 Z M 161.105469 132.90625 L 146.34375 132.90625 C 144.261719 132.90625 142.355469 131.816406 141.226562 130.066406 C 140.085938 128.292969 138.574219 126.78125 136.804688 125.640625 C 135.054688 124.515625 133.960938 122.609375 133.960938 120.527344 L 133.960938 105.761719 C 133.960938 101.648438 138.003906 98.714844 141.894531 100.050781 C 153.570312 104.058594 162.808594 113.300781 166.816406 124.972656 C 168.152344 128.863281 165.21875 132.90625 161.105469 132.90625 Z M 161.105469 132.90625 " fill-opacity="1" fill-rule="nonzero"/></g><g clip-path="url(#974b87c3b0)"><path fill="#d3f2ff" d="M 161.871094 14.183594 C 161.871094 14.355469 161.871094 14.554688 161.820312 14.730469 L 157.714844 31.152344 C 157.515625 31.972656 156.769531 32.570312 155.921875 32.570312 L 131.289062 32.695312 L 106.628906 32.695312 C 105.78125 32.695312 105.035156 32.125 104.8125 31.277344 L 100.707031 14.804688 C 100.65625 14.605469 100.65625 14.40625 100.65625 14.230469 C 99.0625 13.734375 97.917969 12.242188 97.917969 10.5 C 97.917969 8.335938 99.683594 6.566406 101.851562 6.566406 C 104.015625 6.566406 105.78125 8.335938 105.78125 10.5 C 105.78125 11.71875 105.234375 12.8125 104.339844 13.535156 L 109.488281 18.710938 C 110.757812 20.003906 112.574219 20.75 114.417969 20.75 C 116.605469 20.75 118.671875 19.707031 119.992188 17.988281 L 128.425781 6.792969 C 127.703125 6.09375 127.28125 5.097656 127.28125 4.03125 C 127.28125 1.863281 129.046875 0.0976562 131.210938 0.0976562 C 133.378906 0.0976562 135.144531 1.863281 135.144531 4.03125 C 135.144531 5.074219 134.722656 6.019531 134.050781 6.742188 L 142.433594 17.964844 C 143.753906 19.707031 145.820312 20.75 148.007812 20.75 C 149.875 20.75 151.617188 20.03125 152.9375 18.710938 L 158.113281 13.535156 C 157.214844 12.8125 156.644531 11.71875 156.644531 10.472656 C 156.644531 8.308594 158.410156 6.542969 160.574219 6.542969 C 162.738281 6.542969 164.507812 8.308594 164.507812 10.472656 C 164.480469 12.191406 163.386719 13.632812 161.871094 14.183594 Z M 157.316406 38.542969 C 157.316406 37.523438 156.46875 36.675781 155.449219 36.675781 L 107.175781 36.675781 C 106.15625 36.675781 105.308594 37.523438 105.308594 38.542969 L 105.308594 43.023438 C 105.308594 44.042969 106.15625 44.886719 107.175781 44.886719 L 155.449219 44.886719 C 156.46875 44.886719 157.316406 44.042969 157.316406 43.023438 Z M 157.316406 38.542969 " fill-opacity="1" fill-rule="nonzero"/></g></svg>