<svg xmlns="http://www.w3.org/2000/svg" xmlns:xlink="http://www.w3.org/1999/xlink" width="231" zoomAndPan="magnify" viewBox="0 0 173.25 207.000001" height="276" preserveAspectRatio="xMidYMid meet" version="1.0"><defs><clipPath id="115c0e6ff2"><path d="M 0.0429688 0 L 171.714844 0 L 171.714844 205.257812 L 0.0429688 205.257812 Z M 0.0429688 0 " clip-rule="nonzero"/></clipPath><clipPath id="4ef9443fb8"><path d="M 5.730469 7.023438 L 160.980469 7.023438 L 160.980469 192.128906 L 5.730469 192.128906 Z M 5.730469 7.023438 " clip-rule="nonzero"/></clipPath><clipPath id="20199c9091"><path d="M 8.554688 10.171875 L 163.804688 10.171875 L 163.804688 195.277344 L 8.554688 195.277344 Z M 8.554688 10.171875 " clip-rule="nonzero"/></clipPath><clipPath id="12f698e20a"><path d="M 32.382812 44.179688 L 148.820312 44.179688 L 148.820312 161.363281 L 32.382812 161.363281 Z M 32.382812 44.179688 " clip-rule="nonzero"/></clipPath><clipPath id="aa7f0869ee"><path d="M 27.699219 44.179688 L 144.136719 44.179688 L 144.136719 161.363281 L 27.699219 161.363281 Z M 27.699219 44.179688 " clip-rule="nonzero"/></clipPath></defs><g clip-path="url(#115c0e6ff2)"><path fill="#b74e14" d="M 85.953125 0 C 113.207031 21.71875 151.113281 34.328125 171.945312 40.050781 C 168.324219 174.34375 100.785156 201.171875 86.175781 205.410156 C 71.652344 201.085938 4.589844 173.914062 0.0703125 40.019531 C 20.921875 34.28125 58.746094 21.671875 85.953125 0 Z M 85.953125 0 " fill-opacity="1" fill-rule="evenodd"/></g><path fill="#b74e14" d="M 46.9375 96.582031 L 46.753906 96.226562 L 46.375 96.328125 L 46.648438 96.542969 C 46.742188 96.574219 46.839844 96.585938 46.9375 96.582031 Z M 46.9375 96.582031 " fill-opacity="1" fill-rule="evenodd"/><path fill="#b74e14" d="M 47.570312 96.277344 C 47.457031 96.382812 47.332031 96.464844 47.222656 96.523438 C 47.308594 96.488281 47.398438 96.441406 47.480469 96.363281 C 47.507812 96.339844 47.539062 96.3125 47.570312 96.277344 Z M 47.570312 96.277344 " fill-opacity="1" fill-rule="evenodd"/><g clip-path="url(#4ef9443fb8)"><path fill="#f58926" d="M 83.132812 7.023438 C 107.683594 26.589844 141.835938 37.953125 160.609375 43.105469 C 157.347656 164.101562 96.492188 188.273438 83.332031 192.09375 C 70.246094 188.195312 9.824219 163.714844 5.75 43.078125 C 24.535156 37.90625 58.617188 26.546875 83.132812 7.023438 Z M 83.132812 7.023438 " fill-opacity="1" fill-rule="evenodd"/></g><path fill="#f58926" d="M 47.976562 94.039062 L 47.8125 93.71875 L 47.46875 93.808594 L 47.71875 94.007812 C 47.804688 94.035156 47.890625 94.042969 47.976562 94.039062 Z M 47.976562 94.039062 " fill-opacity="1" fill-rule="evenodd"/><path fill="#f58926" d="M 48.546875 93.765625 C 48.449219 93.859375 48.332031 93.933594 48.234375 93.988281 C 48.3125 93.957031 48.390625 93.910156 48.46875 93.84375 C 48.492188 93.824219 48.519531 93.796875 48.546875 93.765625 Z M 48.546875 93.765625 " fill-opacity="1" fill-rule="evenodd"/><g clip-path="url(#20199c9091)"><path fill="#d5550e" d="M 85.960938 10.171875 C 110.511719 29.738281 144.664062 41.101562 163.4375 46.253906 C 160.171875 167.25 99.320312 191.421875 86.160156 195.242188 C 73.070312 191.34375 12.652344 166.863281 8.578125 46.226562 C 27.363281 41.058594 61.445312 29.695312 85.960938 10.171875 Z M 85.960938 10.171875 " fill-opacity="1" fill-rule="evenodd"/></g><path fill="#d5550e" d="M 50.804688 97.191406 L 50.640625 96.867188 L 50.296875 96.957031 L 50.542969 97.15625 C 50.628906 97.183594 50.71875 97.195312 50.804688 97.191406 Z M 50.804688 97.191406 " fill-opacity="1" fill-rule="evenodd"/><path fill="#d5550e" d="M 51.375 96.914062 C 51.273438 97.007812 51.160156 97.082031 51.0625 97.136719 C 51.140625 97.105469 51.21875 97.0625 51.296875 96.992188 C 51.320312 96.972656 51.347656 96.949219 51.375 96.914062 Z M 51.375 96.914062 " fill-opacity="1" fill-rule="evenodd"/><g clip-path="url(#12f698e20a)"><path fill="#b74e14" d="M 141.707031 102.699219 C 141.691406 100.957031 141.421875 100.960938 143.265625 100.582031 C 145.289062 100.066406 147.257812 99.042969 149.007812 97.925781 C 148.9375 97.027344 148.84375 96.136719 148.726562 95.242188 C 146.78125 94.511719 144.640625 93.921875 142.554688 93.839844 C 140.671875 93.851562 140.941406 93.796875 140.59375 92.09375 C 140.214844 90.390625 139.953125 90.453125 141.675781 89.699219 C 143.546875 88.773438 145.261719 87.363281 146.742188 85.90625 C 146.484375 85.042969 146.207031 84.191406 145.910156 83.339844 C 143.855469 83.03125 141.636719 82.898438 139.582031 83.25 C 137.738281 83.65625 137.992188 83.546875 137.296875 81.949219 C 136.574219 80.363281 136.328125 80.480469 137.859375 79.382812 C 139.496094 78.089844 140.882812 76.355469 142.027344 74.621094 C 141.59375 73.832031 141.144531 73.054688 140.679688 72.285156 C 138.605469 72.410156 136.40625 72.742188 134.46875 73.511719 C 132.753906 74.289062 132.976562 74.132812 131.964844 72.714844 C 130.929688 71.316406 130.714844 71.480469 131.980469 70.089844 C 133.316406 68.484375 134.308594 66.496094 135.066406 64.5625 C 134.480469 63.878906 133.878906 63.210938 133.261719 62.558594 C 131.261719 63.113281 129.179688 63.890625 127.445312 65.050781 C 125.925781 66.167969 126.113281 65.964844 124.832031 64.789062 C 123.523438 63.636719 123.347656 63.84375 124.300781 62.21875 C 125.269531 60.371094 125.828125 58.222656 126.167969 56.171875 C 125.453125 55.625 124.726562 55.097656 123.988281 54.585938 C 122.144531 55.542969 120.269531 56.738281 118.8125 58.234375 C 117.5625 59.640625 117.703125 59.40625 116.203125 58.523438 C 114.683594 57.664062 114.554688 57.902344 115.148438 56.117188 C 115.714844 54.105469 115.8125 51.890625 115.71875 49.8125 C 114.90625 49.429688 114.085938 49.0625 113.257812 48.714844 C 111.652344 50.035156 110.070312 51.59375 108.953125 53.359375 C 108.023438 54.996094 108.109375 54.738281 106.460938 54.183594 C 104.796875 53.660156 104.722656 53.921875 104.929688 52.050781 C 105.0625 49.96875 104.699219 47.777344 104.175781 45.765625 C 103.304688 45.558594 102.425781 45.371094 101.539062 45.207031 C 100.246094 46.832031 99.019531 48.683594 98.296875 50.640625 C 97.726562 52.4375 97.757812 52.164062 96.03125 51.96875 C 94.292969 51.800781 94.273438 52.070312 94.089844 50.199219 C 93.785156 48.132812 92.976562 46.066406 92.046875 44.207031 C 91.148438 44.1875 90.25 44.1875 89.351562 44.207031 C 88.421875 46.066406 87.609375 48.132812 87.308594 50.199219 C 87.125 52.074219 87.097656 51.800781 85.367188 51.96875 C 83.632812 52.167969 83.667969 52.433594 83.097656 50.640625 C 82.375 48.683594 81.152344 46.832031 79.855469 45.207031 C 78.972656 45.371094 78.09375 45.558594 77.21875 45.765625 C 76.695312 47.777344 76.332031 49.96875 76.46875 52.050781 C 76.675781 53.921875 76.59375 53.660156 74.933594 54.183594 C 73.28125 54.738281 73.371094 54.996094 72.441406 53.359375 C 71.328125 51.59375 69.746094 50.035156 68.140625 48.714844 C 67.308594 49.0625 66.488281 49.429688 65.675781 49.8125 C 65.582031 51.890625 65.683594 54.109375 66.246094 56.117188 C 66.84375 57.90625 66.707031 57.664062 65.191406 58.523438 C 63.691406 59.40625 63.832031 59.640625 62.582031 58.234375 C 61.125 56.738281 59.253906 55.542969 57.410156 54.585938 C 56.667969 55.097656 55.941406 55.625 55.226562 56.171875 C 55.566406 58.222656 56.125 60.371094 57.097656 62.21875 C 58.050781 63.84375 57.867188 63.636719 56.566406 64.789062 C 55.28125 65.96875 55.46875 66.164062 53.953125 65.050781 C 52.214844 63.890625 50.136719 63.113281 48.132812 62.558594 C 47.515625 63.210938 46.914062 63.878906 46.328125 64.5625 C 47.089844 66.496094 48.082031 68.484375 49.414062 70.089844 C 50.683594 71.480469 50.464844 71.316406 49.429688 72.714844 C 48.417969 74.136719 48.640625 74.289062 46.925781 73.511719 C 44.988281 72.742188 42.792969 72.410156 40.71875 72.285156 C 40.25 73.054688 39.800781 73.832031 39.371094 74.621094 C 40.515625 76.355469 41.898438 78.089844 43.535156 79.382812 C 45.070312 80.480469 44.820312 80.367188 44.097656 81.949219 C 43.402344 83.550781 43.65625 83.652344 41.816406 83.25 C 39.757812 82.898438 37.542969 83.03125 35.484375 83.339844 C 35.1875 84.191406 34.910156 85.042969 34.652344 85.90625 C 36.132812 87.363281 37.847656 88.773438 39.71875 89.699219 C 41.445312 90.453125 41.179688 90.394531 40.800781 92.09375 C 40.457031 93.800781 40.722656 93.851562 38.839844 93.839844 C 36.753906 93.921875 34.617188 94.511719 32.667969 95.242188 C 32.554688 96.136719 32.460938 97.027344 32.386719 97.925781 C 34.136719 99.042969 36.109375 100.066406 38.132812 100.582031 C 39.976562 100.960938 39.703125 100.957031 39.6875 102.699219 C 39.703125 104.441406 39.976562 104.433594 38.132812 104.816406 C 36.109375 105.328125 34.140625 106.351562 32.386719 107.472656 C 32.460938 108.367188 32.554688 109.261719 32.667969 110.152344 C 34.613281 110.882812 36.753906 111.472656 38.839844 111.558594 C 40.726562 111.546875 40.457031 111.597656 40.800781 113.304688 C 41.179688 115.003906 41.445312 114.941406 39.71875 115.699219 C 38.167969 116.460938 36.691406 117.597656 35.414062 118.761719 L 34.652344 119.492188 C 34.910156 120.351562 35.1875 121.207031 35.484375 122.054688 C 37.542969 122.363281 39.757812 122.496094 41.816406 122.144531 C 43.65625 121.742188 43.40625 121.851562 44.097656 123.445312 C 44.820312 125.03125 45.066406 124.914062 43.539062 126.011719 C 41.898438 127.304688 40.515625 129.042969 39.371094 130.777344 C 39.800781 131.566406 40.25 132.34375 40.71875 133.109375 C 42.792969 132.988281 44.988281 132.65625 46.925781 131.882812 C 48.644531 131.105469 48.417969 131.265625 49.429688 132.679688 C 50.46875 134.082031 50.683594 133.917969 49.414062 135.308594 C 48.082031 136.914062 47.089844 138.898438 46.328125 140.835938 C 46.914062 141.515625 47.515625 142.183594 48.132812 142.839844 C 50.136719 142.285156 52.214844 141.503906 53.953125 140.347656 C 55.46875 139.230469 55.28125 139.429688 56.566406 140.605469 C 57.871094 141.761719 58.046875 141.554688 57.097656 143.179688 C 56.125 145.027344 55.566406 147.175781 55.226562 149.226562 C 55.941406 149.769531 56.667969 150.300781 57.410156 150.8125 C 59.253906 149.851562 61.125 148.65625 62.582031 147.164062 C 63.832031 145.753906 63.695312 145.992188 65.191406 146.875 C 66.710938 147.730469 66.839844 147.492188 66.246094 149.28125 C 65.683594 151.289062 65.582031 153.507812 65.675781 155.585938 C 66.488281 155.96875 67.308594 156.335938 68.140625 156.679688 C 69.746094 155.359375 71.328125 153.800781 72.441406 152.039062 C 73.371094 150.398438 73.285156 150.660156 74.933594 151.210938 C 76.597656 151.734375 76.675781 151.476562 76.46875 153.347656 C 76.332031 155.429688 76.695312 157.617188 77.21875 159.632812 C 78.09375 159.839844 78.972656 160.023438 79.855469 160.191406 C 81.152344 158.566406 82.375 156.710938 83.097656 154.753906 C 83.667969 152.960938 83.636719 153.230469 85.367188 153.429688 C 87.101562 153.59375 87.121094 153.324219 87.308594 155.199219 C 87.609375 157.261719 88.421875 159.328125 89.351562 161.191406 C 90.25 161.210938 91.148438 161.210938 92.046875 161.191406 C 92.976562 159.332031 93.789062 157.261719 94.089844 155.199219 C 94.273438 153.324219 94.296875 153.59375 96.03125 153.429688 C 97.761719 153.230469 97.726562 152.960938 98.296875 154.753906 C 99.019531 156.714844 100.246094 158.566406 101.539062 160.191406 C 102.425781 160.023438 103.304688 159.839844 104.175781 159.632812 C 104.699219 157.617188 105.0625 155.429688 104.929688 153.347656 C 104.71875 151.472656 104.800781 151.734375 106.460938 151.210938 C 108.113281 150.65625 108.023438 150.402344 108.953125 152.039062 C 110.070312 153.800781 111.652344 155.359375 113.257812 156.679688 C 114.085938 156.335938 114.90625 155.96875 115.71875 155.585938 C 115.8125 153.507812 115.714844 151.289062 115.148438 149.28125 C 114.554688 147.492188 114.6875 147.730469 116.203125 146.875 C 117.703125 145.988281 117.5625 145.757812 118.8125 147.164062 C 120.273438 148.65625 122.140625 149.851562 123.988281 150.8125 C 124.726562 150.300781 125.453125 149.769531 126.167969 149.226562 C 125.828125 147.175781 125.269531 145.027344 124.300781 143.179688 C 123.347656 141.554688 123.527344 141.757812 124.832031 140.605469 C 126.113281 139.429688 125.929688 139.230469 127.445312 140.347656 C 129.179688 141.503906 131.257812 142.285156 133.261719 142.839844 C 133.878906 142.183594 134.480469 141.515625 135.066406 140.835938 C 134.308594 138.898438 133.316406 136.914062 131.980469 135.308594 C 130.710938 133.917969 130.929688 134.078125 131.964844 132.679688 C 132.976562 131.261719 132.753906 131.109375 134.46875 131.882812 C 136.410156 132.65625 138.601562 132.988281 140.679688 133.109375 C 141.144531 132.34375 141.59375 131.566406 142.027344 130.777344 C 140.882812 129.042969 139.496094 127.304688 137.859375 126.011719 C 136.328125 124.914062 136.578125 125.027344 137.296875 123.445312 C 137.992188 121.847656 137.742188 121.742188 139.582031 122.144531 C 141.636719 122.496094 143.851562 122.363281 145.910156 122.054688 C 146.207031 121.207031 146.484375 120.351562 146.742188 119.492188 C 145.261719 118.03125 143.546875 116.621094 141.675781 115.699219 C 139.949219 114.941406 140.214844 115.003906 140.59375 113.304688 C 140.941406 111.59375 140.671875 111.546875 142.554688 111.558594 C 144.640625 111.472656 146.78125 110.882812 148.726562 110.152344 C 148.84375 109.261719 148.9375 108.367188 149.007812 107.472656 C 147.257812 106.351562 145.285156 105.328125 143.265625 104.816406 C 141.417969 104.433594 141.691406 104.4375 141.707031 102.699219 Z M 85.605469 134.878906 C 85.605469 138.984375 81.570312 141.914062 77.6875 140.582031 C 66.039062 136.582031 56.816406 127.355469 52.816406 115.707031 C 51.480469 111.824219 54.410156 107.789062 58.515625 107.789062 L 73.25 107.789062 C 75.328125 107.789062 77.230469 108.878906 78.351562 110.625 C 79.492188 112.394531 81 113.902344 82.769531 115.042969 C 84.515625 116.164062 85.605469 118.070312 85.605469 120.144531 Z M 85.605469 85.25 C 85.605469 87.328125 84.515625 89.230469 82.769531 90.355469 C 81 91.492188 79.492188 93.003906 78.351562 94.769531 C 77.230469 96.519531 75.328125 97.605469 73.25 97.605469 L 58.515625 97.605469 C 54.410156 97.605469 51.480469 93.570312 52.816406 89.6875 C 56.816406 78.039062 66.039062 68.816406 77.6875 64.816406 C 81.570312 63.484375 85.605469 66.410156 85.605469 70.515625 Z M 90.699219 107.789062 C 84.039062 107.757812 84.039062 97.636719 90.699219 97.605469 C 97.355469 97.636719 97.355469 107.761719 90.699219 107.789062 Z M 128.582031 115.707031 C 124.582031 127.355469 115.359375 136.582031 103.707031 140.582031 C 99.824219 141.914062 95.789062 138.984375 95.789062 134.878906 L 95.789062 120.144531 C 95.789062 118.070312 96.878906 116.164062 98.625 115.042969 C 100.394531 113.902344 101.902344 112.394531 103.042969 110.625 C 104.167969 108.878906 106.070312 107.789062 108.144531 107.789062 L 122.882812 107.789062 C 126.988281 107.789062 129.914062 111.824219 128.582031 115.707031 Z M 122.882812 97.605469 L 108.144531 97.605469 C 106.070312 97.605469 104.167969 96.519531 103.042969 94.769531 C 101.902344 93.003906 100.394531 91.492188 98.625 90.355469 C 96.878906 89.230469 95.789062 87.328125 95.789062 85.25 L 95.789062 70.515625 C 95.789062 66.410156 99.824219 63.484375 103.707031 64.816406 C 115.359375 68.816406 124.582031 78.039062 128.582031 89.6875 C 129.914062 93.570312 126.988281 97.605469 122.882812 97.605469 Z M 122.882812 97.605469 " fill-opacity="1" fill-rule="nonzero"/></g><g clip-path="url(#aa7f0869ee)"><path fill="#f58926" d="M 137.027344 102.699219 C 137.007812 100.957031 136.738281 100.960938 138.582031 100.582031 C 140.605469 100.066406 142.574219 99.042969 144.328125 97.925781 C 144.253906 97.027344 144.160156 96.136719 144.046875 95.242188 C 142.097656 94.511719 139.957031 93.921875 137.875 93.839844 C 135.988281 93.851562 136.257812 93.796875 135.910156 92.09375 C 135.53125 90.390625 135.269531 90.453125 136.992188 89.699219 C 138.863281 88.773438 140.578125 87.363281 142.058594 85.90625 C 141.800781 85.042969 141.523438 84.191406 141.226562 83.339844 C 139.171875 83.03125 136.953125 82.898438 134.898438 83.25 C 133.058594 83.65625 133.308594 83.546875 132.617188 81.949219 C 131.890625 80.363281 131.648438 80.480469 133.175781 79.382812 C 134.816406 78.089844 136.199219 76.355469 137.34375 74.621094 C 136.914062 73.832031 136.464844 73.054688 135.996094 72.285156 C 133.921875 72.410156 131.726562 72.742188 129.785156 73.511719 C 128.070312 74.289062 128.292969 74.132812 127.285156 72.714844 C 126.246094 71.316406 126.03125 71.480469 127.296875 70.089844 C 128.632812 68.484375 129.625 66.496094 130.382812 64.5625 C 129.800781 63.878906 129.199219 63.210938 128.582031 62.558594 C 126.578125 63.113281 124.496094 63.890625 122.761719 65.050781 C 121.246094 66.167969 121.429688 65.964844 120.148438 64.789062 C 118.839844 63.636719 118.664062 63.84375 119.617188 62.21875 C 120.585938 60.371094 121.144531 58.222656 121.484375 56.171875 C 120.769531 55.625 120.042969 55.097656 119.304688 54.585938 C 117.460938 55.542969 115.589844 56.738281 114.132812 58.234375 C 112.878906 59.640625 113.019531 59.40625 111.519531 58.523438 C 110.003906 57.664062 109.875 57.902344 110.464844 56.117188 C 111.03125 54.105469 111.128906 51.890625 111.039062 49.8125 C 110.226562 49.429688 109.402344 49.0625 108.574219 48.714844 C 106.96875 50.035156 105.386719 51.59375 104.273438 53.359375 C 103.339844 54.996094 103.429688 54.738281 101.777344 54.183594 C 100.117188 53.660156 100.039062 53.921875 100.246094 52.050781 C 100.382812 49.96875 100.019531 47.777344 99.496094 45.765625 C 98.621094 45.558594 97.742188 45.371094 96.859375 45.207031 C 95.5625 46.832031 94.339844 48.683594 93.613281 50.640625 C 93.042969 52.4375 93.078125 52.164062 91.347656 51.96875 C 89.613281 51.800781 89.589844 52.070312 89.40625 50.199219 C 89.105469 48.132812 88.292969 46.066406 87.363281 44.207031 C 86.464844 44.1875 85.566406 44.1875 84.667969 44.207031 C 83.738281 46.066406 82.925781 48.132812 82.625 50.199219 C 82.441406 52.074219 82.414062 51.800781 80.683594 51.96875 C 78.953125 52.167969 78.988281 52.433594 78.417969 50.640625 C 77.691406 48.683594 76.46875 46.832031 75.171875 45.207031 C 74.289062 45.371094 73.410156 45.558594 72.535156 45.765625 C 72.011719 47.777344 71.648438 49.96875 71.785156 52.050781 C 71.992188 53.921875 71.910156 53.660156 70.253906 54.183594 C 68.601562 54.738281 68.691406 54.996094 67.757812 53.359375 C 66.644531 51.59375 65.0625 50.035156 63.457031 48.714844 C 62.628906 49.0625 61.804688 49.429688 60.992188 49.8125 C 60.902344 51.890625 61 54.109375 61.566406 56.117188 C 62.160156 57.90625 62.023438 57.664062 60.511719 58.523438 C 59.007812 59.40625 59.148438 59.640625 57.898438 58.234375 C 56.441406 56.738281 54.570312 55.542969 52.726562 54.585938 C 51.988281 55.097656 51.257812 55.625 50.542969 56.171875 C 50.886719 58.222656 51.445312 60.371094 52.414062 62.21875 C 53.367188 63.84375 53.1875 63.636719 51.882812 64.789062 C 50.597656 65.96875 50.785156 66.164062 49.269531 65.050781 C 47.53125 63.890625 45.453125 63.113281 43.449219 62.558594 C 42.832031 63.210938 42.230469 63.878906 41.644531 64.5625 C 42.40625 66.496094 43.398438 68.484375 44.730469 70.089844 C 46.003906 71.480469 45.78125 71.316406 44.746094 72.714844 C 43.734375 74.136719 43.960938 74.289062 42.246094 73.511719 C 40.304688 72.742188 38.109375 72.410156 36.035156 72.285156 C 35.566406 73.054688 35.117188 73.832031 34.6875 74.621094 C 35.832031 76.355469 37.214844 78.089844 38.855469 79.382812 C 40.386719 80.480469 40.136719 80.367188 39.414062 81.949219 C 38.722656 83.550781 38.972656 83.652344 37.132812 83.25 C 35.074219 82.898438 32.859375 83.03125 30.804688 83.339844 C 30.507812 84.191406 30.230469 85.042969 29.96875 85.90625 C 31.453125 87.363281 33.167969 88.773438 35.039062 89.699219 C 36.765625 90.453125 36.496094 90.394531 36.121094 92.09375 C 35.773438 93.800781 36.039062 93.851562 34.15625 93.839844 C 32.070312 93.921875 29.933594 94.511719 27.984375 95.242188 C 27.871094 96.136719 27.777344 97.027344 27.703125 97.925781 C 29.457031 99.042969 31.425781 100.066406 33.449219 100.582031 C 35.296875 100.960938 35.019531 100.957031 35.003906 102.699219 C 35.023438 104.441406 35.292969 104.433594 33.449219 104.816406 C 31.425781 105.328125 29.457031 106.351562 27.703125 107.472656 C 27.777344 108.367188 27.871094 109.261719 27.984375 110.152344 C 29.933594 110.882812 32.074219 111.472656 34.15625 111.558594 C 36.042969 111.546875 35.773438 111.597656 36.121094 113.304688 C 36.5 115.003906 36.761719 114.941406 35.039062 115.699219 C 33.484375 116.460938 32.007812 117.597656 30.730469 118.761719 L 29.96875 119.492188 C 30.230469 120.351562 30.507812 121.207031 30.804688 122.054688 C 32.859375 122.363281 35.074219 122.496094 37.132812 122.144531 C 38.972656 121.742188 38.722656 121.851562 39.414062 123.445312 C 40.140625 125.03125 40.382812 124.914062 38.855469 126.011719 C 37.214844 127.304688 35.832031 129.042969 34.6875 130.777344 C 35.117188 131.566406 35.566406 132.34375 36.035156 133.109375 C 38.109375 132.988281 40.304688 132.65625 42.246094 131.882812 C 43.960938 131.105469 43.738281 131.265625 44.746094 132.679688 C 45.785156 134.082031 46 133.917969 44.730469 135.308594 C 43.398438 136.914062 42.40625 138.898438 41.644531 140.835938 C 42.230469 141.515625 42.832031 142.183594 43.449219 142.839844 C 45.453125 142.285156 47.53125 141.503906 49.269531 140.347656 C 50.785156 139.230469 50.601562 139.429688 51.882812 140.605469 C 53.1875 141.761719 53.367188 141.554688 52.414062 143.179688 C 51.445312 145.027344 50.886719 147.175781 50.542969 149.226562 C 51.257812 149.769531 51.988281 150.300781 52.726562 150.8125 C 54.570312 149.851562 56.441406 148.65625 57.898438 147.164062 C 59.152344 145.753906 59.011719 145.992188 60.511719 146.875 C 62.027344 147.730469 62.15625 147.492188 61.566406 149.28125 C 61 151.289062 60.902344 153.507812 60.992188 155.585938 C 61.804688 155.96875 62.628906 156.335938 63.457031 156.679688 C 65.0625 155.359375 66.644531 153.800781 67.757812 152.039062 C 68.691406 150.398438 68.601562 150.660156 70.253906 151.210938 C 71.914062 151.734375 71.992188 151.476562 71.785156 153.347656 C 71.648438 155.429688 72.011719 157.617188 72.535156 159.632812 C 73.410156 159.839844 74.289062 160.023438 75.171875 160.191406 C 76.46875 158.566406 77.691406 156.710938 78.417969 154.753906 C 78.988281 152.960938 78.953125 153.230469 80.683594 153.429688 C 82.417969 153.59375 82.441406 153.324219 82.625 155.199219 C 82.925781 157.261719 83.738281 159.328125 84.667969 161.191406 C 85.566406 161.210938 86.464844 161.210938 87.363281 161.191406 C 88.292969 159.332031 89.105469 157.261719 89.40625 155.199219 C 89.589844 153.324219 89.617188 153.59375 91.347656 153.429688 C 93.078125 153.230469 93.042969 152.960938 93.613281 154.753906 C 94.339844 156.714844 95.5625 158.566406 96.859375 160.191406 C 97.742188 160.023438 98.621094 159.839844 99.496094 159.632812 C 100.019531 157.617188 100.382812 155.429688 100.246094 153.347656 C 100.039062 151.472656 100.117188 151.734375 101.777344 151.210938 C 103.429688 150.65625 103.339844 150.402344 104.273438 152.039062 C 105.386719 153.800781 106.96875 155.359375 108.574219 156.679688 C 109.402344 156.335938 110.226562 155.96875 111.039062 155.585938 C 111.128906 153.507812 111.03125 151.289062 110.464844 149.28125 C 109.871094 147.492188 110.007812 147.730469 111.519531 146.875 C 113.023438 145.988281 112.878906 145.757812 114.132812 147.164062 C 115.589844 148.65625 117.460938 149.851562 119.304688 150.8125 C 120.042969 150.300781 120.769531 149.769531 121.484375 149.226562 C 121.144531 147.175781 120.585938 145.027344 119.617188 143.179688 C 118.664062 141.554688 118.84375 141.757812 120.148438 140.605469 C 121.433594 139.429688 121.246094 139.230469 122.761719 140.347656 C 124.5 141.503906 126.578125 142.285156 128.582031 142.839844 C 129.199219 142.183594 129.800781 141.515625 130.382812 140.835938 C 129.625 138.898438 128.632812 136.914062 127.296875 135.308594 C 126.027344 133.917969 126.25 134.078125 127.285156 132.679688 C 128.292969 131.261719 128.070312 131.109375 129.785156 131.882812 C 131.726562 132.65625 133.921875 132.988281 135.996094 133.109375 C 136.464844 132.34375 136.914062 131.566406 137.34375 130.777344 C 136.199219 129.042969 134.8125 127.304688 133.175781 126.011719 C 131.644531 124.914062 131.894531 125.027344 132.617188 123.445312 C 133.308594 121.847656 133.058594 121.742188 134.898438 122.144531 C 136.957031 122.496094 139.171875 122.363281 141.226562 122.054688 C 141.523438 121.207031 141.800781 120.351562 142.058594 119.492188 C 140.578125 118.03125 138.863281 116.621094 136.992188 115.699219 C 135.265625 114.941406 135.535156 115.003906 135.910156 113.304688 C 136.257812 111.59375 135.992188 111.546875 137.871094 111.558594 C 139.957031 111.472656 142.097656 110.882812 144.046875 110.152344 C 144.160156 109.261719 144.253906 108.367188 144.328125 107.472656 C 142.574219 106.351562 140.605469 105.328125 138.582031 104.816406 C 136.734375 104.433594 137.011719 104.4375 137.027344 102.699219 Z M 80.921875 134.878906 C 80.921875 138.984375 76.886719 141.914062 73.003906 140.582031 C 61.355469 136.582031 52.132812 127.355469 48.132812 115.707031 C 46.800781 111.824219 49.726562 107.789062 53.832031 107.789062 L 68.566406 107.789062 C 70.644531 107.789062 72.546875 108.878906 73.671875 110.625 C 74.808594 112.394531 76.316406 113.902344 78.085938 115.042969 C 79.832031 116.164062 80.921875 118.070312 80.921875 120.144531 Z M 80.921875 85.25 C 80.921875 87.328125 79.832031 89.230469 78.085938 90.355469 C 76.316406 91.492188 74.808594 93.003906 73.671875 94.769531 C 72.546875 96.519531 70.644531 97.605469 68.566406 97.605469 L 53.832031 97.605469 C 49.726562 97.605469 46.800781 93.570312 48.132812 89.6875 C 52.132812 78.039062 61.355469 68.816406 73.003906 64.816406 C 76.886719 63.484375 80.921875 66.410156 80.921875 70.515625 Z M 86.015625 107.789062 C 79.355469 107.757812 79.359375 97.636719 86.015625 97.605469 C 92.671875 97.636719 92.671875 107.761719 86.015625 107.789062 Z M 123.898438 115.707031 C 119.898438 127.355469 110.675781 136.582031 99.027344 140.582031 C 95.144531 141.914062 91.109375 138.984375 91.109375 134.878906 L 91.109375 120.144531 C 91.109375 118.070312 92.195312 116.164062 93.945312 115.042969 C 95.714844 113.902344 97.222656 112.394531 98.359375 110.625 C 99.484375 108.878906 101.386719 107.789062 103.464844 107.789062 L 118.199219 107.789062 C 122.304688 107.789062 125.230469 111.824219 123.898438 115.707031 Z M 118.199219 97.605469 L 103.464844 97.605469 C 101.386719 97.605469 99.484375 96.519531 98.359375 94.769531 C 97.222656 93.003906 95.714844 91.492188 93.945312 90.355469 C 92.195312 89.230469 91.109375 87.328125 91.109375 85.25 L 91.109375 70.515625 C 91.109375 66.410156 95.144531 63.484375 99.027344 64.816406 C 110.675781 68.816406 119.898438 78.039062 123.898438 89.6875 C 125.230469 93.570312 122.304688 97.605469 118.199219 97.605469 Z M 118.199219 97.605469 " fill-opacity="1" fill-rule="nonzero"/></g></svg>