<svg xmlns="http://www.w3.org/2000/svg" xmlns:xlink="http://www.w3.org/1999/xlink" width="351" zoomAndPan="magnify" viewBox="0 0 263.25 207.000001" height="276" preserveAspectRatio="xMidYMid meet" version="1.0"><defs><clipPath id="ab244db99d"><path d="M 230 100 L 262.242188 100 L 262.242188 127 L 230 127 Z M 230 100 " clip-rule="nonzero"/></clipPath><clipPath id="681da78f89"><path d="M 197 5.5 L 222 5.5 L 222 35 L 197 35 Z M 197 5.5 " clip-rule="nonzero"/></clipPath><clipPath id="17a23414ab"><path d="M 196 5.5 L 224 5.5 L 224 37 L 196 37 Z M 196 5.5 " clip-rule="nonzero"/></clipPath><clipPath id="a83e522b99"><path d="M 0.257812 102 L 31 102 L 31 125 L 0.257812 125 Z M 0.257812 102 " clip-rule="nonzero"/></clipPath><clipPath id="6260de6c98"><path d="M 0.257812 100 L 33 100 L 33 127 L 0.257812 127 Z M 0.257812 100 " clip-rule="nonzero"/></clipPath><clipPath id="6bd175a026"><path d="M 40 5.5 L 65 5.5 L 65 36 L 40 36 Z M 40 5.5 " clip-rule="nonzero"/></clipPath><clipPath id="4ee3eec965"><path d="M 39 5.5 L 67 5.5 L 67 37 L 39 37 Z M 39 5.5 " clip-rule="nonzero"/></clipPath><clipPath id="b6d3a3163e"><path d="M 45.234375 0 L 216.90625 0 L 216.90625 205.257812 L 45.234375 205.257812 Z M 45.234375 0 " clip-rule="nonzero"/></clipPath><clipPath id="b099b48c81"><path d="M 50.917969 7.023438 L 206 7.023438 L 206 192.128906 L 50.917969 192.128906 Z M 50.917969 7.023438 " clip-rule="nonzero"/></clipPath><clipPath id="a460c7a431"><path d="M 53.746094 10.171875 L 208.996094 10.171875 L 208.996094 195.277344 L 53.746094 195.277344 Z M 53.746094 10.171875 " clip-rule="nonzero"/></clipPath><clipPath id="33b103d735"><path d="M 78.058594 41.03125 L 194.496094 41.03125 L 194.496094 158.214844 L 78.058594 158.214844 Z M 78.058594 41.03125 " clip-rule="nonzero"/></clipPath><clipPath id="71125d011e"><path d="M 73.375 41.03125 L 189.8125 41.03125 L 189.8125 158.214844 L 73.375 158.214844 Z M 73.375 41.03125 " clip-rule="nonzero"/></clipPath></defs><path stroke-linecap="butt" transform="matrix(-0.280231, 0, 0, 0.280231, 237.048568, -60.109587)" fill-opacity="1" fill="#c28a1c" fill-rule="evenodd" stroke-linejoin="miter" d="M 347.096555 896.456097 C 296.831158 861.844621 255.09666 892.232465 216.888825 926.593032 C 266.220284 940.002714 318.465073 946.080283 347.096555 896.456097 Z M 347.096555 896.456097 " stroke="#007d00" stroke-width="1" stroke-opacity="1" stroke-miterlimit="4"/><path stroke-linecap="butt" transform="matrix(-0.280231, 0, 0, 0.280231, 237.048568, -60.109587)" fill-opacity="1" fill="#c28a1c" fill-rule="evenodd" stroke-linejoin="miter" d="M 335.011115 866.653707 C 332.780814 805.668928 283.491174 790.335612 233.114261 780.187745 C 251.806967 827.762842 278.110574 873.30279 335.011115 866.653707 Z M 335.011115 866.653707 " stroke="#007d00" stroke-width="1" stroke-opacity="1" stroke-miterlimit="4"/><path stroke-linecap="butt" transform="matrix(-0.280231, 0, 0, 0.280231, 237.048568, -60.109587)" fill-opacity="1" fill="#c28a1c" fill-rule="evenodd" stroke-linejoin="miter" d="M 257.466355 868.967644 C 210.2955 830.230112 166.149489 856.993718 125.167718 888.008834 C 173.188875 905.530632 224.736695 915.999105 257.466355 868.967644 Z M 257.466355 868.967644 " stroke="#007d00" stroke-width="1" stroke-opacity="1" stroke-miterlimit="4"/><path stroke-linecap="butt" transform="matrix(-0.280231, 0, 0, 0.280231, 237.048568, -60.109587)" fill-opacity="1" fill="#c28a1c" fill-rule="evenodd" stroke-linejoin="miter" d="M 213.724587 840.043434 C 243.122735 786.558041 208.692471 748.099297 170.651908 713.529639 C 162.274342 763.962309 161.479798 816.555582 213.724587 840.043434 Z M 213.724587 840.043434 " stroke="#007d00" stroke-width="1" stroke-opacity="1" stroke-miterlimit="4"/><path stroke-linecap="butt" transform="matrix(-0.280231, 0, 0, 0.280231, 237.048568, -60.109587)" fill-opacity="1" fill="#c28a1c" fill-rule="evenodd" stroke-linejoin="miter" d="M 175.55857 838.858587 C 140.863458 788.648947 91.05806 802.25378 43.134478 820.807092 C 84.492613 850.846452 131.17559 875.08703 175.55857 838.858587 Z M 175.55857 838.858587 " stroke="#007d00" stroke-width="1" stroke-opacity="1" stroke-miterlimit="4"/><path stroke-linecap="butt" transform="matrix(-0.280231, 0, 0, 0.280231, 237.048568, -60.109587)" fill-opacity="1" fill="#c28a1c" fill-rule="evenodd" stroke-linejoin="miter" d="M 126.561656 794.085305 C 171.460392 752.74111 151.067082 705.319346 126.031959 660.434548 C 102.028351 705.556315 84.520492 755.152622 126.561656 794.085305 Z M 126.561656 794.085305 " stroke="#007d00" stroke-width="1" stroke-opacity="1" stroke-miterlimit="4"/><path stroke-linecap="butt" transform="matrix(-0.280231, 0, 0, 0.280231, 237.048568, -60.109587)" fill-opacity="1" fill="#c28a1c" fill-rule="evenodd" stroke-linejoin="miter" d="M 102.71138 789.025311 C 78.192014 733.142344 26.713891 737.017491 -23.858172 746.119905 C 11.032091 783.477438 52.236892 816.15134 102.71138 789.025311 Z M 102.71138 789.025311 " stroke="#007d00" stroke-width="1" stroke-opacity="1" stroke-miterlimit="4"/><path stroke-linecap="butt" transform="matrix(-0.280231, 0, 0, 0.280231, 237.048568, -60.109587)" fill-opacity="1" fill="#c28a1c" fill-rule="evenodd" stroke-linejoin="miter" d="M 61.813245 734.996281 C 113.584095 702.712682 102.362896 652.32183 86.081702 603.575826 C 54.118708 643.470325 27.717526 688.954516 61.813245 734.996281 Z M 61.813245 734.996281 " stroke="#007d00" stroke-width="1" stroke-opacity="1" stroke-miterlimit="4"/><path stroke-linecap="butt" transform="matrix(-0.280231, 0, 0, 0.280231, 237.048568, -60.109587)" fill-opacity="1" fill="#c28a1c" fill-rule="evenodd" stroke-linejoin="miter" d="M 43.733872 727.441139 C 30.226614 667.919994 -21.056357 661.995759 -72.436905 661.368487 C -45.241178 704.650256 -10.950308 744.530816 43.733872 727.441139 Z M 43.733872 727.441139 " stroke="#007d00" stroke-width="1" stroke-opacity="1" stroke-miterlimit="4"/><path stroke-linecap="butt" transform="matrix(-0.280231, 0, 0, 0.280231, 237.048568, -60.109587)" fill-opacity="1" fill="#c28a1c" fill-rule="evenodd" stroke-linejoin="miter" d="M 28.358738 639.985481 C 83.488978 613.821268 78.108378 562.482539 67.514451 512.203203 C 31.188431 548.180737 -0.244866 590.333416 28.358738 639.985481 Z M 28.358738 639.985481 " stroke="#007d00" stroke-width="1" stroke-opacity="1" stroke-miterlimit="4"/><path fill="#c28a1c" d="M 231.679688 124.003906 C 233.453125 106.992188 247.527344 103.636719 261.804688 101.75 C 255.679688 114.699219 247.464844 126.9375 231.679688 124.003906 Z M 231.679688 124.003906 " fill-opacity="1" fill-rule="evenodd"/><g clip-path="url(#ab244db99d)"><path stroke-linecap="butt" transform="matrix(-0.280231, 0, 0, 0.280231, 237.048568, -60.109587)" fill="none" stroke-linejoin="miter" d="M 19.158748 657.005461 C 12.830271 596.29947 -37.393308 584.325544 -88.341735 577.592825 C -66.48479 623.801863 -37.170278 667.473934 19.158748 657.005461 Z M 19.158748 657.005461 " stroke="#007d00" stroke-width="1" stroke-opacity="1" stroke-miterlimit="4"/></g><path stroke-linecap="butt" transform="matrix(-0.280231, 0, 0, 0.280231, 237.048568, -60.109587)" fill-opacity="1" fill="#c28a1c" fill-rule="evenodd" stroke-linejoin="miter" d="M 5.177552 540.486201 C 64.768393 527.313488 70.985356 476.072335 71.891415 424.691787 C 28.456313 451.636605 -11.605459 485.704445 5.177552 540.486201 Z M 5.177552 540.486201 " stroke="#007d00" stroke-width="1" stroke-opacity="1" stroke-miterlimit="4"/><path stroke-linecap="butt" transform="matrix(-0.280231, 0, 0, 0.280231, 237.048568, -60.109587)" fill-opacity="1" fill="#c28a1c" fill-rule="evenodd" stroke-linejoin="miter" d="M -6.489707 585.245543 C 10.753303 526.714095 -31.106649 496.521402 -75.67084 470.900826 C -73.050237 521.946828 -62.567825 573.494648 -6.489707 585.245543 Z M -6.489707 585.245543 " stroke="#007d00" stroke-width="1" stroke-opacity="1" stroke-miterlimit="4"/><path stroke-linecap="butt" transform="matrix(-0.280231, 0, 0, 0.280231, 237.048568, -60.109587)" fill-opacity="1" fill="#c28a1c" fill-rule="evenodd" stroke-linejoin="miter" d="M 28.609647 425.500271 C 89.566547 428.552995 109.109555 380.768807 123.578629 331.451288 C 74.567776 345.96218 26.909042 368.223367 28.609647 425.500271 Z M 28.609647 425.500271 " stroke="#007d00" stroke-width="1" stroke-opacity="1" stroke-miterlimit="4"/><path stroke-linecap="butt" transform="matrix(-0.280231, 0, 0, 0.280231, 237.048568, -60.109587)" fill-opacity="1" fill="#c28a1c" fill-rule="evenodd" stroke-linejoin="miter" d="M -10.629703 491.19656 C 26.002983 442.380858 -2.670318 399.447574 -35.441795 359.87368 C -50.844808 408.619685 -59.041162 460.557807 -10.629703 491.19656 Z M -10.629703 491.19656 " stroke="#007d00" stroke-width="1" stroke-opacity="1" stroke-miterlimit="4"/><g clip-path="url(#681da78f89)"><path fill="#c28a1c" d="M 221.558594 34.796875 C 204.484375 33.8125 200.476562 19.910156 197.933594 5.738281 C 211.152344 11.253906 223.757812 18.894531 221.558594 34.796875 Z M 221.558594 34.796875 " fill-opacity="1" fill-rule="evenodd"/></g><g clip-path="url(#17a23414ab)"><path stroke-linecap="butt" transform="matrix(-0.280231, 0, 0, 0.280231, 237.048568, -60.109587)" fill="none" stroke-linejoin="miter" d="M 55.275677 338.671886 C 116.204698 335.159163 130.5065 285.548916 139.581035 234.976853 C 92.41018 254.659254 47.427807 281.924678 55.275677 338.671886 Z M 55.275677 338.671886 " stroke="#007d00" stroke-width="1" stroke-opacity="1" stroke-miterlimit="4"/></g><path stroke-linecap="butt" transform="matrix(-0.280231, 0, 0, 0.280231, 237.048568, -60.109587)" fill-opacity="1" fill="#c28a1c" fill-rule="evenodd" stroke-linejoin="miter" d="M 16.384812 391.334856 C 62.161729 350.966417 42.813873 303.112532 18.754506 257.698039 C -6.224859 302.304049 -24.80605 351.510053 16.384812 391.334856 Z M 16.384812 391.334856 " stroke="#007d00" stroke-width="1" stroke-opacity="1" stroke-miterlimit="4"/><path stroke-linecap="butt" transform="matrix(0.280231, 0, 0, 0.280231, 25.350629, -59.862432)" fill-opacity="1" fill="#c28a1c" fill-rule="evenodd" stroke-linejoin="miter" d="M 347.093844 896.452308 C 296.828447 861.840832 255.093949 892.228676 216.886114 926.603182 C 266.217573 939.998925 318.462361 946.076493 347.093844 896.452308 Z M 347.093844 896.452308 " stroke="#007d00" stroke-width="1" stroke-opacity="1" stroke-miterlimit="4"/><path stroke-linecap="butt" transform="matrix(0.280231, 0, 0, 0.280231, 25.350629, -59.862432)" fill-opacity="1" fill="#c28a1c" fill-rule="evenodd" stroke-linejoin="miter" d="M 335.008403 866.663857 C 332.778103 805.679078 283.488462 790.331823 233.11155 780.183956 C 251.804256 827.759053 278.107862 873.31294 335.008403 866.663857 Z M 335.008403 866.663857 " stroke="#007d00" stroke-width="1" stroke-opacity="1" stroke-miterlimit="4"/><path stroke-linecap="butt" transform="matrix(0.280231, 0, 0, 0.280231, 25.350629, -59.862432)" fill-opacity="1" fill="#c28a1c" fill-rule="evenodd" stroke-linejoin="miter" d="M 257.463643 868.963854 C 210.306727 830.240262 166.160717 856.989929 125.165007 888.005045 C 173.186164 905.526843 224.733984 915.995316 257.463643 868.963854 Z M 257.463643 868.963854 " stroke="#007d00" stroke-width="1" stroke-opacity="1" stroke-miterlimit="4"/><path stroke-linecap="butt" transform="matrix(0.280231, 0, 0, 0.280231, 25.350629, -59.862432)" fill-opacity="1" fill="#c28a1c" fill-rule="evenodd" stroke-linejoin="miter" d="M 213.735814 840.053584 C 243.120023 786.568191 208.68976 748.095508 170.649197 713.52585 C 162.271631 763.95852 161.477086 816.551793 213.735814 840.053584 Z M 213.735814 840.053584 " stroke="#007d00" stroke-width="1" stroke-opacity="1" stroke-miterlimit="4"/><path stroke-linecap="butt" transform="matrix(0.280231, 0, 0, 0.280231, 25.350629, -59.862432)" fill-opacity="1" fill="#c28a1c" fill-rule="evenodd" stroke-linejoin="miter" d="M 175.555858 838.854798 C 140.860746 788.659098 91.069288 802.249991 43.145706 820.803303 C 84.489901 850.856602 131.172878 875.083241 175.555858 838.854798 Z M 175.555858 838.854798 " stroke="#007d00" stroke-width="1" stroke-opacity="1" stroke-miterlimit="4"/><path stroke-linecap="butt" transform="matrix(0.280231, 0, 0, 0.280231, 25.350629, -59.862432)" fill-opacity="1" fill="#c28a1c" fill-rule="evenodd" stroke-linejoin="miter" d="M 126.558944 794.081516 C 171.457681 752.73732 151.07831 705.315556 126.029248 660.430759 C 102.025639 705.566465 84.51778 755.148833 126.558944 794.081516 Z M 126.558944 794.081516 " stroke="#007d00" stroke-width="1" stroke-opacity="1" stroke-miterlimit="4"/><path stroke-linecap="butt" transform="matrix(0.280231, 0, 0, 0.280231, 25.350629, -59.862432)" fill-opacity="1" fill="#c28a1c" fill-rule="evenodd" stroke-linejoin="miter" d="M 102.708669 789.035461 C 78.203242 733.138555 26.725119 737.013702 -23.860884 746.116116 C 11.029379 783.487588 52.24812 816.147551 102.708669 789.035461 Z M 102.708669 789.035461 " stroke="#007d00" stroke-width="1" stroke-opacity="1" stroke-miterlimit="4"/><path stroke-linecap="butt" transform="matrix(0.280231, 0, 0, 0.280231, 25.350629, -59.862432)" fill-opacity="1" fill="#c28a1c" fill-rule="evenodd" stroke-linejoin="miter" d="M 61.810533 735.006432 C 113.595323 702.708893 102.360184 652.318041 86.078991 603.572036 C 54.115997 643.466536 27.714815 688.950727 61.810533 735.006432 Z M 61.810533 735.006432 " stroke="#007d00" stroke-width="1" stroke-opacity="1" stroke-miterlimit="4"/><path stroke-linecap="butt" transform="matrix(0.280231, 0, 0, 0.280231, 25.350629, -59.862432)" fill-opacity="1" fill="#c28a1c" fill-rule="evenodd" stroke-linejoin="miter" d="M 43.73116 727.437349 C 30.223903 667.930145 -21.045129 661.99197 -72.439616 661.364698 C -45.24389 704.646466 -10.95302 744.527027 43.73116 727.437349 Z M 43.73116 727.437349 " stroke="#007d00" stroke-width="1" stroke-opacity="1" stroke-miterlimit="4"/><path stroke-linecap="butt" transform="matrix(0.280231, 0, 0, 0.280231, 25.350629, -59.862432)" fill-opacity="1" fill="#c28a1c" fill-rule="evenodd" stroke-linejoin="miter" d="M 28.356026 639.981692 C 83.486266 613.831419 78.105666 562.492689 67.511739 512.199413 C 31.199659 548.176948 -0.247577 590.343567 28.356026 639.981692 Z M 28.356026 639.981692 " stroke="#007d00" stroke-width="1" stroke-opacity="1" stroke-miterlimit="4"/><g clip-path="url(#a83e522b99)"><path fill="#c28a1c" d="M 30.722656 124.25 C 28.945312 107.242188 14.875 103.882812 0.59375 102 C 6.71875 114.949219 14.933594 127.183594 30.722656 124.25 Z M 30.722656 124.25 " fill-opacity="1" fill-rule="evenodd"/></g><g clip-path="url(#6260de6c98)"><path stroke-linecap="butt" transform="matrix(0.280231, 0, 0, 0.280231, 25.350629, -59.862432)" fill="none" stroke-linejoin="miter" d="M 19.169976 657.001672 C 12.827559 596.30962 -37.38208 584.321755 -88.344446 577.602975 C -66.487502 623.812013 -37.17299 667.470145 19.169976 657.001672 Z M 19.169976 657.001672 " stroke="#007d00" stroke-width="1" stroke-opacity="1" stroke-miterlimit="4"/></g><path stroke-linecap="butt" transform="matrix(0.280231, 0, 0, 0.280231, 25.350629, -59.862432)" fill-opacity="1" fill="#c28a1c" fill-rule="evenodd" stroke-linejoin="miter" d="M 5.174841 540.496351 C 64.765682 527.323639 70.982644 476.068546 71.902643 424.687998 C 28.453602 451.646755 -11.608171 485.714595 5.174841 540.496351 Z M 5.174841 540.496351 " stroke="#007d00" stroke-width="1" stroke-opacity="1" stroke-miterlimit="4"/><path stroke-linecap="butt" transform="matrix(0.280231, 0, 0, 0.280231, 25.350629, -59.862432)" fill-opacity="1" fill="#c28a1c" fill-rule="evenodd" stroke-linejoin="miter" d="M -6.492419 585.255694 C 10.764531 526.710306 -31.10936 496.517613 -75.673552 470.897036 C -73.052949 521.956978 -62.556597 573.490859 -6.492419 585.255694 Z M -6.492419 585.255694 " stroke="#007d00" stroke-width="1" stroke-opacity="1" stroke-miterlimit="4"/><path stroke-linecap="butt" transform="matrix(0.280231, 0, 0, 0.280231, 25.350629, -59.862432)" fill-opacity="1" fill="#c28a1c" fill-rule="evenodd" stroke-linejoin="miter" d="M 28.620874 425.496482 C 89.563835 428.549206 109.106843 380.778958 123.575917 331.461438 C 74.565064 345.958391 26.92027 368.233517 28.620874 425.496482 Z M 28.620874 425.496482 " stroke="#007d00" stroke-width="1" stroke-opacity="1" stroke-miterlimit="4"/><path stroke-linecap="butt" transform="matrix(0.280231, 0, 0, 0.280231, 25.350629, -59.862432)" fill-opacity="1" fill="#c28a1c" fill-rule="evenodd" stroke-linejoin="miter" d="M -10.632414 491.192771 C 26.000271 442.377069 -2.65909 399.443785 -35.444507 359.869891 C -50.84752 408.615895 -59.043874 460.554018 -10.632414 491.192771 Z M -10.632414 491.192771 " stroke="#007d00" stroke-width="1" stroke-opacity="1" stroke-miterlimit="4"/><g clip-path="url(#6bd175a026)"><path fill="#c28a1c" d="M 40.839844 35.042969 C 57.914062 34.058594 61.921875 20.15625 64.464844 5.984375 C 51.246094 11.5 38.640625 19.140625 40.839844 35.042969 Z M 40.839844 35.042969 " fill-opacity="1" fill-rule="evenodd"/></g><g clip-path="url(#4ee3eec965)"><path stroke-linecap="butt" transform="matrix(0.280231, 0, 0, 0.280231, 25.350629, -59.862432)" fill="none" stroke-linejoin="miter" d="M 55.272965 338.668097 C 116.201986 335.155373 130.503788 285.545127 139.578323 234.973064 C 92.407468 254.655465 47.425095 281.920889 55.272965 338.668097 Z M 55.272965 338.668097 " stroke="#007d00" stroke-width="1" stroke-opacity="1" stroke-miterlimit="4"/></g><path stroke-linecap="butt" transform="matrix(0.280231, 0, 0, 0.280231, 25.350629, -59.862432)" fill-opacity="1" fill="#c28a1c" fill-rule="evenodd" stroke-linejoin="miter" d="M 16.39604 391.331067 C 62.172957 350.976567 42.811161 303.108743 18.751795 257.69425 C -6.227571 302.300259 -24.808762 351.506264 16.39604 391.331067 Z M 16.39604 391.331067 " stroke="#007d00" stroke-width="1" stroke-opacity="1" stroke-miterlimit="4"/><path stroke-linecap="round" transform="matrix(0.377247, 0, 0, 0.28847, -1.84582, -73.417779)" fill-opacity="1" fill="#c28a1c" fill-rule="nonzero" stroke-linejoin="miter" d="M 365.67857 905.896428 C 365.67857 907.020353 365.595733 908.130737 365.430059 909.241121 C 365.264385 910.351504 365.00552 911.421264 364.684527 912.463942 C 364.353179 913.506619 363.94935 914.495131 363.462683 915.429479 C 362.986371 916.363826 362.447931 917.230467 361.837009 918.029402 C 361.226087 918.828336 360.563392 919.546023 359.838569 920.168921 C 359.124101 920.79182 358.368214 921.319929 357.570909 921.753249 C 356.773604 922.18657 355.95559 922.51156 355.106512 922.728221 C 354.267788 922.958422 353.408356 923.066752 352.548923 923.066752 C 351.68949 923.066752 350.830058 922.958422 349.980979 922.728221 C 349.142256 922.51156 348.324242 922.18657 347.526937 921.753249 C 346.729632 921.319929 345.973745 920.79182 345.248922 920.168921 C 344.534454 919.546023 343.871759 918.828336 343.260837 918.029402 C 342.649915 917.230467 342.111475 916.363826 341.624809 915.429479 C 341.148496 914.495131 340.744667 913.506619 340.413319 912.463942 C 340.081971 911.421264 339.833461 910.351504 339.667787 909.241121 C 339.502113 908.130737 339.419276 907.020353 339.419276 905.896428 C 339.419276 904.758962 339.502113 903.648578 339.667787 902.538194 C 339.833461 901.427811 340.081971 900.358051 340.413319 899.315373 C 340.744667 898.272696 341.148496 897.284184 341.624809 896.349836 C 342.111475 895.415489 342.649915 894.548848 343.260837 893.749913 C 343.871759 892.950979 344.534454 892.233292 345.248922 891.610394 C 345.973745 890.987495 346.729632 890.459386 347.526937 890.026066 C 348.324242 889.592745 349.142256 889.267755 349.980979 889.051095 C 350.830058 888.820893 351.68949 888.712563 352.548923 888.712563 C 353.408356 888.712563 354.267788 888.820893 355.106512 889.051095 C 355.95559 889.267755 356.773604 889.592745 357.570909 890.026066 C 358.368214 890.459386 359.124101 890.987495 359.838569 891.610394 C 360.563392 892.233292 361.226087 892.950979 361.837009 893.749913 C 362.447931 894.548848 362.986371 895.415489 363.462683 896.349836 C 363.94935 897.284184 364.353179 898.272696 364.684527 899.315373 C 365.00552 900.358051 365.264385 901.427811 365.430059 902.538194 C 365.595733 903.648578 365.67857 904.758962 365.67857 905.896428 Z M 365.67857 905.896428 " stroke="#007d00" stroke-width="0.849" stroke-opacity="1" stroke-miterlimit="4"/><g clip-path="url(#b6d3a3163e)"><path fill="#d7b12a" d="M 131.144531 0 C 158.398438 21.71875 196.300781 34.328125 217.136719 40.050781 C 213.515625 174.34375 145.972656 201.171875 131.367188 205.410156 C 116.84375 201.085938 49.78125 173.914062 45.257812 40.019531 C 66.109375 34.28125 103.9375 21.671875 131.144531 0 Z M 131.144531 0 " fill-opacity="1" fill-rule="evenodd"/></g><path fill="#d7b12a" d="M 92.125 96.582031 L 91.945312 96.226562 L 91.5625 96.328125 L 91.839844 96.542969 C 91.933594 96.574219 92.03125 96.585938 92.125 96.582031 Z M 92.125 96.582031 " fill-opacity="1" fill-rule="evenodd"/><path fill="#d7b12a" d="M 92.761719 96.277344 C 92.648438 96.382812 92.519531 96.464844 92.414062 96.523438 C 92.5 96.488281 92.585938 96.441406 92.671875 96.363281 C 92.699219 96.339844 92.730469 96.3125 92.761719 96.277344 Z M 92.761719 96.277344 " fill-opacity="1" fill-rule="evenodd"/><g clip-path="url(#b099b48c81)"><path fill="#ffee97" d="M 128.324219 7.023438 C 152.875 26.589844 187.027344 37.953125 205.800781 43.105469 C 202.535156 164.101562 141.683594 188.273438 128.523438 192.09375 C 115.433594 188.195312 55.015625 163.714844 50.941406 43.078125 C 69.726562 37.90625 103.808594 26.546875 128.324219 7.023438 Z M 128.324219 7.023438 " fill-opacity="1" fill-rule="evenodd"/></g><path fill="#ffee97" d="M 93.167969 94.039062 L 93.003906 93.71875 L 92.660156 93.808594 L 92.90625 94.007812 C 92.992188 94.035156 93.082031 94.042969 93.167969 94.039062 Z M 93.167969 94.039062 " fill-opacity="1" fill-rule="evenodd"/><path fill="#ffee97" d="M 93.738281 93.765625 C 93.636719 93.859375 93.523438 93.933594 93.425781 93.988281 C 93.503906 93.957031 93.582031 93.910156 93.660156 93.84375 C 93.683594 93.824219 93.710938 93.796875 93.738281 93.765625 Z M 93.738281 93.765625 " fill-opacity="1" fill-rule="evenodd"/><g clip-path="url(#a460c7a431)"><path fill="#ffdd2f" d="M 131.148438 10.171875 C 155.703125 29.738281 189.855469 41.101562 208.625 46.253906 C 205.363281 167.25 144.511719 191.421875 131.347656 195.242188 C 118.261719 191.34375 57.839844 166.863281 53.769531 46.226562 C 72.554688 41.058594 106.636719 29.695312 131.148438 10.171875 Z M 131.148438 10.171875 " fill-opacity="1" fill-rule="evenodd"/></g><path fill="#ffdd2f" d="M 95.996094 97.191406 L 95.828125 96.867188 L 95.488281 96.957031 L 95.734375 97.15625 C 95.820312 97.183594 95.90625 97.195312 95.996094 97.191406 Z M 95.996094 97.191406 " fill-opacity="1" fill-rule="evenodd"/><path fill="#ffdd2f" d="M 96.566406 96.914062 C 96.464844 97.007812 96.351562 97.082031 96.25 97.136719 C 96.332031 97.105469 96.410156 97.0625 96.484375 96.992188 C 96.507812 96.972656 96.539062 96.949219 96.566406 96.914062 Z M 96.566406 96.914062 " fill-opacity="1" fill-rule="evenodd"/><g clip-path="url(#33b103d735)"><path fill="#d7bb2a" d="M 187.386719 99.550781 C 187.367188 97.804688 187.097656 97.8125 188.941406 97.433594 C 190.964844 96.917969 192.933594 95.894531 194.6875 94.777344 C 194.613281 93.878906 194.519531 92.988281 194.402344 92.09375 C 192.457031 91.363281 190.316406 90.773438 188.230469 90.691406 C 186.347656 90.703125 186.617188 90.648438 186.269531 88.945312 C 185.890625 87.242188 185.628906 87.304688 187.351562 86.550781 C 189.222656 85.625 190.9375 84.214844 192.417969 82.757812 C 192.160156 81.894531 191.882812 81.042969 191.585938 80.191406 C 189.53125 79.882812 187.3125 79.75 185.257812 80.101562 C 183.417969 80.507812 183.667969 80.398438 182.976562 78.800781 C 182.25 77.214844 182.003906 77.332031 183.535156 76.234375 C 185.171875 74.941406 186.558594 73.207031 187.703125 71.472656 C 187.273438 70.683594 186.824219 69.90625 186.355469 69.136719 C 184.28125 69.261719 182.085938 69.59375 180.144531 70.363281 C 178.429688 71.140625 178.652344 70.984375 177.644531 69.566406 C 176.605469 68.167969 176.390625 68.332031 177.65625 66.941406 C 178.992188 65.335938 179.984375 63.347656 180.742188 61.414062 C 180.15625 60.730469 179.554688 60.0625 178.941406 59.410156 C 176.9375 59.964844 174.855469 60.742188 173.121094 61.902344 C 171.601562 63.019531 171.789062 62.816406 170.507812 61.640625 C 169.199219 60.488281 169.023438 60.695312 169.976562 59.070312 C 170.945312 57.222656 171.503906 55.074219 171.84375 53.023438 C 171.128906 52.476562 170.402344 51.949219 169.664062 51.4375 C 167.820312 52.394531 165.949219 53.589844 164.488281 55.085938 C 163.238281 56.492188 163.378906 56.257812 161.878906 55.375 C 160.363281 54.515625 160.230469 54.753906 160.824219 52.96875 C 161.390625 50.957031 161.488281 48.742188 161.394531 46.664062 C 160.582031 46.277344 159.761719 45.914062 158.933594 45.566406 C 157.328125 46.886719 155.746094 48.445312 154.628906 50.210938 C 153.699219 51.847656 153.789062 51.589844 152.136719 51.035156 C 150.472656 50.511719 150.398438 50.773438 150.605469 48.902344 C 150.742188 46.820312 150.375 44.628906 149.855469 42.617188 C 148.980469 42.410156 148.101562 42.222656 147.21875 42.054688 C 145.921875 43.683594 144.695312 45.535156 143.972656 47.492188 C 143.402344 49.289062 143.433594 49.015625 141.707031 48.820312 C 139.972656 48.652344 139.949219 48.921875 139.765625 47.050781 C 139.464844 44.984375 138.652344 42.917969 137.722656 41.058594 C 136.824219 41.039062 135.925781 41.039062 135.027344 41.058594 C 134.097656 42.917969 133.285156 44.984375 132.984375 47.050781 C 132.800781 48.925781 132.773438 48.652344 131.042969 48.820312 C 129.308594 49.015625 129.34375 49.285156 128.773438 47.492188 C 128.050781 45.535156 126.828125 43.683594 125.53125 42.054688 C 124.648438 42.222656 123.769531 42.410156 122.894531 42.617188 C 122.371094 44.628906 122.007812 46.820312 122.144531 48.902344 C 122.351562 50.773438 122.269531 50.511719 120.609375 51.035156 C 118.957031 51.589844 119.046875 51.847656 118.117188 50.210938 C 117.003906 48.445312 115.421875 46.886719 113.816406 45.566406 C 112.984375 45.914062 112.164062 46.277344 111.351562 46.664062 C 111.257812 48.742188 111.359375 50.957031 111.925781 52.96875 C 112.519531 54.757812 112.382812 54.515625 110.867188 55.375 C 109.367188 56.257812 109.507812 56.492188 108.257812 55.085938 C 106.800781 53.589844 104.929688 52.394531 103.085938 51.4375 C 102.34375 51.949219 101.617188 52.476562 100.902344 53.023438 C 101.246094 55.070312 101.804688 57.222656 102.773438 59.070312 C 103.726562 60.695312 103.546875 60.488281 102.242188 61.640625 C 100.957031 62.820312 101.144531 63.015625 99.628906 61.902344 C 97.890625 60.742188 95.8125 59.964844 93.808594 59.410156 C 93.191406 60.0625 92.589844 60.730469 92.003906 61.414062 C 92.765625 63.347656 93.757812 65.335938 95.089844 66.941406 C 96.363281 68.332031 96.140625 68.167969 95.105469 69.566406 C 94.09375 70.988281 94.316406 71.140625 92.601562 70.363281 C 90.664062 69.59375 88.46875 69.261719 86.394531 69.136719 C 85.925781 69.90625 85.476562 70.683594 85.046875 71.472656 C 86.191406 73.207031 87.574219 74.941406 89.214844 76.234375 C 90.746094 77.332031 90.496094 77.21875 89.773438 78.800781 C 89.082031 80.402344 89.332031 80.503906 87.492188 80.101562 C 85.433594 79.75 83.21875 79.882812 81.164062 80.191406 C 80.863281 81.042969 80.585938 81.894531 80.328125 82.757812 C 81.808594 84.214844 83.527344 85.625 85.398438 86.550781 C 87.125 87.304688 86.855469 87.246094 86.476562 88.945312 C 86.132812 90.652344 86.398438 90.703125 84.515625 90.691406 C 82.429688 90.773438 80.292969 91.363281 78.34375 92.09375 C 78.230469 92.988281 78.136719 93.878906 78.0625 94.777344 C 79.816406 95.894531 81.785156 96.917969 83.808594 97.433594 C 85.652344 97.8125 85.378906 97.808594 85.363281 99.550781 C 85.378906 101.292969 85.652344 101.285156 83.808594 101.664062 C 81.785156 102.179688 79.816406 103.203125 78.0625 104.324219 C 78.136719 105.21875 78.230469 106.113281 78.34375 107.003906 C 80.289062 107.734375 82.429688 108.324219 84.515625 108.410156 C 86.402344 108.394531 86.132812 108.449219 86.476562 110.15625 C 86.855469 111.855469 87.121094 111.792969 85.398438 112.546875 C 83.84375 113.3125 82.367188 114.449219 81.089844 115.613281 L 80.328125 116.34375 C 80.585938 117.203125 80.863281 118.058594 81.164062 118.90625 C 83.21875 119.214844 85.433594 119.347656 87.492188 118.996094 C 89.332031 118.59375 89.082031 118.703125 89.773438 120.296875 C 90.5 121.882812 90.742188 121.765625 89.214844 122.863281 C 87.574219 124.15625 86.191406 125.890625 85.046875 127.628906 C 85.476562 128.417969 85.925781 129.195312 86.394531 129.960938 C 88.46875 129.839844 90.664062 129.507812 92.601562 128.734375 C 94.320312 127.957031 94.097656 128.117188 95.105469 129.53125 C 96.144531 130.933594 96.359375 130.769531 95.089844 132.160156 C 93.757812 133.765625 92.765625 135.75 92.003906 137.6875 C 92.589844 138.367188 93.191406 139.035156 93.808594 139.691406 C 95.8125 139.136719 97.890625 138.355469 99.628906 137.199219 C 101.144531 136.082031 100.960938 136.28125 102.242188 137.457031 C 103.546875 138.613281 103.722656 138.40625 102.773438 140.03125 C 101.804688 141.878906 101.246094 144.027344 100.902344 146.078125 C 101.617188 146.621094 102.34375 147.152344 103.085938 147.664062 C 104.929688 146.703125 106.800781 145.507812 108.257812 144.015625 C 109.511719 142.605469 109.371094 142.84375 110.867188 143.726562 C 112.386719 144.582031 112.515625 144.34375 111.925781 146.132812 C 111.359375 148.140625 111.257812 150.359375 111.351562 152.4375 C 112.164062 152.820312 112.984375 153.1875 113.816406 153.53125 C 115.421875 152.210938 117.003906 150.652344 118.117188 148.890625 C 119.050781 147.25 118.960938 147.511719 120.609375 148.0625 C 122.273438 148.585938 122.351562 148.328125 122.144531 150.195312 C 122.007812 152.28125 122.371094 154.46875 122.894531 156.484375 C 123.769531 156.691406 124.648438 156.875 125.53125 157.042969 C 126.828125 155.417969 128.050781 153.5625 128.773438 151.605469 C 129.34375 149.8125 129.3125 150.082031 131.042969 150.28125 C 132.777344 150.445312 132.800781 150.175781 132.984375 152.050781 C 133.285156 154.113281 134.097656 156.179688 135.027344 158.039062 C 135.925781 158.0625 136.824219 158.0625 137.722656 158.039062 C 138.652344 156.179688 139.464844 154.113281 139.765625 152.050781 C 139.949219 150.171875 139.972656 150.445312 141.707031 150.28125 C 143.4375 150.082031 143.402344 149.8125 143.972656 151.605469 C 144.699219 153.566406 145.921875 155.417969 147.21875 157.042969 C 148.101562 156.875 148.980469 156.691406 149.855469 156.484375 C 150.375 154.46875 150.742188 152.28125 150.605469 150.195312 C 150.394531 148.324219 150.476562 148.585938 152.136719 148.0625 C 153.789062 147.507812 153.699219 147.253906 154.628906 148.890625 C 155.746094 150.652344 157.328125 152.210938 158.933594 153.53125 C 159.761719 153.1875 160.582031 152.820312 161.394531 152.4375 C 161.488281 150.359375 161.390625 148.140625 160.824219 146.132812 C 160.230469 144.34375 160.363281 144.582031 161.878906 143.726562 C 163.378906 142.839844 163.238281 142.609375 164.488281 144.015625 C 165.949219 145.507812 167.816406 146.703125 169.664062 147.664062 C 170.402344 147.152344 171.128906 146.621094 171.84375 146.078125 C 171.503906 144.027344 170.945312 141.878906 169.976562 140.03125 C 169.023438 138.40625 169.203125 138.609375 170.507812 137.457031 C 171.792969 136.277344 171.605469 136.082031 173.121094 137.199219 C 174.855469 138.355469 176.933594 139.136719 178.941406 139.691406 C 179.554688 139.035156 180.15625 138.367188 180.742188 137.6875 C 179.984375 135.75 178.992188 133.765625 177.65625 132.160156 C 176.386719 130.765625 176.605469 130.929688 177.644531 129.53125 C 178.652344 128.113281 178.429688 127.960938 180.144531 128.734375 C 182.085938 129.507812 184.277344 129.839844 186.355469 129.960938 C 186.824219 129.195312 187.273438 128.417969 187.703125 127.628906 C 186.558594 125.894531 185.171875 124.15625 183.535156 122.863281 C 182.003906 121.765625 182.253906 121.878906 182.976562 120.296875 C 183.667969 118.699219 183.417969 118.59375 185.257812 118.996094 C 187.3125 119.347656 189.53125 119.214844 191.585938 118.90625 C 191.882812 118.058594 192.160156 117.203125 192.417969 116.34375 C 190.9375 114.882812 189.222656 113.472656 187.351562 112.546875 C 185.625 111.792969 185.894531 111.855469 186.269531 110.15625 C 186.617188 108.445312 186.351562 108.398438 188.230469 108.410156 C 190.316406 108.324219 192.457031 107.734375 194.402344 107.003906 C 194.519531 106.113281 194.613281 105.21875 194.6875 104.324219 C 192.933594 103.203125 190.964844 102.179688 188.941406 101.664062 C 187.09375 101.285156 187.367188 101.289062 187.386719 99.550781 Z M 131.28125 131.730469 C 131.28125 135.835938 127.246094 138.765625 123.363281 137.433594 C 111.714844 133.433594 102.492188 124.207031 98.492188 112.558594 C 97.15625 108.675781 100.085938 104.640625 104.191406 104.640625 L 118.925781 104.640625 C 121.003906 104.640625 122.90625 105.730469 124.03125 107.476562 C 125.167969 109.246094 126.675781 110.753906 128.445312 111.894531 C 130.191406 113.015625 131.28125 114.921875 131.28125 116.996094 Z M 131.28125 82.101562 C 131.28125 84.179688 130.191406 86.082031 128.445312 87.207031 C 126.675781 88.34375 125.167969 89.851562 124.03125 91.621094 C 122.90625 93.371094 121.003906 94.457031 118.925781 94.457031 L 104.191406 94.457031 C 100.085938 94.457031 97.15625 90.421875 98.492188 86.539062 C 102.492188 74.890625 111.714844 65.667969 123.363281 61.667969 C 127.246094 60.335938 131.28125 63.261719 131.28125 67.367188 Z M 136.375 104.640625 C 129.714844 104.609375 129.714844 94.488281 136.375 94.457031 C 143.03125 94.488281 143.03125 104.613281 136.375 104.640625 Z M 174.257812 112.558594 C 170.257812 124.207031 161.035156 133.433594 149.386719 137.433594 C 145.5 138.765625 141.464844 135.835938 141.464844 131.730469 L 141.464844 116.996094 C 141.464844 114.921875 142.554688 113.015625 144.300781 111.894531 C 146.070312 110.753906 147.582031 109.246094 148.71875 107.476562 C 149.84375 105.730469 151.746094 104.640625 153.824219 104.640625 L 168.558594 104.640625 C 172.664062 104.640625 175.589844 108.675781 174.257812 112.558594 Z M 168.558594 94.457031 L 153.824219 94.457031 C 151.746094 94.457031 149.84375 93.371094 148.71875 91.621094 C 147.582031 89.851562 146.070312 88.34375 144.300781 87.207031 C 142.554688 86.082031 141.464844 84.179688 141.464844 82.101562 L 141.464844 67.367188 C 141.464844 63.261719 145.5 60.335938 149.386719 61.667969 C 161.035156 65.667969 170.257812 74.890625 174.257812 86.539062 C 175.589844 90.421875 172.664062 94.457031 168.558594 94.457031 Z M 168.558594 94.457031 " fill-opacity="1" fill-rule="nonzero"/></g><g clip-path="url(#71125d011e)"><path fill="#ffee97" d="M 182.703125 99.550781 C 182.6875 97.804688 182.414062 97.8125 184.257812 97.433594 C 186.28125 96.917969 188.25 95.894531 190.003906 94.777344 C 189.929688 93.878906 189.835938 92.988281 189.722656 92.09375 C 187.773438 91.363281 185.632812 90.773438 183.550781 90.691406 C 181.664062 90.703125 181.933594 90.648438 181.585938 88.945312 C 181.207031 87.242188 180.945312 87.304688 182.667969 86.550781 C 184.539062 85.625 186.253906 84.214844 187.738281 82.757812 C 187.480469 81.894531 187.199219 81.042969 186.902344 80.191406 C 184.847656 79.882812 182.632812 79.75 180.574219 80.101562 C 178.734375 80.507812 178.984375 80.398438 178.292969 78.800781 C 177.566406 77.214844 177.324219 77.332031 178.851562 76.234375 C 180.492188 74.941406 181.875 73.207031 183.019531 71.472656 C 182.589844 70.683594 182.140625 69.90625 181.671875 69.136719 C 179.597656 69.261719 177.402344 69.59375 175.460938 70.363281 C 173.746094 71.140625 173.96875 70.984375 172.960938 69.566406 C 171.921875 68.167969 171.707031 68.332031 172.976562 66.941406 C 174.308594 65.335938 175.300781 63.347656 176.0625 61.414062 C 175.476562 60.730469 174.875 60.0625 174.257812 59.410156 C 172.253906 59.964844 170.175781 60.742188 168.4375 61.902344 C 166.921875 63.019531 167.105469 62.816406 165.824219 61.640625 C 164.519531 60.488281 164.339844 60.695312 165.292969 59.070312 C 166.261719 57.222656 166.820312 55.074219 167.164062 53.023438 C 166.449219 52.476562 165.71875 51.949219 164.980469 51.4375 C 163.136719 52.394531 161.265625 53.589844 159.808594 55.085938 C 158.554688 56.492188 158.695312 56.257812 157.195312 55.375 C 155.679688 54.515625 155.550781 54.753906 156.140625 52.96875 C 156.707031 50.957031 156.808594 48.742188 156.714844 46.664062 C 155.902344 46.277344 155.082031 45.914062 154.25 45.566406 C 152.644531 46.886719 151.0625 48.445312 149.949219 50.210938 C 149.015625 51.847656 149.105469 51.589844 147.453125 51.035156 C 145.792969 50.511719 145.714844 50.773438 145.921875 48.902344 C 146.058594 46.820312 145.695312 44.628906 145.171875 42.617188 C 144.296875 42.410156 143.417969 42.222656 142.535156 42.054688 C 141.238281 43.683594 140.015625 45.535156 139.289062 47.492188 C 138.71875 49.289062 138.753906 49.015625 137.023438 48.820312 C 135.289062 48.652344 135.265625 48.921875 135.082031 47.050781 C 134.78125 44.984375 133.96875 42.917969 133.039062 41.058594 C 132.140625 41.039062 131.242188 41.039062 130.34375 41.058594 C 129.414062 42.917969 128.601562 44.984375 128.300781 47.050781 C 128.117188 48.925781 128.089844 48.652344 126.359375 48.820312 C 124.628906 49.015625 124.664062 49.285156 124.09375 47.492188 C 123.367188 45.535156 122.144531 43.683594 120.847656 42.054688 C 119.964844 42.222656 119.085938 42.410156 118.210938 42.617188 C 117.691406 44.628906 117.324219 46.820312 117.460938 48.902344 C 117.671875 50.773438 117.589844 50.511719 115.929688 51.035156 C 114.277344 51.589844 114.367188 51.847656 113.433594 50.210938 C 112.320312 48.445312 110.738281 46.886719 109.132812 45.566406 C 108.304688 45.914062 107.480469 46.277344 106.671875 46.664062 C 106.578125 48.742188 106.675781 50.957031 107.242188 52.96875 C 107.835938 54.757812 107.699219 54.515625 106.1875 55.375 C 104.683594 56.257812 104.828125 56.492188 103.574219 55.085938 C 102.117188 53.589844 100.246094 52.394531 98.402344 51.4375 C 97.664062 51.949219 96.9375 52.476562 96.222656 53.023438 C 96.5625 55.070312 97.121094 57.222656 98.089844 59.070312 C 99.042969 60.695312 98.863281 60.488281 97.558594 61.640625 C 96.273438 62.820312 96.460938 63.015625 94.945312 61.902344 C 93.207031 60.742188 91.132812 59.964844 89.125 59.410156 C 88.507812 60.0625 87.910156 60.730469 87.324219 61.414062 C 88.082031 63.347656 89.074219 65.335938 90.410156 66.941406 C 91.679688 68.332031 91.457031 68.167969 90.421875 69.566406 C 89.414062 70.988281 89.636719 71.140625 87.921875 70.363281 C 85.980469 69.59375 83.785156 69.261719 81.710938 69.136719 C 81.242188 69.90625 80.792969 70.683594 80.363281 71.472656 C 81.507812 73.207031 82.894531 74.941406 84.53125 76.234375 C 86.0625 77.332031 85.8125 77.21875 85.089844 78.800781 C 84.398438 80.402344 84.648438 80.503906 82.808594 80.101562 C 80.75 79.75 78.535156 79.882812 76.480469 80.191406 C 76.183594 81.042969 75.90625 81.894531 75.648438 82.757812 C 77.128906 84.214844 78.84375 85.625 80.714844 86.550781 C 82.441406 87.304688 82.171875 87.246094 81.796875 88.945312 C 81.449219 90.652344 81.714844 90.703125 79.835938 90.691406 C 77.75 90.773438 75.609375 91.363281 73.660156 92.09375 C 73.546875 92.988281 73.453125 93.878906 73.378906 94.777344 C 75.132812 95.894531 77.101562 96.917969 79.125 97.433594 C 80.972656 97.8125 80.695312 97.808594 80.679688 99.550781 C 80.699219 101.292969 80.96875 101.285156 79.125 101.664062 C 77.101562 102.179688 75.132812 103.203125 73.378906 104.324219 C 73.453125 105.21875 73.546875 106.113281 73.660156 107.003906 C 75.609375 107.734375 77.75 108.324219 79.835938 108.410156 C 81.71875 108.394531 81.449219 108.449219 81.796875 110.15625 C 82.175781 111.855469 82.4375 111.792969 80.714844 112.546875 C 79.160156 113.3125 77.683594 114.449219 76.40625 115.613281 L 75.648438 116.34375 C 75.90625 117.203125 76.183594 118.058594 76.480469 118.90625 C 78.535156 119.214844 80.753906 119.347656 82.808594 118.996094 C 84.648438 118.59375 84.398438 118.703125 85.089844 120.296875 C 85.816406 121.882812 86.058594 121.765625 84.53125 122.863281 C 82.890625 124.15625 81.507812 125.890625 80.363281 127.628906 C 80.792969 128.417969 81.242188 129.195312 81.710938 129.960938 C 83.785156 129.839844 85.980469 129.507812 87.921875 128.734375 C 89.636719 127.957031 89.414062 128.117188 90.421875 129.53125 C 91.460938 130.933594 91.675781 130.769531 90.410156 132.160156 C 89.074219 133.765625 88.082031 135.75 87.324219 137.6875 C 87.910156 138.367188 88.507812 139.035156 89.125 139.691406 C 91.128906 139.136719 93.210938 138.355469 94.945312 137.199219 C 96.460938 136.082031 96.277344 136.28125 97.558594 137.457031 C 98.867188 138.613281 99.042969 138.40625 98.089844 140.03125 C 97.121094 141.878906 96.5625 144.027344 96.222656 146.078125 C 96.9375 146.621094 97.664062 147.152344 98.402344 147.664062 C 100.246094 146.703125 102.117188 145.507812 103.574219 144.015625 C 104.828125 142.605469 104.6875 142.84375 106.1875 143.726562 C 107.703125 144.582031 107.832031 144.34375 107.242188 146.132812 C 106.675781 148.140625 106.578125 150.359375 106.671875 152.4375 C 107.480469 152.820312 108.304688 153.1875 109.132812 153.53125 C 110.738281 152.210938 112.320312 150.652344 113.433594 148.890625 C 114.367188 147.25 114.277344 147.511719 115.929688 148.0625 C 117.589844 148.585938 117.667969 148.328125 117.460938 150.195312 C 117.324219 152.28125 117.6875 154.46875 118.210938 156.484375 C 119.085938 156.691406 119.964844 156.875 120.847656 157.042969 C 122.144531 155.417969 123.367188 153.5625 124.09375 151.605469 C 124.664062 149.8125 124.632812 150.082031 126.359375 150.28125 C 128.09375 150.445312 128.117188 150.175781 128.300781 152.050781 C 128.601562 154.113281 129.414062 156.179688 130.34375 158.039062 C 131.242188 158.0625 132.140625 158.0625 133.039062 158.039062 C 133.96875 156.179688 134.78125 154.113281 135.082031 152.050781 C 135.265625 150.171875 135.292969 150.445312 137.023438 150.28125 C 138.753906 150.082031 138.71875 149.8125 139.289062 151.605469 C 140.015625 153.566406 141.238281 155.417969 142.535156 157.042969 C 143.417969 156.875 144.296875 156.691406 145.171875 156.484375 C 145.695312 154.46875 146.058594 152.28125 145.921875 150.195312 C 145.714844 148.324219 145.796875 148.585938 147.453125 148.0625 C 149.105469 147.507812 149.015625 147.253906 149.949219 148.890625 C 151.0625 150.652344 152.644531 152.210938 154.25 153.53125 C 155.082031 153.1875 155.902344 152.820312 156.714844 152.4375 C 156.804688 150.359375 156.707031 148.140625 156.140625 146.132812 C 155.546875 144.34375 155.683594 144.582031 157.195312 143.726562 C 158.699219 142.839844 158.558594 142.609375 159.808594 144.015625 C 161.265625 145.507812 163.136719 146.703125 164.980469 147.664062 C 165.71875 147.152344 166.449219 146.621094 167.164062 146.078125 C 166.820312 144.027344 166.261719 141.878906 165.292969 140.03125 C 164.339844 138.40625 164.519531 138.609375 165.824219 137.457031 C 167.109375 136.277344 166.921875 136.082031 168.4375 137.199219 C 170.175781 138.355469 172.253906 139.136719 174.257812 139.691406 C 174.875 139.035156 175.476562 138.367188 176.0625 137.6875 C 175.300781 135.75 174.308594 133.765625 172.976562 132.160156 C 171.703125 130.765625 171.925781 130.929688 172.960938 129.53125 C 173.972656 128.113281 173.746094 127.960938 175.460938 128.734375 C 177.402344 129.507812 179.597656 129.839844 181.671875 129.960938 C 182.140625 129.195312 182.589844 128.417969 183.019531 127.628906 C 181.875 125.894531 180.492188 124.15625 178.851562 122.863281 C 177.320312 121.765625 177.570312 121.878906 178.292969 120.296875 C 178.984375 118.699219 178.734375 118.59375 180.574219 118.996094 C 182.632812 119.347656 184.847656 119.214844 186.902344 118.90625 C 187.199219 118.058594 187.480469 117.203125 187.738281 116.34375 C 186.253906 114.882812 184.539062 113.472656 182.667969 112.546875 C 180.941406 111.792969 181.210938 111.855469 181.585938 110.15625 C 181.933594 108.445312 181.667969 108.398438 183.550781 108.410156 C 185.636719 108.324219 187.773438 107.734375 189.722656 107.003906 C 189.835938 106.113281 189.929688 105.21875 190.003906 104.324219 C 188.25 103.203125 186.28125 102.179688 184.257812 101.664062 C 182.410156 101.285156 182.6875 101.289062 182.703125 99.550781 Z M 126.597656 131.730469 C 126.597656 135.835938 122.5625 138.765625 118.679688 137.433594 C 107.03125 133.433594 97.808594 124.207031 93.808594 112.558594 C 92.476562 108.675781 95.402344 104.640625 99.507812 104.640625 L 114.242188 104.640625 C 116.320312 104.640625 118.222656 105.730469 119.347656 107.476562 C 120.484375 109.246094 121.996094 110.753906 123.761719 111.894531 C 125.511719 113.015625 126.597656 114.921875 126.597656 116.996094 Z M 126.597656 82.101562 C 126.597656 84.179688 125.511719 86.082031 123.761719 87.207031 C 121.996094 88.34375 120.484375 89.851562 119.347656 91.621094 C 118.222656 93.371094 116.320312 94.457031 114.242188 94.457031 L 99.507812 94.457031 C 95.402344 94.457031 92.476562 90.421875 93.808594 86.539062 C 97.808594 74.890625 107.03125 65.667969 118.679688 61.667969 C 122.5625 60.335938 126.597656 63.261719 126.597656 67.367188 Z M 131.691406 104.640625 C 125.035156 104.609375 125.035156 94.488281 131.691406 94.457031 C 138.351562 94.488281 138.347656 104.613281 131.691406 104.640625 Z M 169.574219 112.558594 C 165.574219 124.207031 156.351562 133.433594 144.703125 137.433594 C 140.820312 138.765625 136.785156 135.835938 136.785156 131.730469 L 136.785156 116.996094 C 136.785156 114.921875 137.875 113.015625 139.621094 111.894531 C 141.390625 110.753906 142.898438 109.246094 144.035156 107.476562 C 145.160156 105.730469 147.0625 104.640625 149.140625 104.640625 L 163.875 104.640625 C 167.980469 104.640625 170.90625 108.675781 169.574219 112.558594 Z M 163.875 94.457031 L 149.140625 94.457031 C 147.0625 94.457031 145.160156 93.371094 144.035156 91.621094 C 142.898438 89.851562 141.390625 88.34375 139.621094 87.207031 C 137.875 86.082031 136.785156 84.179688 136.785156 82.101562 L 136.785156 67.367188 C 136.785156 63.261719 140.820312 60.335938 144.703125 61.667969 C 156.351562 65.667969 165.574219 74.890625 169.574219 86.539062 C 170.90625 90.421875 167.980469 94.457031 163.875 94.457031 Z M 163.875 94.457031 " fill-opacity="1" fill-rule="nonzero"/></g></svg>