<svg xmlns="http://www.w3.org/2000/svg" xmlns:xlink="http://www.w3.org/1999/xlink" width="231" zoomAndPan="magnify" viewBox="0 0 173.25 207.000001" height="276" preserveAspectRatio="xMidYMid meet" version="1.0"><defs><clipPath id="2f68e8c63c"><path d="M 0.0429688 0 L 172.460938 0 L 172.460938 206.003906 L 0.0429688 206.003906 Z M 0.0429688 0 " clip-rule="nonzero"/></clipPath><clipPath id="8d665fcf27"><path d="M 0.0429688 0 L 171.804688 0 L 171.804688 205.714844 L 0.0429688 205.714844 Z M 0.0429688 0 " clip-rule="nonzero"/></clipPath><clipPath id="6b7c7d7cf5"><path d="M 5.730469 7.023438 L 160.847656 7.023438 L 160.847656 192.097656 L 5.730469 192.097656 Z M 5.730469 7.023438 " clip-rule="nonzero"/></clipPath><clipPath id="453dc31961"><path d="M 8.554688 10.171875 L 163.671875 10.171875 L 163.671875 195.246094 L 8.554688 195.246094 Z M 8.554688 10.171875 " clip-rule="nonzero"/></clipPath><clipPath id="4f202aa526"><path d="M 56.574219 46 L 121 46 L 121 159 L 56.574219 159 Z M 56.574219 46 " clip-rule="nonzero"/></clipPath><clipPath id="61aac315ed"><path d="M 51 46 L 115.496094 46 L 115.496094 159 L 51 159 Z M 51 46 " clip-rule="nonzero"/></clipPath><clipPath id="f3420d122c"><rect x="0" width="173" y="0" height="207"/></clipPath></defs><g clip-path="url(#2f68e8c63c)"><g transform="matrix(1, 0, 0, 1, 0, 0.00000000000000119)"><g clip-path="url(#f3420d122c)"><g clip-path="url(#8d665fcf27)"><path fill="#b74e14" d="M 85.953125 0 C 113.207031 21.722656 151.113281 34.332031 171.945312 40.050781 C 168.324219 174.347656 100.785156 201.171875 86.175781 205.410156 C 71.652344 201.085938 4.589844 173.914062 0.0664062 40.019531 C 20.917969 34.28125 58.746094 21.671875 85.953125 0 Z M 85.953125 0 " fill-opacity="1" fill-rule="evenodd"/></g><path fill="#b74e14" d="M 46.9375 96.582031 L 46.753906 96.226562 L 46.371094 96.328125 L 46.648438 96.542969 C 46.742188 96.574219 46.839844 96.585938 46.9375 96.582031 Z M 46.9375 96.582031 " fill-opacity="1" fill-rule="evenodd"/><path fill="#b74e14" d="M 47.570312 96.277344 C 47.457031 96.382812 47.332031 96.464844 47.222656 96.523438 C 47.308594 96.492188 47.398438 96.441406 47.480469 96.367188 C 47.507812 96.34375 47.539062 96.316406 47.570312 96.277344 Z M 47.570312 96.277344 " fill-opacity="1" fill-rule="evenodd"/><g clip-path="url(#6b7c7d7cf5)"><path fill="#f58926" d="M 83.136719 7.023438 C 107.691406 26.59375 141.84375 37.953125 160.613281 43.109375 C 157.351562 164.105469 96.496094 188.277344 83.335938 192.097656 C 70.25 188.199219 9.828125 163.71875 5.753906 43.082031 C 24.539062 37.910156 58.621094 26.546875 83.136719 7.023438 Z M 83.136719 7.023438 " fill-opacity="1" fill-rule="evenodd"/></g><path fill="#f58926" d="M 47.980469 94.042969 L 47.816406 93.722656 L 47.472656 93.8125 L 47.71875 94.007812 C 47.804688 94.035156 47.894531 94.046875 47.980469 94.042969 Z M 47.980469 94.042969 " fill-opacity="1" fill-rule="evenodd"/><path fill="#f58926" d="M 48.550781 93.769531 C 48.449219 93.863281 48.335938 93.9375 48.238281 93.988281 C 48.316406 93.960938 48.394531 93.914062 48.472656 93.847656 C 48.496094 93.824219 48.523438 93.800781 48.550781 93.769531 Z M 48.550781 93.769531 " fill-opacity="1" fill-rule="evenodd"/><g clip-path="url(#453dc31961)"><path fill="#d5550e" d="M 85.964844 10.171875 C 110.515625 29.742188 144.671875 41.101562 163.441406 46.257812 C 160.179688 167.253906 99.324219 191.425781 86.164062 195.246094 C 73.074219 191.347656 12.652344 166.867188 8.578125 46.230469 C 27.367188 41.058594 61.449219 29.695312 85.964844 10.171875 Z M 85.964844 10.171875 " fill-opacity="1" fill-rule="evenodd"/></g><path fill="#d5550e" d="M 50.808594 97.191406 L 50.644531 96.871094 L 50.300781 96.960938 L 50.546875 97.15625 C 50.632812 97.183594 50.71875 97.195312 50.808594 97.191406 Z M 50.808594 97.191406 " fill-opacity="1" fill-rule="evenodd"/><path fill="#d5550e" d="M 51.378906 96.917969 C 51.277344 97.011719 51.164062 97.085938 51.066406 97.136719 C 51.144531 97.109375 51.222656 97.0625 51.296875 96.996094 C 51.324219 96.972656 51.351562 96.949219 51.378906 96.917969 Z M 51.378906 96.917969 " fill-opacity="1" fill-rule="evenodd"/><g clip-path="url(#4f202aa526)"><path fill="#b74e14" d="M 67.730469 158.609375 C 67.304688 158.613281 66.902344 158.515625 66.523438 158.320312 C 66.289062 158.199219 66.082031 158.039062 65.90625 157.84375 C 65.730469 157.648438 65.59375 157.425781 65.5 157.179688 C 65.402344 156.9375 65.351562 156.679688 65.351562 156.417969 C 65.347656 156.152344 65.390625 155.898438 65.484375 155.648438 L 80.894531 109.617188 L 59.175781 109.617188 C 58.777344 109.679688 58.398438 109.621094 58.035156 109.441406 C 57.675781 109.261719 57.398438 108.996094 57.210938 108.640625 C 56.972656 108.304688 56.839844 107.933594 56.8125 107.523438 C 56.789062 107.113281 56.871094 106.726562 57.0625 106.363281 L 84.777344 48.082031 C 84.992188 47.699219 85.292969 47.394531 85.667969 47.171875 C 86.046875 46.949219 86.457031 46.832031 86.894531 46.828125 L 115.941406 46.828125 C 116.34375 46.835938 116.722656 46.933594 117.078125 47.121094 C 117.433594 47.3125 117.726562 47.570312 117.957031 47.898438 C 118.191406 48.257812 118.308594 48.652344 118.308594 49.082031 C 118.308594 49.511719 118.191406 49.90625 117.957031 50.265625 L 96.808594 86.976562 L 118.539062 86.976562 C 119.425781 87.054688 120.121094 87.464844 120.621094 88.199219 C 120.84375 88.601562 120.929688 89.027344 120.886719 89.484375 C 120.839844 89.941406 120.664062 90.34375 120.367188 90.6875 L 69.582031 157.816406 C 69.066406 158.3125 68.449219 158.578125 67.730469 158.609375 Z M 67.730469 158.609375 " fill-opacity="1" fill-rule="nonzero"/></g><g clip-path="url(#61aac315ed)"><path fill="#f58926" d="M 62.078125 158.609375 C 61.652344 158.613281 61.25 158.515625 60.871094 158.320312 C 60.636719 158.199219 60.429688 158.039062 60.253906 157.84375 C 60.078125 157.648438 59.941406 157.425781 59.84375 157.179688 C 59.75 156.9375 59.699219 156.679688 59.695312 156.417969 C 59.695312 156.152344 59.738281 155.898438 59.828125 155.648438 L 75.242188 109.617188 L 53.523438 109.617188 C 53.125 109.679688 52.742188 109.621094 52.382812 109.441406 C 52.023438 109.261719 51.746094 108.996094 51.554688 108.640625 C 51.316406 108.304688 51.1875 107.933594 51.160156 107.523438 C 51.132812 107.113281 51.21875 106.726562 51.410156 106.363281 L 79.125 48.082031 C 79.339844 47.699219 79.636719 47.394531 80.015625 47.171875 C 80.394531 46.949219 80.800781 46.832031 81.242188 46.828125 L 110.289062 46.828125 C 110.691406 46.835938 111.070312 46.933594 111.421875 47.121094 C 111.777344 47.3125 112.070312 47.570312 112.300781 47.898438 C 112.535156 48.257812 112.65625 48.652344 112.65625 49.082031 C 112.65625 49.511719 112.535156 49.90625 112.300781 50.265625 L 91.15625 86.976562 L 112.886719 86.976562 C 113.773438 87.054688 114.464844 87.464844 114.964844 88.199219 C 115.1875 88.601562 115.277344 89.027344 115.230469 89.484375 C 115.183594 89.941406 115.011719 90.34375 114.710938 90.6875 L 63.929688 157.816406 C 63.410156 158.3125 62.792969 158.578125 62.078125 158.609375 Z M 62.078125 158.609375 " fill-opacity="1" fill-rule="nonzero"/></g></g></g></g></svg>