<svg xmlns="http://www.w3.org/2000/svg" xmlns:xlink="http://www.w3.org/1999/xlink" width="1920" zoomAndPan="magnify" viewBox="0 0 1440 809.999993" height="1080" preserveAspectRatio="xMidYMid meet" version="1.0"><defs><clipPath id="117b4c4dea"><path d="M 541 182 L 988 182 L 988 494 L 541 494 Z M 541 182 " clip-rule="nonzero"/></clipPath><clipPath id="37088be558"><path d="M 316.070312 271.53125 L 900.902344 19.699219 L 1124.257812 538.402344 L 539.425781 790.234375 Z M 316.070312 271.53125 " clip-rule="nonzero"/></clipPath><clipPath id="66b9e3f29d"><path d="M 316.070312 271.53125 L 900.902344 19.699219 L 1124.257812 538.402344 L 539.425781 790.234375 Z M 316.070312 271.53125 " clip-rule="nonzero"/></clipPath><clipPath id="b321203fef"><path d="M 547 187 L 982 187 L 982 368 L 547 368 Z M 547 187 " clip-rule="nonzero"/></clipPath><clipPath id="7642bd05d2"><path d="M 316.070312 271.53125 L 900.902344 19.699219 L 1124.257812 538.402344 L 539.425781 790.234375 Z M 316.070312 271.53125 " clip-rule="nonzero"/></clipPath><clipPath id="73cd585b85"><path d="M 316.070312 271.53125 L 900.902344 19.699219 L 1124.257812 538.402344 L 539.425781 790.234375 Z M 316.070312 271.53125 " clip-rule="nonzero"/></clipPath><clipPath id="9fb4062b5d"><path d="M 528 190 L 545 190 L 545 206 L 528 206 Z M 528 190 " clip-rule="nonzero"/></clipPath><clipPath id="f855c5c45c"><path d="M 316.070312 271.53125 L 900.902344 19.699219 L 1124.257812 538.402344 L 539.425781 790.234375 Z M 316.070312 271.53125 " clip-rule="nonzero"/></clipPath><clipPath id="341dc79d3c"><path d="M 316.070312 271.53125 L 900.902344 19.699219 L 1124.257812 538.402344 L 539.425781 790.234375 Z M 316.070312 271.53125 " clip-rule="nonzero"/></clipPath><clipPath id="4046202018"><path d="M 529 186 L 544 186 L 544 200 L 529 200 Z M 529 186 " clip-rule="nonzero"/></clipPath><clipPath id="5a1669bc86"><path d="M 316.070312 271.53125 L 900.902344 19.699219 L 1124.257812 538.402344 L 539.425781 790.234375 Z M 316.070312 271.53125 " clip-rule="nonzero"/></clipPath><clipPath id="9a404073d9"><path d="M 316.070312 271.53125 L 900.902344 19.699219 L 1124.257812 538.402344 L 539.425781 790.234375 Z M 316.070312 271.53125 " clip-rule="nonzero"/></clipPath><clipPath id="b06e1ebdf7"><path d="M 529 182 L 543 182 L 543 194 L 529 194 Z M 529 182 " clip-rule="nonzero"/></clipPath><clipPath id="2ae97e42ef"><path d="M 316.070312 271.53125 L 900.902344 19.699219 L 1124.257812 538.402344 L 539.425781 790.234375 Z M 316.070312 271.53125 " clip-rule="nonzero"/></clipPath><clipPath id="d219075635"><path d="M 316.070312 271.53125 L 900.902344 19.699219 L 1124.257812 538.402344 L 539.425781 790.234375 Z M 316.070312 271.53125 " clip-rule="nonzero"/></clipPath><clipPath id="230606cd15"><path d="M 531 179 L 542 179 L 542 189 L 531 189 Z M 531 179 " clip-rule="nonzero"/></clipPath><clipPath id="726d3fb75f"><path d="M 316.070312 271.53125 L 900.902344 19.699219 L 1124.257812 538.402344 L 539.425781 790.234375 Z M 316.070312 271.53125 " clip-rule="nonzero"/></clipPath><clipPath id="d3f6fe939d"><path d="M 316.070312 271.53125 L 900.902344 19.699219 L 1124.257812 538.402344 L 539.425781 790.234375 Z M 316.070312 271.53125 " clip-rule="nonzero"/></clipPath><clipPath id="5944feb090"><path d="M 530 201 L 550 201 L 550 786 L 530 786 Z M 530 201 " clip-rule="nonzero"/></clipPath><clipPath id="4bb4977e93"><path d="M 316.070312 271.53125 L 900.902344 19.699219 L 1124.257812 538.402344 L 539.425781 790.234375 Z M 316.070312 271.53125 " clip-rule="nonzero"/></clipPath><clipPath id="c91f1b3c67"><path d="M 316.070312 271.53125 L 900.902344 19.699219 L 1124.257812 538.402344 L 539.425781 790.234375 Z M 316.070312 271.53125 " clip-rule="nonzero"/></clipPath><clipPath id="26e8f3efd9"><path d="M 702 353 L 832 353 L 832 394.421875 L 702 394.421875 Z M 702 353 " clip-rule="nonzero"/></clipPath><clipPath id="c297c86b35"><path d="M 699.8125 284.171875 L 834 284.171875 L 834 348 L 699.8125 348 Z M 699.8125 284.171875 " clip-rule="nonzero"/></clipPath></defs><rect x="-144" width="1728" fill="#ffffff" y="-80.999999" height="971.999992" fill-opacity="1"/><rect x="-144" width="1728" fill="#ffffff" y="-80.999999" height="971.999992" fill-opacity="1"/><g clip-path="url(#117b4c4dea)"><g clip-path="url(#37088be558)"><g clip-path="url(#66b9e3f29d)"><path fill="#ffde59" d="M 669.21875 182.371094 C 644 182.539062 609.910156 188.652344 581.148438 195.035156 C 565.84375 198.429688 552.125 201.882812 541.933594 204.5625 L 544.273438 456.132812 C 554.4375 453.464844 567.96875 450.066406 583.070312 446.714844 C 610.902344 440.539062 643.660156 434.585938 668.886719 434.039062 C 669.785156 434.019531 670.675781 434.007812 671.558594 434 C 674.203125 433.984375 676.753906 434.03125 679.199219 434.152344 C 716.109375 435.933594 750.914062 450.90625 785.617188 465.28125 C 820.320312 479.660156 854.914062 493.441406 891.363281 493.121094 C 912.503906 492.9375 943.292969 483.839844 968.695312 474.761719 C 975.445312 472.347656 981.769531 469.953125 987.488281 467.714844 L 985.148438 216.226562 C 979.605469 218.386719 973.492188 220.695312 967.015625 223.007812 C 941.527344 232.117188 910.71875 241.300781 889.023438 241.488281 C 852.054688 241.8125 817.203125 227.878906 782.488281 213.496094 C 747.769531 199.113281 713.171875 184.277344 676.746094 182.515625 C 674.34375 182.398438 671.832031 182.351562 669.222656 182.371094 Z M 669.21875 182.371094 " fill-opacity="1" fill-rule="evenodd"/></g></g></g><g clip-path="url(#b321203fef)"><g clip-path="url(#7642bd05d2)"><g clip-path="url(#73cd585b85)"><path fill="#ffde59" d="M 669.816406 187.558594 C 672.042969 187.550781 674.269531 187.589844 676.496094 187.699219 C 712.648438 189.445312 747.503906 204.617188 780.503906 218.289062 C 815.148438 232.644531 850.933594 247.011719 889.066406 246.679688 C 897.734375 246.601562 906.632812 245.265625 915.117188 243.550781 C 924.714844 241.609375 934.234375 239.058594 943.605469 236.230469 C 952.0625 233.675781 960.445312 230.867188 968.761719 227.894531 C 972.53125 226.550781 976.285156 225.164062 980.027344 223.75 L 981.148438 344.089844 C 977.148438 345.609375 972.917969 347.179688 968.515625 348.75 C 943.03125 357.859375 912.21875 367.042969 890.523438 367.230469 C 853.554688 367.554688 818.703125 353.621094 783.992188 339.238281 C 749.273438 324.855469 714.671875 310.019531 678.25 308.257812 C 675.847656 308.140625 673.332031 308.097656 670.722656 308.113281 L 670.71875 308.113281 C 645.503906 308.28125 611.410156 314.394531 582.648438 320.777344 C 569.652344 323.660156 557.796875 326.585938 548.277344 329.042969 L 547.15625 208.5625 C 558.8125 205.539062 570.519531 202.707031 582.273438 200.101562 C 592.582031 197.8125 602.9375 195.695312 613.332031 193.832031 C 623.09375 192.082031 632.917969 190.542969 642.773438 189.394531 C 651.53125 188.371094 660.429688 187.621094 669.25 187.5625 Z M 669.816406 187.558594 " fill-opacity="1" fill-rule="evenodd"/></g></g></g><g clip-path="url(#9fb4062b5d)"><g clip-path="url(#f855c5c45c)"><g clip-path="url(#341dc79d3c)"><path fill="#71625b" d="M 528.363281 198.09375 C 528.371094 198.566406 528.425781 199.035156 528.53125 199.5 C 528.640625 199.964844 528.792969 200.417969 528.996094 200.855469 C 529.203125 201.289062 529.449219 201.703125 529.742188 202.097656 C 530.035156 202.488281 530.367188 202.847656 530.738281 203.179688 C 531.109375 203.511719 531.511719 203.808594 531.945312 204.066406 C 532.378906 204.324219 532.835938 204.542969 533.316406 204.71875 C 533.800781 204.894531 534.292969 205.027344 534.804688 205.113281 C 535.3125 205.199219 535.828125 205.238281 536.347656 205.234375 C 536.863281 205.226562 537.378906 205.175781 537.886719 205.074219 C 538.390625 204.976562 538.882812 204.835938 539.363281 204.648438 C 539.839844 204.460938 540.289062 204.230469 540.71875 203.960938 C 541.144531 203.691406 541.542969 203.386719 541.90625 203.046875 C 542.265625 202.707031 542.589844 202.335938 542.875 201.9375 C 543.15625 201.539062 543.394531 201.121094 543.589844 200.679688 C 543.78125 200.238281 543.925781 199.785156 544.019531 199.316406 C 544.117188 198.847656 544.160156 198.378906 544.15625 197.902344 C 544.148438 197.429688 544.09375 196.957031 543.988281 196.492188 C 543.878906 196.027344 543.726562 195.578125 543.523438 195.140625 C 543.316406 194.703125 543.070312 194.289062 542.777344 193.898438 C 542.484375 193.507812 542.152344 193.144531 541.78125 192.816406 C 541.410156 192.484375 541.007812 192.1875 540.574219 191.929688 C 540.140625 191.671875 539.683594 191.453125 539.203125 191.277344 C 538.71875 191.101562 538.226562 190.96875 537.714844 190.882812 C 537.207031 190.796875 536.691406 190.753906 536.171875 190.761719 C 535.65625 190.769531 535.140625 190.820312 534.632812 190.917969 C 534.128906 191.019531 533.636719 191.160156 533.15625 191.347656 C 532.679688 191.535156 532.230469 191.765625 531.800781 192.035156 C 531.375 192.304688 530.976562 192.609375 530.617188 192.949219 C 530.253906 193.289062 529.929688 193.65625 529.644531 194.054688 C 529.363281 194.453125 529.125 194.875 528.929688 195.316406 C 528.738281 195.757812 528.59375 196.210938 528.5 196.679688 C 528.402344 197.144531 528.359375 197.617188 528.363281 198.09375 Z M 528.363281 198.09375 " fill-opacity="1" fill-rule="nonzero"/></g></g></g><g clip-path="url(#4046202018)"><g clip-path="url(#5a1669bc86)"><g clip-path="url(#9a404073d9)"><path fill="#71625b" d="M 529.164062 192.6875 C 529.167969 193.109375 529.21875 193.527344 529.3125 193.941406 C 529.410156 194.355469 529.546875 194.757812 529.726562 195.148438 C 529.910156 195.535156 530.128906 195.90625 530.390625 196.253906 C 530.652344 196.601562 530.949219 196.925781 531.277344 197.21875 C 531.609375 197.515625 531.964844 197.777344 532.351562 198.007812 C 532.738281 198.238281 533.148438 198.433594 533.574219 198.589844 C 534.003906 198.746094 534.445312 198.863281 534.898438 198.941406 C 535.351562 199.015625 535.8125 199.054688 536.273438 199.046875 C 536.734375 199.042969 537.191406 198.996094 537.644531 198.90625 C 538.09375 198.820312 538.535156 198.691406 538.957031 198.523438 C 539.382812 198.359375 539.785156 198.15625 540.167969 197.914062 C 540.546875 197.675781 540.898438 197.402344 541.222656 197.101562 C 541.546875 196.796875 541.832031 196.46875 542.085938 196.113281 C 542.339844 195.757812 542.550781 195.382812 542.722656 194.992188 C 542.894531 194.597656 543.023438 194.195312 543.109375 193.777344 C 543.191406 193.363281 543.234375 192.941406 543.226562 192.519531 C 543.222656 192.097656 543.171875 191.675781 543.078125 191.261719 C 542.984375 190.847656 542.84375 190.449219 542.664062 190.058594 C 542.480469 189.671875 542.261719 189.300781 542 188.953125 C 541.738281 188.605469 541.445312 188.28125 541.113281 187.988281 C 540.785156 187.691406 540.425781 187.429688 540.039062 187.199219 C 539.652344 186.96875 539.246094 186.773438 538.816406 186.617188 C 538.386719 186.460938 537.945312 186.34375 537.492188 186.265625 C 537.039062 186.1875 536.582031 186.152344 536.117188 186.160156 C 535.65625 186.164062 535.199219 186.210938 534.75 186.300781 C 534.296875 186.386719 533.859375 186.515625 533.433594 186.679688 C 533.007812 186.847656 532.605469 187.050781 532.226562 187.292969 C 531.84375 187.53125 531.492188 187.800781 531.167969 188.105469 C 530.847656 188.410156 530.558594 188.738281 530.304688 189.09375 C 530.054688 189.449219 529.839844 189.820312 529.667969 190.214844 C 529.496094 190.609375 529.367188 191.011719 529.285156 191.429688 C 529.199219 191.84375 529.160156 192.265625 529.164062 192.6875 Z M 529.164062 192.6875 " fill-opacity="1" fill-rule="nonzero"/></g></g></g><g clip-path="url(#b06e1ebdf7)"><g clip-path="url(#2ae97e42ef)"><g clip-path="url(#d219075635)"><path fill="#71625b" d="M 529.9375 188.3125 C 529.941406 188.6875 529.988281 189.054688 530.070312 189.421875 C 530.15625 189.785156 530.277344 190.140625 530.4375 190.484375 C 530.597656 190.828125 530.792969 191.152344 531.023438 191.460938 C 531.25 191.769531 531.511719 192.050781 531.804688 192.3125 C 532.09375 192.574219 532.410156 192.804688 532.753906 193.007812 C 533.09375 193.210938 533.453125 193.382812 533.832031 193.519531 C 534.210938 193.660156 534.597656 193.761719 535 193.832031 C 535.398438 193.898438 535.804688 193.929688 536.210938 193.925781 C 536.617188 193.921875 537.019531 193.878906 537.421875 193.800781 C 537.820312 193.722656 538.207031 193.613281 538.582031 193.464844 C 538.953125 193.316406 539.308594 193.136719 539.648438 192.925781 C 539.984375 192.714844 540.292969 192.476562 540.578125 192.207031 C 540.863281 191.941406 541.117188 191.648438 541.339844 191.335938 C 541.5625 191.023438 541.75 190.695312 541.902344 190.347656 C 542.054688 190 542.167969 189.644531 542.242188 189.277344 C 542.316406 188.910156 542.351562 188.539062 542.347656 188.164062 C 542.34375 187.792969 542.300781 187.421875 542.214844 187.058594 C 542.132812 186.691406 542.007812 186.335938 541.847656 185.996094 C 541.691406 185.652344 541.496094 185.328125 541.265625 185.019531 C 541.035156 184.710938 540.773438 184.425781 540.484375 184.167969 C 540.191406 183.90625 539.875 183.671875 539.535156 183.46875 C 539.191406 183.265625 538.832031 183.097656 538.453125 182.957031 C 538.078125 182.820312 537.6875 182.714844 537.285156 182.648438 C 536.886719 182.578125 536.480469 182.546875 536.074219 182.554688 C 535.667969 182.558594 535.265625 182.597656 534.867188 182.675781 C 534.46875 182.753906 534.082031 182.867188 533.707031 183.015625 C 533.332031 183.160156 532.976562 183.339844 532.640625 183.554688 C 532.304688 183.765625 531.992188 184.003906 531.707031 184.269531 C 531.421875 184.539062 531.167969 184.828125 530.945312 185.140625 C 530.722656 185.457031 530.535156 185.785156 530.382812 186.132812 C 530.234375 186.480469 530.117188 186.835938 530.042969 187.203125 C 529.96875 187.570312 529.933594 187.941406 529.9375 188.3125 Z M 529.9375 188.3125 " fill-opacity="1" fill-rule="nonzero"/></g></g></g><g clip-path="url(#230606cd15)"><g clip-path="url(#726d3fb75f)"><g clip-path="url(#d3f6fe939d)"><path fill="#71625b" d="M 531.125 183.71875 C 531.128906 184.015625 531.164062 184.3125 531.230469 184.605469 C 531.296875 184.898438 531.394531 185.179688 531.523438 185.457031 C 531.652344 185.730469 531.808594 185.988281 531.992188 186.234375 C 532.175781 186.480469 532.386719 186.710938 532.617188 186.917969 C 532.851562 187.125 533.105469 187.3125 533.375 187.476562 C 533.648438 187.636719 533.9375 187.773438 534.238281 187.886719 C 534.542969 187.996094 534.855469 188.078125 535.175781 188.132812 C 535.496094 188.1875 535.816406 188.210938 536.144531 188.207031 C 536.46875 188.203125 536.792969 188.171875 537.109375 188.109375 C 537.429688 188.046875 537.738281 187.957031 538.039062 187.839844 C 538.339844 187.722656 538.625 187.578125 538.890625 187.410156 C 539.160156 187.238281 539.410156 187.046875 539.636719 186.835938 C 539.867188 186.621094 540.070312 186.386719 540.246094 186.136719 C 540.425781 185.886719 540.574219 185.621094 540.695312 185.34375 C 540.816406 185.066406 540.910156 184.78125 540.96875 184.488281 C 541.027344 184.195312 541.058594 183.898438 541.054688 183.601562 C 541.050781 183.300781 541.015625 183.007812 540.945312 182.714844 C 540.878906 182.421875 540.78125 182.136719 540.65625 181.863281 C 540.527344 181.589844 540.371094 181.328125 540.1875 181.082031 C 540.003906 180.835938 539.792969 180.609375 539.5625 180.402344 C 539.328125 180.191406 539.074219 180.007812 538.800781 179.84375 C 538.527344 179.679688 538.242188 179.542969 537.9375 179.433594 C 537.636719 179.324219 537.324219 179.242188 537.003906 179.1875 C 536.683594 179.132812 536.359375 179.105469 536.035156 179.109375 C 535.707031 179.113281 535.386719 179.148438 535.066406 179.210938 C 534.75 179.273438 534.4375 179.363281 534.140625 179.480469 C 533.839844 179.597656 533.554688 179.742188 533.285156 179.910156 C 533.015625 180.078125 532.769531 180.269531 532.539062 180.484375 C 532.3125 180.699219 532.109375 180.929688 531.933594 181.179688 C 531.753906 181.433594 531.605469 181.695312 531.480469 181.972656 C 531.359375 182.25 531.269531 182.535156 531.210938 182.832031 C 531.148438 183.125 531.121094 183.421875 531.125 183.71875 Z M 531.125 183.71875 " fill-opacity="1" fill-rule="nonzero"/></g></g></g><g clip-path="url(#5944feb090)"><g clip-path="url(#4bb4977e93)"><g clip-path="url(#c91f1b3c67)"><path fill="#71625b" d="M 542.078125 201.148438 L 530.515625 201.285156 L 537.5 785.703125 L 549.0625 785.566406 Z M 542.078125 201.148438 " fill-opacity="1" fill-rule="evenodd"/></g></g></g><path fill="#c8af48" d="M 773.429688 351.589844 L 773.429688 348.613281 C 773.429688 344.980469 770.488281 342.039062 766.859375 342.039062 C 763.226562 342.039062 760.28125 344.980469 760.28125 348.613281 L 760.28125 351.589844 C 760.28125 355.222656 763.226562 358.164062 766.859375 358.164062 C 770.484375 358.164062 773.429688 355.222656 773.429688 351.589844 Z M 773.429688 351.589844 " fill-opacity="1" fill-rule="nonzero"/><g clip-path="url(#26e8f3efd9)"><path fill="#c8af48" d="M 777.941406 355.226562 C 776.484375 359.996094 772.09375 363.496094 766.859375 363.496094 C 761.621094 363.496094 757.230469 359.996094 755.773438 355.226562 L 710.488281 355.226562 C 707.632812 355.226562 704.929688 354.5625 702.507812 353.410156 L 702.507812 383.476562 C 702.507812 389.347656 707.3125 394.152344 713.183594 394.152344 L 820.527344 394.152344 C 826.398438 394.152344 831.203125 389.347656 831.203125 383.476562 L 831.203125 353.414062 C 828.777344 354.566406 826.078125 355.230469 823.222656 355.230469 L 777.941406 355.230469 Z M 777.941406 355.226562 " fill-opacity="1" fill-rule="nonzero"/></g><g clip-path="url(#c297c86b35)"><path fill="#c8af48" d="M 822.777344 301.238281 L 797.15625 301.238281 C 795.605469 291.5625 787.226562 284.136719 777.121094 284.136719 L 756.589844 284.136719 C 746.484375 284.136719 738.105469 291.5625 736.554688 301.238281 L 710.9375 301.238281 C 704.820312 301.238281 699.816406 306.039062 699.816406 311.910156 L 699.816406 336.550781 C 699.816406 342.445312 704.59375 347.226562 710.488281 347.226562 L 755.269531 347.226562 C 755.421875 344.152344 756.738281 341.394531 758.824219 339.398438 C 758.886719 339.335938 758.960938 339.289062 759.027344 339.230469 C 759.492188 338.804688 759.972656 338.40625 760.496094 338.058594 C 760.683594 337.933594 760.898438 337.847656 761.089844 337.734375 C 761.523438 337.488281 761.949219 337.226562 762.417969 337.035156 C 762.785156 336.882812 763.179688 336.796875 763.5625 336.679688 C 763.894531 336.582031 764.207031 336.453125 764.554688 336.382812 C 765.296875 336.230469 766.070312 336.148438 766.855469 336.148438 C 767.644531 336.148438 768.414062 336.234375 769.160156 336.382812 C 769.5 336.453125 769.816406 336.582031 770.144531 336.679688 C 770.53125 336.796875 770.925781 336.882812 771.289062 337.039062 C 771.753906 337.230469 772.179688 337.488281 772.613281 337.734375 C 772.808594 337.851562 773.023438 337.933594 773.210938 338.0625 C 773.738281 338.40625 774.214844 338.804688 774.675781 339.230469 C 774.742188 339.292969 774.820312 339.339844 774.886719 339.402344 C 776.972656 341.398438 778.289062 344.160156 778.441406 347.230469 L 823.21875 347.230469 C 829.113281 347.230469 833.894531 342.449219 833.894531 336.554688 L 833.894531 311.917969 C 833.894531 306.039062 828.890625 301.238281 822.777344 301.238281 Z M 746.832031 301.238281 C 748.191406 297.125 752.027344 294.128906 756.589844 294.128906 L 777.121094 294.128906 C 781.683594 294.128906 785.515625 297.125 786.878906 301.238281 Z M 746.832031 301.238281 " fill-opacity="1" fill-rule="nonzero"/></g></svg>