<svg xmlns="http://www.w3.org/2000/svg" xmlns:xlink="http://www.w3.org/1999/xlink" width="1920" zoomAndPan="magnify" viewBox="0 0 1440 809.999993" height="1080" preserveAspectRatio="xMidYMid meet" version="1.0"><defs><clipPath id="2f412cb645"><path d="M 555 199 L 968 199 L 968 487 L 555 487 Z M 555 199 " clip-rule="nonzero"/></clipPath><clipPath id="6385457562"><path d="M 346.988281 281.746094 L 887.050781 49.195312 L 1093.199219 527.945312 L 553.140625 760.496094 Z M 346.988281 281.746094 " clip-rule="nonzero"/></clipPath><clipPath id="ab33589b25"><path d="M 346.988281 281.746094 L 887.050781 49.195312 L 1093.199219 527.945312 L 553.140625 760.496094 Z M 346.988281 281.746094 " clip-rule="nonzero"/></clipPath><clipPath id="dcff7799fe"><path d="M 560 204 L 962 204 L 962 371 L 560 371 Z M 560 204 " clip-rule="nonzero"/></clipPath><clipPath id="3924fba928"><path d="M 346.988281 281.746094 L 887.050781 49.195312 L 1093.199219 527.945312 L 553.140625 760.496094 Z M 346.988281 281.746094 " clip-rule="nonzero"/></clipPath><clipPath id="3a8edf85a5"><path d="M 346.988281 281.746094 L 887.050781 49.195312 L 1093.199219 527.945312 L 553.140625 760.496094 Z M 346.988281 281.746094 " clip-rule="nonzero"/></clipPath><clipPath id="982092acc3"><path d="M 543 207 L 558 207 L 558 221 L 543 221 Z M 543 207 " clip-rule="nonzero"/></clipPath><clipPath id="83ba37ce51"><path d="M 346.988281 281.746094 L 887.050781 49.195312 L 1093.199219 527.945312 L 553.140625 760.496094 Z M 346.988281 281.746094 " clip-rule="nonzero"/></clipPath><clipPath id="247920f2b9"><path d="M 346.988281 281.746094 L 887.050781 49.195312 L 1093.199219 527.945312 L 553.140625 760.496094 Z M 346.988281 281.746094 " clip-rule="nonzero"/></clipPath><clipPath id="edcde81ea4"><path d="M 543 202 L 557 202 L 557 215 L 543 215 Z M 543 202 " clip-rule="nonzero"/></clipPath><clipPath id="6cb2533c98"><path d="M 346.988281 281.746094 L 887.050781 49.195312 L 1093.199219 527.945312 L 553.140625 760.496094 Z M 346.988281 281.746094 " clip-rule="nonzero"/></clipPath><clipPath id="f92237f80e"><path d="M 346.988281 281.746094 L 887.050781 49.195312 L 1093.199219 527.945312 L 553.140625 760.496094 Z M 346.988281 281.746094 " clip-rule="nonzero"/></clipPath><clipPath id="12f8629db7"><path d="M 544 199 L 556 199 L 556 211 L 544 211 Z M 544 199 " clip-rule="nonzero"/></clipPath><clipPath id="30c9996fcd"><path d="M 346.988281 281.746094 L 887.050781 49.195312 L 1093.199219 527.945312 L 553.140625 760.496094 Z M 346.988281 281.746094 " clip-rule="nonzero"/></clipPath><clipPath id="716ad447b7"><path d="M 346.988281 281.746094 L 887.050781 49.195312 L 1093.199219 527.945312 L 553.140625 760.496094 Z M 346.988281 281.746094 " clip-rule="nonzero"/></clipPath><clipPath id="f58252661a"><path d="M 545 196 L 555 196 L 555 205 L 545 205 Z M 545 196 " clip-rule="nonzero"/></clipPath><clipPath id="802cab4068"><path d="M 346.988281 281.746094 L 887.050781 49.195312 L 1093.199219 527.945312 L 553.140625 760.496094 Z M 346.988281 281.746094 " clip-rule="nonzero"/></clipPath><clipPath id="1aad8d033e"><path d="M 346.988281 281.746094 L 887.050781 49.195312 L 1093.199219 527.945312 L 553.140625 760.496094 Z M 346.988281 281.746094 " clip-rule="nonzero"/></clipPath><clipPath id="69464dc88b"><path d="M 545 216 L 563 216 L 563 757 L 545 757 Z M 545 216 " clip-rule="nonzero"/></clipPath><clipPath id="f7466b7128"><path d="M 346.988281 281.746094 L 887.050781 49.195312 L 1093.199219 527.945312 L 553.140625 760.496094 Z M 346.988281 281.746094 " clip-rule="nonzero"/></clipPath><clipPath id="72cf3c54ab"><path d="M 346.988281 281.746094 L 887.050781 49.195312 L 1093.199219 527.945312 L 553.140625 760.496094 Z M 346.988281 281.746094 " clip-rule="nonzero"/></clipPath><clipPath id="08dab6b098"><path d="M 761 364 L 881 364 L 881 401.703125 L 761 401.703125 Z M 761 364 " clip-rule="nonzero"/></clipPath><clipPath id="5757aeff17"><path d="M 759.15625 300.453125 L 882.90625 300.453125 L 882.90625 359 L 759.15625 359 Z M 759.15625 300.453125 " clip-rule="nonzero"/></clipPath><clipPath id="2b22a3114c"><path d="M 641 315 L 761 315 L 761 352.984375 L 641 352.984375 Z M 641 315 " clip-rule="nonzero"/></clipPath><clipPath id="b4f7dc66ba"><path d="M 638.671875 251.734375 L 762.421875 251.734375 L 762.421875 310 L 638.671875 310 Z M 638.671875 251.734375 " clip-rule="nonzero"/></clipPath></defs><rect x="-144" width="1728" fill="#ffffff" y="-80.999999" height="971.999992" fill-opacity="1"/><rect x="-144" width="1728" fill="#ffffff" y="-80.999999" height="971.999992" fill-opacity="1"/><g clip-path="url(#2f412cb645)"><g clip-path="url(#6385457562)"><g clip-path="url(#ab33589b25)"><path fill="#ffde59" d="M 673.101562 199.414062 C 649.816406 199.570312 618.335938 205.210938 591.773438 211.105469 C 577.640625 214.242188 564.972656 217.429688 555.5625 219.90625 L 557.722656 452.214844 C 567.109375 449.75 579.605469 446.613281 593.550781 443.515625 C 619.25 437.8125 649.5 432.316406 672.792969 431.8125 C 673.625 431.796875 674.449219 431.785156 675.261719 431.777344 C 677.703125 431.761719 680.058594 431.808594 682.316406 431.917969 C 716.402344 433.5625 748.542969 447.386719 780.585938 460.664062 C 812.632812 473.941406 844.578125 486.667969 878.238281 486.375 C 897.761719 486.203125 926.191406 477.800781 949.648438 469.417969 C 955.882812 467.1875 961.722656 464.976562 967.003906 462.914062 L 964.84375 230.675781 C 959.726562 232.671875 954.078125 234.800781 948.097656 236.941406 C 924.5625 245.351562 896.109375 253.832031 876.078125 254.003906 C 841.9375 254.304688 809.757812 241.4375 777.699219 228.15625 C 745.640625 214.871094 713.691406 201.171875 680.054688 199.546875 C 677.835938 199.441406 675.515625 199.398438 673.105469 199.414062 Z M 673.101562 199.414062 " fill-opacity="1" fill-rule="evenodd"/></g></g></g><g clip-path="url(#dcff7799fe)"><g clip-path="url(#3924fba928)"><g clip-path="url(#3a8edf85a5)"><path fill="#ffde59" d="M 673.652344 204.203125 C 675.710938 204.195312 677.765625 204.234375 679.820312 204.332031 C 713.203125 205.945312 745.390625 219.957031 775.863281 232.582031 C 807.859375 245.839844 840.90625 259.105469 876.117188 258.796875 C 884.121094 258.726562 892.339844 257.492188 900.171875 255.910156 C 909.039062 254.117188 917.824219 251.761719 926.480469 249.148438 C 934.289062 246.789062 942.03125 244.195312 949.710938 241.453125 C 953.191406 240.210938 956.65625 238.933594 960.113281 237.625 L 961.148438 348.75 C 957.457031 350.15625 953.546875 351.605469 949.484375 353.054688 C 925.949219 361.464844 897.496094 369.945312 877.460938 370.121094 C 843.324219 370.417969 811.140625 357.550781 779.085938 344.269531 C 747.027344 330.988281 715.078125 317.289062 681.441406 315.664062 C 679.222656 315.554688 676.902344 315.511719 674.492188 315.527344 L 674.488281 315.53125 C 651.203125 315.683594 619.722656 321.328125 593.160156 327.222656 C 581.15625 329.886719 570.210938 332.585938 561.421875 334.855469 L 560.386719 223.597656 C 571.148438 220.808594 581.960938 218.195312 592.8125 215.785156 C 602.332031 213.671875 611.894531 211.71875 621.492188 209.996094 C 630.511719 208.382812 639.582031 206.960938 648.679688 205.898438 C 656.769531 204.953125 664.984375 204.261719 673.132812 204.207031 Z M 673.652344 204.203125 " fill-opacity="1" fill-rule="evenodd"/></g></g></g><g clip-path="url(#982092acc3)"><g clip-path="url(#83ba37ce51)"><g clip-path="url(#247920f2b9)"><path fill="#71625b" d="M 543.03125 213.929688 C 543.035156 214.371094 543.089844 214.804688 543.1875 215.234375 C 543.285156 215.660156 543.429688 216.078125 543.617188 216.480469 C 543.804688 216.882812 544.035156 217.265625 544.304688 217.628906 C 544.574219 217.988281 544.882812 218.324219 545.222656 218.628906 C 545.566406 218.9375 545.9375 219.207031 546.339844 219.449219 C 546.738281 219.6875 547.160156 219.886719 547.605469 220.050781 C 548.050781 220.210938 548.507812 220.335938 548.980469 220.414062 C 549.449219 220.492188 549.921875 220.53125 550.402344 220.527344 C 550.882812 220.519531 551.355469 220.472656 551.824219 220.378906 C 552.292969 220.289062 552.746094 220.15625 553.1875 219.984375 C 553.628906 219.808594 554.046875 219.597656 554.441406 219.351562 C 554.835938 219.101562 555.199219 218.820312 555.535156 218.507812 C 555.871094 218.191406 556.167969 217.851562 556.429688 217.484375 C 556.691406 217.117188 556.910156 216.726562 557.089844 216.320312 C 557.269531 215.914062 557.402344 215.492188 557.488281 215.0625 C 557.578125 214.628906 557.621094 214.195312 557.613281 213.757812 C 557.609375 213.316406 557.558594 212.882812 557.457031 212.453125 C 557.359375 212.027344 557.214844 211.609375 557.027344 211.207031 C 556.839844 210.804688 556.613281 210.421875 556.339844 210.058594 C 556.070312 209.699219 555.765625 209.363281 555.421875 209.058594 C 555.078125 208.75 554.707031 208.480469 554.308594 208.238281 C 553.90625 208 553.484375 207.800781 553.039062 207.636719 C 552.59375 207.472656 552.136719 207.351562 551.667969 207.273438 C 551.195312 207.191406 550.722656 207.15625 550.242188 207.160156 C 549.765625 207.167969 549.289062 207.214844 548.820312 207.308594 C 548.351562 207.398438 547.898438 207.53125 547.457031 207.703125 C 547.019531 207.878906 546.601562 208.089844 546.207031 208.335938 C 545.808594 208.585938 545.445312 208.867188 545.109375 209.179688 C 544.777344 209.496094 544.476562 209.835938 544.214844 210.203125 C 543.953125 210.570312 543.734375 210.960938 543.554688 211.367188 C 543.378906 211.773438 543.242188 212.195312 543.15625 212.625 C 543.066406 213.058594 543.027344 213.492188 543.03125 213.929688 Z M 543.03125 213.929688 " fill-opacity="1" fill-rule="nonzero"/></g></g></g><g clip-path="url(#edcde81ea4)"><g clip-path="url(#6cb2533c98)"><g clip-path="url(#f92237f80e)"><path fill="#71625b" d="M 543.769531 208.941406 C 543.773438 209.332031 543.820312 209.71875 543.910156 210.097656 C 543.996094 210.480469 544.125 210.851562 544.292969 211.210938 C 544.457031 211.570312 544.664062 211.910156 544.902344 212.234375 C 545.144531 212.554688 545.417969 212.851562 545.722656 213.125 C 546.027344 213.398438 546.359375 213.640625 546.714844 213.851562 C 547.070312 214.066406 547.449219 214.246094 547.84375 214.390625 C 548.238281 214.535156 548.648438 214.644531 549.066406 214.714844 C 549.484375 214.785156 549.910156 214.816406 550.335938 214.8125 C 550.761719 214.808594 551.183594 214.765625 551.601562 214.683594 C 552.019531 214.601562 552.421875 214.484375 552.816406 214.332031 C 553.207031 214.175781 553.578125 213.988281 553.929688 213.765625 C 554.28125 213.546875 554.609375 213.296875 554.90625 213.015625 C 555.203125 212.734375 555.46875 212.429688 555.703125 212.105469 C 555.9375 211.777344 556.132812 211.429688 556.289062 211.066406 C 556.449219 210.703125 556.566406 210.332031 556.648438 209.945312 C 556.726562 209.5625 556.761719 209.175781 556.757812 208.785156 C 556.753906 208.394531 556.707031 208.007812 556.617188 207.625 C 556.53125 207.242188 556.402344 206.871094 556.234375 206.511719 C 556.070312 206.152344 555.863281 205.8125 555.625 205.492188 C 555.382812 205.167969 555.109375 204.871094 554.804688 204.597656 C 554.5 204.328125 554.167969 204.085938 553.8125 203.871094 C 553.457031 203.660156 553.078125 203.480469 552.683594 203.335938 C 552.289062 203.191406 551.878906 203.082031 551.460938 203.011719 C 551.042969 202.9375 550.617188 202.90625 550.191406 202.910156 C 549.765625 202.917969 549.34375 202.960938 548.925781 203.039062 C 548.507812 203.121094 548.105469 203.238281 547.710938 203.394531 C 547.320312 203.546875 546.949219 203.734375 546.597656 203.957031 C 546.246094 204.179688 545.917969 204.429688 545.621094 204.710938 C 545.324219 204.988281 545.058594 205.292969 544.824219 205.621094 C 544.589844 205.949219 544.394531 206.292969 544.238281 206.65625 C 544.078125 207.019531 543.960938 207.394531 543.878906 207.777344 C 543.800781 208.160156 543.765625 208.550781 543.769531 208.941406 Z M 543.769531 208.941406 " fill-opacity="1" fill-rule="nonzero"/></g></g></g><g clip-path="url(#12f8629db7)"><g clip-path="url(#30c9996fcd)"><g clip-path="url(#716ad447b7)"><path fill="#71625b" d="M 544.484375 204.902344 C 544.488281 205.246094 544.53125 205.585938 544.605469 205.925781 C 544.683594 206.261719 544.796875 206.589844 544.945312 206.90625 C 545.09375 207.222656 545.273438 207.523438 545.484375 207.804688 C 545.699219 208.089844 545.9375 208.351562 546.207031 208.59375 C 546.476562 208.835938 546.769531 209.046875 547.082031 209.238281 C 547.398438 209.425781 547.730469 209.582031 548.082031 209.710938 C 548.429688 209.835938 548.789062 209.933594 549.160156 209.996094 C 549.527344 210.058594 549.902344 210.085938 550.277344 210.082031 C 550.652344 210.078125 551.027344 210.039062 551.394531 209.96875 C 551.761719 209.898438 552.121094 209.792969 552.464844 209.65625 C 552.8125 209.519531 553.140625 209.355469 553.449219 209.160156 C 553.761719 208.964844 554.046875 208.742188 554.3125 208.496094 C 554.574219 208.25 554.808594 207.980469 555.015625 207.691406 C 555.21875 207.402344 555.390625 207.097656 555.53125 206.777344 C 555.671875 206.457031 555.777344 206.128906 555.847656 205.789062 C 555.917969 205.449219 555.949219 205.109375 555.945312 204.765625 C 555.941406 204.417969 555.898438 204.078125 555.824219 203.742188 C 555.746094 203.402344 555.632812 203.078125 555.484375 202.761719 C 555.335938 202.441406 555.15625 202.140625 554.945312 201.859375 C 554.730469 201.574219 554.492188 201.3125 554.222656 201.070312 C 553.953125 200.832031 553.660156 200.617188 553.347656 200.429688 C 553.03125 200.242188 552.699219 200.082031 552.347656 199.957031 C 552 199.828125 551.640625 199.730469 551.269531 199.667969 C 550.902344 199.605469 550.527344 199.578125 550.152344 199.582031 C 549.777344 199.585938 549.402344 199.625 549.035156 199.695312 C 548.667969 199.769531 548.308594 199.871094 547.964844 200.007812 C 547.617188 200.144531 547.289062 200.308594 546.980469 200.503906 C 546.667969 200.699219 546.382812 200.921875 546.117188 201.167969 C 545.855469 201.414062 545.621094 201.683594 545.414062 201.972656 C 545.210938 202.261719 545.039062 202.566406 544.898438 202.886719 C 544.757812 203.207031 544.652344 203.535156 544.582031 203.875 C 544.511719 204.214844 544.480469 204.554688 544.484375 204.902344 Z M 544.484375 204.902344 " fill-opacity="1" fill-rule="nonzero"/></g></g></g><g clip-path="url(#f58252661a)"><g clip-path="url(#802cab4068)"><g clip-path="url(#1aad8d033e)"><path fill="#71625b" d="M 545.582031 200.65625 C 545.585938 200.933594 545.617188 201.207031 545.679688 201.476562 C 545.742188 201.746094 545.832031 202.007812 545.949219 202.261719 C 546.066406 202.515625 546.210938 202.753906 546.382812 202.984375 C 546.550781 203.210938 546.746094 203.417969 546.960938 203.613281 C 547.175781 203.804688 547.410156 203.976562 547.660156 204.125 C 547.914062 204.277344 548.179688 204.402344 548.457031 204.503906 C 548.738281 204.605469 549.023438 204.683594 549.320312 204.734375 C 549.617188 204.785156 549.914062 204.808594 550.214844 204.804688 C 550.515625 204.800781 550.8125 204.769531 551.109375 204.710938 C 551.402344 204.65625 551.6875 204.570312 551.964844 204.464844 C 552.242188 204.355469 552.503906 204.222656 552.753906 204.066406 C 553.003906 203.910156 553.230469 203.734375 553.441406 203.535156 C 553.652344 203.335938 553.839844 203.121094 554.003906 202.890625 C 554.167969 202.660156 554.308594 202.417969 554.417969 202.160156 C 554.53125 201.902344 554.617188 201.640625 554.671875 201.367188 C 554.726562 201.097656 554.753906 200.824219 554.75 200.546875 C 554.746094 200.273438 554.714844 200 554.652344 199.730469 C 554.589844 199.460938 554.5 199.199219 554.382812 198.945312 C 554.261719 198.691406 554.117188 198.453125 553.949219 198.222656 C 553.777344 197.996094 553.585938 197.785156 553.371094 197.59375 C 553.15625 197.402344 552.921875 197.230469 552.671875 197.082031 C 552.417969 196.929688 552.152344 196.804688 551.875 196.703125 C 551.59375 196.597656 551.304688 196.523438 551.011719 196.472656 C 550.714844 196.421875 550.417969 196.398438 550.113281 196.402344 C 549.8125 196.40625 549.515625 196.4375 549.222656 196.492188 C 548.925781 196.550781 548.640625 196.632812 548.363281 196.742188 C 548.089844 196.851562 547.824219 196.984375 547.578125 197.140625 C 547.328125 197.296875 547.097656 197.472656 546.886719 197.671875 C 546.679688 197.871094 546.492188 198.082031 546.324219 198.316406 C 546.160156 198.546875 546.023438 198.789062 545.910156 199.046875 C 545.800781 199.300781 545.714844 199.566406 545.660156 199.835938 C 545.605469 200.109375 545.578125 200.382812 545.582031 200.65625 Z M 545.582031 200.65625 " fill-opacity="1" fill-rule="nonzero"/></g></g></g><g clip-path="url(#69464dc88b)"><g clip-path="url(#f7466b7128)"><g clip-path="url(#72cf3c54ab)"><path fill="#71625b" d="M 555.695312 216.753906 L 545.019531 216.882812 L 551.46875 756.554688 L 562.144531 756.425781 Z M 555.695312 216.753906 " fill-opacity="1" fill-rule="evenodd"/></g></g></g><path fill="#998639" d="M 827.140625 362.710938 L 827.140625 359.960938 C 827.140625 356.605469 824.421875 353.890625 821.070312 353.890625 C 817.714844 353.890625 814.996094 356.605469 814.996094 359.960938 L 814.996094 362.710938 C 814.996094 366.066406 817.714844 368.785156 821.070312 368.785156 C 824.417969 368.785156 827.140625 366.066406 827.140625 362.710938 Z M 827.140625 362.710938 " fill-opacity="1" fill-rule="nonzero"/><g clip-path="url(#08dab6b098)"><path fill="#998639" d="M 831.304688 366.070312 C 829.957031 370.472656 825.90625 373.707031 821.070312 373.707031 C 816.230469 373.707031 812.179688 370.472656 810.832031 366.070312 L 769.015625 366.070312 C 766.375 366.070312 763.882812 365.457031 761.644531 364.390625 L 761.644531 392.15625 C 761.644531 397.578125 766.082031 402.015625 771.5 402.015625 L 870.632812 402.015625 C 876.054688 402.015625 880.492188 397.578125 880.492188 392.15625 L 880.492188 364.394531 C 878.25 365.457031 875.757812 366.074219 873.121094 366.074219 L 831.304688 366.074219 Z M 831.304688 366.070312 " fill-opacity="1" fill-rule="nonzero"/></g><g clip-path="url(#5757aeff17)"><path fill="#998639" d="M 872.707031 316.210938 L 849.046875 316.210938 C 847.617188 307.277344 839.878906 300.417969 830.546875 300.417969 L 811.585938 300.417969 C 802.253906 300.417969 794.515625 307.277344 793.085938 316.210938 L 769.425781 316.210938 C 763.777344 316.210938 759.15625 320.648438 759.15625 326.070312 L 759.15625 348.820312 C 759.15625 354.265625 763.570312 358.679688 769.015625 358.679688 L 810.367188 358.679688 C 810.507812 355.84375 811.726562 353.296875 813.648438 351.453125 C 813.707031 351.394531 813.777344 351.351562 813.839844 351.296875 C 814.265625 350.90625 814.710938 350.535156 815.195312 350.214844 C 815.367188 350.097656 815.566406 350.019531 815.746094 349.917969 C 816.144531 349.6875 816.539062 349.449219 816.96875 349.269531 C 817.308594 349.128906 817.671875 349.050781 818.027344 348.941406 C 818.332031 348.851562 818.621094 348.730469 818.941406 348.667969 C 819.628906 348.527344 820.339844 348.453125 821.066406 348.453125 C 821.796875 348.453125 822.507812 348.527344 823.195312 348.667969 C 823.507812 348.730469 823.800781 348.851562 824.105469 348.941406 C 824.460938 349.050781 824.824219 349.128906 825.164062 349.273438 C 825.59375 349.449219 825.984375 349.6875 826.382812 349.917969 C 826.566406 350.023438 826.761719 350.101562 826.9375 350.21875 C 827.421875 350.535156 827.863281 350.90625 828.289062 351.296875 C 828.351562 351.351562 828.421875 351.398438 828.484375 351.457031 C 830.410156 353.300781 831.625 355.847656 831.765625 358.683594 L 873.117188 358.683594 C 878.5625 358.683594 882.972656 354.269531 882.972656 348.828125 L 882.972656 326.074219 C 882.976562 320.648438 878.355469 316.210938 872.707031 316.210938 Z M 802.574219 316.210938 C 803.832031 312.414062 807.371094 309.644531 811.585938 309.644531 L 830.546875 309.644531 C 834.757812 309.644531 838.300781 312.414062 839.558594 316.210938 Z M 802.574219 316.210938 " fill-opacity="1" fill-rule="nonzero"/></g><path fill="#c8af48" d="M 706.65625 313.992188 L 706.65625 311.242188 C 706.65625 307.886719 703.9375 305.167969 700.585938 305.167969 C 697.230469 305.167969 694.515625 307.886719 694.515625 311.242188 L 694.515625 313.992188 C 694.515625 317.347656 697.230469 320.0625 700.585938 320.0625 C 703.933594 320.0625 706.65625 317.347656 706.65625 313.992188 Z M 706.65625 313.992188 " fill-opacity="1" fill-rule="nonzero"/><g clip-path="url(#2b22a3114c)"><path fill="#c8af48" d="M 710.820312 317.351562 C 709.476562 321.753906 705.421875 324.988281 700.585938 324.988281 C 695.75 324.988281 691.695312 321.753906 690.347656 317.351562 L 648.53125 317.351562 C 645.890625 317.351562 643.398438 316.738281 641.160156 315.671875 L 641.160156 343.4375 C 641.160156 348.859375 645.597656 353.296875 651.019531 353.296875 L 750.148438 353.296875 C 755.570312 353.296875 760.007812 348.859375 760.007812 343.4375 L 760.007812 315.675781 C 757.765625 316.738281 755.273438 317.351562 752.636719 317.351562 Z M 710.820312 317.351562 " fill-opacity="1" fill-rule="nonzero"/></g><g clip-path="url(#b4f7dc66ba)"><path fill="#c8af48" d="M 752.222656 267.492188 L 728.5625 267.492188 C 727.132812 258.554688 719.394531 251.699219 710.0625 251.699219 L 691.101562 251.699219 C 681.769531 251.699219 674.03125 258.554688 672.601562 267.492188 L 648.941406 267.492188 C 643.292969 267.492188 638.675781 271.929688 638.675781 277.351562 L 638.675781 300.101562 C 638.675781 305.546875 643.085938 309.960938 648.53125 309.960938 L 689.882812 309.960938 C 690.023438 307.125 691.242188 304.574219 693.164062 302.734375 C 693.226562 302.675781 693.292969 302.632812 693.355469 302.578125 C 693.78125 302.183594 694.226562 301.816406 694.710938 301.496094 C 694.882812 301.378906 695.082031 301.300781 695.261719 301.195312 C 695.660156 300.96875 696.054688 300.730469 696.484375 300.550781 C 696.824219 300.410156 697.1875 300.328125 697.542969 300.222656 C 697.847656 300.132812 698.140625 300.011719 698.457031 299.949219 C 699.144531 299.808594 699.855469 299.734375 700.582031 299.734375 C 701.3125 299.734375 702.023438 299.808594 702.710938 299.949219 C 703.027344 300.011719 703.316406 300.132812 703.621094 300.222656 C 703.976562 300.328125 704.339844 300.410156 704.679688 300.554688 C 705.109375 300.730469 705.5 300.96875 705.898438 301.195312 C 706.082031 301.304688 706.277344 301.382812 706.453125 301.496094 C 706.9375 301.816406 707.378906 302.183594 707.804688 302.578125 C 707.867188 302.632812 707.941406 302.679688 708 302.738281 C 709.925781 304.582031 711.140625 307.128906 711.28125 309.964844 L 752.632812 309.964844 C 758.078125 309.964844 762.492188 305.550781 762.492188 300.109375 L 762.492188 277.355469 C 762.492188 271.929688 757.871094 267.492188 752.222656 267.492188 Z M 682.089844 267.492188 C 683.347656 263.695312 686.890625 260.925781 691.101562 260.925781 L 710.0625 260.925781 C 714.277344 260.925781 717.816406 263.695312 719.074219 267.492188 Z M 682.089844 267.492188 " fill-opacity="1" fill-rule="nonzero"/></g></svg>