<svg xmlns="http://www.w3.org/2000/svg" xmlns:xlink="http://www.w3.org/1999/xlink" width="1920" zoomAndPan="magnify" viewBox="0 0 1440 809.999993" height="1080" preserveAspectRatio="xMidYMid meet" version="1.0"><defs><clipPath id="3b328bf509"><path d="M 509 160 L 949 160 L 949 467 L 509 467 Z M 509 160 " clip-rule="nonzero"/></clipPath><clipPath id="c6afe85a3c"><path d="M 286.71875 247.984375 L 862.597656 0.0117188 L 1082.691406 511.136719 L 506.808594 759.113281 Z M 286.71875 247.984375 " clip-rule="nonzero"/></clipPath><clipPath id="c1194a1857"><path d="M 286.71875 247.984375 L 862.597656 0.0117188 L 1082.691406 511.136719 L 506.808594 759.113281 Z M 286.71875 247.984375 " clip-rule="nonzero"/></clipPath><clipPath id="77bd58f571"><path d="M 514 165 L 942 165 L 942 343 L 514 343 Z M 514 165 " clip-rule="nonzero"/></clipPath><clipPath id="4a83fb8f43"><path d="M 286.71875 247.984375 L 862.597656 0.0117188 L 1082.691406 511.136719 L 506.808594 759.113281 Z M 286.71875 247.984375 " clip-rule="nonzero"/></clipPath><clipPath id="3f4d16133a"><path d="M 286.71875 247.984375 L 862.597656 0.0117188 L 1082.691406 511.136719 L 506.808594 759.113281 Z M 286.71875 247.984375 " clip-rule="nonzero"/></clipPath><clipPath id="c5851e4f56"><path d="M 495 168 L 512 168 L 512 183 L 495 183 Z M 495 168 " clip-rule="nonzero"/></clipPath><clipPath id="23cf377550"><path d="M 286.71875 247.984375 L 862.597656 0.0117188 L 1082.691406 511.136719 L 506.808594 759.113281 Z M 286.71875 247.984375 " clip-rule="nonzero"/></clipPath><clipPath id="a7fd88f3af"><path d="M 286.71875 247.984375 L 862.597656 0.0117188 L 1082.691406 511.136719 L 506.808594 759.113281 Z M 286.71875 247.984375 " clip-rule="nonzero"/></clipPath><clipPath id="10a6cc64da"><path d="M 496 163 L 511 163 L 511 177 L 496 177 Z M 496 163 " clip-rule="nonzero"/></clipPath><clipPath id="39286f2cc7"><path d="M 286.71875 247.984375 L 862.597656 0.0117188 L 1082.691406 511.136719 L 506.808594 759.113281 Z M 286.71875 247.984375 " clip-rule="nonzero"/></clipPath><clipPath id="ec1a97f30a"><path d="M 286.71875 247.984375 L 862.597656 0.0117188 L 1082.691406 511.136719 L 506.808594 759.113281 Z M 286.71875 247.984375 " clip-rule="nonzero"/></clipPath><clipPath id="f5d98b6f06"><path d="M 497 160 L 510 160 L 510 172 L 497 172 Z M 497 160 " clip-rule="nonzero"/></clipPath><clipPath id="bfde6ad854"><path d="M 286.71875 247.984375 L 862.597656 0.0117188 L 1082.691406 511.136719 L 506.808594 759.113281 Z M 286.71875 247.984375 " clip-rule="nonzero"/></clipPath><clipPath id="8eef6d6239"><path d="M 286.71875 247.984375 L 862.597656 0.0117188 L 1082.691406 511.136719 L 506.808594 759.113281 Z M 286.71875 247.984375 " clip-rule="nonzero"/></clipPath><clipPath id="37bfac0c73"><path d="M 498 156 L 509 156 L 509 166 L 498 166 Z M 498 156 " clip-rule="nonzero"/></clipPath><clipPath id="c971c1a310"><path d="M 286.71875 247.984375 L 862.597656 0.0117188 L 1082.691406 511.136719 L 506.808594 759.113281 Z M 286.71875 247.984375 " clip-rule="nonzero"/></clipPath><clipPath id="9f9e2f3de4"><path d="M 286.71875 247.984375 L 862.597656 0.0117188 L 1082.691406 511.136719 L 506.808594 759.113281 Z M 286.71875 247.984375 " clip-rule="nonzero"/></clipPath><clipPath id="cb09c3b76d"><path d="M 497 178 L 517 178 L 517 755 L 497 755 Z M 497 178 " clip-rule="nonzero"/></clipPath><clipPath id="5ed3eee33f"><path d="M 286.71875 247.984375 L 862.597656 0.0117188 L 1082.691406 511.136719 L 506.808594 759.113281 Z M 286.71875 247.984375 " clip-rule="nonzero"/></clipPath><clipPath id="a95ba946c8"><path d="M 286.71875 247.984375 L 862.597656 0.0117188 L 1082.691406 511.136719 L 506.808594 759.113281 Z M 286.71875 247.984375 " clip-rule="nonzero"/></clipPath><clipPath id="9b0bcfdafe"><path d="M 541.179688 238.882812 L 657.429688 238.882812 L 657.429688 339.382812 L 541.179688 339.382812 Z M 541.179688 238.882812 " clip-rule="nonzero"/></clipPath><clipPath id="dc4a500298"><path d="M 0.179688 0.886719 L 63.976562 0.886719 L 63.976562 52.617188 L 0.179688 52.617188 Z M 0.179688 0.886719 " clip-rule="nonzero"/></clipPath><clipPath id="feef1e196b"><path d="M 0.179688 0.886719 L 116.289062 0.886719 L 116.289062 101.171875 L 0.179688 101.171875 Z M 0.179688 0.886719 " clip-rule="nonzero"/></clipPath><clipPath id="d0898746f1"><rect x="0" width="117" y="0" height="102"/></clipPath><clipPath id="6f3e07e165"><path d="M 660 341 L 788 341 L 788 381.28125 L 660 381.28125 Z M 660 341 " clip-rule="nonzero"/></clipPath><clipPath id="e426c617fa"><path d="M 658.046875 273.28125 L 790.046875 273.28125 L 790.046875 336 L 658.046875 336 Z M 658.046875 273.28125 " clip-rule="nonzero"/></clipPath><clipPath id="eb8c847587"><path d="M 842.464844 238.886719 L 906.265625 238.886719 L 906.265625 290.617188 L 842.464844 290.617188 Z M 842.464844 238.886719 " clip-rule="nonzero"/></clipPath><clipPath id="e05eb7e17e"><path d="M 790.15625 238.886719 L 906.265625 238.886719 L 906.265625 339.171875 L 790.15625 339.171875 Z M 790.15625 238.886719 " clip-rule="nonzero"/></clipPath></defs><rect x="-144" width="1728" fill="#ffffff" y="-80.999999" height="971.999992" fill-opacity="1"/><rect x="-144" width="1728" fill="#ffffff" y="-80.999999" height="971.999992" fill-opacity="1"/><g clip-path="url(#3b328bf509)"><g clip-path="url(#c6afe85a3c)"><g clip-path="url(#c1194a1857)"><path fill="#0097b2" d="M 634.648438 160.140625 C 609.804688 160.308594 576.21875 166.328125 547.882812 172.617188 C 532.800781 175.964844 519.285156 179.363281 509.242188 182.003906 L 511.550781 429.859375 C 521.566406 427.230469 534.898438 423.882812 549.777344 420.578125 C 577.195312 414.496094 609.472656 408.632812 634.324219 408.09375 C 635.210938 408.074219 636.089844 408.0625 636.957031 408.054688 C 639.558594 408.039062 642.074219 408.085938 644.484375 408.203125 C 680.847656 409.960938 715.140625 424.710938 749.328125 438.875 C 783.519531 453.039062 817.601562 466.617188 853.515625 466.304688 C 874.34375 466.121094 904.675781 457.15625 929.707031 448.210938 C 936.355469 445.835938 942.585938 443.476562 948.21875 441.273438 L 945.914062 193.496094 C 940.457031 195.625 934.429688 197.898438 928.050781 200.179688 C 902.941406 209.152344 872.582031 218.199219 851.207031 218.386719 C 814.785156 218.703125 780.449219 204.976562 746.25 190.804688 C 712.042969 176.632812 677.957031 162.015625 642.070312 160.28125 C 639.703125 160.167969 637.226562 160.125 634.65625 160.140625 Z M 634.648438 160.140625 " fill-opacity="1" fill-rule="evenodd"/></g></g></g><g clip-path="url(#77bd58f571)"><g clip-path="url(#4a83fb8f43)"><g clip-path="url(#3f4d16133a)"><path fill="#0097b2" d="M 635.238281 165.25 C 637.433594 165.242188 639.628906 165.285156 641.820312 165.390625 C 677.4375 167.109375 711.777344 182.058594 744.289062 195.527344 C 778.425781 209.671875 813.683594 223.824219 851.25 223.496094 C 859.792969 223.421875 868.558594 222.105469 876.917969 220.417969 C 886.375 218.503906 895.75 215.992188 904.984375 213.203125 C 913.316406 210.6875 921.574219 207.921875 929.769531 204.992188 C 933.480469 203.664062 937.183594 202.304688 940.871094 200.910156 L 941.972656 319.46875 C 938.03125 320.96875 933.863281 322.515625 929.53125 324.0625 C 904.417969 333.039062 874.0625 342.085938 852.6875 342.269531 C 816.265625 342.589844 781.929688 328.863281 747.726562 314.691406 C 713.523438 300.519531 679.433594 285.902344 643.546875 284.167969 C 641.179688 284.054688 638.703125 284.007812 636.132812 284.027344 L 636.128906 284.027344 C 611.285156 284.191406 577.699219 290.214844 549.359375 296.503906 C 536.554688 299.34375 524.875 302.222656 515.496094 304.648438 L 514.390625 185.945312 C 525.875 182.96875 537.410156 180.175781 548.988281 177.609375 C 559.144531 175.351562 569.347656 173.269531 579.589844 171.433594 C 589.207031 169.707031 598.886719 168.195312 608.59375 167.058594 C 617.222656 166.050781 625.992188 165.3125 634.683594 165.253906 Z M 635.238281 165.25 " fill-opacity="1" fill-rule="evenodd"/></g></g></g><g clip-path="url(#c5851e4f56)"><g clip-path="url(#23cf377550)"><g clip-path="url(#a7fd88f3af)"><path fill="#71625b" d="M 495.875 175.628906 C 495.882812 176.097656 495.9375 176.558594 496.042969 177.019531 C 496.148438 177.476562 496.300781 177.921875 496.5 178.351562 C 496.703125 178.78125 496.945312 179.1875 497.234375 179.574219 C 497.523438 179.960938 497.847656 180.316406 498.214844 180.644531 C 498.578125 180.96875 498.976562 181.261719 499.402344 181.515625 C 499.832031 181.769531 500.28125 181.984375 500.757812 182.15625 C 501.230469 182.332031 501.71875 182.460938 502.222656 182.546875 C 502.722656 182.632812 503.230469 182.671875 503.742188 182.664062 C 504.25 182.660156 504.757812 182.609375 505.257812 182.511719 C 505.757812 182.414062 506.242188 182.273438 506.710938 182.085938 C 507.179688 181.902344 507.625 181.675781 508.046875 181.414062 C 508.46875 181.148438 508.859375 180.847656 509.214844 180.511719 C 509.574219 180.175781 509.890625 179.8125 510.171875 179.417969 C 510.449219 179.027344 510.683594 178.613281 510.875 178.179688 C 511.066406 177.742188 511.207031 177.296875 511.300781 176.835938 C 511.394531 176.375 511.441406 175.910156 511.433594 175.445312 C 511.429688 174.976562 511.375 174.511719 511.269531 174.054688 C 511.164062 173.597656 511.011719 173.152344 510.808594 172.722656 C 510.609375 172.292969 510.363281 171.882812 510.078125 171.5 C 509.789062 171.113281 509.460938 170.757812 509.097656 170.429688 C 508.730469 170.101562 508.335938 169.8125 507.90625 169.558594 C 507.480469 169.300781 507.027344 169.089844 506.554688 168.914062 C 506.078125 168.742188 505.589844 168.613281 505.089844 168.527344 C 504.585938 168.441406 504.082031 168.402344 503.570312 168.40625 C 503.058594 168.414062 502.554688 168.464844 502.054688 168.5625 C 501.554688 168.660156 501.070312 168.800781 500.597656 168.984375 C 500.128906 169.171875 499.683594 169.394531 499.261719 169.660156 C 498.839844 169.925781 498.453125 170.226562 498.09375 170.5625 C 497.738281 170.894531 497.417969 171.261719 497.140625 171.652344 C 496.859375 172.046875 496.625 172.460938 496.433594 172.894531 C 496.246094 173.328125 496.101562 173.777344 496.007812 174.238281 C 495.914062 174.695312 495.871094 175.160156 495.875 175.628906 Z M 495.875 175.628906 " fill-opacity="1" fill-rule="nonzero"/></g></g></g><g clip-path="url(#10a6cc64da)"><g clip-path="url(#39286f2cc7)"><g clip-path="url(#ec1a97f30a)"><path fill="#71625b" d="M 496.664062 170.304688 C 496.667969 170.722656 496.71875 171.132812 496.8125 171.542969 C 496.90625 171.949219 497.042969 172.34375 497.21875 172.726562 C 497.398438 173.109375 497.617188 173.472656 497.875 173.816406 C 498.128906 174.160156 498.421875 174.480469 498.746094 174.769531 C 499.070312 175.058594 499.425781 175.320312 499.804688 175.546875 C 500.1875 175.773438 500.589844 175.964844 501.011719 176.117188 C 501.433594 176.273438 501.867188 176.390625 502.316406 176.464844 C 502.761719 176.539062 503.214844 176.574219 503.667969 176.570312 C 504.125 176.566406 504.574219 176.519531 505.019531 176.433594 C 505.464844 176.347656 505.894531 176.21875 506.3125 176.054688 C 506.730469 175.890625 507.128906 175.691406 507.503906 175.453125 C 507.878906 175.21875 508.226562 174.949219 508.546875 174.652344 C 508.863281 174.355469 509.148438 174.03125 509.394531 173.679688 C 509.644531 173.332031 509.851562 172.960938 510.023438 172.574219 C 510.191406 172.1875 510.320312 171.789062 510.402344 171.378906 C 510.488281 170.96875 510.527344 170.554688 510.519531 170.140625 C 510.515625 169.722656 510.464844 169.308594 510.371094 168.902344 C 510.277344 168.492188 510.144531 168.097656 509.964844 167.714844 C 509.785156 167.332031 509.566406 166.96875 509.3125 166.625 C 509.054688 166.28125 508.761719 165.964844 508.4375 165.671875 C 508.113281 165.382812 507.757812 165.125 507.378906 164.894531 C 506.996094 164.667969 506.597656 164.480469 506.171875 164.324219 C 505.75 164.167969 505.316406 164.054688 504.871094 163.976562 C 504.421875 163.902344 503.972656 163.867188 503.515625 163.871094 C 503.0625 163.878906 502.613281 163.925781 502.167969 164.011719 C 501.722656 164.097656 501.289062 164.222656 500.871094 164.386719 C 500.453125 164.550781 500.054688 164.753906 499.679688 164.988281 C 499.304688 165.222656 498.957031 165.492188 498.640625 165.789062 C 498.320312 166.089844 498.039062 166.414062 497.789062 166.761719 C 497.539062 167.113281 497.332031 167.480469 497.164062 167.867188 C 496.992188 168.253906 496.867188 168.652344 496.78125 169.0625 C 496.699219 169.472656 496.660156 169.886719 496.664062 170.304688 Z M 496.664062 170.304688 " fill-opacity="1" fill-rule="nonzero"/></g></g></g><g clip-path="url(#f5d98b6f06)"><g clip-path="url(#bfde6ad854)"><g clip-path="url(#8eef6d6239)"><path fill="#71625b" d="M 497.425781 165.996094 C 497.429688 166.363281 497.476562 166.726562 497.558594 167.085938 C 497.640625 167.445312 497.761719 167.796875 497.917969 168.132812 C 498.074219 168.472656 498.269531 168.792969 498.496094 169.09375 C 498.722656 169.398438 498.976562 169.679688 499.265625 169.933594 C 499.550781 170.191406 499.863281 170.421875 500.199219 170.621094 C 500.535156 170.820312 500.890625 170.988281 501.261719 171.125 C 501.636719 171.261719 502.019531 171.363281 502.414062 171.429688 C 502.808594 171.496094 503.207031 171.527344 503.605469 171.523438 C 504.007812 171.519531 504.40625 171.480469 504.796875 171.402344 C 505.191406 171.324219 505.574219 171.214844 505.941406 171.070312 C 506.3125 170.925781 506.660156 170.746094 506.992188 170.539062 C 507.324219 170.332031 507.628906 170.09375 507.910156 169.832031 C 508.191406 169.566406 508.441406 169.28125 508.660156 168.972656 C 508.878906 168.664062 509.0625 168.339844 509.214844 168 C 509.363281 167.65625 509.476562 167.304688 509.550781 166.941406 C 509.625 166.582031 509.65625 166.21875 509.652344 165.847656 C 509.648438 165.480469 509.605469 165.117188 509.523438 164.757812 C 509.441406 164.398438 509.320312 164.046875 509.164062 163.710938 C 509.003906 163.371094 508.8125 163.050781 508.585938 162.75 C 508.359375 162.445312 508.101562 162.164062 507.816406 161.910156 C 507.527344 161.652344 507.21875 161.425781 506.882812 161.222656 C 506.542969 161.023438 506.191406 160.855469 505.816406 160.71875 C 505.445312 160.582031 505.0625 160.480469 504.667969 160.414062 C 504.273438 160.347656 503.875 160.316406 503.472656 160.320312 C 503.070312 160.324219 502.675781 160.367188 502.28125 160.441406 C 501.890625 160.519531 501.507812 160.628906 501.140625 160.773438 C 500.769531 160.917969 500.417969 161.097656 500.089844 161.304688 C 499.757812 161.511719 499.449219 161.75 499.171875 162.011719 C 498.890625 162.277344 498.640625 162.5625 498.421875 162.871094 C 498.199219 163.179688 498.015625 163.503906 497.867188 163.847656 C 497.71875 164.1875 497.605469 164.539062 497.53125 164.902344 C 497.457031 165.261719 497.421875 165.628906 497.425781 165.996094 Z M 497.425781 165.996094 " fill-opacity="1" fill-rule="nonzero"/></g></g></g><g clip-path="url(#37bfac0c73)"><g clip-path="url(#c971c1a310)"><g clip-path="url(#9f9e2f3de4)"><path fill="#71625b" d="M 498.597656 161.46875 C 498.601562 161.761719 498.636719 162.054688 498.703125 162.339844 C 498.765625 162.628906 498.863281 162.910156 498.988281 163.179688 C 499.117188 163.449219 499.269531 163.707031 499.449219 163.949219 C 499.632812 164.191406 499.835938 164.414062 500.066406 164.621094 C 500.296875 164.824219 500.546875 165.007812 500.816406 165.167969 C 501.082031 165.328125 501.367188 165.464844 501.664062 165.574219 C 501.964844 165.683594 502.269531 165.761719 502.585938 165.816406 C 502.902344 165.871094 503.21875 165.894531 503.542969 165.890625 C 503.863281 165.886719 504.179688 165.855469 504.496094 165.792969 C 504.808594 165.734375 505.113281 165.644531 505.410156 165.527344 C 505.703125 165.410156 505.984375 165.269531 506.25 165.105469 C 506.515625 164.9375 506.757812 164.75 506.984375 164.539062 C 507.207031 164.328125 507.40625 164.097656 507.582031 163.851562 C 507.757812 163.605469 507.90625 163.34375 508.027344 163.070312 C 508.144531 162.796875 508.234375 162.515625 508.292969 162.226562 C 508.355469 161.9375 508.382812 161.644531 508.378906 161.351562 C 508.375 161.058594 508.339844 160.765625 508.273438 160.476562 C 508.207031 160.191406 508.113281 159.910156 507.984375 159.640625 C 507.859375 159.371094 507.707031 159.113281 507.523438 158.871094 C 507.34375 158.628906 507.136719 158.40625 506.90625 158.199219 C 506.679688 157.992188 506.429688 157.8125 506.160156 157.652344 C 505.890625 157.492188 505.609375 157.355469 505.308594 157.246094 C 505.011719 157.136719 504.703125 157.054688 504.390625 157.003906 C 504.074219 156.949219 503.753906 156.925781 503.433594 156.929688 C 503.113281 156.933594 502.796875 156.964844 502.480469 157.027344 C 502.167969 157.085938 501.863281 157.175781 501.566406 157.292969 C 501.269531 157.40625 500.992188 157.550781 500.726562 157.714844 C 500.460938 157.882812 500.214844 158.070312 499.992188 158.28125 C 499.765625 158.492188 499.566406 158.722656 499.390625 158.96875 C 499.214844 159.214844 499.066406 159.476562 498.949219 159.75 C 498.828125 160.023438 498.738281 160.304688 498.679688 160.59375 C 498.621094 160.882812 498.59375 161.175781 498.597656 161.46875 Z M 498.597656 161.46875 " fill-opacity="1" fill-rule="nonzero"/></g></g></g><g clip-path="url(#cb09c3b76d)"><g clip-path="url(#5ed3eee33f)"><g clip-path="url(#a95ba946c8)"><path fill="#71625b" d="M 509.386719 178.640625 L 497.996094 178.777344 L 504.875 754.5625 L 516.265625 754.429688 Z M 509.386719 178.640625 " fill-opacity="1" fill-rule="evenodd"/></g></g></g><g clip-path="url(#9b0bcfdafe)"><g transform="matrix(1, 0, 0, 1, 541, 238)"><g clip-path="url(#d0898746f1)"><path fill="#007489" d="M 107.246094 98.046875 C 107.246094 98.046875 107.117188 97.859375 106.875 97.511719 C 106.816406 97.425781 106.746094 97.328125 106.671875 97.222656 C 106.585938 97.121094 106.496094 97.011719 106.394531 96.894531 C 106.292969 96.773438 106.1875 96.644531 106.070312 96.507812 C 105.957031 96.363281 105.816406 96.238281 105.675781 96.09375 C 105.53125 95.949219 105.382812 95.796875 105.226562 95.640625 C 105.0625 95.484375 104.878906 95.339844 104.695312 95.179688 C 104.503906 95.027344 104.316406 94.847656 104.097656 94.695312 C 103.882812 94.542969 103.65625 94.382812 103.421875 94.21875 C 103.304688 94.140625 103.191406 94.046875 103.0625 93.976562 C 102.933594 93.902344 102.804688 93.828125 102.671875 93.75 C 102.410156 93.601562 102.136719 93.4375 101.851562 93.285156 C 101.5625 93.148438 101.261719 93.011719 100.953125 92.871094 C 100.796875 92.800781 100.640625 92.722656 100.480469 92.660156 C 100.316406 92.601562 100.152344 92.542969 99.988281 92.480469 C 99.652344 92.359375 99.308594 92.238281 98.957031 92.125 C 98.601562 92.03125 98.234375 91.9375 97.863281 91.839844 C 97.679688 91.792969 97.492188 91.738281 97.300781 91.699219 C 97.109375 91.664062 96.914062 91.632812 96.722656 91.601562 C 96.328125 91.535156 95.933594 91.472656 95.53125 91.40625 C 93.917969 91.246094 92.195312 91.160156 90.445312 91.316406 C 90.007812 91.351562 89.5625 91.382812 89.117188 91.421875 C 88.679688 91.492188 88.234375 91.558594 87.789062 91.625 C 87.566406 91.660156 87.34375 91.695312 87.121094 91.730469 C 86.898438 91.765625 86.667969 91.792969 86.449219 91.847656 C 86.007812 91.945312 85.566406 92.046875 85.117188 92.148438 C 84.898438 92.199219 84.671875 92.25 84.449219 92.304688 C 84.226562 92.351562 84 92.402344 83.78125 92.472656 C 83.34375 92.597656 82.902344 92.726562 82.460938 92.859375 C 82.03125 92.988281 81.601562 93.117188 81.171875 93.246094 L 79.898438 93.652344 C 79.683594 93.722656 79.488281 93.773438 79.285156 93.832031 L 78.679688 94.003906 C 78.28125 94.125 77.867188 94.230469 77.453125 94.335938 C 77.042969 94.445312 76.628906 94.550781 76.214844 94.640625 C 75.804688 94.734375 75.394531 94.84375 74.980469 94.917969 C 74.15625 95.089844 73.335938 95.230469 72.523438 95.371094 C 72.117188 95.429688 71.714844 95.488281 71.308594 95.546875 C 70.90625 95.59375 70.507812 95.644531 70.109375 95.691406 C 68.515625 95.855469 66.96875 95.941406 65.496094 95.941406 C 65.125 95.949219 64.765625 95.9375 64.402344 95.933594 C 64.046875 95.929688 63.695312 95.902344 63.34375 95.894531 C 62.996094 95.882812 62.65625 95.855469 62.320312 95.835938 C 61.984375 95.804688 61.65625 95.777344 61.332031 95.75 C 60.039062 95.628906 58.859375 95.445312 57.8125 95.246094 C 56.765625 95.046875 55.855469 94.820312 55.105469 94.617188 C 53.613281 94.203125 52.773438 93.859375 52.773438 93.859375 C 52.773438 93.859375 52.816406 93.898438 52.898438 93.96875 C 52.980469 94.042969 53.101562 94.148438 53.273438 94.277344 C 53.609375 94.542969 54.117188 94.910156 54.800781 95.324219 C 55.480469 95.742188 56.339844 96.207031 57.363281 96.660156 C 58.386719 97.113281 59.578125 97.558594 60.914062 97.9375 C 61.246094 98.03125 61.589844 98.121094 61.9375 98.207031 C 62.289062 98.285156 62.648438 98.371094 63.015625 98.449219 C 63.75 98.601562 64.515625 98.722656 65.308594 98.828125 C 66.890625 99.03125 68.578125 99.128906 70.320312 99.089844 C 70.753906 99.074219 71.195312 99.066406 71.636719 99.042969 C 72.078125 99.007812 72.523438 98.972656 72.96875 98.9375 C 73.414062 98.886719 73.863281 98.839844 74.316406 98.789062 C 74.765625 98.730469 75.210938 98.652344 75.664062 98.582031 C 76.117188 98.519531 76.5625 98.417969 77.015625 98.332031 C 77.242188 98.289062 77.46875 98.25 77.695312 98.199219 L 78.367188 98.039062 C 78.816406 97.933594 79.265625 97.832031 79.71875 97.695312 L 80.398438 97.503906 C 80.625 97.4375 80.863281 97.378906 81.070312 97.308594 C 81.914062 97.039062 82.757812 96.765625 83.597656 96.496094 C 84.007812 96.367188 84.410156 96.234375 84.816406 96.097656 C 85.015625 96.027344 85.21875 95.972656 85.421875 95.921875 C 85.628906 95.863281 85.832031 95.8125 86.03125 95.753906 C 86.4375 95.644531 86.84375 95.535156 87.246094 95.425781 C 87.445312 95.363281 87.648438 95.328125 87.847656 95.28125 C 88.046875 95.238281 88.25 95.195312 88.449219 95.148438 C 88.851562 95.0625 89.25 94.972656 89.644531 94.886719 C 90.039062 94.828125 90.433594 94.757812 90.824219 94.695312 C 91.019531 94.660156 91.214844 94.628906 91.410156 94.597656 C 91.503906 94.582031 91.601562 94.558594 91.699219 94.550781 L 91.988281 94.519531 C 92.375 94.488281 92.753906 94.445312 93.132812 94.402344 C 93.320312 94.382812 93.511719 94.347656 93.699219 94.347656 C 93.882812 94.339844 94.070312 94.335938 94.253906 94.328125 C 94.625 94.316406 94.992188 94.296875 95.351562 94.28125 C 95.710938 94.289062 96.066406 94.300781 96.414062 94.308594 C 96.589844 94.3125 96.765625 94.316406 96.9375 94.320312 C 97.109375 94.335938 97.28125 94.351562 97.449219 94.367188 C 97.785156 94.398438 98.117188 94.429688 98.445312 94.457031 C 98.769531 94.511719 99.085938 94.566406 99.394531 94.617188 C 99.550781 94.640625 99.707031 94.667969 99.859375 94.691406 C 100.011719 94.71875 100.15625 94.761719 100.304688 94.796875 C 100.597656 94.867188 100.886719 94.941406 101.171875 95.003906 C 101.449219 95.085938 101.714844 95.179688 101.976562 95.261719 C 102.109375 95.304688 102.238281 95.34375 102.367188 95.386719 C 102.496094 95.425781 102.613281 95.480469 102.738281 95.527344 C 102.980469 95.625 103.214844 95.71875 103.441406 95.808594 C 103.558594 95.851562 103.664062 95.90625 103.769531 95.960938 C 103.878906 96.011719 103.984375 96.058594 104.085938 96.109375 C 104.289062 96.210938 104.492188 96.296875 104.679688 96.398438 C 104.863281 96.503906 105.035156 96.601562 105.203125 96.699219 C 105.546875 96.878906 105.824219 97.070312 106.078125 97.234375 C 106.207031 97.3125 106.324219 97.390625 106.433594 97.460938 C 106.535156 97.535156 106.632812 97.605469 106.71875 97.667969 C 107.0625 97.914062 107.246094 98.046875 107.246094 98.046875 " fill-opacity="1" fill-rule="nonzero"/><path fill="#007489" d="M 52.730469 93.832031 C 53.292969 93.867188 53.855469 93.886719 54.417969 93.910156 C 54.984375 93.925781 55.542969 93.96875 56.109375 93.949219 C 56.675781 93.941406 57.242188 93.921875 57.8125 93.910156 C 58.09375 93.902344 58.382812 93.898438 58.664062 93.878906 L 59.511719 93.816406 C 60.078125 93.777344 60.644531 93.726562 61.210938 93.675781 C 61.777344 93.609375 62.339844 93.539062 62.90625 93.460938 L 63.753906 93.347656 L 64.597656 93.199219 C 65.15625 93.101562 65.71875 93 66.28125 92.886719 L 67.957031 92.507812 C 68.234375 92.445312 68.511719 92.375 68.789062 92.296875 L 69.617188 92.070312 C 69.894531 91.996094 70.175781 91.925781 70.449219 91.839844 L 71.269531 91.582031 L 72.09375 91.316406 L 72.90625 91.03125 L 73.722656 90.738281 C 73.992188 90.636719 74.261719 90.523438 74.53125 90.417969 C 74.796875 90.308594 75.070312 90.207031 75.332031 90.089844 L 76.132812 89.738281 C 76.398438 89.625 76.664062 89.496094 76.925781 89.371094 C 77.191406 89.246094 77.457031 89.125 77.71875 88.984375 C 77.980469 88.847656 78.242188 88.714844 78.503906 88.566406 C 78.636719 88.492188 78.765625 88.425781 78.898438 88.34375 C 79.039062 88.261719 79.15625 88.195312 79.324219 88.089844 L 88.058594 82.542969 L 77.855469 84.867188 C 76.910156 85.082031 75.96875 85.296875 75.03125 85.523438 L 72.195312 86.09375 C 71.246094 86.253906 70.300781 86.4375 69.351562 86.582031 L 67.925781 86.777344 L 67.214844 86.882812 C 66.976562 86.914062 66.738281 86.933594 66.5 86.960938 L 65.070312 87.117188 L 64.710938 87.15625 L 64.355469 87.183594 L 63.640625 87.234375 C 63.164062 87.269531 62.683594 87.320312 62.207031 87.34375 L 60.777344 87.402344 C 60.539062 87.410156 60.296875 87.429688 60.058594 87.425781 C 59.820312 87.425781 59.582031 87.429688 59.34375 87.433594 C 58.867188 87.4375 58.386719 87.453125 57.910156 87.445312 C 56.957031 87.417969 56.003906 87.402344 55.050781 87.335938 C 54.097656 87.300781 53.152344 87.1875 52.203125 87.097656 L 50.78125 86.917969 C 50.308594 86.859375 49.839844 86.765625 49.367188 86.691406 C 48.894531 86.625 48.429688 86.523438 47.957031 86.433594 C 47.726562 86.386719 47.488281 86.34375 47.257812 86.292969 L 46.558594 86.125 L 45.859375 85.964844 L 45.164062 85.78125 L 44.46875 85.59375 L 43.78125 85.382812 L 43.089844 85.175781 L 42.410156 84.945312 C 41.949219 84.796875 41.503906 84.621094 41.050781 84.453125 C 40.148438 84.113281 39.257812 83.734375 38.378906 83.320312 C 37.496094 82.914062 36.636719 82.453125 35.789062 81.964844 C 35.574219 81.847656 35.371094 81.714844 35.15625 81.589844 C 34.945312 81.464844 34.742188 81.328125 34.535156 81.195312 C 34.125 80.925781 33.71875 80.640625 33.328125 80.335938 C 33.617188 80.742188 33.949219 81.117188 34.289062 81.484375 C 34.632812 81.851562 34.984375 82.210938 35.359375 82.546875 C 35.726562 82.890625 36.109375 83.21875 36.503906 83.535156 L 37.097656 84.007812 C 37.296875 84.160156 37.503906 84.304688 37.707031 84.453125 C 37.910156 84.605469 38.121094 84.75 38.332031 84.890625 C 38.539062 85.03125 38.75 85.175781 38.960938 85.3125 L 39.609375 85.710938 L 39.933594 85.914062 L 40.265625 86.101562 L 40.925781 86.476562 C 41.148438 86.601562 41.378906 86.710938 41.601562 86.828125 L 42.28125 87.175781 L 42.976562 87.496094 L 43.671875 87.8125 L 45.085938 88.390625 L 45.804688 88.652344 L 46.527344 88.90625 C 46.769531 88.988281 47.015625 89.058594 47.257812 89.136719 C 47.746094 89.285156 48.230469 89.449219 48.726562 89.574219 C 49.21875 89.695312 49.710938 89.839844 50.210938 89.949219 L 51.710938 90.273438 C 52.210938 90.371094 52.714844 90.445312 53.21875 90.53125 C 53.722656 90.621094 54.226562 90.679688 54.734375 90.742188 C 55.746094 90.890625 56.765625 90.949219 57.785156 91.027344 C 58.292969 91.0625 58.800781 91.070312 59.3125 91.089844 C 59.820312 91.113281 60.332031 91.125 60.839844 91.113281 L 62.367188 91.09375 C 62.878906 91.082031 63.382812 91.046875 63.890625 91.023438 L 64.652344 90.976562 L 65.035156 90.953125 L 65.414062 90.917969 L 66.929688 90.765625 C 67.941406 90.679688 68.941406 90.503906 69.945312 90.363281 C 70.195312 90.328125 70.445312 90.28125 70.695312 90.234375 L 71.441406 90.097656 L 72.933594 89.820312 L 75.882812 89.132812 C 76.859375 88.875 77.828125 88.601562 78.800781 88.328125 L 77.332031 85.105469 C 77.261719 85.15625 77.140625 85.230469 77.042969 85.296875 C 76.941406 85.367188 76.824219 85.433594 76.714844 85.503906 C 76.5 85.640625 76.265625 85.773438 76.039062 85.90625 C 75.8125 86.039062 75.578125 86.167969 75.34375 86.300781 C 75.113281 86.429688 74.882812 86.5625 74.640625 86.6875 L 73.925781 87.058594 C 73.6875 87.183594 73.441406 87.296875 73.199219 87.417969 L 72.46875 87.773438 L 71.730469 88.109375 L 70.988281 88.449219 L 70.234375 88.761719 L 69.480469 89.082031 C 69.230469 89.1875 68.972656 89.28125 68.71875 89.382812 L 67.957031 89.679688 C 67.703125 89.78125 67.445312 89.878906 67.1875 89.964844 L 65.636719 90.519531 C 65.117188 90.695312 64.589844 90.851562 64.070312 91.027344 L 63.28125 91.28125 L 62.488281 91.507812 L 60.894531 91.972656 C 60.359375 92.105469 59.820312 92.238281 59.285156 92.382812 L 58.476562 92.59375 C 58.207031 92.660156 57.9375 92.710938 57.667969 92.777344 C 57.125 92.898438 56.582031 93.019531 56.039062 93.148438 L 55.628906 93.242188 L 55.214844 93.320312 L 54.386719 93.488281 C 53.832031 93.601562 53.28125 93.707031 52.730469 93.832031 " fill-opacity="1" fill-rule="nonzero"/><path fill="#007489" d="M 33.328125 80.335938 C 33.964844 80.457031 34.601562 80.5625 35.238281 80.675781 C 35.558594 80.730469 35.875 80.789062 36.195312 80.835938 L 36.671875 80.914062 L 37.15625 80.972656 L 39.097656 81.195312 C 39.421875 81.226562 39.746094 81.273438 40.070312 81.292969 L 41.042969 81.359375 L 42.992188 81.480469 C 43.640625 81.503906 44.292969 81.507812 44.945312 81.523438 C 45.273438 81.53125 45.597656 81.539062 45.925781 81.539062 L 46.902344 81.523438 C 47.554688 81.507812 48.210938 81.503906 48.863281 81.472656 L 50.820312 81.359375 C 51.148438 81.34375 51.476562 81.308594 51.800781 81.28125 L 52.777344 81.191406 C 53.433594 81.132812 54.082031 81.046875 54.734375 80.964844 L 55.710938 80.835938 L 56.683594 80.683594 L 57.65625 80.523438 L 58.628906 80.339844 C 59.277344 80.222656 59.921875 80.082031 60.566406 79.9375 C 60.890625 79.867188 61.210938 79.78125 61.535156 79.703125 C 61.855469 79.625 62.179688 79.542969 62.5 79.453125 C 62.824219 79.367188 63.144531 79.28125 63.46875 79.179688 C 63.632812 79.132812 63.792969 79.089844 63.960938 79.035156 C 64.128906 78.980469 64.28125 78.933594 64.476562 78.863281 L 77.476562 74.265625 L 63.640625 75.304688 L 60.699219 75.523438 L 57.757812 75.675781 C 56.777344 75.714844 55.796875 75.71875 54.816406 75.75 C 53.839844 75.753906 52.863281 75.753906 51.882812 75.746094 L 50.421875 75.695312 C 49.933594 75.679688 49.445312 75.679688 48.957031 75.640625 C 47.984375 75.578125 47.007812 75.535156 46.042969 75.433594 C 45.558594 75.390625 45.070312 75.351562 44.585938 75.304688 L 43.140625 75.125 C 42.898438 75.09375 42.65625 75.066406 42.417969 75.03125 L 41.695312 74.921875 C 41.21875 74.84375 40.734375 74.78125 40.257812 74.695312 C 39.304688 74.511719 38.347656 74.34375 37.402344 74.121094 L 36.691406 73.964844 L 35.984375 73.78125 L 35.28125 73.597656 L 34.929688 73.511719 L 34.578125 73.40625 C 34.113281 73.269531 33.644531 73.140625 33.183594 72.992188 C 32.722656 72.839844 32.265625 72.683594 31.800781 72.535156 L 30.433594 72.027344 L 29.082031 71.476562 L 27.75 70.875 C 27.320312 70.652344 26.871094 70.453125 26.441406 70.222656 C 26.011719 69.988281 25.578125 69.761719 25.15625 69.511719 C 24.949219 69.386719 24.730469 69.269531 24.523438 69.140625 L 23.902344 68.75 C 23.074219 68.21875 22.269531 67.648438 21.496094 67.027344 C 20.722656 66.410156 19.972656 65.75 19.304688 64.992188 C 19.527344 65.449219 19.800781 65.878906 20.085938 66.296875 C 20.375 66.71875 20.679688 67.128906 21.007812 67.523438 C 21.65625 68.3125 22.371094 69.046875 23.121094 69.75 C 23.878906 70.445312 24.675781 71.097656 25.507812 71.707031 C 25.710938 71.867188 25.925781 72.011719 26.136719 72.160156 L 26.773438 72.597656 C 27.210938 72.875 27.644531 73.148438 28.085938 73.421875 C 28.535156 73.675781 28.980469 73.9375 29.4375 74.183594 L 30.816406 74.886719 C 31.285156 75.105469 31.753906 75.320312 32.226562 75.53125 C 32.703125 75.738281 33.183594 75.925781 33.660156 76.121094 C 34.136719 76.324219 34.628906 76.480469 35.113281 76.65625 L 35.847656 76.914062 L 36.585938 77.140625 L 37.328125 77.371094 C 37.574219 77.449219 37.820312 77.523438 38.070312 77.585938 L 39.570312 77.972656 C 40.070312 78.09375 40.578125 78.195312 41.082031 78.308594 L 41.835938 78.472656 C 42.089844 78.523438 42.34375 78.5625 42.597656 78.605469 L 44.121094 78.867188 C 44.628906 78.941406 45.140625 79.003906 45.648438 79.074219 C 46.667969 79.222656 47.691406 79.289062 48.714844 79.386719 C 49.742188 79.476562 50.765625 79.507812 51.789062 79.558594 C 52.8125 79.574219 53.835938 79.585938 54.863281 79.589844 C 55.882812 79.558594 56.90625 79.535156 57.925781 79.492188 C 58.945312 79.421875 59.964844 79.371094 60.980469 79.28125 L 64.023438 78.972656 L 63.183594 75.410156 L 62.789062 75.554688 C 62.652344 75.605469 62.503906 75.65625 62.363281 75.707031 C 62.074219 75.808594 61.78125 75.898438 61.484375 75.996094 C 61.191406 76.09375 60.894531 76.179688 60.59375 76.269531 C 60.296875 76.355469 60 76.449219 59.699219 76.527344 C 59.09375 76.691406 58.496094 76.867188 57.882812 77.019531 L 56.972656 77.25 L 56.054688 77.464844 L 55.132812 77.679688 L 54.207031 77.875 C 53.59375 78.003906 52.976562 78.140625 52.351562 78.246094 C 51.730469 78.355469 51.113281 78.492188 50.488281 78.589844 L 48.609375 78.898438 C 47.984375 79 47.355469 79.078125 46.726562 79.167969 L 45.78125 79.300781 C 45.464844 79.34375 45.152344 79.375 44.835938 79.414062 C 44.203125 79.488281 43.570312 79.554688 42.933594 79.636719 L 41.027344 79.8125 L 40.070312 79.90625 C 39.753906 79.941406 39.4375 79.949219 39.117188 79.972656 L 37.199219 80.109375 L 36.71875 80.148438 L 36.234375 80.171875 C 35.910156 80.183594 35.589844 80.203125 35.265625 80.21875 C 34.617188 80.257812 33.972656 80.285156 33.328125 80.335938 " fill-opacity="1" fill-rule="nonzero"/><path fill="#007489" d="M 19.304688 64.992188 C 19.667969 65.171875 20.03125 65.355469 20.394531 65.527344 C 20.761719 65.703125 21.144531 65.84375 21.523438 66.003906 C 21.898438 66.171875 22.285156 66.296875 22.671875 66.433594 L 23.253906 66.632812 C 23.445312 66.695312 23.644531 66.75 23.839844 66.808594 L 24.429688 66.980469 C 24.625 67.039062 24.824219 67.09375 25.023438 67.140625 L 26.214844 67.4375 C 27.019531 67.597656 27.820312 67.773438 28.632812 67.898438 C 29.441406 68.039062 30.253906 68.132812 31.066406 68.242188 C 31.882812 68.328125 32.699219 68.410156 33.515625 68.464844 C 34.332031 68.535156 35.152344 68.566406 35.96875 68.597656 C 36.789062 68.621094 37.605469 68.644531 38.425781 68.644531 C 38.835938 68.648438 39.246094 68.644531 39.652344 68.636719 C 40.0625 68.628906 40.472656 68.625 40.878906 68.609375 L 42.105469 68.570312 L 43.332031 68.511719 C 44.148438 68.460938 44.964844 68.410156 45.777344 68.34375 C 46.59375 68.28125 47.40625 68.207031 48.21875 68.121094 C 49.03125 68.03125 49.84375 67.9375 50.65625 67.835938 C 51.464844 67.734375 52.277344 67.625 53.085938 67.5 C 53.894531 67.375 54.699219 67.242188 55.507812 67.101562 L 56.71875 66.882812 C 57.128906 66.808594 57.519531 66.730469 57.949219 66.636719 L 74.445312 63.046875 L 57.484375 62.992188 L 55.660156 62.984375 L 54.75 62.980469 C 54.445312 62.980469 54.140625 62.984375 53.839844 62.96875 C 53.234375 62.941406 52.628906 62.917969 52.023438 62.898438 L 51.113281 62.871094 C 50.808594 62.855469 50.507812 62.828125 50.207031 62.808594 L 48.394531 62.679688 C 48.246094 62.667969 48.09375 62.660156 47.941406 62.644531 L 47.492188 62.59375 L 46.589844 62.5 L 45.691406 62.40625 C 45.390625 62.375 45.085938 62.351562 44.789062 62.300781 L 42.996094 62.046875 C 42.398438 61.972656 41.808594 61.847656 41.214844 61.746094 L 40.324219 61.585938 C 40.027344 61.535156 39.726562 61.488281 39.4375 61.417969 L 37.671875 61.03125 L 37.230469 60.933594 L 36.792969 60.820312 L 35.921875 60.59375 C 35.335938 60.445312 34.75 60.304688 34.179688 60.121094 C 33.605469 59.945312 33.027344 59.78125 32.453125 59.597656 C 31.886719 59.398438 31.316406 59.207031 30.746094 59.015625 C 30.460938 58.921875 30.179688 58.8125 29.898438 58.707031 L 29.058594 58.382812 C 28.777344 58.269531 28.492188 58.171875 28.21875 58.050781 L 27.390625 57.695312 L 26.558594 57.34375 C 26.28125 57.222656 26.015625 57.089844 25.742188 56.960938 C 24.644531 56.460938 23.582031 55.898438 22.519531 55.328125 L 21.734375 54.882812 C 21.472656 54.730469 21.207031 54.589844 20.953125 54.425781 L 20.183594 53.949219 C 19.929688 53.789062 19.664062 53.640625 19.417969 53.46875 L 18.660156 52.964844 C 18.410156 52.800781 18.15625 52.632812 17.914062 52.453125 L 17.175781 51.921875 L 16.804688 51.660156 L 16.445312 51.382812 C 15.964844 51.015625 15.476562 50.652344 15.015625 50.257812 L 14.3125 49.679688 L 13.621094 49.078125 L 13.277344 48.777344 L 12.945312 48.46875 L 12.273438 47.84375 L 11.289062 46.882812 L 10.972656 46.550781 C 10.117188 45.675781 9.300781 44.757812 8.523438 43.800781 C 8.132812 43.324219 7.75 42.839844 7.378906 42.34375 C 7.015625 41.84375 6.65625 41.335938 6.316406 40.816406 C 6.535156 41.398438 6.800781 41.964844 7.070312 42.53125 C 7.351562 43.089844 7.636719 43.648438 7.953125 44.191406 C 8.574219 45.285156 9.261719 46.34375 10.007812 47.363281 L 10.285156 47.746094 L 11.152344 48.871094 L 11.761719 49.597656 L 12.066406 49.964844 L 12.386719 50.316406 L 13.019531 51.023438 C 13.234375 51.257812 13.457031 51.484375 13.679688 51.710938 C 14.117188 52.171875 14.578125 52.605469 15.039062 53.042969 C 15.960938 53.921875 16.9375 54.738281 17.933594 55.535156 C 18.429688 55.9375 18.953125 56.300781 19.464844 56.683594 C 19.71875 56.878906 19.984375 57.050781 20.25 57.230469 L 21.042969 57.769531 C 22.109375 58.46875 23.203125 59.132812 24.328125 59.742188 C 24.605469 59.894531 24.882812 60.058594 25.167969 60.203125 L 26.023438 60.632812 L 26.882812 61.058594 C 27.167969 61.203125 27.464844 61.324219 27.753906 61.457031 L 28.632812 61.847656 C 28.921875 61.976562 29.214844 62.109375 29.515625 62.222656 C 30.109375 62.460938 30.703125 62.695312 31.300781 62.921875 C 31.902344 63.140625 32.507812 63.339844 33.113281 63.546875 C 33.714844 63.761719 34.328125 63.9375 34.941406 64.117188 L 35.863281 64.386719 L 36.324219 64.515625 L 36.785156 64.628906 L 38.648438 65.082031 C 38.957031 65.164062 39.269531 65.21875 39.582031 65.285156 L 40.519531 65.472656 C 41.144531 65.597656 41.769531 65.722656 42.402344 65.808594 L 44.289062 66.09375 C 44.605469 66.144531 44.921875 66.175781 45.238281 66.210938 L 46.183594 66.316406 L 47.132812 66.417969 L 47.605469 66.464844 C 47.765625 66.480469 47.925781 66.488281 48.082031 66.5 L 49.984375 66.621094 C 50.300781 66.640625 50.617188 66.664062 50.933594 66.679688 L 51.882812 66.703125 C 52.519531 66.71875 53.152344 66.730469 53.785156 66.742188 C 54.101562 66.753906 54.417969 66.746094 54.734375 66.738281 L 55.683594 66.71875 L 57.582031 66.683594 L 57.117188 63.039062 L 55.980469 63.300781 L 54.820312 63.554688 C 54.046875 63.714844 53.269531 63.875 52.488281 64.023438 L 50.140625 64.460938 C 49.359375 64.597656 48.574219 64.730469 47.789062 64.855469 C 47 64.976562 46.214844 65.105469 45.429688 65.21875 C 44.640625 65.335938 43.851562 65.4375 43.0625 65.535156 L 41.878906 65.683594 L 40.695312 65.816406 C 40.296875 65.863281 39.902344 65.898438 39.507812 65.9375 C 39.109375 65.976562 38.714844 66.011719 38.316406 66.042969 C 37.527344 66.117188 36.734375 66.171875 35.9375 66.226562 L 34.75 66.289062 C 34.351562 66.3125 33.953125 66.328125 33.554688 66.339844 C 33.160156 66.351562 32.761719 66.375 32.363281 66.375 L 31.171875 66.386719 C 30.378906 66.382812 29.582031 66.386719 28.785156 66.347656 C 27.988281 66.332031 27.199219 66.269531 26.402344 66.21875 L 25.210938 66.109375 C 24.8125 66.074219 24.421875 66.007812 24.023438 65.960938 C 23.824219 65.933594 23.625 65.914062 23.429688 65.882812 L 22.839844 65.78125 C 22.445312 65.710938 22.042969 65.660156 21.65625 65.566406 C 21.269531 65.480469 20.871094 65.410156 20.480469 65.304688 C 20.089844 65.195312 19.699219 65.097656 19.304688 64.992188 " fill-opacity="1" fill-rule="nonzero"/><g clip-path="url(#dc4a500298)"><path fill="#007489" d="M 6.011719 40.183594 C 6.859375 40.726562 7.707031 41.265625 8.570312 41.785156 L 9.875 42.546875 L 10.53125 42.929688 L 11.199219 43.289062 L 12.535156 44.003906 C 12.976562 44.242188 13.433594 44.457031 13.886719 44.6875 C 14.339844 44.910156 14.792969 45.140625 15.25 45.351562 L 16.632812 45.984375 C 16.863281 46.085938 17.089844 46.195312 17.324219 46.296875 L 18.027344 46.589844 L 19.429688 47.175781 L 20.847656 47.726562 L 21.5625 48 L 22.277344 48.25 L 23.71875 48.757812 L 25.171875 49.222656 C 25.65625 49.382812 26.144531 49.519531 26.632812 49.660156 C 27.125 49.800781 27.609375 49.953125 28.105469 50.078125 L 29.582031 50.464844 L 31.074219 50.8125 C 31.570312 50.933594 32.070312 51.03125 32.570312 51.136719 L 33.320312 51.289062 L 34.074219 51.429688 C 35.078125 51.621094 36.089844 51.773438 37.105469 51.921875 L 38.628906 52.121094 L 40.15625 52.289062 L 41.691406 52.417969 C 42.203125 52.449219 42.714844 52.488281 43.230469 52.511719 C 44.253906 52.558594 45.285156 52.597656 46.316406 52.597656 C 47.347656 52.597656 48.382812 52.570312 49.421875 52.511719 C 49.941406 52.480469 50.460938 52.441406 50.984375 52.394531 C 51.246094 52.371094 51.507812 52.347656 51.773438 52.3125 L 52.175781 52.265625 L 52.382812 52.238281 L 52.609375 52.203125 L 63.964844 50.476562 L 52.539062 48.597656 L 50.160156 48.203125 L 47.796875 47.757812 L 45.445312 47.25 C 44.667969 47.054688 43.882812 46.886719 43.109375 46.683594 C 41.5625 46.285156 40.019531 45.855469 38.503906 45.359375 L 37.367188 44.992188 L 36.238281 44.597656 C 35.480469 44.34375 34.742188 44.046875 34 43.765625 C 33.625 43.628906 33.261719 43.46875 32.894531 43.316406 C 32.527344 43.164062 32.15625 43.015625 31.792969 42.855469 C 31.074219 42.519531 30.335938 42.21875 29.628906 41.863281 L 28.554688 41.347656 L 27.5 40.796875 C 27.148438 40.617188 26.800781 40.425781 26.457031 40.230469 C 26.113281 40.035156 25.761719 39.847656 25.421875 39.644531 C 24.050781 38.851562 22.71875 38 21.417969 37.09375 C 20.128906 36.179688 18.875 35.214844 17.664062 34.195312 C 16.453125 33.175781 15.304688 32.082031 14.195312 30.953125 C 13.085938 29.820312 12.039062 28.625 11.046875 27.386719 C 10.050781 26.148438 9.125 24.851562 8.257812 23.515625 C 7.382812 22.183594 6.585938 20.796875 5.84375 19.378906 C 5.097656 17.960938 4.429688 16.496094 3.816406 15.007812 C 3.515625 14.261719 3.226562 13.507812 2.957031 12.746094 C 2.683594 11.988281 2.429688 11.222656 2.195312 10.445312 C 1.722656 8.898438 1.320312 7.324219 0.988281 5.730469 C 0.660156 4.136719 0.390625 2.523438 0.261719 0.886719 C 0.183594 1.703125 0.171875 2.53125 0.183594 3.355469 C 0.191406 4.179688 0.222656 5.003906 0.289062 5.828125 C 0.414062 7.476562 0.640625 9.121094 0.949219 10.753906 C 1.253906 12.386719 1.65625 14.003906 2.136719 15.601562 C 2.613281 17.203125 3.191406 18.773438 3.839844 20.316406 C 4.488281 21.863281 5.230469 23.371094 6.042969 24.84375 C 6.859375 26.316406 7.757812 27.742188 8.726562 29.125 C 9.699219 30.507812 10.757812 31.828125 11.875 33.097656 C 12.992188 34.367188 14.179688 35.582031 15.425781 36.722656 C 16.675781 37.867188 17.976562 38.953125 19.332031 39.96875 C 20.695312 40.96875 22.09375 41.929688 23.535156 42.8125 C 23.894531 43.035156 24.265625 43.238281 24.628906 43.453125 C 24.992188 43.667969 25.359375 43.882812 25.730469 44.078125 L 26.84375 44.679688 L 27.976562 45.25 C 28.726562 45.640625 29.496094 45.980469 30.261719 46.335938 C 30.644531 46.507812 31.035156 46.667969 31.421875 46.832031 C 31.8125 46.996094 32.195312 47.167969 32.589844 47.316406 C 33.375 47.617188 34.15625 47.933594 34.953125 48.207031 L 36.140625 48.628906 L 37.339844 49.015625 C 38.9375 49.527344 40.558594 49.96875 42.179688 50.378906 C 42.585938 50.488281 42.996094 50.574219 43.402344 50.671875 L 44.625 50.949219 L 47.085938 51.4375 L 49.554688 51.859375 L 52.03125 52.214844 L 51.960938 48.605469 L 51.652344 48.660156 L 51.308594 48.714844 C 51.078125 48.746094 50.839844 48.777344 50.605469 48.804688 C 50.128906 48.863281 49.648438 48.910156 49.167969 48.953125 C 48.207031 49.039062 47.234375 49.085938 46.261719 49.117188 C 45.289062 49.160156 44.308594 49.160156 43.332031 49.15625 C 42.84375 49.152344 42.351562 49.132812 41.863281 49.125 L 40.394531 49.0625 L 38.925781 48.976562 L 37.457031 48.859375 C 36.476562 48.769531 35.5 48.667969 34.523438 48.542969 L 33.789062 48.453125 L 33.058594 48.347656 C 32.570312 48.277344 32.082031 48.214844 31.59375 48.125 L 30.136719 47.878906 L 28.679688 47.605469 C 28.191406 47.523438 27.710938 47.410156 27.226562 47.308594 C 26.742188 47.207031 26.257812 47.109375 25.777344 46.988281 L 24.332031 46.648438 L 22.894531 46.273438 L 22.171875 46.089844 L 21.457031 45.882812 L 20.023438 45.476562 L 18.601562 45.03125 L 17.886719 44.808594 L 17.179688 44.574219 L 15.761719 44.097656 C 15.289062 43.9375 14.828125 43.757812 14.355469 43.589844 C 13.890625 43.417969 13.414062 43.257812 12.949219 43.074219 L 11.554688 42.527344 L 10.855469 42.257812 L 10.164062 41.964844 L 8.773438 41.394531 C 7.847656 41.003906 6.9375 40.574219 6.011719 40.183594 " fill-opacity="1" fill-rule="nonzero"/></g><g clip-path="url(#feef1e196b)"><path fill="#007489" d="M 0.261719 0.886719 C 0.261719 0.886719 0.328125 1.042969 0.460938 1.347656 C 0.597656 1.652344 0.789062 2.109375 1.058594 2.695312 C 1.199219 2.988281 1.359375 3.3125 1.535156 3.667969 C 1.707031 4.027344 1.898438 4.421875 2.125 4.832031 C 2.347656 5.242188 2.578125 5.695312 2.847656 6.164062 C 3.125 6.628906 3.417969 7.125 3.726562 7.644531 C 5.003906 9.714844 6.738281 12.128906 9.03125 14.671875 C 10.183594 15.933594 11.484375 17.214844 12.921875 18.496094 C 13.285156 18.808594 13.65625 19.125 14.03125 19.449219 C 14.417969 19.757812 14.808594 20.070312 15.199219 20.386719 C 16 21.007812 16.832031 21.628906 17.699219 22.234375 C 19.4375 23.445312 21.324219 24.597656 23.328125 25.691406 C 25.332031 26.78125 27.472656 27.785156 29.707031 28.71875 C 34.183594 30.582031 39.070312 32.082031 44.179688 33.269531 C 46.734375 33.871094 49.347656 34.375 51.992188 34.832031 C 53.316406 35.058594 54.648438 35.273438 55.984375 35.476562 C 57.324219 35.675781 58.667969 35.855469 60.019531 36.03125 C 62.71875 36.378906 65.429688 36.71875 68.140625 37.015625 C 70.851562 37.324219 73.554688 37.636719 76.214844 38.015625 C 78.871094 38.382812 81.5 38.808594 83.933594 39.457031 C 84.242188 39.535156 84.539062 39.625 84.835938 39.710938 L 85.058594 39.777344 C 85.054688 39.777344 85.140625 39.804688 85.066406 39.777344 L 85.128906 39.796875 L 85.25 39.839844 L 86.703125 40.320312 C 86.863281 40.371094 87.03125 40.421875 87.183594 40.476562 L 87.628906 40.640625 L 88.511719 40.964844 L 88.957031 41.128906 L 89.402344 41.3125 L 90.289062 41.675781 L 90.734375 41.859375 L 91.167969 42.058594 C 92.332031 42.578125 93.472656 43.136719 94.566406 43.746094 C 94.839844 43.898438 95.117188 44.050781 95.390625 44.203125 C 95.667969 44.347656 95.925781 44.523438 96.191406 44.683594 C 96.457031 44.84375 96.722656 45.007812 96.988281 45.167969 C 97.246094 45.339844 97.5 45.511719 97.757812 45.683594 C 99.800781 47.066406 101.679688 48.625 103.328125 50.34375 C 104.976562 52.0625 106.414062 53.925781 107.609375 55.898438 C 108.808594 57.867188 109.78125 59.925781 110.53125 62.019531 C 111.289062 64.109375 111.851562 66.226562 112.238281 68.316406 C 112.632812 70.402344 112.859375 72.464844 112.984375 74.453125 C 113.113281 76.449219 113.109375 78.371094 113.050781 80.207031 C 112.992188 82.042969 112.84375 83.785156 112.671875 85.425781 C 112.316406 88.703125 111.800781 91.550781 111.304688 93.886719 C 110.796875 96.21875 110.332031 98.046875 109.972656 99.28125 C 109.792969 99.898438 109.652344 100.371094 109.554688 100.6875 C 109.453125 101.007812 109.402344 101.171875 109.402344 101.171875 C 109.402344 101.171875 109.480469 101.019531 109.632812 100.722656 C 109.785156 100.425781 110.007812 99.980469 110.277344 99.394531 C 110.8125 98.21875 111.585938 96.480469 112.398438 94.199219 C 113.21875 91.921875 114.097656 89.101562 114.835938 85.785156 C 115.566406 82.464844 116.15625 78.644531 116.273438 74.402344 C 116.324219 72.28125 116.242188 70.058594 115.996094 67.757812 C 115.941406 67.183594 115.851562 66.605469 115.769531 66.019531 C 115.667969 65.441406 115.582031 64.851562 115.460938 64.261719 C 115.335938 63.675781 115.222656 63.078125 115.066406 62.484375 C 114.992188 62.191406 114.925781 61.890625 114.84375 61.59375 C 114.761719 61.292969 114.675781 60.996094 114.59375 60.695312 L 114.464844 60.246094 L 114.320312 59.800781 C 114.222656 59.5 114.121094 59.203125 114.023438 58.902344 C 113.914062 58.605469 113.804688 58.304688 113.691406 58.007812 C 113.582031 57.707031 113.472656 57.40625 113.34375 57.113281 C 113.21875 56.816406 113.09375 56.519531 112.96875 56.21875 C 112.84375 55.917969 112.695312 55.628906 112.5625 55.332031 C 112.417969 55.039062 112.289062 54.738281 112.132812 54.449219 C 111.980469 54.15625 111.828125 53.863281 111.675781 53.570312 C 111.527344 53.277344 111.359375 52.992188 111.191406 52.703125 C 111.023438 52.414062 110.855469 52.125 110.683594 51.835938 C 110.503906 51.554688 110.320312 51.273438 110.136719 50.992188 L 109.859375 50.570312 C 109.765625 50.425781 109.664062 50.292969 109.566406 50.152344 C 109.371094 49.878906 109.171875 49.601562 108.972656 49.324219 C 108.773438 49.050781 108.554688 48.789062 108.347656 48.515625 C 108.132812 48.25 107.929688 47.972656 107.703125 47.714844 C 107.476562 47.457031 107.253906 47.195312 107.027344 46.933594 C 105.210938 44.851562 103.085938 42.996094 100.800781 41.339844 C 100.515625 41.136719 100.226562 40.929688 99.9375 40.722656 C 99.644531 40.53125 99.347656 40.335938 99.050781 40.140625 C 98.753906 39.953125 98.460938 39.746094 98.15625 39.570312 C 97.851562 39.386719 97.546875 39.207031 97.242188 39.023438 C 96.011719 38.308594 94.746094 37.660156 93.457031 37.054688 L 92.976562 36.824219 L 92.484375 36.613281 L 91.503906 36.1875 L 91.011719 35.976562 L 90.503906 35.777344 L 89.484375 35.382812 L 88.972656 35.1875 C 88.804688 35.121094 88.648438 35.074219 88.488281 35.015625 L 87.523438 34.683594 L 87.039062 34.519531 L 86.917969 34.476562 L 86.742188 34.421875 L 86.476562 34.339844 C 86.117188 34.230469 85.761719 34.121094 85.40625 34.03125 C 83.988281 33.640625 82.578125 33.339844 81.175781 33.078125 C 79.777344 32.816406 78.382812 32.59375 77 32.398438 C 71.453125 31.65625 66.003906 31.171875 60.679688 30.578125 C 59.351562 30.429688 58.027344 30.273438 56.714844 30.109375 C 55.402344 29.957031 54.101562 29.785156 52.808594 29.605469 C 50.226562 29.238281 47.695312 28.824219 45.214844 28.363281 C 40.269531 27.414062 35.550781 26.246094 31.21875 24.746094 C 26.878906 23.257812 22.917969 21.46875 19.457031 19.472656 C 17.71875 18.480469 16.109375 17.433594 14.628906 16.363281 C 13.144531 15.292969 11.800781 14.191406 10.5625 13.121094 C 8.113281 10.941406 6.160156 8.824219 4.648438 6.988281 C 3.144531 5.144531 2.066406 3.601562 1.339844 2.542969 C 0.636719 1.460938 0.261719 0.886719 0.261719 0.886719 " fill-opacity="1" fill-rule="nonzero"/></g></g></g></g><path fill="#007489" d="M 730.578125 339.710938 L 730.578125 336.777344 C 730.578125 333.199219 727.675781 330.296875 724.101562 330.296875 C 720.523438 330.296875 717.621094 333.199219 717.621094 336.777344 L 717.621094 339.710938 C 717.621094 343.289062 720.523438 346.1875 724.101562 346.1875 C 727.675781 346.1875 730.578125 343.289062 730.578125 339.710938 Z M 730.578125 339.710938 " fill-opacity="1" fill-rule="nonzero"/><g clip-path="url(#6f3e07e165)"><path fill="#007489" d="M 735.019531 343.292969 C 733.585938 347.992188 729.257812 351.441406 724.101562 351.441406 C 718.9375 351.441406 714.613281 347.992188 713.179688 343.292969 L 668.5625 343.292969 C 665.746094 343.292969 663.085938 342.640625 660.695312 341.503906 L 660.695312 371.128906 C 660.695312 376.914062 665.429688 381.644531 671.214844 381.644531 L 776.980469 381.644531 C 782.765625 381.644531 787.5 376.914062 787.5 371.128906 L 787.5 341.507812 C 785.109375 342.640625 782.449219 343.296875 779.632812 343.296875 L 735.019531 343.296875 Z M 735.019531 343.292969 " fill-opacity="1" fill-rule="nonzero"/></g><g clip-path="url(#e426c617fa)"><path fill="#007489" d="M 779.195312 290.097656 L 753.953125 290.097656 C 752.425781 280.5625 744.167969 273.25 734.210938 273.25 L 713.984375 273.25 C 704.027344 273.25 695.769531 280.5625 694.242188 290.097656 L 669 290.097656 C 662.972656 290.097656 658.042969 294.832031 658.042969 300.613281 L 658.042969 324.890625 C 658.042969 330.699219 662.753906 335.410156 668.5625 335.410156 L 712.679688 335.410156 C 712.832031 332.382812 714.128906 329.664062 716.183594 327.695312 C 716.246094 327.636719 716.320312 327.589844 716.386719 327.53125 C 716.839844 327.113281 717.3125 326.71875 717.832031 326.375 C 718.015625 326.253906 718.226562 326.167969 718.417969 326.058594 C 718.84375 325.8125 719.265625 325.558594 719.726562 325.371094 C 720.085938 325.21875 720.476562 325.132812 720.851562 325.019531 C 721.179688 324.921875 721.488281 324.792969 721.828125 324.726562 C 722.5625 324.574219 723.324219 324.496094 724.097656 324.496094 C 724.875 324.496094 725.632812 324.578125 726.367188 324.726562 C 726.703125 324.792969 727.015625 324.921875 727.339844 325.019531 C 727.71875 325.132812 728.109375 325.21875 728.46875 325.371094 C 728.925781 325.5625 729.34375 325.8125 729.769531 326.058594 C 729.964844 326.171875 730.175781 326.257812 730.359375 326.378906 C 730.878906 326.71875 731.351562 327.113281 731.804688 327.53125 C 731.871094 327.589844 731.945312 327.640625 732.007812 327.703125 C 734.066406 329.667969 735.363281 332.386719 735.511719 335.414062 L 779.632812 335.414062 C 785.441406 335.414062 790.148438 330.703125 790.148438 324.898438 L 790.148438 300.621094 C 790.152344 294.832031 785.222656 290.097656 779.195312 290.097656 Z M 704.367188 290.097656 C 705.707031 286.046875 709.488281 283.09375 713.984375 283.09375 L 734.210938 283.09375 C 738.707031 283.09375 742.484375 286.046875 743.824219 290.097656 Z M 704.367188 290.097656 " fill-opacity="1" fill-rule="nonzero"/></g><path fill="#007489" d="M 799.195312 336.046875 C 799.195312 336.046875 799.324219 335.859375 799.566406 335.511719 C 799.628906 335.425781 799.695312 335.328125 799.769531 335.222656 C 799.855469 335.121094 799.945312 335.011719 800.046875 334.894531 C 800.148438 334.773438 800.257812 334.644531 800.371094 334.507812 C 800.484375 334.363281 800.625 334.238281 800.765625 334.09375 C 800.910156 333.949219 801.058594 333.796875 801.21875 333.640625 C 801.378906 333.484375 801.5625 333.339844 801.75 333.179688 C 801.9375 333.027344 802.125 332.847656 802.34375 332.695312 C 802.558594 332.542969 802.785156 332.382812 803.019531 332.21875 C 803.136719 332.140625 803.253906 332.046875 803.378906 331.976562 C 803.507812 331.902344 803.636719 331.828125 803.769531 331.75 C 804.03125 331.601562 804.304688 331.4375 804.589844 331.285156 C 804.878906 331.148438 805.179688 331.011719 805.488281 330.871094 C 805.644531 330.800781 805.800781 330.722656 805.960938 330.660156 C 806.125 330.601562 806.289062 330.542969 806.457031 330.480469 C 806.789062 330.359375 807.132812 330.238281 807.484375 330.125 C 807.84375 330.03125 808.207031 329.9375 808.578125 329.839844 C 808.765625 329.792969 808.949219 329.738281 809.140625 329.699219 C 809.332031 329.664062 809.527344 329.632812 809.722656 329.601562 C 810.113281 329.535156 810.507812 329.472656 810.910156 329.40625 C 812.523438 329.246094 814.25 329.160156 816 329.316406 C 816.4375 329.351562 816.878906 329.382812 817.324219 329.421875 C 817.765625 329.492188 818.207031 329.558594 818.652344 329.625 C 818.875 329.660156 819.097656 329.695312 819.320312 329.730469 C 819.546875 329.765625 819.773438 329.792969 819.992188 329.847656 C 820.433594 329.945312 820.878906 330.046875 821.324219 330.148438 C 821.546875 330.199219 821.769531 330.25 821.992188 330.304688 C 822.21875 330.351562 822.441406 330.402344 822.660156 330.472656 C 823.101562 330.597656 823.539062 330.726562 823.980469 330.859375 C 824.410156 330.988281 824.839844 331.117188 825.269531 331.246094 L 826.542969 331.652344 C 826.761719 331.722656 826.953125 331.773438 827.15625 331.832031 L 827.761719 332.003906 C 828.160156 332.125 828.578125 332.230469 828.988281 332.335938 C 829.402344 332.445312 829.8125 332.550781 830.226562 332.640625 C 830.636719 332.734375 831.046875 332.84375 831.460938 332.917969 C 832.285156 333.089844 833.105469 333.230469 833.917969 333.371094 C 834.324219 333.429688 834.730469 333.488281 835.132812 333.546875 C 835.535156 333.59375 835.9375 333.644531 836.332031 333.691406 C 837.925781 333.855469 839.472656 333.941406 840.945312 333.941406 C 841.316406 333.949219 841.679688 333.9375 842.039062 333.933594 C 842.398438 333.929688 842.75 333.902344 843.097656 333.894531 C 843.445312 333.882812 843.785156 333.855469 844.121094 333.835938 C 844.457031 333.804688 844.789062 333.777344 845.109375 333.75 C 846.402344 333.628906 847.585938 333.445312 848.632812 333.246094 C 849.679688 333.046875 850.585938 332.820312 851.335938 332.617188 C 852.828125 332.203125 853.671875 331.859375 853.671875 331.859375 C 853.671875 331.859375 853.628906 331.898438 853.546875 331.96875 C 853.460938 332.042969 853.339844 332.148438 853.167969 332.277344 C 852.835938 332.542969 852.328125 332.910156 851.644531 333.324219 C 850.960938 333.742188 850.101562 334.207031 849.078125 334.660156 C 848.054688 335.113281 846.863281 335.558594 845.53125 335.9375 C 845.195312 336.03125 844.855469 336.121094 844.503906 336.207031 C 844.152344 336.285156 843.792969 336.371094 843.425781 336.449219 C 842.691406 336.601562 841.925781 336.722656 841.136719 336.828125 C 839.554688 337.03125 837.867188 337.128906 836.121094 337.089844 C 835.6875 337.074219 835.246094 337.066406 834.804688 337.042969 C 834.363281 337.007812 833.921875 336.972656 833.472656 336.9375 C 833.027344 336.886719 832.578125 336.839844 832.128906 336.789062 C 831.679688 336.730469 831.230469 336.652344 830.777344 336.582031 C 830.324219 336.519531 829.878906 336.417969 829.425781 336.332031 C 829.199219 336.289062 828.972656 336.25 828.75 336.199219 L 828.074219 336.039062 C 827.625 335.933594 827.175781 335.832031 826.722656 335.695312 L 826.042969 335.503906 C 825.816406 335.4375 825.578125 335.378906 825.375 335.308594 C 824.53125 335.039062 823.683594 334.765625 822.84375 334.496094 C 822.4375 334.367188 822.03125 334.234375 821.628906 334.097656 C 821.425781 334.027344 821.222656 333.972656 821.019531 333.921875 C 820.816406 333.863281 820.613281 333.8125 820.410156 333.753906 C 820.003906 333.644531 819.597656 333.535156 819.199219 333.425781 C 818.996094 333.363281 818.796875 333.328125 818.59375 333.28125 C 818.394531 333.238281 818.191406 333.195312 817.992188 333.148438 C 817.59375 333.0625 817.195312 332.972656 816.800781 332.886719 C 816.402344 332.828125 816.007812 332.757812 815.617188 332.695312 C 815.421875 332.660156 815.226562 332.628906 815.035156 332.597656 C 814.9375 332.582031 814.839844 332.558594 814.742188 332.550781 L 814.453125 332.519531 C 814.070312 332.488281 813.6875 332.445312 813.308594 332.402344 C 813.121094 332.382812 812.929688 332.347656 812.742188 332.347656 C 812.558594 332.339844 812.371094 332.335938 812.1875 332.328125 C 811.816406 332.316406 811.453125 332.296875 811.089844 332.28125 C 810.730469 332.289062 810.375 332.300781 810.027344 332.308594 C 809.851562 332.3125 809.675781 332.316406 809.503906 332.320312 C 809.332031 332.335938 809.164062 332.351562 808.996094 332.367188 C 808.65625 332.398438 808.324219 332.429688 807.996094 332.457031 C 807.675781 332.511719 807.359375 332.566406 807.046875 332.617188 C 806.890625 332.640625 806.734375 332.667969 806.582031 332.691406 C 806.429688 332.71875 806.285156 332.761719 806.136719 332.796875 C 805.84375 332.867188 805.554688 332.941406 805.273438 333.003906 C 804.996094 333.085938 804.726562 333.179688 804.464844 333.261719 C 804.332031 333.304688 804.203125 333.34375 804.074219 333.386719 C 803.945312 333.425781 803.828125 333.480469 803.707031 333.527344 C 803.460938 333.625 803.226562 333.71875 803 333.808594 C 802.882812 333.851562 802.777344 333.90625 802.671875 333.960938 C 802.5625 334.011719 802.460938 334.058594 802.355469 334.109375 C 802.152344 334.210938 801.949219 334.296875 801.765625 334.398438 C 801.582031 334.503906 801.40625 334.601562 801.238281 334.699219 C 800.894531 334.878906 800.617188 335.070312 800.363281 335.234375 C 800.238281 335.3125 800.117188 335.390625 800.011719 335.460938 C 799.90625 335.535156 799.808594 335.605469 799.722656 335.667969 C 799.378906 335.914062 799.195312 336.046875 799.195312 336.046875 " fill-opacity="1" fill-rule="nonzero"/><path fill="#007489" d="M 853.710938 331.832031 C 853.148438 331.867188 852.585938 331.886719 852.023438 331.910156 C 851.460938 331.925781 850.898438 331.96875 850.332031 331.949219 C 849.769531 331.941406 849.203125 331.921875 848.632812 331.910156 C 848.347656 331.902344 848.058594 331.898438 847.777344 331.878906 L 846.929688 331.816406 C 846.363281 331.777344 845.796875 331.726562 845.230469 331.675781 C 844.664062 331.609375 844.101562 331.539062 843.535156 331.460938 L 842.6875 331.347656 L 841.847656 331.199219 C 841.285156 331.101562 840.722656 331 840.160156 330.886719 L 838.488281 330.507812 C 838.207031 330.445312 837.929688 330.375 837.652344 330.296875 L 836.824219 330.070312 C 836.546875 329.996094 836.269531 329.925781 835.992188 329.839844 L 835.171875 329.582031 L 834.347656 329.316406 L 833.535156 329.03125 L 832.71875 328.738281 C 832.449219 328.636719 832.179688 328.523438 831.914062 328.417969 C 831.644531 328.308594 831.375 328.207031 831.109375 328.089844 L 830.308594 327.738281 C 830.042969 327.625 829.78125 327.496094 829.515625 327.371094 C 829.25 327.246094 828.984375 327.125 828.726562 326.984375 C 828.464844 326.847656 828.203125 326.714844 827.9375 326.566406 C 827.804688 326.492188 827.679688 326.425781 827.542969 326.34375 C 827.40625 326.261719 827.285156 326.195312 827.117188 326.089844 L 818.382812 320.542969 L 828.589844 322.867188 C 829.53125 323.082031 830.472656 323.296875 831.410156 323.523438 L 834.246094 324.09375 C 835.195312 324.253906 836.140625 324.4375 837.089844 324.582031 L 838.515625 324.777344 L 839.230469 324.882812 C 839.464844 324.914062 839.703125 324.933594 839.941406 324.960938 L 841.371094 325.117188 L 841.730469 325.15625 L 842.085938 325.183594 L 842.800781 325.234375 C 843.28125 325.269531 843.757812 325.320312 844.234375 325.34375 L 845.664062 325.402344 C 845.90625 325.410156 846.144531 325.429688 846.382812 325.425781 C 846.621094 325.425781 846.859375 325.429688 847.097656 325.433594 C 847.574219 325.4375 848.054688 325.453125 848.53125 325.445312 C 849.484375 325.417969 850.4375 325.402344 851.390625 325.335938 C 852.34375 325.300781 853.289062 325.1875 854.242188 325.097656 L 855.660156 324.917969 C 856.132812 324.859375 856.601562 324.765625 857.074219 324.691406 C 857.546875 324.625 858.015625 324.523438 858.484375 324.433594 C 858.71875 324.386719 858.953125 324.34375 859.1875 324.292969 L 859.882812 324.125 L 860.585938 323.964844 L 861.277344 323.78125 L 861.972656 323.59375 L 862.660156 323.382812 L 863.351562 323.175781 L 864.035156 322.945312 C 864.492188 322.796875 864.941406 322.621094 865.394531 322.453125 C 866.296875 322.113281 867.183594 321.734375 868.0625 321.320312 C 868.945312 320.914062 869.804688 320.453125 870.652344 319.964844 C 870.867188 319.847656 871.074219 319.714844 871.285156 319.589844 C 871.496094 319.464844 871.699219 319.328125 871.910156 319.195312 C 872.320312 318.925781 872.722656 318.640625 873.117188 318.335938 C 872.824219 318.742188 872.492188 319.117188 872.152344 319.484375 C 871.808594 319.851562 871.457031 320.210938 871.082031 320.546875 C 870.714844 320.890625 870.332031 321.21875 869.9375 321.535156 L 869.34375 322.007812 C 869.144531 322.160156 868.9375 322.304688 868.734375 322.453125 C 868.53125 322.605469 868.320312 322.75 868.113281 322.890625 C 867.902344 323.03125 867.695312 323.175781 867.480469 323.3125 L 866.832031 323.710938 L 866.507812 323.914062 L 866.179688 324.101562 L 865.515625 324.476562 C 865.292969 324.601562 865.066406 324.710938 864.839844 324.828125 L 864.160156 325.175781 L 863.46875 325.496094 L 862.769531 325.8125 L 861.355469 326.390625 L 860.636719 326.652344 L 859.914062 326.90625 C 859.671875 326.988281 859.429688 327.058594 859.183594 327.136719 C 858.695312 327.285156 858.210938 327.449219 857.714844 327.574219 C 857.222656 327.695312 856.730469 327.839844 856.230469 327.949219 L 854.734375 328.273438 C 854.230469 328.371094 853.726562 328.445312 853.222656 328.53125 C 852.71875 328.621094 852.214844 328.679688 851.707031 328.742188 C 850.695312 328.890625 849.675781 328.949219 848.660156 329.027344 C 848.148438 329.0625 847.640625 329.070312 847.128906 329.089844 C 846.621094 329.113281 846.109375 329.125 845.601562 329.113281 L 844.074219 329.09375 C 843.566406 329.082031 843.058594 329.046875 842.550781 329.023438 L 841.789062 328.976562 L 841.40625 328.953125 L 841.027344 328.917969 L 839.511719 328.765625 C 838.5 328.679688 837.5 328.503906 836.496094 328.363281 C 836.246094 328.328125 835.996094 328.28125 835.75 328.234375 L 835.003906 328.097656 L 833.511719 327.820312 L 830.558594 327.132812 C 829.582031 326.875 828.613281 326.601562 827.644531 326.328125 L 829.113281 323.105469 C 829.179688 323.15625 829.300781 323.230469 829.398438 323.296875 C 829.5 323.367188 829.617188 323.433594 829.726562 323.503906 C 829.941406 323.640625 830.175781 323.773438 830.402344 323.90625 C 830.628906 324.039062 830.863281 324.167969 831.097656 324.300781 C 831.328125 324.429688 831.5625 324.5625 831.800781 324.6875 L 832.515625 325.058594 C 832.753906 325.183594 833 325.296875 833.242188 325.417969 L 833.972656 325.773438 L 834.714844 326.109375 L 835.453125 326.449219 L 836.207031 326.761719 L 836.960938 327.082031 C 837.210938 327.1875 837.46875 327.28125 837.722656 327.382812 L 838.484375 327.679688 C 838.738281 327.78125 838.996094 327.878906 839.253906 327.964844 L 840.804688 328.519531 C 841.324219 328.695312 841.851562 328.851562 842.375 329.027344 L 843.160156 329.28125 L 843.953125 329.507812 L 845.546875 329.972656 C 846.085938 330.105469 846.621094 330.238281 847.160156 330.382812 L 847.964844 330.59375 C 848.234375 330.660156 848.507812 330.710938 848.777344 330.777344 C 849.316406 330.898438 849.859375 331.019531 850.40625 331.148438 L 850.8125 331.242188 L 851.230469 331.320312 L 852.058594 331.488281 C 852.609375 331.601562 853.160156 331.707031 853.710938 331.832031 " fill-opacity="1" fill-rule="nonzero"/><path fill="#007489" d="M 873.117188 318.335938 C 872.480469 318.457031 871.839844 318.5625 871.203125 318.675781 C 870.886719 318.730469 870.566406 318.789062 870.246094 318.835938 L 869.769531 318.914062 L 869.285156 318.972656 L 867.347656 319.195312 C 867.023438 319.226562 866.695312 319.273438 866.371094 319.292969 L 865.398438 319.359375 L 863.449219 319.480469 C 862.800781 319.503906 862.148438 319.507812 861.496094 319.523438 C 861.171875 319.53125 860.84375 319.539062 860.515625 319.539062 L 859.539062 319.523438 C 858.886719 319.507812 858.230469 319.503906 857.578125 319.472656 L 855.621094 319.359375 C 855.292969 319.34375 854.96875 319.308594 854.640625 319.28125 L 853.664062 319.191406 C 853.011719 319.132812 852.359375 319.046875 851.707031 318.964844 L 850.730469 318.835938 L 849.757812 318.683594 L 848.785156 318.523438 L 847.8125 318.339844 C 847.164062 318.222656 846.519531 318.082031 845.875 317.9375 C 845.550781 317.867188 845.230469 317.78125 844.90625 317.703125 C 844.585938 317.625 844.261719 317.542969 843.941406 317.453125 C 843.617188 317.367188 843.296875 317.28125 842.972656 317.179688 C 842.808594 317.132812 842.648438 317.089844 842.480469 317.035156 C 842.3125 316.980469 842.164062 316.933594 841.964844 316.863281 L 828.964844 312.265625 L 842.800781 313.304688 L 845.746094 313.523438 L 848.6875 313.675781 C 849.664062 313.714844 850.644531 313.71875 851.625 313.75 C 852.601562 313.753906 853.578125 313.753906 854.558594 313.746094 L 856.023438 313.695312 C 856.507812 313.679688 857 313.679688 857.484375 313.640625 C 858.457031 313.578125 859.433594 313.535156 860.398438 313.433594 C 860.882812 313.390625 861.371094 313.351562 861.855469 313.304688 L 863.300781 313.125 C 863.542969 313.09375 863.785156 313.066406 864.027344 313.03125 L 864.746094 312.921875 C 865.226562 312.84375 865.707031 312.78125 866.1875 312.695312 C 867.136719 312.511719 868.097656 312.34375 869.039062 312.121094 L 869.753906 311.964844 L 871.160156 311.597656 L 871.515625 311.511719 L 871.863281 311.40625 C 872.328125 311.269531 872.796875 311.140625 873.257812 310.992188 C 873.71875 310.839844 874.179688 310.683594 874.640625 310.535156 L 876.007812 310.027344 L 877.359375 309.476562 L 878.691406 308.875 C 879.121094 308.652344 879.570312 308.453125 880 308.222656 C 880.429688 307.988281 880.863281 307.761719 881.285156 307.511719 C 881.496094 307.386719 881.710938 307.269531 881.917969 307.140625 L 882.542969 306.75 C 883.367188 306.21875 884.171875 305.648438 884.949219 305.027344 C 885.71875 304.410156 886.46875 303.75 887.136719 302.992188 C 886.917969 303.449219 886.644531 303.878906 886.355469 304.296875 C 886.070312 304.71875 885.761719 305.128906 885.433594 305.523438 C 884.785156 306.3125 884.070312 307.046875 883.320312 307.75 C 882.5625 308.445312 881.765625 309.097656 880.933594 309.707031 C 880.730469 309.867188 880.515625 310.011719 880.304688 310.160156 L 879.667969 310.597656 C 879.234375 310.875 878.796875 311.148438 878.355469 311.421875 C 877.910156 311.675781 877.460938 311.9375 877.007812 312.183594 L 875.625 312.886719 C 875.15625 313.105469 874.6875 313.320312 874.214844 313.53125 C 873.742188 313.738281 873.257812 313.925781 872.78125 314.121094 C 872.304688 314.324219 871.8125 314.480469 871.328125 314.65625 L 870.59375 314.914062 L 869.855469 315.140625 L 869.113281 315.371094 C 868.867188 315.449219 868.621094 315.523438 868.371094 315.585938 L 866.871094 315.972656 C 866.371094 316.09375 865.867188 316.195312 865.363281 316.308594 L 864.605469 316.472656 C 864.351562 316.523438 864.097656 316.5625 863.84375 316.605469 L 862.320312 316.867188 C 861.8125 316.941406 861.304688 317.003906 860.792969 317.074219 C 859.773438 317.222656 858.75 317.289062 857.726562 317.386719 C 856.703125 317.476562 855.675781 317.507812 854.652344 317.558594 C 853.628906 317.574219 852.605469 317.585938 851.582031 317.589844 C 850.558594 317.558594 849.535156 317.535156 848.515625 317.492188 C 847.496094 317.421875 846.476562 317.371094 845.460938 317.28125 L 842.421875 316.972656 L 843.257812 313.410156 L 843.652344 313.554688 C 843.789062 313.605469 843.9375 313.65625 844.082031 313.707031 C 844.367188 313.808594 844.664062 313.898438 844.957031 313.996094 C 845.25 314.09375 845.546875 314.179688 845.847656 314.269531 C 846.144531 314.355469 846.441406 314.449219 846.742188 314.527344 C 847.347656 314.691406 847.949219 314.867188 848.558594 315.019531 L 849.46875 315.25 L 850.390625 315.464844 L 851.308594 315.679688 L 852.234375 315.875 C 852.851562 316.003906 853.46875 316.140625 854.089844 316.246094 C 854.710938 316.355469 855.332031 316.492188 855.957031 316.589844 L 857.832031 316.898438 C 858.457031 317 859.085938 317.078125 859.714844 317.167969 L 860.660156 317.300781 C 860.976562 317.34375 861.292969 317.375 861.609375 317.414062 C 862.238281 317.488281 862.875 317.554688 863.507812 317.636719 L 865.414062 317.8125 L 866.371094 317.90625 C 866.691406 317.941406 867.007812 317.949219 867.324219 317.972656 L 869.242188 318.109375 L 869.722656 318.148438 L 870.207031 318.171875 C 870.53125 318.183594 870.855469 318.203125 871.175781 318.21875 C 871.824219 318.257812 872.46875 318.285156 873.117188 318.335938 " fill-opacity="1" fill-rule="nonzero"/><path fill="#007489" d="M 887.136719 302.992188 C 886.773438 303.171875 886.410156 303.355469 886.046875 303.527344 C 885.679688 303.703125 885.296875 303.84375 884.921875 304.003906 C 884.542969 304.171875 884.15625 304.296875 883.769531 304.433594 L 883.191406 304.632812 C 882.996094 304.695312 882.796875 304.75 882.601562 304.808594 L 882.011719 304.980469 C 881.816406 305.039062 881.617188 305.09375 881.417969 305.140625 L 880.226562 305.4375 C 879.425781 305.597656 878.621094 305.773438 877.8125 305.898438 C 877 306.039062 876.1875 306.132812 875.375 306.242188 C 874.5625 306.328125 873.742188 306.410156 872.925781 306.464844 C 872.109375 306.535156 871.292969 306.566406 870.472656 306.597656 C 869.65625 306.621094 868.835938 306.644531 868.015625 306.644531 C 867.605469 306.648438 867.199219 306.644531 866.789062 306.636719 C 866.378906 306.628906 865.96875 306.625 865.5625 306.609375 L 864.335938 306.570312 L 863.109375 306.511719 C 862.292969 306.460938 861.476562 306.410156 860.664062 306.34375 C 859.847656 306.28125 859.035156 306.207031 858.222656 306.121094 C 857.410156 306.03125 856.597656 305.9375 855.789062 305.835938 C 854.976562 305.734375 854.164062 305.625 853.359375 305.5 C 852.550781 305.375 851.742188 305.242188 850.933594 305.101562 L 849.722656 304.882812 C 849.3125 304.808594 848.921875 304.730469 848.492188 304.636719 L 832 301.046875 L 848.957031 300.992188 L 850.78125 300.984375 L 851.691406 300.980469 C 851.996094 300.980469 852.300781 300.984375 852.601562 300.96875 C 853.207031 300.941406 853.8125 300.917969 854.421875 300.898438 L 855.328125 300.871094 C 855.632812 300.855469 855.933594 300.828125 856.234375 300.808594 L 858.046875 300.679688 C 858.195312 300.667969 858.347656 300.660156 858.5 300.644531 L 858.949219 300.59375 L 860.753906 300.40625 C 861.054688 300.375 861.355469 300.351562 861.652344 300.300781 L 863.445312 300.046875 C 864.042969 299.972656 864.632812 299.847656 865.226562 299.746094 L 866.117188 299.585938 C 866.414062 299.535156 866.714844 299.488281 867.007812 299.417969 L 868.769531 299.03125 L 869.210938 298.933594 L 870.523438 298.59375 C 871.105469 298.445312 871.691406 298.304688 872.261719 298.121094 C 872.839844 297.945312 873.417969 297.78125 873.988281 297.597656 C 874.554688 297.398438 875.125 297.207031 875.695312 297.015625 C 875.984375 296.921875 876.261719 296.8125 876.542969 296.707031 L 877.386719 296.382812 C 877.664062 296.269531 877.949219 296.171875 878.222656 296.050781 L 879.050781 295.695312 L 879.882812 295.34375 C 880.160156 295.222656 880.425781 295.089844 880.699219 294.960938 C 881.796875 294.460938 882.859375 293.898438 883.921875 293.328125 L 884.707031 292.882812 C 884.96875 292.730469 885.234375 292.589844 885.488281 292.425781 L 886.257812 291.949219 C 886.515625 291.789062 886.777344 291.640625 887.027344 291.46875 L 887.78125 290.964844 C 888.035156 290.800781 888.289062 290.632812 888.53125 290.453125 L 889.265625 289.921875 L 889.636719 289.660156 L 889.996094 289.382812 C 890.480469 289.015625 890.964844 288.652344 891.425781 288.257812 L 892.132812 287.679688 L 893.164062 286.777344 L 893.5 286.46875 L 894.167969 285.84375 L 895.152344 284.882812 L 895.46875 284.550781 C 896.328125 283.675781 897.140625 282.757812 897.921875 281.800781 C 898.308594 281.324219 898.691406 280.839844 899.0625 280.34375 C 899.425781 279.84375 899.785156 279.335938 900.128906 278.816406 C 899.90625 279.398438 899.644531 279.964844 899.371094 280.53125 C 899.09375 281.089844 898.804688 281.648438 898.488281 282.191406 C 897.867188 283.285156 897.179688 284.34375 896.4375 285.363281 L 896.15625 285.746094 L 895.289062 286.871094 L 894.679688 287.597656 L 894.375 287.964844 L 894.058594 288.316406 L 893.421875 289.023438 C 893.207031 289.257812 892.984375 289.484375 892.761719 289.710938 C 892.324219 290.171875 891.863281 290.605469 891.402344 291.042969 C 890.480469 291.921875 889.503906 292.738281 888.507812 293.535156 C 888.011719 293.9375 887.492188 294.300781 886.980469 294.683594 C 886.722656 294.878906 886.457031 295.050781 886.195312 295.230469 L 885.402344 295.769531 C 884.335938 296.46875 883.238281 297.132812 882.117188 297.742188 C 881.835938 297.894531 881.558594 298.058594 881.273438 298.203125 L 880.417969 298.632812 L 879.558594 299.058594 C 879.273438 299.203125 878.976562 299.324219 878.6875 299.457031 L 877.808594 299.847656 C 877.519531 299.976562 877.226562 300.109375 876.929688 300.222656 C 876.332031 300.460938 875.738281 300.695312 875.140625 300.921875 C 874.539062 301.140625 873.933594 301.339844 873.328125 301.546875 C 872.726562 301.761719 872.113281 301.9375 871.5 302.117188 L 870.582031 302.386719 L 870.121094 302.515625 L 867.796875 303.082031 C 867.484375 303.164062 867.171875 303.21875 866.859375 303.285156 L 865.921875 303.472656 C 865.296875 303.597656 864.671875 303.722656 864.039062 303.808594 L 862.152344 304.09375 C 861.835938 304.144531 861.523438 304.175781 861.203125 304.210938 L 860.257812 304.316406 L 859.308594 304.417969 L 858.835938 304.464844 C 858.675781 304.480469 858.515625 304.488281 858.359375 304.5 L 856.457031 304.621094 C 856.140625 304.640625 855.824219 304.664062 855.507812 304.679688 L 854.558594 304.703125 C 853.925781 304.71875 853.289062 304.730469 852.65625 304.742188 C 852.339844 304.753906 852.023438 304.746094 851.707031 304.738281 L 850.757812 304.71875 L 848.859375 304.683594 L 849.324219 301.039062 L 850.460938 301.300781 L 851.621094 301.554688 C 852.394531 301.714844 853.175781 301.875 853.953125 302.023438 L 856.300781 302.460938 C 857.082031 302.597656 857.867188 302.730469 858.652344 302.855469 C 859.441406 302.976562 860.226562 303.105469 861.011719 303.21875 C 861.800781 303.335938 862.589844 303.4375 863.378906 303.535156 L 864.5625 303.683594 L 865.75 303.816406 C 866.144531 303.863281 866.539062 303.898438 866.9375 303.9375 C 867.332031 303.976562 867.726562 304.011719 868.125 304.042969 C 868.917969 304.117188 869.707031 304.171875 870.503906 304.226562 L 871.695312 304.289062 C 872.089844 304.3125 872.488281 304.328125 872.886719 304.339844 C 873.28125 304.351562 873.679688 304.375 874.078125 304.375 L 875.269531 304.386719 C 876.066406 304.382812 876.863281 304.386719 877.65625 304.347656 C 878.453125 304.332031 879.246094 304.269531 880.039062 304.21875 L 881.230469 304.109375 C 881.628906 304.074219 882.019531 304.007812 882.417969 303.960938 C 882.617188 303.933594 882.816406 303.914062 883.011719 303.882812 L 883.601562 303.78125 C 883.996094 303.710938 884.398438 303.660156 884.785156 303.566406 C 885.175781 303.480469 885.570312 303.410156 885.960938 303.304688 C 886.351562 303.195312 886.746094 303.097656 887.136719 302.992188 " fill-opacity="1" fill-rule="nonzero"/><g clip-path="url(#eb8c847587)"><path fill="#007489" d="M 900.429688 278.183594 C 899.582031 278.726562 898.734375 279.265625 897.875 279.785156 L 896.566406 280.546875 L 895.910156 280.929688 L 895.246094 281.289062 L 893.910156 282.003906 C 893.464844 282.242188 893.007812 282.457031 892.554688 282.6875 C 892.101562 282.910156 891.652344 283.140625 891.191406 283.351562 L 889.808594 283.984375 C 889.578125 284.085938 889.351562 284.195312 889.117188 284.296875 L 888.417969 284.589844 L 887.011719 285.175781 L 885.59375 285.726562 L 884.882812 286 L 884.164062 286.25 L 882.722656 286.757812 L 881.269531 287.222656 C 880.789062 287.382812 880.296875 287.519531 879.808594 287.660156 C 879.320312 287.800781 878.832031 287.953125 878.339844 288.078125 L 876.859375 288.464844 L 875.367188 288.8125 C 874.871094 288.933594 874.371094 289.03125 873.871094 289.136719 L 873.121094 289.289062 L 872.367188 289.429688 C 871.363281 289.621094 870.351562 289.773438 869.339844 289.921875 L 867.816406 290.121094 L 866.285156 290.289062 L 864.75 290.417969 C 864.238281 290.449219 863.726562 290.488281 863.214844 290.511719 C 862.1875 290.558594 861.15625 290.597656 860.125 290.597656 C 859.09375 290.597656 858.058594 290.570312 857.023438 290.511719 C 856.503906 290.480469 855.980469 290.441406 855.457031 290.394531 C 855.195312 290.371094 854.933594 290.347656 854.667969 290.3125 L 854.265625 290.265625 L 854.058594 290.238281 L 853.832031 290.203125 L 842.476562 288.476562 L 853.902344 286.597656 L 856.28125 286.203125 L 858.648438 285.757812 L 861 285.25 C 861.773438 285.054688 862.558594 284.886719 863.332031 284.683594 C 864.878906 284.285156 866.421875 283.855469 867.9375 283.359375 L 869.078125 282.992188 L 870.203125 282.597656 C 870.960938 282.34375 871.699219 282.046875 872.445312 281.765625 C 872.816406 281.628906 873.179688 281.46875 873.546875 281.316406 C 873.914062 281.164062 874.285156 281.015625 874.648438 280.855469 C 875.367188 280.519531 876.105469 280.21875 876.8125 279.863281 L 877.886719 279.347656 L 878.941406 278.796875 C 879.296875 278.617188 879.640625 278.425781 879.984375 278.230469 C 880.332031 278.035156 880.679688 277.847656 881.019531 277.644531 C 882.390625 276.851562 883.726562 276 885.023438 275.09375 C 886.3125 274.179688 887.570312 273.214844 888.78125 272.195312 C 889.992188 271.175781 891.136719 270.082031 892.246094 268.953125 C 893.355469 267.820312 894.402344 266.625 895.394531 265.386719 C 896.390625 264.148438 897.316406 262.851562 898.183594 261.515625 C 899.058594 260.183594 899.859375 258.796875 900.601562 257.378906 C 901.347656 255.960938 902.011719 254.496094 902.625 253.007812 C 902.929688 252.261719 903.214844 251.507812 903.484375 250.746094 C 903.757812 249.988281 904.011719 249.222656 904.246094 248.445312 C 904.71875 246.898438 905.125 245.324219 905.453125 243.730469 C 905.785156 242.136719 906.050781 240.523438 906.183594 238.886719 C 906.257812 239.703125 906.269531 240.53125 906.261719 241.355469 C 906.25 242.179688 906.21875 243.003906 906.152344 243.828125 C 906.027344 245.476562 905.804688 247.121094 905.496094 248.753906 C 905.1875 250.386719 904.785156 252.003906 904.304688 253.601562 C 903.828125 255.203125 903.253906 256.773438 902.605469 258.316406 C 901.953125 259.863281 901.210938 261.371094 900.398438 262.84375 C 899.585938 264.316406 898.683594 265.742188 897.714844 267.125 C 896.742188 268.507812 895.683594 269.828125 894.566406 271.097656 C 893.453125 272.367188 892.265625 273.582031 891.015625 274.722656 C 889.765625 275.867188 888.464844 276.953125 887.109375 277.96875 C 885.746094 278.96875 884.351562 279.929688 882.90625 280.8125 C 882.546875 281.035156 882.179688 281.238281 881.8125 281.453125 C 881.449219 281.667969 881.085938 281.882812 880.710938 282.078125 L 879.597656 282.679688 L 878.46875 283.25 C 877.71875 283.640625 876.945312 283.980469 876.179688 284.335938 C 875.796875 284.507812 875.40625 284.667969 875.019531 284.832031 C 874.628906 284.996094 874.246094 285.167969 873.851562 285.316406 C 873.066406 285.617188 872.285156 285.933594 871.492188 286.207031 L 870.300781 286.628906 L 869.101562 287.015625 C 867.503906 287.527344 865.886719 287.96875 864.261719 288.378906 C 863.859375 288.488281 863.449219 288.574219 863.039062 288.671875 L 861.816406 288.949219 L 859.355469 289.4375 L 856.890625 289.859375 L 854.414062 290.214844 L 854.480469 286.605469 L 854.792969 286.660156 L 855.136719 286.714844 C 855.363281 286.746094 855.605469 286.777344 855.839844 286.804688 C 856.3125 286.863281 856.792969 286.910156 857.273438 286.953125 C 858.234375 287.039062 859.207031 287.085938 860.179688 287.117188 C 861.15625 287.160156 862.132812 287.160156 863.109375 287.15625 C 863.601562 287.152344 864.089844 287.132812 864.578125 287.125 L 866.046875 287.0625 L 867.515625 286.976562 L 868.988281 286.859375 C 869.964844 286.769531 870.941406 286.667969 871.921875 286.542969 L 872.652344 286.453125 L 873.386719 286.347656 C 873.871094 286.277344 874.363281 286.214844 874.847656 286.125 L 876.308594 285.878906 L 877.761719 285.605469 C 878.25 285.523438 878.730469 285.410156 879.214844 285.308594 C 879.699219 285.207031 880.183594 285.109375 880.664062 284.988281 L 882.109375 284.648438 L 883.550781 284.273438 L 884.269531 284.089844 L 884.984375 283.882812 L 886.417969 283.476562 L 887.84375 283.03125 L 888.554688 282.808594 L 889.261719 282.574219 L 890.679688 282.097656 C 891.152344 281.9375 891.613281 281.757812 892.085938 281.589844 C 892.554688 281.417969 893.027344 281.257812 893.492188 281.074219 L 894.886719 280.527344 L 895.589844 280.257812 L 896.277344 279.964844 L 897.667969 279.394531 C 898.59375 279.003906 899.503906 278.574219 900.429688 278.183594 " fill-opacity="1" fill-rule="nonzero"/></g><g clip-path="url(#e05eb7e17e)"><path fill="#007489" d="M 906.183594 238.886719 C 906.183594 238.886719 906.113281 239.042969 905.980469 239.347656 C 905.84375 239.652344 905.65625 240.109375 905.386719 240.695312 C 905.242188 240.988281 905.085938 241.3125 904.910156 241.667969 C 904.734375 242.027344 904.542969 242.421875 904.316406 242.832031 C 904.09375 243.242188 903.863281 243.695312 903.59375 244.164062 C 903.320312 244.628906 903.023438 245.125 902.714844 245.644531 C 901.4375 247.714844 899.703125 250.128906 897.414062 252.671875 C 896.257812 253.933594 894.960938 255.214844 893.519531 256.496094 C 893.15625 256.808594 892.785156 257.125 892.410156 257.449219 C 892.027344 257.757812 891.636719 258.070312 891.242188 258.386719 C 890.441406 259.007812 889.613281 259.628906 888.742188 260.234375 C 887.003906 261.445312 885.117188 262.597656 883.113281 263.691406 C 881.109375 264.78125 878.96875 265.785156 876.734375 266.71875 C 872.261719 268.582031 867.371094 270.082031 862.261719 271.269531 C 859.707031 271.871094 857.097656 272.375 854.449219 272.832031 C 853.125 273.058594 851.792969 273.273438 850.457031 273.476562 C 849.117188 273.675781 847.773438 273.855469 846.421875 274.03125 C 843.722656 274.378906 841.011719 274.71875 838.300781 275.015625 C 835.59375 275.324219 832.886719 275.636719 830.226562 276.015625 C 827.574219 276.382812 824.945312 276.808594 822.507812 277.457031 C 822.199219 277.535156 821.902344 277.625 821.605469 277.710938 L 821.382812 277.777344 C 821.386719 277.777344 821.300781 277.804688 821.375 277.777344 L 821.316406 277.796875 L 821.195312 277.839844 L 820.707031 278 L 819.738281 278.320312 C 819.578125 278.371094 819.410156 278.421875 819.257812 278.476562 L 818.816406 278.640625 L 817.929688 278.964844 L 817.488281 279.128906 L 817.042969 279.3125 L 816.152344 279.675781 L 815.707031 279.859375 L 815.273438 280.058594 C 814.109375 280.578125 812.972656 281.136719 811.875 281.746094 C 811.601562 281.898438 811.328125 282.050781 811.050781 282.203125 C 810.773438 282.347656 810.519531 282.523438 810.25 282.683594 C 809.984375 282.84375 809.71875 283.007812 809.453125 283.167969 C 809.195312 283.339844 808.941406 283.511719 808.683594 283.683594 C 806.640625 285.066406 804.761719 286.625 803.113281 288.34375 C 801.464844 290.0625 800.027344 291.925781 798.832031 293.898438 C 797.636719 295.867188 796.660156 297.925781 795.910156 300.019531 C 795.152344 302.109375 794.589844 304.226562 794.203125 306.316406 C 793.808594 308.402344 793.582031 310.464844 793.457031 312.453125 C 793.328125 314.449219 793.332031 316.371094 793.394531 318.207031 C 793.449219 320.042969 793.597656 321.785156 793.769531 323.425781 C 794.125 326.703125 794.644531 329.550781 795.136719 331.886719 C 795.644531 334.21875 796.109375 336.046875 796.472656 337.28125 C 796.652344 337.898438 796.789062 338.371094 796.886719 338.6875 C 796.988281 339.007812 797.042969 339.171875 797.042969 339.171875 C 797.042969 339.171875 796.960938 339.019531 796.808594 338.722656 C 796.65625 338.425781 796.433594 337.980469 796.164062 337.394531 C 795.628906 336.21875 794.855469 334.480469 794.042969 332.199219 C 793.222656 329.921875 792.34375 327.101562 791.605469 323.785156 C 790.875 320.464844 790.285156 316.644531 790.167969 312.402344 C 790.117188 310.28125 790.199219 308.058594 790.445312 305.757812 C 790.503906 305.183594 790.59375 304.605469 790.671875 304.019531 C 790.773438 303.441406 790.859375 302.851562 790.984375 302.261719 C 791.105469 301.675781 791.222656 301.078125 791.375 300.484375 C 791.449219 300.191406 791.515625 299.890625 791.597656 299.59375 C 791.679688 299.292969 791.765625 298.996094 791.847656 298.695312 L 791.976562 298.246094 L 792.125 297.800781 C 792.222656 297.5 792.320312 297.203125 792.417969 296.902344 C 792.527344 296.605469 792.636719 296.304688 792.75 296.007812 C 792.863281 295.707031 792.96875 295.40625 793.097656 295.113281 C 793.222656 294.816406 793.347656 294.519531 793.476562 294.21875 C 793.597656 293.917969 793.746094 293.628906 793.882812 293.332031 C 794.023438 293.039062 794.152344 292.738281 794.308594 292.449219 C 794.460938 292.15625 794.613281 291.863281 794.765625 291.570312 C 794.914062 291.277344 795.085938 290.992188 795.253906 290.703125 C 795.417969 290.414062 795.589844 290.125 795.757812 289.835938 C 795.9375 289.554688 796.121094 289.273438 796.304688 288.992188 L 796.582031 288.570312 C 796.675781 288.425781 796.777344 288.292969 796.875 288.152344 C 797.070312 287.878906 797.269531 287.601562 797.46875 287.324219 C 797.667969 287.050781 797.886719 286.789062 798.09375 286.515625 C 798.308594 286.25 798.511719 285.972656 798.738281 285.714844 C 798.964844 285.457031 799.191406 285.195312 799.417969 284.933594 C 801.230469 282.851562 803.355469 280.996094 805.640625 279.339844 C 805.929688 279.136719 806.214844 278.929688 806.503906 278.722656 C 806.800781 278.53125 807.09375 278.335938 807.390625 278.140625 C 807.691406 277.953125 807.980469 277.746094 808.285156 277.570312 C 808.589844 277.386719 808.894531 277.207031 809.203125 277.023438 C 810.429688 276.308594 811.695312 275.660156 812.984375 275.054688 L 813.46875 274.824219 L 813.957031 274.613281 L 814.9375 274.1875 L 815.429688 273.976562 L 815.9375 273.777344 L 816.957031 273.382812 L 817.46875 273.1875 C 817.636719 273.121094 817.792969 273.074219 817.953125 273.015625 L 818.921875 272.683594 L 819.402344 272.519531 L 819.523438 272.476562 L 819.699219 272.421875 L 819.964844 272.339844 C 820.324219 272.230469 820.679688 272.121094 821.035156 272.03125 C 822.457031 271.640625 823.863281 271.339844 825.265625 271.078125 C 826.664062 270.816406 828.058594 270.59375 829.445312 270.398438 C 834.988281 269.65625 840.4375 269.171875 845.761719 268.578125 C 847.09375 268.429688 848.414062 268.273438 849.726562 268.109375 C 851.039062 267.957031 852.339844 267.785156 853.632812 267.605469 C 856.214844 267.238281 858.75 266.824219 861.226562 266.363281 C 866.171875 265.414062 870.890625 264.246094 875.226562 262.746094 C 879.5625 261.257812 883.523438 259.46875 886.988281 257.472656 C 888.722656 256.480469 890.332031 255.433594 891.8125 254.363281 C 893.300781 253.292969 894.640625 252.191406 895.882812 251.121094 C 898.328125 248.941406 900.285156 246.824219 901.792969 244.988281 C 903.300781 243.144531 904.375 241.601562 905.101562 240.542969 C 905.804688 239.460938 906.183594 238.886719 906.183594 238.886719 " fill-opacity="1" fill-rule="nonzero"/></g></svg>