<svg xmlns="http://www.w3.org/2000/svg" xmlns:xlink="http://www.w3.org/1999/xlink" width="432" zoomAndPan="magnify" viewBox="0 0 324 216.749995" height="289" preserveAspectRatio="xMidYMid meet" version="1.0"><defs><clipPath id="b4d387aa83"><path d="M 1 0.191406 L 323 0.191406 L 323 215.941406 L 1 215.941406 Z M 1 0.191406 " clip-rule="nonzero"/></clipPath><clipPath id="94c8ba282b"><path d="M 17 75.886719 L 101.492188 75.886719 L 101.492188 140.3125 L 17 140.3125 Z M 17 75.886719 " clip-rule="nonzero"/></clipPath><clipPath id="8f5b779514"><path d="M 1 0.886719 L 84.222656 0.886719 L 84.222656 65.238281 L 1 65.238281 Z M 1 0.886719 " clip-rule="nonzero"/></clipPath><clipPath id="6e7714afd6"><rect x="0" width="85" y="0" height="66"/></clipPath><clipPath id="b5039167c3"><path d="M 110 75.886719 L 132 75.886719 L 132 82 L 110 82 Z M 110 75.886719 " clip-rule="nonzero"/></clipPath><clipPath id="6d59607f59"><path d="M 93.351562 83 L 148 83 L 148 100 L 93.351562 100 Z M 93.351562 83 " clip-rule="nonzero"/></clipPath><clipPath id="bb86bc6b2e"><path d="M 152 99.046875 L 175 99.046875 L 175 105 L 152 105 Z M 152 99.046875 " clip-rule="nonzero"/></clipPath><clipPath id="929d61f92f"><path d="M 136.132812 106 L 190.820312 106 L 190.820312 123 L 136.132812 123 Z M 136.132812 106 " clip-rule="nonzero"/></clipPath></defs><path fill="#cacaca" d="M 304.816406 13.671875 C 313.015625 13.671875 315.75 19.136719 311.648438 25.972656 L 270.648438 101.140625 C 266.546875 107.972656 266.546875 118.90625 270.648438 125.742188 L 311.648438 202.277344 C 315.75 209.109375 311.648438 214.574219 304.816406 214.574219 L 20.542969 214.574219 C 12.34375 214.574219 6.875 207.742188 6.875 200.910156 L 6.875 28.707031 C 6.875 20.503906 13.707031 15.039062 20.542969 15.039062 L 304.816406 15.039062 Z M 304.816406 13.671875 " fill-opacity="1" fill-rule="nonzero"/><g clip-path="url(#b4d387aa83)"><path fill="#959595" d="M 322.582031 202.277344 C 322.582031 205.007812 322.582031 207.742188 321.214844 209.109375 C 318.484375 213.210938 313.015625 215.941406 307.550781 215.941406 L 21.910156 215.941406 C 10.976562 215.941406 1.410156 206.375 1.410156 194.074219 L 1.410156 21.871094 C 1.410156 9.570312 10.976562 0.00390625 21.910156 0.00390625 L 306.183594 0.00390625 C 313.015625 0.00390625 317.117188 2.738281 319.847656 6.839844 C 322.582031 10.9375 322.582031 17.773438 319.847656 23.238281 L 278.847656 98.40625 C 276.113281 102.507812 276.113281 112.074219 278.847656 116.171875 L 319.847656 192.707031 C 321.214844 196.808594 322.582031 199.542969 322.582031 202.277344 Z M 15.074219 195.441406 C 15.074219 199.542969 17.808594 202.277344 21.910156 202.277344 L 306.183594 202.277344 C 307.550781 202.277344 307.550781 202.277344 307.550781 202.277344 C 307.550781 202.277344 307.550781 200.910156 306.183594 200.910156 L 265.179688 124.375 C 259.714844 114.808594 261.082031 101.140625 265.179688 92.941406 L 306.183594 17.773438 C 306.183594 16.40625 306.183594 16.40625 306.183594 16.40625 C 306.183594 16.40625 304.816406 16.40625 304.816406 16.40625 L 21.910156 16.40625 C 17.808594 16.40625 15.074219 19.136719 15.074219 23.238281 Z M 15.074219 195.441406 " fill-opacity="1" fill-rule="nonzero"/></g><g clip-path="url(#94c8ba282b)"><g transform="matrix(1, 0, 0, 1, 17, 75)"><g clip-path="url(#6e7714afd6)"><path fill="#e3e6e7" d="M 51.085938 49.753906 C 55.0625 50.25 59.789062 50.769531 65.371094 51.316406 C 68.6875 51.636719 71.710938 54.128906 73.910156 56.542969 C 75.25 58.011719 76.4375 59.59375 77.480469 61.285156 C 74.621094 59.492188 69.894531 58.765625 64.441406 58.179688 C 58.988281 57.59375 52.804688 57.148438 47.039062 55.929688 C 42.808594 55.035156 39.542969 53.472656 37.171875 51.652344 C 34.800781 49.832031 33.320312 47.75 32.664062 45.816406 C 33.53125 46.582031 36.125 47.414062 41.292969 48.324219 C 43.878906 48.78125 47.105469 49.253906 51.085938 49.753906 Z M 51.085938 49.753906 " fill-opacity="1" fill-rule="nonzero"/><path fill="#e3e6e7" d="M 32.777344 36.3125 C 35.566406 36.8125 38.863281 37.3125 42.78125 37.851562 C 43.234375 37.914062 43.695312 37.976562 44.164062 38.039062 C 48.765625 38.660156 54.171875 39.347656 60.550781 40.125 C 63.855469 40.527344 66.65625 42.835938 68.644531 45.082031 C 69.886719 46.488281 70.964844 48.007812 71.878906 49.648438 C 70.789062 49.144531 68.019531 48.496094 66.5625 48.222656 C 63.179688 47.589844 59.734375 47.214844 56.324219 46.828125 C 53.523438 46.507812 50.796875 46.214844 48.136719 45.894531 C 43.890625 45.382812 39.871094 44.816406 35.976562 44.007812 C 35.214844 43.851562 34.472656 43.683594 33.738281 43.5 C 29.863281 42.535156 26.882812 40.757812 24.667969 38.761719 C 22.28125 36.613281 20.789062 34.207031 20.101562 32.195312 C 21.929688 33.679688 25.082031 34.808594 30.597656 35.902344 C 31.289062 36.039062 32.015625 36.175781 32.777344 36.3125 Z M 32.777344 36.3125 " fill-opacity="1" fill-rule="nonzero"/><path fill="#e3e6e7" d="M 36.148438 26.1875 C 41.605469 26.972656 48.054688 27.847656 55.730469 28.9375 C 62.542969 29.902344 66.277344 38.007812 66.277344 38.007812 C 65.257812 37.730469 61.179688 37.03125 59.980469 36.882812 C 51.660156 35.859375 44.859375 35.109375 38.835938 34.324219 C 32.8125 33.539062 27.5625 32.710938 22.34375 31.539062 C 17.914062 30.53125 14.574219 28.335938 12.160156 25.871094 C 9.746094 23.402344 8.257812 20.667969 7.539062 18.578125 C 10.722656 21.085938 15.097656 22.589844 22.511719 24.007812 C 26.21875 24.71875 30.6875 25.40625 36.148438 26.1875 Z M 36.148438 26.1875 " fill-opacity="1" fill-rule="nonzero"/><g clip-path="url(#8f5b779514)"><path fill="#e3e6e7" d="M 1.164062 0.914062 C 1.714844 5.675781 13.1875 10.578125 56.097656 17.613281 C 69.246094 19.765625 72.980469 24.496094 76.054688 34.535156 C 78.652344 43.011719 83.429688 61.824219 84.222656 65.03125 C 80.558594 62.621094 72.648438 43.894531 69.902344 37.816406 C 67.15625 31.734375 65.53125 27.164062 56.097656 25.816406 C 29.730469 22.050781 17.71875 19.734375 13.09375 18.078125 C -0.90625 13.0625 1.164062 0.914062 1.164062 0.914062 Z M 1.164062 0.914062 " fill-opacity="1" fill-rule="nonzero"/></g></g></g></g><g clip-path="url(#b5039167c3)"><path fill="#e3e6e7" d="M 131.230469 78.796875 C 131.230469 77.175781 129.910156 75.855469 128.289062 75.855469 L 113.09375 75.855469 C 111.46875 75.855469 110.152344 77.175781 110.152344 78.796875 L 110.152344 81.644531 L 131.230469 81.644531 Z M 131.230469 78.796875 " fill-opacity="1" fill-rule="nonzero"/></g><path fill="#e3e6e7" d="M 116.246094 103.664062 C 116.246094 104.597656 117.007812 105.359375 117.945312 105.359375 L 123.4375 105.359375 C 124.375 105.359375 125.136719 104.597656 125.136719 103.664062 L 125.136719 100.21875 C 125.136719 100.21875 125.132812 100.210938 125.132812 100.207031 C 125.132812 100.203125 125.136719 100.203125 125.136719 100.199219 L 125.136719 96.753906 C 125.136719 95.816406 124.375 95.054688 123.4375 95.054688 L 117.945312 95.054688 C 117.007812 95.054688 116.246094 95.816406 116.246094 96.753906 L 116.246094 100.199219 C 116.246094 100.199219 116.25 100.203125 116.25 100.207031 C 116.25 100.210938 116.246094 100.214844 116.246094 100.21875 Z M 116.246094 103.664062 " fill-opacity="1" fill-rule="nonzero"/><g clip-path="url(#6d59607f59)"><path fill="#e3e6e7" d="M 145.019531 83.59375 L 96.359375 83.59375 C 94.738281 83.59375 93.417969 84.910156 93.417969 86.535156 L 93.417969 96.292969 C 93.417969 97.914062 94.738281 99.234375 96.359375 99.234375 L 114.300781 99.234375 L 114.300781 96.753906 C 114.300781 94.746094 115.933594 93.109375 117.945312 93.109375 L 123.4375 93.109375 C 125.445312 93.109375 127.082031 94.742188 127.082031 96.753906 L 127.082031 99.234375 L 145.019531 99.234375 C 146.644531 99.234375 147.960938 97.914062 147.960938 96.292969 L 147.960938 86.535156 C 147.960938 84.910156 146.644531 83.59375 145.019531 83.59375 Z M 145.019531 83.59375 " fill-opacity="1" fill-rule="nonzero"/></g><path fill="#e3e6e7" d="M 96.78125 101.183594 L 96.78125 113.882812 C 96.78125 115.503906 98.101562 116.824219 99.722656 116.824219 L 141.660156 116.824219 C 143.28125 116.824219 144.601562 115.503906 144.601562 113.882812 L 144.601562 101.183594 L 127.082031 101.183594 L 127.082031 103.664062 C 127.082031 105.671875 125.445312 107.308594 123.4375 107.308594 L 117.945312 107.308594 C 115.933594 107.308594 114.296875 105.671875 114.296875 103.664062 L 114.296875 101.183594 Z M 96.78125 101.183594 " fill-opacity="1" fill-rule="nonzero"/><g clip-path="url(#bb86bc6b2e)"><path fill="#e3e6e7" d="M 174.011719 101.957031 C 174.011719 100.335938 172.691406 99.015625 171.070312 99.015625 L 155.875 99.015625 C 154.25 99.015625 152.929688 100.335938 152.929688 101.957031 L 152.929688 104.804688 L 174.011719 104.804688 Z M 174.011719 101.957031 " fill-opacity="1" fill-rule="nonzero"/></g><path fill="#e3e6e7" d="M 159.027344 126.824219 C 159.027344 127.757812 159.789062 128.519531 160.726562 128.519531 L 166.21875 128.519531 C 167.152344 128.519531 167.914062 127.757812 167.914062 126.824219 L 167.914062 123.378906 C 167.914062 123.378906 167.914062 123.371094 167.914062 123.367188 C 167.914062 123.363281 167.914062 123.363281 167.914062 123.359375 L 167.914062 119.914062 C 167.914062 118.976562 167.152344 118.214844 166.21875 118.214844 L 160.726562 118.214844 C 159.789062 118.214844 159.027344 118.976562 159.027344 119.914062 L 159.027344 123.359375 C 159.027344 123.359375 159.03125 123.363281 159.03125 123.367188 C 159.03125 123.371094 159.027344 123.375 159.027344 123.378906 Z M 159.027344 126.824219 " fill-opacity="1" fill-rule="nonzero"/><g clip-path="url(#929d61f92f)"><path fill="#e3e6e7" d="M 187.800781 106.75 L 139.140625 106.75 C 137.519531 106.75 136.199219 108.070312 136.199219 109.691406 L 136.199219 119.453125 C 136.199219 121.074219 137.519531 122.394531 139.140625 122.394531 L 157.078125 122.394531 L 157.078125 119.914062 C 157.078125 117.90625 158.714844 116.269531 160.726562 116.269531 L 166.21875 116.269531 C 168.226562 116.269531 169.863281 117.902344 169.863281 119.914062 L 169.863281 122.394531 L 187.800781 122.394531 C 189.421875 122.394531 190.742188 121.074219 190.742188 119.453125 L 190.742188 109.691406 C 190.742188 108.070312 189.421875 106.75 187.800781 106.75 Z M 187.800781 106.75 " fill-opacity="1" fill-rule="nonzero"/></g><path fill="#e3e6e7" d="M 139.558594 124.339844 L 139.558594 137.042969 C 139.558594 138.664062 140.878906 139.984375 142.5 139.984375 L 184.441406 139.984375 C 186.0625 139.984375 187.382812 138.664062 187.382812 137.042969 L 187.382812 124.339844 L 169.863281 124.339844 L 169.863281 126.824219 C 169.863281 128.832031 168.226562 130.46875 166.214844 130.46875 L 160.722656 130.46875 C 158.714844 130.46875 157.078125 128.832031 157.078125 126.824219 L 157.078125 124.339844 Z M 139.558594 124.339844 " fill-opacity="1" fill-rule="nonzero"/></svg>