<svg xmlns="http://www.w3.org/2000/svg" xmlns:xlink="http://www.w3.org/1999/xlink" width="1920" zoomAndPan="magnify" viewBox="0 0 1440 809.999993" height="1080" preserveAspectRatio="xMidYMid meet" version="1.0"><defs><clipPath id="c9121ce78d"><path d="M 542 183 L 987 183 L 987 493 L 542 493 Z M 542 183 " clip-rule="nonzero"/></clipPath><clipPath id="ae6b633e03"><path d="M 317.910156 272.136719 L 899.988281 21.492188 L 1122.160156 537.441406 L 540.082031 788.085938 Z M 317.910156 272.136719 " clip-rule="nonzero"/></clipPath><clipPath id="975b465113"><path d="M 317.910156 272.136719 L 899.988281 21.492188 L 1122.160156 537.441406 L 540.082031 788.085938 Z M 317.910156 272.136719 " clip-rule="nonzero"/></clipPath><clipPath id="ebb529f708"><path d="M 547 188 L 980 188 L 980 368 L 547 368 Z M 547 188 " clip-rule="nonzero"/></clipPath><clipPath id="71b5ece061"><path d="M 317.910156 272.136719 L 899.988281 21.492188 L 1122.160156 537.441406 L 540.082031 788.085938 Z M 317.910156 272.136719 " clip-rule="nonzero"/></clipPath><clipPath id="374d82cf1a"><path d="M 317.910156 272.136719 L 899.988281 21.492188 L 1122.160156 537.441406 L 540.082031 788.085938 Z M 317.910156 272.136719 " clip-rule="nonzero"/></clipPath><clipPath id="201f0d1736"><path d="M 529 191 L 545 191 L 545 207 L 529 207 Z M 529 191 " clip-rule="nonzero"/></clipPath><clipPath id="0cf41f74dd"><path d="M 317.910156 272.136719 L 899.988281 21.492188 L 1122.160156 537.441406 L 540.082031 788.085938 Z M 317.910156 272.136719 " clip-rule="nonzero"/></clipPath><clipPath id="7dcd910120"><path d="M 317.910156 272.136719 L 899.988281 21.492188 L 1122.160156 537.441406 L 540.082031 788.085938 Z M 317.910156 272.136719 " clip-rule="nonzero"/></clipPath><clipPath id="faa1997eef"><path d="M 530 187 L 545 187 L 545 200 L 530 200 Z M 530 187 " clip-rule="nonzero"/></clipPath><clipPath id="d347dffba7"><path d="M 317.910156 272.136719 L 899.988281 21.492188 L 1122.160156 537.441406 L 540.082031 788.085938 Z M 317.910156 272.136719 " clip-rule="nonzero"/></clipPath><clipPath id="5b71704ef5"><path d="M 317.910156 272.136719 L 899.988281 21.492188 L 1122.160156 537.441406 L 540.082031 788.085938 Z M 317.910156 272.136719 " clip-rule="nonzero"/></clipPath><clipPath id="6bc12721a6"><path d="M 530 183 L 544 183 L 544 195 L 530 195 Z M 530 183 " clip-rule="nonzero"/></clipPath><clipPath id="7dc45e1ef5"><path d="M 317.910156 272.136719 L 899.988281 21.492188 L 1122.160156 537.441406 L 540.082031 788.085938 Z M 317.910156 272.136719 " clip-rule="nonzero"/></clipPath><clipPath id="0bc3f3c89a"><path d="M 317.910156 272.136719 L 899.988281 21.492188 L 1122.160156 537.441406 L 540.082031 788.085938 Z M 317.910156 272.136719 " clip-rule="nonzero"/></clipPath><clipPath id="d713d618e8"><path d="M 531 180 L 542 180 L 542 190 L 531 190 Z M 531 180 " clip-rule="nonzero"/></clipPath><clipPath id="fc7e3ea369"><path d="M 317.910156 272.136719 L 899.988281 21.492188 L 1122.160156 537.441406 L 540.082031 788.085938 Z M 317.910156 272.136719 " clip-rule="nonzero"/></clipPath><clipPath id="8a0a1b9fe5"><path d="M 317.910156 272.136719 L 899.988281 21.492188 L 1122.160156 537.441406 L 540.082031 788.085938 Z M 317.910156 272.136719 " clip-rule="nonzero"/></clipPath><clipPath id="5760e9f29b"><path d="M 531 202 L 550 202 L 550 784 L 531 784 Z M 531 202 " clip-rule="nonzero"/></clipPath><clipPath id="f212d71212"><path d="M 317.910156 272.136719 L 899.988281 21.492188 L 1122.160156 537.441406 L 540.082031 788.085938 Z M 317.910156 272.136719 " clip-rule="nonzero"/></clipPath><clipPath id="9ef35e5aad"><path d="M 317.910156 272.136719 L 899.988281 21.492188 L 1122.160156 537.441406 L 540.082031 788.085938 Z M 317.910156 272.136719 " clip-rule="nonzero"/></clipPath><clipPath id="bcdf9eea23"><path d="M 569.429688 267.054688 L 651.929688 267.054688 L 651.929688 338.304688 L 569.429688 338.304688 Z M 569.429688 267.054688 " clip-rule="nonzero"/></clipPath><clipPath id="4e356cb992"><path d="M 0.675781 0.0585938 L 45.898438 0.0585938 L 45.898438 36.925781 L 0.675781 36.925781 Z M 0.675781 0.0585938 " clip-rule="nonzero"/></clipPath><clipPath id="61dde5d73e"><path d="M 0.675781 0.0585938 L 82.929688 0.0585938 L 82.929688 71.304688 L 0.675781 71.304688 Z M 0.675781 0.0585938 " clip-rule="nonzero"/></clipPath><clipPath id="a18d39274c"><rect x="0" width="83" y="0" height="72"/></clipPath><clipPath id="31bdacd372"><path d="M 784 388 L 913 388 L 913 429.074219 L 784 429.074219 Z M 784 388 " clip-rule="nonzero"/></clipPath><clipPath id="5d55316750"><path d="M 781.429688 319.574219 L 914.929688 319.574219 L 914.929688 383 L 781.429688 383 Z M 781.429688 319.574219 " clip-rule="nonzero"/></clipPath><clipPath id="4792c87fec"><path d="M 653 335 L 782 335 L 782 376.554688 L 653 376.554688 Z M 653 335 " clip-rule="nonzero"/></clipPath><clipPath id="38d24722ea"><path d="M 650.558594 267.054688 L 784.058594 267.054688 L 784.058594 330 L 650.558594 330 Z M 650.558594 267.054688 " clip-rule="nonzero"/></clipPath><clipPath id="0098f34770"><path d="M 818.710938 267.058594 L 863.929688 267.058594 L 863.929688 303.925781 L 818.710938 303.925781 Z M 818.710938 267.058594 " clip-rule="nonzero"/></clipPath><clipPath id="075daeba5c"><path d="M 781.429688 267.058594 L 863.929688 267.058594 L 863.929688 338.304688 L 781.429688 338.304688 Z M 781.429688 267.058594 " clip-rule="nonzero"/></clipPath></defs><rect x="-144" width="1728" fill="#ffffff" y="-80.999999" height="971.999992" fill-opacity="1"/><rect x="-144" width="1728" fill="#ffffff" y="-80.999999" height="971.999992" fill-opacity="1"/><g clip-path="url(#c9121ce78d)"><g clip-path="url(#ae6b633e03)"><g clip-path="url(#975b465113)"><path fill="#ff914d" d="M 669.445312 183.386719 C 644.347656 183.554688 610.410156 189.636719 581.78125 195.992188 C 566.542969 199.371094 552.886719 202.808594 542.742188 205.476562 L 545.074219 455.898438 C 555.191406 453.242188 568.660156 449.859375 583.695312 446.523438 C 611.398438 440.375 644.007812 434.449219 669.117188 433.90625 C 670.011719 433.886719 670.898438 433.871094 671.777344 433.867188 C 674.410156 433.851562 676.949219 433.898438 679.382812 434.015625 C 716.125 435.792969 750.769531 450.695312 785.3125 465.003906 C 819.859375 479.316406 854.292969 493.035156 890.578125 492.71875 C 911.621094 492.535156 942.269531 483.476562 967.558594 474.441406 C 974.277344 472.039062 980.570312 469.65625 986.265625 467.429688 L 983.933594 217.085938 C 978.417969 219.238281 972.332031 221.535156 965.886719 223.839844 C 940.515625 232.90625 909.84375 242.046875 888.246094 242.234375 C 851.449219 242.554688 816.757812 228.683594 782.203125 214.367188 C 747.640625 200.050781 713.199219 185.28125 676.941406 183.53125 C 674.550781 183.414062 672.050781 183.367188 669.453125 183.386719 Z M 669.445312 183.386719 " fill-opacity="1" fill-rule="evenodd"/></g></g></g><g clip-path="url(#ebb529f708)"><g clip-path="url(#71b5ece061)"><g clip-path="url(#374d82cf1a)"><path fill="#ff914d" d="M 670.042969 188.546875 C 672.257812 188.542969 674.476562 188.582031 676.691406 188.6875 C 712.679688 190.429688 747.375 205.53125 780.222656 219.140625 C 814.710938 233.429688 850.332031 247.730469 888.292969 247.398438 C 896.917969 247.324219 905.777344 245.992188 914.222656 244.285156 C 923.777344 242.355469 933.253906 239.816406 942.582031 236.996094 C 951 234.457031 959.34375 231.660156 967.621094 228.703125 C 971.375 227.363281 975.113281 225.984375 978.839844 224.578125 L 979.953125 344.363281 C 975.972656 345.878906 971.757812 347.441406 967.378906 349.007812 C 942.007812 358.074219 911.339844 367.214844 889.742188 367.402344 C 852.941406 367.722656 818.25 353.855469 783.695312 339.535156 C 749.136719 325.21875 714.695312 310.449219 678.4375 308.699219 C 676.046875 308.582031 673.542969 308.535156 670.945312 308.554688 L 670.941406 308.554688 C 645.839844 308.722656 611.90625 314.804688 583.273438 321.160156 C 570.335938 324.03125 558.535156 326.941406 549.058594 329.386719 L 547.945312 209.457031 C 559.542969 206.449219 571.199219 203.628906 582.898438 201.035156 C 593.160156 198.757812 603.46875 196.648438 613.816406 194.796875 C 623.535156 193.054688 633.3125 191.523438 643.121094 190.375 C 651.839844 189.359375 660.699219 188.609375 669.480469 188.550781 Z M 670.042969 188.546875 " fill-opacity="1" fill-rule="evenodd"/></g></g></g><g clip-path="url(#201f0d1736)"><g clip-path="url(#0cf41f74dd)"><g clip-path="url(#7dcd910120)"><path fill="#71625b" d="M 529.234375 199.035156 C 529.242188 199.507812 529.296875 199.976562 529.402344 200.4375 C 529.511719 200.902344 529.664062 201.347656 529.867188 201.785156 C 530.070312 202.21875 530.316406 202.632812 530.609375 203.019531 C 530.898438 203.410156 531.230469 203.769531 531.597656 204.101562 C 531.96875 204.429688 532.367188 204.722656 532.800781 204.980469 C 533.234375 205.238281 533.6875 205.457031 534.167969 205.632812 C 534.648438 205.808594 535.140625 205.9375 535.648438 206.023438 C 536.15625 206.109375 536.667969 206.148438 537.183594 206.144531 C 537.699219 206.136719 538.210938 206.085938 538.714844 205.988281 C 539.21875 205.890625 539.710938 205.746094 540.183594 205.558594 C 540.660156 205.371094 541.109375 205.144531 541.535156 204.878906 C 541.960938 204.609375 542.355469 204.304688 542.714844 203.96875 C 543.074219 203.628906 543.398438 203.261719 543.679688 202.863281 C 543.960938 202.46875 544.199219 202.050781 544.390625 201.609375 C 544.582031 201.171875 544.726562 200.71875 544.820312 200.253906 C 544.917969 199.789062 544.960938 199.320312 544.957031 198.847656 C 544.949219 198.375 544.894531 197.90625 544.789062 197.445312 C 544.683594 196.980469 544.527344 196.53125 544.324219 196.097656 C 544.121094 195.664062 543.875 195.25 543.582031 194.859375 C 543.292969 194.472656 542.960938 194.113281 542.59375 193.78125 C 542.222656 193.453125 541.824219 193.15625 541.390625 192.898438 C 540.960938 192.640625 540.503906 192.425781 540.023438 192.25 C 539.546875 192.074219 539.050781 191.945312 538.546875 191.859375 C 538.039062 191.773438 537.527344 191.730469 537.011719 191.738281 C 536.496094 191.746094 535.984375 191.796875 535.476562 191.894531 C 534.972656 191.992188 534.484375 192.136719 534.007812 192.324219 C 533.535156 192.507812 533.082031 192.738281 532.65625 193.003906 C 532.230469 193.273438 531.839844 193.574219 531.476562 193.914062 C 531.117188 194.253906 530.796875 194.621094 530.511719 195.015625 C 530.230469 195.414062 529.992188 195.832031 529.800781 196.269531 C 529.609375 196.710938 529.464844 197.164062 529.371094 197.628906 C 529.273438 198.09375 529.230469 198.5625 529.234375 199.035156 Z M 529.234375 199.035156 " fill-opacity="1" fill-rule="nonzero"/></g></g></g><g clip-path="url(#faa1997eef)"><g clip-path="url(#d347dffba7)"><g clip-path="url(#5b71704ef5)"><path fill="#71625b" d="M 530.03125 193.65625 C 530.039062 194.074219 530.085938 194.492188 530.183594 194.90625 C 530.277344 195.316406 530.414062 195.714844 530.59375 196.101562 C 530.773438 196.492188 530.996094 196.855469 531.253906 197.203125 C 531.515625 197.550781 531.808594 197.871094 532.136719 198.167969 C 532.464844 198.460938 532.820312 198.722656 533.207031 198.953125 C 533.59375 199.179688 533.996094 199.375 534.425781 199.53125 C 534.851562 199.6875 535.289062 199.800781 535.742188 199.878906 C 536.195312 199.957031 536.648438 199.992188 537.109375 199.984375 C 537.570312 199.980469 538.023438 199.933594 538.472656 199.847656 C 538.921875 199.757812 539.359375 199.632812 539.78125 199.464844 C 540.203125 199.300781 540.605469 199.097656 540.984375 198.859375 C 541.363281 198.621094 541.714844 198.351562 542.035156 198.046875 C 542.359375 197.746094 542.644531 197.417969 542.894531 197.066406 C 543.148438 196.710938 543.359375 196.339844 543.53125 195.949219 C 543.699219 195.558594 543.828125 195.15625 543.914062 194.742188 C 543.996094 194.328125 544.039062 193.910156 544.03125 193.488281 C 544.027344 193.066406 543.976562 192.648438 543.882812 192.238281 C 543.789062 191.824219 543.652344 191.425781 543.46875 191.039062 C 543.289062 190.652344 543.070312 190.285156 542.808594 189.9375 C 542.550781 189.589844 542.257812 189.269531 541.929688 188.976562 C 541.601562 188.683594 541.242188 188.421875 540.859375 188.191406 C 540.472656 187.960938 540.066406 187.769531 539.640625 187.613281 C 539.214844 187.457031 538.773438 187.339844 538.324219 187.261719 C 537.871094 187.1875 537.414062 187.152344 536.957031 187.15625 C 536.496094 187.160156 536.042969 187.207031 535.589844 187.296875 C 535.140625 187.382812 534.707031 187.511719 534.28125 187.675781 C 533.859375 187.84375 533.460938 188.046875 533.078125 188.285156 C 532.699219 188.523438 532.351562 188.792969 532.027344 189.09375 C 531.707031 189.394531 531.421875 189.722656 531.167969 190.078125 C 530.917969 190.429688 530.707031 190.800781 530.535156 191.195312 C 530.363281 191.585938 530.238281 191.988281 530.152344 192.402344 C 530.066406 192.816406 530.027344 193.234375 530.03125 193.65625 Z M 530.03125 193.65625 " fill-opacity="1" fill-rule="nonzero"/></g></g></g><g clip-path="url(#6bc12721a6)"><g clip-path="url(#7dc45e1ef5)"><g clip-path="url(#0bc3f3c89a)"><path fill="#71625b" d="M 530.804688 189.300781 C 530.808594 189.671875 530.851562 190.039062 530.933594 190.402344 C 531.019531 190.765625 531.140625 191.121094 531.300781 191.460938 C 531.457031 191.804688 531.652344 192.125 531.882812 192.433594 C 532.109375 192.738281 532.371094 193.023438 532.660156 193.28125 C 532.949219 193.542969 533.265625 193.773438 533.605469 193.972656 C 533.945312 194.175781 534.300781 194.347656 534.679688 194.484375 C 535.054688 194.621094 535.441406 194.726562 535.839844 194.792969 C 536.238281 194.859375 536.640625 194.890625 537.046875 194.886719 C 537.453125 194.882812 537.855469 194.839844 538.25 194.765625 C 538.648438 194.6875 539.035156 194.574219 539.40625 194.429688 C 539.777344 194.28125 540.132812 194.101562 540.46875 193.890625 C 540.800781 193.683594 541.113281 193.445312 541.394531 193.175781 C 541.679688 192.910156 541.933594 192.621094 542.152344 192.308594 C 542.375 192 542.5625 191.671875 542.710938 191.324219 C 542.863281 190.980469 542.976562 190.625 543.050781 190.257812 C 543.125 189.894531 543.160156 189.523438 543.15625 189.152344 C 543.152344 188.78125 543.109375 188.414062 543.023438 188.050781 C 542.941406 187.6875 542.820312 187.335938 542.660156 186.992188 C 542.5 186.652344 542.308594 186.328125 542.078125 186.019531 C 541.847656 185.714844 541.589844 185.433594 541.300781 185.171875 C 541.011719 184.914062 540.695312 184.683594 540.355469 184.480469 C 540.015625 184.277344 539.65625 184.109375 539.28125 183.96875 C 538.90625 183.832031 538.515625 183.730469 538.117188 183.660156 C 537.71875 183.59375 537.316406 183.5625 536.914062 183.566406 C 536.507812 183.570312 536.105469 183.613281 535.707031 183.691406 C 535.3125 183.765625 534.925781 183.878906 534.554688 184.027344 C 534.179688 184.171875 533.828125 184.351562 533.492188 184.5625 C 533.15625 184.773438 532.847656 185.011719 532.566406 185.277344 C 532.28125 185.542969 532.027344 185.832031 531.808594 186.144531 C 531.585938 186.457031 531.398438 186.785156 531.246094 187.128906 C 531.097656 187.476562 530.984375 187.828125 530.910156 188.195312 C 530.835938 188.5625 530.800781 188.929688 530.804688 189.300781 Z M 530.804688 189.300781 " fill-opacity="1" fill-rule="nonzero"/></g></g></g><g clip-path="url(#d713d618e8)"><g clip-path="url(#fc7e3ea369)"><g clip-path="url(#8a0a1b9fe5)"><path fill="#71625b" d="M 531.984375 184.726562 C 531.988281 185.023438 532.023438 185.320312 532.089844 185.609375 C 532.15625 185.902344 532.253906 186.183594 532.382812 186.457031 C 532.507812 186.730469 532.664062 186.988281 532.847656 187.234375 C 533.03125 187.476562 533.238281 187.703125 533.472656 187.910156 C 533.703125 188.121094 533.953125 188.304688 534.226562 188.464844 C 534.5 188.628906 534.785156 188.765625 535.085938 188.875 C 535.386719 188.984375 535.695312 189.066406 536.015625 189.121094 C 536.335938 189.175781 536.65625 189.199219 536.980469 189.195312 C 537.304688 189.191406 537.625 189.160156 537.945312 189.097656 C 538.261719 189.035156 538.570312 188.945312 538.867188 188.828125 C 539.164062 188.710938 539.449219 188.570312 539.71875 188.402344 C 539.984375 188.230469 540.230469 188.042969 540.457031 187.828125 C 540.6875 187.617188 540.886719 187.382812 541.066406 187.136719 C 541.242188 186.886719 541.390625 186.621094 541.511719 186.347656 C 541.632812 186.070312 541.722656 185.785156 541.785156 185.492188 C 541.84375 185.203125 541.871094 184.90625 541.867188 184.609375 C 541.863281 184.3125 541.828125 184.019531 541.761719 183.726562 C 541.695312 183.4375 541.597656 183.152344 541.472656 182.878906 C 541.34375 182.609375 541.1875 182.347656 541.003906 182.101562 C 540.820312 181.859375 540.613281 181.632812 540.382812 181.425781 C 540.148438 181.21875 539.898438 181.03125 539.625 180.871094 C 539.355469 180.707031 539.070312 180.574219 538.765625 180.460938 C 538.464844 180.351562 538.15625 180.269531 537.835938 180.214844 C 537.519531 180.160156 537.195312 180.136719 536.871094 180.140625 C 536.546875 180.144531 536.226562 180.175781 535.910156 180.238281 C 535.59375 180.300781 535.285156 180.390625 534.984375 180.507812 C 534.6875 180.625 534.402344 180.769531 534.136719 180.9375 C 533.867188 181.105469 533.621094 181.296875 533.394531 181.507812 C 533.167969 181.722656 532.964844 181.953125 532.789062 182.203125 C 532.609375 182.449219 532.460938 182.714844 532.339844 182.988281 C 532.21875 183.265625 532.128906 183.550781 532.070312 183.84375 C 532.011719 184.136719 531.980469 184.429688 531.984375 184.726562 Z M 531.984375 184.726562 " fill-opacity="1" fill-rule="nonzero"/></g></g></g><g clip-path="url(#5760e9f29b)"><g clip-path="url(#f212d71212)"><g clip-path="url(#9ef35e5aad)"><path fill="#71625b" d="M 542.886719 202.078125 L 531.378906 202.214844 L 538.332031 783.964844 L 549.839844 783.828125 Z M 542.886719 202.078125 " fill-opacity="1" fill-rule="evenodd"/></g></g></g><g clip-path="url(#bcdf9eea23)"><g transform="matrix(1, 0, 0, 1, 569, 267)"><g clip-path="url(#a18d39274c)"><path fill="#ff751f" d="M 76.734375 69.300781 C 76.734375 69.300781 76.640625 69.167969 76.46875 68.921875 C 76.425781 68.859375 76.378906 68.789062 76.324219 68.714844 C 76.261719 68.640625 76.199219 68.5625 76.128906 68.480469 C 76.054688 68.394531 75.976562 68.300781 75.894531 68.203125 C 75.8125 68.101562 75.714844 68.015625 75.613281 67.910156 C 75.511719 67.808594 75.40625 67.699219 75.292969 67.585938 C 75.175781 67.476562 75.046875 67.375 74.914062 67.257812 C 74.78125 67.148438 74.644531 67.019531 74.492188 66.914062 C 74.335938 66.804688 74.175781 66.691406 74.007812 66.574219 C 73.925781 66.519531 73.84375 66.453125 73.75 66.398438 C 73.660156 66.347656 73.570312 66.292969 73.476562 66.238281 C 73.285156 66.132812 73.09375 66.015625 72.890625 65.910156 C 72.683594 65.808594 72.46875 65.710938 72.25 65.613281 C 72.136719 65.5625 72.027344 65.507812 71.914062 65.460938 C 71.796875 65.421875 71.679688 65.378906 71.558594 65.335938 C 71.324219 65.25 71.078125 65.160156 70.828125 65.082031 C 70.570312 65.015625 70.3125 64.945312 70.046875 64.878906 C 69.914062 64.84375 69.78125 64.804688 69.644531 64.777344 C 69.507812 64.753906 69.371094 64.730469 69.234375 64.707031 C 68.953125 64.664062 68.671875 64.617188 68.382812 64.570312 C 67.234375 64.453125 66.007812 64.394531 64.757812 64.507812 C 64.449219 64.53125 64.132812 64.550781 63.8125 64.582031 C 63.5 64.628906 63.1875 64.679688 62.867188 64.726562 C 62.710938 64.75 62.550781 64.773438 62.390625 64.800781 C 62.230469 64.824219 62.070312 64.84375 61.914062 64.882812 C 61.597656 64.953125 61.28125 65.027344 60.964844 65.097656 C 60.804688 65.132812 60.648438 65.171875 60.488281 65.207031 C 60.328125 65.242188 60.167969 65.28125 60.011719 65.328125 C 59.699219 65.417969 59.382812 65.507812 59.070312 65.605469 C 58.765625 65.695312 58.457031 65.789062 58.152344 65.882812 L 57.246094 66.167969 C 57.089844 66.21875 56.953125 66.253906 56.804688 66.296875 L 56.375 66.421875 C 56.09375 66.507812 55.796875 66.582031 55.5 66.65625 C 55.207031 66.734375 54.914062 66.808594 54.621094 66.875 C 54.324219 66.941406 54.035156 67.019531 53.738281 67.074219 C 53.152344 67.191406 52.566406 67.296875 51.988281 67.394531 C 51.699219 67.4375 51.410156 67.480469 51.125 67.519531 C 50.835938 67.554688 50.550781 67.589844 50.269531 67.621094 C 49.132812 67.742188 48.03125 67.800781 46.980469 67.800781 C 46.71875 67.808594 46.457031 67.796875 46.203125 67.796875 C 45.945312 67.792969 45.695312 67.773438 45.449219 67.769531 C 45.199219 67.757812 44.957031 67.738281 44.71875 67.726562 C 44.476562 67.703125 44.242188 67.683594 44.011719 67.664062 C 43.09375 67.578125 42.25 67.445312 41.503906 67.304688 C 40.757812 67.164062 40.109375 67.003906 39.578125 66.859375 C 38.511719 66.5625 37.914062 66.316406 37.914062 66.316406 C 37.914062 66.316406 37.941406 66.34375 38 66.394531 C 38.058594 66.449219 38.148438 66.523438 38.269531 66.617188 C 38.507812 66.804688 38.871094 67.066406 39.355469 67.363281 C 39.84375 67.660156 40.453125 67.988281 41.183594 68.3125 C 41.914062 68.636719 42.761719 68.953125 43.714844 69.222656 C 43.953125 69.289062 44.195312 69.351562 44.445312 69.414062 C 44.695312 69.472656 44.953125 69.535156 45.210938 69.589844 C 45.734375 69.695312 46.28125 69.78125 46.84375 69.859375 C 47.972656 70.003906 49.175781 70.074219 50.417969 70.046875 C 50.726562 70.035156 51.042969 70.027344 51.355469 70.011719 C 51.671875 69.984375 51.988281 69.960938 52.304688 69.9375 C 52.625 69.902344 52.945312 69.867188 53.265625 69.832031 C 53.585938 69.789062 53.902344 69.730469 54.226562 69.683594 C 54.550781 69.636719 54.867188 69.566406 55.191406 69.507812 C 55.351562 69.472656 55.511719 69.445312 55.671875 69.410156 L 56.152344 69.296875 C 56.472656 69.21875 56.792969 69.148438 57.117188 69.050781 L 57.601562 68.914062 C 57.761719 68.867188 57.933594 68.824219 58.078125 68.777344 C 58.679688 68.582031 59.28125 68.390625 59.878906 68.195312 C 60.171875 68.105469 60.460938 68.011719 60.75 67.914062 C 60.890625 67.863281 61.035156 67.824219 61.183594 67.785156 C 61.328125 67.746094 61.472656 67.707031 61.617188 67.667969 C 61.90625 67.589844 62.191406 67.511719 62.480469 67.433594 C 62.621094 67.390625 62.765625 67.363281 62.910156 67.332031 C 63.050781 67.300781 63.195312 67.269531 63.335938 67.238281 C 63.625 67.175781 63.90625 67.113281 64.1875 67.050781 C 64.472656 67.007812 64.75 66.957031 65.03125 66.914062 C 65.171875 66.886719 65.308594 66.867188 65.445312 66.84375 C 65.515625 66.832031 65.585938 66.816406 65.65625 66.808594 L 65.859375 66.789062 C 66.132812 66.765625 66.40625 66.734375 66.675781 66.703125 C 66.8125 66.691406 66.945312 66.667969 67.078125 66.664062 C 67.210938 66.660156 67.34375 66.65625 67.476562 66.652344 C 67.738281 66.640625 68 66.628906 68.257812 66.617188 C 68.511719 66.625 68.765625 66.632812 69.015625 66.636719 C 69.140625 66.640625 69.265625 66.644531 69.386719 66.644531 C 69.511719 66.65625 69.628906 66.667969 69.75 66.679688 C 69.992188 66.703125 70.230469 66.722656 70.460938 66.746094 C 70.691406 66.78125 70.917969 66.820312 71.140625 66.855469 C 71.25 66.875 71.359375 66.890625 71.46875 66.910156 C 71.578125 66.929688 71.683594 66.960938 71.789062 66.984375 C 71.996094 67.035156 72.199219 67.089844 72.402344 67.132812 C 72.601562 67.191406 72.792969 67.257812 72.980469 67.316406 C 73.074219 67.347656 73.164062 67.375 73.257812 67.40625 C 73.347656 67.433594 73.433594 67.472656 73.519531 67.507812 C 73.691406 67.574219 73.859375 67.640625 74.023438 67.707031 C 74.105469 67.738281 74.179688 67.777344 74.257812 67.8125 C 74.332031 67.851562 74.40625 67.886719 74.480469 67.921875 C 74.625 67.992188 74.773438 68.054688 74.902344 68.128906 C 75.035156 68.203125 75.160156 68.273438 75.277344 68.339844 C 75.523438 68.46875 75.71875 68.605469 75.902344 68.722656 C 75.992188 68.78125 76.078125 68.832031 76.152344 68.882812 C 76.226562 68.9375 76.296875 68.988281 76.355469 69.03125 C 76.601562 69.207031 76.734375 69.300781 76.734375 69.300781 " fill-opacity="1" fill-rule="nonzero"/><path fill="#ff751f" d="M 37.882812 66.296875 C 38.285156 66.324219 38.683594 66.335938 39.085938 66.351562 C 39.488281 66.367188 39.886719 66.394531 40.289062 66.382812 C 40.695312 66.375 41.097656 66.363281 41.503906 66.355469 C 41.707031 66.347656 41.910156 66.34375 42.113281 66.332031 L 42.714844 66.285156 C 43.121094 66.257812 43.523438 66.222656 43.925781 66.1875 C 44.328125 66.140625 44.730469 66.089844 45.132812 66.035156 L 45.738281 65.953125 L 46.339844 65.847656 C 46.738281 65.777344 47.140625 65.703125 47.539062 65.625 L 48.734375 65.355469 C 48.933594 65.3125 49.128906 65.257812 49.328125 65.203125 L 49.917969 65.042969 C 50.117188 64.988281 50.3125 64.9375 50.507812 64.878906 L 51.097656 64.695312 L 51.683594 64.507812 L 52.261719 64.300781 L 52.84375 64.09375 C 53.035156 64.019531 53.226562 63.941406 53.417969 63.863281 C 53.609375 63.785156 53.800781 63.714844 53.992188 63.628906 L 54.558594 63.378906 C 54.75 63.300781 54.9375 63.207031 55.125 63.121094 C 55.316406 63.03125 55.503906 62.941406 55.691406 62.84375 C 55.875 62.746094 56.0625 62.652344 56.25 62.542969 C 56.34375 62.492188 56.4375 62.445312 56.53125 62.386719 C 56.628906 62.328125 56.714844 62.28125 56.835938 62.207031 L 63.058594 58.253906 L 55.789062 59.910156 C 55.117188 60.0625 54.445312 60.214844 53.773438 60.378906 L 51.753906 60.785156 C 51.078125 60.898438 50.40625 61.027344 49.726562 61.128906 L 48.710938 61.269531 L 48.203125 61.34375 C 48.035156 61.367188 47.863281 61.382812 47.695312 61.402344 L 46.675781 61.515625 L 46.421875 61.542969 L 46.167969 61.558594 L 45.65625 61.59375 C 45.316406 61.621094 44.976562 61.65625 44.636719 61.671875 L 43.617188 61.714844 C 43.445312 61.722656 43.277344 61.734375 43.105469 61.734375 C 42.9375 61.734375 42.765625 61.734375 42.597656 61.738281 C 42.257812 61.738281 41.914062 61.75 41.574219 61.746094 C 40.894531 61.726562 40.214844 61.714844 39.539062 61.667969 C 38.855469 61.644531 38.183594 61.5625 37.507812 61.5 L 36.492188 61.371094 C 36.15625 61.328125 35.824219 61.261719 35.488281 61.210938 C 35.148438 61.164062 34.816406 61.089844 34.480469 61.023438 C 34.316406 60.992188 34.148438 60.960938 33.980469 60.925781 L 33.484375 60.804688 L 32.984375 60.691406 L 32.492188 60.558594 L 31.996094 60.425781 L 31.011719 60.128906 L 30.527344 59.964844 C 30.199219 59.859375 29.882812 59.734375 29.558594 59.617188 C 28.914062 59.371094 28.28125 59.101562 27.65625 58.808594 C 27.027344 58.515625 26.414062 58.191406 25.808594 57.84375 C 25.65625 57.757812 25.511719 57.664062 25.359375 57.574219 C 25.207031 57.484375 25.0625 57.386719 24.914062 57.292969 C 24.621094 57.097656 24.332031 56.898438 24.054688 56.679688 C 24.261719 56.96875 24.5 57.234375 24.742188 57.5 C 24.984375 57.757812 25.238281 58.015625 25.503906 58.253906 C 25.765625 58.5 26.039062 58.734375 26.320312 58.960938 L 26.742188 59.296875 C 26.886719 59.40625 27.03125 59.507812 27.175781 59.617188 C 27.320312 59.722656 27.46875 59.824219 27.621094 59.925781 C 27.769531 60.023438 27.917969 60.128906 28.070312 60.226562 L 28.53125 60.511719 L 28.761719 60.652344 L 29 60.789062 L 29.472656 61.054688 C 29.628906 61.144531 29.792969 61.222656 29.953125 61.304688 L 30.4375 61.554688 L 30.929688 61.785156 L 31.425781 62.007812 L 31.929688 62.214844 L 32.4375 62.417969 L 32.949219 62.605469 L 33.460938 62.789062 C 33.632812 62.847656 33.808594 62.898438 33.980469 62.953125 C 34.328125 63.058594 34.675781 63.175781 35.027344 63.261719 C 35.382812 63.351562 35.730469 63.453125 36.085938 63.53125 L 37.15625 63.761719 C 37.511719 63.832031 37.871094 63.882812 38.230469 63.945312 C 38.589844 64.011719 38.949219 64.050781 39.3125 64.097656 C 40.03125 64.203125 40.757812 64.242188 41.484375 64.300781 C 41.847656 64.324219 42.210938 64.328125 42.574219 64.34375 C 42.9375 64.359375 43.300781 64.367188 43.660156 64.359375 L 44.75 64.34375 C 45.113281 64.339844 45.476562 64.3125 45.835938 64.296875 L 46.378906 64.261719 L 46.652344 64.246094 L 46.921875 64.21875 L 48 64.113281 C 48.722656 64.050781 49.433594 63.925781 50.152344 63.824219 C 50.328125 63.800781 50.507812 63.769531 50.683594 63.734375 L 51.214844 63.636719 L 52.28125 63.4375 L 54.382812 62.949219 C 55.078125 62.765625 55.769531 62.570312 56.460938 62.375 L 55.414062 60.078125 C 55.367188 60.113281 55.28125 60.167969 55.207031 60.214844 C 55.136719 60.265625 55.054688 60.3125 54.976562 60.363281 C 54.820312 60.460938 54.65625 60.554688 54.496094 60.648438 C 54.332031 60.746094 54.164062 60.835938 54 60.929688 C 53.832031 61.023438 53.667969 61.117188 53.496094 61.207031 L 52.988281 61.472656 C 52.816406 61.5625 52.640625 61.640625 52.46875 61.726562 L 51.949219 61.980469 L 51.421875 62.21875 L 50.894531 62.460938 L 50.359375 62.6875 L 49.820312 62.914062 C 49.640625 62.988281 49.460938 63.054688 49.277344 63.125 L 48.734375 63.339844 C 48.550781 63.410156 48.371094 63.480469 48.1875 63.542969 L 47.082031 63.9375 C 46.710938 64.0625 46.335938 64.171875 45.964844 64.296875 L 45.402344 64.480469 L 44.835938 64.640625 L 43.699219 64.972656 C 43.320312 65.070312 42.933594 65.164062 42.554688 65.265625 L 41.976562 65.414062 C 41.785156 65.460938 41.59375 65.5 41.398438 65.546875 C 41.015625 65.632812 40.628906 65.71875 40.238281 65.8125 L 39.949219 65.878906 L 39.652344 65.933594 L 39.0625 66.054688 C 38.667969 66.132812 38.273438 66.210938 37.882812 66.296875 " fill-opacity="1" fill-rule="nonzero"/><path fill="#ff751f" d="M 24.054688 56.679688 C 24.507812 56.765625 24.960938 56.84375 25.417969 56.921875 C 25.644531 56.960938 25.871094 57 26.097656 57.035156 L 26.441406 57.089844 L 26.785156 57.132812 L 28.167969 57.292969 C 28.398438 57.316406 28.628906 57.347656 28.859375 57.359375 L 29.554688 57.410156 L 30.941406 57.496094 C 31.40625 57.511719 31.871094 57.515625 32.335938 57.527344 C 32.566406 57.53125 32.800781 57.539062 33.03125 57.539062 L 33.730469 57.527344 C 34.195312 57.511719 34.660156 57.511719 35.128906 57.492188 L 36.523438 57.410156 C 36.753906 57.398438 36.988281 57.371094 37.21875 57.351562 L 37.917969 57.289062 C 38.382812 57.246094 38.847656 57.183594 39.308594 57.125 L 40.007812 57.039062 L 40.699219 56.925781 L 41.394531 56.8125 L 42.085938 56.683594 C 42.546875 56.597656 43.007812 56.5 43.46875 56.394531 C 43.699219 56.34375 43.925781 56.285156 44.15625 56.230469 C 44.386719 56.171875 44.617188 56.117188 44.847656 56.050781 C 45.074219 55.988281 45.304688 55.925781 45.535156 55.855469 C 45.652344 55.820312 45.765625 55.792969 45.886719 55.753906 C 46.007812 55.714844 46.113281 55.679688 46.253906 55.628906 L 55.519531 52.355469 L 45.65625 53.09375 L 43.558594 53.25 L 41.464844 53.359375 C 40.765625 53.386719 40.070312 53.390625 39.371094 53.410156 C 38.671875 53.414062 37.976562 53.414062 37.28125 53.410156 L 36.238281 53.371094 C 35.890625 53.363281 35.539062 53.359375 35.195312 53.332031 C 34.5 53.289062 33.804688 53.261719 33.117188 53.1875 C 32.769531 53.15625 32.425781 53.128906 32.078125 53.09375 L 31.046875 52.964844 C 30.875 52.941406 30.703125 52.925781 30.53125 52.898438 L 30.019531 52.820312 C 29.679688 52.765625 29.332031 52.722656 28.992188 52.660156 C 28.3125 52.53125 27.632812 52.410156 26.957031 52.25 L 26.449219 52.140625 L 25.949219 52.007812 L 25.449219 51.878906 L 25.195312 51.816406 L 24.945312 51.742188 C 24.617188 51.644531 24.28125 51.550781 23.953125 51.445312 C 23.625 51.335938 23.296875 51.226562 22.96875 51.121094 L 21.992188 50.757812 L 21.03125 50.367188 L 20.082031 49.9375 C 19.773438 49.777344 19.453125 49.636719 19.148438 49.472656 C 18.839844 49.304688 18.53125 49.144531 18.234375 48.964844 C 18.082031 48.878906 17.929688 48.792969 17.78125 48.699219 L 17.335938 48.421875 C 16.75 48.042969 16.175781 47.636719 15.621094 47.195312 C 15.074219 46.753906 14.539062 46.285156 14.0625 45.746094 C 14.21875 46.070312 14.414062 46.378906 14.621094 46.675781 C 14.824219 46.976562 15.042969 47.265625 15.273438 47.546875 C 15.738281 48.109375 16.246094 48.636719 16.78125 49.136719 C 17.320312 49.632812 17.890625 50.097656 18.480469 50.53125 C 18.628906 50.644531 18.78125 50.746094 18.929688 50.851562 L 19.386719 51.164062 C 19.695312 51.363281 20.007812 51.558594 20.320312 51.75 C 20.640625 51.933594 20.957031 52.117188 21.28125 52.292969 L 22.265625 52.796875 C 22.597656 52.953125 22.933594 53.105469 23.269531 53.257812 C 23.609375 53.402344 23.953125 53.535156 24.292969 53.675781 C 24.632812 53.820312 24.984375 53.933594 25.328125 54.058594 L 25.851562 54.238281 L 26.90625 54.566406 C 27.082031 54.621094 27.257812 54.675781 27.4375 54.71875 L 28.503906 54.996094 C 28.863281 55.082031 29.222656 55.15625 29.582031 55.234375 L 30.121094 55.351562 C 30.300781 55.386719 30.480469 55.414062 30.660156 55.449219 L 31.746094 55.632812 C 32.109375 55.6875 32.472656 55.730469 32.835938 55.78125 C 33.5625 55.886719 34.292969 55.933594 35.023438 56.003906 C 35.75 56.066406 36.480469 56.089844 37.210938 56.125 C 37.941406 56.136719 38.671875 56.144531 39.402344 56.148438 C 40.128906 56.128906 40.859375 56.109375 41.585938 56.078125 C 42.3125 56.03125 43.039062 55.992188 43.761719 55.929688 L 45.929688 55.707031 L 45.332031 53.167969 L 45.050781 53.273438 C 44.953125 53.308594 44.847656 53.34375 44.746094 53.378906 C 44.542969 53.453125 44.332031 53.519531 44.121094 53.585938 C 43.914062 53.65625 43.699219 53.71875 43.488281 53.78125 C 43.273438 53.84375 43.0625 53.910156 42.847656 53.964844 C 42.417969 54.082031 41.992188 54.207031 41.554688 54.316406 L 40.90625 54.480469 L 40.25 54.632812 L 39.597656 54.785156 L 38.9375 54.925781 C 38.496094 55.019531 38.058594 55.117188 37.613281 55.191406 C 37.171875 55.269531 36.730469 55.367188 36.285156 55.4375 L 34.945312 55.65625 C 34.5 55.730469 34.050781 55.78125 33.605469 55.847656 L 32.929688 55.941406 C 32.707031 55.972656 32.480469 55.996094 32.253906 56.023438 C 31.804688 56.074219 31.355469 56.121094 30.902344 56.179688 L 29.542969 56.304688 L 28.863281 56.371094 C 28.632812 56.398438 28.410156 56.40625 28.179688 56.421875 L 26.8125 56.519531 L 26.472656 56.546875 L 26.125 56.5625 C 25.898438 56.570312 25.667969 56.585938 25.4375 56.597656 C 24.976562 56.625 24.515625 56.644531 24.054688 56.679688 " fill-opacity="1" fill-rule="nonzero"/><path fill="#ff751f" d="M 14.0625 45.746094 C 14.320312 45.875 14.578125 46.003906 14.839844 46.128906 C 15.101562 46.25 15.375 46.351562 15.640625 46.46875 C 15.910156 46.585938 16.1875 46.675781 16.460938 46.769531 L 16.875 46.914062 C 17.015625 46.960938 17.152344 46.996094 17.292969 47.039062 L 17.714844 47.164062 C 17.855469 47.203125 17.996094 47.242188 18.136719 47.277344 L 18.988281 47.484375 C 19.558594 47.601562 20.132812 47.726562 20.707031 47.816406 C 21.285156 47.917969 21.863281 47.984375 22.445312 48.058594 C 23.023438 48.125 23.605469 48.179688 24.1875 48.21875 C 24.773438 48.269531 25.355469 48.292969 25.9375 48.316406 C 26.519531 48.332031 27.105469 48.347656 27.6875 48.347656 C 27.980469 48.351562 28.273438 48.347656 28.5625 48.339844 C 28.855469 48.335938 29.148438 48.335938 29.4375 48.324219 L 30.3125 48.296875 L 31.183594 48.253906 C 31.765625 48.21875 32.347656 48.183594 32.929688 48.132812 C 33.507812 48.089844 34.089844 48.035156 34.667969 47.972656 C 35.246094 47.910156 35.824219 47.84375 36.402344 47.773438 C 36.980469 47.699219 37.558594 47.621094 38.136719 47.53125 C 38.710938 47.441406 39.285156 47.347656 39.863281 47.25 L 40.726562 47.09375 C 41.019531 47.039062 41.296875 46.984375 41.601562 46.917969 L 53.355469 44.359375 L 41.269531 44.320312 L 39.972656 44.316406 L 39.320312 44.3125 C 39.105469 44.3125 38.890625 44.3125 38.671875 44.300781 C 38.242188 44.285156 37.808594 44.265625 37.378906 44.253906 L 36.730469 44.234375 C 36.515625 44.222656 36.300781 44.203125 36.085938 44.1875 L 34.792969 44.097656 C 34.6875 44.089844 34.578125 44.082031 34.472656 44.074219 L 34.148438 44.035156 L 33.507812 43.96875 L 32.863281 43.902344 C 32.652344 43.878906 32.4375 43.863281 32.222656 43.828125 L 30.945312 43.644531 C 30.519531 43.59375 30.097656 43.503906 29.675781 43.429688 L 29.039062 43.320312 C 28.828125 43.28125 28.617188 43.25 28.410156 43.199219 L 27.152344 42.921875 L 26.835938 42.851562 L 26.527344 42.769531 L 25.902344 42.609375 C 25.488281 42.503906 25.070312 42.402344 24.664062 42.273438 C 24.253906 42.148438 23.839844 42.03125 23.433594 41.898438 C 23.027344 41.757812 22.621094 41.621094 22.214844 41.484375 C 22.011719 41.421875 21.8125 41.34375 21.613281 41.265625 L 21.011719 41.035156 C 20.8125 40.957031 20.609375 40.882812 20.414062 40.800781 L 19.824219 40.542969 L 19.230469 40.292969 C 19.035156 40.210938 18.84375 40.113281 18.648438 40.023438 C 17.867188 39.664062 17.109375 39.265625 16.355469 38.855469 L 15.792969 38.539062 C 15.605469 38.433594 15.417969 38.332031 15.234375 38.214844 L 14.6875 37.875 C 14.507812 37.761719 14.316406 37.652344 14.140625 37.53125 L 13.601562 37.175781 C 13.421875 37.054688 13.242188 36.9375 13.070312 36.808594 L 12.542969 36.429688 L 12.28125 36.242188 L 12.023438 36.046875 C 11.679688 35.785156 11.335938 35.523438 11.003906 35.246094 L 10.503906 34.832031 L 10.011719 34.402344 L 9.765625 34.191406 L 9.050781 33.523438 L 8.582031 33.066406 L 8.351562 32.839844 L 8.125 32.601562 C 7.511719 31.980469 6.933594 31.324219 6.378906 30.644531 C 6.101562 30.304688 5.828125 29.957031 5.5625 29.605469 C 5.304688 29.246094 5.046875 28.886719 4.804688 28.515625 C 4.960938 28.929688 5.148438 29.335938 5.34375 29.738281 C 5.542969 30.136719 5.746094 30.535156 5.972656 30.921875 C 6.414062 31.699219 6.90625 32.453125 7.433594 33.179688 L 7.632812 33.453125 L 7.839844 33.722656 L 8.253906 34.253906 L 8.6875 34.773438 L 8.90625 35.035156 L 9.128906 35.285156 L 9.582031 35.792969 C 9.738281 35.957031 9.894531 36.117188 10.054688 36.28125 C 10.363281 36.609375 10.695312 36.917969 11.023438 37.230469 C 11.679688 37.855469 12.375 38.4375 13.085938 39.003906 C 13.4375 39.289062 13.808594 39.550781 14.175781 39.824219 C 14.355469 39.960938 14.546875 40.085938 14.734375 40.214844 L 15.300781 40.597656 C 16.058594 41.097656 16.839844 41.566406 17.640625 42.003906 C 17.839844 42.113281 18.035156 42.230469 18.238281 42.332031 L 18.847656 42.640625 L 19.460938 42.941406 C 19.667969 43.042969 19.878906 43.132812 20.085938 43.226562 L 20.707031 43.503906 C 20.917969 43.597656 21.125 43.691406 21.335938 43.769531 C 21.761719 43.941406 22.183594 44.105469 22.609375 44.269531 C 23.039062 44.425781 23.472656 44.566406 23.902344 44.714844 C 24.332031 44.867188 24.769531 44.992188 25.207031 45.121094 L 25.859375 45.3125 L 26.191406 45.40625 L 26.519531 45.488281 L 27.847656 45.808594 C 28.066406 45.867188 28.289062 45.90625 28.511719 45.953125 L 29.179688 46.085938 C 29.625 46.175781 30.074219 46.265625 30.523438 46.324219 L 31.867188 46.527344 C 32.09375 46.566406 32.316406 46.589844 32.542969 46.613281 L 33.894531 46.761719 L 34.230469 46.796875 C 34.34375 46.804688 34.457031 46.8125 34.570312 46.820312 L 35.925781 46.90625 C 36.152344 46.917969 36.375 46.9375 36.601562 46.945312 L 37.28125 46.964844 C 37.730469 46.976562 38.183594 46.984375 38.636719 46.992188 C 38.859375 47 39.085938 46.992188 39.3125 46.988281 L 39.988281 46.976562 L 41.339844 46.949219 L 41.007812 44.351562 L 40.199219 44.539062 L 39.375 44.71875 C 38.820312 44.835938 38.265625 44.949219 37.710938 45.054688 L 36.039062 45.367188 C 35.480469 45.464844 34.921875 45.558594 34.359375 45.648438 C 33.800781 45.734375 33.242188 45.824219 32.679688 45.90625 C 32.117188 45.988281 31.554688 46.0625 30.992188 46.132812 L 30.148438 46.238281 L 29.304688 46.332031 C 29.023438 46.367188 28.742188 46.390625 28.457031 46.417969 C 28.175781 46.449219 27.894531 46.472656 27.613281 46.496094 C 27.046875 46.546875 26.480469 46.585938 25.917969 46.625 L 25.066406 46.667969 C 24.785156 46.6875 24.5 46.695312 24.21875 46.703125 C 23.9375 46.710938 23.652344 46.730469 23.367188 46.730469 L 22.519531 46.738281 C 21.953125 46.734375 21.386719 46.738281 20.820312 46.710938 C 20.25 46.699219 19.6875 46.65625 19.121094 46.621094 L 18.269531 46.539062 C 17.988281 46.515625 17.707031 46.46875 17.425781 46.4375 C 17.285156 46.417969 17.140625 46.402344 17 46.378906 L 16.582031 46.308594 C 16.300781 46.257812 16.015625 46.21875 15.738281 46.152344 C 15.460938 46.09375 15.179688 46.042969 14.898438 45.96875 C 14.621094 45.890625 14.339844 45.820312 14.0625 45.746094 " fill-opacity="1" fill-rule="nonzero"/><g clip-path="url(#4e356cb992)"><path fill="#ff751f" d="M 4.585938 28.066406 C 5.191406 28.449219 5.796875 28.835938 6.410156 29.207031 L 7.34375 29.75 L 7.808594 30.019531 L 8.285156 30.277344 L 9.234375 30.785156 C 9.554688 30.957031 9.878906 31.109375 10.199219 31.273438 C 10.523438 31.433594 10.84375 31.597656 11.171875 31.746094 L 12.15625 32.199219 C 12.320312 32.273438 12.484375 32.351562 12.652344 32.421875 L 13.148438 32.628906 L 14.148438 33.050781 L 15.164062 33.441406 L 15.667969 33.632812 L 16.179688 33.816406 L 17.207031 34.175781 L 18.242188 34.507812 C 18.585938 34.621094 18.9375 34.71875 19.285156 34.820312 C 19.632812 34.917969 19.980469 35.027344 20.332031 35.117188 L 21.386719 35.390625 L 22.449219 35.640625 C 22.800781 35.726562 23.160156 35.796875 23.515625 35.871094 L 24.050781 35.980469 L 24.585938 36.082031 C 25.304688 36.21875 26.023438 36.324219 26.746094 36.429688 L 27.832031 36.574219 L 28.921875 36.691406 L 30.015625 36.785156 C 30.378906 36.804688 30.746094 36.835938 31.109375 36.851562 C 31.84375 36.882812 32.574219 36.910156 33.3125 36.910156 C 34.046875 36.910156 34.785156 36.894531 35.523438 36.851562 C 35.894531 36.828125 36.265625 36.800781 36.636719 36.769531 C 36.824219 36.75 37.011719 36.734375 37.203125 36.710938 L 37.488281 36.675781 L 37.632812 36.65625 L 37.796875 36.628906 L 45.890625 35.402344 L 37.746094 34.058594 L 36.050781 33.78125 L 34.367188 33.464844 L 32.691406 33.101562 C 32.136719 32.960938 31.578125 32.84375 31.027344 32.699219 C 29.921875 32.410156 28.824219 32.105469 27.746094 31.753906 L 26.933594 31.492188 L 26.128906 31.210938 C 25.589844 31.03125 25.0625 30.820312 24.535156 30.617188 C 24.265625 30.519531 24.007812 30.40625 23.746094 30.296875 C 23.484375 30.1875 23.222656 30.082031 22.960938 29.96875 C 22.449219 29.730469 21.925781 29.515625 21.417969 29.261719 L 20.65625 28.894531 L 19.902344 28.503906 C 19.648438 28.375 19.40625 28.238281 19.160156 28.097656 C 18.914062 27.960938 18.664062 27.828125 18.421875 27.683594 C 17.445312 27.113281 16.492188 26.507812 15.566406 25.863281 C 14.648438 25.210938 13.753906 24.523438 12.890625 23.796875 C 12.027344 23.070312 11.210938 22.292969 10.417969 21.488281 C 9.628906 20.679688 8.882812 19.828125 8.175781 18.945312 C 7.46875 18.0625 6.808594 17.140625 6.1875 16.1875 C 5.566406 15.234375 4.996094 14.25 4.46875 13.238281 C 3.9375 12.226562 3.460938 11.183594 3.023438 10.125 C 2.808594 9.59375 2.601562 9.054688 2.414062 8.511719 C 2.21875 7.972656 2.035156 7.425781 1.871094 6.871094 C 1.53125 5.769531 1.242188 4.648438 1.007812 3.511719 C 0.773438 2.375 0.582031 1.226562 0.488281 0.0585938 C 0.4375 0.644531 0.425781 1.230469 0.433594 1.816406 C 0.441406 2.40625 0.464844 2.996094 0.511719 3.582031 C 0.597656 4.757812 0.757812 5.929688 0.980469 7.089844 C 1.199219 8.253906 1.484375 9.40625 1.828125 10.546875 C 2.164062 11.6875 2.578125 12.808594 3.039062 13.90625 C 3.503906 15.007812 4.03125 16.085938 4.609375 17.132812 C 5.191406 18.183594 5.832031 19.199219 6.523438 20.183594 C 7.214844 21.167969 7.972656 22.109375 8.765625 23.015625 C 9.5625 23.921875 10.40625 24.785156 11.296875 25.597656 C 12.1875 26.414062 13.117188 27.1875 14.082031 27.910156 C 15.054688 28.625 16.046875 29.308594 17.078125 29.9375 C 17.332031 30.097656 17.597656 30.242188 17.855469 30.394531 C 18.117188 30.546875 18.375 30.699219 18.640625 30.839844 L 19.4375 31.269531 L 20.242188 31.675781 C 20.773438 31.953125 21.324219 32.195312 21.871094 32.449219 C 22.144531 32.570312 22.421875 32.683594 22.699219 32.804688 C 22.976562 32.917969 23.25 33.042969 23.53125 33.148438 C 24.089844 33.363281 24.644531 33.589844 25.210938 33.78125 L 26.058594 34.085938 L 26.914062 34.359375 C 28.054688 34.722656 29.207031 35.039062 30.363281 35.332031 C 30.652344 35.410156 30.945312 35.46875 31.234375 35.539062 L 32.105469 35.738281 L 33.859375 36.085938 L 35.617188 36.386719 L 37.382812 36.636719 L 37.332031 34.066406 L 37.113281 34.105469 L 36.867188 34.144531 C 36.703125 34.167969 36.535156 34.1875 36.367188 34.210938 C 36.027344 34.25 35.6875 34.285156 35.34375 34.3125 C 34.660156 34.375 33.964844 34.410156 33.273438 34.433594 C 32.578125 34.460938 31.882812 34.464844 31.183594 34.457031 C 30.835938 34.457031 30.488281 34.445312 30.136719 34.4375 L 29.089844 34.394531 L 28.042969 34.332031 L 26.996094 34.25 C 26.300781 34.183594 25.601562 34.109375 24.90625 34.019531 L 24.382812 33.957031 L 23.863281 33.882812 C 23.515625 33.832031 23.167969 33.789062 22.820312 33.726562 L 21.78125 33.550781 L 20.742188 33.355469 C 20.394531 33.296875 20.050781 33.214844 19.707031 33.144531 C 19.363281 33.070312 19.015625 33 18.675781 32.914062 L 17.644531 32.671875 L 16.617188 32.40625 L 16.105469 32.273438 L 15.597656 32.125 L 14.574219 31.835938 L 13.558594 31.519531 L 13.050781 31.363281 L 12.546875 31.191406 L 11.539062 30.855469 C 11.203125 30.742188 10.871094 30.613281 10.535156 30.492188 C 10.203125 30.371094 9.863281 30.257812 9.535156 30.125 L 8.539062 29.734375 L 8.039062 29.542969 L 7.546875 29.335938 L 6.558594 28.925781 C 5.898438 28.648438 5.25 28.34375 4.585938 28.066406 " fill-opacity="1" fill-rule="nonzero"/></g><g clip-path="url(#61dde5d73e)"><path fill="#ff751f" d="M 0.488281 0.0585938 C 0.488281 0.0585938 0.539062 0.171875 0.632812 0.390625 C 0.730469 0.605469 0.867188 0.933594 1.058594 1.347656 C 1.160156 1.554688 1.273438 1.789062 1.398438 2.042969 C 1.519531 2.296875 1.65625 2.578125 1.816406 2.871094 C 1.976562 3.164062 2.140625 3.488281 2.332031 3.820312 C 2.53125 4.152344 2.738281 4.503906 2.960938 4.875 C 3.871094 6.351562 5.105469 8.070312 6.738281 9.882812 C 7.5625 10.78125 8.488281 11.695312 9.511719 12.609375 C 9.773438 12.832031 10.035156 13.058594 10.304688 13.289062 C 10.578125 13.507812 10.855469 13.730469 11.136719 13.957031 C 11.707031 14.398438 12.296875 14.84375 12.917969 15.273438 C 14.15625 16.136719 15.5 16.957031 16.929688 17.734375 C 18.359375 18.515625 19.882812 19.230469 21.476562 19.894531 C 24.664062 21.222656 28.148438 22.292969 31.789062 23.136719 C 33.609375 23.566406 35.472656 23.925781 37.355469 24.25 C 38.300781 24.410156 39.25 24.566406 40.203125 24.710938 C 41.15625 24.851562 42.117188 24.980469 43.078125 25.105469 C 45 25.355469 46.933594 25.59375 48.863281 25.808594 C 50.796875 26.027344 52.722656 26.25 54.617188 26.519531 C 56.511719 26.78125 58.382812 27.085938 60.121094 27.546875 C 60.339844 27.601562 60.550781 27.667969 60.761719 27.726562 L 60.921875 27.773438 C 60.917969 27.773438 60.980469 27.792969 60.925781 27.777344 L 60.96875 27.789062 L 61.058594 27.820312 L 61.402344 27.933594 L 62.09375 28.160156 C 62.207031 28.199219 62.328125 28.234375 62.4375 28.273438 L 62.753906 28.390625 L 63.382812 28.625 L 63.699219 28.738281 L 64.015625 28.867188 L 64.648438 29.128906 L 64.964844 29.257812 L 65.277344 29.398438 C 66.105469 29.769531 66.917969 30.167969 67.699219 30.605469 C 67.894531 30.710938 68.089844 30.820312 68.285156 30.929688 C 68.480469 31.03125 68.664062 31.15625 68.855469 31.269531 C 69.046875 31.386719 69.234375 31.5 69.421875 31.617188 C 69.605469 31.738281 69.789062 31.863281 69.972656 31.984375 C 71.429688 32.972656 72.765625 34.078125 73.941406 35.304688 C 75.117188 36.53125 76.140625 37.859375 76.992188 39.261719 C 77.847656 40.667969 78.539062 42.132812 79.074219 43.625 C 79.617188 45.117188 80.015625 46.625 80.289062 48.113281 C 80.574219 49.601562 80.734375 51.070312 80.824219 52.488281 C 80.914062 53.910156 80.910156 55.28125 80.871094 56.589844 C 80.828125 57.898438 80.722656 59.140625 80.601562 60.308594 C 80.347656 62.644531 79.976562 64.671875 79.625 66.335938 C 79.265625 68 78.933594 69.300781 78.675781 70.179688 C 78.546875 70.621094 78.449219 70.957031 78.378906 71.183594 C 78.304688 71.410156 78.269531 71.527344 78.269531 71.527344 C 78.269531 71.527344 78.324219 71.417969 78.4375 71.207031 C 78.542969 70.996094 78.703125 70.679688 78.894531 70.261719 C 79.273438 69.421875 79.828125 68.1875 80.40625 66.558594 C 80.988281 64.9375 81.617188 62.925781 82.140625 60.5625 C 82.664062 58.199219 83.082031 55.472656 83.167969 52.449219 C 83.203125 50.9375 83.144531 49.355469 82.96875 47.714844 C 82.929688 47.304688 82.863281 46.894531 82.808594 46.476562 C 82.734375 46.0625 82.675781 45.644531 82.585938 45.226562 C 82.5 44.804688 82.417969 44.382812 82.308594 43.960938 C 82.253906 43.746094 82.207031 43.535156 82.148438 43.320312 C 82.089844 43.109375 82.03125 42.898438 81.96875 42.683594 L 81.878906 42.363281 L 81.773438 42.042969 C 81.703125 41.832031 81.632812 41.617188 81.566406 41.402344 C 81.484375 41.191406 81.40625 40.980469 81.328125 40.765625 C 81.25 40.554688 81.171875 40.339844 81.078125 40.128906 C 80.988281 39.917969 80.902344 39.707031 80.8125 39.492188 C 80.722656 39.277344 80.617188 39.074219 80.519531 38.863281 C 80.417969 38.652344 80.328125 38.4375 80.21875 38.230469 C 80.109375 38.023438 80 37.816406 79.890625 37.605469 C 79.785156 37.394531 79.664062 37.191406 79.542969 36.988281 C 79.425781 36.78125 79.304688 36.574219 79.183594 36.371094 C 79.054688 36.167969 78.925781 35.96875 78.792969 35.769531 L 78.597656 35.464844 C 78.53125 35.367188 78.457031 35.269531 78.386719 35.171875 C 78.246094 34.972656 78.105469 34.777344 77.964844 34.582031 C 77.824219 34.382812 77.667969 34.195312 77.519531 34.003906 C 77.363281 33.8125 77.21875 33.617188 77.058594 33.433594 C 76.898438 33.246094 76.738281 33.0625 76.578125 32.875 C 75.285156 31.390625 73.769531 30.066406 72.140625 28.890625 C 71.9375 28.742188 71.730469 28.597656 71.527344 28.449219 C 71.316406 28.3125 71.105469 28.171875 70.894531 28.035156 C 70.679688 27.898438 70.472656 27.753906 70.253906 27.625 C 70.039062 27.496094 69.820312 27.367188 69.601562 27.238281 C 68.730469 26.730469 67.824219 26.265625 66.90625 25.835938 L 66.5625 25.671875 L 66.214844 25.519531 L 65.515625 25.21875 L 65.164062 25.066406 L 63.710938 24.503906 C 63.59375 24.457031 63.480469 24.421875 63.367188 24.382812 L 62.675781 24.144531 L 62.332031 24.027344 L 62.246094 24 L 62.121094 23.957031 L 61.929688 23.902344 C 61.675781 23.824219 61.421875 23.746094 61.171875 23.679688 C 60.15625 23.402344 59.152344 23.1875 58.15625 23 C 57.15625 22.816406 56.164062 22.65625 55.175781 22.515625 C 51.226562 21.988281 47.34375 21.640625 43.546875 21.222656 C 42.601562 21.113281 41.65625 21.003906 40.722656 20.886719 C 39.785156 20.777344 38.859375 20.652344 37.9375 20.527344 C 36.101562 20.265625 34.292969 19.96875 32.527344 19.640625 C 29.003906 18.964844 25.640625 18.132812 22.550781 17.0625 C 19.460938 16.003906 16.636719 14.730469 14.167969 13.304688 C 12.933594 12.597656 11.785156 11.851562 10.730469 11.089844 C 9.671875 10.328125 8.714844 9.542969 7.832031 8.777344 C 6.085938 7.226562 4.691406 5.714844 3.617188 4.40625 C 2.542969 3.09375 1.777344 1.996094 1.261719 1.238281 C 0.757812 0.46875 0.488281 0.0585938 0.488281 0.0585938 " fill-opacity="1" fill-rule="nonzero"/></g></g></g></g><path fill="#cf611d" d="M 854.710938 386.683594 L 854.710938 383.71875 C 854.710938 380.101562 851.78125 377.171875 848.167969 377.171875 C 844.554688 377.171875 841.625 380.101562 841.625 383.71875 L 841.625 386.683594 C 841.625 390.296875 844.554688 393.226562 848.167969 393.226562 C 851.78125 393.226562 854.710938 390.296875 854.710938 386.683594 Z M 854.710938 386.683594 " fill-opacity="1" fill-rule="nonzero"/><g clip-path="url(#31bdacd372)"><path fill="#cf611d" d="M 859.203125 390.304688 C 857.75 395.050781 853.382812 398.535156 848.167969 398.535156 C 842.957031 398.535156 838.585938 395.050781 837.136719 390.304688 L 792.058594 390.304688 C 789.214844 390.304688 786.527344 389.640625 784.113281 388.496094 L 784.113281 418.421875 C 784.113281 424.269531 788.894531 429.050781 794.738281 429.050781 L 901.59375 429.050781 C 907.4375 429.050781 912.21875 424.269531 912.21875 418.421875 L 912.21875 388.496094 C 909.804688 389.644531 907.121094 390.304688 904.273438 390.304688 Z M 859.203125 390.304688 " fill-opacity="1" fill-rule="nonzero"/></g><g clip-path="url(#5d55316750)"><path fill="#cf611d" d="M 903.832031 336.558594 L 878.328125 336.558594 C 876.785156 326.929688 868.441406 319.539062 858.382812 319.539062 L 837.949219 319.539062 C 827.886719 319.539062 819.546875 326.929688 818.003906 336.558594 L 792.503906 336.558594 C 786.414062 336.558594 781.433594 341.34375 781.433594 347.1875 L 781.433594 371.710938 C 781.433594 377.578125 786.191406 382.335938 792.058594 382.335938 L 836.632812 382.335938 C 836.785156 379.28125 838.097656 376.53125 840.171875 374.546875 C 840.234375 374.484375 840.308594 374.4375 840.375 374.378906 C 840.835938 373.957031 841.3125 373.558594 841.835938 373.210938 C 842.023438 373.085938 842.234375 373.003906 842.429688 372.890625 C 842.859375 372.644531 843.285156 372.386719 843.75 372.195312 C 844.113281 372.042969 844.507812 371.957031 844.890625 371.84375 C 845.21875 371.742188 845.53125 371.613281 845.875 371.542969 C 846.617188 371.394531 847.382812 371.3125 848.167969 371.3125 C 848.953125 371.3125 849.71875 371.394531 850.460938 371.542969 C 850.800781 371.613281 851.113281 371.742188 851.441406 371.84375 C 851.824219 371.957031 852.21875 372.042969 852.582031 372.199219 C 853.042969 372.390625 853.464844 372.644531 853.898438 372.890625 C 854.09375 373.003906 854.304688 373.089844 854.496094 373.214844 C 855.019531 373.558594 855.492188 373.957031 855.953125 374.378906 C 856.019531 374.441406 856.097656 374.488281 856.160156 374.550781 C 858.238281 376.539062 859.546875 379.285156 859.699219 382.34375 L 904.273438 382.34375 C 910.140625 382.34375 914.898438 377.585938 914.898438 371.71875 L 914.898438 347.191406 C 914.898438 341.34375 909.917969 336.558594 903.832031 336.558594 Z M 828.234375 336.558594 C 829.589844 332.46875 833.40625 329.484375 837.949219 329.484375 L 858.382812 329.484375 C 862.925781 329.484375 866.742188 332.46875 868.097656 336.558594 Z M 828.234375 336.558594 " fill-opacity="1" fill-rule="nonzero"/></g><path fill="#ff751f" d="M 723.84375 334.164062 L 723.84375 331.203125 C 723.84375 327.585938 720.914062 324.65625 717.300781 324.65625 C 713.6875 324.65625 710.757812 327.585938 710.757812 331.203125 L 710.757812 334.164062 C 710.757812 337.78125 713.6875 340.710938 717.300781 340.710938 C 720.910156 340.710938 723.84375 337.78125 723.84375 334.164062 Z M 723.84375 334.164062 " fill-opacity="1" fill-rule="nonzero"/><g clip-path="url(#4792c87fec)"><path fill="#ff751f" d="M 728.332031 337.785156 C 726.882812 342.53125 722.511719 346.019531 717.300781 346.019531 C 712.085938 346.019531 707.71875 342.53125 706.265625 337.785156 L 661.191406 337.785156 C 658.347656 337.785156 655.65625 337.125 653.246094 335.976562 L 653.246094 365.90625 C 653.246094 371.75 658.027344 376.53125 663.871094 376.53125 L 770.726562 376.53125 C 776.570312 376.53125 781.351562 371.75 781.351562 365.90625 L 781.351562 335.980469 C 778.9375 337.128906 776.25 337.789062 773.40625 337.789062 L 728.332031 337.789062 Z M 728.332031 337.785156 " fill-opacity="1" fill-rule="nonzero"/></g><g clip-path="url(#38d24722ea)"><path fill="#ff751f" d="M 772.960938 284.042969 L 747.457031 284.042969 C 745.917969 274.410156 737.574219 267.019531 727.515625 267.019531 L 707.078125 267.019531 C 697.019531 267.019531 688.679688 274.410156 687.136719 284.042969 L 661.636719 284.042969 C 655.546875 284.042969 650.566406 288.824219 650.566406 294.667969 L 650.566406 319.195312 C 650.566406 325.0625 655.324219 329.820312 661.191406 329.820312 L 705.765625 329.820312 C 705.917969 326.761719 707.226562 324.015625 709.304688 322.027344 C 709.367188 321.96875 709.441406 321.921875 709.507812 321.863281 C 709.96875 321.4375 710.445312 321.039062 710.96875 320.695312 C 711.15625 320.570312 711.367188 320.484375 711.5625 320.375 C 711.992188 320.125 712.417969 319.871094 712.882812 319.679688 C 713.246094 319.527344 713.636719 319.4375 714.019531 319.324219 C 714.351562 319.226562 714.664062 319.097656 715.007812 319.027344 C 715.746094 318.875 716.515625 318.796875 717.296875 318.796875 C 718.085938 318.796875 718.851562 318.878906 719.589844 319.027344 C 719.929688 319.097656 720.246094 319.226562 720.574219 319.324219 C 720.957031 319.4375 721.347656 319.527344 721.714844 319.679688 C 722.175781 319.871094 722.597656 320.125 723.027344 320.375 C 723.226562 320.488281 723.4375 320.574219 723.625 320.699219 C 724.148438 321.039062 724.625 321.4375 725.085938 321.863281 C 725.152344 321.921875 725.226562 321.96875 725.292969 322.035156 C 727.367188 324.019531 728.679688 326.769531 728.828125 329.824219 L 773.402344 329.824219 C 779.269531 329.824219 784.027344 325.066406 784.027344 319.199219 L 784.027344 294.671875 C 784.03125 288.824219 779.050781 284.042969 772.960938 284.042969 Z M 697.367188 284.042969 C 698.71875 279.949219 702.539062 276.964844 707.078125 276.964844 L 727.515625 276.964844 C 732.058594 276.964844 735.875 279.949219 737.230469 284.042969 Z M 697.367188 284.042969 " fill-opacity="1" fill-rule="nonzero"/></g><path fill="#ff751f" d="M 787.871094 336.300781 C 787.871094 336.300781 787.964844 336.167969 788.136719 335.921875 C 788.179688 335.859375 788.230469 335.789062 788.28125 335.714844 C 788.34375 335.640625 788.40625 335.5625 788.476562 335.480469 C 788.550781 335.394531 788.628906 335.300781 788.710938 335.203125 C 788.792969 335.101562 788.890625 335.015625 788.992188 334.910156 C 789.09375 334.808594 789.199219 334.699219 789.3125 334.585938 C 789.429688 334.476562 789.558594 334.375 789.691406 334.257812 C 789.824219 334.148438 789.960938 334.019531 790.113281 333.914062 C 790.269531 333.804688 790.429688 333.691406 790.597656 333.574219 C 790.679688 333.519531 790.761719 333.453125 790.855469 333.398438 C 790.945312 333.347656 791.039062 333.292969 791.128906 333.238281 C 791.320312 333.132812 791.511719 333.015625 791.714844 332.910156 C 791.921875 332.808594 792.136719 332.710938 792.355469 332.613281 C 792.46875 332.5625 792.578125 332.507812 792.695312 332.460938 C 792.808594 332.421875 792.925781 332.378906 793.046875 332.335938 C 793.28125 332.25 793.527344 332.160156 793.78125 332.082031 C 794.035156 332.015625 794.292969 331.945312 794.558594 331.878906 C 794.691406 331.84375 794.824219 331.804688 794.960938 331.777344 C 795.097656 331.753906 795.234375 331.730469 795.371094 331.707031 C 795.652344 331.664062 795.933594 331.617188 796.222656 331.570312 C 797.371094 331.453125 798.597656 331.394531 799.847656 331.507812 C 800.160156 331.53125 800.472656 331.550781 800.792969 331.582031 C 801.105469 331.628906 801.421875 331.679688 801.738281 331.726562 C 801.894531 331.75 802.054688 331.773438 802.214844 331.800781 C 802.375 331.824219 802.535156 331.84375 802.691406 331.882812 C 803.007812 331.953125 803.324219 332.027344 803.640625 332.097656 C 803.800781 332.132812 803.960938 332.171875 804.117188 332.207031 C 804.277344 332.242188 804.4375 332.28125 804.59375 332.328125 C 804.90625 332.417969 805.222656 332.507812 805.535156 332.605469 C 805.839844 332.695312 806.148438 332.789062 806.453125 332.882812 L 807.363281 333.167969 C 807.515625 333.21875 807.65625 333.253906 807.800781 333.296875 L 808.230469 333.421875 C 808.515625 333.507812 808.808594 333.582031 809.105469 333.65625 C 809.398438 333.734375 809.691406 333.808594 809.984375 333.875 C 810.28125 333.941406 810.570312 334.019531 810.867188 334.074219 C 811.453125 334.191406 812.039062 334.296875 812.617188 334.394531 C 812.90625 334.4375 813.195312 334.480469 813.480469 334.519531 C 813.769531 334.554688 814.054688 334.589844 814.339844 334.621094 C 815.472656 334.742188 816.578125 334.800781 817.625 334.800781 C 817.890625 334.808594 818.148438 334.796875 818.402344 334.796875 C 818.660156 334.792969 818.910156 334.773438 819.160156 334.769531 C 819.40625 334.757812 819.648438 334.738281 819.890625 334.726562 C 820.128906 334.703125 820.363281 334.683594 820.59375 334.664062 C 821.511719 334.578125 822.355469 334.445312 823.101562 334.304688 C 823.847656 334.164062 824.496094 334.003906 825.03125 333.859375 C 826.09375 333.5625 826.695312 333.316406 826.695312 333.316406 C 826.695312 333.316406 826.664062 333.34375 826.605469 333.394531 C 826.546875 333.449219 826.457031 333.523438 826.335938 333.617188 C 826.097656 333.804688 825.734375 334.066406 825.25 334.363281 C 824.761719 334.660156 824.152344 334.988281 823.421875 335.3125 C 822.691406 335.636719 821.84375 335.953125 820.890625 336.222656 C 820.65625 336.289062 820.410156 336.351562 820.160156 336.414062 C 819.910156 336.472656 819.65625 336.535156 819.394531 336.589844 C 818.871094 336.695312 818.324219 336.78125 817.761719 336.859375 C 816.632812 337.003906 815.429688 337.074219 814.1875 337.046875 C 813.878906 337.035156 813.5625 337.027344 813.25 337.011719 C 812.933594 336.984375 812.617188 336.960938 812.300781 336.9375 C 811.980469 336.902344 811.664062 336.867188 811.339844 336.832031 C 811.019531 336.789062 810.703125 336.730469 810.378906 336.683594 C 810.054688 336.636719 809.738281 336.566406 809.414062 336.507812 C 809.253906 336.472656 809.09375 336.445312 808.933594 336.410156 L 808.453125 336.296875 C 808.132812 336.21875 807.8125 336.148438 807.488281 336.050781 L 807.003906 335.914062 C 806.84375 335.867188 806.675781 335.824219 806.527344 335.777344 C 805.925781 335.582031 805.324219 335.390625 804.726562 335.195312 C 804.433594 335.105469 804.144531 335.011719 803.859375 334.914062 C 803.714844 334.863281 803.570312 334.824219 803.425781 334.785156 C 803.277344 334.746094 803.132812 334.707031 802.988281 334.667969 C 802.699219 334.589844 802.414062 334.511719 802.125 334.433594 C 801.984375 334.390625 801.839844 334.363281 801.695312 334.332031 C 801.554688 334.300781 801.410156 334.269531 801.269531 334.238281 C 800.980469 334.175781 800.699219 334.113281 800.417969 334.050781 C 800.132812 334.007812 799.855469 333.957031 799.574219 333.914062 C 799.4375 333.886719 799.296875 333.867188 799.160156 333.84375 C 799.089844 333.832031 799.019531 333.816406 798.953125 333.808594 L 798.746094 333.789062 C 798.472656 333.765625 798.199219 333.734375 797.929688 333.703125 C 797.796875 333.691406 797.660156 333.667969 797.527344 333.664062 C 797.394531 333.660156 797.261719 333.65625 797.128906 333.652344 C 796.867188 333.640625 796.605469 333.628906 796.347656 333.617188 C 796.09375 333.625 795.839844 333.632812 795.589844 333.636719 C 795.464844 333.640625 795.339844 333.644531 795.21875 333.644531 C 795.097656 333.65625 794.976562 333.667969 794.855469 333.679688 C 794.613281 333.703125 794.378906 333.722656 794.144531 333.746094 C 793.914062 333.78125 793.6875 333.820312 793.46875 333.855469 C 793.355469 333.875 793.246094 333.890625 793.136719 333.910156 C 793.027344 333.929688 792.925781 333.960938 792.820312 333.984375 C 792.609375 334.035156 792.40625 334.089844 792.203125 334.132812 C 792.003906 334.191406 791.816406 334.257812 791.625 334.316406 C 791.535156 334.347656 791.441406 334.375 791.347656 334.40625 C 791.257812 334.433594 791.171875 334.472656 791.085938 334.507812 C 790.914062 334.574219 790.746094 334.640625 790.582031 334.707031 C 790.5 334.738281 790.425781 334.777344 790.347656 334.8125 C 790.273438 334.851562 790.199219 334.886719 790.125 334.921875 C 789.980469 334.992188 789.832031 335.054688 789.703125 335.128906 C 789.570312 335.203125 789.445312 335.273438 789.328125 335.339844 C 789.085938 335.46875 788.886719 335.605469 788.703125 335.722656 C 788.613281 335.78125 788.53125 335.832031 788.453125 335.882812 C 788.378906 335.9375 788.308594 335.988281 788.25 336.03125 C 788.003906 336.207031 787.871094 336.300781 787.871094 336.300781 " fill-opacity="1" fill-rule="nonzero"/><path fill="#ff751f" d="M 826.722656 333.296875 C 826.320312 333.324219 825.921875 333.335938 825.519531 333.351562 C 825.117188 333.367188 824.71875 333.394531 824.316406 333.382812 C 823.914062 333.375 823.507812 333.363281 823.101562 333.355469 C 822.898438 333.347656 822.695312 333.34375 822.496094 333.332031 L 821.890625 333.285156 C 821.484375 333.257812 821.082031 333.222656 820.679688 333.1875 C 820.277344 333.140625 819.875 333.089844 819.472656 333.035156 L 818.867188 332.953125 L 818.265625 332.847656 C 817.867188 332.777344 817.464844 332.703125 817.066406 332.625 L 815.871094 332.355469 C 815.671875 332.3125 815.476562 332.257812 815.28125 332.203125 L 814.6875 332.042969 C 814.492188 331.988281 814.292969 331.9375 814.097656 331.878906 L 813.511719 331.695312 L 812.925781 331.507812 L 811.761719 331.09375 C 811.570312 331.019531 811.378906 330.941406 811.1875 330.863281 C 810.996094 330.785156 810.804688 330.714844 810.613281 330.628906 L 810.046875 330.378906 C 809.855469 330.300781 809.667969 330.207031 809.480469 330.121094 C 809.289062 330.03125 809.101562 329.941406 808.917969 329.84375 C 808.730469 329.746094 808.542969 329.652344 808.355469 329.542969 C 808.261719 329.492188 808.171875 329.445312 808.074219 329.386719 C 807.976562 329.328125 807.890625 329.28125 807.773438 329.207031 L 801.546875 325.253906 L 808.820312 326.910156 C 809.492188 327.0625 810.164062 327.214844 810.832031 327.378906 L 812.851562 327.785156 C 813.527344 327.898438 814.199219 328.027344 814.878906 328.128906 L 815.894531 328.269531 L 816.402344 328.34375 C 816.570312 328.367188 816.742188 328.382812 816.910156 328.402344 L 817.929688 328.515625 L 818.183594 328.542969 L 818.4375 328.558594 L 818.949219 328.59375 C 819.289062 328.621094 819.628906 328.65625 819.96875 328.671875 L 820.988281 328.714844 C 821.160156 328.722656 821.328125 328.734375 821.5 328.734375 C 821.671875 328.734375 821.839844 328.734375 822.011719 328.738281 C 822.351562 328.738281 822.691406 328.75 823.03125 328.746094 C 823.710938 328.726562 824.390625 328.714844 825.066406 328.667969 C 825.75 328.644531 826.421875 328.5625 827.101562 328.5 L 828.113281 328.371094 C 828.449219 328.328125 828.78125 328.261719 829.121094 328.210938 C 829.457031 328.164062 829.789062 328.089844 830.125 328.023438 C 830.289062 327.992188 830.457031 327.960938 830.625 327.925781 L 831.121094 327.804688 L 831.621094 327.691406 L 832.117188 327.558594 L 832.609375 327.425781 L 833.59375 327.128906 L 834.078125 326.964844 C 834.40625 326.859375 834.726562 326.734375 835.046875 326.617188 C 835.691406 326.371094 836.324219 326.101562 836.949219 325.808594 C 837.578125 325.515625 838.191406 325.191406 838.796875 324.84375 C 838.949219 324.757812 839.097656 324.664062 839.246094 324.574219 C 839.398438 324.484375 839.542969 324.386719 839.691406 324.292969 C 839.984375 324.097656 840.273438 323.898438 840.550781 323.679688 C 840.34375 323.96875 840.109375 324.234375 839.867188 324.5 C 839.621094 324.757812 839.371094 325.015625 839.101562 325.253906 C 838.839844 325.5 838.566406 325.734375 838.289062 325.960938 L 837.863281 326.296875 C 837.722656 326.40625 837.574219 326.507812 837.429688 326.617188 C 837.285156 326.722656 837.136719 326.824219 836.984375 326.925781 C 836.835938 327.023438 836.6875 327.128906 836.535156 327.226562 L 836.074219 327.511719 L 835.84375 327.652344 L 835.609375 327.789062 L 835.136719 328.054688 C 834.976562 328.144531 834.8125 328.222656 834.652344 328.304688 L 834.167969 328.554688 L 833.675781 328.785156 L 833.179688 329.007812 L 832.675781 329.214844 L 832.171875 329.417969 L 831.65625 329.605469 L 831.144531 329.789062 C 830.972656 329.847656 830.796875 329.898438 830.625 329.953125 C 830.277344 330.058594 829.929688 330.175781 829.578125 330.261719 C 829.226562 330.351562 828.875 330.453125 828.519531 330.53125 L 827.449219 330.761719 C 827.09375 330.832031 826.734375 330.882812 826.375 330.945312 C 826.015625 331.011719 825.65625 331.050781 825.292969 331.097656 C 824.574219 331.203125 823.847656 331.242188 823.121094 331.300781 C 822.757812 331.324219 822.398438 331.328125 822.035156 331.34375 C 821.671875 331.359375 821.304688 331.367188 820.945312 331.359375 L 819.855469 331.34375 C 819.492188 331.339844 819.132812 331.3125 818.769531 331.296875 L 818.226562 331.261719 L 817.953125 331.246094 L 817.683594 331.21875 L 816.605469 331.113281 C 815.882812 331.050781 815.171875 330.925781 814.457031 330.824219 C 814.277344 330.800781 814.097656 330.769531 813.921875 330.734375 L 813.390625 330.636719 L 812.328125 330.4375 L 810.222656 329.949219 C 809.527344 329.765625 808.835938 329.570312 808.144531 329.375 L 809.191406 327.078125 C 809.238281 327.113281 809.324219 327.167969 809.398438 327.214844 C 809.46875 327.265625 809.550781 327.3125 809.628906 327.363281 C 809.785156 327.460938 809.949219 327.554688 810.113281 327.648438 C 810.273438 327.746094 810.441406 327.835938 810.605469 327.929688 C 810.773438 328.023438 810.9375 328.117188 811.109375 328.207031 L 811.617188 328.472656 C 811.789062 328.5625 811.964844 328.640625 812.136719 328.726562 L 812.65625 328.980469 L 813.183594 329.21875 L 813.710938 329.460938 L 814.25 329.6875 L 814.785156 329.914062 C 814.964844 329.988281 815.148438 330.054688 815.328125 330.125 L 815.871094 330.339844 C 816.054688 330.410156 816.234375 330.480469 816.421875 330.542969 L 817.523438 330.9375 C 817.894531 331.0625 818.269531 331.171875 818.644531 331.296875 L 819.203125 331.480469 L 819.769531 331.640625 L 820.90625 331.972656 C 821.289062 332.070312 821.671875 332.164062 822.054688 332.265625 L 822.628906 332.414062 C 822.820312 332.460938 823.011719 332.5 823.207031 332.546875 C 823.589844 332.632812 823.980469 332.71875 824.367188 332.8125 L 824.660156 332.878906 L 824.953125 332.933594 L 825.542969 333.054688 C 825.9375 333.132812 826.332031 333.210938 826.722656 333.296875 " fill-opacity="1" fill-rule="nonzero"/><path fill="#ff751f" d="M 840.550781 323.679688 C 840.097656 323.765625 839.644531 323.84375 839.1875 323.921875 C 838.960938 323.960938 838.734375 324 838.507812 324.035156 L 838.167969 324.089844 L 837.820312 324.132812 L 836.441406 324.292969 C 836.210938 324.316406 835.976562 324.347656 835.746094 324.359375 L 835.054688 324.410156 L 833.664062 324.496094 C 833.199219 324.511719 832.734375 324.515625 832.269531 324.527344 C 832.039062 324.53125 831.804688 324.539062 831.574219 324.539062 L 830.875 324.527344 C 830.410156 324.511719 829.945312 324.511719 829.480469 324.492188 L 828.082031 324.410156 C 827.851562 324.398438 827.617188 324.371094 827.386719 324.351562 L 826.6875 324.289062 C 826.222656 324.246094 825.761719 324.183594 825.296875 324.125 L 824.597656 324.039062 L 823.90625 323.925781 L 823.210938 323.8125 L 822.519531 323.683594 C 822.058594 323.597656 821.597656 323.5 821.136719 323.394531 C 820.90625 323.34375 820.679688 323.285156 820.449219 323.230469 C 820.21875 323.171875 819.988281 323.117188 819.757812 323.050781 C 819.53125 322.988281 819.300781 322.925781 819.070312 322.855469 C 818.953125 322.820312 818.839844 322.792969 818.71875 322.753906 C 818.601562 322.714844 818.492188 322.679688 818.351562 322.628906 L 809.085938 319.355469 L 818.949219 320.09375 L 821.046875 320.25 L 823.140625 320.359375 C 823.839844 320.386719 824.539062 320.390625 825.234375 320.410156 C 825.933594 320.414062 826.628906 320.414062 827.328125 320.410156 L 828.371094 320.371094 C 828.714844 320.363281 829.066406 320.359375 829.410156 320.332031 C 830.105469 320.289062 830.800781 320.261719 831.488281 320.1875 C 831.835938 320.15625 832.179688 320.128906 832.527344 320.09375 L 833.558594 319.964844 C 833.730469 319.941406 833.902344 319.925781 834.074219 319.898438 L 834.585938 319.820312 C 834.929688 319.765625 835.273438 319.722656 835.613281 319.660156 C 836.292969 319.53125 836.972656 319.410156 837.648438 319.25 L 838.15625 319.140625 L 838.65625 319.007812 L 839.15625 318.878906 L 839.410156 318.816406 L 839.660156 318.742188 C 839.988281 318.644531 840.324219 318.550781 840.652344 318.445312 C 840.980469 318.335938 841.308594 318.226562 841.640625 318.121094 L 842.613281 317.757812 L 843.578125 317.367188 L 844.523438 316.9375 C 844.832031 316.777344 845.152344 316.636719 845.457031 316.472656 C 845.765625 316.304688 846.074219 316.144531 846.371094 315.964844 C 846.523438 315.878906 846.679688 315.792969 846.824219 315.699219 L 847.269531 315.421875 C 847.859375 315.042969 848.433594 314.636719 848.984375 314.195312 C 849.535156 313.753906 850.070312 313.285156 850.542969 312.746094 C 850.386719 313.070312 850.191406 313.378906 849.988281 313.675781 C 849.78125 313.976562 849.5625 314.265625 849.332031 314.546875 C 848.867188 315.109375 848.359375 315.636719 847.824219 316.136719 C 847.285156 316.632812 846.714844 317.097656 846.125 317.53125 C 845.976562 317.644531 845.828125 317.746094 845.675781 317.851562 L 845.222656 318.164062 C 844.910156 318.363281 844.597656 318.558594 844.285156 318.75 C 843.96875 318.933594 843.648438 319.117188 843.324219 319.292969 L 842.339844 319.796875 C 842.007812 319.953125 841.671875 320.105469 841.335938 320.257812 C 840.996094 320.402344 840.652344 320.535156 840.3125 320.675781 C 839.972656 320.820312 839.625 320.933594 839.277344 321.058594 L 838.753906 321.238281 L 837.699219 321.566406 C 837.523438 321.621094 837.347656 321.675781 837.167969 321.71875 L 836.101562 321.996094 C 835.746094 322.082031 835.382812 322.15625 835.027344 322.234375 L 834.488281 322.351562 C 834.308594 322.386719 834.125 322.414062 833.945312 322.449219 L 832.859375 322.632812 C 832.496094 322.6875 832.132812 322.730469 831.769531 322.78125 C 831.042969 322.886719 830.3125 322.933594 829.582031 323.003906 C 828.855469 323.066406 828.125 323.089844 827.394531 323.125 C 826.664062 323.136719 825.933594 323.144531 825.203125 323.148438 C 824.476562 323.128906 823.746094 323.109375 823.019531 323.078125 C 822.292969 323.03125 821.566406 322.992188 820.84375 322.929688 L 818.675781 322.707031 L 819.273438 320.167969 L 819.554688 320.273438 C 819.652344 320.308594 819.757812 320.34375 819.859375 320.378906 C 820.0625 320.453125 820.273438 320.519531 820.484375 320.585938 C 820.691406 320.65625 820.90625 320.71875 821.117188 320.78125 C 821.332031 320.84375 821.542969 320.910156 821.757812 320.964844 C 822.1875 321.082031 822.617188 321.207031 823.050781 321.316406 L 823.699219 321.480469 L 825.011719 321.785156 L 825.667969 321.925781 C 826.109375 322.019531 826.546875 322.117188 826.992188 322.191406 C 827.4375 322.269531 827.875 322.367188 828.320312 322.4375 L 829.660156 322.65625 C 830.105469 322.730469 830.554688 322.78125 831 322.847656 L 831.675781 322.941406 C 831.898438 322.972656 832.125 322.996094 832.351562 323.023438 C 832.800781 323.074219 833.253906 323.121094 833.703125 323.179688 L 835.0625 323.304688 L 835.746094 323.371094 C 835.972656 323.398438 836.199219 323.40625 836.425781 323.421875 L 837.792969 323.519531 L 838.132812 323.546875 L 838.480469 323.5625 C 838.710938 323.570312 838.941406 323.585938 839.171875 323.597656 C 839.628906 323.625 840.089844 323.644531 840.550781 323.679688 " fill-opacity="1" fill-rule="nonzero"/><path fill="#ff751f" d="M 850.542969 312.746094 C 850.285156 312.875 850.027344 313.003906 849.765625 313.128906 C 849.503906 313.25 849.234375 313.351562 848.964844 313.46875 C 848.695312 313.585938 848.417969 313.675781 848.144531 313.769531 L 847.730469 313.914062 C 847.59375 313.960938 847.453125 313.996094 847.3125 314.039062 L 846.890625 314.164062 C 846.753906 314.203125 846.613281 314.242188 846.46875 314.277344 L 845.617188 314.484375 C 845.046875 314.601562 844.476562 314.726562 843.898438 314.816406 C 843.320312 314.917969 842.742188 314.984375 842.160156 315.058594 C 841.582031 315.125 841 315.179688 840.417969 315.21875 C 839.835938 315.269531 839.25 315.292969 838.667969 315.316406 C 838.085938 315.332031 837.5 315.347656 836.917969 315.347656 C 836.625 315.351562 836.335938 315.347656 836.042969 315.339844 C 835.75 315.335938 835.460938 315.335938 835.167969 315.324219 L 834.292969 315.296875 L 833.421875 315.253906 C 832.839844 315.21875 832.257812 315.183594 831.679688 315.132812 C 831.097656 315.089844 830.515625 315.035156 829.9375 314.972656 C 829.359375 314.910156 828.78125 314.84375 828.203125 314.773438 C 827.625 314.699219 827.046875 314.621094 826.472656 314.53125 C 825.894531 314.441406 825.320312 314.347656 824.742188 314.25 L 823.878906 314.09375 C 823.589844 314.039062 823.308594 313.984375 823.003906 313.917969 L 811.25 311.359375 L 823.335938 311.320312 L 824.632812 311.316406 L 825.285156 311.3125 C 825.5 311.3125 825.71875 311.3125 825.933594 311.300781 C 826.363281 311.285156 826.796875 311.265625 827.226562 311.253906 L 827.875 311.234375 C 828.089844 311.222656 828.304688 311.203125 828.519531 311.1875 L 829.8125 311.097656 C 829.917969 311.089844 830.027344 311.082031 830.136719 311.074219 L 830.457031 311.035156 L 831.097656 310.96875 L 831.742188 310.902344 C 831.957031 310.878906 832.171875 310.863281 832.382812 310.828125 L 833.660156 310.644531 C 834.085938 310.59375 834.507812 310.503906 834.929688 310.429688 L 835.566406 310.320312 C 835.777344 310.28125 835.988281 310.25 836.199219 310.199219 L 837.457031 309.921875 L 837.769531 309.851562 L 838.082031 309.769531 L 838.703125 309.609375 C 839.117188 309.503906 839.535156 309.402344 839.945312 309.273438 C 840.355469 309.148438 840.765625 309.03125 841.175781 308.898438 C 841.578125 308.757812 841.984375 308.621094 842.390625 308.484375 C 842.59375 308.421875 842.792969 308.34375 842.992188 308.265625 L 843.59375 308.035156 C 843.792969 307.957031 843.996094 307.882812 844.191406 307.800781 L 844.78125 307.542969 L 845.375 307.292969 C 845.570312 307.210938 845.761719 307.113281 845.957031 307.023438 C 846.738281 306.664062 847.496094 306.265625 848.253906 305.855469 L 848.8125 305.539062 C 849 305.433594 849.1875 305.332031 849.371094 305.214844 L 849.917969 304.875 C 850.101562 304.761719 850.289062 304.652344 850.464844 304.53125 L 851.003906 304.175781 C 851.183594 304.054688 851.363281 303.9375 851.535156 303.808594 L 852.0625 303.429688 L 852.324219 303.242188 L 852.582031 303.046875 C 852.925781 302.785156 853.273438 302.523438 853.601562 302.246094 L 854.101562 301.832031 L 854.59375 301.402344 L 854.839844 301.191406 L 855.554688 300.523438 L 856.023438 300.066406 L 856.253906 299.839844 L 856.480469 299.601562 C 857.09375 298.980469 857.671875 298.324219 858.230469 297.644531 C 858.507812 297.304688 858.78125 296.957031 859.042969 296.605469 C 859.300781 296.246094 859.558594 295.886719 859.800781 295.515625 C 859.644531 295.929688 859.457031 296.335938 859.261719 296.738281 C 859.0625 297.136719 858.859375 297.535156 858.632812 297.921875 C 858.191406 298.699219 857.699219 299.453125 857.171875 300.179688 L 856.972656 300.453125 L 856.765625 300.722656 L 856.351562 301.253906 L 855.917969 301.773438 L 855.703125 302.035156 L 855.476562 302.285156 L 855.023438 302.792969 C 854.871094 302.957031 854.710938 303.117188 854.554688 303.28125 C 854.242188 303.609375 853.910156 303.917969 853.582031 304.230469 C 852.925781 304.855469 852.230469 305.4375 851.519531 306.003906 C 851.167969 306.289062 850.796875 306.550781 850.429688 306.824219 C 850.25 306.960938 850.058594 307.085938 849.871094 307.214844 L 849.308594 307.597656 C 848.546875 308.097656 847.765625 308.566406 846.964844 309.003906 C 846.765625 309.113281 846.570312 309.230469 846.367188 309.332031 L 845.757812 309.640625 L 845.144531 309.941406 C 844.941406 310.042969 844.730469 310.132812 844.523438 310.226562 L 843.898438 310.503906 C 843.6875 310.597656 843.480469 310.691406 843.269531 310.769531 C 842.84375 310.941406 842.421875 311.105469 841.996094 311.269531 C 841.566406 311.425781 841.132812 311.566406 840.703125 311.714844 C 840.273438 311.867188 839.835938 311.992188 839.402344 312.121094 L 838.746094 312.3125 L 838.417969 312.40625 L 838.085938 312.488281 L 836.761719 312.808594 C 836.539062 312.867188 836.316406 312.90625 836.09375 312.953125 L 835.425781 313.085938 C 834.980469 313.175781 834.535156 313.265625 834.085938 313.324219 L 832.738281 313.527344 C 832.515625 313.566406 832.289062 313.589844 832.0625 313.613281 L 830.710938 313.761719 L 830.375 313.796875 C 830.261719 313.804688 830.148438 313.8125 830.035156 313.820312 L 828.679688 313.90625 C 828.453125 313.917969 828.230469 313.9375 828.003906 313.945312 L 827.328125 313.964844 C 826.875 313.976562 826.421875 313.984375 825.972656 313.992188 C 825.746094 314 825.519531 313.992188 825.292969 313.988281 L 824.617188 313.976562 L 823.265625 313.949219 L 823.597656 311.351562 L 824.40625 311.539062 L 825.234375 311.71875 C 825.785156 311.835938 826.339844 311.949219 826.894531 312.054688 L 828.566406 312.367188 C 829.125 312.464844 829.683594 312.558594 830.246094 312.648438 C 830.804688 312.734375 831.367188 312.824219 831.925781 312.90625 C 832.488281 312.988281 833.050781 313.0625 833.613281 313.132812 L 834.457031 313.238281 L 835.300781 313.332031 C 835.582031 313.367188 835.867188 313.390625 836.148438 313.417969 C 836.429688 313.449219 836.710938 313.472656 836.992188 313.496094 C 837.558594 313.546875 838.125 313.585938 838.691406 313.625 L 839.539062 313.667969 C 839.820312 313.6875 840.105469 313.695312 840.386719 313.703125 C 840.671875 313.710938 840.953125 313.730469 841.238281 313.730469 L 842.085938 313.738281 C 842.652344 313.734375 843.222656 313.738281 843.785156 313.710938 C 844.355469 313.699219 844.917969 313.65625 845.488281 313.621094 L 846.335938 313.539062 C 846.617188 313.515625 846.898438 313.46875 847.179688 313.4375 C 847.324219 313.417969 847.464844 313.402344 847.605469 313.378906 L 848.027344 313.308594 C 848.304688 313.257812 848.589844 313.21875 848.867188 313.152344 C 849.144531 313.09375 849.429688 313.042969 849.707031 312.96875 C 849.984375 312.890625 850.265625 312.820312 850.542969 312.746094 " fill-opacity="1" fill-rule="nonzero"/><g clip-path="url(#0098f34770)"><path fill="#ff751f" d="M 860.019531 295.066406 C 859.414062 295.449219 858.808594 295.835938 858.195312 296.207031 L 857.265625 296.75 L 856.796875 297.019531 L 856.320312 297.277344 L 855.371094 297.785156 C 855.054688 297.957031 854.726562 298.109375 854.40625 298.273438 C 854.082031 298.433594 853.761719 298.597656 853.433594 298.746094 L 852.449219 299.199219 C 852.285156 299.273438 852.121094 299.351562 851.957031 299.421875 L 851.457031 299.628906 L 850.457031 300.050781 L 849.445312 300.441406 L 848.9375 300.632812 L 848.425781 300.816406 L 847.398438 301.175781 L 846.363281 301.507812 C 846.019531 301.621094 845.671875 301.71875 845.320312 301.820312 C 844.972656 301.917969 844.625 302.027344 844.273438 302.117188 L 843.21875 302.390625 L 842.15625 302.640625 C 841.804688 302.726562 841.445312 302.796875 841.089844 302.871094 L 840.554688 302.980469 L 840.019531 303.082031 C 839.300781 303.21875 838.582031 303.324219 837.859375 303.429688 L 836.773438 303.574219 L 835.683594 303.691406 L 834.589844 303.785156 C 834.226562 303.804688 833.859375 303.835938 833.496094 303.851562 C 832.761719 303.882812 832.03125 303.910156 831.292969 303.910156 C 830.558594 303.910156 829.820312 303.894531 829.082031 303.851562 C 828.710938 303.828125 828.339844 303.800781 827.96875 303.769531 C 827.78125 303.75 827.59375 303.734375 827.40625 303.710938 L 827.117188 303.675781 L 826.972656 303.65625 L 826.808594 303.628906 L 818.714844 302.402344 L 826.859375 301.058594 L 828.554688 300.78125 L 830.242188 300.464844 L 831.914062 300.101562 C 832.46875 299.960938 833.027344 299.84375 833.578125 299.699219 C 834.683594 299.410156 835.78125 299.105469 836.863281 298.753906 L 837.671875 298.492188 L 838.476562 298.210938 C 839.015625 298.03125 839.542969 297.820312 840.074219 297.617188 C 840.339844 297.519531 840.597656 297.40625 840.859375 297.296875 C 841.121094 297.1875 841.382812 297.082031 841.644531 296.96875 C 842.15625 296.730469 842.679688 296.515625 843.1875 296.261719 L 843.949219 295.894531 L 844.703125 295.503906 C 844.957031 295.375 845.203125 295.238281 845.449219 295.097656 C 845.691406 294.960938 845.941406 294.828125 846.183594 294.683594 C 847.160156 294.113281 848.113281 293.507812 849.039062 292.863281 C 849.957031 292.210938 850.851562 291.523438 851.714844 290.796875 C 852.578125 290.070312 853.394531 289.292969 854.1875 288.488281 C 854.976562 287.679688 855.722656 286.828125 856.429688 285.945312 C 857.136719 285.0625 857.796875 284.140625 858.417969 283.1875 C 859.039062 282.234375 859.609375 281.25 860.136719 280.238281 C 860.671875 279.226562 861.144531 278.183594 861.582031 277.125 C 861.796875 276.59375 862.003906 276.054688 862.195312 275.511719 C 862.390625 274.972656 862.570312 274.425781 862.738281 273.871094 C 863.074219 272.769531 863.363281 271.648438 863.597656 270.511719 C 863.832031 269.375 864.023438 268.226562 864.117188 267.058594 C 864.167969 267.644531 864.179688 268.230469 864.171875 268.816406 C 864.164062 269.40625 864.140625 269.996094 864.09375 270.582031 C 864.007812 271.757812 863.847656 272.929688 863.625 274.089844 C 863.410156 275.253906 863.121094 276.40625 862.777344 277.546875 C 862.441406 278.6875 862.027344 279.808594 861.566406 280.90625 C 861.105469 282.007812 860.574219 283.085938 859.996094 284.132812 C 859.414062 285.183594 858.773438 286.199219 858.082031 287.183594 C 857.390625 288.167969 856.632812 289.109375 855.839844 290.015625 C 855.042969 290.921875 854.199219 291.785156 853.308594 292.597656 C 852.417969 293.414062 851.488281 294.1875 850.523438 294.910156 C 849.554688 295.625 848.558594 296.308594 847.527344 296.9375 C 847.273438 297.097656 847.011719 297.242188 846.75 297.394531 C 846.492188 297.546875 846.230469 297.699219 845.964844 297.839844 L 845.171875 298.269531 L 844.363281 298.675781 C 843.832031 298.953125 843.28125 299.195312 842.734375 299.449219 C 842.460938 299.570312 842.183594 299.683594 841.90625 299.804688 C 841.628906 299.917969 841.355469 300.042969 841.074219 300.148438 C 840.515625 300.363281 839.960938 300.589844 839.394531 300.78125 L 838.546875 301.085938 L 837.691406 301.359375 C 836.550781 301.722656 835.398438 302.039062 834.242188 302.332031 C 833.953125 302.410156 833.660156 302.46875 833.371094 302.539062 L 832.5 302.738281 L 830.746094 303.085938 L 828.988281 303.386719 L 827.222656 303.636719 L 827.273438 301.066406 L 827.492188 301.105469 L 827.738281 301.144531 C 827.902344 301.167969 828.070312 301.1875 828.238281 301.210938 C 828.578125 301.25 828.917969 301.285156 829.261719 301.3125 C 829.945312 301.375 830.640625 301.410156 831.332031 301.433594 C 832.027344 301.460938 832.722656 301.464844 833.421875 301.457031 C 833.769531 301.457031 834.117188 301.445312 834.46875 301.4375 L 835.515625 301.394531 L 836.5625 301.332031 L 837.609375 301.25 C 838.304688 301.183594 839.003906 301.109375 839.699219 301.019531 L 840.222656 300.957031 L 840.742188 300.882812 C 841.089844 300.832031 841.441406 300.789062 841.785156 300.726562 L 842.824219 300.550781 L 843.863281 300.355469 C 844.210938 300.296875 844.554688 300.214844 844.898438 300.144531 C 845.242188 300.070312 845.589844 300 845.929688 299.914062 L 846.960938 299.671875 L 847.988281 299.40625 L 848.5 299.273438 L 849.011719 299.125 L 850.03125 298.835938 L 851.046875 298.519531 L 851.554688 298.363281 L 852.058594 298.191406 L 853.070312 297.855469 C 853.40625 297.742188 853.734375 297.613281 854.070312 297.492188 C 854.402344 297.371094 854.742188 297.257812 855.074219 297.125 L 856.066406 296.734375 L 856.566406 296.542969 L 857.058594 296.335938 L 858.046875 295.925781 C 858.707031 295.648438 859.359375 295.34375 860.019531 295.066406 " fill-opacity="1" fill-rule="nonzero"/></g><g clip-path="url(#075daeba5c)"><path fill="#ff751f" d="M 864.117188 267.058594 C 864.117188 267.058594 864.066406 267.171875 863.972656 267.390625 C 863.875 267.605469 863.742188 267.933594 863.546875 268.347656 C 863.449219 268.554688 863.335938 268.789062 863.210938 269.042969 C 863.085938 269.296875 862.949219 269.578125 862.789062 269.871094 C 862.628906 270.164062 862.464844 270.488281 862.273438 270.820312 C 862.074219 271.152344 861.867188 271.503906 861.644531 271.875 C 860.738281 273.351562 859.5 275.070312 857.867188 276.882812 C 857.046875 277.78125 856.117188 278.695312 855.09375 279.609375 C 854.832031 279.832031 854.570312 280.058594 854.304688 280.289062 C 854.027344 280.507812 853.75 280.730469 853.46875 280.957031 C 852.898438 281.398438 852.308594 281.84375 851.6875 282.273438 C 850.449219 283.136719 849.105469 283.957031 847.675781 284.734375 C 846.246094 285.515625 844.722656 286.230469 843.128906 286.894531 C 839.941406 288.222656 836.457031 289.292969 832.816406 290.136719 C 830.996094 290.566406 829.136719 290.925781 827.25 291.25 C 826.304688 291.410156 825.355469 291.566406 824.402344 291.710938 C 823.449219 291.851562 822.492188 291.980469 821.527344 292.105469 C 819.605469 292.355469 817.671875 292.59375 815.742188 292.808594 C 813.808594 293.027344 811.882812 293.25 809.988281 293.519531 C 808.09375 293.78125 806.222656 294.085938 804.484375 294.546875 C 804.265625 294.601562 804.054688 294.667969 803.84375 294.726562 L 803.683594 294.773438 C 803.6875 294.773438 803.625 294.792969 803.679688 294.777344 L 803.636719 294.789062 L 803.550781 294.820312 L 803.203125 294.933594 L 802.511719 295.160156 C 802.398438 295.199219 802.277344 295.234375 802.167969 295.273438 L 801.855469 295.390625 L 801.222656 295.625 L 800.90625 295.738281 L 800.589844 295.867188 L 799.957031 296.128906 L 799.640625 296.257812 L 799.328125 296.398438 C 798.5 296.769531 797.6875 297.167969 796.90625 297.605469 C 796.710938 297.710938 796.515625 297.820312 796.320312 297.929688 C 796.125 298.03125 795.941406 298.15625 795.75 298.269531 C 795.558594 298.386719 795.371094 298.5 795.183594 298.617188 C 795 298.738281 794.816406 298.863281 794.632812 298.984375 C 793.175781 299.972656 791.839844 301.078125 790.664062 302.304688 C 789.488281 303.53125 788.464844 304.859375 787.613281 306.261719 C 786.761719 307.667969 786.066406 309.132812 785.53125 310.625 C 784.992188 312.117188 784.589844 313.625 784.316406 315.113281 C 784.035156 316.601562 783.871094 318.070312 783.78125 319.488281 C 783.691406 320.910156 783.695312 322.28125 783.738281 323.589844 C 783.777344 324.898438 783.882812 326.140625 784.003906 327.308594 C 784.257812 329.644531 784.628906 331.671875 784.980469 333.335938 C 785.339844 335 785.675781 336.300781 785.929688 337.179688 C 786.058594 337.621094 786.15625 337.957031 786.226562 338.183594 C 786.300781 338.410156 786.335938 338.527344 786.335938 338.527344 C 786.335938 338.527344 786.28125 338.417969 786.171875 338.207031 C 786.0625 337.996094 785.902344 337.679688 785.710938 337.261719 C 785.332031 336.421875 784.78125 335.1875 784.199219 333.558594 C 783.617188 331.9375 782.988281 329.925781 782.464844 327.5625 C 781.945312 325.199219 781.523438 322.472656 781.4375 319.449219 C 781.402344 317.9375 781.460938 316.355469 781.636719 314.714844 C 781.675781 314.304688 781.742188 313.894531 781.796875 313.476562 C 781.871094 313.0625 781.929688 312.644531 782.019531 312.226562 C 782.105469 311.804688 782.1875 311.382812 782.296875 310.960938 C 782.351562 310.746094 782.398438 310.535156 782.457031 310.320312 C 782.515625 310.109375 782.578125 309.898438 782.636719 309.683594 L 782.730469 309.363281 L 782.832031 309.042969 C 782.902344 308.832031 782.972656 308.617188 783.042969 308.402344 C 783.121094 308.191406 783.199219 307.980469 783.277344 307.765625 C 783.359375 307.554688 783.433594 307.339844 783.527344 307.128906 C 783.617188 306.917969 783.707031 306.707031 783.796875 306.492188 C 783.882812 306.277344 783.988281 306.074219 784.085938 305.863281 C 784.1875 305.652344 784.277344 305.4375 784.386719 305.230469 C 784.496094 305.023438 784.605469 304.816406 784.714844 304.605469 C 784.820312 304.394531 784.941406 304.191406 785.0625 303.988281 C 785.179688 303.78125 785.300781 303.574219 785.421875 303.371094 C 785.550781 303.167969 785.683594 302.96875 785.8125 302.769531 L 786.007812 302.464844 C 786.074219 302.367188 786.148438 302.269531 786.21875 302.171875 C 786.359375 301.972656 786.5 301.777344 786.640625 301.582031 C 786.78125 301.382812 786.9375 301.195312 787.085938 301.003906 C 787.242188 300.8125 787.386719 300.617188 787.546875 300.433594 C 787.707031 300.246094 787.867188 300.0625 788.027344 299.875 C 789.324219 298.390625 790.835938 297.066406 792.464844 295.890625 C 792.667969 295.742188 792.875 295.597656 793.082031 295.449219 C 793.289062 295.3125 793.5 295.171875 793.710938 295.035156 C 793.925781 294.898438 794.132812 294.753906 794.351562 294.625 C 794.566406 294.496094 794.785156 294.367188 795.003906 294.238281 C 795.878906 293.730469 796.78125 293.265625 797.699219 292.835938 L 798.042969 292.671875 L 798.390625 292.519531 L 799.089844 292.21875 L 799.441406 292.066406 L 800.894531 291.503906 C 801.011719 291.457031 801.125 291.421875 801.242188 291.382812 L 801.929688 291.144531 L 802.273438 291.027344 L 802.359375 291 L 802.484375 290.957031 L 802.675781 290.902344 C 802.929688 290.824219 803.183594 290.746094 803.4375 290.679688 C 804.449219 290.402344 805.453125 290.1875 806.449219 290 C 807.449219 289.816406 808.441406 289.65625 809.429688 289.515625 C 813.378906 288.988281 817.261719 288.640625 821.058594 288.222656 C 822.007812 288.113281 822.949219 288.003906 823.882812 287.886719 C 824.820312 287.777344 825.746094 287.652344 826.667969 287.527344 C 828.507812 287.265625 830.3125 286.96875 832.078125 286.640625 C 835.605469 285.964844 838.964844 285.132812 842.054688 284.0625 C 845.148438 283.003906 847.96875 281.730469 850.4375 280.304688 C 851.671875 279.597656 852.820312 278.851562 853.878906 278.089844 C 854.933594 277.328125 855.894531 276.542969 856.777344 275.777344 C 858.519531 274.226562 859.914062 272.714844 860.988281 271.40625 C 862.0625 270.09375 862.828125 268.996094 863.347656 268.238281 C 863.847656 267.46875 864.117188 267.058594 864.117188 267.058594 " fill-opacity="1" fill-rule="nonzero"/></g></svg>