<svg xmlns="http://www.w3.org/2000/svg" xmlns:xlink="http://www.w3.org/1999/xlink" width="432" zoomAndPan="magnify" viewBox="0 0 324 216.749995" height="289" preserveAspectRatio="xMidYMid meet" version="1.0"><defs><clipPath id="1f8c3f9322"><path d="M 1 0.191406 L 323 0.191406 L 323 215.941406 L 1 215.941406 Z M 1 0.191406 " clip-rule="nonzero"/></clipPath><clipPath id="c9fa7141ff"><path d="M 112 75.886719 L 134 75.886719 L 134 82 L 112 82 Z M 112 75.886719 " clip-rule="nonzero"/></clipPath><clipPath id="70dfaa0597"><path d="M 95.273438 83 L 149.960938 83 L 149.960938 100 L 95.273438 100 Z M 95.273438 83 " clip-rule="nonzero"/></clipPath><clipPath id="315238bec3"><path d="M 154 99.046875 L 176 99.046875 L 176 105 L 154 105 Z M 154 99.046875 " clip-rule="nonzero"/></clipPath><clipPath id="d21e5cbd91"><path d="M 138.054688 106 L 192.742188 106 L 192.742188 123 L 138.054688 123 Z M 138.054688 106 " clip-rule="nonzero"/></clipPath></defs><path fill="#d5550e" d="M 304.816406 13.671875 C 313.015625 13.671875 315.75 19.136719 311.648438 25.972656 L 270.648438 101.140625 C 266.546875 107.972656 266.546875 118.90625 270.648438 125.742188 L 311.648438 202.277344 C 315.75 209.109375 311.648438 214.574219 304.816406 214.574219 L 20.542969 214.574219 C 12.34375 214.574219 6.875 207.742188 6.875 200.910156 L 6.875 28.707031 C 6.875 20.503906 13.707031 15.039062 20.542969 15.039062 L 304.816406 15.039062 Z M 304.816406 13.671875 " fill-opacity="1" fill-rule="nonzero"/><g clip-path="url(#1f8c3f9322)"><path fill="#b74e14" d="M 322.582031 202.277344 C 322.582031 205.007812 322.582031 207.742188 321.214844 209.109375 C 318.484375 213.210938 313.015625 215.941406 307.550781 215.941406 L 21.910156 215.941406 C 10.976562 215.941406 1.410156 206.375 1.410156 194.074219 L 1.410156 21.871094 C 1.410156 9.570312 10.976562 0.00390625 21.910156 0.00390625 L 306.183594 0.00390625 C 313.015625 0.00390625 317.117188 2.738281 319.847656 6.839844 C 322.582031 10.9375 322.582031 17.773438 319.847656 23.238281 L 278.847656 98.40625 C 276.113281 102.507812 276.113281 112.074219 278.847656 116.171875 L 319.847656 192.707031 C 321.214844 196.808594 322.582031 199.542969 322.582031 202.277344 Z M 15.074219 195.441406 C 15.074219 199.542969 17.808594 202.277344 21.910156 202.277344 L 306.183594 202.277344 C 307.550781 202.277344 307.550781 202.277344 307.550781 202.277344 C 307.550781 202.277344 307.550781 200.910156 306.183594 200.910156 L 265.179688 124.375 C 259.714844 114.808594 261.082031 101.140625 265.179688 92.941406 L 306.183594 17.773438 C 306.183594 16.40625 306.183594 16.40625 306.183594 16.40625 C 306.183594 16.40625 304.816406 16.40625 304.816406 16.40625 L 21.910156 16.40625 C 17.808594 16.40625 15.074219 19.136719 15.074219 23.238281 Z M 15.074219 195.441406 " fill-opacity="1" fill-rule="nonzero"/></g><g clip-path="url(#c9fa7141ff)"><path fill="#f58926" d="M 133.152344 78.796875 C 133.152344 77.175781 131.832031 75.855469 130.210938 75.855469 L 115.015625 75.855469 C 113.390625 75.855469 112.070312 77.175781 112.070312 78.796875 L 112.070312 81.644531 L 133.152344 81.644531 Z M 133.152344 78.796875 " fill-opacity="1" fill-rule="nonzero"/></g><path fill="#f58926" d="M 118.167969 103.664062 C 118.167969 104.597656 118.929688 105.359375 119.867188 105.359375 L 125.359375 105.359375 C 126.292969 105.359375 127.054688 104.597656 127.054688 103.664062 L 127.054688 100.21875 C 127.054688 100.21875 127.054688 100.210938 127.054688 100.207031 C 127.054688 100.203125 127.054688 100.203125 127.054688 100.199219 L 127.054688 96.753906 C 127.054688 95.816406 126.292969 95.054688 125.359375 95.054688 L 119.867188 95.054688 C 118.929688 95.054688 118.167969 95.816406 118.167969 96.753906 L 118.167969 100.199219 C 118.167969 100.199219 118.171875 100.203125 118.171875 100.207031 C 118.171875 100.210938 118.167969 100.214844 118.167969 100.21875 Z M 118.167969 103.664062 " fill-opacity="1" fill-rule="nonzero"/><g clip-path="url(#70dfaa0597)"><path fill="#f58926" d="M 146.941406 83.59375 L 98.28125 83.59375 C 96.660156 83.59375 95.339844 84.910156 95.339844 86.535156 L 95.339844 96.292969 C 95.339844 97.914062 96.660156 99.234375 98.28125 99.234375 L 116.222656 99.234375 L 116.222656 96.753906 C 116.222656 94.746094 117.855469 93.109375 119.867188 93.109375 L 125.359375 93.109375 C 127.367188 93.109375 129.003906 94.742188 129.003906 96.753906 L 129.003906 99.234375 L 146.941406 99.234375 C 148.5625 99.234375 149.882812 97.914062 149.882812 96.292969 L 149.882812 86.535156 C 149.882812 84.910156 148.5625 83.59375 146.941406 83.59375 Z M 146.941406 83.59375 " fill-opacity="1" fill-rule="nonzero"/></g><path fill="#f58926" d="M 98.703125 101.183594 L 98.703125 113.882812 C 98.703125 115.503906 100.019531 116.824219 101.644531 116.824219 L 143.582031 116.824219 C 145.203125 116.824219 146.523438 115.503906 146.523438 113.882812 L 146.523438 101.183594 L 129.003906 101.183594 L 129.003906 103.664062 C 129.003906 105.671875 127.367188 107.308594 125.359375 107.308594 L 119.867188 107.308594 C 117.855469 107.308594 116.21875 105.671875 116.21875 103.664062 L 116.21875 101.183594 Z M 98.703125 101.183594 " fill-opacity="1" fill-rule="nonzero"/><g clip-path="url(#315238bec3)"><path fill="#f58926" d="M 175.933594 101.957031 C 175.933594 100.335938 174.613281 99.015625 172.992188 99.015625 L 157.792969 99.015625 C 156.171875 99.015625 154.851562 100.335938 154.851562 101.957031 L 154.851562 104.804688 L 175.933594 104.804688 Z M 175.933594 101.957031 " fill-opacity="1" fill-rule="nonzero"/></g><path fill="#f58926" d="M 160.949219 126.824219 C 160.949219 127.757812 161.710938 128.519531 162.648438 128.519531 L 168.140625 128.519531 C 169.074219 128.519531 169.835938 127.757812 169.835938 126.824219 L 169.835938 123.378906 C 169.835938 123.378906 169.835938 123.371094 169.835938 123.367188 C 169.835938 123.363281 169.835938 123.363281 169.835938 123.359375 L 169.835938 119.914062 C 169.835938 118.976562 169.074219 118.214844 168.140625 118.214844 L 162.648438 118.214844 C 161.710938 118.214844 160.949219 118.976562 160.949219 119.914062 L 160.949219 123.359375 C 160.949219 123.359375 160.953125 123.363281 160.953125 123.367188 C 160.953125 123.371094 160.949219 123.375 160.949219 123.378906 Z M 160.949219 126.824219 " fill-opacity="1" fill-rule="nonzero"/><g clip-path="url(#d21e5cbd91)"><path fill="#f58926" d="M 189.722656 106.75 L 141.0625 106.75 C 139.441406 106.75 138.121094 108.070312 138.121094 109.691406 L 138.121094 119.453125 C 138.121094 121.074219 139.441406 122.394531 141.0625 122.394531 L 159 122.394531 L 159 119.914062 C 159 117.90625 160.636719 116.269531 162.648438 116.269531 L 168.140625 116.269531 C 170.148438 116.269531 171.785156 117.902344 171.785156 119.914062 L 171.785156 122.394531 L 189.722656 122.394531 C 191.34375 122.394531 192.664062 121.074219 192.664062 119.453125 L 192.664062 109.691406 C 192.664062 108.070312 191.34375 106.75 189.722656 106.75 Z M 189.722656 106.75 " fill-opacity="1" fill-rule="nonzero"/></g><path fill="#f58926" d="M 141.480469 124.339844 L 141.480469 137.042969 C 141.480469 138.664062 142.800781 139.984375 144.421875 139.984375 L 186.363281 139.984375 C 187.984375 139.984375 189.304688 138.664062 189.304688 137.042969 L 189.304688 124.339844 L 171.785156 124.339844 L 171.785156 126.824219 C 171.785156 128.832031 170.148438 130.46875 168.136719 130.46875 L 162.644531 130.46875 C 160.636719 130.46875 159 128.832031 159 126.824219 L 159 124.339844 Z M 141.480469 124.339844 " fill-opacity="1" fill-rule="nonzero"/></svg>