<svg xmlns="http://www.w3.org/2000/svg" xmlns:xlink="http://www.w3.org/1999/xlink" width="1920" zoomAndPan="magnify" viewBox="0 0 1440 809.999993" height="1080" preserveAspectRatio="xMidYMid meet" version="1.0"><defs><clipPath id="69424258a8"><path d="M 548 190 L 978 190 L 978 490 L 548 490 Z M 548 190 " clip-rule="nonzero"/></clipPath><clipPath id="f18ccedfd0"><path d="M 330.988281 276.457031 L 893.777344 34.117188 L 1108.828125 533.535156 L 546.039062 775.875 Z M 330.988281 276.457031 " clip-rule="nonzero"/></clipPath><clipPath id="9a666c873b"><path d="M 330.988281 276.457031 L 893.777344 34.117188 L 1108.828125 533.535156 L 546.039062 775.875 Z M 330.988281 276.457031 " clip-rule="nonzero"/></clipPath><clipPath id="13ef6ac424"><path d="M 553 195 L 972 195 L 972 369 L 553 369 Z M 553 195 " clip-rule="nonzero"/></clipPath><clipPath id="c2333406a6"><path d="M 330.988281 276.457031 L 893.777344 34.117188 L 1108.828125 533.535156 L 546.039062 775.875 Z M 330.988281 276.457031 " clip-rule="nonzero"/></clipPath><clipPath id="675afc79c5"><path d="M 330.988281 276.457031 L 893.777344 34.117188 L 1108.828125 533.535156 L 546.039062 775.875 Z M 330.988281 276.457031 " clip-rule="nonzero"/></clipPath><clipPath id="695c661be9"><path d="M 535 198 L 551 198 L 551 213 L 535 213 Z M 535 198 " clip-rule="nonzero"/></clipPath><clipPath id="52abd0de1b"><path d="M 330.988281 276.457031 L 893.777344 34.117188 L 1108.828125 533.535156 L 546.039062 775.875 Z M 330.988281 276.457031 " clip-rule="nonzero"/></clipPath><clipPath id="eec5e25dc7"><path d="M 330.988281 276.457031 L 893.777344 34.117188 L 1108.828125 533.535156 L 546.039062 775.875 Z M 330.988281 276.457031 " clip-rule="nonzero"/></clipPath><clipPath id="3d8d42ef14"><path d="M 536 194 L 550 194 L 550 207 L 536 207 Z M 536 194 " clip-rule="nonzero"/></clipPath><clipPath id="65cd9181fa"><path d="M 330.988281 276.457031 L 893.777344 34.117188 L 1108.828125 533.535156 L 546.039062 775.875 Z M 330.988281 276.457031 " clip-rule="nonzero"/></clipPath><clipPath id="a4f2c11c24"><path d="M 330.988281 276.457031 L 893.777344 34.117188 L 1108.828125 533.535156 L 546.039062 775.875 Z M 330.988281 276.457031 " clip-rule="nonzero"/></clipPath><clipPath id="52efa41bca"><path d="M 536 190 L 549 190 L 549 202 L 536 202 Z M 536 190 " clip-rule="nonzero"/></clipPath><clipPath id="92e596ece0"><path d="M 330.988281 276.457031 L 893.777344 34.117188 L 1108.828125 533.535156 L 546.039062 775.875 Z M 330.988281 276.457031 " clip-rule="nonzero"/></clipPath><clipPath id="480df33514"><path d="M 330.988281 276.457031 L 893.777344 34.117188 L 1108.828125 533.535156 L 546.039062 775.875 Z M 330.988281 276.457031 " clip-rule="nonzero"/></clipPath><clipPath id="d8a2b51e64"><path d="M 538 187 L 548 187 L 548 197 L 538 197 Z M 538 187 " clip-rule="nonzero"/></clipPath><clipPath id="8a34d2cecb"><path d="M 330.988281 276.457031 L 893.777344 34.117188 L 1108.828125 533.535156 L 546.039062 775.875 Z M 330.988281 276.457031 " clip-rule="nonzero"/></clipPath><clipPath id="82cde110e0"><path d="M 330.988281 276.457031 L 893.777344 34.117188 L 1108.828125 533.535156 L 546.039062 775.875 Z M 330.988281 276.457031 " clip-rule="nonzero"/></clipPath><clipPath id="c16df9e491"><path d="M 537 208 L 556 208 L 556 772 L 537 772 Z M 537 208 " clip-rule="nonzero"/></clipPath><clipPath id="a2e72a4a87"><path d="M 330.988281 276.457031 L 893.777344 34.117188 L 1108.828125 533.535156 L 546.039062 775.875 Z M 330.988281 276.457031 " clip-rule="nonzero"/></clipPath><clipPath id="55221ba83d"><path d="M 330.988281 276.457031 L 893.777344 34.117188 L 1108.828125 533.535156 L 546.039062 775.875 Z M 330.988281 276.457031 " clip-rule="nonzero"/></clipPath><clipPath id="16fd94f4fe"><path d="M 585.050781 245.375 L 704.300781 245.375 L 704.300781 348.125 L 585.050781 348.125 Z M 585.050781 245.375 " clip-rule="nonzero"/></clipPath><clipPath id="a20848df7a"><path d="M 0.121094 0.382812 L 65.613281 0.382812 L 65.613281 53.542969 L 0.121094 53.542969 Z M 0.121094 0.382812 " clip-rule="nonzero"/></clipPath><clipPath id="c07f793bcb"><path d="M 0.121094 0.382812 L 119.300781 0.382812 L 119.300781 103.125 L 0.121094 103.125 Z M 0.121094 0.382812 " clip-rule="nonzero"/></clipPath><clipPath id="365f1656cd"><rect x="0" width="120" y="0" height="104"/></clipPath><clipPath id="34aab34560"><path d="M 709 354 L 834 354 L 834 393.5 L 709 393.5 Z M 709 354 " clip-rule="nonzero"/></clipPath><clipPath id="67631713fe"><path d="M 707.179688 287.75 L 836.179688 287.75 L 836.179688 349 L 707.179688 349 Z M 707.179688 287.75 " clip-rule="nonzero"/></clipPath></defs><rect x="-144" width="1728" fill="#ffffff" y="-80.999999" height="971.999992" fill-opacity="1"/><rect x="-144" width="1728" fill="#ffffff" y="-80.999999" height="971.999992" fill-opacity="1"/><g clip-path="url(#69424258a8)"><g clip-path="url(#f18ccedfd0)"><g clip-path="url(#9a666c873b)"><path fill="#ff914d" d="M 671.089844 190.59375 C 646.808594 190.753906 613.976562 196.640625 586.277344 202.785156 C 571.535156 206.058594 558.320312 209.382812 548.507812 211.964844 L 550.761719 454.242188 C 560.550781 451.671875 573.582031 448.398438 588.128906 445.171875 C 614.929688 439.222656 646.480469 433.492188 670.773438 432.964844 C 671.640625 432.945312 672.496094 432.933594 673.34375 432.929688 C 675.890625 432.914062 678.351562 432.957031 680.703125 433.070312 C 716.25 434.789062 749.769531 449.207031 783.191406 463.054688 C 816.613281 476.898438 849.925781 490.171875 885.03125 489.867188 C 905.390625 489.6875 935.042969 480.925781 959.507812 472.179688 C 966.007812 469.859375 972.097656 467.550781 977.605469 465.398438 L 975.351562 223.199219 C 970.015625 225.277344 964.128906 227.5 957.890625 229.730469 C 933.34375 238.5 903.671875 247.34375 882.777344 247.527344 C 847.175781 247.835938 813.609375 234.417969 780.179688 220.566406 C 746.742188 206.714844 713.421875 192.425781 678.34375 190.730469 C 676.03125 190.621094 673.609375 190.574219 671.097656 190.589844 Z M 671.089844 190.59375 " fill-opacity="1" fill-rule="evenodd"/></g></g></g><g clip-path="url(#13ef6ac424)"><g clip-path="url(#c2333406a6)"><g clip-path="url(#675afc79c5)"><path fill="#ff914d" d="M 671.667969 195.585938 C 673.8125 195.578125 675.957031 195.621094 678.101562 195.722656 C 712.917969 197.40625 746.484375 212.015625 778.265625 225.183594 C 811.632812 239.007812 846.09375 252.84375 882.820312 252.523438 C 891.167969 252.449219 899.738281 251.164062 907.90625 249.511719 C 917.152344 247.644531 926.316406 245.1875 935.34375 242.460938 C 943.488281 240 951.558594 237.296875 959.570312 234.433594 C 963.199219 233.136719 966.816406 231.804688 970.421875 230.445312 L 971.5 346.335938 C 967.648438 347.800781 963.574219 349.3125 959.335938 350.828125 C 934.789062 359.597656 905.117188 368.441406 884.222656 368.625 C 848.621094 368.933594 815.058594 355.515625 781.625 341.664062 C 748.1875 327.8125 714.867188 313.523438 679.789062 311.828125 C 677.476562 311.71875 675.054688 311.671875 672.542969 311.691406 L 672.535156 311.691406 C 648.253906 311.851562 615.421875 317.738281 587.722656 323.886719 C 575.203125 326.664062 563.789062 329.476562 554.617188 331.847656 L 553.539062 215.816406 C 564.761719 212.90625 576.039062 210.179688 587.355469 207.667969 C 597.285156 205.460938 607.257812 203.425781 617.269531 201.628906 C 626.671875 199.945312 636.132812 198.464844 645.625 197.355469 C 654.058594 196.371094 662.628906 195.648438 671.125 195.589844 Z M 671.667969 195.585938 " fill-opacity="1" fill-rule="evenodd"/></g></g></g><g clip-path="url(#695c661be9)"><g clip-path="url(#52abd0de1b)"><g clip-path="url(#eec5e25dc7)"><path fill="#71625b" d="M 535.441406 205.730469 C 535.445312 206.191406 535.5 206.640625 535.601562 207.089844 C 535.707031 207.539062 535.855469 207.972656 536.050781 208.390625 C 536.246094 208.8125 536.484375 209.210938 536.769531 209.589844 C 537.050781 209.964844 537.371094 210.3125 537.726562 210.632812 C 538.082031 210.953125 538.472656 211.238281 538.890625 211.484375 C 539.308594 211.734375 539.75 211.945312 540.210938 212.113281 C 540.675781 212.285156 541.152344 212.410156 541.644531 212.492188 C 542.132812 212.578125 542.628906 212.617188 543.128906 212.609375 C 543.628906 212.605469 544.121094 212.554688 544.609375 212.457031 C 545.097656 212.363281 545.574219 212.226562 546.03125 212.042969 C 546.492188 211.863281 546.925781 211.644531 547.339844 211.386719 C 547.75 211.125 548.132812 210.832031 548.480469 210.503906 C 548.828125 210.175781 549.140625 209.820312 549.414062 209.4375 C 549.6875 209.054688 549.917969 208.648438 550.101562 208.222656 C 550.289062 207.800781 550.425781 207.363281 550.519531 206.910156 C 550.613281 206.460938 550.65625 206.007812 550.648438 205.550781 C 550.644531 205.09375 550.589844 204.640625 550.488281 204.191406 C 550.382812 203.746094 550.234375 203.3125 550.039062 202.890625 C 549.84375 202.46875 549.601562 202.070312 549.320312 201.695312 C 549.039062 201.316406 548.71875 200.96875 548.363281 200.648438 C 548.007812 200.332031 547.617188 200.046875 547.199219 199.796875 C 546.78125 199.546875 546.339844 199.339844 545.878906 199.167969 C 545.414062 199 544.9375 198.871094 544.445312 198.789062 C 543.957031 198.707031 543.460938 198.667969 542.960938 198.671875 C 542.460938 198.679688 541.96875 198.730469 541.480469 198.824219 C 540.992188 198.917969 540.515625 199.058594 540.058594 199.238281 C 539.597656 199.417969 539.164062 199.636719 538.75 199.898438 C 538.339844 200.15625 537.957031 200.449219 537.609375 200.777344 C 537.257812 201.105469 536.949219 201.460938 536.675781 201.84375 C 536.402344 202.230469 536.171875 202.632812 535.988281 203.058594 C 535.800781 203.484375 535.664062 203.921875 535.570312 204.371094 C 535.476562 204.820312 535.433594 205.273438 535.441406 205.730469 Z M 535.441406 205.730469 " fill-opacity="1" fill-rule="nonzero"/></g></g></g><g clip-path="url(#3d8d42ef14)"><g clip-path="url(#65cd9181fa)"><g clip-path="url(#a4f2c11c24)"><path fill="#71625b" d="M 536.210938 200.527344 C 536.214844 200.933594 536.261719 201.335938 536.355469 201.734375 C 536.445312 202.136719 536.578125 202.519531 536.753906 202.894531 C 536.929688 203.269531 537.140625 203.625 537.394531 203.960938 C 537.644531 204.296875 537.929688 204.605469 538.246094 204.890625 C 538.566406 205.175781 538.910156 205.429688 539.28125 205.652344 C 539.65625 205.875 540.046875 206.058594 540.460938 206.210938 C 540.871094 206.363281 541.296875 206.472656 541.734375 206.546875 C 542.171875 206.625 542.613281 206.65625 543.058594 206.652344 C 543.503906 206.648438 543.941406 206.601562 544.378906 206.515625 C 544.8125 206.433594 545.234375 206.308594 545.644531 206.148438 C 546.050781 205.988281 546.441406 205.792969 546.808594 205.5625 C 547.175781 205.332031 547.511719 205.070312 547.824219 204.777344 C 548.136719 204.484375 548.414062 204.167969 548.65625 203.828125 C 548.898438 203.484375 549.101562 203.125 549.269531 202.746094 C 549.433594 202.367188 549.558594 201.976562 549.640625 201.578125 C 549.722656 201.175781 549.761719 200.773438 549.753906 200.363281 C 549.75 199.957031 549.703125 199.554688 549.609375 199.15625 C 549.519531 198.757812 549.386719 198.371094 549.210938 197.996094 C 549.039062 197.621094 548.824219 197.265625 548.574219 196.929688 C 548.320312 196.59375 548.039062 196.285156 547.71875 196 C 547.402344 195.714844 547.054688 195.460938 546.683594 195.242188 C 546.3125 195.019531 545.917969 194.832031 545.507812 194.679688 C 545.09375 194.53125 544.667969 194.417969 544.230469 194.34375 C 543.792969 194.269531 543.355469 194.234375 542.910156 194.238281 C 542.464844 194.246094 542.023438 194.289062 541.589844 194.375 C 541.152344 194.460938 540.730469 194.582031 540.324219 194.742188 C 539.914062 194.902344 539.527344 195.101562 539.160156 195.332031 C 538.792969 195.5625 538.453125 195.824219 538.140625 196.113281 C 537.832031 196.40625 537.554688 196.722656 537.3125 197.066406 C 537.066406 197.40625 536.863281 197.765625 536.699219 198.144531 C 536.53125 198.523438 536.40625 198.914062 536.324219 199.316406 C 536.246094 199.714844 536.207031 200.121094 536.210938 200.527344 Z M 536.210938 200.527344 " fill-opacity="1" fill-rule="nonzero"/></g></g></g><g clip-path="url(#52efa41bca)"><g clip-path="url(#92e596ece0)"><g clip-path="url(#480df33514)"><path fill="#71625b" d="M 536.957031 196.316406 C 536.960938 196.675781 537.003906 197.03125 537.085938 197.382812 C 537.164062 197.734375 537.28125 198.074219 537.4375 198.40625 C 537.589844 198.734375 537.777344 199.046875 538 199.34375 C 538.222656 199.640625 538.472656 199.914062 538.753906 200.167969 C 539.035156 200.417969 539.339844 200.640625 539.667969 200.835938 C 539.996094 201.03125 540.339844 201.195312 540.707031 201.328125 C 541.070312 201.464844 541.445312 201.5625 541.832031 201.628906 C 542.214844 201.695312 542.605469 201.722656 542.996094 201.71875 C 543.390625 201.714844 543.777344 201.675781 544.164062 201.601562 C 544.546875 201.527344 544.917969 201.417969 545.28125 201.273438 C 545.640625 201.132812 545.984375 200.960938 546.308594 200.757812 C 546.628906 200.554688 546.929688 200.324219 547.203125 200.066406 C 547.476562 199.808594 547.722656 199.527344 547.9375 199.226562 C 548.152344 198.925781 548.332031 198.605469 548.476562 198.273438 C 548.625 197.9375 548.734375 197.59375 548.804688 197.242188 C 548.878906 196.886719 548.914062 196.53125 548.90625 196.171875 C 548.902344 195.8125 548.859375 195.457031 548.78125 195.105469 C 548.699219 194.753906 548.582031 194.414062 548.429688 194.082031 C 548.273438 193.75 548.085938 193.4375 547.863281 193.140625 C 547.644531 192.84375 547.390625 192.570312 547.113281 192.320312 C 546.832031 192.070312 546.527344 191.847656 546.199219 191.652344 C 545.867188 191.453125 545.523438 191.289062 545.160156 191.15625 C 544.792969 191.023438 544.417969 190.925781 544.035156 190.859375 C 543.648438 190.792969 543.257812 190.761719 542.867188 190.765625 C 542.472656 190.773438 542.085938 190.8125 541.703125 190.886719 C 541.316406 190.960938 540.945312 191.070312 540.585938 191.210938 C 540.222656 191.351562 539.882812 191.527344 539.558594 191.730469 C 539.234375 191.933594 538.933594 192.164062 538.660156 192.421875 C 538.386719 192.679688 538.140625 192.957031 537.925781 193.261719 C 537.710938 193.5625 537.53125 193.878906 537.386719 194.214844 C 537.238281 194.546875 537.132812 194.890625 537.058594 195.246094 C 536.984375 195.597656 536.953125 195.957031 536.957031 196.316406 Z M 536.957031 196.316406 " fill-opacity="1" fill-rule="nonzero"/></g></g></g><g clip-path="url(#d8a2b51e64)"><g clip-path="url(#8a34d2cecb)"><g clip-path="url(#82cde110e0)"><path fill="#71625b" d="M 538.101562 191.890625 C 538.101562 192.175781 538.136719 192.460938 538.203125 192.742188 C 538.265625 193.023438 538.359375 193.296875 538.484375 193.5625 C 538.605469 193.828125 538.757812 194.078125 538.933594 194.3125 C 539.113281 194.550781 539.3125 194.769531 539.539062 194.972656 C 539.761719 195.171875 540.003906 195.351562 540.269531 195.507812 C 540.53125 195.664062 540.808594 195.796875 541.097656 195.902344 C 541.390625 196.007812 541.691406 196.089844 542 196.140625 C 542.308594 196.191406 542.617188 196.21875 542.933594 196.214844 C 543.246094 196.210938 543.558594 196.179688 543.863281 196.117188 C 544.171875 196.058594 544.46875 195.972656 544.757812 195.859375 C 545.046875 195.746094 545.320312 195.605469 545.582031 195.445312 C 545.839844 195.28125 546.078125 195.097656 546.296875 194.890625 C 546.515625 194.683594 546.714844 194.460938 546.882812 194.21875 C 547.054688 193.976562 547.199219 193.722656 547.316406 193.457031 C 547.433594 193.1875 547.523438 192.914062 547.578125 192.632812 C 547.636719 192.347656 547.664062 192.0625 547.660156 191.777344 C 547.65625 191.488281 547.625 191.203125 547.558594 190.921875 C 547.496094 190.640625 547.402344 190.367188 547.277344 190.101562 C 547.152344 189.839844 547.003906 189.589844 546.828125 189.351562 C 546.648438 189.113281 546.449219 188.894531 546.222656 188.695312 C 546 188.492188 545.753906 188.316406 545.492188 188.160156 C 545.230469 188 544.953125 187.871094 544.660156 187.761719 C 544.371094 187.65625 544.070312 187.578125 543.761719 187.523438 C 543.453125 187.472656 543.140625 187.449219 542.828125 187.453125 C 542.515625 187.457031 542.203125 187.488281 541.898438 187.546875 C 541.589844 187.605469 541.292969 187.695312 541.003906 187.808594 C 540.714844 187.921875 540.441406 188.058594 540.179688 188.222656 C 539.921875 188.386719 539.683594 188.570312 539.464844 188.773438 C 539.242188 188.980469 539.046875 189.207031 538.875 189.445312 C 538.703125 189.6875 538.5625 189.941406 538.445312 190.210938 C 538.328125 190.476562 538.238281 190.75 538.179688 191.035156 C 538.125 191.316406 538.097656 191.601562 538.101562 191.890625 Z M 538.101562 191.890625 " fill-opacity="1" fill-rule="nonzero"/></g></g></g><g clip-path="url(#c16df9e491)"><g clip-path="url(#a2e72a4a87)"><g clip-path="url(#55221ba83d)"><path fill="#71625b" d="M 548.648438 208.675781 L 537.515625 208.808594 L 544.238281 771.640625 L 555.371094 771.507812 Z M 548.648438 208.675781 " fill-opacity="1" fill-rule="evenodd"/></g></g></g><g clip-path="url(#16fd94f4fe)"><g transform="matrix(1, 0, 0, 1, 585, 245)"><g clip-path="url(#365f1656cd)"><path fill="#ff751f" d="M 110.082031 100.226562 C 110.082031 100.226562 109.949219 100.039062 109.699219 99.679688 C 109.636719 99.589844 109.566406 99.492188 109.488281 99.382812 C 109.402344 99.277344 109.308594 99.164062 109.207031 99.042969 C 109.101562 98.917969 108.992188 98.785156 108.871094 98.644531 C 108.753906 98.5 108.609375 98.371094 108.46875 98.222656 C 108.320312 98.074219 108.164062 97.917969 108.003906 97.757812 C 107.835938 97.597656 107.648438 97.449219 107.457031 97.285156 C 107.261719 97.125 107.070312 96.941406 106.847656 96.785156 C 106.621094 96.628906 106.390625 96.464844 106.152344 96.296875 C 106.03125 96.214844 105.910156 96.121094 105.78125 96.042969 C 105.648438 95.96875 105.515625 95.890625 105.382812 95.8125 C 105.109375 95.660156 104.832031 95.492188 104.539062 95.335938 C 104.242188 95.195312 103.933594 95.054688 103.613281 94.910156 C 103.453125 94.839844 103.292969 94.757812 103.128906 94.695312 C 102.960938 94.632812 102.792969 94.570312 102.621094 94.507812 C 102.277344 94.386719 101.925781 94.257812 101.5625 94.140625 C 101.195312 94.046875 100.820312 93.949219 100.4375 93.847656 C 100.246094 93.800781 100.054688 93.746094 99.859375 93.703125 C 99.664062 93.671875 99.464844 93.636719 99.265625 93.605469 C 98.863281 93.539062 98.453125 93.472656 98.039062 93.402344 C 96.382812 93.238281 94.613281 93.152344 92.8125 93.3125 C 92.363281 93.351562 91.90625 93.382812 91.449219 93.421875 C 91 93.492188 90.542969 93.5625 90.085938 93.632812 C 89.859375 93.667969 89.628906 93.703125 89.398438 93.738281 C 89.167969 93.773438 88.933594 93.800781 88.710938 93.855469 C 88.253906 93.960938 87.800781 94.0625 87.339844 94.167969 C 87.113281 94.21875 86.882812 94.273438 86.652344 94.328125 C 86.421875 94.378906 86.191406 94.429688 85.96875 94.5 C 85.515625 94.628906 85.0625 94.761719 84.609375 94.898438 C 84.167969 95.03125 83.726562 95.164062 83.285156 95.296875 L 81.976562 95.710938 C 81.753906 95.785156 81.554688 95.835938 81.34375 95.898438 L 80.722656 96.074219 C 80.316406 96.199219 79.886719 96.304688 79.464844 96.414062 C 79.039062 96.527344 78.617188 96.632812 78.191406 96.730469 C 77.769531 96.824219 77.347656 96.9375 76.921875 97.015625 C 76.078125 97.1875 75.234375 97.335938 74.398438 97.480469 C 73.980469 97.539062 73.566406 97.601562 73.152344 97.660156 C 72.734375 97.707031 72.324219 97.757812 71.917969 97.808594 C 70.28125 97.976562 68.6875 98.066406 67.175781 98.066406 C 66.796875 98.074219 66.421875 98.058594 66.054688 98.058594 C 65.683594 98.050781 65.324219 98.023438 64.964844 98.019531 C 64.609375 98.003906 64.257812 97.976562 63.910156 97.957031 C 63.566406 97.925781 63.226562 97.898438 62.898438 97.867188 C 61.570312 97.742188 60.355469 97.554688 59.277344 97.347656 C 58.203125 97.144531 57.269531 96.914062 56.5 96.707031 C 54.964844 96.28125 54.097656 95.925781 54.097656 95.925781 C 54.097656 95.925781 54.144531 95.964844 54.226562 96.039062 C 54.3125 96.113281 54.441406 96.222656 54.613281 96.355469 C 54.957031 96.625 55.480469 97.003906 56.183594 97.433594 C 56.882812 97.859375 57.765625 98.335938 58.820312 98.804688 C 59.871094 99.269531 61.09375 99.726562 62.464844 100.117188 C 62.808594 100.210938 63.160156 100.304688 63.519531 100.390625 C 63.882812 100.472656 64.25 100.5625 64.628906 100.640625 C 65.382812 100.796875 66.167969 100.921875 66.980469 101.035156 C 68.609375 101.242188 70.339844 101.339844 72.132812 101.300781 C 72.578125 101.285156 73.03125 101.277344 73.488281 101.25 C 73.941406 101.214844 74.394531 101.179688 74.855469 101.144531 C 75.3125 101.09375 75.773438 101.042969 76.238281 100.992188 C 76.699219 100.933594 77.160156 100.851562 77.625 100.777344 C 78.089844 100.710938 78.550781 100.609375 79.015625 100.523438 C 79.246094 100.476562 79.480469 100.4375 79.710938 100.386719 L 80.402344 100.222656 C 80.863281 100.109375 81.324219 100.007812 81.792969 99.867188 L 82.492188 99.671875 C 82.722656 99.605469 82.96875 99.542969 83.179688 99.472656 C 84.046875 99.191406 84.914062 98.914062 85.777344 98.636719 C 86.199219 98.503906 86.613281 98.367188 87.027344 98.226562 C 87.234375 98.152344 87.445312 98.097656 87.65625 98.042969 C 87.863281 97.988281 88.070312 97.929688 88.28125 97.875 C 88.699219 97.761719 89.113281 97.648438 89.527344 97.535156 C 89.730469 97.472656 89.9375 97.4375 90.144531 97.386719 C 90.351562 97.34375 90.558594 97.296875 90.761719 97.253906 C 91.175781 97.160156 91.585938 97.070312 91.992188 96.980469 C 92.398438 96.921875 92.800781 96.847656 93.203125 96.785156 C 93.40625 96.75 93.605469 96.714844 93.804688 96.683594 C 93.90625 96.667969 94.003906 96.644531 94.105469 96.632812 L 94.402344 96.605469 C 94.796875 96.570312 95.1875 96.527344 95.578125 96.480469 C 95.769531 96.464844 95.964844 96.429688 96.15625 96.429688 C 96.347656 96.421875 96.539062 96.414062 96.730469 96.40625 C 97.109375 96.394531 97.484375 96.375 97.859375 96.359375 C 98.226562 96.367188 98.59375 96.378906 98.949219 96.386719 C 99.132812 96.390625 99.308594 96.394531 99.488281 96.398438 C 99.664062 96.417969 99.839844 96.433594 100.011719 96.449219 C 100.359375 96.480469 100.699219 96.511719 101.035156 96.542969 C 101.367188 96.597656 101.691406 96.652344 102.011719 96.703125 C 102.171875 96.730469 102.332031 96.753906 102.488281 96.78125 C 102.644531 96.808594 102.796875 96.851562 102.949219 96.890625 C 103.25 96.964844 103.542969 97.039062 103.835938 97.101562 C 104.121094 97.1875 104.394531 97.28125 104.667969 97.367188 C 104.800781 97.410156 104.933594 97.453125 105.066406 97.492188 C 105.199219 97.535156 105.320312 97.59375 105.445312 97.640625 C 105.695312 97.738281 105.9375 97.835938 106.171875 97.929688 C 106.292969 97.972656 106.398438 98.03125 106.507812 98.082031 C 106.617188 98.136719 106.726562 98.1875 106.832031 98.238281 C 107.042969 98.339844 107.253906 98.433594 107.441406 98.535156 C 107.628906 98.644531 107.808594 98.746094 107.980469 98.84375 C 108.332031 99.027344 108.617188 99.226562 108.878906 99.390625 C 109.011719 99.476562 109.132812 99.554688 109.242188 99.625 C 109.351562 99.703125 109.449219 99.773438 109.539062 99.839844 C 109.890625 100.09375 110.082031 100.226562 110.082031 100.226562 " fill-opacity="1" fill-rule="nonzero"/><path fill="#ff751f" d="M 54.054688 95.898438 C 54.636719 95.933594 55.214844 95.953125 55.792969 95.976562 C 56.371094 95.996094 56.945312 96.039062 57.527344 96.019531 C 58.109375 96.011719 58.691406 95.992188 59.277344 95.976562 C 59.570312 95.96875 59.863281 95.964844 60.15625 95.949219 L 61.027344 95.882812 C 61.609375 95.839844 62.191406 95.789062 62.773438 95.738281 C 63.351562 95.667969 63.933594 95.597656 64.511719 95.515625 L 65.386719 95.398438 L 66.25 95.25 C 66.828125 95.144531 67.40625 95.042969 67.980469 94.925781 L 69.703125 94.539062 C 69.992188 94.472656 70.273438 94.398438 70.558594 94.320312 L 71.410156 94.089844 C 71.695312 94.007812 71.984375 93.9375 72.265625 93.851562 L 73.109375 93.585938 L 73.957031 93.3125 L 74.792969 93.019531 L 75.632812 92.71875 C 75.910156 92.613281 76.183594 92.5 76.460938 92.390625 C 76.734375 92.277344 77.011719 92.171875 77.285156 92.050781 L 78.105469 91.691406 C 78.378906 91.574219 78.652344 91.441406 78.921875 91.3125 C 79.195312 91.1875 79.46875 91.058594 79.734375 90.914062 C 80.003906 90.773438 80.273438 90.636719 80.542969 90.484375 C 80.679688 90.410156 80.8125 90.339844 80.949219 90.257812 C 81.09375 90.171875 81.214844 90.105469 81.386719 89.996094 L 90.363281 84.296875 L 79.875 86.6875 C 78.90625 86.90625 77.9375 87.125 76.972656 87.359375 L 74.058594 87.945312 C 73.085938 88.109375 72.113281 88.296875 71.136719 88.445312 L 69.671875 88.648438 L 68.941406 88.753906 C 68.695312 88.789062 68.449219 88.808594 68.207031 88.839844 L 66.738281 89 L 66.371094 89.039062 L 66.003906 89.066406 L 65.269531 89.117188 C 64.777344 89.152344 64.285156 89.203125 63.796875 89.226562 L 62.324219 89.289062 C 62.078125 89.296875 61.835938 89.316406 61.589844 89.316406 C 61.34375 89.316406 61.097656 89.316406 60.851562 89.320312 C 60.363281 89.324219 59.871094 89.339844 59.382812 89.332031 C 58.402344 89.304688 57.421875 89.292969 56.445312 89.222656 C 55.460938 89.1875 54.492188 89.066406 53.511719 88.976562 L 52.054688 88.792969 C 51.566406 88.730469 51.085938 88.636719 50.601562 88.558594 C 50.113281 88.492188 49.636719 88.386719 49.152344 88.292969 C 48.914062 88.246094 48.671875 88.203125 48.429688 88.148438 L 47.714844 87.976562 L 46.996094 87.8125 L 46.28125 87.625 L 45.566406 87.429688 L 44.859375 87.214844 L 44.152344 87.003906 L 43.449219 86.765625 C 42.976562 86.613281 42.519531 86.433594 42.054688 86.261719 C 41.125 85.910156 40.210938 85.519531 39.308594 85.097656 C 38.402344 84.679688 37.519531 84.207031 36.648438 83.703125 C 36.425781 83.582031 36.214844 83.445312 36 83.316406 C 35.78125 83.1875 35.570312 83.050781 35.355469 82.914062 C 34.9375 82.632812 34.519531 82.34375 34.117188 82.027344 C 34.414062 82.445312 34.757812 82.832031 35.105469 83.207031 C 35.457031 83.585938 35.820312 83.957031 36.207031 84.300781 C 36.582031 84.65625 36.976562 84.988281 37.382812 85.316406 L 37.992188 85.800781 C 38.199219 85.957031 38.410156 86.105469 38.621094 86.261719 C 38.828125 86.417969 39.042969 86.5625 39.257812 86.707031 C 39.472656 86.851562 39.6875 87.003906 39.90625 87.144531 L 40.570312 87.554688 L 40.90625 87.757812 L 41.246094 87.953125 L 41.925781 88.339844 C 42.15625 88.46875 42.390625 88.578125 42.621094 88.699219 L 43.320312 89.054688 L 44.03125 89.386719 L 44.746094 89.710938 L 45.472656 90.007812 L 46.203125 90.304688 L 46.941406 90.574219 L 47.683594 90.835938 C 47.929688 90.917969 48.183594 90.992188 48.433594 91.074219 C 48.933594 91.226562 49.433594 91.394531 49.941406 91.519531 C 50.449219 91.648438 50.957031 91.792969 51.46875 91.90625 L 53.007812 92.238281 C 53.523438 92.339844 54.042969 92.417969 54.558594 92.503906 C 55.078125 92.601562 55.597656 92.65625 56.117188 92.722656 C 57.15625 92.875 58.203125 92.933594 59.25 93.015625 C 59.773438 93.050781 60.296875 93.058594 60.820312 93.082031 C 61.34375 93.101562 61.867188 93.113281 62.390625 93.101562 L 63.960938 93.082031 C 64.484375 93.070312 65.003906 93.035156 65.527344 93.011719 L 66.308594 92.964844 L 66.703125 92.9375 L 67.089844 92.902344 L 68.648438 92.746094 C 69.6875 92.660156 70.714844 92.476562 71.746094 92.332031 C 72.003906 92.296875 72.261719 92.25 72.515625 92.199219 L 73.285156 92.058594 L 74.816406 91.773438 L 77.851562 91.070312 C 78.851562 90.804688 79.851562 90.523438 80.847656 90.242188 L 79.335938 86.929688 C 79.269531 86.980469 79.144531 87.058594 79.042969 87.128906 C 78.9375 87.199219 78.816406 87.269531 78.707031 87.339844 C 78.484375 87.480469 78.246094 87.617188 78.011719 87.753906 C 77.777344 87.890625 77.535156 88.023438 77.296875 88.15625 C 77.058594 88.292969 76.820312 88.429688 76.574219 88.554688 L 75.839844 88.9375 C 75.59375 89.066406 75.339844 89.183594 75.089844 89.304688 L 74.34375 89.671875 L 73.582031 90.019531 L 72.820312 90.363281 L 72.046875 90.6875 L 71.273438 91.015625 C 71.011719 91.125 70.75 91.222656 70.488281 91.324219 L 69.703125 91.632812 C 69.441406 91.734375 69.179688 91.835938 68.914062 91.925781 L 67.320312 92.492188 C 66.789062 92.675781 66.246094 92.835938 65.707031 93.011719 L 64.902344 93.277344 L 64.082031 93.511719 L 62.445312 93.984375 C 61.894531 94.125 61.34375 94.261719 60.792969 94.40625 L 59.960938 94.625 C 59.683594 94.691406 59.40625 94.746094 59.128906 94.8125 C 58.574219 94.941406 58.015625 95.0625 57.457031 95.195312 L 57.035156 95.292969 L 56.609375 95.375 L 55.757812 95.542969 C 55.191406 95.660156 54.621094 95.769531 54.054688 95.898438 " fill-opacity="1" fill-rule="nonzero"/><path fill="#ff751f" d="M 34.117188 82.027344 C 34.769531 82.15625 35.425781 82.261719 36.082031 82.375 C 36.410156 82.433594 36.738281 82.492188 37.0625 82.542969 L 37.554688 82.621094 L 38.050781 82.683594 L 40.046875 82.914062 C 40.378906 82.945312 40.714844 82.992188 41.046875 83.011719 L 42.046875 83.082031 L 44.050781 83.203125 C 44.71875 83.226562 45.386719 83.234375 46.058594 83.25 C 46.390625 83.253906 46.730469 83.265625 47.0625 83.265625 L 48.070312 83.246094 C 48.738281 83.230469 49.414062 83.230469 50.082031 83.199219 L 52.09375 83.078125 C 52.433594 83.0625 52.765625 83.027344 53.101562 83 L 54.105469 82.90625 C 54.777344 82.847656 55.445312 82.757812 56.117188 82.671875 L 57.121094 82.542969 L 59.121094 82.222656 L 60.117188 82.03125 C 60.785156 81.910156 61.449219 81.769531 62.109375 81.617188 C 62.445312 81.546875 62.773438 81.457031 63.105469 81.378906 C 63.4375 81.296875 63.765625 81.214844 64.097656 81.121094 C 64.429688 81.03125 64.761719 80.941406 65.09375 80.839844 C 65.261719 80.792969 65.425781 80.746094 65.597656 80.691406 C 65.769531 80.636719 65.925781 80.585938 66.128906 80.515625 L 79.488281 75.789062 L 65.269531 76.855469 L 62.246094 77.082031 L 59.222656 77.242188 C 58.214844 77.277344 57.210938 77.285156 56.203125 77.316406 C 55.199219 77.320312 54.191406 77.316406 53.1875 77.3125 L 51.683594 77.257812 C 51.183594 77.242188 50.679688 77.242188 50.179688 77.203125 C 49.179688 77.136719 48.175781 77.097656 47.183594 76.988281 C 46.6875 76.945312 46.1875 76.90625 45.6875 76.855469 L 44.203125 76.671875 C 43.953125 76.640625 43.703125 76.613281 43.457031 76.578125 L 42.71875 76.464844 C 42.226562 76.386719 41.730469 76.320312 41.238281 76.234375 C 40.257812 76.042969 39.273438 75.871094 38.304688 75.640625 L 37.574219 75.480469 L 36.851562 75.292969 L 36.125 75.105469 L 35.761719 75.015625 L 35.402344 74.910156 C 34.925781 74.765625 34.445312 74.632812 33.96875 74.484375 C 33.496094 74.324219 33.023438 74.164062 32.546875 74.011719 L 31.144531 73.492188 L 29.753906 72.925781 L 28.386719 72.304688 C 27.941406 72.078125 27.480469 71.871094 27.042969 71.632812 C 26.597656 71.394531 26.152344 71.160156 25.722656 70.902344 C 25.507812 70.777344 25.28125 70.65625 25.070312 70.523438 L 24.429688 70.121094 C 23.582031 69.574219 22.753906 68.988281 21.957031 68.355469 C 21.164062 67.714844 20.390625 67.039062 19.707031 66.261719 C 19.933594 66.730469 20.214844 67.171875 20.511719 67.601562 C 20.804688 68.035156 21.121094 68.457031 21.457031 68.859375 C 22.125 69.671875 22.859375 70.429688 23.628906 71.148438 C 24.40625 71.863281 25.226562 72.535156 26.082031 73.164062 C 26.292969 73.324219 26.511719 73.472656 26.726562 73.625 L 27.382812 74.074219 C 27.828125 74.359375 28.28125 74.640625 28.730469 74.921875 C 29.191406 75.1875 29.652344 75.453125 30.117188 75.703125 L 31.539062 76.429688 C 32.019531 76.652344 32.5 76.875 32.988281 77.09375 C 33.472656 77.300781 33.96875 77.496094 34.460938 77.695312 C 34.949219 77.90625 35.453125 78.066406 35.953125 78.246094 L 36.707031 78.511719 L 37.46875 78.746094 L 38.226562 78.980469 C 38.480469 79.0625 38.734375 79.136719 38.992188 79.199219 L 40.535156 79.597656 C 41.046875 79.726562 41.566406 79.828125 42.085938 79.945312 L 42.863281 80.113281 C 43.121094 80.164062 43.382812 80.207031 43.644531 80.253906 L 45.210938 80.519531 C 45.730469 80.597656 46.257812 80.660156 46.78125 80.734375 C 47.828125 80.886719 48.878906 80.953125 49.933594 81.050781 C 50.984375 81.144531 52.039062 81.175781 53.089844 81.226562 C 54.144531 81.246094 55.195312 81.257812 56.246094 81.261719 C 57.296875 81.230469 58.347656 81.207031 59.398438 81.160156 C 60.445312 81.089844 61.492188 81.039062 62.535156 80.945312 L 65.660156 80.625 L 64.800781 76.964844 L 64.394531 77.113281 C 64.253906 77.167969 64.101562 77.21875 63.953125 77.269531 C 63.660156 77.375 63.355469 77.46875 63.054688 77.566406 C 62.753906 77.667969 62.445312 77.757812 62.140625 77.847656 C 61.832031 77.9375 61.527344 78.035156 61.21875 78.117188 C 60.597656 78.28125 59.980469 78.464844 59.351562 78.617188 L 58.417969 78.859375 L 56.527344 79.296875 L 55.578125 79.5 C 54.941406 79.632812 54.308594 79.773438 53.667969 79.878906 C 53.027344 79.992188 52.394531 80.132812 51.75 80.234375 L 49.824219 80.550781 C 49.179688 80.65625 48.535156 80.734375 47.886719 80.828125 L 46.917969 80.964844 C 46.59375 81.007812 46.269531 81.042969 45.941406 81.082031 C 45.292969 81.15625 44.640625 81.226562 43.992188 81.308594 L 42.03125 81.488281 L 41.046875 81.585938 C 40.71875 81.621094 40.394531 81.632812 40.066406 81.65625 L 38.097656 81.796875 L 37.601562 81.835938 L 37.105469 81.859375 C 36.773438 81.871094 36.441406 81.890625 36.109375 81.910156 C 35.445312 81.945312 34.78125 81.976562 34.117188 82.027344 " fill-opacity="1" fill-rule="nonzero"/><path fill="#ff751f" d="M 19.707031 66.261719 C 20.082031 66.445312 20.453125 66.632812 20.828125 66.8125 C 21.203125 66.988281 21.597656 67.136719 21.984375 67.300781 C 22.375 67.472656 22.769531 67.601562 23.167969 67.738281 L 23.765625 67.945312 C 23.964844 68.011719 24.167969 68.066406 24.367188 68.128906 L 24.972656 68.304688 C 25.175781 68.363281 25.378906 68.421875 25.582031 68.46875 L 26.808594 68.769531 C 27.632812 68.9375 28.460938 69.117188 29.292969 69.246094 C 30.121094 69.394531 30.957031 69.488281 31.796875 69.597656 C 32.632812 69.691406 33.472656 69.773438 34.308594 69.828125 C 35.152344 69.898438 35.992188 69.933594 36.832031 69.964844 C 37.671875 69.988281 38.515625 70.011719 39.355469 70.011719 C 39.777344 70.019531 40.199219 70.011719 40.617188 70.003906 C 41.039062 69.996094 41.460938 69.996094 41.878906 69.976562 L 43.140625 69.9375 L 44.398438 69.875 C 45.238281 69.824219 46.078125 69.773438 46.914062 69.703125 C 47.75 69.640625 48.585938 69.5625 49.421875 69.472656 C 50.257812 69.386719 51.089844 69.289062 51.925781 69.183594 C 52.757812 69.078125 53.589844 68.964844 54.421875 68.835938 C 55.25 68.710938 56.082031 68.570312 56.910156 68.429688 L 58.15625 68.203125 C 58.578125 68.125 58.980469 68.046875 59.421875 67.949219 L 76.371094 64.261719 L 58.941406 64.203125 L 57.070312 64.199219 L 56.132812 64.195312 C 55.820312 64.195312 55.507812 64.195312 55.199219 64.179688 C 54.574219 64.152344 53.953125 64.128906 53.328125 64.109375 L 52.394531 64.078125 C 52.082031 64.066406 51.773438 64.039062 51.464844 64.015625 L 49.601562 63.882812 C 49.449219 63.871094 49.292969 63.863281 49.136719 63.847656 L 48.675781 63.796875 L 47.746094 63.699219 L 46.820312 63.605469 C 46.511719 63.570312 46.203125 63.546875 45.894531 63.496094 L 44.054688 63.230469 C 43.4375 63.15625 42.832031 63.03125 42.222656 62.921875 L 41.308594 62.761719 C 41.003906 62.707031 40.695312 62.660156 40.394531 62.585938 L 38.582031 62.1875 L 38.128906 62.089844 L 36.78125 61.738281 C 36.183594 61.585938 35.582031 61.441406 34.992188 61.253906 C 34.402344 61.074219 33.808594 60.902344 33.21875 60.714844 C 32.636719 60.511719 32.050781 60.3125 31.464844 60.117188 C 31.167969 60.023438 30.882812 59.910156 30.59375 59.800781 L 29.730469 59.46875 C 29.441406 59.351562 29.148438 59.25 28.867188 59.128906 L 28.015625 58.761719 L 27.160156 58.398438 C 26.875 58.277344 26.601562 58.136719 26.320312 58.007812 C 25.195312 57.492188 24.101562 56.914062 23.011719 56.328125 L 22.203125 55.871094 C 21.933594 55.714844 21.660156 55.570312 21.402344 55.402344 L 20.609375 54.910156 C 20.347656 54.746094 20.078125 54.59375 19.820312 54.417969 L 19.046875 53.902344 C 18.785156 53.730469 18.523438 53.558594 18.277344 53.375 L 17.519531 52.832031 L 17.140625 52.558594 L 16.769531 52.277344 C 16.273438 51.898438 15.773438 51.523438 15.296875 51.117188 L 14.574219 50.523438 L 13.867188 49.90625 L 13.515625 49.597656 L 13.167969 49.277344 L 12.480469 48.640625 L 11.808594 47.980469 L 11.472656 47.648438 L 11.144531 47.308594 C 10.265625 46.410156 9.429688 45.464844 8.625 44.484375 C 8.226562 43.992188 7.832031 43.496094 7.453125 42.984375 C 7.078125 42.472656 6.707031 41.953125 6.359375 41.414062 C 6.585938 42.015625 6.855469 42.597656 7.136719 43.175781 C 7.421875 43.753906 7.714844 44.328125 8.039062 44.886719 C 8.679688 46.007812 9.386719 47.09375 10.152344 48.140625 L 10.4375 48.535156 L 10.734375 48.921875 L 11.332031 49.691406 L 12.269531 50.816406 L 12.59375 51.179688 L 13.25 51.90625 C 13.46875 52.144531 13.699219 52.375 13.925781 52.609375 C 14.375 53.085938 14.851562 53.53125 15.324219 53.984375 C 16.269531 54.886719 17.277344 55.722656 18.300781 56.542969 C 18.808594 56.953125 19.34375 57.328125 19.871094 57.722656 C 20.132812 57.921875 20.40625 58.097656 20.675781 58.285156 L 21.492188 58.835938 C 22.585938 59.558594 23.714844 60.238281 24.867188 60.863281 C 25.15625 61.023438 25.4375 61.191406 25.730469 61.335938 L 26.609375 61.78125 L 27.496094 62.21875 C 27.789062 62.367188 28.09375 62.492188 28.390625 62.628906 L 29.292969 63.027344 C 29.59375 63.160156 29.890625 63.296875 30.199219 63.414062 C 30.808594 63.65625 31.421875 63.898438 32.035156 64.132812 C 32.652344 64.355469 33.277344 64.558594 33.898438 64.773438 C 34.515625 64.996094 35.144531 65.175781 35.777344 65.363281 L 37.195312 65.773438 L 37.671875 65.886719 L 39.585938 66.355469 C 39.902344 66.4375 40.226562 66.492188 40.546875 66.558594 L 41.507812 66.753906 C 42.152344 66.878906 42.792969 67.011719 43.441406 67.097656 L 45.382812 67.390625 C 45.707031 67.445312 46.03125 67.476562 46.355469 67.511719 L 47.332031 67.621094 L 48.304688 67.726562 L 48.792969 67.777344 C 48.953125 67.789062 49.117188 67.796875 49.28125 67.808594 L 51.234375 67.933594 C 51.558594 67.953125 51.886719 67.980469 52.210938 67.992188 L 53.1875 68.015625 C 53.839844 68.035156 54.488281 68.046875 55.140625 68.058594 C 55.46875 68.070312 55.792969 68.0625 56.117188 68.054688 L 57.09375 68.035156 L 59.042969 67.996094 L 58.5625 64.253906 L 57.398438 64.519531 L 56.207031 64.78125 C 55.410156 64.949219 54.609375 65.113281 53.808594 65.265625 L 51.398438 65.710938 C 50.59375 65.855469 49.785156 65.992188 48.976562 66.121094 C 48.171875 66.246094 47.363281 66.375 46.554688 66.492188 C 45.746094 66.613281 44.933594 66.71875 44.121094 66.820312 L 42.90625 66.972656 L 41.6875 67.109375 C 41.28125 67.15625 40.875 67.191406 40.46875 67.230469 C 40.058594 67.273438 39.652344 67.308594 39.246094 67.339844 C 38.433594 67.417969 37.617188 67.472656 36.800781 67.527344 L 35.578125 67.59375 C 35.167969 67.617188 34.761719 67.632812 34.351562 67.644531 C 33.945312 67.65625 33.535156 67.679688 33.128906 67.679688 L 31.902344 67.695312 C 31.085938 67.6875 30.265625 67.695312 29.449219 67.652344 C 28.632812 67.636719 27.816406 67.574219 27 67.519531 L 25.777344 67.40625 C 25.367188 67.375 24.964844 67.304688 24.558594 67.257812 C 24.351562 67.230469 24.148438 67.207031 23.945312 67.175781 L 23.339844 67.070312 C 22.933594 67 22.523438 66.945312 22.125 66.851562 C 21.722656 66.761719 21.316406 66.691406 20.914062 66.582031 C 20.515625 66.46875 20.109375 66.367188 19.707031 66.261719 " fill-opacity="1" fill-rule="nonzero"/><g clip-path="url(#a20848df7a)"><path fill="#ff751f" d="M 6.046875 40.765625 C 6.917969 41.324219 7.789062 41.878906 8.675781 42.410156 L 10.015625 43.195312 L 10.691406 43.585938 L 11.375 43.957031 L 12.75 44.691406 C 13.207031 44.9375 13.675781 45.15625 14.140625 45.394531 C 14.605469 45.621094 15.070312 45.859375 15.539062 46.078125 L 16.960938 46.726562 C 17.199219 46.832031 17.433594 46.945312 17.671875 47.046875 L 18.394531 47.347656 L 19.835938 47.953125 L 21.292969 48.515625 L 22.023438 48.796875 L 22.765625 49.054688 L 24.242188 49.574219 L 25.734375 50.054688 C 26.234375 50.21875 26.734375 50.359375 27.238281 50.503906 C 27.742188 50.648438 28.242188 50.804688 28.75 50.933594 L 30.269531 51.332031 L 31.800781 51.691406 C 32.3125 51.8125 32.828125 51.914062 33.339844 52.019531 L 34.109375 52.179688 L 34.886719 52.324219 C 35.917969 52.519531 36.957031 52.675781 37.996094 52.828125 L 39.5625 53.035156 L 41.136719 53.207031 L 42.710938 53.339844 C 43.238281 53.371094 43.765625 53.410156 44.292969 53.433594 C 45.347656 53.484375 46.40625 53.523438 47.464844 53.519531 C 48.527344 53.519531 49.589844 53.496094 50.65625 53.433594 C 51.191406 53.402344 51.722656 53.363281 52.261719 53.316406 C 52.53125 53.289062 52.800781 53.265625 53.074219 53.230469 L 53.488281 53.179688 L 53.699219 53.152344 L 53.933594 53.117188 L 65.601562 51.34375 L 53.863281 49.410156 L 51.417969 49.007812 L 48.984375 48.550781 L 46.570312 48.027344 C 45.769531 47.828125 44.964844 47.65625 44.171875 47.445312 C 42.578125 47.035156 40.996094 46.59375 39.4375 46.085938 L 38.269531 45.707031 L 37.109375 45.300781 C 36.332031 45.042969 35.570312 44.738281 34.808594 44.449219 C 34.421875 44.304688 34.050781 44.140625 33.671875 43.984375 C 33.296875 43.828125 32.914062 43.675781 32.542969 43.511719 C 31.800781 43.167969 31.046875 42.859375 30.316406 42.492188 L 29.214844 41.960938 L 28.128906 41.398438 C 27.765625 41.214844 27.410156 41.011719 27.054688 40.8125 C 26.703125 40.613281 26.34375 40.421875 25.992188 40.214844 C 24.585938 39.394531 23.214844 38.519531 21.878906 37.59375 C 20.554688 36.648438 19.261719 35.65625 18.019531 34.613281 C 16.773438 33.5625 15.597656 32.441406 14.457031 31.28125 C 13.316406 30.117188 12.242188 28.890625 11.21875 27.617188 C 10.199219 26.34375 9.246094 25.011719 8.355469 23.636719 C 7.457031 22.265625 6.636719 20.84375 5.871094 19.382812 C 5.105469 17.925781 4.417969 16.425781 3.792969 14.894531 C 3.480469 14.128906 3.183594 13.355469 2.910156 12.570312 C 2.625 11.789062 2.367188 11 2.125 10.207031 C 1.640625 8.613281 1.222656 6.996094 0.882812 5.359375 C 0.546875 3.722656 0.269531 2.0625 0.136719 0.382812 C 0.0585938 1.222656 0.046875 2.070312 0.0546875 2.917969 C 0.0664062 3.765625 0.0976562 4.613281 0.167969 5.460938 C 0.292969 7.15625 0.523438 8.84375 0.84375 10.519531 C 1.15625 12.199219 1.570312 13.863281 2.066406 15.503906 C 2.554688 17.148438 3.148438 18.761719 3.8125 20.351562 C 4.480469 21.9375 5.242188 23.488281 6.078125 25.003906 C 6.914062 26.515625 7.84375 27.980469 8.835938 29.402344 C 9.835938 30.820312 10.925781 32.179688 12.070312 33.484375 C 13.21875 34.789062 14.4375 36.035156 15.722656 37.210938 C 17.003906 38.386719 18.34375 39.5 19.734375 40.542969 C 21.136719 41.574219 22.570312 42.558594 24.054688 43.464844 C 24.425781 43.695312 24.804688 43.90625 25.175781 44.125 C 25.550781 44.347656 25.925781 44.566406 26.3125 44.765625 L 27.457031 45.386719 L 28.617188 45.972656 C 29.386719 46.375 30.179688 46.722656 30.964844 47.085938 C 31.363281 47.265625 31.761719 47.425781 32.160156 47.597656 C 32.5625 47.765625 32.957031 47.941406 33.359375 48.09375 C 34.167969 48.40625 34.96875 48.730469 35.785156 49.011719 L 37.007812 49.445312 L 38.238281 49.839844 C 39.882812 50.367188 41.546875 50.820312 43.214844 51.242188 C 43.628906 51.355469 44.050781 51.441406 44.46875 51.542969 L 45.726562 51.828125 L 48.257812 52.332031 L 50.792969 52.761719 L 53.335938 53.128906 L 53.265625 49.421875 L 52.949219 49.476562 L 52.59375 49.53125 C 52.359375 49.566406 52.113281 49.59375 51.871094 49.625 C 51.382812 49.683594 50.890625 49.734375 50.398438 49.777344 C 49.410156 49.863281 48.410156 49.914062 47.410156 49.945312 C 46.410156 49.988281 45.402344 49.992188 44.398438 49.984375 C 43.894531 49.984375 43.394531 49.964844 42.890625 49.953125 L 41.378906 49.890625 L 39.871094 49.800781 L 38.359375 49.683594 C 37.355469 49.589844 36.347656 49.484375 35.34375 49.355469 L 34.589844 49.261719 L 33.839844 49.15625 C 33.339844 49.082031 32.835938 49.015625 32.335938 48.929688 L 30.835938 48.675781 L 29.339844 48.394531 C 28.839844 48.308594 28.347656 48.191406 27.847656 48.089844 C 27.351562 47.984375 26.851562 47.882812 26.359375 47.757812 L 24.871094 47.410156 L 23.394531 47.027344 L 22.652344 46.832031 L 21.917969 46.621094 L 20.445312 46.203125 L 18.984375 45.75 L 18.25 45.519531 L 17.523438 45.277344 L 16.066406 44.789062 C 15.582031 44.625 15.105469 44.4375 14.621094 44.265625 C 14.140625 44.089844 13.652344 43.925781 13.175781 43.734375 L 11.742188 43.175781 L 11.023438 42.894531 L 10.3125 42.597656 L 8.886719 42.007812 C 7.933594 41.605469 6.996094 41.167969 6.046875 40.765625 " fill-opacity="1" fill-rule="nonzero"/></g><g clip-path="url(#c07f793bcb)"><path fill="#ff751f" d="M 0.136719 0.382812 C 0.136719 0.382812 0.207031 0.542969 0.34375 0.855469 C 0.480469 1.171875 0.679688 1.640625 0.953125 2.242188 C 1.101562 2.539062 1.265625 2.875 1.445312 3.242188 C 1.625 3.609375 1.820312 4.011719 2.050781 4.433594 C 2.28125 4.859375 2.519531 5.324219 2.792969 5.804688 C 3.078125 6.285156 3.378906 6.792969 3.699219 7.328125 C 5.007812 9.453125 6.792969 11.9375 9.148438 14.546875 C 10.332031 15.84375 11.667969 17.160156 13.148438 18.476562 C 13.523438 18.800781 13.902344 19.125 14.289062 19.457031 C 14.683594 19.773438 15.085938 20.097656 15.488281 20.421875 C 16.3125 21.058594 17.164062 21.699219 18.058594 22.320312 C 19.84375 23.566406 21.78125 24.746094 23.839844 25.871094 C 25.902344 26.992188 28.101562 28.023438 30.398438 28.984375 C 34.996094 30.898438 40.019531 32.441406 45.269531 33.660156 C 47.894531 34.277344 50.578125 34.796875 53.300781 35.265625 C 54.65625 35.496094 56.027344 35.722656 57.402344 35.925781 C 58.777344 36.132812 60.160156 36.316406 61.546875 36.5 C 64.320312 36.855469 67.109375 37.203125 69.894531 37.511719 C 72.675781 37.828125 75.457031 38.148438 78.191406 38.535156 C 80.917969 38.914062 83.621094 39.351562 86.125 40.019531 C 86.441406 40.097656 86.746094 40.191406 87.050781 40.28125 L 87.277344 40.347656 C 87.277344 40.347656 87.367188 40.375 87.289062 40.347656 L 87.351562 40.371094 L 87.472656 40.410156 L 87.972656 40.578125 L 88.96875 40.90625 C 89.132812 40.957031 89.308594 41.011719 89.464844 41.066406 L 89.917969 41.234375 L 90.828125 41.570312 L 91.285156 41.734375 L 91.742188 41.925781 L 93.113281 42.488281 L 93.558594 42.691406 C 94.753906 43.226562 95.925781 43.800781 97.050781 44.425781 C 97.332031 44.582031 97.613281 44.738281 97.894531 44.894531 C 98.179688 45.046875 98.445312 45.226562 98.71875 45.386719 C 98.992188 45.554688 99.265625 45.722656 99.539062 45.886719 C 99.804688 46.066406 100.066406 46.242188 100.328125 46.417969 C 102.429688 47.839844 104.359375 49.4375 106.054688 51.207031 C 107.746094 52.972656 109.226562 54.886719 110.453125 56.914062 C 111.683594 58.9375 112.683594 61.050781 113.457031 63.203125 C 114.234375 65.355469 114.8125 67.527344 115.210938 69.675781 C 115.617188 71.820312 115.847656 73.9375 115.980469 75.984375 C 116.109375 78.03125 116.105469 80.011719 116.042969 81.894531 C 115.984375 83.78125 115.832031 85.574219 115.65625 87.257812 C 115.292969 90.628906 114.757812 93.554688 114.25 95.953125 C 113.730469 98.351562 113.25 100.230469 112.878906 101.496094 C 112.695312 102.132812 112.554688 102.617188 112.453125 102.945312 C 112.347656 103.269531 112.292969 103.4375 112.292969 103.4375 C 112.292969 103.4375 112.375 103.28125 112.535156 102.976562 C 112.6875 102.671875 112.917969 102.21875 113.195312 101.613281 C 113.746094 100.40625 114.539062 98.621094 115.375 96.277344 C 116.21875 93.933594 117.121094 91.035156 117.878906 87.625 C 118.628906 84.21875 119.234375 80.289062 119.355469 75.929688 C 119.410156 73.75 119.328125 71.464844 119.074219 69.101562 C 119.015625 68.511719 118.921875 67.917969 118.839844 67.316406 C 118.734375 66.722656 118.648438 66.117188 118.519531 65.511719 C 118.394531 64.90625 118.277344 64.292969 118.117188 63.683594 C 118.042969 63.378906 117.972656 63.070312 117.890625 62.765625 C 117.804688 62.460938 117.71875 62.152344 117.628906 61.847656 L 117.496094 61.382812 L 117.347656 60.925781 C 117.25 60.617188 117.148438 60.308594 117.046875 60 C 116.933594 59.695312 116.820312 59.390625 116.707031 59.082031 C 116.589844 58.773438 116.480469 58.464844 116.347656 58.164062 C 116.21875 57.855469 116.089844 57.550781 115.960938 57.246094 C 115.835938 56.9375 115.679688 56.640625 115.542969 56.335938 C 115.394531 56.03125 115.261719 55.722656 115.105469 55.425781 C 114.949219 55.125 114.789062 54.824219 114.632812 54.523438 C 114.480469 54.21875 114.304688 53.925781 114.132812 53.628906 C 113.960938 53.335938 113.789062 53.039062 113.613281 52.742188 C 113.425781 52.453125 113.238281 52.164062 113.050781 51.875 L 112.765625 51.4375 C 112.671875 51.292969 112.566406 51.152344 112.464844 51.011719 C 112.261719 50.730469 112.058594 50.445312 111.855469 50.160156 C 111.652344 49.875 111.425781 49.609375 111.210938 49.328125 C 110.992188 49.054688 110.78125 48.769531 110.550781 48.503906 C 110.316406 48.238281 110.085938 47.972656 109.855469 47.703125 C 107.988281 45.5625 105.804688 43.652344 103.457031 41.953125 C 103.164062 41.742188 102.867188 41.53125 102.570312 41.320312 C 102.265625 41.121094 101.964844 40.921875 101.660156 40.722656 C 101.351562 40.527344 101.054688 40.316406 100.738281 40.132812 C 100.425781 39.949219 100.113281 39.761719 99.796875 39.574219 C 98.535156 38.839844 97.234375 38.171875 95.910156 37.550781 L 95.414062 37.3125 L 94.910156 37.09375 L 93.902344 36.660156 L 93.398438 36.441406 L 91.828125 35.832031 L 91.300781 35.628906 C 91.128906 35.566406 90.96875 35.511719 90.804688 35.453125 L 89.8125 35.113281 L 89.3125 34.945312 L 89.1875 34.902344 L 89.007812 34.84375 L 88.734375 34.761719 C 88.367188 34.648438 88 34.535156 87.636719 34.441406 C 86.175781 34.042969 84.730469 33.730469 83.289062 33.460938 C 81.851562 33.195312 80.421875 32.964844 78.996094 32.765625 C 73.296875 32 67.699219 31.503906 62.226562 30.894531 C 60.859375 30.742188 59.5 30.582031 58.152344 30.414062 C 56.804688 30.253906 55.464844 30.078125 54.136719 29.894531 C 51.484375 29.519531 48.882812 29.089844 46.335938 28.617188 C 41.25 27.644531 36.402344 26.441406 31.949219 24.898438 C 27.492188 23.371094 23.421875 21.535156 19.863281 19.480469 C 18.078125 18.460938 16.421875 17.386719 14.902344 16.285156 C 13.375 15.1875 11.996094 14.054688 10.722656 12.953125 C 8.207031 10.714844 6.199219 8.539062 4.644531 6.652344 C 3.097656 4.757812 1.992188 3.171875 1.246094 2.082031 C 0.523438 0.972656 0.136719 0.382812 0.136719 0.382812 " fill-opacity="1" fill-rule="nonzero"/></g></g></g></g><path fill="#ff751f" d="M 778.078125 352.683594 L 778.078125 349.816406 C 778.078125 346.316406 775.242188 343.484375 771.746094 343.484375 C 768.25 343.484375 765.414062 346.316406 765.414062 349.816406 L 765.414062 352.683594 C 765.414062 356.183594 768.25 359.015625 771.746094 359.015625 C 775.242188 359.015625 778.078125 356.183594 778.078125 352.683594 Z M 778.078125 352.683594 " fill-opacity="1" fill-rule="nonzero"/><g clip-path="url(#34aab34560)"><path fill="#ff751f" d="M 782.421875 356.1875 C 781.019531 360.78125 776.789062 364.152344 771.746094 364.152344 C 766.703125 364.152344 762.472656 360.78125 761.070312 356.1875 L 717.457031 356.1875 C 714.707031 356.1875 712.105469 355.546875 709.769531 354.4375 L 709.769531 383.394531 C 709.769531 389.050781 714.398438 393.675781 720.050781 393.675781 L 823.4375 393.675781 C 829.09375 393.675781 833.71875 389.050781 833.71875 383.394531 L 833.71875 354.441406 C 831.382812 355.550781 828.785156 356.191406 826.03125 356.191406 L 782.421875 356.191406 Z M 782.421875 356.1875 " fill-opacity="1" fill-rule="nonzero"/></g><g clip-path="url(#67631713fe)"><path fill="#ff751f" d="M 825.601562 304.1875 L 800.925781 304.1875 C 799.4375 294.867188 791.363281 287.71875 781.628906 287.71875 L 761.859375 287.71875 C 752.125 287.71875 744.054688 294.867188 742.5625 304.1875 L 717.886719 304.1875 C 711.996094 304.1875 707.175781 308.8125 707.175781 314.46875 L 707.175781 338.199219 C 707.175781 343.875 711.78125 348.480469 717.457031 348.480469 L 760.585938 348.480469 C 760.730469 345.519531 762 342.863281 764.007812 340.941406 C 764.070312 340.882812 764.140625 340.835938 764.207031 340.78125 C 764.652344 340.371094 765.113281 339.984375 765.621094 339.652344 C 765.800781 339.53125 766.007812 339.449219 766.195312 339.339844 C 766.609375 339.101562 767.019531 338.851562 767.472656 338.667969 C 767.824219 338.519531 768.203125 338.433594 768.574219 338.324219 C 768.890625 338.230469 769.195312 338.105469 769.527344 338.035156 C 770.242188 337.890625 770.988281 337.8125 771.746094 337.8125 C 772.503906 337.8125 773.246094 337.894531 773.964844 338.035156 C 774.292969 338.105469 774.59375 338.230469 774.914062 338.324219 C 775.285156 338.433594 775.664062 338.519531 776.015625 338.667969 C 776.464844 338.855469 776.871094 339.101562 777.289062 339.339844 C 777.480469 339.449219 777.683594 339.53125 777.867188 339.652344 C 778.375 339.984375 778.832031 340.371094 779.277344 340.78125 C 779.34375 340.839844 779.417969 340.882812 779.480469 340.945312 C 781.488281 342.867188 782.753906 345.527344 782.902344 348.484375 L 826.03125 348.484375 C 831.707031 348.484375 836.308594 343.882812 836.308594 338.203125 L 836.308594 314.472656 C 836.3125 308.8125 831.492188 304.1875 825.601562 304.1875 Z M 752.457031 304.1875 C 753.769531 300.226562 757.460938 297.339844 761.859375 297.339844 L 781.628906 297.339844 C 786.023438 297.339844 789.71875 300.226562 791.027344 304.1875 Z M 752.457031 304.1875 " fill-opacity="1" fill-rule="nonzero"/></g></svg>