<svg xmlns="http://www.w3.org/2000/svg" xmlns:xlink="http://www.w3.org/1999/xlink" width="432" zoomAndPan="magnify" viewBox="0 0 324 216.749995" height="289" preserveAspectRatio="xMidYMid meet" version="1.0"><defs><clipPath id="c6a5611471"><path d="M 1 0.191406 L 323 0.191406 L 323 215.941406 L 1 215.941406 Z M 1 0.191406 " clip-rule="nonzero"/></clipPath><clipPath id="4f2a993989"><path d="M 127 75.886719 L 161 75.886719 L 161 85 L 127 85 Z M 127 75.886719 " clip-rule="nonzero"/></clipPath><clipPath id="05b3a42959"><path d="M 101.226562 87 L 186.625 87 L 186.625 113 L 101.226562 113 Z M 101.226562 87 " clip-rule="nonzero"/></clipPath></defs><path fill="#d5550e" d="M 304.816406 13.671875 C 313.015625 13.671875 315.75 19.136719 311.648438 25.972656 L 270.648438 101.140625 C 266.546875 107.972656 266.546875 118.90625 270.648438 125.742188 L 311.648438 202.277344 C 315.75 209.109375 311.648438 214.574219 304.816406 214.574219 L 20.542969 214.574219 C 12.34375 214.574219 6.875 207.742188 6.875 200.910156 L 6.875 28.707031 C 6.875 20.503906 13.707031 15.039062 20.542969 15.039062 L 304.816406 15.039062 Z M 304.816406 13.671875 " fill-opacity="1" fill-rule="nonzero"/><g clip-path="url(#c6a5611471)"><path fill="#b74e14" d="M 322.582031 202.277344 C 322.582031 205.007812 322.582031 207.742188 321.214844 209.109375 C 318.484375 213.210938 313.015625 215.941406 307.550781 215.941406 L 21.910156 215.941406 C 10.976562 215.941406 1.410156 206.375 1.410156 194.074219 L 1.410156 21.871094 C 1.410156 9.570312 10.976562 0.00390625 21.910156 0.00390625 L 306.183594 0.00390625 C 313.015625 0.00390625 317.117188 2.738281 319.847656 6.839844 C 322.582031 10.9375 322.582031 17.773438 319.847656 23.238281 L 278.847656 98.40625 C 276.113281 102.507812 276.113281 112.074219 278.847656 116.171875 L 319.847656 192.707031 C 321.214844 196.808594 322.582031 199.542969 322.582031 202.277344 Z M 15.074219 195.441406 C 15.074219 199.542969 17.808594 202.277344 21.910156 202.277344 L 306.183594 202.277344 C 307.550781 202.277344 307.550781 202.277344 307.550781 202.277344 C 307.550781 202.277344 307.550781 200.910156 306.183594 200.910156 L 265.179688 124.375 C 259.714844 114.808594 261.082031 101.140625 265.179688 92.941406 L 306.183594 17.773438 C 306.183594 16.40625 306.183594 16.40625 306.183594 16.40625 C 306.183594 16.40625 304.816406 16.40625 304.816406 16.40625 L 21.910156 16.40625 C 17.808594 16.40625 15.074219 19.136719 15.074219 23.238281 Z M 15.074219 195.441406 " fill-opacity="1" fill-rule="nonzero"/></g><g clip-path="url(#4f2a993989)"><path fill="#f58926" d="M 160.496094 80.441406 C 160.496094 77.902344 158.429688 75.839844 155.890625 75.839844 L 132.113281 75.839844 C 129.574219 75.839844 127.507812 77.902344 127.507812 80.441406 L 127.507812 84.894531 L 160.5 84.894531 L 160.5 80.441406 Z M 160.496094 80.441406 " fill-opacity="1" fill-rule="nonzero"/></g><path fill="#f58926" d="M 137.046875 119.355469 C 137.046875 120.820312 138.242188 122.011719 139.707031 122.011719 L 148.300781 122.011719 C 149.765625 122.011719 150.957031 120.820312 150.957031 119.355469 L 150.957031 113.960938 C 150.957031 113.960938 150.953125 113.953125 150.953125 113.945312 C 150.953125 113.941406 150.957031 113.9375 150.957031 113.933594 L 150.957031 108.539062 C 150.957031 107.078125 149.765625 105.882812 148.300781 105.882812 L 139.707031 105.882812 C 138.242188 105.882812 137.046875 107.078125 137.046875 108.539062 L 137.046875 113.933594 C 137.046875 113.933594 137.050781 113.941406 137.050781 113.945312 C 137.050781 113.953125 137.046875 113.957031 137.046875 113.960938 Z M 137.046875 119.355469 " fill-opacity="1" fill-rule="nonzero"/><g clip-path="url(#05b3a42959)"><path fill="#f58926" d="M 182.074219 87.945312 L 105.929688 87.945312 C 103.390625 87.945312 101.324219 90.011719 101.324219 92.546875 L 101.324219 107.820312 C 101.324219 110.359375 103.390625 112.421875 105.929688 112.421875 L 134 112.421875 L 134 108.542969 C 134 105.398438 136.558594 102.835938 139.707031 102.835938 L 148.300781 102.835938 C 151.445312 102.835938 154.003906 105.398438 154.003906 108.542969 L 154.003906 112.421875 L 182.078125 112.421875 C 184.617188 112.421875 186.679688 110.359375 186.679688 107.820312 L 186.679688 92.546875 C 186.679688 90.011719 184.617188 87.945312 182.078125 87.945312 Z M 182.074219 87.945312 " fill-opacity="1" fill-rule="nonzero"/></g><path fill="#f58926" d="M 106.582031 115.472656 L 106.582031 135.347656 C 106.582031 137.882812 108.648438 139.949219 111.1875 139.949219 L 176.816406 139.949219 C 179.355469 139.949219 181.421875 137.882812 181.421875 135.347656 L 181.421875 115.472656 L 154.003906 115.472656 L 154.003906 119.355469 C 154.003906 122.5 151.445312 125.058594 148.296875 125.058594 L 139.703125 125.058594 C 136.558594 125.058594 134 122.5 134 119.355469 L 134 115.472656 Z M 106.582031 115.472656 " fill-opacity="1" fill-rule="nonzero"/></svg>