<svg xmlns="http://www.w3.org/2000/svg" xmlns:xlink="http://www.w3.org/1999/xlink" width="432" zoomAndPan="magnify" viewBox="0 0 324 216.749995" height="289" preserveAspectRatio="xMidYMid meet" version="1.0"><defs><clipPath id="7e1c36ff81"><path d="M 1 0.191406 L 323 0.191406 L 323 215.941406 L 1 215.941406 Z M 1 0.191406 " clip-rule="nonzero"/></clipPath><clipPath id="0ee05c596f"><path d="M 127 75.886719 L 161 75.886719 L 161 85 L 127 85 Z M 127 75.886719 " clip-rule="nonzero"/></clipPath><clipPath id="84b015c64c"><path d="M 101.226562 87 L 186.625 87 L 186.625 113 L 101.226562 113 Z M 101.226562 87 " clip-rule="nonzero"/></clipPath><clipPath id="6c1a0f8ca5"><path d="M 17 75.886719 L 101.492188 75.886719 L 101.492188 140.3125 L 17 140.3125 Z M 17 75.886719 " clip-rule="nonzero"/></clipPath><clipPath id="8dc00a99d9"><path d="M 1 0.886719 L 84.222656 0.886719 L 84.222656 65.238281 L 1 65.238281 Z M 1 0.886719 " clip-rule="nonzero"/></clipPath><clipPath id="8ed1a6fac5"><rect x="0" width="85" y="0" height="66"/></clipPath></defs><path fill="#cacaca" d="M 304.816406 13.671875 C 313.015625 13.671875 315.75 19.136719 311.648438 25.972656 L 270.648438 101.140625 C 266.546875 107.972656 266.546875 118.90625 270.648438 125.742188 L 311.648438 202.277344 C 315.75 209.109375 311.648438 214.574219 304.816406 214.574219 L 20.542969 214.574219 C 12.34375 214.574219 6.875 207.742188 6.875 200.910156 L 6.875 28.707031 C 6.875 20.503906 13.707031 15.039062 20.542969 15.039062 L 304.816406 15.039062 Z M 304.816406 13.671875 " fill-opacity="1" fill-rule="nonzero"/><g clip-path="url(#7e1c36ff81)"><path fill="#959595" d="M 322.582031 202.277344 C 322.582031 205.007812 322.582031 207.742188 321.214844 209.109375 C 318.484375 213.210938 313.015625 215.941406 307.550781 215.941406 L 21.910156 215.941406 C 10.976562 215.941406 1.410156 206.375 1.410156 194.074219 L 1.410156 21.871094 C 1.410156 9.570312 10.976562 0.00390625 21.910156 0.00390625 L 306.183594 0.00390625 C 313.015625 0.00390625 317.117188 2.738281 319.847656 6.839844 C 322.582031 10.9375 322.582031 17.773438 319.847656 23.238281 L 278.847656 98.40625 C 276.113281 102.507812 276.113281 112.074219 278.847656 116.171875 L 319.847656 192.707031 C 321.214844 196.808594 322.582031 199.542969 322.582031 202.277344 Z M 15.074219 195.441406 C 15.074219 199.542969 17.808594 202.277344 21.910156 202.277344 L 306.183594 202.277344 C 307.550781 202.277344 307.550781 202.277344 307.550781 202.277344 C 307.550781 202.277344 307.550781 200.910156 306.183594 200.910156 L 265.179688 124.375 C 259.714844 114.808594 261.082031 101.140625 265.179688 92.941406 L 306.183594 17.773438 C 306.183594 16.40625 306.183594 16.40625 306.183594 16.40625 C 306.183594 16.40625 304.816406 16.40625 304.816406 16.40625 L 21.910156 16.40625 C 17.808594 16.40625 15.074219 19.136719 15.074219 23.238281 Z M 15.074219 195.441406 " fill-opacity="1" fill-rule="nonzero"/></g><g clip-path="url(#0ee05c596f)"><path fill="#e3e6e7" d="M 160.496094 80.441406 C 160.496094 77.902344 158.429688 75.839844 155.890625 75.839844 L 132.113281 75.839844 C 129.574219 75.839844 127.507812 77.902344 127.507812 80.441406 L 127.507812 84.894531 L 160.5 84.894531 L 160.5 80.441406 Z M 160.496094 80.441406 " fill-opacity="1" fill-rule="nonzero"/></g><path fill="#e3e6e7" d="M 137.046875 119.355469 C 137.046875 120.820312 138.242188 122.011719 139.707031 122.011719 L 148.300781 122.011719 C 149.765625 122.011719 150.957031 120.820312 150.957031 119.355469 L 150.957031 113.960938 C 150.957031 113.960938 150.953125 113.953125 150.953125 113.945312 C 150.953125 113.941406 150.957031 113.9375 150.957031 113.933594 L 150.957031 108.539062 C 150.957031 107.078125 149.765625 105.882812 148.300781 105.882812 L 139.707031 105.882812 C 138.242188 105.882812 137.046875 107.078125 137.046875 108.539062 L 137.046875 113.933594 C 137.046875 113.933594 137.050781 113.941406 137.050781 113.945312 C 137.050781 113.953125 137.046875 113.957031 137.046875 113.960938 Z M 137.046875 119.355469 " fill-opacity="1" fill-rule="nonzero"/><g clip-path="url(#84b015c64c)"><path fill="#e3e6e7" d="M 182.074219 87.945312 L 105.929688 87.945312 C 103.390625 87.945312 101.324219 90.011719 101.324219 92.546875 L 101.324219 107.820312 C 101.324219 110.359375 103.390625 112.421875 105.929688 112.421875 L 134 112.421875 L 134 108.542969 C 134 105.398438 136.558594 102.835938 139.707031 102.835938 L 148.300781 102.835938 C 151.445312 102.835938 154.003906 105.398438 154.003906 108.542969 L 154.003906 112.421875 L 182.078125 112.421875 C 184.617188 112.421875 186.679688 110.359375 186.679688 107.820312 L 186.679688 92.546875 C 186.679688 90.011719 184.617188 87.945312 182.078125 87.945312 Z M 182.074219 87.945312 " fill-opacity="1" fill-rule="nonzero"/></g><path fill="#e3e6e7" d="M 106.582031 115.472656 L 106.582031 135.347656 C 106.582031 137.882812 108.648438 139.949219 111.1875 139.949219 L 176.816406 139.949219 C 179.355469 139.949219 181.421875 137.882812 181.421875 135.347656 L 181.421875 115.472656 L 154.003906 115.472656 L 154.003906 119.355469 C 154.003906 122.5 151.445312 125.058594 148.296875 125.058594 L 139.703125 125.058594 C 136.558594 125.058594 134 122.5 134 119.355469 L 134 115.472656 Z M 106.582031 115.472656 " fill-opacity="1" fill-rule="nonzero"/><g clip-path="url(#6c1a0f8ca5)"><g transform="matrix(1, 0, 0, 1, 17, 75)"><g clip-path="url(#8ed1a6fac5)"><path fill="#e3e6e7" d="M 51.085938 49.753906 C 55.0625 50.25 59.789062 50.769531 65.371094 51.316406 C 68.6875 51.636719 71.710938 54.128906 73.910156 56.542969 C 75.25 58.011719 76.4375 59.59375 77.480469 61.285156 C 74.621094 59.492188 69.894531 58.765625 64.441406 58.179688 C 58.988281 57.59375 52.804688 57.148438 47.039062 55.929688 C 42.808594 55.035156 39.542969 53.472656 37.171875 51.652344 C 34.800781 49.832031 33.320312 47.75 32.664062 45.816406 C 33.53125 46.582031 36.125 47.414062 41.292969 48.324219 C 43.878906 48.78125 47.105469 49.253906 51.085938 49.753906 Z M 51.085938 49.753906 " fill-opacity="1" fill-rule="nonzero"/><path fill="#e3e6e7" d="M 32.777344 36.3125 C 35.566406 36.8125 38.863281 37.3125 42.78125 37.851562 C 43.234375 37.914062 43.695312 37.976562 44.164062 38.039062 C 48.765625 38.660156 54.171875 39.347656 60.550781 40.125 C 63.855469 40.527344 66.65625 42.835938 68.644531 45.082031 C 69.886719 46.488281 70.964844 48.007812 71.878906 49.648438 C 70.789062 49.144531 68.019531 48.496094 66.5625 48.222656 C 63.179688 47.589844 59.734375 47.214844 56.324219 46.828125 C 53.523438 46.507812 50.796875 46.214844 48.136719 45.894531 C 43.890625 45.382812 39.871094 44.816406 35.976562 44.007812 C 35.214844 43.851562 34.472656 43.683594 33.738281 43.5 C 29.863281 42.535156 26.882812 40.757812 24.667969 38.761719 C 22.28125 36.613281 20.789062 34.207031 20.101562 32.195312 C 21.929688 33.679688 25.082031 34.808594 30.597656 35.902344 C 31.289062 36.039062 32.015625 36.175781 32.777344 36.3125 Z M 32.777344 36.3125 " fill-opacity="1" fill-rule="nonzero"/><path fill="#e3e6e7" d="M 36.148438 26.1875 C 41.605469 26.972656 48.054688 27.847656 55.730469 28.9375 C 62.542969 29.902344 66.277344 38.007812 66.277344 38.007812 C 65.257812 37.730469 61.179688 37.03125 59.980469 36.882812 C 51.660156 35.859375 44.859375 35.109375 38.835938 34.324219 C 32.8125 33.539062 27.5625 32.710938 22.34375 31.539062 C 17.914062 30.53125 14.574219 28.335938 12.160156 25.871094 C 9.746094 23.402344 8.257812 20.667969 7.539062 18.578125 C 10.722656 21.085938 15.097656 22.589844 22.511719 24.007812 C 26.21875 24.71875 30.6875 25.40625 36.148438 26.1875 Z M 36.148438 26.1875 " fill-opacity="1" fill-rule="nonzero"/><g clip-path="url(#8dc00a99d9)"><path fill="#e3e6e7" d="M 1.164062 0.914062 C 1.714844 5.675781 13.1875 10.578125 56.097656 17.613281 C 69.246094 19.765625 72.980469 24.496094 76.054688 34.535156 C 78.652344 43.011719 83.429688 61.824219 84.222656 65.03125 C 80.558594 62.621094 72.648438 43.894531 69.902344 37.816406 C 67.15625 31.734375 65.53125 27.164062 56.097656 25.816406 C 29.730469 22.050781 17.71875 19.734375 13.09375 18.078125 C -0.90625 13.0625 1.164062 0.914062 1.164062 0.914062 Z M 1.164062 0.914062 " fill-opacity="1" fill-rule="nonzero"/></g></g></g></g></svg>