<svg xmlns="http://www.w3.org/2000/svg" xmlns:xlink="http://www.w3.org/1999/xlink" width="432" zoomAndPan="magnify" viewBox="0 0 324 216.749995" height="289" preserveAspectRatio="xMidYMid meet" version="1.0"><defs><clipPath id="1fd34012e1"><path d="M 1 0.191406 L 323 0.191406 L 323 215.941406 L 1 215.941406 Z M 1 0.191406 " clip-rule="nonzero"/></clipPath><clipPath id="af9febe654"><path d="M 17 75.886719 L 101.492188 75.886719 L 101.492188 140.3125 L 17 140.3125 Z M 17 75.886719 " clip-rule="nonzero"/></clipPath><clipPath id="866be15a89"><path d="M 1 0.886719 L 84.222656 0.886719 L 84.222656 65.238281 L 1 65.238281 Z M 1 0.886719 " clip-rule="nonzero"/></clipPath><clipPath id="e120689a92"><rect x="0" width="85" y="0" height="66"/></clipPath><clipPath id="b819b723ee"><path d="M 186.785156 75.886719 L 270 75.886719 L 270 140.3125 L 186.785156 140.3125 Z M 186.785156 75.886719 " clip-rule="nonzero"/></clipPath><clipPath id="2198c7679c"><path d="M 110.515625 24.113281 L 177.1875 24.113281 L 177.1875 69 L 110.515625 69 Z M 110.515625 24.113281 " clip-rule="nonzero"/></clipPath><clipPath id="6d54f66488"><path d="M 108 75.886719 L 130 75.886719 L 130 82 L 108 82 Z M 108 75.886719 " clip-rule="nonzero"/></clipPath><clipPath id="259a0d399b"><path d="M 92.078125 83 L 146.765625 83 L 146.765625 100 L 92.078125 100 Z M 92.078125 83 " clip-rule="nonzero"/></clipPath><clipPath id="5f13ededb3"><path d="M 151 99.046875 L 173 99.046875 L 173 105 L 151 105 Z M 151 99.046875 " clip-rule="nonzero"/></clipPath><clipPath id="f6740d87fe"><path d="M 134.859375 106 L 189.546875 106 L 189.546875 123 L 134.859375 123 Z M 134.859375 106 " clip-rule="nonzero"/></clipPath></defs><path fill="#90b7f0" d="M 304.816406 13.671875 C 313.015625 13.671875 315.75 19.136719 311.648438 25.972656 L 270.648438 101.140625 C 266.546875 107.972656 266.546875 118.90625 270.648438 125.742188 L 311.648438 202.277344 C 315.75 209.109375 311.648438 214.574219 304.816406 214.574219 L 20.542969 214.574219 C 12.34375 214.574219 6.875 207.742188 6.875 200.910156 L 6.875 28.707031 C 6.875 20.503906 13.707031 15.039062 20.542969 15.039062 L 304.816406 15.039062 Z M 304.816406 13.671875 " fill-opacity="1" fill-rule="nonzero"/><g clip-path="url(#1fd34012e1)"><path fill="#7071c9" d="M 322.582031 202.277344 C 322.582031 205.007812 322.582031 207.742188 321.214844 209.109375 C 318.484375 213.210938 313.015625 215.941406 307.550781 215.941406 L 21.910156 215.941406 C 10.976562 215.941406 1.410156 206.375 1.410156 194.074219 L 1.410156 21.871094 C 1.410156 9.570312 10.976562 0.00390625 21.910156 0.00390625 L 306.183594 0.00390625 C 313.015625 0.00390625 317.117188 2.738281 319.847656 6.839844 C 322.582031 10.9375 322.582031 17.773438 319.847656 23.238281 L 278.847656 98.40625 C 276.113281 102.507812 276.113281 112.074219 278.847656 116.171875 L 319.847656 192.707031 C 321.214844 196.808594 322.582031 199.542969 322.582031 202.277344 Z M 15.074219 195.441406 C 15.074219 199.542969 17.808594 202.277344 21.910156 202.277344 L 306.183594 202.277344 C 307.550781 202.277344 307.550781 202.277344 307.550781 202.277344 C 307.550781 202.277344 307.550781 200.910156 306.183594 200.910156 L 265.179688 124.375 C 259.714844 114.808594 261.082031 101.140625 265.179688 92.941406 L 306.183594 17.773438 C 306.183594 16.40625 306.183594 16.40625 306.183594 16.40625 C 306.183594 16.40625 304.816406 16.40625 304.816406 16.40625 L 21.910156 16.40625 C 17.808594 16.40625 15.074219 19.136719 15.074219 23.238281 Z M 15.074219 195.441406 " fill-opacity="1" fill-rule="nonzero"/></g><g clip-path="url(#af9febe654)"><g transform="matrix(1, 0, 0, 1, 17, 75)"><g clip-path="url(#e120689a92)"><path fill="#d3f2ff" d="M 51.085938 49.753906 C 55.0625 50.25 59.789062 50.769531 65.371094 51.316406 C 68.6875 51.636719 71.710938 54.128906 73.910156 56.542969 C 75.25 58.011719 76.4375 59.59375 77.480469 61.285156 C 74.621094 59.492188 69.894531 58.765625 64.441406 58.179688 C 58.988281 57.59375 52.804688 57.148438 47.039062 55.929688 C 42.808594 55.035156 39.542969 53.472656 37.171875 51.652344 C 34.800781 49.832031 33.320312 47.75 32.664062 45.816406 C 33.53125 46.582031 36.125 47.414062 41.292969 48.324219 C 43.878906 48.78125 47.105469 49.253906 51.085938 49.753906 Z M 51.085938 49.753906 " fill-opacity="1" fill-rule="nonzero"/><path fill="#d3f2ff" d="M 32.777344 36.3125 C 35.566406 36.8125 38.863281 37.3125 42.78125 37.851562 C 43.234375 37.914062 43.695312 37.976562 44.164062 38.039062 C 48.765625 38.660156 54.171875 39.347656 60.550781 40.125 C 63.855469 40.527344 66.65625 42.835938 68.644531 45.082031 C 69.886719 46.488281 70.964844 48.007812 71.878906 49.648438 C 70.789062 49.144531 68.019531 48.496094 66.5625 48.222656 C 63.179688 47.589844 59.734375 47.214844 56.324219 46.828125 C 53.523438 46.507812 50.796875 46.214844 48.136719 45.894531 C 43.890625 45.382812 39.871094 44.816406 35.976562 44.007812 C 35.214844 43.851562 34.472656 43.683594 33.738281 43.5 C 29.863281 42.535156 26.882812 40.757812 24.667969 38.761719 C 22.28125 36.613281 20.789062 34.207031 20.101562 32.195312 C 21.929688 33.679688 25.082031 34.808594 30.597656 35.902344 C 31.289062 36.039062 32.015625 36.175781 32.777344 36.3125 Z M 32.777344 36.3125 " fill-opacity="1" fill-rule="nonzero"/><path fill="#d3f2ff" d="M 36.148438 26.1875 C 41.605469 26.972656 48.054688 27.847656 55.730469 28.9375 C 62.542969 29.902344 66.277344 38.007812 66.277344 38.007812 C 65.257812 37.730469 61.179688 37.03125 59.980469 36.882812 C 51.660156 35.859375 44.859375 35.109375 38.835938 34.324219 C 32.8125 33.539062 27.5625 32.710938 22.34375 31.539062 C 17.914062 30.53125 14.574219 28.335938 12.160156 25.871094 C 9.746094 23.402344 8.257812 20.667969 7.539062 18.578125 C 10.722656 21.085938 15.097656 22.589844 22.511719 24.007812 C 26.21875 24.71875 30.6875 25.40625 36.148438 26.1875 Z M 36.148438 26.1875 " fill-opacity="1" fill-rule="nonzero"/><g clip-path="url(#866be15a89)"><path fill="#d3f2ff" d="M 1.164062 0.914062 C 1.714844 5.675781 13.1875 10.578125 56.097656 17.613281 C 69.246094 19.765625 72.980469 24.496094 76.054688 34.535156 C 78.652344 43.011719 83.429688 61.824219 84.222656 65.03125 C 80.558594 62.621094 72.648438 43.894531 69.902344 37.816406 C 67.15625 31.734375 65.53125 27.164062 56.097656 25.816406 C 29.730469 22.050781 17.71875 19.734375 13.09375 18.078125 C -0.90625 13.0625 1.164062 0.914062 1.164062 0.914062 Z M 1.164062 0.914062 " fill-opacity="1" fill-rule="nonzero"/></g></g></g></g><path fill="#d3f2ff" d="M 219.925781 124.753906 C 215.945312 125.25 211.21875 125.769531 205.636719 126.316406 C 202.324219 126.636719 199.296875 129.128906 197.097656 131.542969 C 195.761719 133.011719 194.570312 134.59375 193.527344 136.285156 C 196.386719 134.492188 201.113281 133.765625 206.566406 133.179688 C 212.019531 132.59375 218.203125 132.148438 223.972656 130.929688 C 228.199219 130.035156 231.464844 128.472656 233.835938 126.652344 C 236.207031 124.832031 237.6875 122.75 238.34375 120.816406 C 237.476562 121.582031 234.882812 122.414062 229.714844 123.324219 C 227.128906 123.78125 223.902344 124.253906 219.925781 124.753906 Z M 219.925781 124.753906 " fill-opacity="1" fill-rule="nonzero"/><path fill="#d3f2ff" d="M 238.230469 111.3125 C 235.441406 111.8125 232.144531 112.3125 228.230469 112.851562 C 227.777344 112.914062 227.3125 112.976562 226.84375 113.039062 C 222.242188 113.660156 216.835938 114.347656 210.457031 115.125 C 207.152344 115.527344 204.351562 117.835938 202.363281 120.082031 C 201.121094 121.488281 200.042969 123.007812 199.128906 124.648438 C 200.21875 124.144531 202.992188 123.496094 204.449219 123.222656 C 207.828125 122.589844 211.273438 122.214844 214.683594 121.828125 C 217.484375 121.507812 220.210938 121.214844 222.871094 120.894531 C 227.117188 120.382812 231.136719 119.816406 235.03125 119.007812 C 235.792969 118.851562 236.539062 118.683594 237.269531 118.5 C 241.144531 117.535156 244.128906 115.757812 246.34375 113.761719 C 248.726562 111.613281 250.21875 109.207031 250.90625 107.195312 C 249.078125 108.679688 245.925781 109.808594 240.410156 110.902344 C 239.71875 111.039062 238.992188 111.175781 238.230469 111.3125 Z M 238.230469 111.3125 " fill-opacity="1" fill-rule="nonzero"/><path fill="#d3f2ff" d="M 234.863281 101.1875 C 229.402344 101.972656 222.953125 102.847656 215.277344 103.9375 C 208.464844 104.902344 204.730469 113.007812 204.730469 113.007812 C 205.75 112.730469 209.828125 112.03125 211.027344 111.882812 C 219.347656 110.859375 226.148438 110.109375 232.171875 109.324219 C 238.195312 108.539062 243.445312 107.710938 248.664062 106.539062 C 253.09375 105.53125 256.433594 103.335938 258.847656 100.871094 C 261.261719 98.402344 262.75 95.667969 263.472656 93.578125 C 260.285156 96.085938 255.910156 97.589844 248.496094 99.007812 C 244.789062 99.71875 240.320312 100.40625 234.863281 101.1875 Z M 234.863281 101.1875 " fill-opacity="1" fill-rule="nonzero"/><g clip-path="url(#b819b723ee)"><path fill="#d3f2ff" d="M 269.84375 75.914062 C 269.292969 80.675781 257.824219 85.578125 214.910156 92.613281 C 201.765625 94.765625 198.027344 99.496094 194.953125 109.535156 C 192.355469 118.011719 187.578125 136.824219 186.785156 140.03125 C 190.449219 137.621094 198.359375 118.894531 201.105469 112.816406 C 203.851562 106.734375 205.476562 102.164062 214.910156 100.816406 C 241.277344 97.050781 253.289062 94.734375 257.914062 93.078125 C 271.914062 88.0625 269.84375 75.914062 269.84375 75.914062 Z M 269.84375 75.914062 " fill-opacity="1" fill-rule="nonzero"/></g><g clip-path="url(#2198c7679c)"><path fill="#d3f2ff" d="M 174.726562 38.222656 C 174.726562 38.394531 174.726562 38.59375 174.675781 38.769531 L 170.5625 55.21875 C 170.363281 56.042969 169.617188 56.640625 168.769531 56.640625 L 144.089844 56.765625 L 119.390625 56.765625 C 118.542969 56.765625 117.796875 56.191406 117.570312 55.34375 L 113.457031 38.84375 C 113.40625 38.644531 113.40625 38.445312 113.40625 38.269531 C 111.8125 37.773438 110.667969 36.277344 110.667969 34.53125 C 110.667969 32.363281 112.4375 30.59375 114.605469 30.59375 C 116.773438 30.59375 118.542969 32.363281 118.542969 34.53125 C 118.542969 35.753906 117.996094 36.851562 117.097656 37.574219 L 122.257812 42.757812 C 123.527344 44.054688 125.347656 44.800781 127.191406 44.800781 C 129.386719 44.800781 131.453125 43.753906 132.777344 42.035156 L 141.226562 30.820312 C 140.503906 30.121094 140.078125 29.125 140.078125 28.050781 C 140.078125 25.882812 141.847656 24.113281 144.015625 24.113281 C 146.183594 24.113281 147.957031 25.882812 147.957031 28.050781 C 147.957031 29.097656 147.53125 30.046875 146.859375 30.769531 L 155.257812 42.011719 C 156.578125 43.753906 158.648438 44.800781 160.839844 44.800781 C 162.710938 44.800781 164.457031 44.078125 165.777344 42.757812 L 170.960938 37.574219 C 170.0625 36.851562 169.492188 35.753906 169.492188 34.507812 C 169.492188 32.339844 171.261719 30.570312 173.429688 30.570312 C 175.597656 30.570312 177.367188 32.339844 177.367188 34.507812 C 177.34375 36.226562 176.246094 37.671875 174.726562 38.222656 Z M 170.164062 62.625 C 170.164062 61.601562 169.316406 60.753906 168.292969 60.753906 L 119.9375 60.753906 C 118.917969 60.753906 118.070312 61.601562 118.070312 62.625 L 118.070312 67.109375 C 118.070312 68.132812 118.917969 68.980469 119.9375 68.980469 L 168.292969 68.980469 C 169.316406 68.980469 170.164062 68.132812 170.164062 67.109375 Z M 170.164062 62.625 " fill-opacity="1" fill-rule="nonzero"/></g><g clip-path="url(#6d54f66488)"><path fill="#d3f2ff" d="M 129.957031 78.796875 C 129.957031 77.175781 128.636719 75.855469 127.015625 75.855469 L 111.820312 75.855469 C 110.195312 75.855469 108.875 77.175781 108.875 78.796875 L 108.875 81.644531 L 129.957031 81.644531 Z M 129.957031 78.796875 " fill-opacity="1" fill-rule="nonzero"/></g><path fill="#d3f2ff" d="M 114.972656 103.664062 C 114.972656 104.597656 115.734375 105.359375 116.671875 105.359375 L 122.164062 105.359375 C 123.097656 105.359375 123.859375 104.597656 123.859375 103.664062 L 123.859375 100.21875 C 123.859375 100.21875 123.859375 100.210938 123.859375 100.207031 C 123.859375 100.203125 123.859375 100.203125 123.859375 100.199219 L 123.859375 96.753906 C 123.859375 95.816406 123.097656 95.054688 122.164062 95.054688 L 116.671875 95.054688 C 115.734375 95.054688 114.972656 95.816406 114.972656 96.753906 L 114.972656 100.199219 C 114.972656 100.199219 114.976562 100.203125 114.976562 100.207031 C 114.976562 100.210938 114.972656 100.214844 114.972656 100.21875 Z M 114.972656 103.664062 " fill-opacity="1" fill-rule="nonzero"/><g clip-path="url(#259a0d399b)"><path fill="#d3f2ff" d="M 143.746094 83.59375 L 95.085938 83.59375 C 93.464844 83.59375 92.144531 84.910156 92.144531 86.535156 L 92.144531 96.292969 C 92.144531 97.914062 93.464844 99.234375 95.085938 99.234375 L 113.023438 99.234375 L 113.023438 96.753906 C 113.023438 94.746094 114.660156 93.109375 116.671875 93.109375 L 122.164062 93.109375 C 124.171875 93.109375 125.808594 94.742188 125.808594 96.753906 L 125.808594 99.234375 L 143.746094 99.234375 C 145.367188 99.234375 146.6875 97.914062 146.6875 96.292969 L 146.6875 86.535156 C 146.6875 84.910156 145.367188 83.59375 143.746094 83.59375 Z M 143.746094 83.59375 " fill-opacity="1" fill-rule="nonzero"/></g><path fill="#d3f2ff" d="M 95.503906 101.183594 L 95.503906 113.882812 C 95.503906 115.503906 96.824219 116.824219 98.445312 116.824219 L 140.386719 116.824219 C 142.007812 116.824219 143.328125 115.503906 143.328125 113.882812 L 143.328125 101.183594 L 125.808594 101.183594 L 125.808594 103.664062 C 125.808594 105.671875 124.171875 107.308594 122.160156 107.308594 L 116.667969 107.308594 C 114.660156 107.308594 113.023438 105.671875 113.023438 103.664062 L 113.023438 101.183594 Z M 95.503906 101.183594 " fill-opacity="1" fill-rule="nonzero"/><g clip-path="url(#5f13ededb3)"><path fill="#d3f2ff" d="M 172.738281 101.957031 C 172.738281 100.335938 171.417969 99.015625 169.792969 99.015625 L 154.597656 99.015625 C 152.976562 99.015625 151.65625 100.335938 151.65625 101.957031 L 151.65625 104.804688 L 172.738281 104.804688 Z M 172.738281 101.957031 " fill-opacity="1" fill-rule="nonzero"/></g><path fill="#d3f2ff" d="M 157.753906 126.824219 C 157.753906 127.757812 158.515625 128.519531 159.453125 128.519531 L 164.941406 128.519531 C 165.878906 128.519531 166.640625 127.757812 166.640625 126.824219 L 166.640625 123.378906 C 166.640625 123.378906 166.640625 123.371094 166.640625 123.367188 C 166.640625 123.363281 166.640625 123.363281 166.640625 123.359375 L 166.640625 119.914062 C 166.640625 118.976562 165.878906 118.214844 164.941406 118.214844 L 159.453125 118.214844 C 158.515625 118.214844 157.753906 118.976562 157.753906 119.914062 L 157.753906 123.359375 C 157.753906 123.359375 157.753906 123.363281 157.753906 123.367188 C 157.753906 123.371094 157.753906 123.375 157.753906 123.378906 Z M 157.753906 126.824219 " fill-opacity="1" fill-rule="nonzero"/><g clip-path="url(#f6740d87fe)"><path fill="#d3f2ff" d="M 186.527344 106.75 L 137.867188 106.75 C 136.246094 106.75 134.925781 108.070312 134.925781 109.691406 L 134.925781 119.453125 C 134.925781 121.074219 136.246094 122.394531 137.867188 122.394531 L 155.804688 122.394531 L 155.804688 119.914062 C 155.804688 117.90625 157.441406 116.269531 159.453125 116.269531 L 164.941406 116.269531 C 166.953125 116.269531 168.589844 117.902344 168.589844 119.914062 L 168.589844 122.394531 L 186.527344 122.394531 C 188.148438 122.394531 189.46875 121.074219 189.46875 119.453125 L 189.46875 109.691406 C 189.46875 108.070312 188.148438 106.75 186.527344 106.75 Z M 186.527344 106.75 " fill-opacity="1" fill-rule="nonzero"/></g><path fill="#d3f2ff" d="M 138.285156 124.339844 L 138.285156 137.042969 C 138.285156 138.664062 139.605469 139.984375 141.226562 139.984375 L 183.164062 139.984375 C 184.789062 139.984375 186.105469 138.664062 186.105469 137.042969 L 186.105469 124.339844 L 168.585938 124.339844 L 168.585938 126.824219 C 168.585938 128.832031 166.953125 130.46875 164.941406 130.46875 L 159.449219 130.46875 C 157.441406 130.46875 155.804688 128.832031 155.804688 126.824219 L 155.804688 124.339844 Z M 138.285156 124.339844 " fill-opacity="1" fill-rule="nonzero"/></svg>