<svg xmlns="http://www.w3.org/2000/svg" xmlns:xlink="http://www.w3.org/1999/xlink" width="1920" zoomAndPan="magnify" viewBox="0 0 1440 809.999993" height="1080" preserveAspectRatio="xMidYMid meet" version="1.0"><defs><clipPath id="29aad2d55c"><path d="M 571 222 L 944 222 L 944 482 L 571 482 Z M 571 222 " clip-rule="nonzero"/></clipPath><clipPath id="69b1c600fa"><path d="M 383.097656 296.421875 L 870.804688 86.414062 L 1057.082031 519.011719 L 569.375 729.019531 Z M 383.097656 296.421875 " clip-rule="nonzero"/></clipPath><clipPath id="1ac61c23de"><path d="M 383.097656 296.421875 L 870.804688 86.414062 L 1057.082031 519.011719 L 569.375 729.019531 Z M 383.097656 296.421875 " clip-rule="nonzero"/></clipPath><clipPath id="ccfeeb1fe2"><path d="M 575 226 L 938 226 L 938 377 L 575 377 Z M 575 226 " clip-rule="nonzero"/></clipPath><clipPath id="38779ff187"><path d="M 383.097656 296.421875 L 870.804688 86.414062 L 1057.082031 519.011719 L 569.375 729.019531 Z M 383.097656 296.421875 " clip-rule="nonzero"/></clipPath><clipPath id="0f08e052a6"><path d="M 383.097656 296.421875 L 870.804688 86.414062 L 1057.082031 519.011719 L 569.375 729.019531 Z M 383.097656 296.421875 " clip-rule="nonzero"/></clipPath><clipPath id="727bf420c8"><path d="M 560 229 L 574 229 L 574 242 L 560 242 Z M 560 229 " clip-rule="nonzero"/></clipPath><clipPath id="0ceef0ff6a"><path d="M 383.097656 296.421875 L 870.804688 86.414062 L 1057.082031 519.011719 L 569.375 729.019531 Z M 383.097656 296.421875 " clip-rule="nonzero"/></clipPath><clipPath id="8c0bc090c4"><path d="M 383.097656 296.421875 L 870.804688 86.414062 L 1057.082031 519.011719 L 569.375 729.019531 Z M 383.097656 296.421875 " clip-rule="nonzero"/></clipPath><clipPath id="5d097f2768"><path d="M 560 225 L 573 225 L 573 236 L 560 236 Z M 560 225 " clip-rule="nonzero"/></clipPath><clipPath id="33bb5aca28"><path d="M 383.097656 296.421875 L 870.804688 86.414062 L 1057.082031 519.011719 L 569.375 729.019531 Z M 383.097656 296.421875 " clip-rule="nonzero"/></clipPath><clipPath id="1f26853b1a"><path d="M 383.097656 296.421875 L 870.804688 86.414062 L 1057.082031 519.011719 L 569.375 729.019531 Z M 383.097656 296.421875 " clip-rule="nonzero"/></clipPath><clipPath id="5f69e4853b"><path d="M 561 222 L 572 222 L 572 232 L 561 232 Z M 561 222 " clip-rule="nonzero"/></clipPath><clipPath id="16da82fcba"><path d="M 383.097656 296.421875 L 870.804688 86.414062 L 1057.082031 519.011719 L 569.375 729.019531 Z M 383.097656 296.421875 " clip-rule="nonzero"/></clipPath><clipPath id="14a1123b0b"><path d="M 383.097656 296.421875 L 870.804688 86.414062 L 1057.082031 519.011719 L 569.375 729.019531 Z M 383.097656 296.421875 " clip-rule="nonzero"/></clipPath><clipPath id="ee2b3626df"><path d="M 562 219 L 571 219 L 571 227 L 562 227 Z M 562 219 " clip-rule="nonzero"/></clipPath><clipPath id="4a1d98e63b"><path d="M 383.097656 296.421875 L 870.804688 86.414062 L 1057.082031 519.011719 L 569.375 729.019531 Z M 383.097656 296.421875 " clip-rule="nonzero"/></clipPath><clipPath id="3d34c0f362"><path d="M 383.097656 296.421875 L 870.804688 86.414062 L 1057.082031 519.011719 L 569.375 729.019531 Z M 383.097656 296.421875 " clip-rule="nonzero"/></clipPath><clipPath id="b12df051d6"><path d="M 561 237 L 578 237 L 578 726 L 561 726 Z M 561 237 " clip-rule="nonzero"/></clipPath><clipPath id="485644844c"><path d="M 383.097656 296.421875 L 870.804688 86.414062 L 1057.082031 519.011719 L 569.375 729.019531 Z M 383.097656 296.421875 " clip-rule="nonzero"/></clipPath><clipPath id="f56291a4b3"><path d="M 383.097656 296.421875 L 870.804688 86.414062 L 1057.082031 519.011719 L 569.375 729.019531 Z M 383.097656 296.421875 " clip-rule="nonzero"/></clipPath><clipPath id="7f4c7ce42d"><path d="M 745 303 L 809.828125 303 L 809.828125 420 L 745 420 Z M 745 303 " clip-rule="nonzero"/></clipPath><clipPath id="b24e99cda3"><path d="M 737.078125 296.773438 L 808 296.773438 L 808 422 L 737.078125 422 Z M 737.078125 296.773438 " clip-rule="nonzero"/></clipPath><clipPath id="758317efaa"><path d="M 609.582031 248.015625 L 738.582031 248.015625 L 738.582031 359.015625 L 609.582031 359.015625 Z M 609.582031 248.015625 " clip-rule="nonzero"/></clipPath><clipPath id="adbe800012"><path d="M 0.582031 0.0234375 L 71.378906 0.0234375 L 71.378906 57.429688 L 0.582031 57.429688 Z M 0.582031 0.0234375 " clip-rule="nonzero"/></clipPath><clipPath id="8e92c21205"><path d="M 0.582031 0.0234375 L 129.429688 0.0234375 L 129.429688 111.015625 L 0.582031 111.015625 Z M 0.582031 0.0234375 " clip-rule="nonzero"/></clipPath><clipPath id="461da14427"><rect x="0" width="130" y="0" height="112"/></clipPath></defs><rect x="-144" width="1728" fill="#ffffff" y="-80.999999" height="971.999992" fill-opacity="1"/><rect x="-144" width="1728" fill="#ffffff" y="-80.999999" height="971.999992" fill-opacity="1"/><g clip-path="url(#29aad2d55c)"><g clip-path="url(#69b1c600fa)"><g clip-path="url(#1ac61c23de)"><path fill="#ff914d" d="M 677.644531 222.058594 C 656.613281 222.199219 628.179688 227.296875 604.191406 232.621094 C 591.421875 235.453125 579.980469 238.332031 571.480469 240.570312 L 573.433594 450.394531 C 581.910156 448.164062 593.195312 445.332031 605.792969 442.535156 C 629.003906 437.382812 656.328125 432.421875 677.367188 431.964844 C 678.117188 431.949219 678.863281 431.9375 679.597656 431.933594 C 681.800781 431.917969 683.929688 431.960938 685.96875 432.058594 C 716.753906 433.546875 745.785156 446.03125 774.726562 458.023438 C 803.671875 470.015625 832.523438 481.507812 862.925781 481.242188 C 880.558594 481.089844 906.238281 473.5 927.425781 465.929688 C 933.054688 463.917969 938.328125 461.917969 943.101562 460.054688 L 941.148438 250.296875 C 936.527344 252.097656 931.425781 254.023438 926.023438 255.953125 C 904.765625 263.550781 879.070312 271.207031 860.972656 271.367188 C 830.140625 271.636719 801.074219 260.015625 772.117188 248.019531 C 743.160156 236.019531 714.304688 223.648438 683.925781 222.179688 C 681.921875 222.082031 679.824219 222.042969 677.648438 222.058594 Z M 677.644531 222.058594 " fill-opacity="1" fill-rule="evenodd"/></g></g></g><g clip-path="url(#ccfeeb1fe2)"><g clip-path="url(#38779ff187)"><g clip-path="url(#0f08e052a6)"><path fill="#ff914d" d="M 678.140625 226.382812 C 680 226.378906 681.859375 226.414062 683.714844 226.503906 C 713.867188 227.960938 742.9375 240.613281 770.460938 252.015625 C 799.359375 263.988281 829.207031 275.972656 861.011719 275.695312 C 868.238281 275.632812 875.660156 274.515625 882.738281 273.085938 C 890.746094 271.46875 898.683594 269.339844 906.5 266.980469 C 913.550781 264.847656 920.542969 262.507812 927.480469 260.027344 C 930.625 258.90625 933.753906 257.75 936.878906 256.570312 L 937.8125 356.941406 C 934.476562 358.210938 930.945312 359.519531 927.277344 360.828125 C 906.019531 368.425781 880.320312 376.085938 862.226562 376.242188 C 831.390625 376.511719 802.324219 364.890625 773.371094 352.894531 C 744.414062 340.898438 715.554688 328.523438 685.175781 327.054688 C 683.171875 326.957031 681.078125 326.921875 678.902344 326.933594 L 678.894531 326.9375 C 657.863281 327.074219 629.429688 332.171875 605.441406 337.496094 C 594.601562 339.902344 584.714844 342.339844 576.773438 344.390625 L 575.839844 243.902344 C 585.558594 241.382812 595.324219 239.019531 605.125 236.84375 C 613.726562 234.9375 622.359375 233.171875 631.03125 231.617188 C 639.175781 230.160156 647.367188 228.875 655.585938 227.914062 C 662.890625 227.0625 670.3125 226.4375 677.671875 226.386719 Z M 678.140625 226.382812 " fill-opacity="1" fill-rule="evenodd"/></g></g></g><g clip-path="url(#727bf420c8)"><g clip-path="url(#0ceef0ff6a)"><g clip-path="url(#8c0bc090c4)"><path fill="#71625b" d="M 560.164062 235.171875 C 560.167969 235.566406 560.214844 235.957031 560.304688 236.347656 C 560.394531 236.734375 560.523438 237.109375 560.691406 237.472656 C 560.863281 237.839844 561.070312 238.183594 561.3125 238.511719 C 561.558594 238.835938 561.835938 239.136719 562.144531 239.414062 C 562.453125 239.691406 562.789062 239.9375 563.152344 240.152344 C 563.511719 240.371094 563.894531 240.550781 564.296875 240.699219 C 564.695312 240.84375 565.109375 240.953125 565.535156 241.027344 C 565.960938 241.097656 566.390625 241.132812 566.820312 241.128906 C 567.253906 241.121094 567.683594 241.078125 568.105469 240.996094 C 568.527344 240.914062 568.9375 240.792969 569.335938 240.636719 C 569.734375 240.480469 570.109375 240.289062 570.46875 240.066406 C 570.824219 239.839844 571.15625 239.585938 571.457031 239.304688 C 571.757812 239.019531 572.027344 238.710938 572.265625 238.378906 C 572.5 238.046875 572.699219 237.695312 572.863281 237.328125 C 573.023438 236.960938 573.144531 236.582031 573.222656 236.191406 C 573.300781 235.800781 573.339844 235.410156 573.335938 235.011719 C 573.332031 234.617188 573.285156 234.226562 573.195312 233.835938 C 573.105469 233.449219 572.976562 233.074219 572.804688 232.710938 C 572.636719 232.34375 572.429688 232 572.183594 231.671875 C 571.941406 231.347656 571.664062 231.046875 571.355469 230.769531 C 571.046875 230.492188 570.710938 230.246094 570.347656 230.03125 C 569.984375 229.8125 569.605469 229.632812 569.203125 229.484375 C 568.800781 229.339844 568.386719 229.230469 567.964844 229.15625 C 567.539062 229.085938 567.109375 229.050781 566.675781 229.058594 C 566.246094 229.0625 565.816406 229.105469 565.394531 229.1875 C 564.96875 229.269531 564.558594 229.390625 564.164062 229.546875 C 563.765625 229.703125 563.386719 229.894531 563.03125 230.117188 C 562.671875 230.34375 562.34375 230.597656 562.042969 230.878906 C 561.738281 231.164062 561.46875 231.472656 561.234375 231.804688 C 560.996094 232.136719 560.796875 232.488281 560.636719 232.855469 C 560.476562 233.222656 560.355469 233.601562 560.277344 233.992188 C 560.195312 234.382812 560.160156 234.773438 560.164062 235.171875 Z M 560.164062 235.171875 " fill-opacity="1" fill-rule="nonzero"/></g></g></g><g clip-path="url(#5d097f2768)"><g clip-path="url(#33bb5aca28)"><g clip-path="url(#1f26853b1a)"><path fill="#71625b" d="M 560.832031 230.664062 C 560.835938 231.015625 560.875 231.363281 560.957031 231.710938 C 561.035156 232.054688 561.148438 232.390625 561.300781 232.714844 C 561.453125 233.039062 561.636719 233.347656 561.855469 233.636719 C 562.070312 233.929688 562.320312 234.195312 562.59375 234.441406 C 562.871094 234.6875 563.167969 234.910156 563.492188 235.101562 C 563.8125 235.292969 564.152344 235.453125 564.511719 235.585938 C 564.867188 235.714844 565.234375 235.8125 565.613281 235.878906 C 565.992188 235.941406 566.375 235.972656 566.761719 235.96875 C 567.144531 235.964844 567.527344 235.925781 567.902344 235.851562 C 568.28125 235.777344 568.644531 235.671875 569 235.53125 C 569.355469 235.390625 569.691406 235.222656 570.007812 235.023438 C 570.324219 234.824219 570.621094 234.597656 570.890625 234.34375 C 571.160156 234.089844 571.398438 233.816406 571.609375 233.519531 C 571.820312 233.222656 571.996094 232.914062 572.140625 232.585938 C 572.28125 232.257812 572.390625 231.917969 572.460938 231.574219 C 572.53125 231.226562 572.566406 230.875 572.5625 230.523438 C 572.558594 230.167969 572.515625 229.820312 572.4375 229.476562 C 572.355469 229.128906 572.242188 228.796875 572.089844 228.472656 C 571.9375 228.148438 571.753906 227.839844 571.539062 227.546875 C 571.320312 227.257812 571.074219 226.988281 570.796875 226.742188 C 570.523438 226.496094 570.222656 226.277344 569.902344 226.085938 C 569.578125 225.890625 569.238281 225.730469 568.882812 225.601562 C 568.523438 225.46875 568.15625 225.371094 567.777344 225.308594 C 567.398438 225.242188 567.015625 225.214844 566.632812 225.21875 C 566.246094 225.222656 565.867188 225.261719 565.488281 225.335938 C 565.113281 225.40625 564.746094 225.515625 564.390625 225.652344 C 564.039062 225.792969 563.703125 225.960938 563.382812 226.164062 C 563.066406 226.363281 562.773438 226.589844 562.503906 226.839844 C 562.234375 227.09375 561.992188 227.367188 561.785156 227.664062 C 561.574219 227.960938 561.394531 228.273438 561.253906 228.601562 C 561.109375 228.929688 561 229.265625 560.929688 229.613281 C 560.859375 229.960938 560.828125 230.308594 560.832031 230.664062 Z M 560.832031 230.664062 " fill-opacity="1" fill-rule="nonzero"/></g></g></g><g clip-path="url(#5f69e4853b)"><g clip-path="url(#16da82fcba)"><g clip-path="url(#14a1123b0b)"><path fill="#71625b" d="M 561.476562 227.015625 C 561.480469 227.328125 561.515625 227.632812 561.585938 227.9375 C 561.65625 228.242188 561.757812 228.539062 561.890625 228.824219 C 562.027344 229.109375 562.1875 229.382812 562.378906 229.640625 C 562.570312 229.894531 562.789062 230.132812 563.03125 230.351562 C 563.277344 230.566406 563.539062 230.761719 563.824219 230.929688 C 564.109375 231.101562 564.410156 231.242188 564.722656 231.359375 C 565.039062 231.472656 565.363281 231.558594 565.699219 231.617188 C 566.03125 231.671875 566.367188 231.699219 566.707031 231.695312 C 567.046875 231.691406 567.382812 231.65625 567.71875 231.59375 C 568.050781 231.527344 568.371094 231.433594 568.683594 231.3125 C 568.996094 231.1875 569.292969 231.039062 569.574219 230.863281 C 569.855469 230.683594 570.113281 230.484375 570.351562 230.261719 C 570.589844 230.039062 570.800781 229.796875 570.988281 229.535156 C 571.171875 229.273438 571.328125 229 571.453125 228.710938 C 571.582031 228.421875 571.675781 228.125 571.738281 227.816406 C 571.800781 227.511719 571.832031 227.203125 571.828125 226.890625 C 571.824219 226.578125 571.785156 226.273438 571.714844 225.96875 C 571.648438 225.664062 571.546875 225.367188 571.410156 225.082031 C 571.277344 224.792969 571.117188 224.523438 570.921875 224.265625 C 570.730469 224.011719 570.515625 223.773438 570.269531 223.554688 C 570.027344 223.339844 569.765625 223.144531 569.480469 222.976562 C 569.195312 222.804688 568.894531 222.664062 568.578125 222.546875 C 568.265625 222.433594 567.941406 222.347656 567.605469 222.289062 C 567.273438 222.234375 566.933594 222.207031 566.59375 222.210938 C 566.253906 222.214844 565.917969 222.25 565.585938 222.3125 C 565.253906 222.378906 564.929688 222.472656 564.617188 222.59375 C 564.304688 222.71875 564.011719 222.867188 563.730469 223.042969 C 563.449219 223.21875 563.191406 223.421875 562.953125 223.644531 C 562.714844 223.867188 562.503906 224.109375 562.316406 224.371094 C 562.132812 224.628906 561.976562 224.90625 561.847656 225.195312 C 561.722656 225.484375 561.628906 225.78125 561.566406 226.089844 C 561.503906 226.394531 561.472656 226.703125 561.476562 227.015625 Z M 561.476562 227.015625 " fill-opacity="1" fill-rule="nonzero"/></g></g></g><g clip-path="url(#ee2b3626df)"><g clip-path="url(#4a1d98e63b)"><g clip-path="url(#3d34c0f362)"><path fill="#71625b" d="M 562.46875 223.183594 C 562.46875 223.433594 562.5 223.679688 562.554688 223.921875 C 562.613281 224.164062 562.691406 224.402344 562.800781 224.628906 C 562.90625 224.859375 563.035156 225.078125 563.191406 225.28125 C 563.34375 225.488281 563.515625 225.675781 563.710938 225.851562 C 563.90625 226.023438 564.117188 226.179688 564.34375 226.316406 C 564.574219 226.449219 564.8125 226.566406 565.066406 226.65625 C 565.316406 226.75 565.578125 226.820312 565.84375 226.863281 C 566.109375 226.910156 566.378906 226.929688 566.652344 226.925781 C 566.925781 226.925781 567.195312 226.894531 567.460938 226.84375 C 567.726562 226.792969 567.984375 226.71875 568.234375 226.621094 C 568.484375 226.519531 568.722656 226.402344 568.945312 226.261719 C 569.167969 226.117188 569.375 225.960938 569.566406 225.78125 C 569.757812 225.601562 569.925781 225.410156 570.074219 225.199219 C 570.222656 224.992188 570.347656 224.769531 570.449219 224.539062 C 570.550781 224.308594 570.625 224.070312 570.675781 223.824219 C 570.726562 223.578125 570.75 223.332031 570.746094 223.082031 C 570.746094 222.835938 570.714844 222.589844 570.660156 222.34375 C 570.601562 222.101562 570.523438 221.863281 570.414062 221.636719 C 570.308594 221.40625 570.179688 221.1875 570.023438 220.984375 C 569.871094 220.777344 569.695312 220.589844 569.503906 220.414062 C 569.308594 220.242188 569.097656 220.085938 568.871094 219.949219 C 568.640625 219.816406 568.402344 219.703125 568.148438 219.609375 C 567.898438 219.515625 567.636719 219.449219 567.371094 219.402344 C 567.101562 219.355469 566.832031 219.335938 566.5625 219.339844 C 566.289062 219.34375 566.019531 219.371094 565.753906 219.421875 C 565.488281 219.472656 565.230469 219.546875 564.980469 219.648438 C 564.730469 219.746094 564.492188 219.863281 564.269531 220.007812 C 564.042969 220.148438 563.835938 220.308594 563.648438 220.484375 C 563.457031 220.664062 563.289062 220.859375 563.140625 221.066406 C 562.992188 221.273438 562.867188 221.496094 562.765625 221.726562 C 562.664062 221.957031 562.585938 222.195312 562.539062 222.441406 C 562.488281 222.6875 562.464844 222.933594 562.46875 223.183594 Z M 562.46875 223.183594 " fill-opacity="1" fill-rule="nonzero"/></g></g></g><g clip-path="url(#b12df051d6)"><g clip-path="url(#485644844c)"><g clip-path="url(#f56291a4b3)"><path fill="#71625b" d="M 571.601562 237.71875 L 561.960938 237.835938 L 567.785156 725.273438 L 577.425781 725.15625 Z M 571.601562 237.71875 " fill-opacity="1" fill-rule="evenodd"/></g></g></g><g clip-path="url(#7f4c7ce42d)"><path fill="#ff751f" d="M 771.054688 303.316406 L 769.914062 303.308594 L 769.542969 304.390625 L 746.445312 371.945312 L 745.429688 374.925781 L 748.429688 373.980469 L 765.285156 368.675781 L 750.242188 409.375 L 746.648438 419.097656 L 752.992188 410.898438 L 798.917969 351.5625 L 801.296875 348.492188 L 797.445312 349.011719 L 775.140625 352.039062 L 808.132812 306.015625 L 809.925781 303.515625 L 806.847656 303.5 L 771.054688 303.316406 " fill-opacity="1" fill-rule="nonzero"/></g><g clip-path="url(#b24e99cda3)"><path fill="#ff751f" d="M 762.390625 361.371094 L 745.886719 406.019531 L 793 345.148438 L 767.007812 348.675781 L 802.101562 299.71875 L 765.738281 299.535156 L 765.6875 299.679688 L 742.453125 367.640625 Z M 737.097656 421.863281 L 757.867188 365.675781 L 738.09375 371.894531 L 763.777344 296.773438 L 807.4375 297 L 772.960938 345.09375 L 799.285156 341.523438 L 737.097656 421.863281 " fill-opacity="1" fill-rule="nonzero"/></g><g clip-path="url(#758317efaa)"><g transform="matrix(1, 0, 0, 1, 609, 248)"><g clip-path="url(#461da14427)"><path fill="#ff751f" d="M 119.398438 107.84375 C 119.398438 107.84375 119.253906 107.636719 118.988281 107.25 C 118.917969 107.152344 118.84375 107.046875 118.757812 106.929688 C 118.664062 106.816406 118.5625 106.695312 118.453125 106.5625 C 118.339844 106.429688 118.222656 106.285156 118.09375 106.132812 C 117.964844 105.972656 117.808594 105.835938 117.65625 105.675781 C 117.496094 105.515625 117.332031 105.347656 117.15625 105.171875 C 116.972656 105 116.769531 104.839844 116.566406 104.664062 C 116.355469 104.492188 116.148438 104.292969 115.90625 104.125 C 115.664062 103.957031 115.414062 103.777344 115.15625 103.597656 C 115.023438 103.507812 114.894531 103.40625 114.753906 103.324219 C 114.613281 103.242188 114.46875 103.160156 114.324219 103.074219 C 114.03125 102.910156 113.730469 102.730469 113.414062 102.558594 C 113.09375 102.40625 112.757812 102.253906 112.414062 102.097656 C 112.242188 102.023438 112.070312 101.9375 111.890625 101.867188 C 111.710938 101.800781 111.527344 101.734375 111.34375 101.667969 C 110.972656 101.53125 110.589844 101.394531 110.199219 101.269531 C 109.800781 101.167969 109.398438 101.0625 108.988281 100.953125 C 108.78125 100.902344 108.574219 100.84375 108.359375 100.796875 C 108.148438 100.761719 107.933594 100.726562 107.71875 100.691406 C 107.285156 100.617188 106.84375 100.546875 106.398438 100.472656 C 104.605469 100.296875 102.695312 100.199219 100.753906 100.375 C 100.265625 100.414062 99.773438 100.449219 99.28125 100.492188 C 98.792969 100.566406 98.300781 100.644531 97.808594 100.71875 C 97.5625 100.757812 97.3125 100.792969 97.0625 100.832031 C 96.816406 100.875 96.5625 100.902344 96.320312 100.960938 C 95.832031 101.074219 95.335938 101.183594 94.84375 101.296875 C 94.597656 101.355469 94.347656 101.410156 94.101562 101.46875 C 93.851562 101.523438 93.601562 101.582031 93.359375 101.65625 C 92.871094 101.796875 92.382812 101.9375 91.894531 102.085938 C 91.417969 102.230469 90.941406 102.375 90.464844 102.515625 L 89.050781 102.964844 C 88.808594 103.042969 88.59375 103.101562 88.367188 103.167969 L 87.695312 103.359375 C 87.253906 103.492188 86.792969 103.605469 86.335938 103.726562 C 85.878906 103.84375 85.421875 103.960938 84.964844 104.066406 C 84.503906 104.167969 84.050781 104.289062 83.59375 104.371094 C 82.679688 104.558594 81.769531 104.71875 80.867188 104.875 C 80.414062 104.941406 79.964844 105.003906 79.519531 105.066406 C 79.070312 105.121094 78.628906 105.175781 78.1875 105.226562 C 76.421875 105.410156 74.703125 105.507812 73.066406 105.507812 C 72.65625 105.515625 72.253906 105.5 71.855469 105.5 C 71.457031 105.492188 71.066406 105.464844 70.679688 105.457031 C 70.292969 105.441406 69.914062 105.410156 69.542969 105.390625 C 69.171875 105.355469 68.804688 105.324219 68.445312 105.292969 C 67.011719 105.160156 65.699219 104.953125 64.539062 104.734375 C 63.378906 104.511719 62.367188 104.265625 61.539062 104.039062 C 59.878906 103.578125 58.945312 103.195312 58.945312 103.195312 C 58.945312 103.195312 58.996094 103.238281 59.085938 103.320312 C 59.179688 103.398438 59.316406 103.515625 59.503906 103.664062 C 59.875 103.953125 60.4375 104.363281 61.195312 104.824219 C 61.953125 105.285156 62.90625 105.800781 64.042969 106.304688 C 65.179688 106.808594 66.5 107.300781 67.980469 107.722656 C 68.351562 107.824219 68.730469 107.925781 69.121094 108.019531 C 69.511719 108.105469 69.910156 108.203125 70.316406 108.289062 C 71.128906 108.457031 71.980469 108.59375 72.855469 108.710938 C 74.613281 108.933594 76.484375 109.042969 78.421875 109 C 78.902344 108.984375 79.390625 108.976562 79.882812 108.945312 C 80.371094 108.910156 80.863281 108.871094 81.359375 108.832031 C 81.855469 108.777344 82.351562 108.722656 82.851562 108.667969 C 83.351562 108.601562 83.847656 108.515625 84.351562 108.4375 C 84.855469 108.367188 85.347656 108.253906 85.851562 108.160156 C 86.101562 108.109375 86.355469 108.070312 86.601562 108.011719 L 87.351562 107.835938 C 87.847656 107.714844 88.347656 107.601562 88.851562 107.453125 L 89.605469 107.242188 C 89.855469 107.167969 90.121094 107.101562 90.347656 107.023438 C 91.285156 106.722656 92.222656 106.421875 93.15625 106.121094 C 93.609375 105.980469 94.058594 105.832031 94.503906 105.683594 C 94.730469 105.601562 94.957031 105.542969 95.179688 105.484375 C 95.40625 105.421875 95.632812 105.363281 95.855469 105.300781 C 96.308594 105.179688 96.753906 105.054688 97.203125 104.933594 C 97.421875 104.863281 97.648438 104.828125 97.871094 104.773438 C 98.09375 104.726562 98.316406 104.675781 98.539062 104.628906 C 98.984375 104.53125 99.425781 104.433594 99.863281 104.335938 C 100.304688 104.269531 100.738281 104.195312 101.175781 104.121094 C 101.390625 104.085938 101.605469 104.050781 101.824219 104.015625 C 101.929688 103.996094 102.039062 103.972656 102.144531 103.960938 L 102.464844 103.929688 C 102.894531 103.890625 103.316406 103.84375 103.738281 103.796875 C 103.945312 103.777344 104.15625 103.738281 104.363281 103.738281 C 104.570312 103.730469 104.777344 103.722656 104.980469 103.714844 C 105.390625 103.703125 105.796875 103.683594 106.199219 103.664062 C 106.597656 103.675781 106.992188 103.683594 107.378906 103.695312 C 107.574219 103.699219 107.769531 103.703125 107.960938 103.707031 C 108.148438 103.726562 108.335938 103.742188 108.523438 103.761719 C 108.898438 103.792969 109.269531 103.828125 109.632812 103.863281 C 109.988281 103.921875 110.339844 103.980469 110.683594 104.035156 C 110.859375 104.0625 111.03125 104.089844 111.199219 104.117188 C 111.371094 104.152344 111.53125 104.199219 111.695312 104.234375 C 112.019531 104.316406 112.339844 104.398438 112.65625 104.46875 C 112.964844 104.558594 113.257812 104.660156 113.550781 104.75 C 113.695312 104.796875 113.839844 104.84375 113.984375 104.890625 C 114.125 104.933594 114.257812 104.996094 114.394531 105.046875 C 114.664062 105.15625 114.925781 105.257812 115.175781 105.359375 C 115.304688 105.40625 115.421875 105.46875 115.542969 105.527344 C 115.660156 105.582031 115.777344 105.636719 115.890625 105.695312 C 116.117188 105.804688 116.34375 105.902344 116.546875 106.015625 C 116.75 106.132812 116.945312 106.242188 117.132812 106.347656 C 117.511719 106.546875 117.820312 106.761719 118.101562 106.941406 C 118.242188 107.03125 118.375 107.113281 118.492188 107.191406 C 118.609375 107.277344 118.714844 107.351562 118.8125 107.421875 C 119.195312 107.695312 119.398438 107.84375 119.398438 107.84375 " fill-opacity="1" fill-rule="nonzero"/><path fill="#ff751f" d="M 58.898438 103.167969 C 59.527344 103.207031 60.148438 103.226562 60.773438 103.253906 C 61.398438 103.269531 62.023438 103.316406 62.648438 103.296875 C 63.277344 103.289062 63.90625 103.265625 64.539062 103.253906 C 64.855469 103.242188 65.171875 103.238281 65.484375 103.21875 L 66.425781 103.148438 C 67.054688 103.101562 67.683594 103.046875 68.3125 102.992188 C 68.9375 102.917969 69.566406 102.839844 70.191406 102.753906 L 71.132812 102.625 L 72.066406 102.464844 C 72.691406 102.355469 73.316406 102.242188 73.9375 102.117188 L 75.796875 101.699219 C 76.105469 101.628906 76.414062 101.546875 76.71875 101.460938 L 77.640625 101.210938 C 77.949219 101.125 78.257812 101.050781 78.5625 100.957031 L 79.476562 100.667969 L 80.386719 100.375 L 82.199219 99.734375 C 82.496094 99.621094 82.792969 99.496094 83.09375 99.378906 C 83.390625 99.253906 83.691406 99.140625 83.984375 99.011719 L 84.871094 98.625 C 85.167969 98.496094 85.457031 98.355469 85.753906 98.214844 C 86.046875 98.078125 86.339844 97.941406 86.628906 97.785156 C 86.917969 97.632812 87.210938 97.488281 87.503906 97.320312 C 87.648438 97.238281 87.789062 97.164062 87.941406 97.074219 C 88.09375 96.984375 88.226562 96.910156 88.410156 96.792969 L 98.105469 90.636719 L 86.78125 93.21875 C 85.734375 93.457031 84.6875 93.691406 83.648438 93.945312 L 80.5 94.578125 C 79.449219 94.757812 78.402344 94.960938 77.347656 95.117188 L 75.761719 95.335938 L 74.972656 95.453125 C 74.707031 95.488281 74.445312 95.511719 74.179688 95.542969 L 72.59375 95.714844 L 72.199219 95.761719 L 71.800781 95.789062 L 71.007812 95.84375 C 70.476562 95.882812 69.949219 95.9375 69.417969 95.964844 L 67.828125 96.03125 C 67.566406 96.039062 67.300781 96.058594 67.035156 96.058594 C 66.769531 96.058594 66.503906 96.058594 66.238281 96.066406 C 65.710938 96.066406 65.179688 96.085938 64.652344 96.078125 C 63.59375 96.046875 62.535156 96.03125 61.476562 95.960938 C 60.417969 95.917969 59.371094 95.789062 58.3125 95.695312 L 56.738281 95.496094 C 56.210938 95.425781 55.695312 95.324219 55.167969 95.242188 C 54.644531 95.171875 54.128906 95.054688 53.605469 94.957031 C 53.347656 94.902344 53.085938 94.855469 52.824219 94.796875 L 52.050781 94.613281 L 51.273438 94.4375 L 49.734375 94.023438 L 48.972656 93.789062 L 48.203125 93.5625 L 47.445312 93.304688 C 46.9375 93.136719 46.441406 92.945312 45.9375 92.761719 C 44.9375 92.382812 43.949219 91.960938 42.976562 91.503906 C 41.996094 91.050781 41.042969 90.539062 40.101562 90 C 39.863281 89.867188 39.636719 89.71875 39.402344 89.578125 C 39.164062 89.441406 38.9375 89.292969 38.707031 89.144531 C 38.253906 88.84375 37.804688 88.53125 37.367188 88.1875 C 37.691406 88.640625 38.058594 89.054688 38.4375 89.464844 C 38.816406 89.871094 39.210938 90.269531 39.625 90.644531 C 40.03125 91.027344 40.457031 91.386719 40.894531 91.738281 L 41.550781 92.261719 C 41.777344 92.433594 42.003906 92.59375 42.230469 92.761719 C 42.457031 92.929688 42.6875 93.085938 42.921875 93.242188 C 43.152344 93.398438 43.386719 93.5625 43.621094 93.714844 L 44.339844 94.15625 L 44.699219 94.378906 L 45.066406 94.585938 L 45.804688 95.003906 C 46.046875 95.144531 46.300781 95.261719 46.554688 95.394531 L 47.308594 95.777344 L 48.074219 96.136719 L 48.847656 96.484375 L 49.632812 96.808594 L 50.417969 97.128906 L 51.21875 97.417969 L 52.019531 97.699219 C 52.285156 97.789062 52.558594 97.871094 52.828125 97.957031 C 53.367188 98.121094 53.90625 98.300781 54.457031 98.441406 C 55.003906 98.578125 55.550781 98.734375 56.105469 98.855469 L 57.769531 99.214844 C 58.324219 99.324219 58.882812 99.40625 59.441406 99.503906 C 60.003906 99.605469 60.5625 99.667969 61.125 99.738281 C 62.25 99.902344 63.378906 99.964844 64.507812 100.054688 C 65.074219 100.089844 65.636719 100.101562 66.203125 100.125 C 66.769531 100.148438 67.335938 100.160156 67.898438 100.148438 L 69.59375 100.125 C 70.160156 100.113281 70.722656 100.074219 71.289062 100.046875 L 72.132812 99.996094 L 72.554688 99.972656 L 72.976562 99.929688 L 74.65625 99.761719 C 75.78125 99.667969 76.890625 99.472656 78.003906 99.316406 C 78.28125 99.277344 78.558594 99.226562 78.835938 99.175781 L 79.664062 99.023438 L 81.320312 98.714844 L 84.59375 97.953125 C 85.675781 97.664062 86.753906 97.359375 87.832031 97.058594 L 86.199219 93.484375 C 86.125 93.539062 85.992188 93.621094 85.878906 93.695312 C 85.769531 93.773438 85.636719 93.847656 85.519531 93.921875 C 85.277344 94.078125 85.019531 94.222656 84.769531 94.371094 C 84.515625 94.519531 84.253906 94.664062 83.996094 94.808594 C 83.738281 94.953125 83.480469 95.101562 83.214844 95.234375 L 82.421875 95.652344 C 82.15625 95.789062 81.882812 95.914062 81.613281 96.046875 L 80.804688 96.441406 L 79.984375 96.816406 L 79.160156 97.191406 L 78.328125 97.542969 L 77.492188 97.894531 C 77.210938 98.011719 76.925781 98.117188 76.644531 98.226562 L 75.796875 98.558594 C 75.515625 98.671875 75.230469 98.78125 74.945312 98.875 L 73.222656 99.488281 C 72.648438 99.6875 72.0625 99.859375 71.484375 100.050781 L 70.609375 100.335938 L 69.726562 100.589844 L 67.960938 101.101562 C 67.367188 101.25 66.769531 101.398438 66.171875 101.558594 L 65.277344 101.792969 C 64.976562 101.863281 64.679688 101.921875 64.378906 101.996094 C 63.777344 102.132812 63.175781 102.261719 62.570312 102.40625 L 62.117188 102.511719 L 61.65625 102.597656 L 60.738281 102.785156 C 60.125 102.910156 59.511719 103.027344 58.898438 103.167969 " fill-opacity="1" fill-rule="nonzero"/><path fill="#ff751f" d="M 37.367188 88.1875 C 38.074219 88.324219 38.78125 88.441406 39.492188 88.566406 C 39.84375 88.625 40.199219 88.691406 40.550781 88.746094 L 41.082031 88.828125 L 41.617188 88.894531 L 43.769531 89.144531 C 44.128906 89.179688 44.492188 89.226562 44.851562 89.25 L 45.929688 89.324219 L 48.09375 89.460938 C 48.816406 89.484375 49.539062 89.492188 50.261719 89.507812 C 50.625 89.511719 50.988281 89.523438 51.347656 89.527344 L 52.433594 89.507812 C 53.160156 89.488281 53.886719 89.484375 54.609375 89.453125 L 56.78125 89.324219 C 57.144531 89.308594 57.507812 89.269531 57.871094 89.238281 L 58.957031 89.136719 C 59.679688 89.074219 60.402344 88.976562 61.125 88.886719 L 62.207031 88.746094 L 63.289062 88.574219 L 64.367188 88.398438 L 65.445312 88.191406 C 66.164062 88.0625 66.882812 87.910156 67.597656 87.746094 C 67.957031 87.667969 68.3125 87.574219 68.671875 87.488281 C 69.027344 87.398438 69.386719 87.308594 69.746094 87.210938 C 70.101562 87.113281 70.460938 87.015625 70.820312 86.90625 C 71 86.851562 71.175781 86.804688 71.363281 86.746094 C 71.550781 86.6875 71.71875 86.632812 71.933594 86.554688 L 86.363281 81.453125 L 71.007812 82.605469 L 67.742188 82.847656 L 64.480469 83.019531 C 63.390625 83.058594 62.304688 83.066406 61.21875 83.101562 C 60.132812 83.105469 59.046875 83.101562 57.960938 83.097656 L 56.335938 83.039062 C 55.796875 83.023438 55.253906 83.019531 54.714844 82.980469 C 53.636719 82.910156 52.550781 82.863281 51.480469 82.75 C 50.941406 82.699219 50.402344 82.65625 49.863281 82.605469 L 48.257812 82.40625 C 47.992188 82.371094 47.722656 82.34375 47.457031 82.300781 L 46.65625 82.179688 C 46.125 82.097656 45.589844 82.027344 45.058594 81.929688 C 44 81.726562 42.9375 81.539062 41.890625 81.292969 L 41.101562 81.117188 L 40.320312 80.917969 L 39.539062 80.714844 L 39.144531 80.613281 L 38.757812 80.5 C 38.242188 80.347656 37.722656 80.203125 37.210938 80.042969 C 36.699219 79.867188 36.191406 79.695312 35.675781 79.53125 L 34.15625 78.96875 L 32.660156 78.359375 L 31.179688 77.691406 C 30.703125 77.441406 30.203125 77.222656 29.726562 76.964844 C 29.25 76.707031 28.769531 76.453125 28.304688 76.175781 C 28.070312 76.039062 27.828125 75.910156 27.601562 75.765625 L 26.90625 75.332031 C 25.992188 74.742188 25.097656 74.109375 24.238281 73.421875 C 23.382812 72.734375 22.546875 72.003906 21.808594 71.164062 C 22.054688 71.667969 22.355469 72.148438 22.675781 72.613281 C 22.996094 73.078125 23.335938 73.53125 23.699219 73.96875 C 24.417969 74.847656 25.210938 75.664062 26.046875 76.441406 C 26.882812 77.214844 27.769531 77.9375 28.691406 78.617188 C 28.917969 78.792969 29.15625 78.949219 29.390625 79.113281 L 30.097656 79.601562 C 30.578125 79.910156 31.066406 80.210938 31.554688 80.515625 C 32.050781 80.800781 32.546875 81.085938 33.050781 81.359375 L 34.582031 82.144531 C 35.101562 82.386719 35.625 82.621094 36.148438 82.859375 C 36.675781 83.085938 37.207031 83.292969 37.738281 83.511719 C 38.269531 83.738281 38.8125 83.910156 39.351562 84.105469 L 40.167969 84.390625 L 41.808594 84.898438 C 42.082031 84.984375 42.355469 85.066406 42.632812 85.136719 L 44.296875 85.566406 C 44.855469 85.703125 45.414062 85.8125 45.972656 85.941406 L 46.8125 86.121094 C 47.09375 86.175781 47.375 86.222656 47.65625 86.269531 L 49.347656 86.558594 C 49.910156 86.644531 50.476562 86.710938 51.042969 86.789062 C 52.175781 86.953125 53.3125 87.027344 54.445312 87.136719 C 55.582031 87.234375 56.71875 87.269531 57.855469 87.324219 C 58.992188 87.34375 60.128906 87.355469 61.265625 87.359375 C 62.398438 87.328125 63.535156 87.300781 64.667969 87.25 C 65.796875 87.175781 66.929688 87.121094 68.058594 87.019531 L 71.429688 86.675781 L 70.503906 82.722656 L 70.0625 82.882812 C 69.914062 82.941406 69.746094 82.996094 69.589844 83.050781 C 69.273438 83.164062 68.941406 83.265625 68.617188 83.371094 C 68.292969 83.480469 67.960938 83.578125 67.628906 83.675781 C 67.296875 83.773438 66.96875 83.878906 66.632812 83.964844 C 65.964844 84.144531 65.296875 84.339844 64.621094 84.507812 L 63.609375 84.765625 L 62.589844 85 L 61.570312 85.238281 L 60.542969 85.457031 C 59.855469 85.601562 59.171875 85.753906 58.480469 85.871094 C 57.792969 85.992188 57.105469 86.144531 56.410156 86.253906 L 54.328125 86.59375 C 53.636719 86.707031 52.9375 86.792969 52.238281 86.894531 L 51.191406 87.039062 C 50.839844 87.085938 50.488281 87.125 50.140625 87.164062 C 49.4375 87.246094 48.734375 87.320312 48.03125 87.414062 L 45.914062 87.605469 L 44.855469 87.710938 C 44.5 87.75 44.148438 87.761719 43.792969 87.785156 L 41.667969 87.941406 L 41.132812 87.980469 L 40.59375 88.007812 C 40.238281 88.019531 39.878906 88.042969 39.519531 88.0625 C 38.800781 88.101562 38.085938 88.132812 37.367188 88.1875 " fill-opacity="1" fill-rule="nonzero"/><path fill="#ff751f" d="M 21.808594 71.164062 C 22.210938 71.363281 22.613281 71.566406 23.019531 71.757812 C 23.425781 71.949219 23.851562 72.109375 24.269531 72.285156 C 24.6875 72.46875 25.117188 72.609375 25.546875 72.761719 L 26.1875 72.984375 C 26.40625 73.050781 26.625 73.113281 26.839844 73.179688 L 27.496094 73.367188 C 27.714844 73.433594 27.933594 73.496094 28.152344 73.546875 L 29.476562 73.875 C 30.367188 74.054688 31.257812 74.246094 32.15625 74.386719 C 33.054688 74.542969 33.957031 74.648438 34.863281 74.765625 C 35.765625 74.867188 36.671875 74.953125 37.578125 75.015625 C 38.484375 75.09375 39.394531 75.128906 40.300781 75.164062 C 41.210938 75.1875 42.117188 75.214844 43.027344 75.214844 C 43.480469 75.222656 43.933594 75.214844 44.390625 75.203125 C 44.84375 75.195312 45.296875 75.195312 45.75 75.175781 L 47.113281 75.132812 L 48.472656 75.066406 C 49.375 75.011719 50.28125 74.957031 51.1875 74.882812 C 52.089844 74.8125 52.996094 74.730469 53.894531 74.632812 C 54.796875 74.535156 55.699219 74.429688 56.597656 74.320312 C 57.5 74.203125 58.398438 74.082031 59.292969 73.941406 C 60.191406 73.804688 61.085938 73.660156 61.984375 73.503906 L 63.328125 73.261719 C 63.78125 73.175781 64.21875 73.089844 64.691406 72.984375 L 82.996094 69.003906 L 64.175781 68.941406 L 62.152344 68.933594 L 61.140625 68.933594 C 60.804688 68.929688 60.46875 68.933594 60.132812 68.914062 C 59.460938 68.886719 58.789062 68.859375 58.113281 68.839844 L 57.105469 68.808594 C 56.769531 68.792969 56.4375 68.761719 56.101562 68.738281 L 54.089844 68.597656 C 53.921875 68.582031 53.753906 68.574219 53.589844 68.558594 L 53.089844 68.503906 L 51.089844 68.292969 C 50.753906 68.257812 50.417969 68.230469 50.089844 68.175781 L 48.101562 67.890625 C 47.433594 67.808594 46.78125 67.671875 46.121094 67.558594 L 45.132812 67.382812 C 44.804688 67.324219 44.472656 67.273438 44.148438 67.195312 L 42.191406 66.765625 L 41.699219 66.660156 L 41.214844 66.53125 L 40.246094 66.28125 C 39.601562 66.117188 38.949219 65.957031 38.316406 65.753906 C 37.675781 65.5625 37.035156 65.378906 36.398438 65.175781 C 35.769531 64.957031 35.136719 64.742188 34.503906 64.527344 C 34.1875 64.425781 33.875 64.304688 33.566406 64.1875 L 32.628906 63.828125 C 32.320312 63.703125 32.003906 63.59375 31.699219 63.460938 L 30.78125 63.0625 L 29.859375 62.671875 C 29.550781 62.542969 29.253906 62.390625 28.953125 62.25 C 27.734375 61.695312 26.554688 61.070312 25.378906 60.4375 L 24.503906 59.941406 C 24.214844 59.773438 23.917969 59.617188 23.636719 59.4375 L 22.785156 58.90625 C 22.5 58.730469 22.207031 58.5625 21.933594 58.375 L 21.09375 57.816406 C 20.8125 57.632812 20.53125 57.449219 20.261719 57.246094 L 19.445312 56.660156 L 19.035156 56.367188 L 18.632812 56.0625 C 18.101562 55.652344 17.5625 55.246094 17.046875 54.8125 L 16.265625 54.167969 L 15.503906 53.503906 L 15.121094 53.167969 L 14.75 52.824219 L 14.003906 52.132812 L 12.914062 51.066406 L 12.5625 50.699219 C 11.613281 49.726562 10.707031 48.707031 9.84375 47.648438 C 9.410156 47.117188 8.984375 46.582031 8.574219 46.027344 C 8.171875 45.472656 7.769531 44.914062 7.394531 44.332031 C 7.640625 44.980469 7.929688 45.609375 8.234375 46.234375 C 8.542969 46.859375 8.859375 47.480469 9.210938 48.082031 C 9.902344 49.292969 10.664062 50.46875 11.488281 51.597656 L 11.796875 52.023438 L 12.121094 52.4375 L 12.761719 53.273438 L 13.4375 54.078125 L 13.777344 54.484375 L 14.128906 54.875 L 14.832031 55.664062 C 15.074219 55.921875 15.320312 56.171875 15.566406 56.421875 C 16.050781 56.933594 16.5625 57.417969 17.074219 57.902344 C 18.097656 58.878906 19.183594 59.78125 20.289062 60.667969 C 20.839844 61.113281 21.417969 61.519531 21.984375 61.941406 C 22.265625 62.15625 22.5625 62.347656 22.855469 62.550781 L 23.734375 63.144531 C 24.917969 63.925781 26.132812 64.660156 27.382812 65.335938 C 27.691406 65.503906 27.996094 65.6875 28.3125 65.847656 L 29.261719 66.324219 L 30.21875 66.796875 C 30.535156 66.957031 30.863281 67.089844 31.1875 67.238281 L 32.160156 67.671875 C 32.484375 67.816406 32.804688 67.960938 33.136719 68.089844 C 33.796875 68.351562 34.457031 68.609375 35.121094 68.867188 C 35.785156 69.105469 36.460938 69.328125 37.128906 69.558594 C 37.800781 69.796875 38.480469 69.992188 39.160156 70.191406 L 40.183594 70.488281 L 40.691406 70.636719 L 41.207031 70.761719 L 43.273438 71.261719 C 43.617188 71.351562 43.964844 71.414062 44.3125 71.484375 L 45.351562 71.695312 C 46.042969 71.832031 46.738281 71.972656 47.4375 72.066406 L 49.535156 72.382812 C 49.882812 72.441406 50.234375 72.476562 50.585938 72.515625 L 51.636719 72.632812 L 52.691406 72.746094 L 53.214844 72.796875 C 53.390625 72.816406 53.566406 72.824219 53.742188 72.835938 L 55.851562 72.96875 C 56.203125 72.988281 56.554688 73.019531 56.90625 73.03125 L 57.960938 73.058594 C 58.664062 73.078125 59.367188 73.09375 60.074219 73.105469 C 60.421875 73.117188 60.773438 73.105469 61.125 73.097656 L 62.179688 73.078125 L 64.285156 73.039062 L 63.769531 68.992188 L 62.507812 69.28125 L 61.222656 69.566406 C 60.359375 69.746094 59.496094 69.921875 58.632812 70.089844 L 56.027344 70.570312 C 55.160156 70.726562 54.289062 70.871094 53.417969 71.011719 C 52.542969 71.144531 51.671875 71.289062 50.796875 71.410156 C 49.925781 71.542969 49.050781 71.65625 48.171875 71.765625 L 46.859375 71.929688 L 45.542969 72.078125 C 45.105469 72.128906 44.664062 72.164062 44.226562 72.210938 C 43.785156 72.257812 43.347656 72.292969 42.90625 72.328125 C 42.027344 72.414062 41.148438 72.472656 40.269531 72.53125 L 38.945312 72.601562 C 38.503906 72.628906 38.066406 72.644531 37.625 72.65625 C 37.183594 72.667969 36.742188 72.695312 36.300781 72.695312 L 34.976562 72.710938 C 34.097656 72.703125 33.210938 72.710938 32.332031 72.664062 C 31.445312 72.648438 30.566406 72.582031 29.683594 72.523438 L 28.363281 72.398438 C 27.921875 72.363281 27.488281 72.289062 27.046875 72.238281 C 26.824219 72.207031 26.605469 72.183594 26.386719 72.152344 L 25.730469 72.039062 C 25.292969 71.960938 24.847656 71.902344 24.417969 71.800781 C 23.988281 71.703125 23.546875 71.625 23.113281 71.507812 C 22.679688 71.386719 22.242188 71.277344 21.808594 71.164062 " fill-opacity="1" fill-rule="nonzero"/><g clip-path="url(#adbe800012)"><path fill="#ff751f" d="M 7.054688 43.632812 C 7.996094 44.234375 8.9375 44.832031 9.894531 45.410156 L 11.34375 46.257812 L 12.074219 46.675781 L 12.8125 47.078125 L 14.292969 47.871094 C 14.789062 48.136719 15.292969 48.375 15.796875 48.628906 C 16.300781 48.875 16.800781 49.132812 17.308594 49.367188 L 18.84375 50.066406 C 19.097656 50.183594 19.351562 50.304688 19.609375 50.414062 L 20.390625 50.742188 L 21.945312 51.394531 L 23.523438 52.003906 L 24.3125 52.304688 L 25.109375 52.585938 L 26.707031 53.144531 L 28.316406 53.664062 C 28.855469 53.839844 29.398438 53.992188 29.941406 54.148438 C 30.484375 54.304688 31.023438 54.472656 31.574219 54.613281 L 33.214844 55.042969 L 34.867188 55.429688 C 35.417969 55.5625 35.976562 55.667969 36.53125 55.785156 L 37.363281 55.957031 L 38.199219 56.113281 C 39.3125 56.324219 40.4375 56.492188 41.558594 56.660156 L 43.25 56.878906 L 44.945312 57.066406 L 46.648438 57.207031 C 47.21875 57.242188 47.785156 57.285156 48.355469 57.3125 C 49.496094 57.363281 50.636719 57.40625 51.785156 57.40625 C 52.929688 57.40625 54.074219 57.378906 55.226562 57.3125 C 55.804688 57.277344 56.382812 57.234375 56.964844 57.183594 C 57.253906 57.152344 57.542969 57.128906 57.839844 57.09375 L 58.285156 57.039062 L 58.515625 57.007812 L 58.765625 56.96875 L 71.367188 55.054688 L 58.691406 52.96875 L 56.050781 52.53125 L 53.425781 52.039062 L 50.816406 51.472656 C 49.953125 51.257812 49.082031 51.070312 48.222656 50.847656 C 46.507812 50.402344 44.796875 49.925781 43.113281 49.375 L 41.851562 48.96875 L 40.597656 48.53125 C 39.761719 48.25 38.941406 47.921875 38.113281 47.609375 C 37.699219 47.457031 37.296875 47.277344 36.886719 47.109375 C 36.480469 46.9375 36.070312 46.773438 35.667969 46.597656 C 34.867188 46.226562 34.050781 45.890625 33.265625 45.496094 L 32.074219 44.921875 L 30.902344 44.3125 C 30.511719 44.113281 30.128906 43.898438 29.746094 43.683594 C 29.363281 43.46875 28.972656 43.261719 28.597656 43.035156 C 27.078125 42.152344 25.59375 41.207031 24.152344 40.203125 C 22.722656 39.1875 21.328125 38.117188 19.984375 36.988281 C 18.640625 35.855469 17.371094 34.640625 16.136719 33.386719 C 14.90625 32.132812 13.746094 30.808594 12.644531 29.433594 C 11.542969 28.058594 10.511719 26.621094 9.546875 25.136719 C 8.578125 23.65625 7.691406 22.117188 6.867188 20.542969 C 6.042969 18.96875 5.300781 17.347656 4.621094 15.695312 C 4.285156 14.867188 3.964844 14.03125 3.667969 13.1875 C 3.363281 12.34375 3.082031 11.492188 2.824219 10.632812 C 2.296875 8.914062 1.847656 7.167969 1.480469 5.398438 C 1.117188 3.628906 0.816406 1.839844 0.675781 0.0234375 C 0.589844 0.929688 0.578125 1.847656 0.585938 2.761719 C 0.597656 3.675781 0.632812 4.59375 0.707031 5.507812 C 0.84375 7.335938 1.09375 9.160156 1.4375 10.972656 C 1.777344 12.785156 2.222656 14.578125 2.757812 16.351562 C 3.285156 18.128906 3.925781 19.871094 4.644531 21.585938 C 5.367188 23.300781 6.1875 24.976562 7.089844 26.609375 C 7.996094 28.246094 8.996094 29.828125 10.070312 31.363281 C 11.148438 32.894531 12.324219 34.359375 13.5625 35.769531 C 14.800781 37.179688 16.117188 38.523438 17.503906 39.792969 C 18.890625 41.0625 20.335938 42.265625 21.839844 43.390625 C 23.351562 44.503906 24.902344 45.570312 26.503906 46.546875 C 26.902344 46.796875 27.3125 47.023438 27.714844 47.261719 C 28.121094 47.5 28.527344 47.734375 28.941406 47.953125 L 30.175781 48.621094 L 31.429688 49.257812 C 32.261719 49.6875 33.117188 50.066406 33.96875 50.457031 C 34.394531 50.648438 34.828125 50.824219 35.257812 51.011719 C 35.6875 51.191406 36.113281 51.382812 36.550781 51.546875 C 37.421875 51.882812 38.289062 52.234375 39.171875 52.535156 L 40.492188 53.003906 L 41.820312 53.433594 C 43.59375 54 45.390625 54.488281 47.195312 54.945312 C 47.640625 55.070312 48.097656 55.160156 48.550781 55.269531 L 49.90625 55.578125 L 52.636719 56.121094 L 55.375 56.585938 L 58.125 56.980469 L 58.046875 52.980469 L 57.703125 53.039062 L 57.320312 53.097656 C 57.066406 53.136719 56.800781 53.167969 56.542969 53.199219 C 56.015625 53.261719 55.484375 53.316406 54.949219 53.363281 C 53.882812 53.457031 52.800781 53.511719 51.722656 53.546875 C 50.640625 53.589844 49.558594 53.59375 48.472656 53.589844 C 47.929688 53.585938 47.386719 53.566406 46.84375 53.554688 L 45.210938 53.484375 L 43.582031 53.390625 L 41.949219 53.261719 C 40.867188 53.160156 39.777344 53.046875 38.695312 52.90625 L 37.882812 52.808594 L 37.070312 52.691406 C 36.527344 52.613281 35.984375 52.542969 35.449219 52.445312 L 33.828125 52.171875 L 32.210938 51.871094 C 31.671875 51.777344 31.136719 51.648438 30.601562 51.539062 C 30.0625 51.425781 29.523438 51.316406 28.992188 51.183594 L 27.386719 50.804688 L 25.789062 50.390625 L 24.992188 50.183594 L 24.195312 49.953125 L 22.605469 49.503906 L 21.027344 49.011719 L 20.234375 48.765625 L 19.449219 48.503906 L 17.878906 47.976562 C 17.355469 47.796875 16.839844 47.597656 16.316406 47.410156 C 15.796875 47.21875 15.269531 47.042969 14.757812 46.839844 L 13.207031 46.234375 L 12.429688 45.933594 L 11.664062 45.609375 L 10.121094 44.972656 C 9.097656 44.539062 8.085938 44.066406 7.054688 43.632812 " fill-opacity="1" fill-rule="nonzero"/></g><g clip-path="url(#8e92c21205)"><path fill="#ff751f" d="M 0.675781 0.0234375 C 0.675781 0.0234375 0.75 0.199219 0.898438 0.535156 C 1.046875 0.875 1.261719 1.382812 1.558594 2.03125 C 1.714844 2.355469 1.890625 2.714844 2.085938 3.109375 C 2.28125 3.507812 2.492188 3.945312 2.742188 4.398438 C 2.992188 4.859375 3.246094 5.359375 3.546875 5.878906 C 3.851562 6.394531 4.175781 6.945312 4.519531 7.523438 C 5.9375 9.820312 7.863281 12.5 10.40625 15.320312 C 11.6875 16.71875 13.128906 18.140625 14.726562 19.5625 C 15.128906 19.910156 15.539062 20.265625 15.957031 20.621094 C 16.382812 20.964844 16.816406 21.3125 17.253906 21.664062 C 18.140625 22.351562 19.0625 23.042969 20.027344 23.710938 C 21.953125 25.058594 24.046875 26.335938 26.273438 27.546875 C 28.5 28.761719 30.871094 29.871094 33.351562 30.910156 C 38.316406 32.980469 43.742188 34.640625 49.414062 35.960938 C 52.246094 36.625 55.144531 37.1875 58.082031 37.691406 C 59.550781 37.941406 61.027344 38.183594 62.511719 38.40625 C 64 38.632812 65.492188 38.828125 66.988281 39.027344 C 69.984375 39.410156 72.996094 39.785156 76 40.117188 C 79.007812 40.460938 82.007812 40.804688 84.960938 41.222656 C 87.90625 41.632812 90.824219 42.105469 93.53125 42.824219 C 93.871094 42.910156 94.199219 43.011719 94.527344 43.109375 L 94.773438 43.179688 C 94.773438 43.179688 94.867188 43.210938 94.785156 43.183594 L 94.851562 43.203125 L 94.988281 43.25 L 95.523438 43.429688 L 96.601562 43.78125 C 96.777344 43.839844 96.964844 43.898438 97.136719 43.957031 L 97.625 44.140625 L 99.101562 44.679688 L 99.59375 44.882812 L 100.582031 45.289062 L 101.074219 45.492188 L 101.558594 45.710938 C 102.847656 46.289062 104.113281 46.90625 105.328125 47.585938 C 105.632812 47.753906 105.9375 47.921875 106.242188 48.089844 C 106.546875 48.253906 106.832031 48.445312 107.128906 48.625 C 107.425781 48.804688 107.722656 48.984375 108.015625 49.164062 C 108.300781 49.355469 108.585938 49.542969 108.867188 49.734375 C 111.136719 51.269531 113.21875 53 115.050781 54.90625 C 116.878906 56.8125 118.476562 58.882812 119.800781 61.070312 C 121.128906 63.253906 122.210938 65.539062 123.042969 67.863281 C 123.886719 70.183594 124.507812 72.53125 124.9375 74.851562 C 125.375 77.167969 125.625 79.453125 125.765625 81.664062 C 125.910156 83.875 125.902344 86.011719 125.835938 88.046875 C 125.773438 90.085938 125.609375 92.019531 125.417969 93.835938 C 125.027344 97.476562 124.449219 100.636719 123.898438 103.226562 C 123.339844 105.816406 122.820312 107.84375 122.421875 109.210938 C 122.222656 109.898438 122.070312 110.421875 121.960938 110.777344 C 121.847656 111.128906 121.789062 111.308594 121.789062 111.308594 C 121.789062 111.308594 121.875 111.140625 122.046875 110.8125 C 122.214844 110.480469 122.464844 109.992188 122.761719 109.339844 C 123.355469 108.035156 124.214844 106.105469 125.117188 103.574219 C 126.023438 101.042969 127 97.917969 127.820312 94.234375 C 128.628906 90.554688 129.285156 86.3125 129.414062 81.605469 C 129.472656 79.25 129.382812 76.785156 129.109375 74.230469 C 129.042969 73.59375 128.945312 72.953125 128.859375 72.304688 C 128.742188 71.660156 128.648438 71.007812 128.511719 70.351562 C 128.378906 69.699219 128.246094 69.039062 128.078125 68.382812 C 127.996094 68.050781 127.921875 67.71875 127.832031 67.390625 C 127.738281 67.058594 127.644531 66.726562 127.550781 66.394531 L 127.40625 65.894531 L 127.246094 65.398438 C 127.136719 65.066406 127.027344 64.734375 126.921875 64.402344 C 126.796875 64.074219 126.675781 63.742188 126.550781 63.410156 C 126.425781 63.078125 126.308594 62.742188 126.164062 62.417969 C 126.023438 62.085938 125.886719 61.757812 125.746094 61.425781 C 125.613281 61.09375 125.445312 60.773438 125.296875 60.445312 C 125.136719 60.117188 124.992188 59.785156 124.824219 59.460938 C 124.652344 59.136719 124.484375 58.8125 124.3125 58.488281 C 124.148438 58.160156 123.960938 57.84375 123.773438 57.523438 C 123.589844 57.207031 123.402344 56.886719 123.214844 56.5625 C 123.011719 56.253906 122.808594 55.9375 122.605469 55.625 L 122.296875 55.15625 C 122.195312 55 122.082031 54.847656 121.972656 54.695312 C 121.753906 54.390625 121.535156 54.085938 121.316406 53.777344 C 121.09375 53.46875 120.851562 53.179688 120.621094 52.878906 C 120.382812 52.582031 120.15625 52.277344 119.902344 51.988281 C 119.652344 51.703125 119.40625 51.414062 119.152344 51.121094 C 117.140625 48.8125 114.78125 46.75 112.246094 44.914062 C 111.925781 44.6875 111.609375 44.457031 111.289062 44.230469 C 110.960938 44.015625 110.632812 43.800781 110.304688 43.585938 C 109.972656 43.375 109.648438 43.144531 109.308594 42.949219 C 108.972656 42.75 108.632812 42.546875 108.292969 42.34375 C 106.933594 41.550781 105.527344 40.832031 104.097656 40.160156 L 103.5625 39.902344 L 103.019531 39.667969 L 101.929688 39.199219 L 101.382812 38.960938 L 100.820312 38.742188 L 99.121094 38.085938 C 98.933594 38.015625 98.761719 37.960938 98.582031 37.894531 L 97.511719 37.527344 L 96.972656 37.34375 L 96.839844 37.300781 L 96.644531 37.238281 L 96.347656 37.148438 C 95.953125 37.027344 95.554688 36.90625 95.164062 36.804688 C 93.585938 36.371094 92.023438 36.035156 90.46875 35.746094 C 88.914062 35.457031 87.367188 35.207031 85.832031 34.992188 C 79.679688 34.167969 73.632812 33.628906 67.722656 32.972656 C 66.246094 32.808594 64.777344 32.632812 63.324219 32.453125 C 61.867188 32.28125 60.421875 32.089844 58.988281 31.890625 C 56.125 31.484375 53.3125 31.027344 50.5625 30.515625 C 45.074219 29.460938 39.835938 28.164062 35.027344 26.5 C 30.214844 24.847656 25.820312 22.867188 21.976562 20.648438 C 20.050781 19.546875 18.261719 18.382812 16.617188 17.195312 C 14.972656 16.011719 13.480469 14.789062 12.105469 13.597656 C 9.390625 11.183594 7.21875 8.832031 5.542969 6.792969 C 3.875 4.746094 2.679688 3.035156 1.875 1.859375 C 1.089844 0.660156 0.675781 0.0234375 0.675781 0.0234375 " fill-opacity="1" fill-rule="nonzero"/></g></g></g></g></svg>