<svg xmlns="http://www.w3.org/2000/svg" xmlns:xlink="http://www.w3.org/1999/xlink" width="1920" zoomAndPan="magnify" viewBox="0 0 1440 809.999993" height="1080" preserveAspectRatio="xMidYMid meet" version="1.0"><defs><clipPath id="b6a5d41c84"><path d="M 573 221 L 941 221 L 941 478 L 573 478 Z M 573 221 " clip-rule="nonzero"/></clipPath><clipPath id="2a68f31d7e"><path d="M 387.429688 295.109375 L 868.9375 87.769531 L 1052.839844 514.859375 L 571.335938 722.195312 Z M 387.429688 295.109375 " clip-rule="nonzero"/></clipPath><clipPath id="4833a60dca"><path d="M 387.429688 295.109375 L 868.9375 87.769531 L 1052.839844 514.859375 L 571.335938 722.195312 Z M 387.429688 295.109375 " clip-rule="nonzero"/></clipPath><clipPath id="85a61b281c"><path d="M 577 225 L 936 225 L 936 374 L 577 374 Z M 577 225 " clip-rule="nonzero"/></clipPath><clipPath id="013a55addf"><path d="M 387.429688 295.109375 L 868.9375 87.769531 L 1052.839844 514.859375 L 571.335938 722.195312 Z M 387.429688 295.109375 " clip-rule="nonzero"/></clipPath><clipPath id="b1a2849714"><path d="M 387.429688 295.109375 L 868.9375 87.769531 L 1052.839844 514.859375 L 571.335938 722.195312 Z M 387.429688 295.109375 " clip-rule="nonzero"/></clipPath><clipPath id="404a65bfdd"><path d="M 562 228 L 576 228 L 576 241 L 562 241 Z M 562 228 " clip-rule="nonzero"/></clipPath><clipPath id="077c12e422"><path d="M 387.429688 295.109375 L 868.9375 87.769531 L 1052.839844 514.859375 L 571.335938 722.195312 Z M 387.429688 295.109375 " clip-rule="nonzero"/></clipPath><clipPath id="edc23c2349"><path d="M 387.429688 295.109375 L 868.9375 87.769531 L 1052.839844 514.859375 L 571.335938 722.195312 Z M 387.429688 295.109375 " clip-rule="nonzero"/></clipPath><clipPath id="8b19ae2b67"><path d="M 562 224 L 575 224 L 575 236 L 562 236 Z M 562 224 " clip-rule="nonzero"/></clipPath><clipPath id="9213421f8a"><path d="M 387.429688 295.109375 L 868.9375 87.769531 L 1052.839844 514.859375 L 571.335938 722.195312 Z M 387.429688 295.109375 " clip-rule="nonzero"/></clipPath><clipPath id="0fea616739"><path d="M 387.429688 295.109375 L 868.9375 87.769531 L 1052.839844 514.859375 L 571.335938 722.195312 Z M 387.429688 295.109375 " clip-rule="nonzero"/></clipPath><clipPath id="bddd7afda5"><path d="M 563 221 L 574 221 L 574 232 L 563 232 Z M 563 221 " clip-rule="nonzero"/></clipPath><clipPath id="2b33143695"><path d="M 387.429688 295.109375 L 868.9375 87.769531 L 1052.839844 514.859375 L 571.335938 722.195312 Z M 387.429688 295.109375 " clip-rule="nonzero"/></clipPath><clipPath id="bf83e59680"><path d="M 387.429688 295.109375 L 868.9375 87.769531 L 1052.839844 514.859375 L 571.335938 722.195312 Z M 387.429688 295.109375 " clip-rule="nonzero"/></clipPath><clipPath id="1508ec7f6b"><path d="M 564 219 L 573 219 L 573 227 L 564 227 Z M 564 219 " clip-rule="nonzero"/></clipPath><clipPath id="90ceca93e7"><path d="M 387.429688 295.109375 L 868.9375 87.769531 L 1052.839844 514.859375 L 571.335938 722.195312 Z M 387.429688 295.109375 " clip-rule="nonzero"/></clipPath><clipPath id="ae341d5852"><path d="M 387.429688 295.109375 L 868.9375 87.769531 L 1052.839844 514.859375 L 571.335938 722.195312 Z M 387.429688 295.109375 " clip-rule="nonzero"/></clipPath><clipPath id="194880ca8a"><path d="M 563 237 L 580 237 L 580 719 L 563 719 Z M 563 237 " clip-rule="nonzero"/></clipPath><clipPath id="53f24ad234"><path d="M 387.429688 295.109375 L 868.9375 87.769531 L 1052.839844 514.859375 L 571.335938 722.195312 Z M 387.429688 295.109375 " clip-rule="nonzero"/></clipPath><clipPath id="83bfffbe7f"><path d="M 387.429688 295.109375 L 868.9375 87.769531 L 1052.839844 514.859375 L 571.335938 722.195312 Z M 387.429688 295.109375 " clip-rule="nonzero"/></clipPath><clipPath id="cd9907c0e9"><path d="M 729 308 L 793.496094 308 L 793.496094 424 L 729 424 Z M 729 308 " clip-rule="nonzero"/></clipPath><clipPath id="4dacfd3df9"><path d="M 721.496094 302.265625 L 791 302.265625 L 791 426 L 721.496094 426 Z M 721.496094 302.265625 " clip-rule="nonzero"/></clipPath><clipPath id="920f70b894"><path d="M 790 360 L 849 360 L 849 381 L 790 381 Z M 790 360 " clip-rule="nonzero"/></clipPath><clipPath id="9bef039383"><path d="M 815.441406 260.179688 L 936.226562 301.011719 L 901.160156 404.742188 L 780.375 363.914062 Z M 815.441406 260.179688 " clip-rule="nonzero"/></clipPath><clipPath id="e4e70e312e"><path d="M 815.441406 260.179688 L 936.226562 301.011719 L 901.160156 404.742188 L 780.375 363.914062 Z M 815.441406 260.179688 " clip-rule="nonzero"/></clipPath><clipPath id="4fef0514ad"><path d="M 816 354 L 874 354 L 874 379 L 816 379 Z M 816 354 " clip-rule="nonzero"/></clipPath><clipPath id="ff10d8a4db"><path d="M 815.441406 260.179688 L 936.226562 301.011719 L 901.160156 404.742188 L 780.375 363.914062 Z M 815.441406 260.179688 " clip-rule="nonzero"/></clipPath><clipPath id="0a8ae75ded"><path d="M 815.441406 260.179688 L 936.226562 301.011719 L 901.160156 404.742188 L 780.375 363.914062 Z M 815.441406 260.179688 " clip-rule="nonzero"/></clipPath><clipPath id="cfa8725366"><path d="M 829 349 L 894 349 L 894 372 L 829 372 Z M 829 349 " clip-rule="nonzero"/></clipPath><clipPath id="5771f73b5c"><path d="M 815.441406 260.179688 L 936.226562 301.011719 L 901.160156 404.742188 L 780.375 363.914062 Z M 815.441406 260.179688 " clip-rule="nonzero"/></clipPath><clipPath id="d8d0b815a9"><path d="M 815.441406 260.179688 L 936.226562 301.011719 L 901.160156 404.742188 L 780.375 363.914062 Z M 815.441406 260.179688 " clip-rule="nonzero"/></clipPath><clipPath id="bcf2e8f9e8"><path d="M 837 339 L 916 339 L 916 362 L 837 362 Z M 837 339 " clip-rule="nonzero"/></clipPath><clipPath id="e83a723877"><path d="M 815.441406 260.179688 L 936.226562 301.011719 L 901.160156 404.742188 L 780.375 363.914062 Z M 815.441406 260.179688 " clip-rule="nonzero"/></clipPath><clipPath id="d7002479e3"><path d="M 815.441406 260.179688 L 936.226562 301.011719 L 901.160156 404.742188 L 780.375 363.914062 Z M 815.441406 260.179688 " clip-rule="nonzero"/></clipPath><clipPath id="40ccb22b1c"><path d="M 852 300 L 936 300 L 936 343 L 852 343 Z M 852 300 " clip-rule="nonzero"/></clipPath><clipPath id="8771883082"><path d="M 815.441406 260.179688 L 936.226562 301.011719 L 901.160156 404.742188 L 780.375 363.914062 Z M 815.441406 260.179688 " clip-rule="nonzero"/></clipPath><clipPath id="b2d167b9a1"><path d="M 815.441406 260.179688 L 936.226562 301.011719 L 901.160156 404.742188 L 780.375 363.914062 Z M 815.441406 260.179688 " clip-rule="nonzero"/></clipPath><clipPath id="282e21980b"><path d="M 869.730469 278.535156 L 935.9375 300.917969 L 917.789062 354.605469 L 851.582031 332.222656 Z M 869.730469 278.535156 " clip-rule="nonzero"/></clipPath><clipPath id="f329f2710a"><path d="M 786 300 L 936 300 L 936 367 L 786 367 Z M 786 300 " clip-rule="nonzero"/></clipPath><clipPath id="bcd1ad5cd1"><path d="M 815.441406 260.179688 L 936.226562 301.011719 L 901.160156 404.742188 L 780.375 363.914062 Z M 815.441406 260.179688 " clip-rule="nonzero"/></clipPath><clipPath id="38977e821e"><path d="M 815.441406 260.179688 L 936.226562 301.011719 L 901.160156 404.742188 L 780.375 363.914062 Z M 815.441406 260.179688 " clip-rule="nonzero"/></clipPath><clipPath id="f95693583c"><path d="M 815.441406 260.183594 L 935.9375 300.917969 L 900.757812 404.992188 L 780.261719 364.257812 Z M 815.441406 260.183594 " clip-rule="nonzero"/></clipPath><clipPath id="7493e3d32f"><path d="M 602.84375 254.132812 L 730.34375 254.132812 L 730.34375 363.632812 L 602.84375 363.632812 Z M 602.84375 254.132812 " clip-rule="nonzero"/></clipPath><clipPath id="461f42dabe"><path d="M 0.84375 0.136719 L 70.734375 0.136719 L 70.734375 56.808594 L 0.84375 56.808594 Z M 0.84375 0.136719 " clip-rule="nonzero"/></clipPath><clipPath id="30d2bac751"><path d="M 0.84375 0.136719 L 128.039062 0.136719 L 128.039062 109.632812 L 0.84375 109.632812 Z M 0.84375 0.136719 " clip-rule="nonzero"/></clipPath><clipPath id="565bcb7837"><rect x="0" width="129" y="0" height="110"/></clipPath></defs><rect x="-144" width="1728" fill="#ffffff" y="-80.999999" height="971.999992" fill-opacity="1"/><rect x="-144" width="1728" fill="#ffffff" y="-80.999999" height="971.999992" fill-opacity="1"/><g clip-path="url(#b6a5d41c84)"><g clip-path="url(#2a68f31d7e)"><g clip-path="url(#4833a60dca)"><path fill="#0097b2" d="M 678.1875 221.703125 C 657.425781 221.84375 629.355469 226.875 605.675781 232.128906 C 593.074219 234.925781 581.78125 237.765625 573.390625 239.976562 L 575.316406 447.097656 C 583.6875 444.898438 594.824219 442.101562 607.261719 439.34375 C 630.171875 434.257812 657.144531 429.359375 677.914062 428.90625 C 678.65625 428.890625 679.386719 428.882812 680.113281 428.875 C 682.289062 428.863281 684.390625 428.902344 686.402344 429 C 716.792969 430.46875 745.449219 442.792969 774.019531 454.628906 C 802.589844 466.46875 831.074219 477.8125 861.082031 477.550781 C 878.488281 477.402344 903.835938 469.910156 924.753906 462.433594 C 930.3125 460.449219 935.515625 458.476562 940.226562 456.636719 L 938.300781 249.578125 C 933.738281 251.355469 928.703125 253.257812 923.371094 255.160156 C 902.386719 262.660156 877.019531 270.222656 859.15625 270.375 C 828.71875 270.640625 800.027344 259.171875 771.445312 247.328125 C 742.859375 235.484375 714.375 223.273438 684.386719 221.824219 C 682.40625 221.726562 680.339844 221.6875 678.191406 221.703125 Z M 678.1875 221.703125 " fill-opacity="1" fill-rule="evenodd"/></g></g></g><g clip-path="url(#85a61b281c)"><g clip-path="url(#013a55addf)"><g clip-path="url(#b1a2849714)"><path fill="#0097b2" d="M 678.679688 225.972656 C 680.511719 225.96875 682.347656 226 684.179688 226.089844 C 713.941406 227.527344 742.640625 240.019531 769.808594 251.277344 C 798.335938 263.09375 827.796875 274.921875 859.191406 274.648438 C 866.328125 274.585938 873.65625 273.484375 880.640625 272.074219 C 888.542969 270.476562 896.378906 268.375 904.097656 266.046875 C 911.058594 263.945312 917.960938 261.632812 924.808594 259.183594 C 927.910156 258.074219 931 256.9375 934.082031 255.773438 L 935.003906 354.847656 C 931.710938 356.101562 928.226562 357.394531 924.605469 358.6875 C 903.621094 366.1875 878.253906 373.746094 860.390625 373.902344 C 829.953125 374.167969 801.261719 362.699219 772.679688 350.855469 C 744.097656 339.011719 715.609375 326.796875 685.621094 325.347656 C 683.644531 325.253906 681.574219 325.214844 679.425781 325.230469 L 679.421875 325.230469 C 658.660156 325.367188 630.59375 330.402344 606.914062 335.65625 C 596.210938 338.03125 586.453125 340.4375 578.613281 342.460938 L 577.691406 243.265625 C 587.285156 240.777344 596.925781 238.449219 606.601562 236.300781 C 615.089844 234.417969 623.613281 232.675781 632.171875 231.140625 C 640.210938 229.699219 648.300781 228.433594 656.414062 227.484375 C 663.625 226.644531 670.949219 226.023438 678.214844 225.976562 Z M 678.679688 225.972656 " fill-opacity="1" fill-rule="evenodd"/></g></g></g><g clip-path="url(#404a65bfdd)"><g clip-path="url(#077c12e422)"><g clip-path="url(#edc23c2349)"><path fill="#71625b" d="M 562.21875 234.648438 C 562.222656 235.039062 562.269531 235.425781 562.355469 235.808594 C 562.445312 236.191406 562.570312 236.5625 562.738281 236.921875 C 562.90625 237.28125 563.113281 237.621094 563.351562 237.945312 C 563.59375 238.265625 563.867188 238.5625 564.171875 238.835938 C 564.476562 239.109375 564.808594 239.351562 565.167969 239.566406 C 565.523438 239.777344 565.902344 239.957031 566.296875 240.101562 C 566.691406 240.246094 567.101562 240.355469 567.519531 240.425781 C 567.941406 240.5 568.363281 240.53125 568.789062 240.527344 C 569.21875 240.519531 569.640625 240.476562 570.058594 240.398438 C 570.476562 240.316406 570.878906 240.199219 571.273438 240.042969 C 571.664062 239.890625 572.039062 239.699219 572.390625 239.480469 C 572.742188 239.257812 573.066406 239.007812 573.367188 238.726562 C 573.664062 238.445312 573.929688 238.140625 574.164062 237.8125 C 574.398438 237.484375 574.59375 237.140625 574.753906 236.777344 C 574.910156 236.414062 575.03125 236.039062 575.109375 235.65625 C 575.1875 235.269531 575.222656 234.882812 575.21875 234.492188 C 575.214844 234.101562 575.167969 233.714844 575.082031 233.332031 C 574.992188 232.949219 574.867188 232.578125 574.699219 232.21875 C 574.53125 231.859375 574.324219 231.515625 574.085938 231.195312 C 573.84375 230.871094 573.570312 230.574219 573.265625 230.300781 C 572.960938 230.027344 572.628906 229.785156 572.269531 229.574219 C 571.914062 229.359375 571.535156 229.179688 571.140625 229.035156 C 570.746094 228.890625 570.335938 228.78125 569.917969 228.710938 C 569.496094 228.640625 569.074219 228.605469 568.648438 228.613281 C 568.222656 228.617188 567.796875 228.660156 567.378906 228.742188 C 566.964844 228.824219 566.558594 228.941406 566.164062 229.09375 C 565.773438 229.25 565.398438 229.4375 565.046875 229.660156 C 564.695312 229.878906 564.371094 230.132812 564.070312 230.410156 C 563.773438 230.691406 563.507812 230.996094 563.273438 231.324219 C 563.039062 231.652344 562.84375 231.996094 562.683594 232.359375 C 562.527344 232.722656 562.40625 233.097656 562.328125 233.484375 C 562.25 233.867188 562.214844 234.253906 562.21875 234.648438 Z M 562.21875 234.648438 " fill-opacity="1" fill-rule="nonzero"/></g></g></g><g clip-path="url(#8b19ae2b67)"><g clip-path="url(#9213421f8a)"><g clip-path="url(#0fea616739)"><path fill="#71625b" d="M 562.875 230.195312 C 562.878906 230.546875 562.921875 230.890625 563 231.230469 C 563.078125 231.570312 563.191406 231.902344 563.339844 232.222656 C 563.492188 232.542969 563.671875 232.847656 563.886719 233.132812 C 564.101562 233.421875 564.34375 233.683594 564.617188 233.929688 C 564.890625 234.171875 565.183594 234.386719 565.503906 234.578125 C 565.820312 234.765625 566.15625 234.925781 566.507812 235.054688 C 566.863281 235.183594 567.226562 235.28125 567.597656 235.34375 C 567.972656 235.410156 568.347656 235.4375 568.730469 235.433594 C 569.109375 235.429688 569.484375 235.390625 569.859375 235.316406 C 570.230469 235.246094 570.589844 235.140625 570.941406 235.003906 C 571.289062 234.867188 571.621094 234.699219 571.9375 234.5 C 572.25 234.304688 572.539062 234.078125 572.804688 233.832031 C 573.070312 233.582031 573.308594 233.308594 573.515625 233.019531 C 573.722656 232.726562 573.898438 232.417969 574.039062 232.09375 C 574.179688 231.769531 574.285156 231.4375 574.355469 231.09375 C 574.425781 230.753906 574.460938 230.40625 574.457031 230.058594 C 574.453125 229.710938 574.410156 229.367188 574.332031 229.023438 C 574.253906 228.683594 574.140625 228.355469 573.992188 228.035156 C 573.839844 227.714844 573.660156 227.410156 573.445312 227.121094 C 573.230469 226.835938 572.988281 226.570312 572.714844 226.328125 C 572.445312 226.082031 572.148438 225.867188 571.832031 225.679688 C 571.511719 225.488281 571.175781 225.328125 570.824219 225.199219 C 570.46875 225.070312 570.105469 224.972656 569.734375 224.910156 C 569.359375 224.847656 568.984375 224.816406 568.601562 224.820312 C 568.222656 224.828125 567.847656 224.863281 567.472656 224.9375 C 567.101562 225.011719 566.742188 225.113281 566.390625 225.253906 C 566.042969 225.390625 565.710938 225.558594 565.398438 225.753906 C 565.082031 225.953125 564.792969 226.175781 564.527344 226.425781 C 564.261719 226.675781 564.023438 226.945312 563.816406 227.238281 C 563.609375 227.53125 563.433594 227.835938 563.292969 228.160156 C 563.152344 228.484375 563.046875 228.816406 562.976562 229.160156 C 562.90625 229.503906 562.871094 229.847656 562.875 230.195312 Z M 562.875 230.195312 " fill-opacity="1" fill-rule="nonzero"/></g></g></g><g clip-path="url(#bddd7afda5)"><g clip-path="url(#2b33143695)"><g clip-path="url(#bf83e59680)"><path fill="#71625b" d="M 563.515625 226.597656 C 563.519531 226.902344 563.554688 227.207031 563.625 227.507812 C 563.691406 227.808594 563.792969 228.101562 563.925781 228.382812 C 564.054688 228.664062 564.214844 228.933594 564.40625 229.1875 C 564.59375 229.441406 564.808594 229.675781 565.050781 229.886719 C 565.289062 230.101562 565.550781 230.292969 565.832031 230.460938 C 566.113281 230.628906 566.40625 230.769531 566.71875 230.882812 C 567.03125 230.996094 567.351562 231.082031 567.679688 231.136719 C 568.011719 231.195312 568.34375 231.21875 568.679688 231.214844 C 569.015625 231.210938 569.347656 231.179688 569.675781 231.113281 C 570.003906 231.050781 570.320312 230.957031 570.628906 230.835938 C 570.9375 230.714844 571.230469 230.566406 571.507812 230.394531 C 571.785156 230.21875 572.039062 230.023438 572.273438 229.800781 C 572.507812 229.582031 572.71875 229.34375 572.902344 229.085938 C 573.085938 228.828125 573.238281 228.554688 573.363281 228.269531 C 573.488281 227.984375 573.582031 227.691406 573.644531 227.386719 C 573.707031 227.085938 573.734375 226.78125 573.730469 226.472656 C 573.726562 226.167969 573.691406 225.863281 573.621094 225.5625 C 573.554688 225.261719 573.453125 224.96875 573.320312 224.6875 C 573.1875 224.40625 573.027344 224.136719 572.839844 223.882812 C 572.648438 223.628906 572.433594 223.394531 572.195312 223.179688 C 571.957031 222.96875 571.695312 222.777344 571.414062 222.609375 C 571.132812 222.441406 570.835938 222.300781 570.527344 222.1875 C 570.214844 222.074219 569.894531 221.988281 569.5625 221.929688 C 569.234375 221.875 568.902344 221.847656 568.566406 221.851562 C 568.230469 221.859375 567.898438 221.890625 567.570312 221.957031 C 567.242188 222.019531 566.925781 222.113281 566.617188 222.234375 C 566.308594 222.355469 566.015625 222.503906 565.738281 222.675781 C 565.460938 222.851562 565.207031 223.046875 564.96875 223.269531 C 564.734375 223.488281 564.527344 223.726562 564.34375 223.984375 C 564.160156 224.242188 564.007812 224.515625 563.882812 224.800781 C 563.757812 225.085938 563.664062 225.378906 563.601562 225.679688 C 563.539062 225.984375 563.511719 226.289062 563.515625 226.597656 Z M 563.515625 226.597656 " fill-opacity="1" fill-rule="nonzero"/></g></g></g><g clip-path="url(#1508ec7f6b)"><g clip-path="url(#90ceca93e7)"><g clip-path="url(#ae341d5852)"><path fill="#71625b" d="M 564.492188 222.8125 C 564.496094 223.308594 564.605469 223.785156 564.820312 224.242188 C 565.03125 224.699219 565.332031 225.101562 565.71875 225.445312 C 566.109375 225.792969 566.554688 226.058594 567.054688 226.242188 C 567.558594 226.425781 568.082031 226.515625 568.625 226.507812 C 569.164062 226.503906 569.683594 226.402344 570.183594 226.207031 C 570.683594 226.007812 571.121094 225.734375 571.5 225.378906 C 571.878906 225.023438 572.167969 224.613281 572.371094 224.152344 C 572.574219 223.691406 572.671875 223.210938 572.664062 222.714844 C 572.660156 222.21875 572.550781 221.742188 572.335938 221.285156 C 572.125 220.828125 571.824219 220.429688 571.4375 220.082031 C 571.050781 219.734375 570.605469 219.46875 570.101562 219.285156 C 569.597656 219.101562 569.074219 219.011719 568.535156 219.019531 C 567.992188 219.027344 567.472656 219.125 566.972656 219.324219 C 566.476562 219.519531 566.035156 219.792969 565.65625 220.152344 C 565.277344 220.507812 564.988281 220.914062 564.785156 221.375 C 564.582031 221.835938 564.484375 222.316406 564.492188 222.8125 Z M 564.492188 222.8125 " fill-opacity="1" fill-rule="nonzero"/></g></g></g><g clip-path="url(#194880ca8a)"><g clip-path="url(#53f24ad234)"><g clip-path="url(#83bfffbe7f)"><path fill="#71625b" d="M 573.507812 237.164062 L 563.992188 237.277344 L 569.738281 718.441406 L 579.257812 718.328125 Z M 573.507812 237.164062 " fill-opacity="1" fill-rule="evenodd"/></g></g></g><g clip-path="url(#cd9907c0e9)"><path fill="#007489" d="M 755.042969 308.71875 L 753.914062 308.714844 L 753.546875 309.78125 L 730.75 376.472656 L 729.742188 379.410156 L 732.707031 378.476562 L 749.34375 373.242188 L 734.492188 413.417969 L 730.945312 423.015625 L 737.210938 414.921875 L 782.546875 356.351562 L 784.894531 353.316406 L 781.09375 353.832031 L 759.074219 356.820312 L 791.640625 311.386719 L 793.414062 308.917969 L 790.371094 308.902344 L 755.042969 308.71875 " fill-opacity="1" fill-rule="nonzero"/></g><g clip-path="url(#4dacfd3df9)"><path fill="#007489" d="M 746.488281 366.03125 L 730.195312 410.105469 L 776.703125 350.019531 L 751.046875 353.5 L 785.691406 305.171875 L 749.792969 304.988281 L 749.742188 305.132812 L 726.808594 372.222656 Z M 721.519531 425.746094 L 742.023438 370.28125 L 722.503906 376.421875 L 747.855469 302.265625 L 790.957031 302.484375 L 756.921875 349.964844 L 782.910156 346.4375 L 721.519531 425.746094 " fill-opacity="1" fill-rule="nonzero"/></g><g clip-path="url(#920f70b894)"><g clip-path="url(#9bef039383)"><g clip-path="url(#e4e70e312e)"><path fill="#007489" d="M 790.738281 364.1875 C 790.738281 364.1875 790.9375 364.039062 791.3125 363.761719 C 791.40625 363.695312 791.507812 363.617188 791.625 363.535156 C 791.75 363.460938 791.882812 363.378906 792.027344 363.289062 C 792.171875 363.199219 792.332031 363.101562 792.5 363 C 792.667969 362.890625 792.855469 362.8125 793.054688 362.710938 C 793.253906 362.613281 793.460938 362.507812 793.679688 362.398438 C 793.902344 362.296875 794.144531 362.210938 794.394531 362.109375 C 794.644531 362.015625 794.902344 361.894531 795.179688 361.816406 C 795.460938 361.730469 795.75 361.644531 796.050781 361.558594 C 796.199219 361.515625 796.351562 361.460938 796.507812 361.429688 C 796.667969 361.398438 796.828125 361.367188 796.992188 361.332031 C 797.320312 361.269531 797.65625 361.195312 798.003906 361.140625 C 798.355469 361.097656 798.714844 361.058594 799.085938 361.023438 C 799.269531 361.007812 799.460938 360.980469 799.648438 360.972656 C 799.839844 360.964844 800.03125 360.960938 800.226562 360.957031 C 800.613281 360.949219 801.011719 360.941406 801.417969 360.949219 C 801.824219 360.976562 802.234375 361.007812 802.652344 361.035156 C 802.863281 361.054688 803.074219 361.0625 803.289062 361.089844 C 803.496094 361.121094 803.710938 361.15625 803.921875 361.191406 C 804.351562 361.261719 804.785156 361.332031 805.226562 361.40625 C 806.957031 361.804688 808.777344 362.320312 810.535156 363.097656 C 810.980469 363.289062 811.429688 363.476562 811.875 363.675781 C 812.308594 363.898438 812.746094 364.125 813.183594 364.351562 C 813.402344 364.464844 813.621094 364.578125 813.839844 364.691406 C 814.058594 364.808594 814.289062 364.914062 814.496094 365.046875 C 814.917969 365.308594 815.34375 365.566406 815.769531 365.828125 C 815.984375 365.960938 816.199219 366.09375 816.414062 366.222656 C 816.628906 366.355469 816.84375 366.488281 817.046875 366.632812 C 817.457031 366.917969 817.871094 367.207031 818.28125 367.5 C 818.679688 367.785156 819.082031 368.070312 819.480469 368.355469 L 820.660156 369.21875 C 820.863281 369.371094 821.046875 369.488281 821.234375 369.625 L 821.800781 370.015625 C 822.175781 370.277344 822.570312 370.53125 822.960938 370.789062 C 823.347656 371.046875 823.738281 371.296875 824.136719 371.539062 C 824.53125 371.78125 824.917969 372.039062 825.320312 372.261719 C 826.117188 372.726562 826.917969 373.160156 827.710938 373.59375 C 828.113281 373.796875 828.511719 374 828.910156 374.199219 C 829.3125 374.390625 829.710938 374.582031 830.105469 374.769531 C 831.699219 375.5 833.277344 376.132812 834.804688 376.652344 C 835.1875 376.789062 835.566406 376.902344 835.941406 377.023438 C 836.316406 377.144531 836.6875 377.242188 837.054688 377.355469 C 837.417969 377.464844 837.78125 377.554688 838.136719 377.652344 C 838.496094 377.742188 838.847656 377.828125 839.195312 377.910156 C 840.578125 378.238281 841.867188 378.460938 843.023438 378.621094 C 844.179688 378.78125 845.203125 378.871094 846.050781 378.921875 C 847.746094 379.015625 848.742188 378.953125 848.742188 378.953125 C 848.742188 378.953125 848.683594 378.976562 848.570312 379.023438 C 848.460938 379.070312 848.296875 379.136719 848.074219 379.210938 C 847.632812 379.367188 846.976562 379.570312 846.121094 379.761719 C 845.269531 379.957031 844.214844 380.136719 842.992188 380.25 C 841.769531 380.359375 840.378906 380.40625 838.863281 380.328125 C 838.484375 380.308594 838.097656 380.28125 837.703125 380.246094 C 837.308594 380.207031 836.90625 380.171875 836.5 380.121094 C 835.683594 380.019531 834.847656 379.878906 833.988281 379.714844 C 832.273438 379.367188 830.492188 378.878906 828.695312 378.226562 C 828.25 378.054688 827.792969 377.894531 827.34375 377.710938 C 826.898438 377.523438 826.449219 377.328125 825.996094 377.136719 C 825.554688 376.929688 825.105469 376.722656 824.65625 376.511719 C 824.207031 376.292969 823.773438 376.054688 823.328125 375.824219 C 822.878906 375.597656 822.449219 375.335938 822.011719 375.089844 C 821.792969 374.964844 821.570312 374.84375 821.355469 374.710938 L 820.710938 374.3125 C 820.285156 374.042969 819.851562 373.78125 819.429688 373.480469 L 818.789062 373.042969 C 818.578125 372.898438 818.351562 372.75 818.164062 372.605469 C 817.382812 372.027344 816.601562 371.449219 815.824219 370.875 C 815.445312 370.597656 815.074219 370.316406 814.699219 370.035156 C 814.515625 369.890625 814.324219 369.761719 814.132812 369.636719 C 813.941406 369.507812 813.75 369.378906 813.558594 369.25 C 813.175781 368.996094 812.792969 368.738281 812.414062 368.484375 C 812.230469 368.347656 812.03125 368.242188 811.839844 368.125 C 811.648438 368.007812 811.453125 367.890625 811.261719 367.777344 C 810.878906 367.542969 810.496094 367.3125 810.117188 367.082031 C 809.726562 366.882812 809.339844 366.671875 808.957031 366.46875 C 808.765625 366.367188 808.574219 366.265625 808.386719 366.164062 C 808.289062 366.113281 808.195312 366.058594 808.101562 366.011719 L 807.808594 365.882812 C 807.421875 365.710938 807.042969 365.53125 806.664062 365.355469 C 806.472656 365.269531 806.289062 365.167969 806.097656 365.101562 C 805.90625 365.03125 805.714844 364.957031 805.527344 364.886719 C 805.148438 364.742188 804.773438 364.597656 804.402344 364.453125 C 804.027344 364.335938 803.65625 364.222656 803.289062 364.109375 C 803.105469 364.050781 802.921875 363.992188 802.742188 363.9375 C 802.558594 363.894531 802.378906 363.851562 802.199219 363.808594 C 801.835938 363.71875 801.480469 363.632812 801.132812 363.550781 C 800.777344 363.492188 800.429688 363.4375 800.089844 363.382812 C 799.917969 363.351562 799.75 363.324219 799.582031 363.296875 C 799.414062 363.273438 799.246094 363.265625 799.082031 363.25 C 798.753906 363.222656 798.429688 363.195312 798.113281 363.164062 C 797.796875 363.148438 797.488281 363.152344 797.183594 363.144531 C 797.03125 363.144531 796.882812 363.140625 796.734375 363.136719 C 796.589844 363.132812 796.445312 363.148438 796.300781 363.15625 C 796.015625 363.171875 795.738281 363.1875 795.472656 363.199219 C 795.335938 363.203125 795.207031 363.222656 795.078125 363.242188 C 794.949219 363.257812 794.824219 363.269531 794.699219 363.285156 C 794.453125 363.320312 794.207031 363.339844 793.980469 363.378906 C 793.753906 363.421875 793.539062 363.464844 793.332031 363.503906 C 792.914062 363.574219 792.558594 363.671875 792.238281 363.753906 C 792.074219 363.792969 791.925781 363.828125 791.789062 363.863281 C 791.65625 363.90625 791.53125 363.945312 791.421875 363.980469 C 790.976562 364.113281 790.738281 364.1875 790.738281 364.1875 " fill-opacity="1" fill-rule="nonzero"/></g></g></g><g clip-path="url(#4fef0514ad)"><g clip-path="url(#ff10d8a4db)"><g clip-path="url(#0a8ae75ded)"><path fill="#007489" d="M 848.792969 378.9375 C 848.195312 378.777344 847.605469 378.601562 847.015625 378.425781 C 846.421875 378.246094 845.828125 378.09375 845.246094 377.875 C 844.660156 377.667969 844.082031 377.449219 843.492188 377.238281 C 843.199219 377.128906 842.90625 377.023438 842.617188 376.90625 L 841.761719 376.542969 C 841.1875 376.300781 840.617188 376.050781 840.046875 375.800781 C 839.484375 375.535156 838.921875 375.261719 838.363281 374.984375 L 837.523438 374.566406 L 836.703125 374.121094 C 836.152344 373.820312 835.605469 373.515625 835.0625 373.203125 L 833.457031 372.222656 C 833.1875 372.0625 832.925781 371.890625 832.667969 371.710938 L 831.886719 371.1875 C 831.625 371.011719 831.359375 370.839844 831.105469 370.65625 L 830.339844 370.097656 L 829.582031 369.535156 L 828.835938 368.953125 L 828.089844 368.363281 C 827.847656 368.164062 827.609375 367.953125 827.367188 367.746094 C 827.128906 367.539062 826.882812 367.339844 826.648438 367.125 L 825.941406 366.480469 C 825.707031 366.269531 825.476562 366.042969 825.246094 365.820312 C 825.015625 365.597656 824.785156 365.378906 824.5625 365.140625 C 824.339844 364.90625 824.113281 364.679688 823.894531 364.429688 C 823.78125 364.308594 823.671875 364.195312 823.5625 364.0625 C 823.445312 363.929688 823.34375 363.820312 823.210938 363.648438 L 816.089844 354.828125 L 825.863281 360.824219 C 826.769531 361.375 827.671875 361.925781 828.566406 362.492188 L 831.308594 364.082031 C 832.234375 364.578125 833.152344 365.101562 834.085938 365.582031 L 835.5 366.285156 L 836.203125 366.644531 C 836.4375 366.761719 836.675781 366.867188 836.914062 366.980469 L 838.34375 367.644531 L 838.699219 367.808594 L 839.0625 367.960938 L 839.785156 368.265625 C 840.269531 368.46875 840.746094 368.6875 841.234375 368.878906 L 842.699219 369.445312 C 842.945312 369.535156 843.1875 369.636719 843.433594 369.71875 C 843.683594 369.804688 843.929688 369.890625 844.175781 369.976562 C 844.667969 370.148438 845.160156 370.332031 845.65625 370.492188 C 846.65625 370.796875 847.652344 371.117188 848.660156 371.382812 C 849.664062 371.679688 850.6875 371.894531 851.703125 372.136719 L 853.242188 372.449219 C 853.753906 372.550781 854.273438 372.621094 854.789062 372.707031 C 855.304688 372.808594 855.820312 372.863281 856.339844 372.933594 C 856.601562 372.96875 856.859375 373.007812 857.121094 373.035156 L 857.902344 373.105469 L 858.683594 373.1875 L 859.46875 373.238281 L 860.257812 373.289062 L 861.042969 373.308594 L 861.832031 373.339844 L 862.621094 373.335938 C 863.152344 373.34375 863.675781 373.320312 864.207031 373.304688 C 865.261719 373.269531 866.316406 373.1875 867.375 373.066406 C 868.433594 372.953125 869.484375 372.777344 870.535156 372.566406 C 870.800781 372.519531 871.0625 372.453125 871.324219 372.398438 C 871.589844 372.34375 871.847656 372.273438 872.109375 372.210938 C 872.632812 372.070312 873.152344 371.921875 873.664062 371.738281 C 873.222656 372.058594 872.746094 372.332031 872.261719 372.59375 C 871.777344 372.851562 871.285156 373.105469 870.78125 373.320312 C 870.277344 373.550781 869.765625 373.753906 869.246094 373.945312 L 868.464844 374.226562 C 868.203125 374.316406 867.9375 374.394531 867.671875 374.476562 C 867.410156 374.5625 867.140625 374.636719 866.875 374.710938 C 866.609375 374.78125 866.339844 374.863281 866.070312 374.929688 L 864.851562 375.210938 L 864.445312 375.289062 L 863.621094 375.445312 C 863.347656 375.5 863.074219 375.53125 862.796875 375.574219 L 861.972656 375.695312 L 861.140625 375.785156 L 860.308594 375.871094 L 859.472656 375.921875 L 858.632812 375.972656 L 857.796875 375.992188 L 856.957031 376.003906 C 856.679688 376.003906 856.398438 375.992188 856.121094 375.988281 C 855.5625 375.96875 855 375.96875 854.445312 375.925781 C 853.886719 375.878906 853.328125 375.851562 852.769531 375.792969 L 851.101562 375.601562 C 850.546875 375.53125 849.996094 375.429688 849.445312 375.339844 C 848.890625 375.261719 848.34375 375.140625 847.796875 375.03125 C 846.691406 374.828125 845.617188 374.53125 844.53125 374.253906 C 843.992188 374.113281 843.460938 373.941406 842.925781 373.785156 C 842.386719 373.628906 841.855469 373.460938 841.332031 373.269531 L 839.753906 372.714844 C 839.226562 372.523438 838.714844 372.308594 838.195312 372.105469 L 837.421875 371.792969 L 837.035156 371.632812 L 836.652344 371.464844 L 835.132812 370.773438 C 834.113281 370.332031 833.140625 369.796875 832.144531 369.296875 C 831.898438 369.175781 831.65625 369.039062 831.414062 368.902344 L 830.6875 368.5 L 829.234375 367.6875 L 826.414062 365.941406 C 825.492188 365.332031 824.582031 364.703125 823.671875 364.082031 L 826.324219 361.253906 C 826.378906 361.328125 826.476562 361.449219 826.554688 361.554688 C 826.636719 361.660156 826.734375 361.769531 826.824219 361.878906 C 827 362.101562 827.195312 362.316406 827.382812 362.535156 C 827.570312 362.753906 827.769531 362.972656 827.964844 363.1875 C 828.164062 363.40625 828.355469 363.625 828.5625 363.835938 L 829.171875 364.476562 C 829.375 364.6875 829.59375 364.890625 829.800781 365.101562 L 830.433594 365.726562 L 831.085938 366.335938 L 831.734375 366.945312 L 832.40625 367.539062 L 833.074219 368.132812 C 833.296875 368.332031 833.53125 368.515625 833.761719 368.710938 L 834.449219 369.289062 C 834.675781 369.484375 834.90625 369.675781 835.148438 369.855469 L 836.558594 370.972656 C 837.039062 371.339844 837.53125 371.683594 838.011719 372.046875 L 838.738281 372.589844 L 839.484375 373.105469 L 840.972656 374.144531 C 841.484375 374.472656 841.992188 374.796875 842.5 375.136719 L 843.265625 375.636719 C 843.523438 375.800781 843.785156 375.949219 844.042969 376.113281 C 844.558594 376.429688 845.082031 376.742188 845.601562 377.070312 L 845.992188 377.3125 L 846.394531 377.539062 L 847.195312 378 C 847.730469 378.3125 848.265625 378.617188 848.792969 378.9375 " fill-opacity="1" fill-rule="nonzero"/></g></g></g><g clip-path="url(#cfa8725366)"><g clip-path="url(#5771f73b5c)"><g clip-path="url(#d8d0b815a9)"><path fill="#007489" d="M 873.664062 371.738281 C 872.960938 371.644531 872.261719 371.53125 871.5625 371.421875 C 871.210938 371.367188 870.859375 371.3125 870.511719 371.253906 L 869.988281 371.164062 L 869.46875 371.058594 L 867.375 370.609375 C 867.027344 370.527344 866.675781 370.460938 866.332031 370.367188 L 865.296875 370.097656 L 863.230469 369.535156 C 862.550781 369.332031 861.871094 369.109375 861.1875 368.894531 C 860.847656 368.789062 860.507812 368.683594 860.167969 368.570312 L 859.160156 368.207031 C 858.488281 367.960938 857.808594 367.730469 857.140625 367.46875 L 855.148438 366.664062 C 854.816406 366.53125 854.488281 366.382812 854.160156 366.238281 L 853.175781 365.800781 C 852.519531 365.511719 851.875 365.195312 851.230469 364.878906 L 850.257812 364.40625 L 849.304688 363.90625 L 848.347656 363.398438 L 847.40625 362.867188 C 846.773438 362.519531 846.152344 362.148438 845.535156 361.769531 C 845.222656 361.582031 844.921875 361.382812 844.613281 361.1875 C 844.304688 360.992188 844 360.796875 843.695312 360.589844 C 843.394531 360.386719 843.089844 360.183594 842.785156 359.964844 C 842.632812 359.859375 842.484375 359.757812 842.332031 359.644531 C 842.175781 359.527344 842.035156 359.425781 841.855469 359.285156 L 829.976562 349.953125 L 843.972656 355.882812 L 846.949219 357.144531 L 849.945312 358.335938 C 850.949219 358.714844 851.964844 359.066406 852.96875 359.441406 C 853.984375 359.789062 855 360.128906 856.015625 360.464844 L 857.554688 360.925781 C 858.0625 361.082031 858.574219 361.253906 859.089844 361.382812 C 860.121094 361.660156 861.148438 361.960938 862.1875 362.191406 C 862.707031 362.316406 863.226562 362.445312 863.746094 362.566406 L 865.308594 362.886719 C 865.570312 362.941406 865.832031 363 866.09375 363.046875 L 866.878906 363.183594 C 867.402344 363.273438 867.925781 363.378906 868.453125 363.457031 C 869.503906 363.601562 870.558594 363.757812 871.617188 363.859375 L 872.410156 363.949219 L 873.203125 364.003906 L 874 364.0625 L 874.398438 364.09375 L 874.796875 364.109375 C 875.328125 364.128906 875.859375 364.160156 876.390625 364.171875 C 876.921875 364.171875 877.453125 364.171875 877.984375 364.179688 L 879.582031 364.132812 L 881.179688 364.035156 L 882.769531 363.878906 C 883.296875 363.796875 883.832031 363.75 884.359375 363.65625 C 884.886719 363.570312 885.417969 363.484375 885.941406 363.371094 C 886.203125 363.316406 886.46875 363.273438 886.726562 363.207031 L 887.511719 363.019531 C 888.554688 362.757812 889.59375 362.453125 890.613281 362.082031 C 891.628906 361.707031 892.640625 361.289062 893.597656 360.738281 C 893.210938 361.132812 892.773438 361.484375 892.328125 361.816406 C 891.882812 362.152344 891.421875 362.46875 890.945312 362.761719 C 889.996094 363.355469 888.992188 363.867188 887.96875 364.332031 C 886.9375 364.789062 885.882812 365.1875 884.804688 365.53125 C 884.539062 365.625 884.265625 365.695312 883.996094 365.777344 L 883.179688 366.007812 C 882.632812 366.144531 882.082031 366.273438 881.527344 366.402344 C 880.972656 366.511719 880.417969 366.621094 879.863281 366.71875 L 878.179688 366.964844 C 877.617188 367.027344 877.054688 367.085938 876.492188 367.140625 C 875.925781 367.1875 875.363281 367.210938 874.796875 367.25 C 874.230469 367.292969 873.664062 367.28125 873.097656 367.292969 L 872.25 367.300781 L 871.402344 367.28125 L 870.554688 367.257812 C 870.269531 367.253906 869.988281 367.242188 869.707031 367.21875 L 868.015625 367.097656 C 867.449219 367.046875 866.890625 366.976562 866.328125 366.914062 L 865.488281 366.820312 C 865.207031 366.785156 864.929688 366.734375 864.648438 366.695312 L 862.976562 366.429688 C 862.421875 366.328125 861.871094 366.214844 861.316406 366.109375 C 860.207031 365.90625 859.121094 365.613281 858.027344 365.355469 C 856.933594 365.089844 855.859375 364.761719 854.777344 364.453125 C 853.707031 364.113281 852.640625 363.765625 851.578125 363.410156 C 850.527344 363.023438 849.472656 362.636719 848.429688 362.230469 C 847.398438 361.804688 846.359375 361.394531 845.335938 360.945312 L 842.289062 359.554688 L 844.40625 356.152344 L 844.765625 356.441406 C 844.890625 356.542969 845.027344 356.644531 845.15625 356.75 C 845.417969 356.953125 845.695312 357.152344 845.964844 357.355469 C 846.234375 357.558594 846.511719 357.753906 846.792969 357.953125 C 847.070312 358.148438 847.347656 358.347656 847.632812 358.535156 C 848.203125 358.917969 848.761719 359.3125 849.34375 359.679688 L 850.207031 360.242188 L 851.085938 360.785156 L 851.964844 361.332031 L 852.855469 361.859375 C 853.453125 362.210938 854.042969 362.570312 854.652344 362.898438 C 855.261719 363.226562 855.855469 363.585938 856.46875 363.910156 L 858.308594 364.882812 C 858.921875 365.210938 859.546875 365.511719 860.167969 365.828125 L 861.101562 366.296875 C 861.414062 366.449219 861.730469 366.59375 862.046875 366.746094 C 862.675781 367.042969 863.308594 367.335938 863.9375 367.644531 L 865.855469 368.492188 L 866.816406 368.925781 C 867.136719 369.074219 867.460938 369.195312 867.785156 369.332031 L 869.726562 370.148438 L 870.210938 370.355469 L 870.707031 370.550781 C 871.035156 370.675781 871.363281 370.808594 871.695312 370.941406 C 872.351562 371.203125 873.011719 371.460938 873.664062 371.738281 " fill-opacity="1" fill-rule="nonzero"/></g></g></g><g clip-path="url(#bcf2e8f9e8)"><g clip-path="url(#e83a723877)"><g clip-path="url(#d7002479e3)"><path fill="#007489" d="M 893.597656 360.738281 C 893.15625 360.796875 892.71875 360.855469 892.277344 360.910156 C 891.839844 360.960938 891.390625 360.972656 890.941406 361.007812 C 890.492188 361.046875 890.046875 361.042969 889.601562 361.046875 L 888.925781 361.054688 C 888.703125 361.050781 888.480469 361.039062 888.257812 361.03125 L 887.582031 361 C 887.359375 360.992188 887.132812 360.980469 886.910156 360.960938 L 885.570312 360.847656 C 884.679688 360.734375 883.785156 360.632812 882.902344 360.480469 C 882.011719 360.34375 881.136719 360.15625 880.253906 359.980469 C 879.378906 359.789062 878.5 359.582031 877.632812 359.351562 C 876.761719 359.136719 875.902344 358.882812 875.039062 358.632812 C 874.183594 358.367188 873.324219 358.105469 872.476562 357.816406 C 872.046875 357.679688 871.625 357.527344 871.203125 357.378906 C 870.78125 357.226562 870.359375 357.082031 869.941406 356.921875 L 868.679688 356.449219 L 867.429688 355.957031 C 866.601562 355.621094 865.769531 355.28125 864.949219 354.925781 C 864.125 354.574219 863.308594 354.210938 862.496094 353.835938 C 861.683594 353.460938 860.871094 353.078125 860.066406 352.6875 C 859.261719 352.296875 858.457031 351.902344 857.664062 351.484375 C 856.867188 351.074219 856.078125 350.652344 855.289062 350.222656 L 854.105469 349.570312 C 853.707031 349.351562 853.328125 349.132812 852.917969 348.882812 L 837.058594 339.371094 L 854.679688 345.265625 L 856.574219 345.898438 L 857.519531 346.214844 C 857.835938 346.320312 858.148438 346.429688 858.46875 346.519531 C 859.109375 346.703125 859.746094 346.890625 860.378906 347.085938 L 861.335938 347.375 C 861.652344 347.464844 861.976562 347.542969 862.296875 347.628906 L 864.21875 348.128906 C 864.378906 348.171875 864.539062 348.214844 864.703125 348.253906 L 865.1875 348.359375 L 867.125 348.796875 C 867.449219 348.871094 867.769531 348.949219 868.09375 349.003906 L 870.046875 349.363281 C 870.695312 349.5 871.347656 349.578125 872 349.679688 L 872.980469 349.828125 C 873.308594 349.875 873.632812 349.933594 873.960938 349.964844 L 875.929688 350.179688 L 876.421875 350.234375 L 877.898438 350.339844 C 878.554688 350.390625 879.214844 350.449219 879.871094 350.460938 C 880.53125 350.480469 881.1875 350.511719 881.847656 350.523438 C 882.503906 350.515625 883.164062 350.515625 883.824219 350.519531 C 884.152344 350.523438 884.480469 350.507812 884.808594 350.496094 L 885.796875 350.453125 C 886.125 350.4375 886.457031 350.433594 886.785156 350.40625 L 887.769531 350.324219 L 888.753906 350.25 C 889.085938 350.226562 889.410156 350.179688 889.738281 350.144531 C 891.050781 350.007812 892.351562 349.796875 893.652344 349.578125 L 894.625 349.390625 C 894.949219 349.324219 895.277344 349.273438 895.597656 349.191406 L 896.5625 348.964844 C 896.882812 348.890625 897.210938 348.828125 897.527344 348.738281 L 898.484375 348.480469 C 898.808594 348.394531 899.128906 348.3125 899.441406 348.210938 L 900.871094 347.777344 L 901.34375 347.617188 C 901.96875 347.402344 902.601562 347.195312 903.21875 346.949219 L 904.15625 346.59375 L 905.078125 346.214844 L 905.542969 346.023438 L 906 345.816406 L 906.914062 345.40625 L 907.816406 344.972656 L 908.269531 344.753906 L 908.714844 344.519531 C 909.910156 343.914062 911.078125 343.246094 912.222656 342.527344 C 912.796875 342.167969 913.363281 341.800781 913.921875 341.414062 C 914.472656 341.023438 915.023438 340.625 915.5625 340.203125 C 915.128906 340.730469 914.65625 341.226562 914.175781 341.714844 C 913.6875 342.199219 913.195312 342.679688 912.675781 343.132812 C 911.648438 344.046875 910.5625 344.90625 909.433594 345.699219 L 909.011719 346 L 908.578125 346.289062 L 907.714844 346.863281 L 906.828125 347.40625 L 906.382812 347.675781 L 905.929688 347.933594 L 905.023438 348.445312 C 904.714844 348.613281 904.40625 348.765625 904.097656 348.925781 C 903.480469 349.25 902.847656 349.539062 902.21875 349.832031 C 900.953125 350.421875 899.652344 350.921875 898.339844 351.402344 C 897.683594 351.644531 897.015625 351.839844 896.347656 352.058594 C 896.015625 352.171875 895.679688 352.253906 895.34375 352.351562 L 894.332031 352.628906 C 892.976562 352.984375 891.609375 353.285156 890.230469 353.523438 C 889.886719 353.585938 889.542969 353.660156 889.195312 353.707031 L 888.15625 353.855469 L 887.113281 353.996094 C 886.765625 354.042969 886.417969 354.066406 886.070312 354.101562 L 885.023438 354.199219 C 884.675781 354.230469 884.324219 354.265625 883.976562 354.277344 C 883.277344 354.316406 882.578125 354.351562 881.875 354.378906 C 881.175781 354.394531 880.476562 354.386719 879.777344 354.390625 C 879.074219 354.402344 878.378906 354.371094 877.679688 354.34375 L 876.628906 354.296875 L 876.105469 354.273438 L 875.582031 354.226562 L 873.496094 354.042969 C 873.144531 354.019531 872.800781 353.96875 872.453125 353.925781 L 871.414062 353.789062 C 870.722656 353.699219 870.027344 353.613281 869.34375 353.480469 L 867.285156 353.113281 C 866.9375 353.054688 866.601562 352.976562 866.257812 352.902344 L 865.238281 352.679688 L 864.21875 352.453125 L 863.710938 352.335938 C 863.539062 352.296875 863.375 352.246094 863.207031 352.203125 L 861.191406 351.664062 C 860.855469 351.570312 860.515625 351.488281 860.183594 351.386719 L 859.1875 351.082031 C 858.523438 350.875 857.863281 350.667969 857.203125 350.457031 C 856.867188 350.355469 856.542969 350.234375 856.21875 350.117188 L 855.238281 349.765625 L 853.28125 349.0625 L 855.042969 345.441406 L 856.128906 346.113281 L 857.246094 346.78125 C 857.992188 347.222656 858.746094 347.660156 859.503906 348.089844 L 861.785156 349.363281 C 862.546875 349.785156 863.316406 350.195312 864.085938 350.601562 C 864.859375 351.003906 865.632812 351.410156 866.410156 351.804688 C 867.183594 352.203125 867.96875 352.585938 868.75 352.964844 L 869.929688 353.535156 L 871.113281 354.089844 C 871.507812 354.277344 871.90625 354.449219 872.304688 354.628906 C 872.699219 354.808594 873.097656 354.984375 873.5 355.15625 C 874.292969 355.511719 875.097656 355.84375 875.902344 356.179688 L 877.117188 356.664062 C 877.519531 356.828125 877.929688 356.984375 878.335938 357.132812 C 878.746094 357.285156 879.148438 357.449219 879.5625 357.585938 L 880.792969 358.019531 C 881.621094 358.292969 882.445312 358.578125 883.285156 358.816406 C 884.117188 359.078125 884.960938 359.292969 885.804688 359.519531 L 887.078125 359.820312 C 887.503906 359.929688 887.933594 359.992188 888.363281 360.085938 C 888.578125 360.128906 888.792969 360.175781 889.007812 360.214844 L 889.65625 360.316406 C 890.089844 360.378906 890.523438 360.464844 890.957031 360.507812 C 891.390625 360.550781 891.828125 360.621094 892.269531 360.648438 C 892.710938 360.671875 893.15625 360.707031 893.597656 360.738281 " fill-opacity="1" fill-rule="nonzero"/></g></g></g><g clip-path="url(#40ccb22b1c)"><g clip-path="url(#8771883082)"><g clip-path="url(#b2d167b9a1)"><g clip-path="url(#282e21980b)"><path fill="#007489" d="M 916.097656 339.652344 C 915.027344 339.917969 913.960938 340.183594 912.882812 340.417969 L 911.257812 340.75 L 910.445312 340.914062 L 909.625 341.054688 L 907.988281 341.328125 C 907.445312 341.421875 906.894531 341.484375 906.347656 341.5625 C 905.796875 341.632812 905.246094 341.714844 904.695312 341.773438 L 903.042969 341.945312 C 902.765625 341.972656 902.488281 342.007812 902.214844 342.027344 L 899.71875 342.203125 L 898.054688 342.277344 L 897.21875 342.308594 L 896.386719 342.320312 L 894.714844 342.335938 L 893.042969 342.3125 C 892.484375 342.308594 891.929688 342.277344 891.371094 342.253906 C 890.816406 342.226562 890.257812 342.214844 889.699219 342.171875 L 888.027344 342.054688 L 886.359375 341.890625 C 885.804688 341.84375 885.25 341.769531 884.691406 341.703125 L 883.859375 341.597656 L 883.027344 341.480469 C 881.917969 341.328125 880.816406 341.128906 879.714844 340.929688 L 878.0625 340.601562 L 876.417969 340.238281 L 874.777344 339.832031 C 874.238281 339.683594 873.691406 339.546875 873.148438 339.390625 C 872.066406 339.078125 870.988281 338.757812 869.914062 338.394531 C 868.84375 338.03125 867.78125 337.644531 866.722656 337.214844 C 866.195312 337.003906 865.667969 336.78125 865.140625 336.550781 C 864.878906 336.429688 864.617188 336.316406 864.351562 336.1875 L 863.953125 335.996094 L 863.746094 335.894531 L 863.523438 335.777344 L 852.34375 330.003906 L 864.859375 332.058594 L 867.464844 332.488281 L 870.078125 332.855469 L 872.695312 333.152344 C 873.570312 333.222656 874.441406 333.324219 875.316406 333.386719 C 877.066406 333.511719 878.8125 333.609375 880.5625 333.625 L 881.871094 333.644531 L 883.179688 333.628906 C 884.054688 333.632812 884.925781 333.585938 885.796875 333.554688 C 886.234375 333.542969 886.667969 333.5 887.101562 333.472656 C 887.535156 333.441406 887.96875 333.417969 888.402344 333.378906 C 889.269531 333.285156 890.140625 333.230469 891 333.113281 L 892.292969 332.949219 L 893.582031 332.75 C 894.011719 332.691406 894.4375 332.609375 894.863281 332.53125 C 895.289062 332.449219 895.71875 332.378906 896.144531 332.285156 C 897.84375 331.941406 899.527344 331.523438 901.195312 331.042969 C 902.851562 330.542969 904.496094 329.984375 906.109375 329.351562 C 907.722656 328.71875 909.296875 327.984375 910.84375 327.203125 C 912.390625 326.417969 913.894531 325.542969 915.363281 324.609375 C 916.828125 323.667969 918.242188 322.648438 919.613281 321.566406 C 920.988281 320.488281 922.304688 319.332031 923.574219 318.121094 C 924.84375 316.910156 926.050781 315.628906 927.207031 314.296875 C 927.785156 313.628906 928.347656 312.949219 928.890625 312.25 C 929.441406 311.558594 929.976562 310.851562 930.488281 310.128906 C 931.523438 308.691406 932.496094 307.199219 933.398438 305.660156 C 934.300781 304.121094 935.144531 302.539062 935.855469 300.886719 C 935.644531 301.765625 935.367188 302.625 935.070312 303.476562 C 934.769531 304.328125 934.445312 305.175781 934.089844 306.007812 C 933.382812 307.675781 932.570312 309.300781 931.679688 310.886719 C 930.789062 312.476562 929.800781 314.011719 928.742188 315.5 C 927.6875 316.996094 926.539062 318.421875 925.324219 319.800781 C 924.105469 321.175781 922.808594 322.480469 921.449219 323.726562 C 920.085938 324.964844 918.648438 326.128906 917.160156 327.226562 C 915.664062 328.316406 914.101562 329.316406 912.5 330.242188 C 910.894531 331.171875 909.238281 332.011719 907.542969 332.757812 C 905.84375 333.507812 904.113281 334.175781 902.347656 334.753906 C 900.582031 335.316406 898.796875 335.824219 896.988281 336.234375 C 896.539062 336.339844 896.085938 336.421875 895.632812 336.515625 C 895.175781 336.609375 894.722656 336.703125 894.265625 336.777344 L 892.898438 337.011719 L 891.527344 337.207031 C 890.613281 337.347656 889.691406 337.429688 888.773438 337.53125 C 888.3125 337.574219 887.851562 337.601562 887.394531 337.636719 C 886.933594 337.667969 886.472656 337.714844 886.011719 337.730469 C 885.09375 337.769531 884.171875 337.824219 883.25 337.828125 L 881.867188 337.847656 L 880.488281 337.828125 C 878.648438 337.800781 876.816406 337.6875 874.984375 337.546875 C 874.527344 337.519531 874.074219 337.460938 873.617188 337.417969 L 872.25 337.277344 L 869.523438 336.921875 L 866.816406 336.492188 L 864.121094 335.992188 L 865.457031 332.273438 L 865.761719 332.4375 L 866.097656 332.613281 C 866.324219 332.730469 866.5625 332.84375 866.796875 332.957031 C 867.269531 333.183594 867.75 333.402344 868.234375 333.613281 C 869.203125 334.039062 870.195312 334.429688 871.191406 334.804688 C 872.1875 335.1875 873.203125 335.535156 874.21875 335.871094 C 874.730469 336.039062 875.242188 336.191406 875.753906 336.355469 L 877.300781 336.804688 L 878.855469 337.230469 L 880.421875 337.625 C 881.46875 337.875 882.519531 338.113281 883.578125 338.324219 L 884.371094 338.488281 L 885.167969 338.636719 C 885.699219 338.734375 886.226562 338.839844 886.761719 338.921875 L 888.363281 339.175781 L 889.96875 339.402344 C 890.503906 339.488281 891.042969 339.539062 891.582031 339.605469 C 892.121094 339.667969 892.65625 339.734375 893.199219 339.78125 L 894.816406 339.933594 L 897.253906 340.109375 L 898.070312 340.148438 L 899.699219 340.230469 L 902.148438 340.289062 L 902.96875 340.289062 L 904.605469 340.292969 C 905.152344 340.292969 905.695312 340.269531 906.242188 340.261719 C 906.789062 340.246094 907.335938 340.246094 907.882812 340.21875 L 909.523438 340.140625 L 910.34375 340.105469 L 911.164062 340.046875 L 912.808594 339.9375 C 913.902344 339.859375 915 339.734375 916.097656 339.652344 " fill-opacity="1" fill-rule="nonzero"/></g></g></g></g><g clip-path="url(#f329f2710a)"><g clip-path="url(#bcd1ad5cd1)"><g clip-path="url(#38977e821e)"><g clip-path="url(#f95693583c)"><path fill="#007489" d="M 935.855469 300.886719 C 935.855469 300.886719 935.726562 301.027344 935.480469 301.296875 C 935.234375 301.566406 934.875 301.972656 934.390625 302.488281 C 934.140625 302.738281 933.863281 303.019531 933.554688 303.328125 C 933.25 303.640625 932.914062 303.980469 932.535156 304.328125 C 932.15625 304.675781 931.761719 305.066406 931.316406 305.457031 C 930.867188 305.84375 930.390625 306.253906 929.882812 306.6875 C 927.835938 308.386719 925.1875 310.285156 921.917969 312.117188 C 920.277344 313.023438 918.480469 313.894531 916.535156 314.71875 C 916.046875 314.917969 915.550781 315.117188 915.050781 315.320312 C 914.542969 315.507812 914.027344 315.695312 913.507812 315.886719 C 912.457031 316.246094 911.378906 316.601562 910.265625 316.921875 C 908.039062 317.574219 905.675781 318.105469 903.210938 318.535156 C 900.746094 318.96875 898.175781 319.257812 895.527344 319.445312 C 890.230469 319.808594 884.632812 319.648438 878.914062 319.085938 C 876.050781 318.816406 873.164062 318.425781 870.257812 317.96875 C 868.804688 317.738281 867.347656 317.496094 865.886719 317.234375 C 864.425781 316.976562 862.96875 316.6875 861.503906 316.398438 C 858.582031 315.8125 855.652344 315.210938 852.734375 314.570312 C 849.8125 313.941406 846.898438 313.316406 844.003906 312.773438 C 841.117188 312.226562 838.242188 311.746094 835.484375 311.5625 C 835.140625 311.535156 834.800781 311.523438 834.460938 311.511719 L 834.207031 311.5 C 834.210938 311.5 834.109375 311.496094 834.199219 311.5 L 834.128906 311.5 L 833.988281 311.496094 L 833.429688 311.496094 L 832.308594 311.484375 C 832.125 311.484375 831.929688 311.476562 831.753906 311.480469 L 831.238281 311.496094 L 830.203125 311.523438 L 829.6875 311.535156 L 829.164062 311.570312 L 828.113281 311.636719 L 827.585938 311.667969 L 827.066406 311.722656 C 825.675781 311.855469 824.296875 312.035156 822.945312 312.285156 C 822.609375 312.34375 822.269531 312.40625 821.933594 312.46875 C 821.59375 312.523438 821.265625 312.613281 820.933594 312.683594 C 820.597656 312.757812 820.265625 312.835938 819.933594 312.910156 C 819.609375 312.996094 819.28125 313.085938 818.957031 313.175781 C 816.347656 313.894531 813.855469 314.851562 811.542969 316.054688 C 809.226562 317.261719 807.078125 318.691406 805.148438 320.316406 C 803.214844 321.941406 801.484375 323.734375 799.96875 325.644531 C 798.449219 327.550781 797.125 329.546875 795.988281 331.582031 C 794.847656 333.609375 793.890625 335.667969 793.058594 337.691406 C 792.226562 339.714844 791.558594 341.714844 790.976562 343.636719 C 790.390625 345.5625 789.929688 347.425781 789.535156 349.1875 C 788.753906 352.710938 788.292969 355.851562 787.988281 358.449219 C 787.691406 361.046875 787.539062 363.105469 787.476562 364.511719 C 787.449219 365.214844 787.425781 365.753906 787.417969 366.121094 C 787.410156 366.484375 787.40625 366.671875 787.40625 366.671875 C 787.40625 366.671875 787.378906 366.488281 787.320312 366.125 C 787.269531 365.765625 787.191406 365.226562 787.121094 364.523438 C 786.976562 363.113281 786.785156 361.042969 786.742188 358.386719 C 786.691406 355.734375 786.765625 352.5 787.164062 348.796875 C 787.570312 345.101562 788.300781 340.925781 789.667969 336.480469 C 790.355469 334.261719 791.222656 331.984375 792.285156 329.683594 C 792.542969 329.109375 792.839844 328.539062 793.125 327.960938 C 793.4375 327.394531 793.734375 326.8125 794.066406 326.246094 C 794.398438 325.679688 794.730469 325.101562 795.097656 324.539062 C 795.277344 324.257812 795.453125 323.96875 795.640625 323.6875 C 795.832031 323.410156 796.023438 323.128906 796.21875 322.847656 L 796.507812 322.425781 L 796.816406 322.015625 C 797.023438 321.738281 797.230469 321.460938 797.4375 321.183594 C 797.65625 320.914062 797.875 320.644531 798.09375 320.371094 C 798.316406 320.101562 798.535156 319.828125 798.773438 319.566406 C 799.007812 319.304688 799.242188 319.039062 799.476562 318.773438 C 799.707031 318.503906 799.964844 318.253906 800.207031 317.996094 C 800.460938 317.742188 800.699219 317.472656 800.960938 317.226562 C 801.222656 316.976562 801.484375 316.726562 801.746094 316.476562 C 802.003906 316.222656 802.277344 315.988281 802.554688 315.746094 C 802.828125 315.507812 803.105469 315.265625 803.382812 315.023438 C 803.667969 314.796875 803.957031 314.570312 804.246094 314.339844 L 804.683594 314 C 804.828125 313.882812 804.980469 313.78125 805.132812 313.671875 C 805.433594 313.453125 805.734375 313.238281 806.039062 313.019531 C 806.339844 312.800781 806.660156 312.609375 806.972656 312.398438 C 807.289062 312.199219 807.597656 311.980469 807.921875 311.792969 C 808.246094 311.605469 808.574219 311.414062 808.898438 311.222656 C 811.511719 309.695312 814.367188 308.515625 817.320312 307.597656 C 817.691406 307.488281 818.0625 307.375 818.433594 307.261719 C 818.808594 307.164062 819.183594 307.066406 819.558594 306.96875 C 819.933594 306.878906 820.308594 306.765625 820.6875 306.6875 C 821.066406 306.609375 821.449219 306.527344 821.828125 306.445312 C 823.351562 306.132812 824.894531 305.90625 826.445312 305.726562 L 827.027344 305.65625 L 827.609375 305.609375 L 828.777344 305.511719 L 829.359375 305.464844 L 829.957031 305.441406 L 831.15625 305.386719 L 831.753906 305.363281 C 831.949219 305.355469 832.128906 305.359375 832.320312 305.355469 L 833.4375 305.347656 L 834.136719 305.347656 L 834.339844 305.351562 L 834.644531 305.359375 C 835.050781 305.371094 835.460938 305.386719 835.863281 305.414062 C 837.472656 305.507812 839.039062 305.6875 840.585938 305.90625 C 842.128906 306.128906 843.652344 306.386719 845.160156 306.671875 C 851.175781 307.84375 857 309.253906 862.734375 310.507812 C 864.167969 310.820312 865.59375 311.121094 867.011719 311.410156 C 868.429688 311.710938 869.839844 311.988281 871.242188 312.257812 C 874.050781 312.78125 876.824219 313.242188 879.558594 313.632812 C 885.027344 314.382812 890.332031 314.824219 895.355469 314.789062 C 900.378906 314.765625 905.117188 314.300781 909.414062 313.441406 C 911.5625 313.019531 913.601562 312.5 915.511719 311.910156 C 917.429688 311.320312 919.210938 310.648438 920.871094 309.96875 C 924.175781 308.570312 926.945312 307.054688 929.160156 305.679688 C 931.367188 304.292969 933.027344 303.074219 934.152344 302.226562 C 935.261719 301.351562 935.855469 300.886719 935.855469 300.886719 " fill-opacity="1" fill-rule="nonzero"/></g></g></g></g><g clip-path="url(#7493e3d32f)"><g transform="matrix(1, 0, 0, 1, 602, 254)"><g clip-path="url(#565bcb7837)"><path fill="#007489" d="M 118.136719 106.574219 C 118.136719 106.574219 117.996094 106.371094 117.730469 105.988281 C 117.664062 105.894531 117.589844 105.789062 117.503906 105.671875 C 117.414062 105.5625 117.3125 105.441406 117.203125 105.3125 C 117.09375 105.179688 116.972656 105.039062 116.847656 104.886719 C 116.722656 104.730469 116.570312 104.597656 116.414062 104.433594 C 116.257812 104.277344 116.09375 104.113281 115.921875 103.9375 C 115.742188 103.769531 115.542969 103.613281 115.339844 103.433594 C 115.132812 103.265625 114.925781 103.070312 114.6875 102.90625 C 114.449219 102.738281 114.203125 102.5625 113.949219 102.382812 C 113.816406 102.296875 113.691406 102.195312 113.550781 102.113281 C 113.414062 102.035156 113.269531 101.953125 113.125 101.867188 C 112.835938 101.707031 112.539062 101.527344 112.226562 101.359375 C 111.910156 101.207031 111.582031 101.058594 111.242188 100.902344 C 111.070312 100.828125 110.902344 100.746094 110.722656 100.675781 C 110.546875 100.609375 110.367188 100.542969 110.183594 100.476562 C 109.816406 100.347656 109.441406 100.210938 109.054688 100.085938 C 108.664062 99.984375 108.265625 99.878906 107.859375 99.773438 C 107.652344 99.722656 107.449219 99.664062 107.242188 99.621094 C 107.03125 99.585938 106.820312 99.550781 106.605469 99.515625 C 106.175781 99.445312 105.742188 99.371094 105.300781 99.300781 C 103.535156 99.125 101.644531 99.03125 99.730469 99.203125 C 99.25 99.242188 98.761719 99.273438 98.277344 99.320312 C 97.792969 99.394531 97.308594 99.46875 96.824219 99.542969 C 96.578125 99.578125 96.335938 99.617188 96.089844 99.65625 C 95.84375 99.695312 95.59375 99.722656 95.355469 99.78125 C 94.871094 99.890625 94.382812 100.003906 93.894531 100.113281 C 93.652344 100.167969 93.40625 100.226562 93.164062 100.28125 C 92.917969 100.335938 92.671875 100.394531 92.429688 100.46875 C 91.949219 100.605469 91.464844 100.746094 90.984375 100.894531 C 90.515625 101.035156 90.042969 101.175781 89.574219 101.316406 L 88.175781 101.757812 C 87.9375 101.839844 87.726562 101.894531 87.503906 101.957031 L 86.839844 102.148438 C 86.40625 102.277344 85.949219 102.394531 85.496094 102.511719 C 85.046875 102.628906 84.59375 102.742188 84.144531 102.84375 C 83.691406 102.945312 83.242188 103.066406 82.789062 103.148438 C 81.886719 103.335938 80.988281 103.492188 80.097656 103.644531 C 79.652344 103.710938 79.210938 103.773438 78.769531 103.835938 C 78.328125 103.890625 77.886719 103.941406 77.453125 103.992188 C 75.710938 104.175781 74.011719 104.269531 72.398438 104.269531 C 71.996094 104.277344 71.597656 104.261719 71.203125 104.261719 C 70.808594 104.253906 70.425781 104.226562 70.042969 104.21875 C 69.660156 104.203125 69.289062 104.171875 68.921875 104.152344 C 68.550781 104.121094 68.191406 104.089844 67.835938 104.058594 C 66.421875 103.925781 65.125 103.722656 63.980469 103.503906 C 62.832031 103.289062 61.835938 103.042969 61.019531 102.820312 C 59.382812 102.367188 58.460938 101.988281 58.460938 101.988281 C 58.460938 101.988281 58.507812 102.027344 58.597656 102.109375 C 58.6875 102.1875 58.824219 102.304688 59.007812 102.449219 C 59.375 102.734375 59.933594 103.140625 60.679688 103.59375 C 61.429688 104.050781 62.367188 104.558594 63.492188 105.058594 C 64.613281 105.554688 65.914062 106.042969 67.378906 106.457031 C 67.742188 106.558594 68.117188 106.65625 68.503906 106.75 C 68.886719 106.835938 69.28125 106.933594 69.683594 107.015625 C 70.484375 107.179688 71.324219 107.316406 72.191406 107.433594 C 73.925781 107.652344 75.773438 107.761719 77.683594 107.71875 C 78.160156 107.703125 78.640625 107.695312 79.125 107.664062 C 79.609375 107.628906 80.097656 107.589844 80.585938 107.550781 C 81.074219 107.496094 81.566406 107.441406 82.058594 107.386719 C 82.550781 107.324219 83.042969 107.238281 83.539062 107.160156 C 84.035156 107.089844 84.523438 106.980469 85.019531 106.890625 C 85.265625 106.839844 85.515625 106.796875 85.761719 106.742188 L 86.5 106.566406 C 86.992188 106.449219 87.484375 106.339844 87.980469 106.191406 L 88.726562 105.980469 C 88.972656 105.910156 89.234375 105.84375 89.457031 105.765625 C 90.382812 105.46875 91.308594 105.171875 92.230469 104.875 C 92.675781 104.734375 93.121094 104.589844 93.5625 104.441406 C 93.785156 104.363281 94.007812 104.304688 94.230469 104.246094 C 94.453125 104.183594 94.675781 104.125 94.898438 104.066406 C 95.339844 103.945312 95.785156 103.824219 96.222656 103.703125 C 96.441406 103.636719 96.664062 103.597656 96.886719 103.546875 C 97.105469 103.496094 97.324219 103.449219 97.542969 103.402344 C 97.984375 103.304688 98.417969 103.210938 98.851562 103.113281 C 99.285156 103.046875 99.71875 102.972656 100.144531 102.902344 C 100.359375 102.867188 100.574219 102.832031 100.785156 102.796875 C 100.890625 102.777344 101 102.757812 101.105469 102.742188 L 101.421875 102.714844 C 101.84375 102.675781 102.261719 102.628906 102.675781 102.582031 C 102.882812 102.5625 103.089844 102.523438 103.292969 102.523438 C 103.5 102.515625 103.703125 102.507812 103.902344 102.5 C 104.308594 102.488281 104.710938 102.46875 105.105469 102.449219 C 105.5 102.460938 105.890625 102.46875 106.269531 102.480469 C 106.464844 102.484375 106.65625 102.488281 106.84375 102.492188 C 107.03125 102.511719 107.21875 102.527344 107.402344 102.542969 C 107.773438 102.578125 108.136719 102.613281 108.496094 102.644531 C 108.847656 102.703125 109.195312 102.761719 109.535156 102.816406 C 109.707031 102.84375 109.875 102.871094 110.042969 102.898438 C 110.210938 102.929688 110.371094 102.976562 110.53125 103.015625 C 110.851562 103.09375 111.167969 103.171875 111.480469 103.242188 C 111.785156 103.332031 112.074219 103.433594 112.363281 103.523438 C 112.507812 103.570312 112.652344 103.617188 112.789062 103.660156 C 112.929688 103.703125 113.0625 103.765625 113.195312 103.816406 C 113.460938 103.921875 113.71875 104.023438 113.96875 104.125 C 114.097656 104.171875 114.210938 104.230469 114.328125 104.289062 C 114.445312 104.34375 114.5625 104.398438 114.671875 104.453125 C 114.898438 104.5625 115.121094 104.660156 115.320312 104.773438 C 115.523438 104.886719 115.714844 104.992188 115.898438 105.097656 C 116.273438 105.296875 116.578125 105.507812 116.855469 105.683594 C 116.996094 105.773438 117.125 105.855469 117.242188 105.929688 C 117.359375 106.015625 117.464844 106.089844 117.554688 106.160156 C 117.933594 106.429688 118.136719 106.574219 118.136719 106.574219 " fill-opacity="1" fill-rule="nonzero"/><path fill="#007489" d="M 58.414062 101.957031 C 59.03125 101.996094 59.648438 102.019531 60.265625 102.042969 C 60.882812 102.0625 61.496094 102.109375 62.113281 102.085938 C 62.734375 102.078125 63.355469 102.058594 63.980469 102.042969 C 64.292969 102.035156 64.605469 102.03125 64.914062 102.011719 L 65.84375 101.941406 C 66.464844 101.894531 67.085938 101.839844 67.707031 101.789062 C 68.324219 101.714844 68.941406 101.636719 69.5625 101.550781 L 70.492188 101.425781 L 71.414062 101.265625 C 72.027344 101.15625 72.644531 101.046875 73.257812 100.921875 L 75.09375 100.507812 C 75.398438 100.441406 75.703125 100.359375 76.003906 100.277344 L 76.914062 100.03125 C 77.21875 99.945312 77.523438 99.867188 77.824219 99.777344 L 78.726562 99.492188 L 79.625 99.203125 L 80.519531 98.890625 L 81.414062 98.570312 C 81.707031 98.457031 82 98.335938 82.296875 98.21875 C 82.589844 98.097656 82.886719 97.984375 83.175781 97.859375 L 84.050781 97.472656 C 84.34375 97.351562 84.632812 97.207031 84.921875 97.074219 C 85.210938 96.933594 85.5 96.800781 85.789062 96.648438 C 86.074219 96.496094 86.359375 96.351562 86.648438 96.1875 C 86.792969 96.109375 86.933594 96.035156 87.082031 95.945312 C 87.234375 95.855469 87.363281 95.785156 87.546875 95.667969 L 97.117188 89.589844 L 85.9375 92.136719 C 84.90625 92.375 83.871094 92.605469 82.84375 92.855469 L 79.738281 93.480469 C 78.699219 93.65625 77.664062 93.855469 76.625 94.015625 L 75.0625 94.230469 L 74.28125 94.34375 C 74.019531 94.378906 73.757812 94.402344 73.496094 94.433594 L 71.933594 94.605469 L 71.539062 94.648438 L 70.367188 94.730469 C 69.84375 94.769531 69.320312 94.824219 68.796875 94.847656 L 67.230469 94.914062 C 66.96875 94.921875 66.707031 94.941406 66.445312 94.941406 C 66.183594 94.941406 65.921875 94.945312 65.660156 94.949219 C 65.136719 94.949219 64.613281 94.96875 64.089844 94.960938 C 63.046875 94.929688 62 94.914062 60.957031 94.84375 C 59.914062 94.804688 58.878906 94.675781 57.835938 94.582031 L 56.277344 94.386719 C 55.761719 94.320312 55.25 94.21875 54.730469 94.136719 C 54.210938 94.066406 53.703125 93.953125 53.1875 93.851562 C 52.929688 93.800781 52.671875 93.753906 52.417969 93.699219 L 51.652344 93.515625 L 50.886719 93.339844 L 49.363281 92.933594 L 48.613281 92.703125 L 47.855469 92.476562 L 47.109375 92.222656 C 46.605469 92.058594 46.113281 91.867188 45.617188 91.6875 C 44.628906 91.3125 43.65625 90.894531 42.691406 90.445312 C 41.726562 90 40.785156 89.496094 39.855469 88.960938 C 39.621094 88.828125 39.394531 88.683594 39.164062 88.546875 C 38.933594 88.410156 38.707031 88.261719 38.480469 88.117188 C 38.03125 87.816406 37.585938 87.507812 37.160156 87.171875 C 37.476562 87.617188 37.839844 88.027344 38.214844 88.433594 C 38.589844 88.832031 38.976562 89.226562 39.386719 89.597656 C 39.789062 89.972656 40.207031 90.328125 40.636719 90.679688 L 41.289062 91.195312 C 41.507812 91.363281 41.734375 91.519531 41.957031 91.6875 C 42.179688 91.851562 42.410156 92.007812 42.640625 92.160156 C 42.871094 92.316406 43.097656 92.476562 43.332031 92.625 L 44.039062 93.0625 L 44.394531 93.28125 L 44.757812 93.488281 L 45.484375 93.898438 C 45.726562 94.039062 45.976562 94.15625 46.226562 94.285156 L 46.96875 94.664062 L 47.726562 95.019531 L 48.492188 95.363281 L 49.265625 95.679688 L 50.042969 95.996094 L 50.828125 96.28125 L 51.621094 96.5625 C 51.882812 96.652344 52.152344 96.730469 52.417969 96.816406 C 52.953125 96.980469 53.484375 97.15625 54.027344 97.292969 C 54.570312 97.429688 55.109375 97.582031 55.65625 97.703125 L 57.296875 98.058594 C 57.84375 98.167969 58.398438 98.246094 58.949219 98.34375 C 59.5 98.441406 60.054688 98.503906 60.609375 98.574219 C 61.71875 98.738281 62.835938 98.796875 63.949219 98.886719 C 64.507812 98.921875 65.066406 98.933594 65.625 98.957031 C 66.183594 98.980469 66.742188 98.992188 67.296875 98.976562 L 68.972656 98.957031 C 69.53125 98.945312 70.085938 98.90625 70.640625 98.878906 L 71.476562 98.832031 L 71.894531 98.804688 L 72.308594 98.765625 L 73.96875 98.597656 C 75.078125 98.503906 76.171875 98.308594 77.273438 98.15625 C 77.546875 98.121094 77.820312 98.070312 78.09375 98.015625 L 78.910156 97.867188 L 80.546875 97.5625 L 83.78125 96.8125 C 84.847656 96.527344 85.910156 96.226562 86.972656 95.929688 L 85.363281 92.398438 C 85.289062 92.453125 85.15625 92.539062 85.046875 92.609375 C 84.9375 92.683594 84.808594 92.757812 84.691406 92.832031 C 84.453125 92.984375 84.199219 93.128906 83.949219 93.277344 C 83.699219 93.421875 83.445312 93.5625 83.1875 93.707031 C 82.933594 93.851562 82.679688 93.996094 82.417969 94.128906 L 81.632812 94.539062 C 81.371094 94.675781 81.101562 94.800781 80.835938 94.929688 L 80.039062 95.320312 L 79.226562 95.691406 L 78.414062 96.058594 L 76.765625 96.753906 C 76.492188 96.871094 76.210938 96.972656 75.929688 97.082031 L 75.09375 97.410156 C 74.816406 97.519531 74.535156 97.628906 74.253906 97.722656 L 72.554688 98.328125 C 71.984375 98.523438 71.40625 98.691406 70.835938 98.882812 L 69.972656 99.164062 L 69.101562 99.414062 L 67.359375 99.921875 C 66.769531 100.066406 66.183594 100.214844 65.59375 100.371094 L 64.707031 100.601562 C 64.414062 100.671875 64.117188 100.730469 63.820312 100.800781 C 63.230469 100.9375 62.632812 101.066406 62.039062 101.210938 L 61.589844 101.3125 L 61.132812 101.398438 L 60.226562 101.582031 C 59.621094 101.703125 59.015625 101.824219 58.414062 101.957031 " fill-opacity="1" fill-rule="nonzero"/><path fill="#007489" d="M 37.160156 87.171875 C 37.855469 87.308594 38.554688 87.421875 39.253906 87.542969 C 39.601562 87.605469 39.949219 87.667969 40.300781 87.722656 L 40.824219 87.804688 L 41.355469 87.871094 L 43.480469 88.117188 C 43.832031 88.148438 44.191406 88.199219 44.542969 88.21875 L 45.609375 88.296875 L 47.746094 88.425781 C 48.460938 88.449219 49.171875 88.457031 49.886719 88.476562 C 50.246094 88.480469 50.601562 88.492188 50.960938 88.492188 L 52.03125 88.472656 C 52.746094 88.457031 53.464844 88.453125 54.179688 88.417969 L 56.324219 88.292969 C 56.683594 88.277344 57.039062 88.238281 57.398438 88.207031 L 58.46875 88.109375 C 59.183594 88.046875 59.894531 87.949219 60.609375 87.859375 L 61.679688 87.722656 L 62.746094 87.554688 L 63.8125 87.378906 L 64.875 87.175781 C 65.585938 87.046875 66.292969 86.894531 67 86.734375 C 67.355469 86.660156 67.707031 86.566406 68.058594 86.480469 C 68.414062 86.390625 68.765625 86.304688 69.117188 86.207031 C 69.472656 86.109375 69.824219 86.015625 70.179688 85.910156 C 70.359375 85.855469 70.53125 85.808594 70.714844 85.75 C 70.902344 85.691406 71.066406 85.636719 71.28125 85.5625 L 85.523438 80.523438 L 70.367188 81.660156 L 67.140625 81.902344 L 63.921875 82.070312 C 62.847656 82.109375 61.773438 82.117188 60.703125 82.148438 C 59.628906 82.15625 58.558594 82.152344 57.488281 82.144531 L 55.882812 82.089844 C 55.351562 82.074219 54.8125 82.070312 54.28125 82.03125 C 53.21875 81.960938 52.148438 81.917969 51.089844 81.800781 C 50.558594 81.753906 50.023438 81.714844 49.496094 81.660156 L 47.910156 81.464844 C 47.644531 81.429688 47.378906 81.402344 47.117188 81.363281 L 46.328125 81.242188 C 45.800781 81.160156 45.273438 81.089844 44.75 80.996094 C 43.707031 80.792969 42.65625 80.609375 41.621094 80.367188 L 40.84375 80.195312 L 40.070312 79.992188 L 39.300781 79.792969 L 38.914062 79.695312 L 38.53125 79.582031 C 38.023438 79.433594 37.507812 79.289062 37 79.128906 C 36.5 78.960938 35.996094 78.789062 35.488281 78.628906 L 33.988281 78.074219 L 32.507812 77.46875 L 31.050781 76.808594 C 30.578125 76.566406 30.085938 76.347656 29.617188 76.09375 C 29.144531 75.839844 28.667969 75.589844 28.210938 75.316406 C 27.980469 75.179688 27.742188 75.050781 27.515625 74.910156 L 26.832031 74.480469 C 25.925781 73.898438 25.042969 73.273438 24.195312 72.597656 C 23.351562 71.917969 22.527344 71.195312 21.800781 70.367188 C 22.039062 70.867188 22.339844 71.335938 22.65625 71.796875 C 22.96875 72.257812 23.304688 72.703125 23.664062 73.136719 C 24.375 74 25.15625 74.808594 25.980469 75.578125 C 26.808594 76.339844 27.683594 77.054688 28.59375 77.722656 C 28.816406 77.898438 29.050781 78.054688 29.28125 78.214844 L 29.980469 78.695312 C 30.457031 79 30.9375 79.300781 31.417969 79.597656 C 31.90625 79.878906 32.398438 80.164062 32.894531 80.433594 L 34.410156 81.207031 C 34.921875 81.445312 35.4375 81.679688 35.953125 81.910156 C 36.472656 82.136719 37 82.339844 37.523438 82.554688 C 38.046875 82.78125 38.585938 82.949219 39.117188 83.144531 L 39.921875 83.421875 L 40.730469 83.675781 L 41.542969 83.925781 C 41.8125 84.011719 42.082031 84.09375 42.355469 84.160156 L 44 84.582031 C 44.546875 84.71875 45.101562 84.828125 45.652344 84.953125 L 46.480469 85.132812 C 46.757812 85.1875 47.035156 85.230469 47.3125 85.28125 L 48.984375 85.566406 C 49.539062 85.648438 50.097656 85.714844 50.65625 85.792969 C 51.773438 85.953125 52.898438 86.027344 54.015625 86.132812 C 55.140625 86.230469 56.261719 86.265625 57.382812 86.320312 C 58.507812 86.339844 59.628906 86.351562 60.75 86.355469 C 61.867188 86.324219 62.988281 86.296875 64.109375 86.246094 C 65.222656 86.171875 66.339844 86.117188 67.453125 86.019531 L 70.785156 85.679688 L 69.867188 81.777344 L 69.433594 81.9375 C 69.285156 81.992188 69.121094 82.046875 68.964844 82.101562 C 68.652344 82.210938 68.328125 82.3125 68.003906 82.417969 C 67.683594 82.523438 67.359375 82.621094 67.03125 82.71875 C 66.703125 82.8125 66.378906 82.917969 66.046875 83.003906 C 65.386719 83.179688 64.730469 83.375 64.058594 83.539062 L 63.0625 83.792969 L 61.046875 84.261719 L 60.035156 84.476562 C 59.359375 84.621094 58.683594 84.769531 58 84.882812 C 57.320312 85.003906 56.640625 85.152344 55.957031 85.261719 L 53.902344 85.597656 C 53.214844 85.710938 52.527344 85.792969 51.835938 85.894531 L 50.800781 86.039062 C 50.457031 86.085938 50.109375 86.121094 49.765625 86.164062 C 49.070312 86.242188 48.378906 86.316406 47.683594 86.40625 L 45.59375 86.597656 L 44.546875 86.703125 C 44.199219 86.738281 43.851562 86.75 43.5 86.777344 L 41.402344 86.925781 L 40.875 86.96875 L 40.34375 86.992188 C 39.988281 87.007812 39.636719 87.027344 39.28125 87.046875 C 38.574219 87.085938 37.867188 87.121094 37.160156 87.171875 " fill-opacity="1" fill-rule="nonzero"/><path fill="#007489" d="M 21.800781 70.367188 C 22.195312 70.5625 22.59375 70.761719 22.992188 70.953125 C 23.394531 71.140625 23.8125 71.296875 24.226562 71.472656 C 24.640625 71.65625 25.0625 71.796875 25.488281 71.941406 L 26.121094 72.160156 C 26.335938 72.230469 26.550781 72.289062 26.765625 72.355469 L 27.410156 72.542969 C 27.625 72.609375 27.84375 72.667969 28.0625 72.71875 L 29.367188 73.042969 C 30.246094 73.21875 31.128906 73.410156 32.015625 73.546875 C 32.902344 73.703125 33.792969 73.808594 34.683594 73.921875 C 35.574219 74.019531 36.46875 74.109375 37.363281 74.167969 C 38.261719 74.242188 39.15625 74.277344 40.054688 74.316406 C 40.949219 74.339844 41.847656 74.363281 42.742188 74.363281 C 43.191406 74.371094 43.640625 74.363281 44.089844 74.355469 C 44.535156 74.347656 44.984375 74.347656 45.433594 74.328125 L 46.777344 74.285156 L 48.117188 74.21875 C 49.011719 74.164062 49.90625 74.109375 50.796875 74.035156 C 51.691406 73.96875 52.582031 73.886719 53.472656 73.789062 C 54.363281 73.695312 55.253906 73.589844 56.140625 73.480469 C 57.03125 73.367188 57.917969 73.25 58.804688 73.109375 C 59.6875 72.976562 60.574219 72.828125 61.457031 72.675781 L 62.785156 72.4375 C 63.234375 72.351562 63.664062 72.265625 64.132812 72.164062 L 82.203125 68.234375 L 63.621094 68.171875 L 61.625 68.167969 L 60.628906 68.164062 C 60.292969 68.160156 59.960938 68.164062 59.628906 68.144531 C 58.964844 68.117188 58.304688 68.09375 57.640625 68.070312 L 56.644531 68.039062 C 56.3125 68.023438 55.980469 67.996094 55.652344 67.972656 L 53.667969 67.832031 C 53.5 67.820312 53.335938 67.8125 53.171875 67.792969 L 52.675781 67.738281 L 51.6875 67.636719 L 50.703125 67.535156 C 50.371094 67.5 50.042969 67.46875 49.714844 67.417969 L 47.753906 67.136719 C 47.09375 67.054688 46.449219 66.921875 45.796875 66.808594 L 44.824219 66.632812 C 44.5 66.574219 44.171875 66.527344 43.851562 66.449219 L 41.917969 66.023438 L 41.433594 65.917969 L 40.957031 65.792969 L 40 65.546875 C 39.359375 65.382812 38.71875 65.226562 38.09375 65.027344 C 37.460938 64.835938 36.828125 64.65625 36.199219 64.453125 C 35.578125 64.238281 34.957031 64.027344 34.332031 63.816406 C 34.015625 63.714844 33.710938 63.597656 33.402344 63.476562 L 32.480469 63.125 C 32.175781 63 31.863281 62.894531 31.5625 62.761719 L 30.65625 62.371094 L 29.746094 61.984375 C 29.441406 61.855469 29.148438 61.707031 28.847656 61.566406 C 27.648438 61.019531 26.484375 60.402344 25.320312 59.777344 L 24.460938 59.289062 C 24.171875 59.125 23.878906 58.96875 23.601562 58.789062 L 22.761719 58.265625 C 22.480469 58.09375 22.191406 57.925781 21.917969 57.738281 L 21.09375 57.191406 C 20.816406 57.007812 20.539062 56.828125 20.273438 56.628906 L 19.464844 56.046875 L 19.058594 55.757812 L 18.664062 55.457031 C 18.136719 55.054688 17.605469 54.652344 17.097656 54.222656 L 16.328125 53.589844 L 15.574219 52.933594 L 15.195312 52.601562 L 14.09375 51.582031 L 13.375 50.878906 L 13.019531 50.527344 L 12.671875 50.164062 C 11.730469 49.203125 10.839844 48.195312 9.984375 47.152344 C 9.558594 46.628906 9.136719 46.097656 8.734375 45.554688 C 8.335938 45.007812 7.941406 44.453125 7.566406 43.878906 C 7.808594 44.519531 8.097656 45.140625 8.398438 45.757812 C 8.703125 46.371094 9.015625 46.984375 9.363281 47.578125 C 10.042969 48.777344 10.796875 49.933594 11.613281 51.050781 L 11.914062 51.472656 L 12.234375 51.882812 L 12.867188 52.703125 L 13.535156 53.5 L 13.871094 53.902344 L 14.914062 55.0625 C 15.148438 55.320312 15.394531 55.566406 15.636719 55.816406 C 16.113281 56.320312 16.621094 56.796875 17.125 57.277344 C 18.132812 58.238281 19.207031 59.132812 20.296875 60.003906 C 20.839844 60.445312 21.410156 60.84375 21.972656 61.261719 C 22.25 61.476562 22.542969 61.664062 22.832031 61.863281 L 23.699219 62.453125 C 24.867188 63.21875 26.066406 63.945312 27.296875 64.613281 C 27.605469 64.78125 27.90625 64.960938 28.21875 65.117188 L 29.15625 65.589844 L 30.101562 66.058594 C 30.414062 66.214844 30.738281 66.347656 31.054688 66.492188 L 32.015625 66.917969 C 32.335938 67.0625 32.65625 67.207031 32.980469 67.332031 C 33.632812 67.589844 34.285156 67.847656 34.9375 68.097656 C 35.597656 68.335938 36.261719 68.554688 36.921875 68.78125 C 37.582031 69.019531 38.257812 69.210938 38.925781 69.40625 L 39.933594 69.699219 L 40.441406 69.84375 L 40.949219 69.96875 L 42.988281 70.464844 C 43.328125 70.550781 43.667969 70.613281 44.011719 70.683594 L 45.039062 70.890625 C 45.722656 71.027344 46.410156 71.164062 47.097656 71.257812 L 49.167969 71.570312 C 49.511719 71.628906 49.859375 71.660156 50.207031 71.699219 L 51.246094 71.816406 L 52.28125 71.925781 L 52.800781 71.980469 C 52.976562 71.996094 53.148438 72.003906 53.324219 72.015625 L 55.40625 72.148438 C 55.753906 72.167969 56.101562 72.195312 56.445312 72.210938 L 57.488281 72.238281 C 58.183594 72.257812 58.875 72.269531 59.570312 72.28125 C 59.917969 72.292969 60.265625 72.285156 60.609375 72.277344 L 61.652344 72.257812 L 63.730469 72.21875 L 63.21875 68.222656 L 61.976562 68.511719 L 60.707031 68.789062 C 59.855469 68.96875 59.003906 69.140625 58.148438 69.304688 L 55.578125 69.78125 C 54.722656 69.933594 53.863281 70.078125 53 70.214844 C 52.140625 70.347656 51.277344 70.488281 50.417969 70.609375 C 49.554688 70.742188 48.691406 70.851562 47.824219 70.960938 L 46.527344 71.121094 L 45.230469 71.269531 C 44.796875 71.320312 44.359375 71.355469 43.925781 71.398438 C 43.492188 71.445312 43.058594 71.480469 42.625 71.515625 C 41.757812 71.597656 40.890625 71.65625 40.019531 71.714844 L 38.714844 71.785156 C 38.28125 71.8125 37.84375 71.828125 37.410156 71.839844 C 36.976562 71.851562 36.539062 71.878906 36.105469 71.878906 L 34.796875 71.894531 C 33.925781 71.886719 33.054688 71.890625 32.183594 71.847656 C 31.3125 71.832031 30.445312 71.765625 29.570312 71.710938 L 28.269531 71.585938 C 27.832031 71.550781 27.402344 71.476562 26.96875 71.425781 C 26.75 71.398438 26.53125 71.375 26.316406 71.339844 L 25.667969 71.230469 C 25.238281 71.152344 24.800781 71.09375 24.375 70.992188 C 23.949219 70.898438 23.515625 70.824219 23.085938 70.707031 C 22.65625 70.589844 22.226562 70.480469 21.800781 70.367188 " fill-opacity="1" fill-rule="nonzero"/><g clip-path="url(#461f42dabe)"><path fill="#007489" d="M 7.234375 43.1875 C 8.164062 43.78125 9.089844 44.375 10.035156 44.941406 L 11.46875 45.777344 L 12.1875 46.195312 L 12.917969 46.589844 L 14.378906 47.371094 C 14.867188 47.636719 15.367188 47.871094 15.863281 48.121094 C 16.359375 48.363281 16.855469 48.617188 17.355469 48.847656 L 18.871094 49.539062 C 19.121094 49.65625 19.375 49.773438 19.628906 49.882812 L 20.398438 50.203125 L 21.933594 50.847656 L 23.488281 51.449219 L 24.269531 51.75 L 25.054688 52.027344 L 26.632812 52.578125 L 28.222656 53.089844 C 28.753906 53.265625 29.289062 53.414062 29.828125 53.570312 C 30.363281 53.722656 30.894531 53.890625 31.4375 54.027344 L 33.058594 54.449219 L 34.691406 54.832031 C 35.234375 54.964844 35.78125 55.070312 36.332031 55.183594 L 37.152344 55.355469 L 37.976562 55.507812 C 39.078125 55.71875 40.1875 55.886719 41.296875 56.046875 L 42.964844 56.265625 L 44.640625 56.449219 L 46.320312 56.589844 C 46.882812 56.625 47.441406 56.667969 48.003906 56.691406 C 49.128906 56.746094 50.257812 56.785156 51.386719 56.785156 C 52.519531 56.785156 53.652344 56.757812 54.789062 56.691406 C 55.359375 56.660156 55.929688 56.617188 56.5 56.566406 C 56.789062 56.535156 57.074219 56.511719 57.367188 56.476562 L 57.808594 56.421875 L 58.03125 56.390625 L 58.28125 56.351562 L 70.722656 54.464844 L 58.207031 52.402344 L 55.601562 51.972656 L 53.007812 51.484375 L 50.433594 50.929688 C 49.582031 50.714844 48.722656 50.53125 47.875 50.308594 C 46.179688 49.871094 44.492188 49.402344 42.832031 48.855469 L 41.582031 48.453125 L 40.347656 48.023438 C 39.519531 47.746094 38.710938 47.421875 37.894531 47.113281 C 37.484375 46.960938 37.085938 46.785156 36.683594 46.621094 C 36.28125 46.449219 35.878906 46.289062 35.480469 46.113281 C 34.691406 45.746094 33.882812 45.417969 33.105469 45.027344 L 31.933594 44.460938 L 30.777344 43.859375 C 30.386719 43.664062 30.011719 43.453125 29.632812 43.238281 C 29.253906 43.023438 28.871094 42.820312 28.5 42.597656 C 27 41.726562 25.535156 40.792969 24.113281 39.804688 C 22.699219 38.800781 21.324219 37.742188 20 36.628906 C 18.671875 35.511719 17.417969 34.3125 16.199219 33.074219 C 14.984375 31.835938 13.839844 30.527344 12.75 29.171875 C 11.660156 27.8125 10.648438 26.394531 9.695312 24.929688 C 8.738281 23.46875 7.863281 21.949219 7.050781 20.394531 C 6.234375 18.839844 5.5 17.238281 4.832031 15.609375 C 4.5 14.792969 4.183594 13.964844 3.890625 13.132812 C 3.589844 12.300781 3.3125 11.460938 3.054688 10.609375 C 2.535156 8.914062 2.09375 7.191406 1.730469 5.445312 C 1.371094 3.699219 1.078125 1.929688 0.933594 0.136719 C 0.851562 1.035156 0.839844 1.9375 0.847656 2.839844 C 0.859375 3.746094 0.894531 4.648438 0.96875 5.550781 C 1.101562 7.359375 1.351562 9.160156 1.6875 10.945312 C 2.023438 12.738281 2.464844 14.507812 2.992188 16.257812 C 3.511719 18.011719 4.144531 19.734375 4.855469 21.425781 C 5.566406 23.117188 6.378906 24.769531 7.269531 26.386719 C 8.164062 27.996094 9.148438 29.558594 10.210938 31.074219 C 11.277344 32.585938 12.4375 34.03125 13.660156 35.425781 C 14.882812 36.816406 16.179688 38.144531 17.550781 39.398438 C 18.917969 40.648438 20.34375 41.839844 21.828125 42.949219 C 23.320312 44.050781 24.851562 45.101562 26.433594 46.066406 C 26.828125 46.3125 27.230469 46.535156 27.628906 46.769531 C 28.027344 47.003906 28.429688 47.238281 28.835938 47.453125 L 30.058594 48.113281 L 31.296875 48.738281 C 32.117188 49.164062 32.964844 49.539062 33.800781 49.925781 C 34.222656 50.117188 34.648438 50.289062 35.074219 50.472656 C 35.5 50.648438 35.921875 50.835938 36.351562 51 C 37.210938 51.332031 38.066406 51.679688 38.9375 51.976562 L 40.238281 52.441406 L 41.554688 52.863281 C 43.304688 53.425781 45.078125 53.90625 46.859375 54.359375 C 47.300781 54.476562 47.75 54.570312 48.195312 54.675781 L 49.535156 54.980469 L 52.230469 55.515625 L 54.933594 55.976562 L 57.648438 56.367188 L 57.570312 52.414062 L 57.234375 52.472656 L 56.855469 52.53125 C 56.605469 52.570312 56.34375 52.601562 56.085938 52.632812 C 55.566406 52.695312 55.039062 52.75 54.511719 52.792969 C 53.460938 52.886719 52.394531 52.9375 51.328125 52.976562 C 50.261719 53.019531 49.191406 53.023438 48.117188 53.015625 C 47.582031 53.011719 47.046875 52.992188 46.511719 52.980469 L 44.902344 52.914062 L 43.292969 52.820312 L 41.683594 52.691406 C 40.609375 52.59375 39.539062 52.480469 38.46875 52.34375 L 37.664062 52.246094 L 36.863281 52.128906 C 36.328125 52.054688 35.792969 51.984375 35.261719 51.886719 L 33.664062 51.621094 L 32.066406 51.320312 C 31.535156 51.226562 31.007812 51.101562 30.476562 50.992188 C 29.945312 50.878906 29.414062 50.773438 28.890625 50.640625 L 27.304688 50.269531 L 25.730469 49.859375 L 24.9375 49.65625 L 24.15625 49.429688 L 22.585938 48.984375 L 21.027344 48.5 L 20.246094 48.253906 L 19.46875 47.996094 L 17.917969 47.476562 C 17.402344 47.300781 16.890625 47.101562 16.378906 46.917969 C 15.863281 46.730469 15.34375 46.554688 14.835938 46.351562 L 13.308594 45.753906 L 12.539062 45.457031 L 11.785156 45.140625 L 10.261719 44.511719 C 9.25 44.085938 8.25 43.617188 7.234375 43.1875 " fill-opacity="1" fill-rule="nonzero"/></g><g clip-path="url(#30d2bac751)"><path fill="#007489" d="M 0.933594 0.136719 C 0.933594 0.136719 1.007812 0.308594 1.15625 0.644531 C 1.304688 0.980469 1.511719 1.480469 1.808594 2.121094 C 1.960938 2.4375 2.136719 2.792969 2.328125 3.1875 C 2.519531 3.578125 2.730469 4.007812 2.976562 4.457031 C 3.222656 4.910156 3.472656 5.40625 3.769531 5.921875 C 4.070312 6.429688 4.394531 6.96875 4.734375 7.542969 C 6.128906 9.808594 8.03125 12.453125 10.542969 15.238281 C 11.804688 16.621094 13.230469 18.023438 14.804688 19.425781 C 15.203125 19.773438 15.609375 20.121094 16.019531 20.472656 C 16.441406 20.8125 16.871094 21.15625 17.300781 21.5 C 18.179688 22.179688 19.085938 22.863281 20.039062 23.523438 C 21.941406 24.851562 24.007812 26.113281 26.207031 27.308594 C 28.402344 28.507812 30.746094 29.605469 33.195312 30.628906 C 38.097656 32.671875 43.449219 34.3125 49.046875 35.613281 C 51.84375 36.273438 54.707031 36.824219 57.605469 37.324219 C 59.054688 37.570312 60.515625 37.808594 61.980469 38.03125 C 63.449219 38.25 64.921875 38.445312 66.398438 38.640625 C 69.355469 39.019531 72.328125 39.390625 75.296875 39.71875 C 78.265625 40.054688 81.226562 40.398438 84.140625 40.8125 C 87.050781 41.214844 89.929688 41.683594 92.597656 42.390625 C 92.9375 42.476562 93.257812 42.574219 93.585938 42.671875 L 93.828125 42.742188 C 93.828125 42.742188 93.921875 42.769531 93.839844 42.742188 L 93.90625 42.765625 L 94.039062 42.808594 L 94.570312 42.988281 L 95.632812 43.335938 C 95.804688 43.394531 95.992188 43.449219 96.160156 43.507812 L 97.613281 44.046875 L 98.097656 44.222656 L 98.585938 44.421875 L 99.5625 44.824219 L 100.046875 45.023438 L 100.523438 45.238281 C 101.796875 45.8125 103.046875 46.421875 104.246094 47.089844 C 104.546875 47.257812 104.847656 47.421875 105.148438 47.589844 C 105.449219 47.75 105.734375 47.941406 106.027344 48.113281 C 106.316406 48.292969 106.609375 48.46875 106.898438 48.648438 C 107.179688 48.835938 107.460938 49.023438 107.742188 49.214844 C 109.980469 50.730469 112.035156 52.433594 113.84375 54.316406 C 115.648438 56.199219 117.226562 58.242188 118.535156 60.402344 C 119.84375 62.558594 120.910156 64.8125 121.734375 67.105469 C 122.566406 69.398438 123.179688 71.714844 123.601562 74.003906 C 124.035156 76.292969 124.285156 78.550781 124.421875 80.730469 C 124.5625 82.914062 124.558594 85.023438 124.492188 87.03125 C 124.429688 89.042969 124.269531 90.953125 124.078125 92.75 C 123.691406 96.339844 123.125 99.460938 122.582031 102.019531 C 122.027344 104.574219 121.515625 106.574219 121.121094 107.925781 C 120.921875 108.601562 120.773438 109.121094 120.664062 109.46875 C 120.550781 109.816406 120.496094 109.996094 120.496094 109.996094 C 120.496094 109.996094 120.582031 109.832031 120.75 109.503906 C 120.917969 109.179688 121.164062 108.695312 121.457031 108.050781 C 122.042969 106.761719 122.890625 104.859375 123.78125 102.363281 C 124.679688 99.863281 125.640625 96.777344 126.449219 93.140625 C 127.25 89.507812 127.894531 85.320312 128.023438 80.671875 C 128.082031 78.347656 127.992188 75.914062 127.722656 73.394531 C 127.660156 72.765625 127.5625 72.132812 127.476562 71.492188 C 127.363281 70.855469 127.265625 70.210938 127.132812 69.566406 C 127 68.921875 126.871094 68.269531 126.703125 67.621094 C 126.625 67.292969 126.550781 66.964844 126.460938 66.640625 C 126.367188 66.3125 126.277344 65.988281 126.183594 65.660156 L 126.042969 65.167969 L 125.882812 64.675781 C 125.777344 64.347656 125.667969 64.019531 125.5625 63.691406 C 125.441406 63.367188 125.320312 63.039062 125.199219 62.710938 C 125.074219 62.386719 124.957031 62.054688 124.816406 61.730469 C 124.679688 61.40625 124.539062 61.082031 124.402344 60.753906 C 124.269531 60.425781 124.105469 60.109375 123.957031 59.785156 C 123.800781 59.460938 123.660156 59.132812 123.492188 58.8125 C 123.324219 58.496094 123.15625 58.175781 122.988281 57.855469 C 122.824219 57.53125 122.640625 57.21875 122.457031 56.902344 C 122.273438 56.585938 122.089844 56.269531 121.902344 55.953125 C 121.703125 55.644531 121.503906 55.335938 121.300781 55.027344 L 121 54.5625 C 120.898438 54.410156 120.785156 54.261719 120.679688 54.109375 C 120.460938 53.808594 120.246094 53.503906 120.027344 53.203125 C 119.8125 52.898438 119.570312 52.613281 119.339844 52.316406 C 119.105469 52.023438 118.882812 51.722656 118.636719 51.4375 C 118.386719 51.152344 118.140625 50.867188 117.894531 50.582031 C 115.90625 48.300781 113.578125 46.265625 111.074219 44.453125 C 110.761719 44.230469 110.445312 44.003906 110.128906 43.777344 C 109.808594 43.566406 109.484375 43.355469 109.160156 43.140625 C 108.832031 42.933594 108.511719 42.707031 108.175781 42.515625 C 107.84375 42.316406 107.507812 42.117188 107.175781 41.917969 C 105.832031 41.132812 104.441406 40.421875 103.03125 39.757812 L 102.503906 39.507812 L 101.964844 39.273438 L 100.890625 38.808594 L 100.351562 38.578125 L 99.796875 38.363281 L 98.679688 37.929688 L 98.117188 37.714844 C 97.933594 37.644531 97.765625 37.589844 97.585938 37.527344 L 96.527344 37.160156 L 95.996094 36.980469 L 95.867188 36.9375 L 95.675781 36.875 L 95.382812 36.785156 C 94.992188 36.667969 94.597656 36.546875 94.210938 36.445312 C 92.65625 36.019531 91.109375 35.6875 89.578125 35.402344 C 88.042969 35.117188 86.519531 34.871094 85 34.660156 C 78.925781 33.84375 72.957031 33.3125 67.125 32.667969 C 65.667969 32.503906 64.21875 32.332031 62.78125 32.152344 C 61.34375 31.984375 59.917969 31.792969 58.5 31.597656 C 55.671875 31.199219 52.898438 30.742188 50.183594 30.238281 C 44.761719 29.199219 39.59375 27.917969 34.847656 26.273438 C 30.09375 24.644531 25.757812 22.6875 21.960938 20.5 C 20.0625 19.410156 18.296875 18.265625 16.675781 17.089844 C 15.046875 15.921875 13.574219 14.714844 12.21875 13.539062 C 9.539062 11.15625 7.394531 8.832031 5.742188 6.820312 C 4.09375 4.800781 2.914062 3.113281 2.117188 1.949219 C 1.347656 0.769531 0.933594 0.136719 0.933594 0.136719 " fill-opacity="1" fill-rule="nonzero"/></g></g></g></g></svg>