<svg xmlns="http://www.w3.org/2000/svg" xmlns:xlink="http://www.w3.org/1999/xlink" width="1920" zoomAndPan="magnify" viewBox="0 0 1440 809.999993" height="1080" preserveAspectRatio="xMidYMid meet" version="1.0"><defs><clipPath id="e41ad39358"><path d="M 577 227 L 934 227 L 934 476 L 577 476 Z M 577 227 " clip-rule="nonzero"/></clipPath><clipPath id="383e5479a3"><path d="M 397.472656 298.425781 L 864.511719 97.316406 L 1042.78125 511.316406 L 575.742188 712.425781 Z M 397.472656 298.425781 " clip-rule="nonzero"/></clipPath><clipPath id="f82d9fac21"><path d="M 397.472656 298.425781 L 864.511719 97.316406 L 1042.78125 511.316406 L 575.742188 712.425781 Z M 397.472656 298.425781 " clip-rule="nonzero"/></clipPath><clipPath id="a802a1c081"><path d="M 581 231 L 929 231 L 929 375 L 581 375 Z M 581 231 " clip-rule="nonzero"/></clipPath><clipPath id="a66b033a2a"><path d="M 397.472656 298.425781 L 864.511719 97.316406 L 1042.78125 511.316406 L 575.742188 712.425781 Z M 397.472656 298.425781 " clip-rule="nonzero"/></clipPath><clipPath id="6267ab8240"><path d="M 397.472656 298.425781 L 864.511719 97.316406 L 1042.78125 511.316406 L 575.742188 712.425781 Z M 397.472656 298.425781 " clip-rule="nonzero"/></clipPath><clipPath id="8f7d3e6900"><path d="M 566 233 L 580 233 L 580 246 L 566 246 Z M 566 233 " clip-rule="nonzero"/></clipPath><clipPath id="75649b238d"><path d="M 397.472656 298.425781 L 864.511719 97.316406 L 1042.78125 511.316406 L 575.742188 712.425781 Z M 397.472656 298.425781 " clip-rule="nonzero"/></clipPath><clipPath id="611df74f85"><path d="M 397.472656 298.425781 L 864.511719 97.316406 L 1042.78125 511.316406 L 575.742188 712.425781 Z M 397.472656 298.425781 " clip-rule="nonzero"/></clipPath><clipPath id="80571fb456"><path d="M 567 230 L 579 230 L 579 241 L 567 241 Z M 567 230 " clip-rule="nonzero"/></clipPath><clipPath id="d1b2e8d52f"><path d="M 397.472656 298.425781 L 864.511719 97.316406 L 1042.78125 511.316406 L 575.742188 712.425781 Z M 397.472656 298.425781 " clip-rule="nonzero"/></clipPath><clipPath id="1ea04ba5b3"><path d="M 397.472656 298.425781 L 864.511719 97.316406 L 1042.78125 511.316406 L 575.742188 712.425781 Z M 397.472656 298.425781 " clip-rule="nonzero"/></clipPath><clipPath id="7ade111b54"><path d="M 568 227 L 579 227 L 579 237 L 568 237 Z M 568 227 " clip-rule="nonzero"/></clipPath><clipPath id="1485ae315b"><path d="M 397.472656 298.425781 L 864.511719 97.316406 L 1042.78125 511.316406 L 575.742188 712.425781 Z M 397.472656 298.425781 " clip-rule="nonzero"/></clipPath><clipPath id="98c2a8adcc"><path d="M 397.472656 298.425781 L 864.511719 97.316406 L 1042.78125 511.316406 L 575.742188 712.425781 Z M 397.472656 298.425781 " clip-rule="nonzero"/></clipPath><clipPath id="db95c07f4b"><path d="M 569 224 L 578 224 L 578 232 L 569 232 Z M 569 224 " clip-rule="nonzero"/></clipPath><clipPath id="6456640265"><path d="M 397.472656 298.425781 L 864.511719 97.316406 L 1042.78125 511.316406 L 575.742188 712.425781 Z M 397.472656 298.425781 " clip-rule="nonzero"/></clipPath><clipPath id="59618c3bf9"><path d="M 397.472656 298.425781 L 864.511719 97.316406 L 1042.78125 511.316406 L 575.742188 712.425781 Z M 397.472656 298.425781 " clip-rule="nonzero"/></clipPath><clipPath id="263d1fad48"><path d="M 568 242 L 584 242 L 584 709 L 568 709 Z M 568 242 " clip-rule="nonzero"/></clipPath><clipPath id="866bb1dcc8"><path d="M 397.472656 298.425781 L 864.511719 97.316406 L 1042.78125 511.316406 L 575.742188 712.425781 Z M 397.472656 298.425781 " clip-rule="nonzero"/></clipPath><clipPath id="c0da251687"><path d="M 397.472656 298.425781 L 864.511719 97.316406 L 1042.78125 511.316406 L 575.742188 712.425781 Z M 397.472656 298.425781 " clip-rule="nonzero"/></clipPath><clipPath id="338a003e0b"><path d="M 727 291 L 789.75 291 L 789.75 403 L 727 403 Z M 727 291 " clip-rule="nonzero"/></clipPath><clipPath id="194b7d469a"><path d="M 720 285.242188 L 788 285.242188 L 788 405 L 720 405 Z M 720 285.242188 " clip-rule="nonzero"/></clipPath></defs><rect x="-144" width="1728" fill="#ffffff" y="-80.999999" height="971.999992" fill-opacity="1"/><rect x="-144" width="1728" fill="#ffffff" y="-80.999999" height="971.999992" fill-opacity="1"/><g clip-path="url(#e41ad39358)"><g clip-path="url(#383e5479a3)"><g clip-path="url(#f82d9fac21)"><path fill="#ffde59" d="M 679.449219 227.238281 C 659.3125 227.371094 632.09375 232.25 609.128906 237.347656 C 596.90625 240.058594 585.953125 242.816406 577.816406 244.957031 L 579.683594 445.828125 C 587.800781 443.695312 598.605469 440.980469 610.664062 438.304688 C 632.886719 433.375 659.042969 428.621094 679.183594 428.183594 C 679.902344 428.167969 680.613281 428.160156 681.316406 428.15625 C 683.429688 428.140625 685.464844 428.179688 687.417969 428.273438 C 716.886719 429.699219 744.679688 441.652344 772.386719 453.132812 C 800.097656 464.609375 827.71875 475.613281 856.824219 475.359375 C 873.703125 475.214844 898.285156 467.949219 918.570312 460.699219 C 923.960938 458.773438 929.007812 456.859375 933.574219 455.074219 L 931.707031 254.269531 C 927.28125 255.996094 922.402344 257.835938 917.230469 259.683594 C 896.878906 266.957031 872.277344 274.289062 854.953125 274.441406 C 825.4375 274.699219 797.609375 263.574219 769.890625 252.089844 C 742.171875 240.601562 714.542969 228.757812 685.460938 227.351562 C 683.542969 227.257812 681.535156 227.222656 679.453125 227.238281 Z M 679.449219 227.238281 " fill-opacity="1" fill-rule="evenodd"/></g></g></g><g clip-path="url(#a802a1c081)"><g clip-path="url(#a66b033a2a)"><g clip-path="url(#6267ab8240)"><path fill="#ffde59" d="M 679.925781 231.378906 C 681.703125 231.371094 683.484375 231.40625 685.261719 231.492188 C 714.125 232.886719 741.957031 245 768.304688 255.914062 C 795.96875 267.378906 824.542969 278.847656 854.988281 278.582031 C 861.910156 278.523438 869.015625 277.457031 875.789062 276.085938 C 883.453125 274.535156 891.054688 272.5 898.539062 270.238281 C 905.289062 268.203125 911.980469 265.960938 918.621094 263.585938 C 921.632812 262.511719 924.628906 261.40625 927.621094 260.277344 L 928.511719 356.363281 C 925.320312 357.578125 921.941406 358.832031 918.429688 360.085938 C 898.078125 367.359375 873.476562 374.691406 856.152344 374.839844 C 826.636719 375.097656 798.808594 363.972656 771.089844 352.488281 C 743.367188 341.003906 715.742188 329.160156 686.660156 327.753906 C 684.742188 327.660156 682.734375 327.625 680.652344 327.636719 L 680.648438 327.636719 C 660.511719 327.773438 633.292969 332.652344 610.328125 337.75 C 599.949219 340.050781 590.484375 342.386719 582.882812 344.347656 L 581.988281 248.148438 C 591.292969 245.734375 600.640625 243.476562 610.023438 241.390625 C 618.257812 239.566406 626.523438 237.875 634.824219 236.386719 C 642.621094 234.992188 650.464844 233.761719 658.332031 232.84375 C 665.324219 232.027344 672.429688 231.425781 679.472656 231.378906 Z M 679.925781 231.378906 " fill-opacity="1" fill-rule="evenodd"/></g></g></g><g clip-path="url(#8f7d3e6900)"><g clip-path="url(#75649b238d)"><g clip-path="url(#611df74f85)"><path fill="#71625b" d="M 566.980469 239.789062 C 566.984375 240.167969 567.03125 240.542969 567.117188 240.914062 C 567.203125 241.285156 567.324219 241.644531 567.488281 241.996094 C 567.648438 242.34375 567.847656 242.671875 568.082031 242.984375 C 568.316406 243.300781 568.582031 243.585938 568.875 243.851562 C 569.171875 244.117188 569.492188 244.351562 569.839844 244.558594 C 570.1875 244.765625 570.554688 244.941406 570.9375 245.082031 C 571.320312 245.222656 571.71875 245.324219 572.125 245.394531 C 572.53125 245.464844 572.941406 245.496094 573.355469 245.492188 C 573.769531 245.488281 574.179688 245.445312 574.582031 245.367188 C 574.988281 245.285156 575.382812 245.171875 575.761719 245.023438 C 576.144531 244.871094 576.503906 244.691406 576.847656 244.476562 C 577.1875 244.261719 577.503906 244.019531 577.792969 243.746094 C 578.082031 243.472656 578.339844 243.179688 578.566406 242.859375 C 578.792969 242.542969 578.984375 242.207031 579.136719 241.855469 C 579.292969 241.503906 579.40625 241.140625 579.484375 240.765625 C 579.558594 240.394531 579.59375 240.019531 579.589844 239.636719 C 579.585938 239.257812 579.542969 238.882812 579.457031 238.511719 C 579.371094 238.140625 579.246094 237.78125 579.085938 237.433594 C 578.921875 237.085938 578.722656 236.753906 578.488281 236.441406 C 578.257812 236.128906 577.992188 235.839844 577.695312 235.574219 C 577.398438 235.308594 577.078125 235.074219 576.730469 234.867188 C 576.386719 234.660156 576.019531 234.488281 575.636719 234.347656 C 575.25 234.207031 574.855469 234.101562 574.449219 234.03125 C 574.042969 233.964844 573.632812 233.929688 573.21875 233.9375 C 572.804688 233.941406 572.394531 233.984375 571.988281 234.0625 C 571.582031 234.140625 571.191406 234.253906 570.808594 234.40625 C 570.429688 234.554688 570.066406 234.738281 569.726562 234.953125 C 569.382812 235.167969 569.070312 235.410156 568.777344 235.683594 C 568.488281 235.953125 568.230469 236.25 568.003906 236.566406 C 567.78125 236.886719 567.589844 237.21875 567.433594 237.574219 C 567.28125 237.925781 567.164062 238.289062 567.089844 238.660156 C 567.011719 239.035156 566.976562 239.410156 566.980469 239.789062 Z M 566.980469 239.789062 " fill-opacity="1" fill-rule="nonzero"/></g></g></g><g clip-path="url(#80571fb456)"><g clip-path="url(#d1b2e8d52f)"><g clip-path="url(#1ea04ba5b3)"><path fill="#71625b" d="M 567.621094 235.472656 C 567.625 235.8125 567.664062 236.144531 567.738281 236.476562 C 567.816406 236.804688 567.925781 237.128906 568.070312 237.4375 C 568.214844 237.746094 568.390625 238.042969 568.601562 238.320312 C 568.808594 238.597656 569.042969 238.855469 569.308594 239.09375 C 569.570312 239.328125 569.859375 239.539062 570.167969 239.722656 C 570.476562 239.90625 570.800781 240.0625 571.144531 240.1875 C 571.484375 240.3125 571.835938 240.40625 572.199219 240.464844 C 572.5625 240.527344 572.929688 240.554688 573.296875 240.550781 C 573.664062 240.546875 574.03125 240.511719 574.390625 240.441406 C 574.75 240.371094 575.101562 240.269531 575.441406 240.132812 C 575.78125 240 576.101562 239.839844 576.40625 239.648438 C 576.710938 239.457031 576.992188 239.238281 577.25 238.996094 C 577.507812 238.753906 577.738281 238.492188 577.9375 238.210938 C 578.140625 237.925781 578.308594 237.628906 578.445312 237.3125 C 578.582031 237 578.6875 236.675781 578.753906 236.34375 C 578.820312 236.011719 578.855469 235.675781 578.851562 235.339844 C 578.847656 235 578.804688 234.667969 578.730469 234.335938 C 578.65625 234.007812 578.542969 233.6875 578.398438 233.375 C 578.253906 233.066406 578.078125 232.769531 577.871094 232.492188 C 577.660156 232.214844 577.425781 231.957031 577.160156 231.71875 C 576.898438 231.484375 576.613281 231.273438 576.304688 231.089844 C 575.996094 230.90625 575.667969 230.753906 575.328125 230.625 C 574.984375 230.5 574.632812 230.410156 574.269531 230.347656 C 573.90625 230.285156 573.542969 230.257812 573.171875 230.261719 C 572.804688 230.265625 572.441406 230.300781 572.078125 230.371094 C 571.71875 230.441406 571.367188 230.546875 571.03125 230.679688 C 570.691406 230.8125 570.367188 230.972656 570.0625 231.164062 C 569.761719 231.355469 569.480469 231.574219 569.222656 231.816406 C 568.964844 232.058594 568.734375 232.320312 568.53125 232.605469 C 568.332031 232.886719 568.160156 233.183594 568.023438 233.5 C 567.886719 233.8125 567.785156 234.136719 567.714844 234.46875 C 567.648438 234.800781 567.617188 235.136719 567.621094 235.472656 Z M 567.621094 235.472656 " fill-opacity="1" fill-rule="nonzero"/></g></g></g><g clip-path="url(#7ade111b54)"><g clip-path="url(#1485ae315b)"><g clip-path="url(#98c2a8adcc)"><path fill="#71625b" d="M 568.238281 231.980469 C 568.242188 232.28125 568.277344 232.574219 568.34375 232.867188 C 568.410156 233.15625 568.507812 233.441406 568.636719 233.714844 C 568.765625 233.988281 568.917969 234.246094 569.105469 234.492188 C 569.289062 234.738281 569.496094 234.964844 569.726562 235.175781 C 569.960938 235.382812 570.214844 235.566406 570.484375 235.730469 C 570.757812 235.890625 571.046875 236.027344 571.347656 236.140625 C 571.648438 236.25 571.960938 236.332031 572.28125 236.386719 C 572.597656 236.441406 572.921875 236.464844 573.246094 236.460938 C 573.574219 236.457031 573.894531 236.425781 574.210938 236.363281 C 574.53125 236.300781 574.839844 236.210938 575.140625 236.09375 C 575.4375 235.976562 575.722656 235.832031 575.992188 235.664062 C 576.257812 235.496094 576.507812 235.304688 576.734375 235.089844 C 576.960938 234.878906 577.164062 234.644531 577.34375 234.394531 C 577.519531 234.144531 577.667969 233.882812 577.789062 233.605469 C 577.914062 233.328125 578.003906 233.042969 578.0625 232.75 C 578.121094 232.457031 578.152344 232.160156 578.148438 231.863281 C 578.144531 231.566406 578.109375 231.269531 578.042969 230.976562 C 577.972656 230.6875 577.878906 230.402344 577.75 230.128906 C 577.621094 229.855469 577.464844 229.597656 577.28125 229.351562 C 577.097656 229.105469 576.890625 228.878906 576.65625 228.667969 C 576.425781 228.460938 576.171875 228.277344 575.898438 228.113281 C 575.628906 227.953125 575.339844 227.816406 575.039062 227.703125 C 574.738281 227.59375 574.425781 227.511719 574.105469 227.457031 C 573.785156 227.402344 573.464844 227.378906 573.136719 227.382812 C 572.8125 227.386719 572.492188 227.417969 572.171875 227.480469 C 571.855469 227.542969 571.546875 227.632812 571.246094 227.75 C 570.949219 227.867188 570.664062 228.011719 570.394531 228.179688 C 570.125 228.347656 569.878906 228.539062 569.652344 228.753906 C 569.421875 228.96875 569.222656 229.199219 569.042969 229.449219 C 568.867188 229.699219 568.714844 229.960938 568.59375 230.238281 C 568.472656 230.515625 568.382812 230.800781 568.324219 231.09375 C 568.261719 231.386719 568.234375 231.683594 568.238281 231.980469 Z M 568.238281 231.980469 " fill-opacity="1" fill-rule="nonzero"/></g></g></g><g clip-path="url(#db95c07f4b)"><g clip-path="url(#6456640265)"><g clip-path="url(#59618c3bf9)"><path fill="#71625b" d="M 569.1875 228.3125 C 569.191406 228.792969 569.296875 229.257812 569.503906 229.699219 C 569.710938 230.140625 570.003906 230.53125 570.378906 230.867188 C 570.753906 231.203125 571.1875 231.460938 571.671875 231.640625 C 572.160156 231.816406 572.667969 231.902344 573.195312 231.898438 C 573.71875 231.890625 574.222656 231.792969 574.707031 231.601562 C 575.191406 231.414062 575.617188 231.144531 575.984375 230.800781 C 576.351562 230.457031 576.632812 230.058594 576.828125 229.613281 C 577.023438 229.164062 577.121094 228.699219 577.113281 228.21875 C 577.109375 227.734375 577 227.273438 576.796875 226.832031 C 576.589844 226.390625 576.296875 226 575.921875 225.664062 C 575.546875 225.328125 575.113281 225.070312 574.625 224.890625 C 574.140625 224.714844 573.632812 224.625 573.105469 224.632812 C 572.582031 224.640625 572.078125 224.738281 571.59375 224.929688 C 571.109375 225.117188 570.683594 225.386719 570.316406 225.730469 C 569.949219 226.074219 569.667969 226.472656 569.472656 226.917969 C 569.277344 227.367188 569.179688 227.832031 569.1875 228.3125 Z M 569.1875 228.3125 " fill-opacity="1" fill-rule="nonzero"/></g></g></g><g clip-path="url(#263d1fad48)"><g clip-path="url(#866bb1dcc8)"><g clip-path="url(#c0da251687)"><path fill="#71625b" d="M 577.929688 242.230469 L 568.699219 242.339844 L 574.277344 708.976562 L 583.507812 708.867188 Z M 577.929688 242.230469 " fill-opacity="1" fill-rule="evenodd"/></g></g></g><g clip-path="url(#338a003e0b)"><path fill="#c8af48" d="M 752.527344 291.503906 L 751.433594 291.5 L 751.078125 292.535156 L 728.96875 357.210938 L 727.996094 360.0625 L 730.867188 359.15625 L 747.003906 354.082031 L 732.601562 393.042969 L 729.160156 402.351562 L 735.234375 394.503906 L 779.203125 337.699219 L 781.480469 334.753906 L 777.792969 335.253906 L 756.4375 338.152344 L 788.023438 294.089844 L 789.742188 291.695312 L 786.792969 291.679688 L 752.527344 291.503906 " fill-opacity="1" fill-rule="nonzero"/></g><g clip-path="url(#194b7d469a)"><path fill="#c8af48" d="M 744.230469 347.085938 L 728.433594 389.832031 L 773.539062 331.554688 L 748.65625 334.933594 L 782.253906 288.0625 L 747.4375 287.886719 L 747.390625 288.027344 L 725.144531 353.089844 Z M 720.019531 405 L 739.902344 351.207031 L 720.972656 357.164062 L 745.558594 285.242188 L 787.359375 285.457031 L 754.351562 331.503906 L 779.554688 328.082031 L 720.019531 405 " fill-opacity="1" fill-rule="nonzero"/></g></svg>