<svg xmlns="http://www.w3.org/2000/svg" xmlns:xlink="http://www.w3.org/1999/xlink" width="1920" zoomAndPan="magnify" viewBox="0 0 1440 809.999993" height="1080" preserveAspectRatio="xMidYMid meet" version="1.0"><defs><clipPath id="1c7aaaf7bb"><path d="M 559 204 L 961 204 L 961 485 L 559 485 Z M 559 204 " clip-rule="nonzero"/></clipPath><clipPath id="55ededcb60"><path d="M 356.222656 284.796875 L 882.503906 58.175781 L 1083.613281 525.21875 L 557.328125 751.835938 Z M 356.222656 284.796875 " clip-rule="nonzero"/></clipPath><clipPath id="7a89af5279"><path d="M 356.222656 284.796875 L 882.503906 58.175781 L 1083.613281 525.21875 L 557.328125 751.835938 Z M 356.222656 284.796875 " clip-rule="nonzero"/></clipPath><clipPath id="8b506b19ae"><path d="M 564 209 L 956 209 L 956 371 L 564 371 Z M 564 209 " clip-rule="nonzero"/></clipPath><clipPath id="bbfecad30a"><path d="M 356.222656 284.796875 L 882.503906 58.175781 L 1083.613281 525.21875 L 557.328125 751.835938 Z M 356.222656 284.796875 " clip-rule="nonzero"/></clipPath><clipPath id="1ea6696da9"><path d="M 356.222656 284.796875 L 882.503906 58.175781 L 1083.613281 525.21875 L 557.328125 751.835938 Z M 356.222656 284.796875 " clip-rule="nonzero"/></clipPath><clipPath id="940b41c5e5"><path d="M 547 212 L 562 212 L 562 226 L 547 226 Z M 547 212 " clip-rule="nonzero"/></clipPath><clipPath id="ca04faf6ca"><path d="M 356.222656 284.796875 L 882.503906 58.175781 L 1083.613281 525.21875 L 557.328125 751.835938 Z M 356.222656 284.796875 " clip-rule="nonzero"/></clipPath><clipPath id="eee85d0c98"><path d="M 356.222656 284.796875 L 882.503906 58.175781 L 1083.613281 525.21875 L 557.328125 751.835938 Z M 356.222656 284.796875 " clip-rule="nonzero"/></clipPath><clipPath id="26e0ad4465"><path d="M 548 207 L 561 207 L 561 220 L 548 220 Z M 548 207 " clip-rule="nonzero"/></clipPath><clipPath id="59f50307f7"><path d="M 356.222656 284.796875 L 882.503906 58.175781 L 1083.613281 525.21875 L 557.328125 751.835938 Z M 356.222656 284.796875 " clip-rule="nonzero"/></clipPath><clipPath id="37d16c1f62"><path d="M 356.222656 284.796875 L 882.503906 58.175781 L 1083.613281 525.21875 L 557.328125 751.835938 Z M 356.222656 284.796875 " clip-rule="nonzero"/></clipPath><clipPath id="d89e02103f"><path d="M 548 204 L 561 204 L 561 215 L 548 215 Z M 548 204 " clip-rule="nonzero"/></clipPath><clipPath id="34ef12c257"><path d="M 356.222656 284.796875 L 882.503906 58.175781 L 1083.613281 525.21875 L 557.328125 751.835938 Z M 356.222656 284.796875 " clip-rule="nonzero"/></clipPath><clipPath id="de5c045d00"><path d="M 356.222656 284.796875 L 882.503906 58.175781 L 1083.613281 525.21875 L 557.328125 751.835938 Z M 356.222656 284.796875 " clip-rule="nonzero"/></clipPath><clipPath id="658747b8bb"><path d="M 549 201 L 559 201 L 559 210 L 549 210 Z M 549 201 " clip-rule="nonzero"/></clipPath><clipPath id="beb17b06e2"><path d="M 356.222656 284.796875 L 882.503906 58.175781 L 1083.613281 525.21875 L 557.328125 751.835938 Z M 356.222656 284.796875 " clip-rule="nonzero"/></clipPath><clipPath id="9167f63556"><path d="M 356.222656 284.796875 L 882.503906 58.175781 L 1083.613281 525.21875 L 557.328125 751.835938 Z M 356.222656 284.796875 " clip-rule="nonzero"/></clipPath><clipPath id="550ffa0cd9"><path d="M 549 221 L 567 221 L 567 748 L 549 748 Z M 549 221 " clip-rule="nonzero"/></clipPath><clipPath id="b6ee4d5091"><path d="M 356.222656 284.796875 L 882.503906 58.175781 L 1083.613281 525.21875 L 557.328125 751.835938 Z M 356.222656 284.796875 " clip-rule="nonzero"/></clipPath><clipPath id="08d5cea97b"><path d="M 356.222656 284.796875 L 882.503906 58.175781 L 1083.613281 525.21875 L 557.328125 751.835938 Z M 356.222656 284.796875 " clip-rule="nonzero"/></clipPath><clipPath id="9383b9cfc2"><path d="M 801 357 L 851 357 L 851 374 L 801 374 Z M 801 357 " clip-rule="nonzero"/></clipPath><clipPath id="c933f8dbf6"><path d="M 822.492188 273 L 923.382812 307.105469 L 893.839844 394.5 L 792.949219 360.394531 Z M 822.492188 273 " clip-rule="nonzero"/></clipPath><clipPath id="ef0f25d64f"><path d="M 822.492188 273 L 923.382812 307.105469 L 893.839844 394.5 L 792.949219 360.394531 Z M 822.492188 273 " clip-rule="nonzero"/></clipPath><clipPath id="0681af5d92"><path d="M 823 352 L 872 352 L 872 373 L 823 373 Z M 823 352 " clip-rule="nonzero"/></clipPath><clipPath id="bf2d3ef485"><path d="M 822.492188 273 L 923.382812 307.105469 L 893.839844 394.5 L 792.949219 360.394531 Z M 822.492188 273 " clip-rule="nonzero"/></clipPath><clipPath id="df9d43cb43"><path d="M 822.492188 273 L 923.382812 307.105469 L 893.839844 394.5 L 792.949219 360.394531 Z M 822.492188 273 " clip-rule="nonzero"/></clipPath><clipPath id="6b8e9abd3b"><path d="M 834 348 L 889 348 L 889 367 L 834 367 Z M 834 348 " clip-rule="nonzero"/></clipPath><clipPath id="20b5c45407"><path d="M 822.492188 273 L 923.382812 307.105469 L 893.839844 394.5 L 792.949219 360.394531 Z M 822.492188 273 " clip-rule="nonzero"/></clipPath><clipPath id="d4486deadc"><path d="M 822.492188 273 L 923.382812 307.105469 L 893.839844 394.5 L 792.949219 360.394531 Z M 822.492188 273 " clip-rule="nonzero"/></clipPath><clipPath id="d036864033"><path d="M 840 339 L 907 339 L 907 358 L 840 358 Z M 840 339 " clip-rule="nonzero"/></clipPath><clipPath id="8a88e4e47e"><path d="M 822.492188 273 L 923.382812 307.105469 L 893.839844 394.5 L 792.949219 360.394531 Z M 822.492188 273 " clip-rule="nonzero"/></clipPath><clipPath id="09c2561a10"><path d="M 822.492188 273 L 923.382812 307.105469 L 893.839844 394.5 L 792.949219 360.394531 Z M 822.492188 273 " clip-rule="nonzero"/></clipPath><clipPath id="8540726203"><path d="M 853 307 L 924 307 L 924 343 L 853 343 Z M 853 307 " clip-rule="nonzero"/></clipPath><clipPath id="354ea8dcad"><path d="M 822.492188 273 L 923.382812 307.105469 L 893.839844 394.5 L 792.949219 360.394531 Z M 822.492188 273 " clip-rule="nonzero"/></clipPath><clipPath id="45508e39d8"><path d="M 822.492188 273 L 923.382812 307.105469 L 893.839844 394.5 L 792.949219 360.394531 Z M 822.492188 273 " clip-rule="nonzero"/></clipPath><clipPath id="67175a749d"><path d="M 868.09375 288.421875 L 923.714844 307.226562 L 908.46875 352.324219 L 852.847656 333.523438 Z M 868.09375 288.421875 " clip-rule="nonzero"/></clipPath><clipPath id="c3b147ee95"><path d="M 798 307 L 924 307 L 924 363 L 798 363 Z M 798 307 " clip-rule="nonzero"/></clipPath><clipPath id="325b310e13"><path d="M 822.492188 273 L 923.382812 307.105469 L 893.839844 394.5 L 792.949219 360.394531 Z M 822.492188 273 " clip-rule="nonzero"/></clipPath><clipPath id="eb6b7ba9f1"><path d="M 822.492188 273 L 923.382812 307.105469 L 893.839844 394.5 L 792.949219 360.394531 Z M 822.492188 273 " clip-rule="nonzero"/></clipPath><clipPath id="975df7cf9f"><path d="M 822.488281 273.007812 L 923.714844 307.226562 L 894.160156 394.652344 L 792.933594 360.433594 Z M 822.488281 273.007812 " clip-rule="nonzero"/></clipPath><clipPath id="54719d46a2"><path d="M 631.835938 274.515625 L 730.835938 274.515625 L 730.835938 360.015625 L 631.835938 360.015625 Z M 631.835938 274.515625 " clip-rule="nonzero"/></clipPath><clipPath id="285f23fb5e"><path d="M 0.976562 0.523438 L 55.3125 0.523438 L 55.3125 44.695312 L 0.976562 44.695312 Z M 0.976562 0.523438 " clip-rule="nonzero"/></clipPath><clipPath id="8bf7937d18"><path d="M 0.976562 0.523438 L 99.835938 0.523438 L 99.835938 86.015625 L 0.976562 86.015625 Z M 0.976562 0.523438 " clip-rule="nonzero"/></clipPath><clipPath id="677969090f"><rect x="0" width="100" y="0" height="87"/></clipPath><clipPath id="d5b0782020"><path d="M 730.988281 288.8125 L 791.738281 288.8125 L 791.738281 420.8125 L 730.988281 420.8125 Z M 730.988281 288.8125 " clip-rule="nonzero"/></clipPath></defs><rect x="-144" width="1728" fill="#ffffff" y="-80.999999" height="971.999992" fill-opacity="1"/><rect x="-144" width="1728" fill="#ffffff" y="-80.999999" height="971.999992" fill-opacity="1"/><g clip-path="url(#1c7aaaf7bb)"><g clip-path="url(#55ededcb60)"><g clip-path="url(#7a89af5279)"><path fill="#0097b2" d="M 674.261719 204.503906 C 651.554688 204.65625 620.851562 210.160156 594.949219 215.90625 C 581.164062 218.964844 568.808594 222.074219 559.632812 224.488281 L 561.738281 451.050781 C 570.894531 448.644531 583.078125 445.585938 596.679688 442.566406 C 621.746094 437.003906 651.246094 431.644531 673.964844 431.152344 C 674.773438 431.132812 675.578125 431.121094 676.371094 431.117188 C 678.75 431.101562 681.050781 431.144531 683.25 431.253906 C 716.492188 432.859375 747.835938 446.339844 779.089844 459.289062 C 810.34375 472.238281 841.496094 484.648438 874.324219 484.359375 C 893.363281 484.195312 921.089844 476 943.96875 467.824219 C 950.046875 465.652344 955.742188 463.496094 960.890625 461.480469 L 958.785156 234.992188 C 953.792969 236.9375 948.289062 239.015625 942.457031 241.101562 C 919.503906 249.304688 891.753906 257.574219 872.214844 257.742188 C 838.921875 258.035156 807.535156 245.484375 776.273438 232.53125 C 745.007812 219.578125 713.847656 206.21875 681.042969 204.632812 C 678.878906 204.527344 676.617188 204.488281 674.265625 204.503906 Z M 674.261719 204.503906 " fill-opacity="1" fill-rule="evenodd"/></g></g></g><g clip-path="url(#8b506b19ae)"><g clip-path="url(#bbfecad30a)"><g clip-path="url(#1ea6696da9)"><path fill="#0097b2" d="M 674.800781 209.171875 C 676.804688 209.167969 678.8125 209.203125 680.816406 209.300781 C 713.375 210.875 744.765625 224.539062 774.484375 236.851562 C 805.6875 249.777344 837.914062 262.714844 872.253906 262.417969 C 880.058594 262.347656 888.074219 261.144531 895.714844 259.597656 C 904.359375 257.851562 912.929688 255.554688 921.371094 253.007812 C 928.988281 250.707031 936.535156 248.179688 944.027344 245.5 C 947.421875 244.289062 950.800781 243.042969 954.175781 241.769531 L 955.183594 350.144531 C 951.582031 351.511719 947.769531 352.925781 943.808594 354.34375 C 920.855469 362.546875 893.105469 370.816406 873.566406 370.984375 C 840.273438 371.277344 808.886719 358.726562 777.625 345.773438 C 746.359375 332.820312 715.199219 319.460938 682.394531 317.875 C 680.230469 317.769531 677.96875 317.730469 675.621094 317.746094 L 675.613281 317.746094 C 652.90625 317.898438 622.203125 323.398438 596.300781 329.148438 C 584.59375 331.746094 573.917969 334.378906 565.34375 336.59375 L 564.335938 228.089844 C 574.832031 225.367188 585.375 222.816406 595.960938 220.46875 C 605.246094 218.410156 614.570312 216.503906 623.929688 214.824219 C 632.726562 213.25 641.570312 211.863281 650.445312 210.828125 C 658.332031 209.90625 666.347656 209.230469 674.292969 209.175781 Z M 674.800781 209.171875 " fill-opacity="1" fill-rule="evenodd"/></g></g></g><g clip-path="url(#940b41c5e5)"><g clip-path="url(#ca04faf6ca)"><g clip-path="url(#eee85d0c98)"><path fill="#71625b" d="M 547.410156 218.660156 C 547.417969 219.089844 547.46875 219.511719 547.5625 219.929688 C 547.660156 220.347656 547.800781 220.753906 547.984375 221.148438 C 548.164062 221.542969 548.390625 221.914062 548.652344 222.265625 C 548.917969 222.621094 549.214844 222.945312 549.550781 223.242188 C 549.882812 223.542969 550.246094 223.808594 550.636719 224.042969 C 551.027344 224.273438 551.441406 224.46875 551.875 224.628906 C 552.304688 224.789062 552.753906 224.90625 553.210938 224.984375 C 553.671875 225.0625 554.132812 225.097656 554.601562 225.09375 C 555.066406 225.085938 555.527344 225.039062 555.984375 224.949219 C 556.441406 224.863281 556.886719 224.734375 557.316406 224.5625 C 557.746094 224.394531 558.152344 224.1875 558.539062 223.945312 C 558.921875 223.703125 559.28125 223.429688 559.605469 223.125 C 559.933594 222.816406 560.222656 222.484375 560.476562 222.125 C 560.734375 221.765625 560.949219 221.386719 561.121094 220.992188 C 561.296875 220.59375 561.425781 220.183594 561.511719 219.761719 C 561.597656 219.34375 561.640625 218.917969 561.632812 218.492188 C 561.628906 218.0625 561.578125 217.640625 561.480469 217.222656 C 561.386719 216.800781 561.246094 216.398438 561.0625 216.003906 C 560.878906 215.609375 560.65625 215.238281 560.390625 214.882812 C 560.128906 214.53125 559.828125 214.207031 559.496094 213.90625 C 559.160156 213.609375 558.800781 213.34375 558.410156 213.109375 C 558.015625 212.878906 557.605469 212.679688 557.171875 212.523438 C 556.738281 212.363281 556.292969 212.246094 555.832031 212.167969 C 555.375 212.089844 554.910156 212.054688 554.445312 212.058594 C 553.976562 212.066406 553.515625 212.113281 553.058594 212.199219 C 552.601562 212.289062 552.160156 212.417969 551.730469 212.585938 C 551.300781 212.757812 550.890625 212.960938 550.507812 213.203125 C 550.121094 213.445312 549.765625 213.722656 549.4375 214.027344 C 549.113281 214.335938 548.820312 214.667969 548.566406 215.027344 C 548.3125 215.386719 548.097656 215.761719 547.921875 216.160156 C 547.75 216.558594 547.617188 216.96875 547.53125 217.386719 C 547.445312 217.808594 547.40625 218.234375 547.410156 218.660156 Z M 547.410156 218.660156 " fill-opacity="1" fill-rule="nonzero"/></g></g></g><g clip-path="url(#26e0ad4465)"><g clip-path="url(#59f50307f7)"><g clip-path="url(#37d16c1f62)"><path fill="#71625b" d="M 548.132812 213.792969 C 548.136719 214.175781 548.179688 214.550781 548.265625 214.925781 C 548.351562 215.296875 548.476562 215.65625 548.640625 216.007812 C 548.804688 216.359375 549.003906 216.691406 549.238281 217.003906 C 549.472656 217.320312 549.738281 217.609375 550.035156 217.875 C 550.332031 218.140625 550.65625 218.378906 551.003906 218.585938 C 551.351562 218.792969 551.71875 218.96875 552.105469 219.109375 C 552.492188 219.25 552.886719 219.355469 553.296875 219.425781 C 553.707031 219.492188 554.117188 219.527344 554.535156 219.519531 C 554.949219 219.515625 555.363281 219.472656 555.769531 219.394531 C 556.175781 219.316406 556.570312 219.199219 556.953125 219.050781 C 557.335938 218.898438 557.699219 218.714844 558.042969 218.5 C 558.382812 218.285156 558.703125 218.039062 558.992188 217.769531 C 559.28125 217.496094 559.542969 217.199219 559.769531 216.878906 C 559.996094 216.558594 560.1875 216.222656 560.34375 215.867188 C 560.496094 215.515625 560.613281 215.148438 560.691406 214.777344 C 560.765625 214.402344 560.800781 214.023438 560.796875 213.640625 C 560.792969 213.261719 560.75 212.882812 560.664062 212.511719 C 560.578125 212.136719 560.453125 211.777344 560.289062 211.425781 C 560.125 211.078125 559.925781 210.746094 559.691406 210.429688 C 559.457031 210.117188 559.191406 209.824219 558.894531 209.558594 C 558.597656 209.292969 558.273438 209.058594 557.925781 208.851562 C 557.578125 208.640625 557.210938 208.46875 556.824219 208.328125 C 556.4375 208.183594 556.042969 208.078125 555.632812 208.011719 C 555.222656 207.941406 554.8125 207.910156 554.394531 207.914062 C 553.980469 207.917969 553.566406 207.960938 553.160156 208.039062 C 552.753906 208.121094 552.359375 208.234375 551.976562 208.382812 C 551.59375 208.535156 551.230469 208.71875 550.886719 208.933594 C 550.546875 209.148438 550.226562 209.394531 549.9375 209.667969 C 549.648438 209.941406 549.386719 210.238281 549.160156 210.554688 C 548.933594 210.875 548.742188 211.210938 548.585938 211.566406 C 548.433594 211.921875 548.316406 212.285156 548.238281 212.660156 C 548.164062 213.035156 548.128906 213.410156 548.132812 213.792969 Z M 548.132812 213.792969 " fill-opacity="1" fill-rule="nonzero"/></g></g></g><g clip-path="url(#d89e02103f)"><g clip-path="url(#34ef12c257)"><g clip-path="url(#de5c045d00)"><path fill="#71625b" d="M 548.828125 209.855469 C 548.832031 210.191406 548.871094 210.523438 548.949219 210.851562 C 549.023438 211.179688 549.132812 211.5 549.277344 211.808594 C 549.421875 212.117188 549.597656 212.410156 549.804688 212.6875 C 550.011719 212.964844 550.246094 213.222656 550.507812 213.457031 C 550.773438 213.691406 551.054688 213.898438 551.363281 214.082031 C 551.671875 214.265625 551.996094 214.417969 552.335938 214.542969 C 552.675781 214.667969 553.027344 214.761719 553.386719 214.824219 C 553.746094 214.882812 554.113281 214.914062 554.480469 214.910156 C 554.84375 214.902344 555.207031 214.867188 555.566406 214.796875 C 555.925781 214.726562 556.273438 214.625 556.613281 214.492188 C 556.949219 214.359375 557.269531 214.199219 557.574219 214.007812 C 557.875 213.816406 558.15625 213.601562 558.410156 213.359375 C 558.667969 213.121094 558.898438 212.859375 559.097656 212.578125 C 559.296875 212.292969 559.464844 211.996094 559.601562 211.683594 C 559.738281 211.371094 559.84375 211.050781 559.910156 210.722656 C 559.976562 210.390625 560.007812 210.058594 560.003906 209.71875 C 560 209.382812 559.960938 209.050781 559.886719 208.722656 C 559.8125 208.394531 559.699219 208.074219 559.554688 207.765625 C 559.414062 207.457031 559.238281 207.164062 559.03125 206.886719 C 558.824219 206.609375 558.585938 206.355469 558.324219 206.121094 C 558.0625 205.882812 557.777344 205.675781 557.472656 205.492188 C 557.164062 205.308594 556.839844 205.15625 556.5 205.03125 C 556.160156 204.90625 555.808594 204.8125 555.449219 204.753906 C 555.085938 204.691406 554.722656 204.664062 554.355469 204.667969 C 553.988281 204.671875 553.625 204.707031 553.265625 204.777344 C 552.90625 204.847656 552.558594 204.949219 552.222656 205.082031 C 551.886719 205.214844 551.566406 205.375 551.261719 205.566406 C 550.960938 205.757812 550.679688 205.972656 550.421875 206.214844 C 550.167969 206.453125 549.9375 206.714844 549.738281 207 C 549.535156 207.28125 549.367188 207.578125 549.230469 207.890625 C 549.09375 208.203125 548.992188 208.523438 548.925781 208.855469 C 548.855469 209.183594 548.824219 209.519531 548.828125 209.855469 Z M 548.828125 209.855469 " fill-opacity="1" fill-rule="nonzero"/></g></g></g><g clip-path="url(#658747b8bb)"><g clip-path="url(#beb17b06e2)"><g clip-path="url(#9167f63556)"><path fill="#71625b" d="M 549.898438 205.714844 C 549.902344 205.984375 549.933594 206.25 549.992188 206.515625 C 550.054688 206.777344 550.140625 207.03125 550.257812 207.28125 C 550.371094 207.527344 550.511719 207.761719 550.679688 207.984375 C 550.84375 208.207031 551.03125 208.410156 551.242188 208.597656 C 551.453125 208.785156 551.679688 208.953125 551.925781 209.097656 C 552.171875 209.246094 552.429688 209.367188 552.703125 209.46875 C 552.976562 209.566406 553.257812 209.640625 553.542969 209.691406 C 553.832031 209.742188 554.125 209.761719 554.417969 209.757812 C 554.710938 209.757812 555 209.726562 555.289062 209.671875 C 555.578125 209.613281 555.855469 209.535156 556.125 209.425781 C 556.394531 209.320312 556.652344 209.191406 556.894531 209.039062 C 557.136719 208.886719 557.359375 208.714844 557.566406 208.523438 C 557.769531 208.328125 557.953125 208.121094 558.113281 207.894531 C 558.273438 207.667969 558.410156 207.429688 558.519531 207.179688 C 558.628906 206.929688 558.707031 206.675781 558.761719 206.410156 C 558.816406 206.144531 558.84375 205.878906 558.839844 205.609375 C 558.835938 205.339844 558.804688 205.074219 558.742188 204.8125 C 558.683594 204.546875 558.59375 204.292969 558.480469 204.046875 C 558.363281 203.796875 558.222656 203.5625 558.058594 203.34375 C 557.894531 203.121094 557.707031 202.917969 557.496094 202.726562 C 557.285156 202.539062 557.058594 202.375 556.8125 202.226562 C 556.566406 202.082031 556.308594 201.957031 556.035156 201.859375 C 555.761719 201.757812 555.480469 201.683594 555.191406 201.632812 C 554.90625 201.585938 554.613281 201.5625 554.320312 201.566406 C 554.027344 201.570312 553.734375 201.597656 553.449219 201.65625 C 553.160156 201.710938 552.882812 201.792969 552.613281 201.898438 C 552.34375 202.003906 552.085938 202.132812 551.84375 202.285156 C 551.601562 202.4375 551.378906 202.609375 551.171875 202.804688 C 550.96875 202.996094 550.785156 203.207031 550.625 203.429688 C 550.464844 203.65625 550.328125 203.894531 550.21875 204.144531 C 550.109375 204.394531 550.027344 204.652344 549.976562 204.917969 C 549.921875 205.179688 549.894531 205.449219 549.898438 205.714844 Z M 549.898438 205.714844 " fill-opacity="1" fill-rule="nonzero"/></g></g></g><g clip-path="url(#550ffa0cd9)"><g clip-path="url(#b6ee4d5091)"><g clip-path="url(#08d5cea97b)"><path fill="#71625b" d="M 559.761719 221.414062 L 549.351562 221.539062 L 555.640625 747.855469 L 566.050781 747.730469 Z M 559.761719 221.414062 " fill-opacity="1" fill-rule="evenodd"/></g></g></g><g clip-path="url(#9383b9cfc2)"><g clip-path="url(#c933f8dbf6)"><g clip-path="url(#ef0f25d64f)"><path fill="#007489" d="M 801.738281 360.375 C 801.738281 360.375 801.90625 360.25 802.21875 360.019531 C 802.296875 359.960938 802.382812 359.898438 802.480469 359.828125 C 802.585938 359.765625 802.695312 359.695312 802.820312 359.621094 C 802.941406 359.546875 803.074219 359.464844 803.214844 359.378906 C 803.359375 359.289062 803.515625 359.222656 803.683594 359.136719 C 803.847656 359.050781 804.023438 358.964844 804.207031 358.875 C 804.394531 358.785156 804.597656 358.714844 804.808594 358.628906 C 805.019531 358.550781 805.234375 358.449219 805.46875 358.382812 C 805.703125 358.3125 805.945312 358.242188 806.199219 358.167969 C 806.324219 358.132812 806.453125 358.085938 806.585938 358.058594 C 806.71875 358.03125 806.851562 358.007812 806.988281 357.976562 C 807.265625 357.925781 807.546875 357.863281 807.84375 357.816406 C 808.136719 357.78125 808.4375 357.75 808.75 357.71875 C 808.90625 357.703125 809.0625 357.683594 809.222656 357.675781 C 809.382812 357.671875 809.542969 357.667969 809.707031 357.664062 C 810.03125 357.65625 810.367188 357.648438 810.710938 357.65625 C 811.046875 357.679688 811.394531 357.703125 811.746094 357.730469 C 811.921875 357.742188 812.101562 357.75 812.277344 357.773438 C 812.457031 357.800781 812.632812 357.828125 812.8125 357.859375 C 813.171875 357.917969 813.539062 357.976562 813.90625 358.039062 C 815.363281 358.375 816.890625 358.808594 818.367188 359.460938 C 818.738281 359.621094 819.117188 359.777344 819.496094 359.945312 C 819.855469 360.132812 820.222656 360.324219 820.589844 360.511719 C 820.773438 360.609375 820.960938 360.703125 821.144531 360.800781 C 821.328125 360.898438 821.519531 360.988281 821.695312 361.097656 C 822.050781 361.316406 822.40625 361.535156 822.765625 361.753906 C 822.945312 361.863281 823.125 361.976562 823.304688 362.085938 C 823.484375 362.195312 823.664062 362.308594 823.835938 362.429688 C 824.183594 362.667969 824.527344 362.910156 824.875 363.15625 C 825.210938 363.398438 825.546875 363.636719 825.882812 363.875 L 826.875 364.601562 C 827.042969 364.730469 827.195312 364.832031 827.355469 364.941406 L 827.832031 365.273438 C 828.144531 365.492188 828.476562 365.707031 828.804688 365.921875 C 829.132812 366.136719 829.460938 366.351562 829.792969 366.550781 C 830.125 366.753906 830.449219 366.972656 830.789062 367.15625 C 831.457031 367.546875 832.128906 367.914062 832.796875 368.277344 C 833.132812 368.449219 833.46875 368.617188 833.804688 368.785156 C 834.140625 368.949219 834.476562 369.109375 834.808594 369.265625 C 836.148438 369.878906 837.472656 370.410156 838.757812 370.847656 C 839.074219 370.960938 839.394531 371.054688 839.710938 371.160156 C 840.023438 371.261719 840.339844 371.339844 840.644531 371.4375 C 840.953125 371.527344 841.257812 371.605469 841.554688 371.6875 C 841.855469 371.761719 842.152344 371.835938 842.441406 371.90625 C 843.605469 372.179688 844.691406 372.367188 845.660156 372.503906 C 846.632812 372.636719 847.492188 372.710938 848.203125 372.753906 C 849.628906 372.832031 850.460938 372.78125 850.460938 372.78125 C 850.460938 372.78125 850.414062 372.800781 850.320312 372.839844 C 850.226562 372.878906 850.085938 372.933594 849.902344 373 C 849.53125 373.128906 848.980469 373.300781 848.261719 373.460938 C 847.546875 373.625 846.660156 373.773438 845.632812 373.867188 C 844.605469 373.960938 843.4375 374 842.164062 373.933594 C 841.84375 373.917969 841.519531 373.894531 841.1875 373.867188 C 840.859375 373.832031 840.519531 373.804688 840.179688 373.761719 C 839.496094 373.675781 838.789062 373.558594 838.070312 373.417969 C 836.628906 373.128906 835.128906 372.714844 833.621094 372.167969 C 833.246094 372.027344 832.867188 371.890625 832.488281 371.738281 C 832.113281 371.578125 831.738281 371.417969 831.355469 371.253906 C 830.984375 371.078125 830.605469 370.90625 830.226562 370.730469 C 829.855469 370.546875 829.488281 370.34375 829.113281 370.148438 C 828.738281 369.960938 828.378906 369.742188 828.007812 369.535156 C 827.824219 369.429688 827.636719 369.328125 827.457031 369.21875 L 826.917969 368.878906 C 826.554688 368.65625 826.195312 368.433594 825.839844 368.183594 L 825.300781 367.816406 C 825.125 367.691406 824.933594 367.570312 824.777344 367.449219 C 824.121094 366.960938 823.464844 366.476562 822.8125 365.992188 C 822.492188 365.761719 822.179688 365.527344 821.867188 365.289062 C 821.710938 365.167969 821.550781 365.058594 821.390625 364.953125 C 821.226562 364.84375 821.066406 364.738281 820.90625 364.628906 C 820.585938 364.414062 820.265625 364.199219 819.945312 363.984375 C 819.792969 363.871094 819.625 363.78125 819.464844 363.683594 C 819.300781 363.585938 819.140625 363.488281 818.980469 363.390625 C 818.65625 363.195312 818.332031 363 818.015625 362.808594 C 817.6875 362.640625 817.363281 362.464844 817.042969 362.292969 C 816.882812 362.207031 816.722656 362.121094 816.5625 362.035156 C 816.480469 361.992188 816.402344 361.945312 816.320312 361.910156 L 816.078125 361.800781 C 815.753906 361.65625 815.433594 361.503906 815.113281 361.355469 C 814.957031 361.285156 814.800781 361.199219 814.636719 361.144531 C 814.476562 361.082031 814.316406 361.023438 814.160156 360.960938 C 813.839844 360.84375 813.527344 360.71875 813.214844 360.597656 C 812.898438 360.5 812.585938 360.402344 812.28125 360.308594 C 812.125 360.261719 811.972656 360.214844 811.820312 360.164062 C 811.667969 360.128906 811.515625 360.09375 811.363281 360.054688 C 811.058594 359.984375 810.761719 359.910156 810.46875 359.84375 C 810.171875 359.792969 809.878906 359.746094 809.59375 359.699219 C 809.449219 359.675781 809.308594 359.652344 809.167969 359.625 C 809.023438 359.609375 808.886719 359.601562 808.746094 359.589844 C 808.46875 359.566406 808.199219 359.542969 807.929688 359.515625 C 807.664062 359.503906 807.40625 359.503906 807.152344 359.5 C 807.023438 359.5 806.898438 359.496094 806.777344 359.492188 C 806.652344 359.492188 806.53125 359.503906 806.410156 359.507812 C 806.171875 359.523438 805.9375 359.535156 805.710938 359.546875 C 805.597656 359.550781 805.488281 359.566406 805.382812 359.582031 C 805.273438 359.59375 805.167969 359.605469 805.0625 359.621094 C 804.855469 359.644531 804.652344 359.664062 804.460938 359.699219 C 804.269531 359.734375 804.089844 359.769531 803.914062 359.800781 C 803.5625 359.859375 803.265625 359.945312 802.996094 360.011719 C 802.859375 360.042969 802.734375 360.074219 802.621094 360.105469 C 802.507812 360.140625 802.402344 360.171875 802.308594 360.203125 C 801.9375 360.316406 801.738281 360.375 801.738281 360.375 " fill-opacity="1" fill-rule="nonzero"/></g></g></g><g clip-path="url(#0681af5d92)"><g clip-path="url(#bf2d3ef485)"><g clip-path="url(#df9d43cb43)"><path fill="#007489" d="M 850.507812 372.769531 C 850.003906 372.632812 849.507812 372.484375 849.011719 372.339844 C 848.515625 372.1875 848.015625 372.058594 847.527344 371.875 C 847.035156 371.703125 846.546875 371.519531 846.054688 371.339844 C 845.808594 371.25 845.558594 371.160156 845.320312 371.0625 L 844.597656 370.753906 C 844.117188 370.554688 843.636719 370.34375 843.15625 370.132812 C 842.6875 369.90625 842.214844 369.679688 841.746094 369.445312 L 841.039062 369.09375 L 840.347656 368.71875 C 839.886719 368.46875 839.425781 368.214844 838.972656 367.949219 L 837.621094 367.128906 C 837.398438 366.992188 837.175781 366.847656 836.960938 366.699219 L 836.300781 366.257812 C 836.082031 366.109375 835.859375 365.964844 835.648438 365.808594 L 835.003906 365.339844 L 834.367188 364.871094 L 833.742188 364.378906 L 833.117188 363.882812 C 832.910156 363.714844 832.710938 363.539062 832.507812 363.367188 C 832.304688 363.191406 832.101562 363.023438 831.902344 362.84375 L 831.3125 362.300781 C 831.113281 362.125 830.921875 361.933594 830.726562 361.75 C 830.53125 361.5625 830.335938 361.375 830.152344 361.175781 C 829.964844 360.980469 829.773438 360.789062 829.589844 360.582031 C 829.496094 360.476562 829.402344 360.382812 829.308594 360.269531 C 829.214844 360.160156 829.128906 360.066406 829.015625 359.925781 L 823.035156 352.515625 L 831.246094 357.550781 C 832.003906 358.015625 832.761719 358.476562 833.511719 358.953125 L 835.816406 360.285156 C 836.597656 360.707031 837.367188 361.144531 838.152344 361.546875 L 839.339844 362.140625 L 839.929688 362.441406 C 840.125 362.539062 840.328125 362.628906 840.527344 362.722656 L 841.726562 363.277344 L 842.027344 363.417969 L 842.332031 363.546875 L 842.941406 363.800781 C 843.347656 363.972656 843.746094 364.15625 844.15625 364.316406 L 845.386719 364.792969 C 845.59375 364.867188 845.796875 364.953125 846.003906 365.023438 C 846.210938 365.09375 846.417969 365.167969 846.625 365.238281 C 847.042969 365.382812 847.453125 365.539062 847.871094 365.671875 C 848.710938 365.929688 849.546875 366.199219 850.394531 366.421875 C 851.238281 366.671875 852.097656 366.851562 852.953125 367.054688 L 854.242188 367.316406 C 854.671875 367.402344 855.109375 367.460938 855.542969 367.535156 C 855.976562 367.617188 856.410156 367.664062 856.847656 367.722656 C 857.066406 367.75 857.28125 367.785156 857.5 367.808594 L 858.15625 367.867188 L 858.816406 367.9375 L 859.476562 367.980469 L 860.136719 368.019531 L 860.796875 368.039062 L 861.460938 368.0625 L 862.125 368.0625 C 862.566406 368.066406 863.007812 368.046875 863.453125 368.035156 C 864.339844 368.003906 865.226562 367.933594 866.117188 367.835938 C 867.003906 367.738281 867.886719 367.589844 868.773438 367.417969 C 868.996094 367.375 869.210938 367.320312 869.433594 367.273438 C 869.65625 367.226562 869.875 367.167969 870.09375 367.117188 C 870.53125 367 870.96875 366.871094 871.398438 366.71875 C 871.027344 366.988281 870.625 367.21875 870.222656 367.4375 C 869.816406 367.65625 869.402344 367.867188 868.976562 368.050781 C 868.554688 368.242188 868.125 368.410156 867.6875 368.574219 L 867.03125 368.808594 C 866.8125 368.882812 866.589844 368.949219 866.367188 369.019531 C 866.144531 369.09375 865.921875 369.15625 865.695312 369.214844 C 865.472656 369.277344 865.246094 369.34375 865.019531 369.398438 L 864.339844 369.558594 L 863.996094 369.636719 L 863.652344 369.703125 L 862.964844 369.832031 C 862.734375 369.878906 862.503906 369.90625 862.273438 369.941406 L 861.578125 370.042969 L 860.878906 370.121094 L 860.179688 370.191406 L 858.773438 370.277344 L 858.070312 370.292969 L 857.367188 370.300781 C 857.128906 370.300781 856.894531 370.292969 856.660156 370.289062 C 856.191406 370.273438 855.722656 370.273438 855.253906 370.234375 C 854.785156 370.199219 854.3125 370.175781 853.847656 370.125 L 852.445312 369.964844 C 851.980469 369.902344 851.519531 369.820312 851.054688 369.746094 C 850.585938 369.679688 850.128906 369.578125 849.667969 369.484375 C 848.742188 369.316406 847.839844 369.0625 846.925781 368.835938 C 846.472656 368.714844 846.027344 368.570312 845.578125 368.4375 C 845.125 368.308594 844.679688 368.167969 844.238281 368.007812 L 842.914062 367.539062 C 842.472656 367.378906 842.039062 367.199219 841.601562 367.027344 L 840.953125 366.765625 L 840.628906 366.632812 L 840.308594 366.488281 L 839.03125 365.910156 C 838.171875 365.539062 837.355469 365.089844 836.519531 364.667969 C 836.3125 364.566406 836.109375 364.453125 835.90625 364.335938 L 835.296875 364 L 834.078125 363.316406 L 831.707031 361.847656 C 830.929688 361.335938 830.167969 360.808594 829.402344 360.289062 L 831.632812 357.910156 C 831.675781 357.972656 831.757812 358.078125 831.824219 358.164062 C 831.894531 358.253906 831.976562 358.347656 832.050781 358.4375 C 832.199219 358.621094 832.363281 358.804688 832.519531 358.988281 C 832.679688 359.171875 832.847656 359.355469 833.011719 359.535156 C 833.175781 359.71875 833.335938 359.902344 833.511719 360.082031 L 834.023438 360.617188 C 834.195312 360.796875 834.378906 360.96875 834.554688 361.144531 L 835.082031 361.667969 L 835.628906 362.179688 L 836.175781 362.695312 L 836.738281 363.191406 L 837.300781 363.691406 C 837.488281 363.855469 837.6875 364.011719 837.878906 364.175781 L 838.457031 364.660156 C 838.648438 364.824219 838.839844 364.984375 839.042969 365.136719 L 840.230469 366.078125 C 840.628906 366.382812 841.042969 366.675781 841.449219 366.980469 L 842.058594 367.433594 L 842.683594 367.867188 L 843.9375 368.742188 C 844.363281 369.015625 844.792969 369.289062 845.21875 369.574219 L 845.863281 369.996094 C 846.078125 370.132812 846.296875 370.257812 846.515625 370.394531 C 846.949219 370.660156 847.390625 370.921875 847.824219 371.195312 L 848.152344 371.402344 L 848.492188 371.589844 L 849.164062 371.980469 C 849.613281 372.242188 850.0625 372.5 850.507812 372.769531 " fill-opacity="1" fill-rule="nonzero"/></g></g></g><g clip-path="url(#6b8e9abd3b)"><g clip-path="url(#20b5c45407)"><g clip-path="url(#d4486deadc)"><path fill="#007489" d="M 871.398438 366.71875 C 870.808594 366.640625 870.222656 366.542969 869.632812 366.453125 C 869.339844 366.40625 869.042969 366.363281 868.75 366.3125 L 868.3125 366.238281 L 867.875 366.148438 L 866.117188 365.769531 C 865.824219 365.703125 865.527344 365.644531 865.238281 365.566406 L 864.371094 365.339844 L 862.636719 364.871094 C 862.0625 364.695312 861.492188 364.511719 860.917969 364.332031 C 860.632812 364.242188 860.347656 364.152344 860.0625 364.058594 L 859.214844 363.753906 C 858.648438 363.546875 858.078125 363.351562 857.519531 363.132812 L 855.847656 362.457031 C 855.566406 362.347656 855.292969 362.21875 855.015625 362.097656 L 854.191406 361.730469 C 853.636719 361.488281 853.097656 361.222656 852.550781 360.957031 L 851.738281 360.5625 L 850.933594 360.140625 L 850.132812 359.714844 L 849.339844 359.265625 C 848.808594 358.972656 848.289062 358.660156 847.769531 358.34375 C 847.507812 358.1875 847.253906 358.019531 846.996094 357.855469 C 846.738281 357.691406 846.480469 357.527344 846.226562 357.351562 C 845.96875 357.183594 845.714844 357.011719 845.460938 356.832031 C 845.332031 356.738281 845.207031 356.65625 845.078125 356.558594 C 844.945312 356.460938 844.828125 356.375 844.679688 356.257812 L 834.699219 348.417969 L 846.457031 353.398438 L 848.957031 354.457031 L 851.476562 355.460938 C 852.316406 355.78125 853.171875 356.074219 854.015625 356.390625 C 854.867188 356.683594 855.71875 356.96875 856.574219 357.25 L 857.863281 357.636719 C 858.292969 357.765625 858.722656 357.910156 859.15625 358.019531 C 860.023438 358.253906 860.886719 358.503906 861.757812 358.699219 C 862.195312 358.804688 862.628906 358.914062 863.066406 359.015625 L 864.378906 359.285156 C 864.601562 359.328125 864.820312 359.378906 865.039062 359.417969 L 865.699219 359.53125 C 866.140625 359.609375 866.578125 359.695312 867.019531 359.761719 C 867.90625 359.882812 868.789062 360.015625 869.679688 360.101562 L 870.347656 360.175781 L 871.011719 360.222656 L 871.679688 360.269531 L 872.015625 360.296875 L 872.351562 360.3125 C 872.796875 360.328125 873.242188 360.351562 873.6875 360.363281 C 874.136719 360.363281 874.582031 360.363281 875.03125 360.367188 L 876.371094 360.332031 L 877.710938 360.246094 L 879.050781 360.117188 C 879.492188 360.046875 879.941406 360.007812 880.382812 359.929688 C 880.828125 359.855469 881.273438 359.785156 881.710938 359.691406 C 881.929688 359.644531 882.15625 359.609375 882.375 359.554688 L 883.03125 359.398438 C 883.910156 359.175781 884.78125 358.917969 885.636719 358.605469 C 886.492188 358.292969 887.339844 357.941406 888.144531 357.476562 C 887.820312 357.808594 887.453125 358.105469 887.078125 358.382812 C 886.703125 358.667969 886.316406 358.933594 885.917969 359.179688 C 885.117188 359.675781 884.277344 360.109375 883.414062 360.5 C 882.550781 360.882812 881.664062 361.21875 880.757812 361.503906 C 880.535156 361.582031 880.304688 361.644531 880.078125 361.710938 L 879.394531 361.90625 C 878.933594 362.019531 878.46875 362.128906 878.007812 362.234375 C 877.539062 362.328125 877.074219 362.421875 876.605469 362.503906 L 875.195312 362.710938 C 874.722656 362.761719 874.25 362.8125 873.773438 362.855469 C 873.300781 362.894531 872.824219 362.917969 872.351562 362.949219 C 871.875 362.984375 871.402344 362.976562 870.925781 362.984375 L 870.210938 362.992188 L 869.5 362.976562 L 868.785156 362.957031 C 868.546875 362.953125 868.308594 362.945312 868.074219 362.921875 L 866.652344 362.820312 C 866.179688 362.777344 865.710938 362.71875 865.238281 362.667969 L 864.53125 362.589844 C 864.296875 362.558594 864.0625 362.515625 863.828125 362.480469 L 862.421875 362.257812 C 861.957031 362.175781 861.492188 362.078125 861.027344 361.988281 C 860.097656 361.820312 859.183594 361.574219 858.261719 361.355469 C 857.34375 361.132812 856.441406 360.859375 855.535156 360.601562 C 854.636719 360.3125 853.738281 360.023438 852.84375 359.722656 C 851.964844 359.398438 851.078125 359.074219 850.203125 358.734375 C 849.335938 358.375 848.460938 358.03125 847.601562 357.652344 L 845.042969 356.484375 L 846.820312 353.625 L 847.121094 353.871094 C 847.226562 353.957031 847.34375 354.039062 847.453125 354.125 C 847.671875 354.300781 847.902344 354.46875 848.128906 354.636719 C 848.355469 354.808594 848.589844 354.972656 848.824219 355.136719 C 849.058594 355.300781 849.289062 355.472656 849.53125 355.628906 C 850.011719 355.949219 850.480469 356.28125 850.96875 356.589844 L 851.695312 357.0625 L 853.171875 357.976562 L 853.921875 358.421875 C 854.417969 358.714844 854.917969 359.015625 855.429688 359.292969 C 855.9375 359.570312 856.4375 359.871094 856.953125 360.140625 L 858.5 360.960938 C 859.015625 361.238281 859.539062 361.488281 860.0625 361.753906 L 860.847656 362.148438 C 861.109375 362.277344 861.375 362.398438 861.640625 362.523438 C 862.167969 362.777344 862.703125 363.019531 863.230469 363.277344 L 864.839844 363.992188 L 865.644531 364.355469 C 865.914062 364.480469 866.1875 364.582031 866.460938 364.699219 L 868.089844 365.382812 L 868.5 365.558594 L 868.914062 365.71875 C 869.191406 365.824219 869.46875 365.9375 869.742188 366.046875 C 870.296875 366.269531 870.851562 366.488281 871.398438 366.71875 " fill-opacity="1" fill-rule="nonzero"/></g></g></g><g clip-path="url(#d036864033)"><g clip-path="url(#8a88e4e47e)"><g clip-path="url(#09c2561a10)"><path fill="#007489" d="M 888.144531 357.476562 C 887.777344 357.527344 887.40625 357.578125 887.035156 357.621094 C 886.667969 357.664062 886.289062 357.675781 885.914062 357.707031 C 885.535156 357.738281 885.164062 357.734375 884.785156 357.738281 L 884.222656 357.742188 C 884.03125 357.742188 883.84375 357.730469 883.65625 357.722656 L 883.09375 357.699219 C 882.902344 357.691406 882.714844 357.683594 882.527344 357.664062 L 881.402344 357.570312 C 880.652344 357.476562 879.902344 357.390625 879.160156 357.261719 C 878.410156 357.148438 877.675781 356.988281 876.933594 356.84375 C 876.199219 356.679688 875.460938 356.507812 874.734375 356.316406 C 874 356.132812 873.277344 355.921875 872.554688 355.707031 C 871.835938 355.488281 871.113281 355.265625 870.402344 355.023438 C 870.042969 354.910156 869.6875 354.78125 869.332031 354.65625 C 868.980469 354.527344 868.621094 354.40625 868.269531 354.273438 L 867.210938 353.875 L 866.164062 353.460938 C 865.464844 353.179688 864.769531 352.894531 864.078125 352.597656 C 863.386719 352.300781 862.699219 351.996094 862.015625 351.679688 C 861.332031 351.367188 860.652344 351.042969 859.976562 350.71875 C 859.300781 350.386719 858.625 350.054688 857.957031 349.707031 C 857.289062 349.359375 856.625 349.007812 855.960938 348.644531 L 854.96875 348.097656 C 854.636719 347.910156 854.316406 347.726562 853.972656 347.519531 L 840.648438 339.53125 L 855.449219 344.480469 L 857.042969 345.011719 L 857.835938 345.277344 C 858.101562 345.367188 858.367188 345.457031 858.636719 345.53125 C 859.171875 345.6875 859.707031 345.847656 860.238281 346.007812 L 861.042969 346.25 C 861.308594 346.328125 861.578125 346.394531 861.847656 346.464844 L 863.464844 346.886719 C 863.601562 346.921875 863.734375 346.960938 863.871094 346.992188 L 864.277344 347.078125 L 865.09375 347.261719 L 865.90625 347.445312 C 866.175781 347.507812 866.449219 347.574219 866.722656 347.621094 L 868.359375 347.925781 C 868.902344 348.035156 869.453125 348.101562 870.003906 348.1875 L 870.824219 348.3125 C 871.101562 348.355469 871.375 348.402344 871.648438 348.429688 L 873.300781 348.609375 L 873.714844 348.65625 L 874.128906 348.683594 L 874.957031 348.746094 C 875.507812 348.785156 876.0625 348.835938 876.613281 348.84375 C 877.167969 348.863281 877.71875 348.886719 878.273438 348.898438 C 878.828125 348.890625 879.378906 348.890625 879.933594 348.894531 C 880.210938 348.898438 880.488281 348.886719 880.761719 348.871094 L 881.59375 348.839844 C 881.867188 348.824219 882.144531 348.824219 882.421875 348.800781 L 883.246094 348.730469 L 884.078125 348.667969 C 884.351562 348.648438 884.625 348.609375 884.902344 348.578125 C 886.003906 348.464844 887.097656 348.289062 888.191406 348.101562 L 889.007812 347.945312 C 889.28125 347.890625 889.554688 347.847656 889.824219 347.777344 L 890.632812 347.589844 C 890.90625 347.527344 891.179688 347.472656 891.445312 347.394531 L 892.25 347.183594 C 892.519531 347.109375 892.789062 347.042969 893.054688 346.957031 L 893.855469 346.710938 L 894.253906 346.589844 L 894.648438 346.457031 C 895.179688 346.277344 895.710938 346.101562 896.226562 345.894531 L 897.011719 345.597656 L 897.789062 345.277344 L 898.179688 345.117188 L 898.5625 344.945312 L 899.332031 344.601562 L 900.46875 344.050781 L 900.84375 343.855469 C 901.851562 343.34375 902.828125 342.78125 903.792969 342.179688 C 904.273438 341.878906 904.75 341.570312 905.21875 341.246094 C 905.683594 340.917969 906.144531 340.582031 906.597656 340.226562 C 906.230469 340.671875 905.835938 341.089844 905.429688 341.5 C 905.023438 341.90625 904.609375 342.308594 904.171875 342.6875 C 903.308594 343.457031 902.398438 344.175781 901.449219 344.847656 L 901.09375 345.097656 L 900.003906 345.824219 L 899.257812 346.277344 L 898.882812 346.507812 L 898.503906 346.722656 L 897.742188 347.152344 C 897.484375 347.292969 897.222656 347.421875 896.964844 347.554688 C 896.449219 347.828125 895.917969 348.070312 895.386719 348.316406 C 894.324219 348.8125 893.230469 349.234375 892.128906 349.636719 C 891.578125 349.839844 891.015625 350.003906 890.457031 350.1875 C 890.175781 350.28125 889.894531 350.351562 889.609375 350.433594 L 888.761719 350.667969 C 887.625 350.964844 886.476562 351.21875 885.316406 351.417969 C 885.027344 351.46875 884.738281 351.53125 884.445312 351.574219 L 883.574219 351.695312 L 882.699219 351.816406 C 882.40625 351.855469 882.113281 351.875 881.820312 351.902344 L 880.941406 351.984375 C 880.648438 352.011719 880.355469 352.042969 880.0625 352.050781 C 879.472656 352.082031 878.886719 352.113281 878.296875 352.136719 C 877.710938 352.148438 877.121094 352.144531 876.535156 352.144531 C 875.945312 352.15625 875.359375 352.128906 874.773438 352.105469 L 873.890625 352.070312 L 873.449219 352.046875 L 873.011719 352.007812 L 871.257812 351.855469 C 870.960938 351.835938 870.671875 351.789062 870.382812 351.753906 L 869.507812 351.640625 C 868.929688 351.566406 868.34375 351.492188 867.769531 351.378906 L 866.039062 351.070312 C 865.75 351.027344 865.464844 350.957031 865.179688 350.894531 L 864.320312 350.707031 L 863.464844 350.519531 L 863.039062 350.421875 C 862.894531 350.386719 862.753906 350.347656 862.613281 350.308594 L 860.921875 349.855469 C 860.636719 349.777344 860.355469 349.707031 860.074219 349.625 L 859.238281 349.367188 C 858.679688 349.195312 858.125 349.019531 857.570312 348.839844 C 857.289062 348.757812 857.019531 348.65625 856.742188 348.558594 L 855.921875 348.261719 L 854.277344 347.667969 L 855.757812 344.628906 L 856.671875 345.191406 L 857.605469 345.753906 C 858.234375 346.125 858.867188 346.492188 859.503906 346.851562 L 861.417969 347.925781 C 862.0625 348.277344 862.707031 348.625 863.355469 348.964844 C 864.003906 349.300781 864.652344 349.644531 865.304688 349.972656 C 865.957031 350.308594 866.613281 350.628906 867.273438 350.949219 L 868.261719 351.425781 L 869.257812 351.890625 C 869.585938 352.050781 869.921875 352.195312 870.257812 352.347656 C 870.589844 352.5 870.925781 352.644531 871.261719 352.789062 C 871.929688 353.089844 872.605469 353.367188 873.28125 353.648438 L 874.300781 354.054688 C 874.640625 354.191406 874.980469 354.324219 875.324219 354.449219 C 875.667969 354.578125 876.007812 354.714844 876.355469 354.832031 L 877.390625 355.195312 C 878.082031 355.425781 878.777344 355.664062 879.480469 355.863281 C 880.179688 356.085938 880.886719 356.265625 881.597656 356.453125 L 882.667969 356.707031 C 883.023438 356.796875 883.386719 356.851562 883.746094 356.929688 C 883.925781 356.964844 884.105469 357.003906 884.289062 357.039062 L 884.832031 357.125 C 885.195312 357.175781 885.5625 357.25 885.925781 357.285156 C 886.292969 357.320312 886.65625 357.378906 887.027344 357.402344 C 887.402344 357.421875 887.773438 357.453125 888.144531 357.476562 " fill-opacity="1" fill-rule="nonzero"/></g></g></g><g clip-path="url(#8540726203)"><g clip-path="url(#354ea8dcad)"><g clip-path="url(#45508e39d8)"><g clip-path="url(#67175a749d)"><path fill="#007489" d="M 907.046875 339.765625 C 906.148438 339.988281 905.25 340.210938 904.34375 340.40625 L 902.980469 340.6875 L 902.296875 340.824219 L 901.609375 340.945312 L 900.234375 341.171875 C 899.777344 341.253906 899.316406 341.304688 898.855469 341.371094 C 898.394531 341.429688 897.929688 341.5 897.46875 341.546875 L 896.078125 341.691406 C 895.847656 341.714844 895.613281 341.742188 895.382812 341.761719 L 894.683594 341.808594 L 893.289062 341.910156 L 891.886719 341.96875 L 891.1875 341.996094 L 890.488281 342.003906 L 889.082031 342.019531 L 887.679688 342 C 887.210938 341.996094 886.742188 341.972656 886.273438 341.949219 C 885.808594 341.925781 885.339844 341.917969 884.871094 341.878906 L 883.464844 341.78125 L 882.066406 341.648438 C 881.597656 341.605469 881.132812 341.542969 880.664062 341.488281 L 879.964844 341.402344 L 879.265625 341.300781 C 878.332031 341.171875 877.40625 341.003906 876.480469 340.835938 L 875.09375 340.5625 L 873.710938 340.257812 L 872.335938 339.917969 C 871.878906 339.792969 871.421875 339.675781 870.96875 339.546875 C 870.058594 339.285156 869.152344 339.015625 868.25 338.707031 C 867.351562 338.40625 866.457031 338.078125 865.570312 337.71875 C 865.125 337.539062 864.683594 337.351562 864.242188 337.160156 C 864.019531 337.058594 863.800781 336.960938 863.574219 336.855469 L 863.070312 336.609375 L 862.878906 336.511719 L 853.488281 331.660156 L 864.003906 333.386719 L 866.191406 333.746094 L 868.386719 334.054688 L 870.585938 334.304688 C 871.320312 334.363281 872.054688 334.449219 872.789062 334.5 C 874.257812 334.605469 875.726562 334.6875 877.195312 334.703125 L 878.292969 334.71875 L 879.394531 334.707031 C 880.128906 334.707031 880.859375 334.667969 881.589844 334.640625 C 881.957031 334.632812 882.320312 334.597656 882.6875 334.574219 C 883.050781 334.546875 883.417969 334.527344 883.78125 334.496094 C 884.507812 334.417969 885.238281 334.371094 885.960938 334.269531 L 887.050781 334.136719 L 888.132812 333.96875 C 888.492188 333.917969 888.851562 333.847656 889.207031 333.78125 C 889.566406 333.710938 889.925781 333.652344 890.28125 333.578125 C 891.710938 333.289062 893.125 332.9375 894.527344 332.535156 C 895.917969 332.113281 897.296875 331.640625 898.652344 331.113281 C 900.011719 330.578125 901.332031 329.964844 902.632812 329.308594 C 903.933594 328.644531 905.195312 327.914062 906.429688 327.125 C 907.660156 326.339844 908.847656 325.480469 910 324.574219 C 911.15625 323.667969 912.261719 322.695312 913.324219 321.675781 C 914.394531 320.660156 915.40625 319.582031 916.378906 318.464844 C 916.863281 317.902344 917.335938 317.332031 917.792969 316.746094 C 918.257812 316.164062 918.703125 315.570312 919.136719 314.964844 C 920.003906 313.753906 920.820312 312.503906 921.582031 311.210938 C 922.335938 309.917969 923.046875 308.589844 923.640625 307.199219 C 923.464844 307.9375 923.234375 308.660156 922.984375 309.375 C 922.730469 310.089844 922.460938 310.800781 922.160156 311.5 C 921.566406 312.902344 920.882812 314.269531 920.132812 315.601562 C 919.386719 316.933594 918.558594 318.226562 917.667969 319.476562 C 916.78125 320.730469 915.816406 321.929688 914.796875 323.085938 C 913.773438 324.242188 912.683594 325.339844 911.539062 326.386719 C 910.394531 327.425781 909.1875 328.40625 907.9375 329.324219 C 906.683594 330.242188 905.371094 331.082031 904.023438 331.859375 C 902.675781 332.640625 901.285156 333.347656 899.859375 333.976562 C 898.433594 334.601562 896.976562 335.164062 895.496094 335.652344 C 894.011719 336.125 892.511719 336.546875 890.996094 336.890625 C 890.617188 336.980469 890.234375 337.050781 889.851562 337.128906 C 889.472656 337.210938 889.089844 337.289062 888.707031 337.347656 L 887.558594 337.546875 L 886.40625 337.710938 C 885.636719 337.828125 884.863281 337.898438 884.09375 337.980469 C 883.707031 338.019531 883.320312 338.042969 882.933594 338.074219 C 882.546875 338.101562 882.160156 338.136719 881.773438 338.148438 C 881 338.183594 880.226562 338.230469 879.453125 338.230469 L 878.292969 338.25 L 877.132812 338.234375 C 875.585938 338.207031 874.046875 338.113281 872.507812 337.996094 C 872.125 337.972656 871.742188 337.925781 871.359375 337.890625 L 870.210938 337.769531 L 867.921875 337.472656 L 865.644531 337.113281 L 863.382812 336.691406 L 864.503906 333.566406 L 864.761719 333.707031 L 865.042969 333.851562 C 865.234375 333.949219 865.433594 334.046875 865.628906 334.140625 C 866.027344 334.328125 866.429688 334.515625 866.835938 334.691406 C 867.652344 335.050781 868.484375 335.378906 869.324219 335.691406 C 870.160156 336.015625 871.011719 336.304688 871.867188 336.589844 C 872.292969 336.730469 872.726562 336.859375 873.15625 336.996094 L 874.453125 337.375 L 875.761719 337.730469 L 877.078125 338.0625 C 877.957031 338.273438 878.839844 338.472656 879.726562 338.648438 L 880.394531 338.789062 L 881.0625 338.910156 C 881.507812 338.992188 881.953125 339.082031 882.402344 339.148438 L 883.746094 339.367188 L 885.097656 339.558594 C 885.546875 339.625 886 339.667969 886.449219 339.726562 C 886.902344 339.777344 887.355469 339.835938 887.808594 339.871094 L 889.171875 340 L 890.535156 340.101562 L 891.21875 340.152344 L 891.902344 340.179688 L 893.269531 340.25 L 894.644531 340.28125 L 895.328125 340.300781 L 896.015625 340.300781 L 897.390625 340.304688 C 897.851562 340.304688 898.308594 340.285156 898.765625 340.277344 C 899.226562 340.261719 899.6875 340.265625 900.144531 340.238281 L 901.523438 340.175781 L 902.214844 340.144531 L 902.902344 340.097656 L 904.28125 340.003906 C 905.203125 339.9375 906.125 339.835938 907.046875 339.765625 " fill-opacity="1" fill-rule="nonzero"/></g></g></g></g><g clip-path="url(#c3b147ee95)"><g clip-path="url(#325b310e13)"><g clip-path="url(#eb6b7ba9f1)"><g clip-path="url(#975df7cf9f)"><path fill="#007489" d="M 923.640625 307.199219 C 923.640625 307.199219 923.535156 307.316406 923.328125 307.546875 C 923.121094 307.769531 922.820312 308.113281 922.414062 308.542969 C 922.203125 308.753906 921.96875 308.992188 921.710938 309.25 C 921.453125 309.511719 921.171875 309.800781 920.855469 310.089844 C 920.535156 310.382812 920.203125 310.710938 919.832031 311.039062 C 919.453125 311.363281 919.050781 311.707031 918.628906 312.070312 C 916.90625 313.5 914.679688 315.09375 911.933594 316.632812 C 910.558594 317.394531 909.046875 318.128906 907.414062 318.820312 C 907.003906 318.988281 906.585938 319.15625 906.167969 319.324219 C 905.738281 319.480469 905.304688 319.640625 904.871094 319.800781 C 903.988281 320.101562 903.082031 320.402344 902.144531 320.671875 C 900.277344 321.21875 898.292969 321.664062 896.222656 322.027344 C 894.152344 322.386719 891.992188 322.632812 889.765625 322.789062 C 885.316406 323.09375 880.613281 322.960938 875.808594 322.488281 C 873.40625 322.261719 870.980469 321.933594 868.539062 321.550781 C 867.316406 321.355469 866.09375 321.152344 864.867188 320.933594 C 863.640625 320.714844 862.414062 320.472656 861.1875 320.230469 C 858.730469 319.738281 856.265625 319.230469 853.816406 318.695312 C 851.363281 318.164062 848.914062 317.640625 846.484375 317.183594 C 844.058594 316.722656 841.640625 316.320312 839.328125 316.167969 C 839.035156 316.144531 838.75 316.136719 838.46875 316.125 L 838.253906 316.117188 C 838.257812 316.117188 838.171875 316.113281 838.246094 316.113281 L 838.070312 316.113281 L 837.597656 316.109375 L 836.660156 316.101562 C 836.503906 316.101562 836.339844 316.097656 836.195312 316.097656 L 835.757812 316.113281 L 834.890625 316.132812 L 834.457031 316.144531 L 834.015625 316.171875 L 833.132812 316.230469 L 832.691406 316.257812 L 832.253906 316.300781 C 831.085938 316.414062 829.929688 316.566406 828.792969 316.773438 C 828.507812 316.824219 828.226562 316.875 827.941406 316.929688 C 827.65625 316.972656 827.382812 317.050781 827.101562 317.109375 C 826.820312 317.171875 826.542969 317.234375 826.265625 317.300781 C 825.988281 317.375 825.714844 317.449219 825.441406 317.523438 C 823.25 318.125 821.15625 318.929688 819.210938 319.941406 C 817.269531 320.953125 815.464844 322.15625 813.84375 323.523438 C 812.21875 324.886719 810.761719 326.394531 809.492188 328 C 808.214844 329.597656 807.101562 331.277344 806.148438 332.984375 C 805.1875 334.691406 804.382812 336.417969 803.6875 338.117188 C 802.988281 339.816406 802.425781 341.496094 801.9375 343.113281 C 801.445312 344.730469 801.058594 346.292969 800.726562 347.773438 C 800.070312 350.738281 799.683594 353.371094 799.425781 355.554688 C 799.179688 357.738281 799.046875 359.464844 798.996094 360.648438 C 798.972656 361.238281 798.953125 361.695312 798.945312 362 C 798.941406 362.304688 798.9375 362.464844 798.9375 362.464844 C 798.9375 362.464844 798.914062 362.308594 798.867188 362.003906 C 798.824219 361.699219 798.757812 361.25 798.699219 360.65625 C 798.578125 359.476562 798.414062 357.734375 798.378906 355.503906 C 798.335938 353.277344 798.398438 350.558594 798.734375 347.449219 C 799.078125 344.339844 799.6875 340.835938 800.835938 337.101562 C 801.414062 335.238281 802.140625 333.324219 803.035156 331.390625 C 803.253906 330.90625 803.503906 330.429688 803.742188 329.945312 C 804.003906 329.46875 804.253906 328.980469 804.535156 328.503906 C 804.8125 328.027344 805.089844 327.542969 805.398438 327.070312 C 805.550781 326.832031 805.695312 326.589844 805.855469 326.355469 C 806.015625 326.121094 806.179688 325.886719 806.339844 325.648438 L 806.585938 325.292969 L 806.84375 324.949219 C 807.015625 324.714844 807.191406 324.484375 807.363281 324.25 C 807.546875 324.023438 807.730469 323.796875 807.917969 323.570312 C 808.101562 323.339844 808.285156 323.109375 808.484375 322.890625 C 808.683594 322.671875 808.878906 322.449219 809.078125 322.226562 C 809.269531 322 809.488281 321.789062 809.691406 321.574219 C 809.902344 321.359375 810.105469 321.132812 810.324219 320.925781 C 810.542969 320.71875 810.761719 320.507812 810.984375 320.296875 C 811.199219 320.082031 811.429688 319.882812 811.664062 319.683594 C 811.894531 319.480469 812.125 319.28125 812.359375 319.078125 C 812.597656 318.886719 812.84375 318.695312 813.085938 318.503906 L 813.449219 318.214844 C 813.574219 318.117188 813.703125 318.03125 813.828125 317.9375 C 814.082031 317.757812 814.335938 317.574219 814.589844 317.390625 C 814.84375 317.210938 815.113281 317.046875 815.375 316.871094 C 815.640625 316.703125 815.898438 316.519531 816.171875 316.363281 C 816.445312 316.203125 816.71875 316.042969 816.992188 315.882812 C 819.1875 314.601562 821.585938 313.605469 824.070312 312.839844 C 824.378906 312.746094 824.691406 312.648438 825.003906 312.554688 C 825.316406 312.472656 825.632812 312.390625 825.945312 312.308594 C 826.261719 312.230469 826.578125 312.136719 826.898438 312.074219 C 827.214844 312.007812 827.535156 311.9375 827.855469 311.867188 C 829.136719 311.609375 830.429688 311.414062 831.734375 311.265625 L 832.222656 311.207031 L 832.710938 311.167969 L 833.691406 311.085938 L 834.183594 311.046875 L 834.683594 311.023438 L 835.6875 310.980469 L 836.191406 310.960938 C 836.359375 310.953125 836.507812 310.957031 836.667969 310.953125 L 837.605469 310.949219 L 838.363281 310.949219 L 838.621094 310.957031 C 838.964844 310.96875 839.308594 310.976562 839.644531 311.003906 C 840.996094 311.082031 842.3125 311.234375 843.613281 311.417969 C 844.910156 311.605469 846.1875 311.820312 847.453125 312.058594 C 852.507812 313.042969 857.398438 314.226562 862.21875 315.28125 C 863.421875 315.542969 864.621094 315.796875 865.8125 316.042969 C 867 316.292969 868.1875 316.527344 869.367188 316.75 C 871.722656 317.191406 874.054688 317.578125 876.351562 317.90625 C 880.945312 318.539062 885.402344 318.90625 889.621094 318.878906 C 893.84375 318.859375 897.820312 318.46875 901.429688 317.746094 C 903.234375 317.394531 904.949219 316.957031 906.554688 316.457031 C 908.164062 315.964844 909.660156 315.398438 911.054688 314.832031 C 913.832031 313.652344 916.160156 312.382812 918.019531 311.226562 C 919.875 310.0625 921.269531 309.035156 922.210938 308.324219 C 923.144531 307.589844 923.640625 307.199219 923.640625 307.199219 " fill-opacity="1" fill-rule="nonzero"/></g></g></g></g><g clip-path="url(#54719d46a2)"><g transform="matrix(1, 0, 0, 1, 631, 274)"><g clip-path="url(#677969090f)"><path fill="#007489" d="M 92.257812 83.484375 C 92.257812 83.484375 92.148438 83.324219 91.941406 83.027344 C 91.890625 82.953125 91.832031 82.871094 91.765625 82.78125 C 91.695312 82.695312 91.617188 82.601562 91.53125 82.5 C 91.445312 82.398438 91.351562 82.285156 91.253906 82.167969 C 91.15625 82.046875 91.035156 81.941406 90.917969 81.816406 C 90.792969 81.695312 90.667969 81.566406 90.53125 81.429688 C 90.394531 81.296875 90.238281 81.175781 90.078125 81.039062 C 89.917969 80.90625 89.757812 80.753906 89.570312 80.625 C 89.386719 80.492188 89.191406 80.355469 88.992188 80.21875 C 88.890625 80.148438 88.792969 80.070312 88.683594 80.007812 C 88.578125 79.945312 88.464844 79.882812 88.351562 79.816406 C 88.128906 79.6875 87.894531 79.550781 87.652344 79.417969 C 87.40625 79.300781 87.148438 79.183594 86.882812 79.066406 C 86.75 79.007812 86.617188 78.941406 86.480469 78.886719 C 86.34375 78.835938 86.203125 78.785156 86.058594 78.730469 C 85.773438 78.628906 85.480469 78.523438 85.179688 78.425781 C 84.875 78.347656 84.5625 78.265625 84.246094 78.183594 C 84.089844 78.144531 83.929688 78.097656 83.765625 78.0625 C 83.601562 78.035156 83.4375 78.007812 83.269531 77.980469 C 82.9375 77.925781 82.597656 77.871094 82.253906 77.8125 C 80.878906 77.675781 79.40625 77.605469 77.910156 77.738281 C 77.535156 77.769531 77.160156 77.792969 76.777344 77.828125 C 76.402344 77.886719 76.023438 77.945312 75.644531 78.003906 C 75.457031 78.03125 75.265625 78.0625 75.074219 78.089844 C 74.882812 78.121094 74.6875 78.144531 74.5 78.191406 C 74.125 78.277344 73.746094 78.363281 73.363281 78.449219 C 73.175781 78.492188 72.984375 78.535156 72.792969 78.582031 C 72.601562 78.621094 72.410156 78.667969 72.222656 78.722656 C 71.847656 78.832031 71.472656 78.941406 71.09375 79.054688 C 70.726562 79.164062 70.363281 79.277344 69.996094 79.386719 L 68.90625 79.730469 C 68.722656 79.792969 68.554688 79.835938 68.382812 79.886719 L 67.867188 80.035156 C 67.527344 80.136719 67.171875 80.226562 66.820312 80.316406 C 66.46875 80.410156 66.117188 80.5 65.761719 80.578125 C 65.410156 80.65625 65.0625 80.75 64.707031 80.8125 C 64.003906 80.957031 63.304688 81.082031 62.609375 81.199219 C 62.261719 81.25 61.917969 81.300781 61.574219 81.347656 C 61.230469 81.390625 60.886719 81.433594 60.546875 81.472656 C 59.1875 81.613281 57.867188 81.6875 56.609375 81.6875 C 56.292969 81.695312 55.984375 81.683594 55.675781 81.679688 C 55.371094 81.675781 55.070312 81.652344 54.773438 81.648438 C 54.476562 81.636719 54.183594 81.613281 53.898438 81.597656 C 53.609375 81.570312 53.328125 81.546875 53.054688 81.523438 C 51.949219 81.417969 50.941406 81.261719 50.046875 81.09375 C 49.152344 80.921875 48.375 80.730469 47.738281 80.558594 C 46.460938 80.203125 45.746094 79.910156 45.746094 79.910156 C 45.746094 79.910156 45.78125 79.941406 45.851562 80.003906 C 45.921875 80.066406 46.027344 80.15625 46.171875 80.269531 C 46.457031 80.492188 46.890625 80.808594 47.476562 81.160156 C 48.058594 81.515625 48.789062 81.914062 49.664062 82.300781 C 50.539062 82.6875 51.554688 83.070312 52.695312 83.390625 C 52.980469 83.46875 53.273438 83.546875 53.570312 83.621094 C 53.871094 83.6875 54.179688 83.761719 54.492188 83.828125 C 55.117188 83.957031 55.773438 84.0625 56.449219 84.152344 C 57.800781 84.324219 59.238281 84.410156 60.726562 84.375 C 61.097656 84.363281 61.476562 84.355469 61.851562 84.335938 C 62.230469 84.304688 62.609375 84.273438 62.992188 84.246094 C 63.371094 84.203125 63.753906 84.160156 64.140625 84.117188 C 64.523438 84.070312 64.90625 84 65.292969 83.941406 C 65.679688 83.886719 66.058594 83.800781 66.445312 83.730469 C 66.636719 83.691406 66.832031 83.660156 67.023438 83.613281 L 67.597656 83.476562 C 67.984375 83.386719 68.367188 83.300781 68.753906 83.183594 L 69.335938 83.023438 C 69.527344 82.964844 69.730469 82.914062 69.90625 82.855469 C 70.625 82.621094 71.347656 82.390625 72.066406 82.160156 C 72.414062 82.050781 72.757812 81.9375 73.105469 81.820312 C 73.277344 81.761719 73.449219 81.714844 73.625 81.667969 C 73.796875 81.621094 73.972656 81.574219 74.144531 81.527344 C 74.492188 81.433594 74.835938 81.339844 75.179688 81.246094 C 75.351562 81.191406 75.523438 81.164062 75.695312 81.125 C 75.867188 81.085938 76.035156 81.046875 76.207031 81.011719 C 76.550781 80.9375 76.890625 80.863281 77.226562 80.785156 C 77.566406 80.734375 77.902344 80.675781 78.234375 80.621094 C 78.402344 80.59375 78.570312 80.566406 78.734375 80.539062 C 78.816406 80.523438 78.902344 80.507812 78.984375 80.5 L 79.230469 80.472656 C 79.558594 80.445312 79.882812 80.40625 80.207031 80.371094 C 80.367188 80.355469 80.53125 80.328125 80.691406 80.328125 C 80.847656 80.320312 81.007812 80.316406 81.164062 80.308594 C 81.480469 80.296875 81.792969 80.285156 82.101562 80.269531 C 82.410156 80.277344 82.710938 80.285156 83.011719 80.292969 C 83.160156 80.296875 83.308594 80.300781 83.457031 80.304688 C 83.601562 80.316406 83.746094 80.332031 83.890625 80.34375 C 84.179688 80.371094 84.464844 80.394531 84.742188 80.421875 C 85.019531 80.464844 85.289062 80.511719 85.554688 80.554688 C 85.6875 80.578125 85.820312 80.597656 85.949219 80.617188 C 86.082031 80.644531 86.203125 80.679688 86.332031 80.710938 C 86.582031 80.769531 86.828125 80.832031 87.070312 80.886719 C 87.304688 80.957031 87.535156 81.035156 87.757812 81.105469 C 87.871094 81.140625 87.984375 81.175781 88.089844 81.210938 C 88.203125 81.246094 88.304688 81.292969 88.40625 81.332031 C 88.613281 81.417969 88.816406 81.496094 89.011719 81.574219 C 89.109375 81.609375 89.199219 81.660156 89.289062 81.703125 C 89.382812 81.746094 89.472656 81.789062 89.558594 81.832031 C 89.734375 81.917969 89.90625 81.992188 90.066406 82.078125 C 90.222656 82.167969 90.371094 82.253906 90.511719 82.332031 C 90.804688 82.488281 91.042969 82.652344 91.261719 82.789062 C 91.371094 82.859375 91.46875 82.921875 91.5625 82.984375 C 91.652344 83.046875 91.734375 83.109375 91.804688 83.160156 C 92.101562 83.371094 92.257812 83.484375 92.257812 83.484375 " fill-opacity="1" fill-rule="nonzero"/><path fill="#007489" d="M 45.707031 79.886719 C 46.191406 79.917969 46.671875 79.933594 47.152344 79.953125 C 47.632812 79.96875 48.109375 80.003906 48.59375 79.984375 C 49.078125 79.980469 49.558594 79.964844 50.046875 79.953125 C 50.289062 79.945312 50.535156 79.941406 50.777344 79.925781 L 51.5 79.871094 C 51.984375 79.835938 52.464844 79.792969 52.953125 79.753906 C 53.433594 79.695312 53.914062 79.636719 54.398438 79.570312 L 55.121094 79.472656 L 55.839844 79.347656 C 56.320312 79.261719 56.800781 79.175781 57.277344 79.078125 L 58.710938 78.757812 C 58.949219 78.703125 59.183594 78.640625 59.421875 78.574219 L 60.128906 78.382812 C 60.363281 78.316406 60.601562 78.257812 60.835938 78.1875 L 61.539062 77.964844 L 62.242188 77.738281 L 63.632812 77.246094 C 63.863281 77.15625 64.09375 77.0625 64.324219 76.972656 C 64.550781 76.878906 64.78125 76.789062 65.007812 76.691406 L 65.691406 76.390625 C 65.917969 76.292969 66.144531 76.183594 66.371094 76.078125 C 66.59375 75.972656 66.820312 75.867188 67.042969 75.746094 C 67.269531 75.628906 67.492188 75.515625 67.714844 75.390625 C 67.828125 75.324219 67.9375 75.269531 68.054688 75.199219 C 68.171875 75.128906 68.273438 75.074219 68.414062 74.984375 L 75.875 70.246094 L 67.160156 72.230469 C 66.355469 72.414062 65.550781 72.597656 64.75 72.792969 L 62.328125 73.28125 C 61.519531 73.417969 60.710938 73.570312 59.902344 73.695312 L 58.683594 73.863281 L 58.074219 73.949219 C 57.871094 73.980469 57.667969 73.996094 57.464844 74.019531 L 56.246094 74.152344 L 55.941406 74.1875 L 55.636719 74.207031 L 55.023438 74.25 C 54.617188 74.28125 54.207031 74.324219 53.800781 74.34375 L 52.578125 74.394531 C 52.375 74.402344 52.171875 74.417969 51.96875 74.417969 C 51.761719 74.417969 51.558594 74.417969 51.355469 74.421875 C 50.949219 74.425781 50.539062 74.4375 50.132812 74.433594 C 49.320312 74.410156 48.503906 74.398438 47.691406 74.339844 C 46.875 74.308594 46.070312 74.210938 45.257812 74.136719 L 44.042969 73.984375 C 43.640625 73.933594 43.242188 73.851562 42.839844 73.789062 C 42.433594 73.734375 42.035156 73.644531 41.632812 73.570312 C 41.433594 73.527344 41.234375 73.492188 41.035156 73.449219 L 40.4375 73.304688 L 39.839844 73.167969 L 39.25 73.011719 L 38.65625 72.851562 L 38.070312 72.671875 L 37.476562 72.496094 L 36.894531 72.296875 C 36.503906 72.171875 36.121094 72.023438 35.734375 71.878906 C 34.964844 71.589844 34.203125 71.265625 33.453125 70.910156 C 32.703125 70.5625 31.96875 70.171875 31.242188 69.753906 C 31.0625 69.652344 30.886719 69.539062 30.703125 69.433594 C 30.523438 69.324219 30.347656 69.210938 30.171875 69.097656 C 29.820312 68.863281 29.476562 68.625 29.140625 68.359375 C 29.390625 68.707031 29.671875 69.027344 29.964844 69.34375 C 30.257812 69.65625 30.558594 69.964844 30.875 70.25 C 31.191406 70.542969 31.519531 70.820312 31.851562 71.09375 L 32.359375 71.496094 C 32.53125 71.625 32.707031 71.75 32.882812 71.878906 C 33.054688 72.007812 33.234375 72.128906 33.414062 72.25 C 33.59375 72.371094 33.769531 72.496094 33.953125 72.613281 L 34.503906 72.953125 L 34.78125 73.125 L 35.0625 73.285156 L 35.632812 73.605469 C 35.820312 73.710938 36.015625 73.804688 36.207031 73.90625 L 36.789062 74.203125 L 37.378906 74.476562 L 37.972656 74.746094 L 39.183594 75.238281 L 39.796875 75.460938 L 40.414062 75.679688 C 40.621094 75.75 40.828125 75.8125 41.035156 75.878906 C 41.453125 76.003906 41.867188 76.144531 42.289062 76.25 C 42.710938 76.355469 43.132812 76.476562 43.558594 76.570312 L 44.835938 76.847656 C 45.265625 76.929688 45.695312 76.992188 46.125 77.066406 C 46.554688 77.144531 46.988281 77.195312 47.421875 77.25 C 48.285156 77.375 49.15625 77.421875 50.023438 77.492188 C 50.457031 77.519531 50.894531 77.527344 51.328125 77.546875 C 51.761719 77.5625 52.199219 77.574219 52.632812 77.5625 L 53.9375 77.546875 C 54.371094 77.539062 54.804688 77.507812 55.238281 77.488281 L 55.890625 77.449219 L 56.214844 77.429688 L 56.539062 77.394531 L 57.832031 77.265625 C 58.699219 77.195312 59.550781 77.042969 60.40625 76.921875 C 60.621094 76.894531 60.835938 76.855469 61.046875 76.8125 L 62.957031 76.460938 L 65.480469 75.875 C 66.3125 75.652344 67.140625 75.417969 67.96875 75.1875 L 66.714844 72.4375 C 66.65625 72.476562 66.554688 72.542969 66.46875 72.601562 C 66.382812 72.65625 66.28125 72.714844 66.1875 72.773438 C 66.003906 72.890625 65.804688 73.003906 65.613281 73.117188 C 65.417969 73.234375 65.21875 73.34375 65.019531 73.453125 C 64.820312 73.566406 64.621094 73.679688 64.417969 73.785156 L 63.804688 74.105469 C 63.601562 74.210938 63.390625 74.304688 63.1875 74.410156 L 62.5625 74.710938 L 61.296875 75.289062 L 60.65625 75.558594 L 60.011719 75.828125 C 59.796875 75.921875 59.578125 76 59.363281 76.085938 L 58.710938 76.339844 C 58.492188 76.425781 58.273438 76.511719 58.054688 76.585938 L 56.730469 77.058594 C 56.285156 77.207031 55.835938 77.339844 55.390625 77.488281 L 54.71875 77.707031 L 54.039062 77.902344 L 52.679688 78.296875 C 52.222656 78.414062 51.761719 78.527344 51.304688 78.648438 L 50.613281 78.828125 C 50.382812 78.886719 50.152344 78.929688 49.921875 78.984375 C 49.460938 79.089844 48.996094 79.191406 48.53125 79.300781 L 48.183594 79.382812 L 47.828125 79.449219 L 47.121094 79.59375 C 46.652344 79.6875 46.179688 79.78125 45.707031 79.886719 " fill-opacity="1" fill-rule="nonzero"/><path fill="#007489" d="M 29.140625 68.359375 C 29.683594 68.46875 30.230469 68.558594 30.773438 68.652344 C 31.046875 68.699219 31.316406 68.746094 31.589844 68.789062 L 32 68.855469 L 32.410156 68.90625 L 34.066406 69.097656 C 34.34375 69.121094 34.621094 69.160156 34.898438 69.179688 L 35.730469 69.238281 L 37.394531 69.339844 C 37.949219 69.359375 38.503906 69.363281 39.0625 69.375 C 39.339844 69.382812 39.621094 69.390625 39.898438 69.390625 L 40.734375 69.375 C 41.289062 69.359375 41.851562 69.359375 42.40625 69.332031 L 44.078125 69.234375 C 44.359375 69.222656 44.636719 69.191406 44.914062 69.167969 L 45.75 69.089844 C 46.308594 69.042969 46.863281 68.96875 47.417969 68.898438 L 48.253906 68.789062 L 49.917969 68.523438 L 50.746094 68.363281 C 51.296875 68.265625 51.851562 68.144531 52.402344 68.019531 C 52.675781 67.960938 52.953125 67.890625 53.226562 67.820312 C 53.5 67.753906 53.777344 67.6875 54.050781 67.609375 C 54.328125 67.535156 54.601562 67.460938 54.878906 67.375 C 55.019531 67.335938 55.15625 67.296875 55.296875 67.25 C 55.441406 67.207031 55.570312 67.164062 55.738281 67.105469 L 66.839844 63.179688 L 55.023438 64.066406 L 52.511719 64.253906 L 50 64.382812 C 49.164062 64.414062 48.328125 64.421875 47.492188 64.445312 C 46.65625 64.453125 45.820312 64.449219 44.988281 64.445312 L 43.738281 64.398438 C 43.320312 64.386719 42.902344 64.386719 42.488281 64.351562 C 41.65625 64.300781 40.824219 64.265625 40 64.175781 C 39.585938 64.136719 39.167969 64.105469 38.757812 64.066406 L 37.519531 63.910156 C 37.316406 63.886719 37.105469 63.863281 36.902344 63.832031 L 36.289062 63.738281 C 35.878906 63.675781 35.464844 63.621094 35.058594 63.546875 C 34.246094 63.390625 33.425781 63.246094 32.621094 63.054688 L 32.011719 62.921875 L 30.808594 62.609375 L 30.507812 62.535156 L 30.210938 62.445312 C 29.8125 62.328125 29.414062 62.21875 29.019531 62.09375 C 28.625 61.960938 28.234375 61.828125 27.839844 61.699219 L 26.671875 61.269531 L 25.515625 60.796875 L 24.378906 60.285156 C 24.011719 60.09375 23.628906 59.925781 23.261719 59.726562 C 22.894531 59.527344 22.523438 59.332031 22.167969 59.117188 C 21.988281 59.011719 21.800781 58.914062 21.625 58.800781 L 21.09375 58.46875 C 20.386719 58.015625 19.699219 57.527344 19.039062 57 C 18.378906 56.46875 17.738281 55.910156 17.167969 55.261719 C 17.355469 55.652344 17.589844 56.019531 17.835938 56.375 C 18.082031 56.734375 18.34375 57.085938 18.621094 57.421875 C 19.175781 58.09375 19.789062 58.722656 20.429688 59.324219 C 21.074219 59.917969 21.753906 60.476562 22.464844 60.996094 C 22.640625 61.132812 22.820312 61.253906 23.003906 61.378906 L 23.546875 61.753906 C 23.917969 61.992188 24.289062 62.226562 24.667969 62.457031 C 25.046875 62.675781 25.429688 62.898438 25.820312 63.109375 L 27 63.710938 C 27.398438 63.898438 27.800781 64.078125 28.203125 64.261719 C 28.605469 64.433594 29.019531 64.59375 29.425781 64.761719 C 29.832031 64.9375 30.253906 65.070312 30.667969 65.21875 L 31.292969 65.4375 L 32.558594 65.828125 C 32.769531 65.898438 32.980469 65.960938 33.191406 66.011719 L 34.472656 66.34375 C 34.902344 66.449219 35.332031 66.535156 35.761719 66.632812 L 36.40625 66.773438 C 36.625 66.8125 36.839844 66.847656 37.058594 66.886719 L 38.359375 67.109375 C 38.792969 67.171875 39.226562 67.226562 39.664062 67.285156 C 40.535156 67.414062 41.40625 67.46875 42.28125 67.550781 C 43.15625 67.628906 44.03125 67.65625 44.90625 67.695312 C 45.78125 67.710938 46.65625 67.722656 47.527344 67.726562 C 48.402344 67.699219 49.273438 67.679688 50.144531 67.640625 C 51.015625 67.582031 51.886719 67.539062 52.753906 67.464844 L 55.351562 67.195312 L 54.636719 64.15625 L 54.296875 64.28125 C 54.183594 64.324219 54.054688 64.363281 53.933594 64.40625 C 53.6875 64.496094 53.4375 64.574219 53.183594 64.65625 C 52.933594 64.738281 52.679688 64.8125 52.425781 64.890625 C 52.167969 64.964844 51.917969 65.042969 51.660156 65.109375 C 51.144531 65.25 50.632812 65.402344 50.109375 65.527344 L 49.332031 65.730469 L 48.546875 65.910156 L 47.761719 66.09375 L 46.972656 66.261719 C 46.445312 66.371094 45.917969 66.488281 45.386719 66.578125 C 44.855469 66.671875 44.328125 66.789062 43.792969 66.871094 L 42.191406 67.132812 C 41.65625 67.222656 41.121094 67.285156 40.582031 67.363281 L 39.777344 67.480469 C 39.507812 67.515625 39.238281 67.542969 38.96875 67.574219 C 38.425781 67.636719 37.886719 67.695312 37.34375 67.765625 L 35.714844 67.914062 L 34.902344 67.996094 C 34.628906 68.023438 34.355469 68.03125 34.085938 68.050781 L 32.449219 68.171875 L 32.035156 68.203125 L 31.625 68.222656 C 31.347656 68.230469 31.070312 68.25 30.796875 68.261719 C 30.246094 68.292969 29.695312 68.320312 29.140625 68.359375 " fill-opacity="1" fill-rule="nonzero"/><path fill="#007489" d="M 17.167969 55.261719 C 17.480469 55.414062 17.789062 55.570312 18.101562 55.71875 C 18.414062 55.867188 18.738281 55.988281 19.0625 56.125 C 19.382812 56.265625 19.714844 56.375 20.042969 56.492188 L 20.539062 56.660156 C 20.707031 56.714844 20.875 56.761719 21.039062 56.8125 L 21.542969 56.957031 C 21.710938 57.007812 21.878906 57.058594 22.050781 57.097656 L 23.070312 57.347656 C 23.753906 57.488281 24.441406 57.636719 25.132812 57.742188 C 25.824219 57.863281 26.515625 57.945312 27.210938 58.035156 C 27.90625 58.109375 28.605469 58.179688 29.300781 58.226562 C 30 58.285156 30.699219 58.3125 31.398438 58.339844 C 32.097656 58.359375 32.796875 58.378906 33.496094 58.378906 C 33.84375 58.382812 34.195312 58.378906 34.542969 58.371094 C 34.890625 58.363281 35.242188 58.363281 35.589844 58.351562 L 36.636719 58.316406 L 37.683594 58.265625 C 38.378906 58.222656 39.078125 58.179688 39.773438 58.121094 C 40.46875 58.070312 41.164062 58.003906 41.859375 57.929688 C 42.550781 57.855469 43.246094 57.777344 43.9375 57.691406 C 44.628906 57.601562 45.320312 57.507812 46.011719 57.402344 C 46.703125 57.296875 47.390625 57.183594 48.082031 57.0625 L 49.117188 56.875 C 49.464844 56.8125 49.800781 56.742188 50.164062 56.664062 L 64.25 53.597656 L 49.769531 53.550781 L 48.210938 53.546875 L 47.433594 53.542969 C 47.175781 53.542969 46.914062 53.546875 46.65625 53.53125 C 46.140625 53.511719 45.621094 53.488281 45.105469 53.472656 L 44.328125 53.449219 C 44.070312 53.4375 43.8125 53.414062 43.554688 53.398438 L 42.007812 53.285156 C 41.878906 53.277344 41.75 53.269531 41.621094 53.257812 L 41.238281 53.214844 L 40.464844 53.132812 L 39.699219 53.054688 C 39.441406 53.027344 39.183594 53.003906 38.929688 52.964844 L 37.398438 52.746094 C 36.886719 52.679688 36.382812 52.578125 35.875 52.488281 L 35.113281 52.355469 C 34.863281 52.308594 34.605469 52.269531 34.355469 52.210938 L 32.851562 51.878906 L 32.472656 51.796875 L 32.101562 51.699219 L 31.355469 51.503906 C 30.859375 51.378906 30.359375 51.257812 29.871094 51.101562 C 29.378906 50.953125 28.882812 50.808594 28.394531 50.65625 C 27.910156 50.484375 27.425781 50.320312 26.9375 50.15625 C 26.691406 50.078125 26.453125 49.984375 26.214844 49.894531 L 25.496094 49.617188 C 25.257812 49.523438 25.015625 49.4375 24.777344 49.335938 L 24.074219 49.03125 L 23.363281 48.730469 C 23.125 48.628906 22.898438 48.511719 22.664062 48.402344 C 21.730469 47.976562 20.820312 47.496094 19.914062 47.007812 L 19.242188 46.628906 C 19.019531 46.5 18.792969 46.378906 18.574219 46.238281 L 17.917969 45.832031 C 17.699219 45.695312 17.476562 45.566406 17.261719 45.421875 L 16.617188 44.992188 C 16.402344 44.851562 16.1875 44.707031 15.980469 44.554688 L 15.351562 44.101562 L 15.035156 43.875 L 14.726562 43.640625 C 14.316406 43.328125 13.902344 43.015625 13.503906 42.679688 L 12.902344 42.183594 L 12.316406 41.671875 L 12.023438 41.417969 L 11.738281 41.152344 L 11.164062 40.621094 L 10.605469 40.074219 L 10.324219 39.796875 L 10.054688 39.515625 C 9.324219 38.769531 8.628906 37.984375 7.960938 37.167969 C 7.628906 36.761719 7.300781 36.347656 6.984375 35.921875 C 6.675781 35.496094 6.367188 35.0625 6.078125 34.617188 C 6.265625 35.117188 6.488281 35.601562 6.722656 36.082031 C 6.960938 36.558594 7.207031 37.039062 7.476562 37.5 C 8.007812 38.433594 8.59375 39.335938 9.230469 40.207031 L 9.464844 40.535156 L 9.714844 40.855469 L 10.210938 41.496094 L 10.726562 42.117188 L 10.988281 42.429688 L 11.257812 42.730469 L 11.800781 43.335938 C 11.984375 43.535156 12.175781 43.726562 12.363281 43.921875 C 12.738281 44.3125 13.132812 44.683594 13.527344 45.058594 C 14.3125 45.808594 15.148438 46.503906 16 47.183594 C 16.421875 47.527344 16.867188 47.839844 17.304688 48.167969 C 17.519531 48.332031 17.75 48.480469 17.972656 48.632812 L 18.652344 49.09375 C 19.5625 49.691406 20.496094 50.257812 21.457031 50.777344 C 21.695312 50.90625 21.929688 51.046875 22.175781 51.171875 L 22.90625 51.539062 L 23.640625 51.902344 C 23.882812 52.023438 24.136719 52.128906 24.382812 52.242188 L 25.132812 52.574219 C 25.382812 52.6875 25.628906 52.800781 25.886719 52.894531 C 26.394531 53.097656 26.902344 53.296875 27.410156 53.492188 C 27.925781 53.679688 28.441406 53.847656 28.957031 54.027344 C 29.472656 54.210938 29.996094 54.359375 30.519531 54.515625 L 31.304688 54.742188 L 31.699219 54.855469 L 32.09375 54.953125 L 33.683594 55.339844 C 33.949219 55.40625 34.214844 55.453125 34.484375 55.507812 L 35.285156 55.671875 C 35.816406 55.777344 36.351562 55.882812 36.890625 55.957031 L 38.503906 56.199219 C 38.769531 56.246094 39.039062 56.269531 39.3125 56.300781 L 40.929688 56.480469 L 41.335938 56.519531 C 41.46875 56.53125 41.605469 56.539062 41.742188 56.546875 L 43.363281 56.652344 C 43.632812 56.667969 43.90625 56.6875 44.175781 56.699219 L 44.988281 56.722656 C 45.527344 56.734375 46.070312 56.746094 46.609375 56.753906 C 46.878906 56.765625 47.152344 56.757812 47.421875 56.75 L 48.230469 56.734375 L 49.851562 56.703125 L 49.453125 53.59375 L 48.484375 53.816406 L 47.496094 54.03125 C 46.832031 54.171875 46.167969 54.308594 45.5 54.433594 L 43.5 54.804688 C 42.832031 54.925781 42.160156 55.039062 41.488281 55.144531 C 40.816406 55.25 40.148438 55.355469 39.476562 55.453125 C 38.800781 55.554688 38.128906 55.640625 37.453125 55.726562 L 36.445312 55.851562 L 35.429688 55.964844 C 35.09375 56.003906 34.753906 56.03125 34.417969 56.066406 C 34.078125 56.101562 33.742188 56.132812 33.402344 56.160156 C 32.726562 56.222656 32.050781 56.269531 31.371094 56.3125 L 30.355469 56.367188 C 30.015625 56.386719 29.675781 56.402344 29.335938 56.410156 C 29 56.421875 28.660156 56.441406 28.320312 56.441406 L 27.300781 56.453125 C 26.621094 56.445312 25.941406 56.453125 25.265625 56.417969 C 24.582031 56.40625 23.90625 56.351562 23.226562 56.308594 L 22.210938 56.214844 C 21.871094 56.1875 21.539062 56.128906 21.199219 56.089844 C 21.027344 56.066406 20.859375 56.046875 20.691406 56.023438 L 20.1875 55.933594 C 19.851562 55.875 19.507812 55.828125 19.175781 55.75 C 18.84375 55.675781 18.507812 55.617188 18.171875 55.527344 C 17.839844 55.433594 17.503906 55.351562 17.167969 55.261719 " fill-opacity="1" fill-rule="nonzero"/><g clip-path="url(#285f23fb5e)"><path fill="#007489" d="M 5.816406 34.078125 C 6.542969 34.539062 7.265625 35.003906 8 35.445312 L 9.117188 36.097656 L 9.679688 36.421875 L 10.246094 36.730469 L 11.386719 37.339844 C 11.765625 37.542969 12.15625 37.726562 12.542969 37.921875 C 12.929688 38.113281 13.316406 38.308594 13.707031 38.492188 L 14.886719 39.03125 C 15.082031 39.117188 15.277344 39.210938 15.476562 39.296875 L 16.078125 39.546875 L 17.273438 40.050781 L 18.488281 40.519531 L 19.09375 40.75 L 19.707031 40.964844 L 20.9375 41.398438 L 22.175781 41.796875 C 22.589844 41.933594 23.007812 42.050781 23.425781 42.171875 C 23.84375 42.289062 24.257812 42.417969 24.683594 42.527344 L 25.945312 42.855469 L 27.21875 43.15625 C 27.640625 43.257812 28.070312 43.339844 28.496094 43.429688 L 29.136719 43.5625 L 29.78125 43.683594 C 30.636719 43.84375 31.5 43.976562 32.367188 44.101562 L 33.667969 44.273438 L 34.972656 44.414062 L 36.28125 44.523438 C 36.71875 44.550781 37.15625 44.585938 37.597656 44.605469 C 38.472656 44.644531 39.351562 44.675781 40.230469 44.675781 C 41.113281 44.675781 41.996094 44.65625 42.882812 44.601562 C 43.328125 44.578125 43.769531 44.546875 44.21875 44.507812 C 44.441406 44.484375 44.664062 44.464844 44.890625 44.4375 L 45.234375 44.394531 L 45.410156 44.371094 L 45.605469 44.339844 L 55.300781 42.867188 L 45.546875 41.261719 L 43.515625 40.925781 L 41.496094 40.546875 L 39.488281 40.109375 C 38.824219 39.945312 38.15625 39.800781 37.496094 39.628906 C 36.171875 39.285156 34.855469 38.921875 33.5625 38.496094 L 32.589844 38.183594 L 31.625 37.847656 C 30.980469 37.628906 30.351562 37.378906 29.714844 37.136719 C 29.394531 37.019531 29.085938 36.882812 28.769531 36.753906 C 28.457031 36.621094 28.144531 36.496094 27.832031 36.359375 C 27.21875 36.074219 26.589844 35.816406 25.984375 35.511719 L 25.066406 35.070312 L 24.167969 34.601562 C 23.863281 34.449219 23.570312 34.285156 23.273438 34.117188 C 22.980469 33.953125 22.679688 33.792969 22.390625 33.621094 C 21.222656 32.941406 20.082031 32.210938 18.972656 31.441406 C 17.871094 30.65625 16.800781 29.835938 15.765625 28.964844 C 14.730469 28.09375 13.753906 27.160156 12.804688 26.195312 C 11.859375 25.230469 10.964844 24.210938 10.117188 23.152344 C 9.269531 22.09375 8.476562 20.988281 7.734375 19.847656 C 6.988281 18.707031 6.308594 17.523438 5.671875 16.3125 C 5.035156 15.101562 4.464844 13.851562 3.945312 12.582031 C 3.6875 11.945312 3.441406 11.300781 3.210938 10.652344 C 2.976562 10.003906 2.761719 9.347656 2.558594 8.6875 C 2.15625 7.363281 1.8125 6.019531 1.527344 4.660156 C 1.246094 3.296875 1.015625 1.921875 0.90625 0.523438 C 0.84375 1.222656 0.832031 1.925781 0.839844 2.628906 C 0.847656 3.335938 0.875 4.039062 0.933594 4.742188 C 1.039062 6.152344 1.230469 7.554688 1.492188 8.949219 C 1.753906 10.34375 2.097656 11.722656 2.511719 13.089844 C 2.914062 14.453125 3.410156 15.796875 3.960938 17.117188 C 4.515625 18.433594 5.148438 19.722656 5.84375 20.980469 C 6.539062 22.238281 7.308594 23.457031 8.136719 24.636719 C 8.96875 25.816406 9.871094 26.941406 10.824219 28.027344 C 11.777344 29.113281 12.789062 30.148438 13.855469 31.125 C 14.921875 32.101562 16.035156 33.027344 17.191406 33.894531 C 18.355469 34.75 19.546875 35.570312 20.78125 36.320312 C 21.089844 36.511719 21.402344 36.6875 21.714844 36.871094 C 22.023438 37.054688 22.335938 37.234375 22.65625 37.402344 L 23.605469 37.917969 L 24.570312 38.40625 C 25.210938 38.738281 25.871094 39.027344 26.523438 39.332031 C 26.851562 39.476562 27.1875 39.613281 27.515625 39.753906 C 27.847656 39.894531 28.175781 40.039062 28.511719 40.167969 C 29.183594 40.425781 29.847656 40.695312 30.527344 40.929688 L 31.542969 41.289062 L 32.566406 41.617188 C 33.933594 42.058594 35.316406 42.433594 36.699219 42.785156 C 37.046875 42.878906 37.394531 42.949219 37.742188 43.03125 L 38.789062 43.269531 L 40.890625 43.6875 L 42.996094 44.046875 L 45.109375 44.347656 L 45.050781 41.269531 L 44.789062 41.316406 L 44.492188 41.359375 C 44.296875 41.390625 44.09375 41.414062 43.894531 41.441406 C 43.488281 41.488281 43.078125 41.53125 42.667969 41.566406 C 41.847656 41.636719 41.015625 41.679688 40.183594 41.707031 C 39.355469 41.742188 38.519531 41.742188 37.683594 41.738281 C 37.265625 41.734375 36.847656 41.71875 36.429688 41.710938 L 35.175781 41.660156 L 33.921875 41.585938 L 32.667969 41.488281 C 31.832031 41.410156 30.996094 41.320312 30.160156 41.214844 L 29.535156 41.136719 L 28.910156 41.046875 C 28.496094 40.988281 28.078125 40.933594 27.664062 40.859375 L 26.417969 40.648438 L 25.171875 40.417969 C 24.757812 40.34375 24.347656 40.246094 23.933594 40.160156 C 23.519531 40.074219 23.105469 39.988281 22.695312 39.886719 L 21.460938 39.597656 L 20.230469 39.277344 L 19.617188 39.121094 L 19.007812 38.941406 L 17.78125 38.597656 L 16.566406 38.21875 L 15.957031 38.027344 L 15.355469 37.824219 L 14.144531 37.421875 C 13.742188 37.285156 13.34375 37.128906 12.945312 36.988281 C 12.542969 36.839844 12.136719 36.703125 11.742188 36.546875 L 10.550781 36.078125 L 9.953125 35.847656 L 9.363281 35.601562 L 8.175781 35.109375 C 7.386719 34.777344 6.609375 34.414062 5.816406 34.078125 " fill-opacity="1" fill-rule="nonzero"/></g><g clip-path="url(#8bf7937d18)"><path fill="#007489" d="M 0.90625 0.523438 C 0.90625 0.523438 0.964844 0.65625 1.078125 0.917969 C 1.195312 1.179688 1.359375 1.570312 1.585938 2.070312 C 1.707031 2.316406 1.84375 2.59375 1.996094 2.898438 C 2.144531 3.203125 2.304688 3.542969 2.5 3.890625 C 2.691406 4.242188 2.886719 4.628906 3.117188 5.03125 C 3.351562 5.425781 3.601562 5.847656 3.867188 6.292969 C 4.957031 8.0625 6.4375 10.125 8.394531 12.292969 C 9.378906 13.371094 10.488281 14.464844 11.71875 15.558594 C 12.03125 15.828125 12.347656 16.097656 12.664062 16.375 C 12.996094 16.636719 13.328125 16.90625 13.664062 17.175781 C 14.347656 17.703125 15.054688 18.234375 15.796875 18.75 C 17.28125 19.785156 18.890625 20.769531 20.605469 21.703125 C 22.316406 22.636719 24.144531 23.492188 26.050781 24.289062 C 29.871094 25.882812 34.046875 27.160156 38.410156 28.175781 C 40.589844 28.6875 42.820312 29.121094 45.078125 29.507812 C 46.207031 29.699219 47.347656 29.886719 48.488281 30.058594 C 49.632812 30.230469 50.78125 30.378906 51.933594 30.535156 C 54.238281 30.828125 56.554688 31.117188 58.867188 31.375 C 61.179688 31.636719 63.488281 31.902344 65.761719 32.226562 C 68.027344 32.539062 70.273438 32.90625 72.351562 33.457031 C 72.617188 33.523438 72.867188 33.601562 73.121094 33.675781 L 73.3125 33.730469 C 73.308594 33.730469 73.382812 33.753906 73.320312 33.730469 L 73.371094 33.75 L 73.476562 33.785156 L 74.71875 34.195312 C 74.851562 34.238281 75 34.28125 75.128906 34.328125 L 75.503906 34.46875 L 76.261719 34.746094 L 76.640625 34.882812 L 77.019531 35.039062 L 77.78125 35.351562 L 78.160156 35.507812 L 78.53125 35.675781 C 79.523438 36.121094 80.496094 36.597656 81.429688 37.121094 C 81.664062 37.25 81.898438 37.378906 82.132812 37.507812 C 82.371094 37.632812 82.589844 37.78125 82.820312 37.917969 C 83.046875 38.058594 83.273438 38.195312 83.5 38.332031 C 83.71875 38.480469 83.9375 38.628906 84.15625 38.773438 C 85.902344 39.957031 87.503906 41.285156 88.910156 42.753906 C 90.320312 44.21875 91.546875 45.8125 92.566406 47.496094 C 93.589844 49.175781 94.421875 50.933594 95.0625 52.722656 C 95.710938 54.507812 96.191406 56.3125 96.519531 58.097656 C 96.855469 59.882812 97.050781 61.640625 97.160156 63.339844 C 97.265625 65.042969 97.261719 66.6875 97.210938 68.253906 C 97.164062 69.820312 97.039062 71.308594 96.890625 72.707031 C 96.589844 75.507812 96.144531 77.941406 95.722656 79.933594 C 95.289062 81.925781 94.890625 83.484375 94.585938 84.539062 C 94.429688 85.066406 94.3125 85.46875 94.226562 85.742188 C 94.140625 86.011719 94.097656 86.152344 94.097656 86.152344 C 94.097656 86.152344 94.164062 86.023438 94.296875 85.769531 C 94.425781 85.515625 94.617188 85.136719 94.84375 84.636719 C 95.300781 83.632812 95.964844 82.148438 96.65625 80.199219 C 97.355469 78.253906 98.109375 75.847656 98.738281 73.015625 C 99.359375 70.179688 99.863281 66.917969 99.964844 63.296875 C 100.011719 61.484375 99.941406 59.585938 99.730469 57.621094 C 99.679688 57.132812 99.605469 56.636719 99.535156 56.140625 C 99.449219 55.644531 99.375 55.140625 99.269531 54.636719 C 99.167969 54.136719 99.066406 53.628906 98.9375 53.121094 C 98.875 52.867188 98.816406 52.613281 98.746094 52.359375 C 98.675781 52.105469 98.601562 51.847656 98.53125 51.59375 L 98.421875 51.207031 L 98.296875 50.828125 C 98.214844 50.570312 98.128906 50.316406 98.046875 50.058594 C 97.953125 49.804688 97.855469 49.550781 97.761719 49.296875 C 97.667969 49.042969 97.574219 48.785156 97.464844 48.53125 C 97.355469 48.277344 97.25 48.023438 97.140625 47.769531 C 97.039062 47.515625 96.910156 47.265625 96.796875 47.011719 C 96.671875 46.761719 96.5625 46.503906 96.433594 46.257812 C 96.300781 46.007812 96.171875 45.757812 96.039062 45.507812 C 95.914062 45.257812 95.769531 45.011719 95.625 44.765625 C 95.480469 44.523438 95.339844 44.273438 95.195312 44.027344 C 95.039062 43.789062 94.882812 43.546875 94.726562 43.308594 L 94.488281 42.945312 C 94.410156 42.824219 94.324219 42.707031 94.238281 42.589844 C 94.070312 42.355469 93.902344 42.121094 93.734375 41.882812 C 93.5625 41.648438 93.375 41.425781 93.199219 41.191406 C 93.015625 40.964844 92.839844 40.730469 92.648438 40.507812 C 92.453125 40.289062 92.261719 40.066406 92.070312 39.84375 C 90.519531 38.0625 88.707031 36.476562 86.753906 35.066406 C 86.507812 34.890625 86.261719 34.714844 86.019531 34.539062 C 85.765625 34.375 85.511719 34.207031 85.261719 34.042969 C 85.003906 33.878906 84.757812 33.703125 84.496094 33.554688 C 84.234375 33.398438 83.976562 33.242188 83.714844 33.089844 C 82.667969 32.476562 81.585938 31.921875 80.484375 31.40625 L 80.074219 31.210938 L 79.65625 31.027344 L 78.816406 30.664062 L 78.398438 30.484375 L 77.960938 30.316406 L 77.09375 29.980469 L 76.65625 29.8125 C 76.511719 29.757812 76.378906 29.714844 76.242188 29.664062 L 75.417969 29.382812 L 75.003906 29.242188 L 74.898438 29.207031 L 74.75 29.15625 L 74.523438 29.089844 C 74.21875 28.996094 73.914062 28.902344 73.609375 28.824219 C 72.398438 28.492188 71.195312 28.234375 70 28.007812 C 68.800781 27.789062 67.613281 27.597656 66.429688 27.429688 C 61.695312 26.796875 57.042969 26.382812 52.496094 25.878906 C 51.359375 25.75 50.230469 25.617188 49.113281 25.476562 C 47.992188 25.34375 46.878906 25.199219 45.777344 25.042969 C 43.574219 24.730469 41.410156 24.378906 39.292969 23.984375 C 35.070312 23.175781 31.039062 22.175781 27.339844 20.894531 C 23.636719 19.625 20.253906 18.097656 17.296875 16.394531 C 15.816406 15.546875 14.441406 14.652344 13.175781 13.738281 C 11.90625 12.824219 10.761719 11.882812 9.703125 10.96875 C 7.613281 9.109375 5.945312 7.300781 4.65625 5.734375 C 3.367188 4.160156 2.449219 2.84375 1.832031 1.9375 C 1.226562 1.015625 0.90625 0.523438 0.90625 0.523438 " fill-opacity="1" fill-rule="nonzero"/></g></g></g></g><g clip-path="url(#d5b0782020)"><path fill="#007489" d="M 791.488281 332.011719 C 791.484375 331.953125 791.480469 331.894531 791.472656 331.835938 C 791.367188 331.203125 790.84375 330.722656 790.203125 330.679688 L 785.539062 330.367188 L 785.539062 293.984375 C 785.539062 293.964844 785.539062 293.945312 785.535156 293.925781 C 785.554688 293.285156 785.132812 292.710938 784.503906 292.550781 L 770.414062 288.933594 C 770.28125 288.902344 770.148438 288.886719 770.011719 288.890625 L 735.226562 290.355469 C 734.542969 290.386719 733.984375 290.910156 733.914062 291.589844 C 733.910156 291.636719 733.90625 291.683594 733.90625 291.726562 C 733.90625 291.730469 733.90625 291.730469 733.90625 291.734375 L 733.90625 329.261719 C 733.90625 329.894531 734.332031 330.441406 734.941406 330.597656 L 743.929688 332.90625 L 740.882812 334.160156 C 740.667969 334.214844 740.464844 334.328125 740.296875 334.484375 C 740.015625 334.746094 739.859375 335.109375 739.859375 335.488281 C 739.859375 335.492188 739.859375 335.492188 739.859375 335.492188 L 739.859375 372.503906 L 732.09375 374.0625 C 731.457031 374.191406 730.996094 374.746094 730.984375 375.394531 C 730.984375 375.398438 730.988281 375.402344 730.988281 375.40625 C 730.988281 375.410156 730.984375 375.414062 730.984375 375.414062 L 730.984375 412.945312 C 730.984375 413.582031 731.425781 414.140625 732.046875 414.285156 L 758.460938 420.554688 C 758.609375 420.605469 758.761719 420.632812 758.917969 420.632812 C 758.925781 420.632812 758.929688 420.632812 758.9375 420.632812 C 758.941406 420.632812 758.945312 420.632812 758.953125 420.632812 C 759.109375 420.632812 759.261719 420.605469 759.410156 420.554688 L 785.792969 414.285156 C 786.414062 414.136719 786.851562 413.582031 786.851562 412.945312 L 786.851562 375.414062 C 786.851562 374.992188 786.660156 374.59375 786.328125 374.332031 C 786.117188 374.167969 785.871094 374.070312 785.613281 374.042969 L 783.785156 373.675781 L 790.632812 370.859375 C 791.152344 370.648438 791.488281 370.144531 791.488281 369.585938 L 791.488281 332.054688 C 791.488281 332.042969 791.488281 332.027344 791.488281 332.011719 Z M 784.214844 332.992188 L 775.792969 336.453125 L 749.859375 334.703125 L 747.246094 334.523438 L 748.398438 334.050781 L 749.035156 334.214844 C 749.039062 334.214844 749.039062 334.214844 749.042969 334.214844 C 749.066406 334.222656 749.09375 334.226562 749.117188 334.234375 C 749.121094 334.234375 749.125 334.234375 749.132812 334.234375 C 749.152344 334.238281 749.171875 334.242188 749.195312 334.246094 C 749.203125 334.246094 749.210938 334.246094 749.21875 334.25 C 749.238281 334.25 749.257812 334.253906 749.277344 334.253906 C 749.285156 334.253906 749.292969 334.253906 749.300781 334.253906 C 749.324219 334.257812 749.351562 334.257812 749.378906 334.257812 C 749.394531 334.257812 749.414062 334.257812 749.429688 334.257812 L 784.007812 332.898438 C 784.074219 332.933594 784.140625 332.964844 784.214844 332.992188 Z M 782.78125 330.1875 L 750.757812 331.445312 L 750.757812 296.675781 L 782.78125 295.417969 Z M 769.925781 291.65625 L 774.773438 292.902344 L 749.523438 293.964844 L 744.675781 292.71875 Z M 736.667969 328.191406 L 736.667969 293.511719 L 739.753906 294.304688 L 747.996094 296.417969 L 747.996094 331.101562 Z M 742.617188 336.980469 L 749.664062 337.457031 L 774.558594 339.175781 L 774.558594 373.9375 L 743.605469 371.800781 C 743.601562 371.800781 743.59375 371.800781 743.585938 371.800781 L 742.617188 371.734375 Z M 757.539062 417.503906 L 733.746094 411.855469 L 733.746094 377.160156 L 757.539062 382.808594 Z M 758.917969 380.277344 L 738.824219 375.527344 L 743.605469 374.566406 L 774.140625 376.675781 Z M 784.09375 377.160156 L 784.09375 411.855469 L 760.332031 417.503906 L 760.332031 382.808594 Z M 788.730469 368.660156 L 778.53125 372.855469 C 778.527344 372.859375 778.523438 372.859375 778.515625 372.863281 L 777.316406 373.355469 L 777.316406 338.8125 L 788.730469 334.113281 Z M 788.730469 368.660156 " fill-opacity="1" fill-rule="nonzero"/></g></svg>