<svg xmlns="http://www.w3.org/2000/svg" xmlns:xlink="http://www.w3.org/1999/xlink" width="1920" zoomAndPan="magnify" viewBox="0 0 1440 809.999993" height="1080" preserveAspectRatio="xMidYMid meet" version="1.0"><defs><clipPath id="83212be767"><path d="M 575 224 L 937 224 L 937 477 L 575 477 Z M 575 224 " clip-rule="nonzero"/></clipPath><clipPath id="0d1a795387"><path d="M 392.347656 296.734375 L 866.277344 92.65625 L 1047.511719 513.546875 L 573.582031 717.621094 Z M 392.347656 296.734375 " clip-rule="nonzero"/></clipPath><clipPath id="5d33475113"><path d="M 392.347656 296.734375 L 866.277344 92.65625 L 1047.511719 513.546875 L 573.582031 717.621094 Z M 392.347656 296.734375 " clip-rule="nonzero"/></clipPath><clipPath id="fe830e7546"><path d="M 579 228 L 932 228 L 932 375 L 579 375 Z M 579 228 " clip-rule="nonzero"/></clipPath><clipPath id="ab6ef6e704"><path d="M 392.347656 296.734375 L 866.277344 92.65625 L 1047.511719 513.546875 L 573.582031 717.621094 Z M 392.347656 296.734375 " clip-rule="nonzero"/></clipPath><clipPath id="059255a5fe"><path d="M 392.347656 296.734375 L 866.277344 92.65625 L 1047.511719 513.546875 L 573.582031 717.621094 Z M 392.347656 296.734375 " clip-rule="nonzero"/></clipPath><clipPath id="30052c5df1"><path d="M 564 231 L 578 231 L 578 243 L 564 243 Z M 564 231 " clip-rule="nonzero"/></clipPath><clipPath id="7e7fc76c70"><path d="M 392.347656 296.734375 L 866.277344 92.65625 L 1047.511719 513.546875 L 573.582031 717.621094 Z M 392.347656 296.734375 " clip-rule="nonzero"/></clipPath><clipPath id="a47e0bc126"><path d="M 392.347656 296.734375 L 866.277344 92.65625 L 1047.511719 513.546875 L 573.582031 717.621094 Z M 392.347656 296.734375 " clip-rule="nonzero"/></clipPath><clipPath id="f02d4348af"><path d="M 565 227 L 577 227 L 577 238 L 565 238 Z M 565 227 " clip-rule="nonzero"/></clipPath><clipPath id="46b267370c"><path d="M 392.347656 296.734375 L 866.277344 92.65625 L 1047.511719 513.546875 L 573.582031 717.621094 Z M 392.347656 296.734375 " clip-rule="nonzero"/></clipPath><clipPath id="5ebea9f565"><path d="M 392.347656 296.734375 L 866.277344 92.65625 L 1047.511719 513.546875 L 573.582031 717.621094 Z M 392.347656 296.734375 " clip-rule="nonzero"/></clipPath><clipPath id="7edb72d467"><path d="M 565 224 L 576 224 L 576 234 L 565 234 Z M 565 224 " clip-rule="nonzero"/></clipPath><clipPath id="164feb1727"><path d="M 392.347656 296.734375 L 866.277344 92.65625 L 1047.511719 513.546875 L 573.582031 717.621094 Z M 392.347656 296.734375 " clip-rule="nonzero"/></clipPath><clipPath id="209604b372"><path d="M 392.347656 296.734375 L 866.277344 92.65625 L 1047.511719 513.546875 L 573.582031 717.621094 Z M 392.347656 296.734375 " clip-rule="nonzero"/></clipPath><clipPath id="23b8f72289"><path d="M 566 221 L 575 221 L 575 230 L 566 230 Z M 566 221 " clip-rule="nonzero"/></clipPath><clipPath id="2cc5799493"><path d="M 392.347656 296.734375 L 866.277344 92.65625 L 1047.511719 513.546875 L 573.582031 717.621094 Z M 392.347656 296.734375 " clip-rule="nonzero"/></clipPath><clipPath id="23449dc93e"><path d="M 392.347656 296.734375 L 866.277344 92.65625 L 1047.511719 513.546875 L 573.582031 717.621094 Z M 392.347656 296.734375 " clip-rule="nonzero"/></clipPath><clipPath id="8ceb755c93"><path d="M 566 239 L 582 239 L 582 714 L 566 714 Z M 566 239 " clip-rule="nonzero"/></clipPath><clipPath id="9a43ad7ba2"><path d="M 392.347656 296.734375 L 866.277344 92.65625 L 1047.511719 513.546875 L 573.582031 717.621094 Z M 392.347656 296.734375 " clip-rule="nonzero"/></clipPath><clipPath id="c189ce97b4"><path d="M 392.347656 296.734375 L 866.277344 92.65625 L 1047.511719 513.546875 L 573.582031 717.621094 Z M 392.347656 296.734375 " clip-rule="nonzero"/></clipPath><clipPath id="f08eed2b3d"><path d="M 720 286.199219 L 774.75 286.199219 L 774.75 404.699219 L 720 404.699219 Z M 720 286.199219 " clip-rule="nonzero"/></clipPath></defs><rect x="-144" width="1728" fill="#ffffff" y="-80.999999" height="971.999992" fill-opacity="1"/><rect x="-144" width="1728" fill="#ffffff" y="-80.999999" height="971.999992" fill-opacity="1"/><g clip-path="url(#83212be767)"><g clip-path="url(#0d1a795387)"><g clip-path="url(#5d33475113)"><path fill="#ffde59" d="M 678.804688 224.410156 C 658.351562 224.546875 630.699219 229.503906 607.367188 234.683594 C 594.953125 237.4375 583.824219 240.238281 575.558594 242.414062 L 577.457031 446.472656 C 585.703125 444.308594 596.675781 441.550781 608.925781 438.832031 C 631.5 433.824219 658.074219 428.996094 678.535156 428.550781 C 679.265625 428.535156 679.988281 428.527344 680.703125 428.519531 C 682.847656 428.507812 684.917969 428.546875 686.902344 428.644531 C 716.839844 430.089844 745.074219 442.234375 773.222656 453.894531 C 801.371094 465.558594 829.429688 476.734375 859 476.476562 C 876.144531 476.328125 901.121094 468.949219 921.726562 461.582031 C 927.203125 459.625 932.332031 457.683594 936.96875 455.871094 L 935.074219 251.875 C 930.578125 253.625 925.617188 255.496094 920.363281 257.375 C 899.691406 264.761719 874.699219 272.210938 857.097656 272.363281 C 827.113281 272.625 798.84375 261.324219 770.683594 249.65625 C 742.523438 237.988281 714.457031 225.957031 684.914062 224.527344 C 682.964844 224.433594 680.925781 224.394531 678.808594 224.410156 Z M 678.804688 224.410156 " fill-opacity="1" fill-rule="evenodd"/></g></g></g><g clip-path="url(#fe830e7546)"><g clip-path="url(#ab6ef6e704)"><g clip-path="url(#059255a5fe)"><path fill="#ffde59" d="M 679.289062 228.617188 C 681.097656 228.613281 682.902344 228.644531 684.707031 228.734375 C 714.03125 230.148438 742.304688 242.457031 769.074219 253.546875 C 797.175781 265.191406 826.203125 276.84375 857.136719 276.574219 C 864.164062 276.511719 871.382812 275.425781 878.265625 274.035156 C 886.050781 272.464844 893.773438 270.394531 901.375 268.097656 C 908.234375 266.027344 915.035156 263.75 921.78125 261.339844 C 924.835938 260.246094 927.882812 259.125 930.917969 257.976562 L 931.828125 355.589844 C 928.582031 356.824219 925.152344 358.09375 921.582031 359.371094 C 900.90625 366.757812 875.914062 374.207031 858.316406 374.359375 C 828.328125 374.621094 800.0625 363.320312 771.902344 351.652344 C 743.742188 339.984375 715.675781 327.953125 686.128906 326.523438 C 684.179688 326.429688 682.144531 326.394531 680.027344 326.40625 L 680.023438 326.40625 C 659.566406 326.542969 631.914062 331.5 608.585938 336.679688 C 598.042969 339.019531 588.425781 341.390625 580.703125 343.382812 L 579.792969 245.65625 C 589.25 243.203125 598.746094 240.90625 608.277344 238.792969 C 616.640625 236.9375 625.039062 235.21875 633.472656 233.707031 C 641.394531 232.289062 649.359375 231.039062 657.355469 230.109375 C 664.457031 229.277344 671.675781 228.667969 678.832031 228.621094 Z M 679.289062 228.617188 " fill-opacity="1" fill-rule="evenodd"/></g></g></g><g clip-path="url(#30052c5df1)"><g clip-path="url(#7e7fc76c70)"><g clip-path="url(#a47e0bc126)"><path fill="#71625b" d="M 564.550781 237.164062 C 564.554688 237.546875 564.601562 237.929688 564.6875 238.304688 C 564.773438 238.683594 564.898438 239.050781 565.066406 239.402344 C 565.230469 239.757812 565.433594 240.09375 565.667969 240.410156 C 565.90625 240.726562 566.175781 241.023438 566.476562 241.289062 C 566.777344 241.558594 567.101562 241.800781 567.457031 242.007812 C 567.808594 242.21875 568.179688 242.394531 568.570312 242.539062 C 568.960938 242.679688 569.363281 242.789062 569.773438 242.859375 C 570.1875 242.929688 570.605469 242.960938 571.027344 242.957031 C 571.445312 242.949219 571.863281 242.90625 572.273438 242.828125 C 572.6875 242.746094 573.085938 242.632812 573.472656 242.480469 C 573.859375 242.328125 574.226562 242.140625 574.574219 241.925781 C 574.917969 241.707031 575.238281 241.457031 575.535156 241.183594 C 575.828125 240.90625 576.089844 240.605469 576.320312 240.285156 C 576.550781 239.960938 576.742188 239.621094 576.898438 239.261719 C 577.058594 238.902344 577.171875 238.535156 577.25 238.15625 C 577.328125 237.777344 577.367188 237.394531 577.359375 237.007812 C 577.355469 236.625 577.308594 236.242188 577.222656 235.867188 C 577.136719 235.488281 577.011719 235.125 576.847656 234.769531 C 576.679688 234.414062 576.480469 234.078125 576.242188 233.761719 C 576.003906 233.445312 575.734375 233.152344 575.433594 232.882812 C 575.132812 232.613281 574.808594 232.375 574.457031 232.164062 C 574.105469 231.953125 573.730469 231.777344 573.34375 231.632812 C 572.953125 231.492188 572.550781 231.386719 572.136719 231.316406 C 571.722656 231.246094 571.304688 231.210938 570.886719 231.21875 C 570.464844 231.222656 570.050781 231.265625 569.636719 231.34375 C 569.226562 231.425781 568.828125 231.539062 568.441406 231.691406 C 568.054688 231.84375 567.6875 232.03125 567.339844 232.25 C 566.992188 232.46875 566.671875 232.714844 566.378906 232.988281 C 566.082031 233.265625 565.820312 233.566406 565.589844 233.890625 C 565.363281 234.210938 565.167969 234.554688 565.011719 234.910156 C 564.855469 235.269531 564.738281 235.636719 564.660156 236.015625 C 564.582031 236.394531 564.546875 236.777344 564.550781 237.164062 Z M 564.550781 237.164062 " fill-opacity="1" fill-rule="nonzero"/></g></g></g><g clip-path="url(#f02d4348af)"><g clip-path="url(#46b267370c)"><g clip-path="url(#5ebea9f565)"><path fill="#71625b" d="M 565.199219 232.777344 C 565.203125 233.121094 565.246094 233.460938 565.320312 233.796875 C 565.398438 234.132812 565.511719 234.457031 565.65625 234.773438 C 565.804688 235.089844 565.984375 235.386719 566.195312 235.671875 C 566.40625 235.953125 566.648438 236.214844 566.914062 236.453125 C 567.183594 236.695312 567.472656 236.90625 567.785156 237.09375 C 568.101562 237.28125 568.429688 237.4375 568.777344 237.566406 C 569.125 237.691406 569.484375 237.789062 569.851562 237.851562 C 570.21875 237.914062 570.589844 237.941406 570.964844 237.9375 C 571.339844 237.933594 571.710938 237.894531 572.078125 237.824219 C 572.445312 237.753906 572.800781 237.648438 573.144531 237.515625 C 573.488281 237.378906 573.816406 237.214844 574.125 237.019531 C 574.433594 236.824219 574.71875 236.605469 574.980469 236.359375 C 575.242188 236.113281 575.476562 235.847656 575.679688 235.558594 C 575.886719 235.269531 576.058594 234.964844 576.199219 234.648438 C 576.335938 234.328125 576.441406 234 576.511719 233.664062 C 576.578125 233.324219 576.613281 232.984375 576.609375 232.640625 C 576.605469 232.300781 576.5625 231.960938 576.488281 231.625 C 576.410156 231.289062 576.296875 230.960938 576.148438 230.648438 C 576.003906 230.332031 575.824219 230.03125 575.613281 229.75 C 575.402344 229.46875 575.160156 229.207031 574.894531 228.964844 C 574.625 228.726562 574.335938 228.511719 574.019531 228.328125 C 573.707031 228.140625 573.375 227.980469 573.027344 227.855469 C 572.679688 227.726562 572.324219 227.632812 571.957031 227.570312 C 571.585938 227.507812 571.214844 227.480469 570.839844 227.484375 C 570.46875 227.488281 570.097656 227.527344 569.730469 227.597656 C 569.363281 227.667969 569.007812 227.773438 568.664062 227.90625 C 568.320312 228.042969 567.992188 228.207031 567.683594 228.402344 C 567.375 228.597656 567.089844 228.816406 566.824219 229.0625 C 566.5625 229.308594 566.332031 229.574219 566.125 229.863281 C 565.921875 230.152344 565.75 230.453125 565.609375 230.773438 C 565.46875 231.09375 565.367188 231.421875 565.296875 231.757812 C 565.226562 232.09375 565.195312 232.433594 565.199219 232.777344 Z M 565.199219 232.777344 " fill-opacity="1" fill-rule="nonzero"/></g></g></g><g clip-path="url(#7edb72d467)"><g clip-path="url(#164feb1727)"><g clip-path="url(#209604b372)"><path fill="#71625b" d="M 565.828125 229.230469 C 565.832031 229.535156 565.867188 229.832031 565.933594 230.128906 C 566.003906 230.425781 566.101562 230.714844 566.230469 230.992188 C 566.363281 231.269531 566.519531 231.535156 566.707031 231.785156 C 566.894531 232.03125 567.105469 232.261719 567.339844 232.476562 C 567.578125 232.6875 567.832031 232.875 568.109375 233.039062 C 568.386719 233.203125 568.679688 233.34375 568.984375 233.453125 C 569.292969 233.566406 569.609375 233.652344 569.933594 233.707031 C 570.257812 233.761719 570.585938 233.785156 570.917969 233.78125 C 571.246094 233.777344 571.574219 233.746094 571.898438 233.683594 C 572.21875 233.621094 572.535156 233.527344 572.839844 233.410156 C 573.140625 233.289062 573.429688 233.144531 573.703125 232.972656 C 573.976562 232.800781 574.226562 232.605469 574.457031 232.390625 C 574.691406 232.171875 574.894531 231.9375 575.078125 231.683594 C 575.257812 231.429688 575.410156 231.160156 575.53125 230.878906 C 575.65625 230.597656 575.746094 230.308594 575.808594 230.011719 C 575.867188 229.714844 575.898438 229.414062 575.894531 229.109375 C 575.890625 228.808594 575.855469 228.507812 575.785156 228.210938 C 575.71875 227.914062 575.621094 227.628906 575.488281 227.351562 C 575.359375 227.070312 575.203125 226.808594 575.015625 226.558594 C 574.828125 226.308594 574.617188 226.078125 574.382812 225.867188 C 574.144531 225.65625 573.886719 225.46875 573.613281 225.300781 C 573.335938 225.136719 573.042969 225 572.734375 224.886719 C 572.429688 224.773438 572.113281 224.691406 571.789062 224.636719 C 571.464844 224.582031 571.136719 224.554688 570.804688 224.558594 C 570.476562 224.5625 570.148438 224.597656 569.824219 224.660156 C 569.5 224.722656 569.1875 224.8125 568.882812 224.933594 C 568.578125 225.050781 568.292969 225.199219 568.019531 225.371094 C 567.746094 225.539062 567.496094 225.734375 567.261719 225.953125 C 567.03125 226.167969 566.824219 226.40625 566.644531 226.660156 C 566.464844 226.914062 566.3125 227.179688 566.191406 227.460938 C 566.066406 227.742188 565.976562 228.03125 565.914062 228.328125 C 565.851562 228.628906 565.824219 228.929688 565.828125 229.230469 Z M 565.828125 229.230469 " fill-opacity="1" fill-rule="nonzero"/></g></g></g><g clip-path="url(#23b8f72289)"><g clip-path="url(#2cc5799493)"><g clip-path="url(#23449dc93e)"><path fill="#71625b" d="M 566.792969 225.503906 C 566.796875 225.992188 566.90625 226.460938 567.113281 226.914062 C 567.324219 227.363281 567.621094 227.757812 568 228.097656 C 568.382812 228.441406 568.820312 228.703125 569.316406 228.882812 C 569.8125 229.066406 570.328125 229.152344 570.863281 229.144531 C 571.394531 229.140625 571.90625 229.039062 572.398438 228.847656 C 572.890625 228.652344 573.324219 228.382812 573.695312 228.03125 C 574.070312 227.679688 574.355469 227.277344 574.554688 226.824219 C 574.753906 226.367188 574.851562 225.898438 574.84375 225.40625 C 574.839844 224.917969 574.730469 224.449219 574.519531 224 C 574.3125 223.550781 574.015625 223.152344 573.632812 222.8125 C 573.25 222.472656 572.8125 222.210938 572.316406 222.027344 C 571.820312 221.847656 571.308594 221.757812 570.773438 221.765625 C 570.238281 221.773438 569.726562 221.871094 569.234375 222.066406 C 568.746094 222.257812 568.3125 222.53125 567.9375 222.878906 C 567.566406 223.230469 567.28125 223.632812 567.082031 224.089844 C 566.882812 224.542969 566.785156 225.015625 566.792969 225.503906 Z M 566.792969 225.503906 " fill-opacity="1" fill-rule="nonzero"/></g></g></g><g clip-path="url(#8ceb755c93)"><g clip-path="url(#9a43ad7ba2)"><g clip-path="url(#c189ce97b4)"><path fill="#71625b" d="M 575.675781 239.640625 L 566.296875 239.753906 L 571.960938 713.804688 L 581.339844 713.695312 Z M 575.675781 239.640625 " fill-opacity="1" fill-rule="evenodd"/></g></g></g><g clip-path="url(#f08eed2b3d)"><path fill="#c8af48" d="M 774.488281 325.109375 C 774.488281 325.054688 774.484375 325.003906 774.476562 324.949219 C 774.382812 324.378906 773.910156 323.949219 773.332031 323.910156 L 769.132812 323.625 L 769.132812 290.859375 C 769.132812 290.839844 769.132812 290.824219 769.128906 290.808594 C 769.148438 290.230469 768.765625 289.710938 768.199219 289.566406 L 755.507812 286.3125 C 755.390625 286.28125 755.269531 286.269531 755.148438 286.273438 L 723.820312 287.59375 C 723.203125 287.617188 722.703125 288.089844 722.636719 288.703125 C 722.632812 288.746094 722.628906 288.785156 722.628906 288.824219 C 722.628906 288.828125 722.628906 288.832031 722.628906 288.832031 L 722.628906 322.632812 C 722.628906 323.199219 723.015625 323.695312 723.5625 323.835938 L 731.65625 325.914062 L 728.914062 327.042969 C 728.71875 327.09375 728.535156 327.191406 728.382812 327.335938 C 728.132812 327.570312 727.992188 327.898438 727.988281 328.238281 C 727.988281 328.242188 727.988281 328.242188 727.988281 328.242188 L 727.988281 361.578125 L 720.996094 362.980469 C 720.425781 363.097656 720.007812 363.59375 720 364.179688 C 720 364.183594 720 364.1875 720 364.191406 C 720 364.195312 720 364.195312 720 364.199219 L 720 398 C 720 398.574219 720.394531 399.074219 720.953125 399.207031 L 744.746094 404.855469 C 744.878906 404.902344 745.015625 404.925781 745.15625 404.925781 C 745.160156 404.925781 745.167969 404.925781 745.171875 404.925781 C 745.175781 404.925781 745.183594 404.925781 745.1875 404.925781 C 745.328125 404.925781 745.46875 404.902344 745.601562 404.855469 L 769.359375 399.207031 C 769.917969 399.074219 770.3125 398.574219 770.3125 398 L 770.3125 364.199219 C 770.3125 363.820312 770.140625 363.460938 769.84375 363.226562 C 769.65625 363.074219 769.429688 362.988281 769.199219 362.964844 L 767.554688 362.632812 L 773.722656 360.097656 C 774.1875 359.90625 774.492188 359.449219 774.492188 358.949219 L 774.492188 325.148438 C 774.492188 325.136719 774.492188 325.121094 774.488281 325.109375 Z M 767.9375 325.988281 L 760.355469 329.109375 L 736.996094 327.53125 L 734.644531 327.371094 L 735.679688 326.945312 L 736.253906 327.089844 C 736.257812 327.09375 736.257812 327.09375 736.261719 327.09375 C 736.285156 327.097656 736.304688 327.105469 736.328125 327.109375 C 736.332031 327.109375 736.335938 327.109375 736.34375 327.109375 C 736.359375 327.113281 736.378906 327.117188 736.398438 327.121094 C 736.40625 327.121094 736.414062 327.121094 736.421875 327.121094 C 736.4375 327.125 736.457031 327.125 736.472656 327.125 C 736.480469 327.128906 736.488281 327.128906 736.492188 327.128906 C 736.515625 327.128906 736.539062 327.128906 736.5625 327.128906 C 736.582031 327.128906 736.597656 327.128906 736.613281 327.128906 L 767.753906 325.90625 C 767.8125 325.941406 767.875 325.96875 767.9375 325.988281 Z M 766.648438 323.464844 L 737.804688 324.597656 L 737.804688 293.285156 L 766.648438 292.152344 Z M 755.070312 288.761719 L 759.433594 289.882812 L 736.695312 290.839844 L 732.328125 289.71875 Z M 725.117188 321.667969 L 725.117188 290.433594 L 727.894531 291.148438 L 735.320312 293.050781 L 735.320312 324.289062 Z M 730.476562 329.582031 L 736.820312 330.011719 L 759.242188 331.558594 L 759.242188 362.867188 L 731.367188 360.945312 C 731.359375 360.945312 731.355469 360.941406 731.347656 360.941406 L 730.476562 360.882812 Z M 743.914062 402.105469 L 722.484375 397.015625 L 722.484375 365.769531 L 743.914062 370.859375 Z M 745.15625 368.578125 L 727.058594 364.300781 L 731.363281 363.433594 L 758.867188 365.332031 Z M 767.832031 365.769531 L 767.832031 397.019531 L 746.429688 402.105469 L 746.429688 370.859375 Z M 772.007812 358.117188 L 762.820312 361.894531 C 762.816406 361.898438 762.8125 361.898438 762.808594 361.898438 L 761.726562 362.34375 L 761.726562 331.230469 L 772.007812 327.003906 Z M 772.007812 358.117188 " fill-opacity="1" fill-rule="nonzero"/></g></svg>