<svg xmlns="http://www.w3.org/2000/svg" xmlns:xlink="http://www.w3.org/1999/xlink" width="1920" zoomAndPan="magnify" viewBox="0 0 1440 809.999993" height="1080" preserveAspectRatio="xMidYMid meet" version="1.0"><defs><clipPath id="794c231e55"><path d="M 565 211 L 952 211 L 952 482 L 565 482 Z M 565 211 " clip-rule="nonzero"/></clipPath><clipPath id="b5df622821"><path d="M 369.710938 289.253906 L 876.703125 70.941406 L 1070.398438 520.761719 L 563.402344 739.074219 Z M 369.710938 289.253906 " clip-rule="nonzero"/></clipPath><clipPath id="a50300fef9"><path d="M 369.710938 289.253906 L 876.703125 70.941406 L 1070.398438 520.761719 L 563.402344 739.074219 Z M 369.710938 289.253906 " clip-rule="nonzero"/></clipPath><clipPath id="cf09576316"><path d="M 570 216 L 947 216 L 947 373 L 570 373 Z M 570 216 " clip-rule="nonzero"/></clipPath><clipPath id="cb3d5bb7ef"><path d="M 369.710938 289.253906 L 876.703125 70.941406 L 1070.398438 520.761719 L 563.402344 739.074219 Z M 369.710938 289.253906 " clip-rule="nonzero"/></clipPath><clipPath id="35bac77cbe"><path d="M 369.710938 289.253906 L 876.703125 70.941406 L 1070.398438 520.761719 L 563.402344 739.074219 Z M 369.710938 289.253906 " clip-rule="nonzero"/></clipPath><clipPath id="b5fbae7b82"><path d="M 553 219 L 568 219 L 568 232 L 553 232 Z M 553 219 " clip-rule="nonzero"/></clipPath><clipPath id="19a6940603"><path d="M 369.710938 289.253906 L 876.703125 70.941406 L 1070.398438 520.761719 L 563.402344 739.074219 Z M 369.710938 289.253906 " clip-rule="nonzero"/></clipPath><clipPath id="7f8ed3518d"><path d="M 369.710938 289.253906 L 876.703125 70.941406 L 1070.398438 520.761719 L 563.402344 739.074219 Z M 369.710938 289.253906 " clip-rule="nonzero"/></clipPath><clipPath id="858aa295a3"><path d="M 554 215 L 567 215 L 567 227 L 554 227 Z M 554 215 " clip-rule="nonzero"/></clipPath><clipPath id="1c7510a0f9"><path d="M 369.710938 289.253906 L 876.703125 70.941406 L 1070.398438 520.761719 L 563.402344 739.074219 Z M 369.710938 289.253906 " clip-rule="nonzero"/></clipPath><clipPath id="20d5549653"><path d="M 369.710938 289.253906 L 876.703125 70.941406 L 1070.398438 520.761719 L 563.402344 739.074219 Z M 369.710938 289.253906 " clip-rule="nonzero"/></clipPath><clipPath id="5f4f7ca3b8"><path d="M 555 212 L 566 212 L 566 222 L 555 222 Z M 555 212 " clip-rule="nonzero"/></clipPath><clipPath id="602200949a"><path d="M 369.710938 289.253906 L 876.703125 70.941406 L 1070.398438 520.761719 L 563.402344 739.074219 Z M 369.710938 289.253906 " clip-rule="nonzero"/></clipPath><clipPath id="9d64638058"><path d="M 369.710938 289.253906 L 876.703125 70.941406 L 1070.398438 520.761719 L 563.402344 739.074219 Z M 369.710938 289.253906 " clip-rule="nonzero"/></clipPath><clipPath id="b9165cc81f"><path d="M 556 209 L 565 209 L 565 217 L 556 217 Z M 556 209 " clip-rule="nonzero"/></clipPath><clipPath id="3133eef070"><path d="M 369.710938 289.253906 L 876.703125 70.941406 L 1070.398438 520.761719 L 563.402344 739.074219 Z M 369.710938 289.253906 " clip-rule="nonzero"/></clipPath><clipPath id="3ae3c7727b"><path d="M 369.710938 289.253906 L 876.703125 70.941406 L 1070.398438 520.761719 L 563.402344 739.074219 Z M 369.710938 289.253906 " clip-rule="nonzero"/></clipPath><clipPath id="cac70a9990"><path d="M 555 228 L 572 228 L 572 736 L 555 736 Z M 555 228 " clip-rule="nonzero"/></clipPath><clipPath id="b9411ea0c0"><path d="M 369.710938 289.253906 L 876.703125 70.941406 L 1070.398438 520.761719 L 563.402344 739.074219 Z M 369.710938 289.253906 " clip-rule="nonzero"/></clipPath><clipPath id="51c4e7ebb2"><path d="M 369.710938 289.253906 L 876.703125 70.941406 L 1070.398438 520.761719 L 563.402344 739.074219 Z M 369.710938 289.253906 " clip-rule="nonzero"/></clipPath><clipPath id="8d1d4650dd"><path d="M 631.71875 261.839844 L 738.96875 261.839844 L 738.96875 354.839844 L 631.71875 354.839844 Z M 631.71875 261.839844 " clip-rule="nonzero"/></clipPath><clipPath id="ac969fb2ba"><path d="M 0.917969 0.84375 L 59.757812 0.84375 L 59.757812 48.71875 L 0.917969 48.71875 Z M 0.917969 0.84375 " clip-rule="nonzero"/></clipPath><clipPath id="9c0d051f9c"><path d="M 0.917969 0.84375 L 107.96875 0.84375 L 107.96875 93.648438 L 0.917969 93.648438 Z M 0.917969 0.84375 " clip-rule="nonzero"/></clipPath><clipPath id="f44f6a49b4"><rect x="0" width="108" y="0" height="94"/></clipPath><clipPath id="6213e3086c"><path d="M 739.171875 296.789062 L 797.671875 296.789062 L 797.671875 423.539062 L 739.171875 423.539062 Z M 739.171875 296.789062 " clip-rule="nonzero"/></clipPath></defs><rect x="-144" width="1728" fill="#ffffff" y="-80.999999" height="971.999992" fill-opacity="1"/><rect x="-144" width="1728" fill="#ffffff" y="-80.999999" height="971.999992" fill-opacity="1"/><g clip-path="url(#794c231e55)"><g clip-path="url(#b5df622821)"><g clip-path="url(#a50300fef9)"><path fill="#ff914d" d="M 675.960938 211.9375 C 654.09375 212.082031 624.53125 217.382812 599.589844 222.917969 C 586.316406 225.863281 574.417969 228.855469 565.578125 231.179688 L 567.609375 449.34375 C 576.425781 447.027344 588.160156 444.082031 601.253906 441.175781 C 625.390625 435.820312 653.800781 430.65625 675.671875 430.183594 C 676.453125 430.164062 677.226562 430.15625 677.992188 430.152344 C 680.285156 430.136719 682.496094 430.179688 684.617188 430.28125 C 716.625 431.828125 746.808594 444.808594 776.902344 457.277344 C 806.996094 469.746094 836.996094 481.695312 868.605469 481.421875 C 886.941406 481.261719 913.640625 473.371094 935.667969 465.496094 C 941.523438 463.40625 947.007812 461.328125 951.964844 459.386719 L 949.9375 241.296875 C 945.132812 243.167969 939.828125 245.171875 934.214844 247.175781 C 912.109375 255.074219 885.390625 263.039062 866.578125 263.203125 C 834.515625 263.484375 804.296875 251.398438 774.191406 238.925781 C 744.082031 226.453125 714.078125 213.589844 682.492188 212.0625 C 680.40625 211.960938 678.230469 211.921875 675.964844 211.9375 Z M 675.960938 211.9375 " fill-opacity="1" fill-rule="evenodd"/></g></g></g><g clip-path="url(#cf09576316)"><g clip-path="url(#cb3d5bb7ef)"><g clip-path="url(#35bac77cbe)"><path fill="#ff914d" d="M 676.480469 216.433594 C 678.410156 216.425781 680.34375 216.464844 682.273438 216.554688 C 713.625 218.070312 743.851562 231.226562 772.46875 243.085938 C 802.515625 255.535156 833.546875 267.992188 866.613281 267.703125 C 874.132812 267.636719 881.847656 266.476562 889.207031 264.992188 C 897.53125 263.308594 905.785156 261.097656 913.910156 258.640625 C 921.242188 256.425781 928.511719 253.992188 935.726562 251.414062 C 938.992188 250.246094 942.25 249.046875 945.496094 247.820312 L 946.46875 352.175781 C 943 353.496094 939.328125 354.859375 935.515625 356.222656 C 913.414062 364.121094 886.691406 372.082031 867.878906 372.246094 C 835.820312 372.527344 805.597656 360.445312 775.492188 347.972656 C 745.386719 335.496094 715.378906 322.632812 683.792969 321.105469 C 681.710938 321.003906 679.53125 320.964844 677.269531 320.980469 L 677.261719 320.980469 C 655.394531 321.125 625.832031 326.425781 600.890625 331.960938 C 589.617188 334.464844 579.339844 337 571.082031 339.128906 L 570.109375 234.648438 C 580.214844 232.027344 590.371094 229.574219 600.5625 227.3125 C 609.503906 225.328125 618.480469 223.492188 627.496094 221.875 C 635.964844 220.359375 644.484375 219.023438 653.027344 218.027344 C 660.625 217.140625 668.339844 216.488281 675.988281 216.4375 Z M 676.480469 216.433594 " fill-opacity="1" fill-rule="evenodd"/></g></g></g><g clip-path="url(#b5fbae7b82)"><g clip-path="url(#19a6940603)"><g clip-path="url(#7f8ed3518d)"><path fill="#71625b" d="M 553.8125 225.570312 C 553.816406 225.980469 553.867188 226.390625 553.957031 226.792969 C 554.050781 227.195312 554.1875 227.585938 554.363281 227.964844 C 554.539062 228.34375 554.753906 228.703125 555.007812 229.042969 C 555.261719 229.382812 555.550781 229.695312 555.871094 229.980469 C 556.191406 230.269531 556.542969 230.527344 556.917969 230.75 C 557.296875 230.976562 557.691406 231.164062 558.109375 231.316406 C 558.527344 231.46875 558.957031 231.582031 559.398438 231.65625 C 559.839844 231.734375 560.285156 231.769531 560.734375 231.761719 C 561.183594 231.757812 561.628906 231.710938 562.070312 231.625 C 562.507812 231.539062 562.9375 231.414062 563.351562 231.253906 C 563.761719 231.089844 564.15625 230.894531 564.527344 230.660156 C 564.898438 230.425781 565.242188 230.160156 565.554688 229.867188 C 565.871094 229.570312 566.148438 229.25 566.394531 228.90625 C 566.640625 228.558594 566.847656 228.195312 567.015625 227.8125 C 567.183594 227.429688 567.308594 227.035156 567.390625 226.632812 C 567.472656 226.226562 567.511719 225.816406 567.507812 225.40625 C 567.503906 224.992188 567.453125 224.585938 567.363281 224.183594 C 567.269531 223.78125 567.132812 223.390625 566.957031 223.011719 C 566.78125 222.632812 566.566406 222.273438 566.3125 221.933594 C 566.058594 221.59375 565.769531 221.28125 565.449219 220.992188 C 565.128906 220.703125 564.777344 220.449219 564.402344 220.222656 C 564.027344 220 563.628906 219.8125 563.210938 219.660156 C 562.792969 219.507812 562.363281 219.390625 561.921875 219.316406 C 561.480469 219.242188 561.035156 219.207031 560.585938 219.210938 C 560.136719 219.21875 559.691406 219.261719 559.25 219.347656 C 558.8125 219.433594 558.382812 219.558594 557.96875 219.722656 C 557.558594 219.882812 557.164062 220.082031 556.792969 220.316406 C 556.421875 220.546875 556.078125 220.8125 555.765625 221.109375 C 555.449219 221.402344 555.171875 221.722656 554.925781 222.070312 C 554.679688 222.414062 554.472656 222.777344 554.304688 223.160156 C 554.136719 223.542969 554.011719 223.9375 553.929688 224.34375 C 553.847656 224.75 553.808594 225.15625 553.8125 225.570312 Z M 553.8125 225.570312 " fill-opacity="1" fill-rule="nonzero"/></g></g></g><g clip-path="url(#858aa295a3)"><g clip-path="url(#1c7510a0f9)"><g clip-path="url(#20d5549653)"><path fill="#71625b" d="M 554.507812 220.882812 C 554.511719 221.25 554.554688 221.613281 554.636719 221.972656 C 554.71875 222.328125 554.839844 222.679688 554.996094 223.015625 C 555.152344 223.351562 555.34375 223.671875 555.570312 223.976562 C 555.796875 224.277344 556.054688 224.554688 556.339844 224.8125 C 556.625 225.070312 556.9375 225.296875 557.273438 225.496094 C 557.609375 225.695312 557.960938 225.863281 558.332031 226 C 558.703125 226.136719 559.085938 226.238281 559.480469 226.304688 C 559.875 226.371094 560.269531 226.402344 560.671875 226.398438 C 561.070312 226.394531 561.46875 226.351562 561.859375 226.277344 C 562.253906 226.199219 562.632812 226.089844 563 225.945312 C 563.367188 225.800781 563.71875 225.625 564.046875 225.414062 C 564.378906 225.207031 564.683594 224.972656 564.964844 224.710938 C 565.246094 224.445312 565.492188 224.160156 565.710938 223.851562 C 565.929688 223.546875 566.117188 223.222656 566.265625 222.878906 C 566.414062 222.539062 566.523438 222.1875 566.597656 221.828125 C 566.671875 221.46875 566.707031 221.101562 566.703125 220.738281 C 566.699219 220.371094 566.65625 220.007812 566.574219 219.648438 C 566.492188 219.289062 566.371094 218.941406 566.214844 218.601562 C 566.054688 218.265625 565.863281 217.945312 565.636719 217.644531 C 565.414062 217.339844 565.15625 217.0625 564.871094 216.804688 C 564.582031 216.550781 564.273438 216.320312 563.9375 216.121094 C 563.601562 215.921875 563.25 215.753906 562.875 215.617188 C 562.503906 215.480469 562.121094 215.378906 561.730469 215.3125 C 561.335938 215.246094 560.9375 215.214844 560.539062 215.222656 C 560.136719 215.226562 559.742188 215.265625 559.347656 215.34375 C 558.957031 215.417969 558.578125 215.527344 558.210938 215.675781 C 557.839844 215.820312 557.492188 215.996094 557.160156 216.203125 C 556.832031 216.410156 556.523438 216.644531 556.246094 216.910156 C 555.964844 217.171875 555.714844 217.457031 555.496094 217.765625 C 555.277344 218.074219 555.09375 218.398438 554.945312 218.738281 C 554.796875 219.078125 554.683594 219.429688 554.609375 219.789062 C 554.535156 220.152344 554.503906 220.515625 554.507812 220.882812 Z M 554.507812 220.882812 " fill-opacity="1" fill-rule="nonzero"/></g></g></g><g clip-path="url(#5f4f7ca3b8)"><g clip-path="url(#602200949a)"><g clip-path="url(#9d64638058)"><path fill="#71625b" d="M 555.179688 217.089844 C 555.183594 217.414062 555.21875 217.734375 555.292969 218.050781 C 555.367188 218.367188 555.472656 218.675781 555.609375 218.972656 C 555.75 219.269531 555.917969 219.550781 556.117188 219.816406 C 556.316406 220.085938 556.542969 220.332031 556.796875 220.558594 C 557.046875 220.78125 557.324219 220.984375 557.617188 221.160156 C 557.914062 221.335938 558.226562 221.484375 558.554688 221.605469 C 558.882812 221.726562 559.21875 221.816406 559.566406 221.875 C 559.914062 221.933594 560.265625 221.960938 560.617188 221.957031 C 560.972656 221.953125 561.320312 221.914062 561.667969 221.847656 C 562.011719 221.78125 562.347656 221.683594 562.671875 221.554688 C 562.996094 221.429688 563.304688 221.273438 563.597656 221.089844 C 563.890625 220.90625 564.160156 220.699219 564.40625 220.464844 C 564.652344 220.234375 564.871094 219.984375 565.066406 219.710938 C 565.257812 219.4375 565.421875 219.152344 565.554688 218.851562 C 565.683594 218.550781 565.78125 218.242188 565.847656 217.921875 C 565.914062 217.605469 565.945312 217.285156 565.941406 216.960938 C 565.9375 216.636719 565.898438 216.316406 565.824219 216 C 565.753906 215.683594 565.648438 215.375 565.507812 215.078125 C 565.367188 214.78125 565.199219 214.5 565 214.230469 C 564.800781 213.964844 564.574219 213.71875 564.320312 213.492188 C 564.070312 213.265625 563.796875 213.066406 563.5 212.890625 C 563.203125 212.710938 562.890625 212.566406 562.5625 212.445312 C 562.234375 212.324219 561.898438 212.234375 561.550781 212.175781 C 561.203125 212.117188 560.851562 212.089844 560.5 212.09375 C 560.148438 212.097656 559.796875 212.132812 559.453125 212.203125 C 559.105469 212.269531 558.769531 212.367188 558.445312 212.492188 C 558.121094 212.621094 557.8125 212.777344 557.519531 212.960938 C 557.230469 213.144531 556.960938 213.351562 556.710938 213.582031 C 556.464844 213.816406 556.246094 214.066406 556.050781 214.339844 C 555.859375 214.609375 555.695312 214.898438 555.566406 215.199219 C 555.433594 215.5 555.335938 215.808594 555.269531 216.125 C 555.203125 216.445312 555.175781 216.765625 555.179688 217.089844 Z M 555.179688 217.089844 " fill-opacity="1" fill-rule="nonzero"/></g></g></g><g clip-path="url(#b9165cc81f)"><g clip-path="url(#3133eef070)"><g clip-path="url(#3ae3c7727b)"><path fill="#71625b" d="M 556.207031 213.105469 C 556.210938 213.363281 556.242188 213.621094 556.300781 213.875 C 556.359375 214.125 556.441406 214.371094 556.554688 214.609375 C 556.664062 214.847656 556.800781 215.074219 556.960938 215.289062 C 557.117188 215.5 557.300781 215.699219 557.503906 215.878906 C 557.703125 216.058594 557.921875 216.222656 558.160156 216.363281 C 558.398438 216.503906 558.644531 216.621094 558.910156 216.71875 C 559.171875 216.8125 559.441406 216.886719 559.71875 216.933594 C 559.996094 216.980469 560.277344 217 560.558594 217 C 560.84375 216.996094 561.121094 216.964844 561.398438 216.914062 C 561.675781 216.859375 561.945312 216.78125 562.203125 216.679688 C 562.464844 216.574219 562.710938 216.453125 562.941406 216.304688 C 563.175781 216.15625 563.390625 215.992188 563.589844 215.804688 C 563.789062 215.621094 563.964844 215.417969 564.117188 215.203125 C 564.273438 214.984375 564.402344 214.757812 564.507812 214.515625 C 564.613281 214.273438 564.691406 214.027344 564.742188 213.773438 C 564.796875 213.519531 564.820312 213.261719 564.816406 213 C 564.8125 212.742188 564.785156 212.488281 564.726562 212.234375 C 564.667969 211.980469 564.582031 211.734375 564.472656 211.496094 C 564.359375 211.257812 564.226562 211.03125 564.066406 210.820312 C 563.90625 210.605469 563.726562 210.410156 563.523438 210.226562 C 563.320312 210.046875 563.101562 209.886719 562.863281 209.746094 C 562.628906 209.605469 562.378906 209.484375 562.117188 209.390625 C 561.855469 209.292969 561.582031 209.222656 561.304688 209.175781 C 561.027344 209.128906 560.746094 209.105469 560.464844 209.109375 C 560.183594 209.113281 559.902344 209.140625 559.625 209.195312 C 559.351562 209.25 559.082031 209.328125 558.820312 209.429688 C 558.5625 209.53125 558.316406 209.65625 558.082031 209.800781 C 557.847656 209.949219 557.632812 210.113281 557.433594 210.300781 C 557.238281 210.484375 557.0625 210.6875 556.90625 210.90625 C 556.753906 211.121094 556.621094 211.351562 556.515625 211.589844 C 556.410156 211.832031 556.332031 212.078125 556.28125 212.335938 C 556.230469 212.589844 556.203125 212.847656 556.207031 213.105469 Z M 556.207031 213.105469 " fill-opacity="1" fill-rule="nonzero"/></g></g></g><g clip-path="url(#cac70a9990)"><g clip-path="url(#b9411ea0c0)"><g clip-path="url(#51c4e7ebb2)"><path fill="#71625b" d="M 565.707031 228.21875 L 555.679688 228.339844 L 561.734375 735.148438 L 571.761719 735.027344 Z M 565.707031 228.21875 " fill-opacity="1" fill-rule="evenodd"/></g></g></g><g clip-path="url(#8d1d4650dd)"><g transform="matrix(1, 0, 0, 1, 631, 261)"><g clip-path="url(#f44f6a49b4)"><path fill="#ff751f" d="M 99.800781 90.757812 C 99.800781 90.757812 99.683594 90.585938 99.460938 90.261719 C 99.402344 90.183594 99.339844 90.09375 99.269531 89.996094 C 99.191406 89.902344 99.109375 89.800781 99.015625 89.691406 C 98.921875 89.578125 98.820312 89.460938 98.714844 89.332031 C 98.609375 89.199219 98.480469 89.085938 98.351562 88.949219 C 98.21875 88.816406 98.078125 88.675781 97.933594 88.53125 C 97.78125 88.386719 97.613281 88.253906 97.441406 88.105469 C 97.265625 87.960938 97.089844 87.796875 96.890625 87.65625 C 96.6875 87.515625 96.480469 87.367188 96.265625 87.214844 C 96.15625 87.144531 96.046875 87.058594 95.929688 86.988281 C 95.8125 86.921875 95.691406 86.851562 95.570312 86.78125 C 95.328125 86.644531 95.074219 86.492188 94.8125 86.351562 C 94.542969 86.222656 94.265625 86.097656 93.980469 85.96875 C 93.835938 85.902344 93.691406 85.832031 93.542969 85.773438 C 93.390625 85.71875 93.238281 85.664062 93.085938 85.605469 C 92.777344 85.496094 92.457031 85.382812 92.132812 85.277344 C 91.800781 85.191406 91.464844 85.101562 91.121094 85.011719 C 90.949219 84.96875 90.773438 84.921875 90.597656 84.882812 C 90.421875 84.851562 90.242188 84.824219 90.0625 84.792969 C 89.699219 84.734375 89.332031 84.671875 88.960938 84.613281 C 87.46875 84.464844 85.875 84.386719 84.253906 84.53125 C 83.847656 84.5625 83.4375 84.589844 83.027344 84.628906 C 82.621094 84.691406 82.210938 84.753906 81.796875 84.816406 C 81.59375 84.847656 81.386719 84.878906 81.179688 84.914062 C 80.972656 84.945312 80.761719 84.96875 80.558594 85.019531 C 80.148438 85.113281 79.738281 85.207031 79.324219 85.300781 C 79.121094 85.347656 78.914062 85.394531 78.707031 85.441406 C 78.5 85.488281 78.289062 85.535156 78.089844 85.597656 C 77.683594 85.714844 77.273438 85.835938 76.867188 85.957031 C 76.46875 86.078125 76.070312 86.195312 75.671875 86.316406 L 74.496094 86.691406 C 74.292969 86.757812 74.113281 86.800781 73.925781 86.859375 L 73.367188 87.019531 C 73 87.128906 72.613281 87.226562 72.230469 87.324219 C 71.851562 87.425781 71.46875 87.519531 71.085938 87.605469 C 70.707031 87.691406 70.328125 87.792969 69.945312 87.863281 C 69.183594 88.019531 68.421875 88.152344 67.671875 88.28125 C 67.292969 88.335938 66.917969 88.390625 66.546875 88.445312 C 66.171875 88.488281 65.804688 88.53125 65.433594 88.578125 C 63.960938 88.730469 62.527344 88.808594 61.164062 88.8125 C 60.824219 88.816406 60.488281 88.804688 60.15625 88.800781 C 59.824219 88.796875 59.5 88.773438 59.175781 88.765625 C 58.855469 88.753906 58.539062 88.730469 58.226562 88.710938 C 57.917969 88.683594 57.613281 88.660156 57.3125 88.632812 C 56.117188 88.519531 55.023438 88.351562 54.054688 88.164062 C 53.085938 87.980469 52.246094 87.773438 51.550781 87.585938 C 50.167969 87.203125 49.390625 86.882812 49.390625 86.882812 C 49.390625 86.882812 49.429688 86.917969 49.507812 86.984375 C 49.582031 87.050781 49.699219 87.152344 49.855469 87.273438 C 50.164062 87.515625 50.632812 87.855469 51.265625 88.238281 C 51.898438 88.625 52.691406 89.054688 53.640625 89.476562 C 54.589844 89.894531 55.6875 90.308594 56.925781 90.65625 C 57.234375 90.742188 57.550781 90.824219 57.875 90.90625 C 58.199219 90.976562 58.53125 91.058594 58.871094 91.128906 C 59.550781 91.269531 60.257812 91.382812 60.992188 91.484375 C 62.457031 91.667969 64.015625 91.761719 65.628906 91.722656 C 66.03125 91.710938 66.441406 91.703125 66.847656 91.679688 C 67.257812 91.648438 67.667969 91.613281 68.082031 91.582031 C 68.496094 91.535156 68.910156 91.492188 69.328125 91.445312 C 69.742188 91.390625 70.15625 91.316406 70.574219 91.253906 C 70.996094 91.195312 71.410156 91.101562 71.828125 91.023438 C 72.035156 90.980469 72.246094 90.945312 72.453125 90.898438 L 73.078125 90.75 C 73.492188 90.652344 73.910156 90.558594 74.328125 90.433594 L 74.960938 90.257812 C 75.167969 90.195312 75.386719 90.140625 75.578125 90.074219 C 76.359375 89.824219 77.140625 89.574219 77.917969 89.324219 C 78.296875 89.203125 78.671875 89.082031 79.042969 88.957031 C 79.230469 88.890625 79.417969 88.839844 79.609375 88.789062 C 79.796875 88.738281 79.984375 88.6875 80.171875 88.636719 C 80.546875 88.535156 80.921875 88.433594 81.292969 88.332031 C 81.476562 88.273438 81.664062 88.242188 81.851562 88.199219 C 82.035156 88.160156 82.222656 88.117188 82.40625 88.078125 C 82.777344 87.996094 83.148438 87.914062 83.511719 87.835938 C 83.878906 87.777344 84.242188 87.714844 84.605469 87.65625 C 84.785156 87.625 84.964844 87.59375 85.144531 87.566406 C 85.234375 87.550781 85.324219 87.53125 85.414062 87.519531 L 85.683594 87.496094 C 86.039062 87.464844 86.390625 87.421875 86.742188 87.382812 C 86.917969 87.367188 87.09375 87.335938 87.265625 87.335938 C 87.4375 87.328125 87.609375 87.324219 87.78125 87.316406 C 88.121094 87.304688 88.460938 87.289062 88.796875 87.273438 C 89.128906 87.28125 89.457031 87.289062 89.78125 87.296875 C 89.941406 87.300781 90.105469 87.304688 90.265625 87.308594 C 90.421875 87.324219 90.578125 87.339844 90.734375 87.351562 C 91.046875 87.382812 91.355469 87.410156 91.65625 87.4375 C 91.957031 87.488281 92.25 87.535156 92.539062 87.582031 C 92.679688 87.605469 92.824219 87.628906 92.96875 87.652344 C 93.109375 87.679688 93.242188 87.71875 93.378906 87.75 C 93.648438 87.816406 93.917969 87.882812 94.179688 87.945312 C 94.4375 88.019531 94.683594 88.101562 94.925781 88.179688 C 95.046875 88.21875 95.167969 88.257812 95.289062 88.296875 C 95.40625 88.332031 95.515625 88.382812 95.628906 88.425781 C 95.855469 88.515625 96.070312 88.605469 96.28125 88.6875 C 96.390625 88.726562 96.488281 88.777344 96.585938 88.828125 C 96.683594 88.875 96.78125 88.917969 96.878906 88.964844 C 97.066406 89.058594 97.253906 89.140625 97.425781 89.234375 C 97.597656 89.332031 97.757812 89.421875 97.914062 89.507812 C 98.230469 89.675781 98.488281 89.855469 98.722656 90.003906 C 98.839844 90.082031 98.949219 90.148438 99.050781 90.214844 C 99.144531 90.285156 99.234375 90.347656 99.3125 90.40625 C 99.632812 90.636719 99.800781 90.757812 99.800781 90.757812 " fill-opacity="1" fill-rule="nonzero"/><path fill="#ff751f" d="M 49.351562 86.859375 C 49.875 86.890625 50.394531 86.90625 50.914062 86.929688 C 51.4375 86.945312 51.957031 86.984375 52.480469 86.964844 C 53.003906 86.960938 53.527344 86.941406 54.054688 86.929688 C 54.316406 86.921875 54.582031 86.917969 54.84375 86.902344 L 55.628906 86.84375 C 56.152344 86.804688 56.675781 86.757812 57.203125 86.714844 C 57.722656 86.652344 58.246094 86.585938 58.769531 86.515625 L 59.554688 86.40625 L 60.332031 86.273438 C 60.851562 86.179688 61.375 86.085938 61.894531 85.984375 L 63.441406 85.632812 C 63.703125 85.574219 63.957031 85.507812 64.214844 85.4375 L 64.980469 85.226562 C 65.238281 85.15625 65.496094 85.09375 65.75 85.015625 L 66.511719 84.773438 L 67.269531 84.53125 L 68.027344 84.265625 L 68.78125 83.996094 C 69.03125 83.902344 69.277344 83.796875 69.527344 83.699219 C 69.773438 83.597656 70.023438 83.503906 70.269531 83.394531 L 71.007812 83.070312 C 71.257812 82.964844 71.5 82.84375 71.746094 82.730469 C 71.988281 82.613281 72.234375 82.5 72.476562 82.371094 C 72.71875 82.246094 72.960938 82.121094 73.203125 81.984375 C 73.324219 81.914062 73.445312 81.851562 73.570312 81.777344 C 73.699219 81.703125 73.808594 81.640625 73.960938 81.542969 L 82.046875 76.410156 L 72.601562 78.5625 C 71.730469 78.761719 70.859375 78.957031 69.988281 79.167969 L 67.367188 79.699219 C 66.488281 79.84375 65.613281 80.015625 64.734375 80.148438 L 63.414062 80.328125 L 62.753906 80.425781 C 62.535156 80.457031 62.316406 80.476562 62.09375 80.5 L 60.773438 80.644531 L 60.441406 80.679688 L 60.109375 80.703125 L 59.449219 80.75 C 59.007812 80.785156 58.566406 80.832031 58.125 80.851562 L 56.800781 80.90625 C 56.578125 80.914062 56.355469 80.929688 56.136719 80.929688 C 55.914062 80.929688 55.695312 80.933594 55.472656 80.9375 C 55.03125 80.9375 54.589844 80.953125 54.148438 80.945312 C 53.265625 80.921875 52.382812 80.910156 51.5 80.847656 C 50.617188 80.8125 49.742188 80.707031 48.863281 80.625 L 47.550781 80.460938 C 47.109375 80.40625 46.679688 80.320312 46.242188 80.25 C 45.800781 80.191406 45.371094 80.09375 44.9375 80.011719 C 44.722656 79.96875 44.503906 79.929688 44.285156 79.878906 L 43.640625 79.726562 L 42.992188 79.578125 L 42.351562 79.40625 L 41.707031 79.234375 L 41.070312 79.039062 L 40.433594 78.847656 L 39.800781 78.632812 C 39.375 78.496094 38.960938 78.335938 38.542969 78.179688 C 37.707031 77.863281 36.882812 77.511719 36.070312 77.132812 C 35.253906 76.753906 34.460938 76.328125 33.675781 75.878906 C 33.476562 75.765625 33.285156 75.644531 33.089844 75.527344 C 32.894531 75.414062 32.707031 75.289062 32.511719 75.164062 C 32.132812 74.914062 31.757812 74.652344 31.394531 74.367188 C 31.664062 74.742188 31.972656 75.089844 32.289062 75.429688 C 32.605469 75.769531 32.929688 76.101562 33.277344 76.414062 C 33.617188 76.734375 33.972656 77.035156 34.335938 77.328125 L 34.886719 77.765625 C 35.070312 77.90625 35.261719 78.042969 35.453125 78.179688 C 35.640625 78.320312 35.832031 78.453125 36.027344 78.582031 C 36.222656 78.710938 36.414062 78.847656 36.609375 78.976562 L 37.210938 79.34375 L 37.507812 79.527344 L 37.816406 79.703125 L 38.429688 80.050781 C 38.632812 80.167969 38.847656 80.265625 39.054688 80.375 L 39.683594 80.695312 L 40.324219 80.996094 L 40.96875 81.285156 L 41.625 81.554688 L 42.28125 81.820312 L 42.945312 82.0625 L 43.613281 82.300781 C 43.835938 82.375 44.0625 82.441406 44.289062 82.511719 C 44.738281 82.652344 45.1875 82.800781 45.648438 82.917969 C 46.105469 83.03125 46.558594 83.160156 47.019531 83.261719 L 48.40625 83.5625 C 48.871094 83.65625 49.339844 83.722656 49.804688 83.804688 C 50.269531 83.886719 50.738281 83.941406 51.207031 84 C 52.144531 84.136719 53.085938 84.1875 54.03125 84.261719 C 54.5 84.292969 54.972656 84.300781 55.441406 84.320312 C 55.914062 84.339844 56.386719 84.351562 56.859375 84.339844 L 58.269531 84.320312 C 58.742188 84.3125 59.210938 84.277344 59.683594 84.257812 L 60.386719 84.214844 L 60.738281 84.195312 L 61.089844 84.160156 L 62.492188 84.019531 C 63.429688 83.941406 64.355469 83.777344 65.285156 83.648438 C 65.515625 83.613281 65.746094 83.574219 65.976562 83.527344 L 66.667969 83.402344 L 68.046875 83.144531 L 70.78125 82.511719 C 71.683594 82.269531 72.582031 82.015625 73.476562 81.765625 L 72.117188 78.785156 C 72.054688 78.828125 71.945312 78.898438 71.851562 78.960938 C 71.757812 79.023438 71.648438 79.085938 71.550781 79.148438 C 71.347656 79.277344 71.132812 79.398438 70.921875 79.523438 C 70.714844 79.648438 70.496094 79.765625 70.28125 79.886719 C 70.066406 80.007812 69.851562 80.132812 69.628906 80.246094 L 68.96875 80.589844 C 68.746094 80.707031 68.519531 80.8125 68.292969 80.921875 L 67.621094 81.25 L 66.933594 81.5625 L 66.25 81.875 L 65.550781 82.167969 L 64.855469 82.460938 C 64.621094 82.558594 64.386719 82.648438 64.148438 82.738281 L 63.441406 83.015625 C 63.207031 83.109375 62.972656 83.199219 62.730469 83.28125 L 61.296875 83.792969 C 60.816406 83.957031 60.328125 84.097656 59.84375 84.261719 L 59.117188 84.496094 L 58.382812 84.707031 L 56.90625 85.136719 C 56.410156 85.261719 55.914062 85.382812 55.417969 85.515625 L 54.671875 85.710938 C 54.421875 85.773438 54.171875 85.820312 53.921875 85.878906 C 53.421875 85.996094 52.917969 86.105469 52.414062 86.226562 L 52.035156 86.3125 L 51.652344 86.386719 L 50.882812 86.539062 C 50.375 86.644531 49.863281 86.742188 49.351562 86.859375 " fill-opacity="1" fill-rule="nonzero"/><path fill="#ff751f" d="M 31.394531 74.367188 C 31.984375 74.480469 32.574219 74.578125 33.164062 74.683594 C 33.460938 74.734375 33.753906 74.785156 34.050781 74.832031 L 34.492188 74.902344 L 34.941406 74.957031 L 36.734375 75.164062 C 37.035156 75.191406 37.335938 75.234375 37.636719 75.253906 L 38.535156 75.316406 L 40.339844 75.425781 C 40.941406 75.449219 41.546875 75.453125 42.148438 75.46875 C 42.449219 75.472656 42.753906 75.480469 43.054688 75.484375 L 43.960938 75.464844 C 44.566406 75.449219 45.171875 75.449219 45.773438 75.421875 L 47.585938 75.3125 C 47.890625 75.300781 48.191406 75.269531 48.492188 75.242188 L 49.398438 75.160156 C 50.003906 75.105469 50.605469 75.023438 51.207031 74.949219 L 52.109375 74.832031 L 53.914062 74.542969 L 54.8125 74.371094 C 55.410156 74.261719 56.007812 74.132812 56.605469 74 C 56.90625 73.933594 57.203125 73.855469 57.5 73.78125 C 57.800781 73.707031 58.097656 73.636719 58.394531 73.550781 C 58.695312 73.46875 58.992188 73.390625 59.292969 73.300781 C 59.445312 73.253906 59.589844 73.214844 59.746094 73.164062 C 59.902344 73.113281 60.039062 73.070312 60.222656 73.003906 L 72.253906 68.75 L 59.449219 69.710938 L 56.726562 69.914062 L 54.003906 70.058594 C 53.097656 70.089844 52.191406 70.097656 51.285156 70.125 C 50.378906 70.128906 49.476562 70.125 48.570312 70.121094 L 47.214844 70.074219 C 46.765625 70.058594 46.3125 70.058594 45.863281 70.023438 C 44.960938 69.964844 44.058594 69.925781 43.164062 69.832031 C 42.714844 69.789062 42.265625 69.753906 41.816406 69.710938 L 40.476562 69.542969 C 40.253906 69.515625 40.03125 69.492188 39.808594 69.457031 L 39.140625 69.355469 C 38.699219 69.289062 38.25 69.230469 37.808594 69.148438 C 36.929688 68.980469 36.042969 68.820312 35.167969 68.617188 L 34.507812 68.472656 L 33.859375 68.304688 L 33.207031 68.132812 L 32.878906 68.050781 L 32.554688 67.957031 C 32.125 67.828125 31.691406 67.707031 31.265625 67.574219 C 30.839844 67.429688 30.414062 67.285156 29.984375 67.148438 L 28.71875 66.679688 L 27.46875 66.167969 L 26.234375 65.613281 C 25.835938 65.40625 25.421875 65.222656 25.023438 65.007812 C 24.628906 64.792969 24.226562 64.582031 23.835938 64.351562 C 23.640625 64.234375 23.441406 64.128906 23.25 64.007812 L 22.671875 63.644531 C 21.910156 63.152344 21.164062 62.625 20.445312 62.054688 C 19.734375 61.480469 19.039062 60.871094 18.421875 60.171875 C 18.625 60.59375 18.878906 60.992188 19.144531 61.378906 C 19.410156 61.769531 19.695312 62.144531 19.996094 62.507812 C 20.597656 63.242188 21.257812 63.921875 21.953125 64.570312 C 22.652344 65.214844 23.390625 65.820312 24.160156 66.382812 C 24.347656 66.53125 24.546875 66.664062 24.742188 66.800781 L 25.332031 67.207031 C 25.734375 67.464844 26.140625 67.714844 26.546875 67.96875 C 26.960938 68.207031 27.375 68.445312 27.796875 68.675781 L 29.074219 69.328125 C 29.507812 69.527344 29.941406 69.726562 30.378906 69.921875 C 30.816406 70.113281 31.261719 70.285156 31.707031 70.46875 C 32.148438 70.65625 32.601562 70.800781 33.050781 70.964844 L 33.730469 71.199219 L 34.414062 71.410156 L 35.097656 71.625 C 35.328125 71.695312 35.554688 71.765625 35.789062 71.820312 L 37.175781 72.179688 C 37.640625 72.292969 38.105469 72.386719 38.570312 72.492188 L 39.273438 72.644531 C 39.503906 72.691406 39.742188 72.726562 39.976562 72.769531 L 41.386719 73.007812 C 41.855469 73.078125 42.328125 73.136719 42.800781 73.203125 C 43.742188 73.339844 44.691406 73.398438 45.636719 73.488281 C 46.585938 73.574219 47.535156 73.601562 48.484375 73.648438 C 49.429688 73.664062 50.378906 73.675781 51.324219 73.679688 C 52.269531 73.652344 53.21875 73.628906 54.160156 73.585938 C 55.105469 73.523438 56.046875 73.476562 56.988281 73.394531 L 59.800781 73.105469 L 59.027344 69.808594 L 58.660156 69.945312 C 58.535156 69.992188 58.398438 70.035156 58.265625 70.082031 C 58 70.175781 57.726562 70.261719 57.453125 70.351562 C 57.183594 70.441406 56.90625 70.523438 56.632812 70.605469 C 56.355469 70.683594 56.082031 70.773438 55.800781 70.84375 C 55.242188 70.996094 54.6875 71.160156 54.121094 71.296875 L 53.277344 71.515625 L 52.429688 71.710938 L 51.578125 71.910156 L 50.722656 72.089844 C 50.148438 72.210938 49.578125 72.335938 49.003906 72.433594 C 48.425781 72.535156 47.855469 72.660156 47.277344 72.753906 L 45.539062 73.035156 C 44.960938 73.132812 44.378906 73.203125 43.796875 73.285156 L 42.921875 73.410156 C 42.632812 73.449219 42.339844 73.480469 42.046875 73.515625 C 41.460938 73.582031 40.875 73.644531 40.289062 73.722656 L 38.523438 73.882812 L 37.640625 73.96875 C 37.34375 74 37.050781 74.011719 36.753906 74.03125 L 34.980469 74.160156 L 34.535156 74.195312 L 34.085938 74.214844 C 33.789062 74.226562 33.488281 74.246094 33.191406 74.261719 C 32.59375 74.292969 31.996094 74.324219 31.394531 74.367188 " fill-opacity="1" fill-rule="nonzero"/><path fill="#ff751f" d="M 18.421875 60.171875 C 18.757812 60.335938 19.09375 60.503906 19.429688 60.664062 C 19.769531 60.824219 20.125 60.957031 20.472656 61.105469 C 20.820312 61.257812 21.179688 61.378906 21.535156 61.5 L 22.074219 61.6875 C 22.253906 61.746094 22.4375 61.796875 22.617188 61.851562 L 23.164062 62.007812 C 23.34375 62.0625 23.527344 62.117188 23.710938 62.15625 L 24.816406 62.429688 C 25.558594 62.582031 26.300781 62.742188 27.050781 62.859375 C 27.800781 62.988281 28.550781 63.078125 29.304688 63.175781 C 30.058594 63.257812 30.816406 63.332031 31.570312 63.382812 C 32.328125 63.445312 33.085938 63.476562 33.84375 63.507812 C 34.597656 63.527344 35.359375 63.546875 36.113281 63.546875 C 36.492188 63.554688 36.871094 63.546875 37.25 63.539062 C 37.628906 63.53125 38.007812 63.53125 38.386719 63.515625 L 39.523438 63.480469 L 40.65625 63.425781 C 41.410156 63.378906 42.167969 63.332031 42.917969 63.269531 C 43.675781 63.214844 44.425781 63.144531 45.179688 63.0625 C 45.929688 62.984375 46.683594 62.894531 47.433594 62.800781 C 48.183594 62.707031 48.933594 62.605469 49.679688 62.488281 C 50.429688 62.375 51.175781 62.25 51.921875 62.121094 L 53.046875 61.917969 C 53.421875 61.847656 53.785156 61.777344 54.183594 61.691406 L 69.445312 58.367188 L 53.753906 58.316406 L 52.066406 58.3125 L 51.222656 58.308594 C 50.941406 58.308594 50.660156 58.3125 50.378906 58.296875 C 49.820312 58.269531 49.257812 58.25 48.699219 58.230469 L 47.855469 58.203125 C 47.574219 58.191406 47.296875 58.167969 47.019531 58.148438 L 45.34375 58.027344 C 45.203125 58.019531 45.0625 58.011719 44.921875 57.996094 L 44.503906 57.949219 L 43.671875 57.863281 L 42.835938 57.777344 C 42.558594 57.746094 42.28125 57.722656 42.003906 57.679688 L 40.34375 57.441406 C 39.789062 57.375 39.246094 57.257812 38.695312 57.164062 L 37.871094 57.019531 C 37.597656 56.96875 37.320312 56.925781 37.050781 56.863281 L 35.417969 56.503906 L 35.007812 56.414062 L 34.605469 56.308594 L 33.796875 56.097656 C 33.257812 55.960938 32.714844 55.828125 32.1875 55.660156 C 31.652344 55.5 31.117188 55.34375 30.585938 55.175781 C 30.0625 54.992188 29.535156 54.8125 29.007812 54.636719 C 28.742188 54.550781 28.484375 54.453125 28.226562 54.351562 L 27.445312 54.050781 C 27.1875 53.949219 26.921875 53.859375 26.667969 53.746094 L 25.902344 53.414062 L 25.132812 53.089844 C 24.875 52.980469 24.628906 52.855469 24.378906 52.738281 C 23.363281 52.273438 22.378906 51.753906 21.398438 51.222656 L 20.667969 50.8125 C 20.425781 50.671875 20.179688 50.542969 19.945312 50.390625 L 19.234375 49.949219 C 18.996094 49.800781 18.753906 49.664062 18.523438 49.503906 L 17.824219 49.039062 C 17.589844 48.886719 17.355469 48.730469 17.132812 48.566406 L 16.449219 48.074219 L 16.109375 47.832031 L 15.773438 47.574219 C 15.328125 47.234375 14.878906 46.898438 14.449219 46.535156 L 13.796875 45.996094 L 13.164062 45.441406 L 12.84375 45.164062 L 12.535156 44.875 L 11.914062 44.300781 L 11.308594 43.707031 L 11.003906 43.410156 L 10.710938 43.101562 C 9.917969 42.292969 9.164062 41.441406 8.441406 40.558594 C 8.082031 40.117188 7.726562 39.667969 7.382812 39.210938 C 7.046875 38.746094 6.714844 38.277344 6.398438 37.796875 C 6.605469 38.335938 6.847656 38.859375 7.101562 39.382812 C 7.355469 39.902344 7.621094 40.417969 7.914062 40.921875 C 8.492188 41.933594 9.128906 42.910156 9.816406 43.851562 L 10.074219 44.207031 L 10.339844 44.554688 L 10.878906 45.25 L 11.441406 45.921875 L 11.722656 46.261719 L 12.015625 46.589844 L 12.605469 47.242188 C 12.804688 47.457031 13.011719 47.667969 13.214844 47.878906 C 13.621094 48.304688 14.046875 48.707031 14.472656 49.113281 C 15.324219 49.925781 16.230469 50.679688 17.152344 51.417969 C 17.613281 51.789062 18.09375 52.128906 18.566406 52.480469 C 18.800781 52.660156 19.050781 52.820312 19.292969 52.988281 L 20.027344 53.484375 C 21.015625 54.132812 22.027344 54.746094 23.066406 55.308594 C 23.328125 55.453125 23.582031 55.605469 23.84375 55.734375 L 24.636719 56.136719 L 25.433594 56.53125 C 25.699219 56.660156 25.972656 56.773438 26.242188 56.898438 L 27.050781 57.257812 C 27.320312 57.378906 27.59375 57.5 27.867188 57.605469 C 28.417969 57.824219 28.96875 58.042969 29.519531 58.253906 C 30.078125 58.453125 30.640625 58.636719 31.199219 58.832031 C 31.753906 59.03125 32.324219 59.191406 32.890625 59.359375 L 33.742188 59.609375 L 34.167969 59.730469 L 34.597656 59.835938 L 36.320312 60.253906 C 36.605469 60.328125 36.898438 60.378906 37.1875 60.4375 L 38.054688 60.613281 C 38.632812 60.726562 39.210938 60.84375 39.792969 60.921875 L 41.542969 61.1875 C 41.832031 61.234375 42.125 61.265625 42.417969 61.296875 L 43.296875 61.394531 L 44.171875 61.488281 L 44.613281 61.535156 C 44.757812 61.546875 44.90625 61.554688 45.050781 61.5625 L 46.8125 61.675781 C 47.105469 61.691406 47.398438 61.71875 47.691406 61.730469 L 48.570312 61.75 C 49.15625 61.769531 49.742188 61.777344 50.328125 61.789062 C 50.621094 61.796875 50.914062 61.789062 51.207031 61.785156 L 52.085938 61.769531 L 53.84375 61.734375 L 53.410156 58.359375 L 52.363281 58.601562 L 51.289062 58.835938 C 50.570312 58.988281 49.851562 59.136719 49.128906 59.273438 L 46.957031 59.675781 C 46.234375 59.804688 45.507812 59.929688 44.78125 60.042969 C 44.050781 60.15625 43.324219 60.273438 42.597656 60.378906 C 41.867188 60.488281 41.136719 60.582031 40.40625 60.671875 L 39.3125 60.808594 L 38.214844 60.933594 C 37.847656 60.976562 37.480469 61.007812 37.113281 61.042969 C 36.75 61.082031 36.382812 61.113281 36.015625 61.144531 C 35.28125 61.210938 34.550781 61.261719 33.8125 61.308594 L 32.710938 61.367188 C 32.34375 61.390625 31.976562 61.40625 31.609375 61.414062 C 31.242188 61.425781 30.875 61.445312 30.507812 61.445312 L 29.402344 61.460938 C 28.667969 61.453125 27.929688 61.460938 27.195312 61.421875 C 26.457031 61.410156 25.726562 61.351562 24.988281 61.304688 L 23.886719 61.203125 C 23.519531 61.171875 23.15625 61.109375 22.789062 61.066406 C 22.605469 61.042969 22.421875 61.019531 22.238281 60.992188 L 21.691406 60.898438 C 21.328125 60.835938 20.957031 60.785156 20.597656 60.699219 C 20.238281 60.621094 19.871094 60.554688 19.507812 60.457031 C 19.148438 60.359375 18.785156 60.265625 18.421875 60.171875 " fill-opacity="1" fill-rule="nonzero"/><g clip-path="url(#ac969fb2ba)"><path fill="#ff751f" d="M 6.117188 37.210938 C 6.902344 37.710938 7.6875 38.210938 8.484375 38.691406 L 9.695312 39.398438 L 10.300781 39.75 L 12.152344 40.746094 C 12.566406 40.96875 12.988281 41.167969 13.40625 41.378906 C 13.828125 41.582031 14.242188 41.796875 14.667969 41.992188 L 15.945312 42.578125 C 16.160156 42.675781 16.371094 42.773438 16.585938 42.867188 L 17.238281 43.140625 L 18.535156 43.683594 L 19.847656 44.191406 L 20.507812 44.441406 L 21.171875 44.675781 L 22.503906 45.144531 L 23.847656 45.574219 C 24.296875 45.722656 24.75 45.851562 25.203125 45.980469 C 25.65625 46.109375 26.105469 46.25 26.5625 46.367188 L 27.933594 46.726562 L 29.3125 47.046875 C 29.769531 47.160156 30.234375 47.25 30.695312 47.347656 L 31.390625 47.488281 L 32.089844 47.621094 C 33.019531 47.796875 33.953125 47.9375 34.890625 48.074219 L 36.300781 48.257812 L 37.714844 48.414062 L 39.136719 48.53125 C 39.609375 48.5625 40.082031 48.597656 40.558594 48.621094 C 41.511719 48.664062 42.460938 48.699219 43.417969 48.699219 C 44.371094 48.699219 45.328125 48.671875 46.289062 48.617188 C 46.769531 48.589844 47.253906 48.554688 47.738281 48.511719 C 47.980469 48.488281 48.222656 48.464844 48.46875 48.4375 L 48.839844 48.390625 L 49.03125 48.363281 L 49.242188 48.332031 L 59.75 46.738281 L 49.175781 44.996094 L 46.976562 44.632812 L 44.785156 44.21875 L 42.609375 43.75 C 41.890625 43.570312 41.167969 43.414062 40.449219 43.226562 C 39.015625 42.855469 37.589844 42.460938 36.1875 42 L 35.132812 41.660156 L 34.089844 41.296875 C 33.390625 41.0625 32.707031 40.789062 32.019531 40.527344 C 31.671875 40.398438 31.335938 40.25 30.996094 40.109375 C 30.65625 39.96875 30.316406 39.832031 29.976562 39.683594 C 29.3125 39.375 28.628906 39.09375 27.972656 38.765625 L 26.980469 38.285156 L 26.003906 37.777344 C 25.675781 37.613281 25.359375 37.433594 25.039062 37.253906 C 24.71875 37.074219 24.394531 36.902344 24.082031 36.714844 C 22.8125 35.976562 21.578125 35.1875 20.375 34.351562 C 19.183594 33.503906 18.019531 32.609375 16.902344 31.667969 C 15.78125 30.726562 14.71875 29.714844 13.691406 28.667969 C 12.667969 27.621094 11.699219 26.515625 10.777344 25.371094 C 9.859375 24.222656 9 23.023438 8.195312 21.785156 C 7.390625 20.550781 6.648438 19.269531 5.960938 17.957031 C 5.273438 16.644531 4.652344 15.292969 4.089844 13.914062 C 3.808594 13.222656 3.542969 12.527344 3.292969 11.820312 C 3.039062 11.117188 2.804688 10.40625 2.589844 9.691406 C 2.148438 8.257812 1.777344 6.800781 1.46875 5.328125 C 1.164062 3.851562 0.917969 2.359375 0.796875 0.84375 C 0.726562 1.601562 0.714844 2.367188 0.722656 3.128906 C 0.734375 3.890625 0.761719 4.65625 0.824219 5.417969 C 0.9375 6.945312 1.148438 8.464844 1.433594 9.976562 C 1.714844 11.488281 2.089844 12.984375 2.535156 14.460938 C 2.972656 15.941406 3.507812 17.398438 4.109375 18.828125 C 4.707031 20.257812 5.394531 21.652344 6.148438 23.015625 C 6.902344 24.378906 7.734375 25.699219 8.632812 26.980469 C 9.53125 28.257812 10.511719 29.476562 11.542969 30.652344 C 12.578125 31.828125 13.675781 32.949219 14.832031 34.007812 C 15.988281 35.066406 17.191406 36.070312 18.445312 37.011719 C 19.707031 37.9375 21 38.828125 22.335938 39.644531 C 22.667969 39.847656 23.007812 40.039062 23.347656 40.238281 C 23.683594 40.433594 24.023438 40.632812 24.367188 40.816406 L 25.398438 41.371094 L 26.445312 41.902344 C 27.136719 42.261719 27.851562 42.574219 28.558594 42.902344 C 28.914062 43.0625 29.277344 43.210938 29.636719 43.363281 C 29.996094 43.511719 30.351562 43.671875 30.714844 43.808594 C 31.441406 44.089844 32.164062 44.382812 32.898438 44.636719 L 34 45.027344 L 35.109375 45.382812 C 36.589844 45.859375 38.085938 46.265625 39.589844 46.648438 C 39.964844 46.75 40.34375 46.824219 40.71875 46.914062 L 41.851562 47.171875 L 44.128906 47.625 L 46.414062 48.015625 L 48.703125 48.34375 L 48.640625 45.007812 L 48.355469 45.054688 L 48.035156 45.105469 C 47.824219 45.136719 47.601562 45.160156 47.386719 45.191406 C 46.945312 45.242188 46.503906 45.289062 46.058594 45.324219 C 45.167969 45.402344 44.265625 45.449219 43.367188 45.480469 C 42.464844 45.515625 41.558594 45.519531 40.65625 45.511719 C 40.203125 45.511719 39.75 45.492188 39.296875 45.484375 L 37.9375 45.425781 L 36.578125 45.347656 L 35.21875 45.242188 C 34.3125 45.15625 33.40625 45.0625 32.503906 44.945312 L 31.824219 44.863281 L 31.148438 44.765625 C 30.695312 44.699219 30.242188 44.640625 29.792969 44.5625 L 28.441406 44.332031 L 27.097656 44.082031 C 26.644531 44.003906 26.199219 43.898438 25.75 43.804688 C 25.304688 43.710938 24.855469 43.617188 24.410156 43.507812 L 23.074219 43.191406 L 21.742188 42.847656 L 21.074219 42.675781 L 20.414062 42.484375 L 19.085938 42.109375 L 17.769531 41.699219 L 17.109375 41.492188 L 16.453125 41.273438 L 15.144531 40.832031 C 14.707031 40.683594 14.277344 40.519531 13.839844 40.363281 C 13.410156 40.203125 12.96875 40.058594 12.539062 39.886719 L 11.246094 39.378906 L 10.601562 39.128906 L 9.960938 38.859375 L 8.675781 38.328125 C 7.820312 37.96875 6.976562 37.574219 6.117188 37.210938 " fill-opacity="1" fill-rule="nonzero"/></g><g clip-path="url(#9c0d051f9c)"><path fill="#ff751f" d="M 0.796875 0.84375 C 0.796875 0.84375 0.859375 0.988281 0.984375 1.273438 C 1.109375 1.554688 1.285156 1.976562 1.535156 2.519531 C 1.664062 2.789062 1.8125 3.089844 1.972656 3.417969 C 2.136719 3.75 2.3125 4.113281 2.523438 4.496094 C 2.730469 4.875 2.941406 5.296875 3.191406 5.730469 C 3.445312 6.160156 3.71875 6.617188 4.003906 7.097656 C 5.183594 9.011719 6.792969 11.25 8.910156 13.601562 C 9.980469 14.769531 11.183594 15.953125 12.511719 17.140625 C 12.851562 17.429688 13.195312 17.722656 13.539062 18.023438 C 13.894531 18.308594 14.257812 18.597656 14.621094 18.890625 C 15.363281 19.464844 16.128906 20.042969 16.9375 20.597656 C 18.542969 21.722656 20.289062 22.785156 22.144531 23.796875 C 24 24.808594 25.980469 25.738281 28.046875 26.601562 C 32.1875 28.328125 36.710938 29.714844 41.441406 30.8125 C 43.804688 31.367188 46.222656 31.835938 48.671875 32.257812 C 49.894531 32.464844 51.128906 32.667969 52.363281 32.851562 C 53.605469 33.039062 54.847656 33.203125 56.097656 33.371094 C 58.597656 33.691406 61.105469 34.003906 63.613281 34.28125 C 66.121094 34.566406 68.621094 34.855469 71.085938 35.203125 C 73.542969 35.542969 75.976562 35.9375 78.230469 36.539062 C 78.515625 36.609375 78.789062 36.691406 79.0625 36.773438 L 79.269531 36.835938 C 79.265625 36.832031 79.347656 36.859375 79.277344 36.835938 L 79.332031 36.855469 L 79.445312 36.890625 L 80.792969 37.335938 C 80.941406 37.386719 81.097656 37.433594 81.238281 37.484375 L 81.648438 37.632812 L 82.464844 37.933594 L 82.875 38.085938 L 83.289062 38.253906 L 84.109375 38.59375 L 84.523438 38.761719 L 84.925781 38.945312 C 86 39.425781 87.054688 39.941406 88.070312 40.507812 C 88.324219 40.648438 88.578125 40.789062 88.832031 40.929688 C 89.085938 41.066406 89.324219 41.226562 89.574219 41.375 C 89.820312 41.523438 90.066406 41.671875 90.308594 41.824219 C 90.546875 41.984375 90.785156 42.140625 91.023438 42.300781 C 92.914062 43.582031 94.652344 45.023438 96.175781 46.613281 C 97.703125 48.203125 99.035156 49.929688 100.140625 51.75 C 101.246094 53.574219 102.148438 55.480469 102.84375 57.417969 C 103.542969 59.351562 104.0625 61.308594 104.421875 63.246094 C 104.789062 65.175781 104.996094 67.082031 105.113281 68.925781 C 105.230469 70.769531 105.226562 72.550781 105.171875 74.25 C 105.117188 75.949219 104.984375 77.5625 104.824219 79.078125 C 104.496094 82.113281 104.015625 84.75 103.558594 86.910156 C 103.089844 89.066406 102.65625 90.757812 102.324219 91.898438 C 102.15625 92.472656 102.03125 92.910156 101.9375 93.203125 C 101.84375 93.496094 101.796875 93.648438 101.796875 93.648438 C 101.796875 93.648438 101.871094 93.507812 102.011719 93.234375 C 102.152344 92.957031 102.359375 92.550781 102.605469 92.003906 C 103.101562 90.917969 103.820312 89.308594 104.570312 87.199219 C 105.328125 85.089844 106.144531 82.480469 106.824219 79.410156 C 107.5 76.339844 108.046875 72.804688 108.15625 68.875 C 108.203125 66.914062 108.128906 64.855469 107.902344 62.730469 C 107.847656 62.195312 107.765625 61.660156 107.691406 61.121094 C 107.597656 60.582031 107.515625 60.039062 107.402344 59.496094 C 107.289062 58.949219 107.183594 58.398438 107.039062 57.851562 C 106.972656 57.574219 106.910156 57.296875 106.835938 57.023438 C 106.757812 56.746094 106.679688 56.472656 106.601562 56.195312 L 106.480469 55.777344 L 106.347656 55.363281 C 106.257812 55.085938 106.167969 54.808594 106.074219 54.53125 C 105.972656 54.257812 105.871094 53.980469 105.769531 53.703125 C 105.664062 53.429688 105.5625 53.148438 105.445312 52.875 C 105.328125 52.601562 105.214844 52.328125 105.097656 52.050781 C 104.984375 51.773438 104.847656 51.503906 104.71875 51.230469 C 104.589844 50.957031 104.46875 50.679688 104.328125 50.410156 C 104.183594 50.140625 104.042969 49.871094 103.902344 49.601562 C 103.765625 49.328125 103.609375 49.0625 103.453125 48.796875 C 103.296875 48.53125 103.140625 48.261719 102.984375 47.996094 C 102.816406 47.734375 102.648438 47.472656 102.476562 47.214844 L 102.222656 46.820312 C 102.136719 46.691406 102.042969 46.566406 101.949219 46.4375 C 101.769531 46.183594 101.585938 45.925781 101.402344 45.671875 C 101.21875 45.414062 101.015625 45.171875 100.820312 44.921875 C 100.621094 44.675781 100.433594 44.417969 100.226562 44.179688 C 100.015625 43.941406 99.808594 43.699219 99.597656 43.457031 C 97.917969 41.53125 95.953125 39.8125 93.835938 38.28125 C 93.574219 38.089844 93.304688 37.902344 93.039062 37.710938 C 92.765625 37.53125 92.492188 37.351562 92.21875 37.171875 C 91.941406 36.996094 91.675781 36.804688 91.390625 36.640625 C 91.109375 36.472656 90.824219 36.304688 90.542969 36.136719 C 89.40625 35.476562 88.234375 34.875 87.042969 34.316406 L 86.597656 34.101562 L 86.144531 33.90625 L 85.234375 33.511719 L 84.78125 33.316406 L 84.308594 33.132812 L 83.367188 32.769531 L 82.894531 32.585938 C 82.738281 32.527344 82.59375 32.480469 82.445312 32.425781 L 81.550781 32.121094 L 81.101562 31.96875 L 80.988281 31.929688 L 80.828125 31.878906 L 80.582031 31.804688 C 80.25 31.703125 79.921875 31.601562 79.59375 31.515625 C 78.277344 31.15625 76.972656 30.875 75.679688 30.632812 C 74.382812 30.394531 73.09375 30.1875 71.8125 30.007812 C 66.679688 29.316406 61.636719 28.871094 56.710938 28.324219 C 55.480469 28.183594 54.253906 28.039062 53.042969 27.890625 C 51.824219 27.746094 50.621094 27.585938 49.425781 27.421875 C 47.039062 27.082031 44.691406 26.699219 42.398438 26.273438 C 37.820312 25.394531 33.453125 24.3125 29.445312 22.921875 C 25.429688 21.546875 21.765625 19.894531 18.558594 18.042969 C 16.953125 17.125 15.464844 16.15625 14.09375 15.164062 C 12.71875 14.175781 11.476562 13.15625 10.328125 12.164062 C 8.066406 10.152344 6.253906 8.191406 4.859375 6.488281 C 3.464844 4.785156 2.46875 3.355469 1.796875 2.375 C 1.144531 1.375 0.796875 0.84375 0.796875 0.84375 " fill-opacity="1" fill-rule="nonzero"/></g></g></g></g><g clip-path="url(#6213e3086c)"><path fill="#ff751f" d="M 797.421875 338.386719 C 797.421875 338.328125 797.417969 338.273438 797.40625 338.214844 C 797.308594 337.605469 796.800781 337.144531 796.1875 337.105469 L 791.695312 336.800781 L 791.695312 301.773438 C 791.695312 301.753906 791.695312 301.734375 791.695312 301.71875 C 791.710938 301.101562 791.304688 300.546875 790.699219 300.390625 L 777.132812 296.910156 C 777.007812 296.878906 776.875 296.863281 776.746094 296.871094 L 743.257812 298.28125 C 742.597656 298.308594 742.058594 298.8125 741.992188 299.46875 C 741.988281 299.511719 741.984375 299.554688 741.984375 299.597656 C 741.984375 299.601562 741.984375 299.605469 741.984375 299.605469 L 741.984375 335.738281 C 741.984375 336.347656 742.394531 336.875 742.980469 337.027344 L 751.636719 339.246094 L 748.703125 340.453125 C 748.492188 340.507812 748.296875 340.613281 748.136719 340.765625 C 747.867188 341.015625 747.714844 341.367188 747.714844 341.734375 C 747.714844 341.734375 747.714844 341.734375 747.714844 341.738281 L 747.714844 377.375 L 740.238281 378.875 C 739.625 378.996094 739.183594 379.53125 739.171875 380.152344 C 739.171875 380.160156 739.171875 380.164062 739.171875 380.167969 C 739.171875 380.171875 739.171875 380.171875 739.171875 380.175781 L 739.171875 416.308594 C 739.171875 416.925781 739.59375 417.457031 740.191406 417.601562 L 765.625 423.636719 C 765.765625 423.6875 765.914062 423.710938 766.066406 423.710938 C 766.070312 423.710938 766.078125 423.710938 766.082031 423.710938 C 766.085938 423.710938 766.09375 423.710938 766.097656 423.710938 C 766.25 423.710938 766.398438 423.6875 766.539062 423.636719 L 791.9375 417.601562 C 792.539062 417.457031 792.960938 416.925781 792.960938 416.308594 L 792.960938 380.175781 C 792.960938 379.769531 792.773438 379.386719 792.457031 379.132812 C 792.253906 378.976562 792.015625 378.878906 791.765625 378.855469 L 790.007812 378.5 L 796.601562 375.789062 C 797.101562 375.585938 797.425781 375.097656 797.425781 374.5625 L 797.425781 338.429688 C 797.425781 338.414062 797.425781 338.398438 797.421875 338.386719 Z M 790.421875 339.328125 L 782.3125 342.664062 L 757.34375 340.976562 L 754.828125 340.804688 L 755.9375 340.347656 L 756.550781 340.507812 C 756.550781 340.507812 756.554688 340.507812 756.554688 340.507812 C 756.578125 340.511719 756.605469 340.519531 756.628906 340.523438 C 756.632812 340.523438 756.636719 340.527344 756.640625 340.527344 C 756.664062 340.53125 756.683594 340.53125 756.703125 340.535156 C 756.710938 340.535156 756.71875 340.539062 756.726562 340.539062 C 756.746094 340.542969 756.761719 340.542969 756.78125 340.542969 C 756.789062 340.542969 756.796875 340.542969 756.804688 340.546875 C 756.828125 340.546875 756.855469 340.546875 756.878906 340.546875 C 756.898438 340.546875 756.914062 340.546875 756.929688 340.546875 L 790.222656 339.238281 C 790.285156 339.273438 790.351562 339.304688 790.421875 339.328125 Z M 789.039062 336.628906 L 758.207031 337.839844 L 758.207031 304.363281 L 789.039062 303.152344 Z M 776.664062 299.53125 L 781.328125 300.730469 L 757.019531 301.753906 L 752.351562 300.554688 Z M 744.640625 334.710938 L 744.640625 301.316406 L 747.613281 302.082031 L 755.550781 304.117188 L 755.550781 337.507812 Z M 750.371094 343.167969 L 757.15625 343.628906 L 781.125 345.28125 L 781.125 378.753906 L 751.320312 376.695312 C 751.316406 376.695312 751.308594 376.695312 751.304688 376.695312 L 750.371094 376.628906 Z M 764.738281 420.699219 L 741.828125 415.257812 L 741.828125 381.855469 L 764.738281 387.292969 Z M 766.066406 384.855469 L 746.71875 380.28125 L 751.320312 379.359375 L 780.71875 381.386719 Z M 790.304688 381.855469 L 790.304688 415.261719 L 767.425781 420.699219 L 767.425781 387.292969 Z M 794.769531 373.671875 L 784.949219 377.710938 C 784.945312 377.714844 784.941406 377.714844 784.933594 377.71875 L 783.777344 378.195312 L 783.777344 344.933594 L 794.769531 340.410156 Z M 794.769531 373.671875 " fill-opacity="1" fill-rule="nonzero"/></g></svg>